<svg xmlns="http://www.w3.org/2000/svg" xmlns:xlink="http://www.w3.org/1999/xlink" id="body_95" preserveAspectRatio="xMinYMin meet" viewBox="0 0 816 1056"><defs><clipPath id="1"><path id="" clip-rule="evenodd" transform="matrix(1 0 0 1 0 0)" d="M0 792L0 0L0 0L612 0L612 0L612 792L612 792L0 792z" /></clipPath><clipPath id="2"><path id="" clip-rule="evenodd" transform="matrix(1 0 0 1 0 0)" d="M70.866 301.594L307.418 301.594L307.418 301.594L307.418 56.69202L307.418 56.69202L70.866 56.69202z" /></clipPath><clipPath id="3"><path id="" clip-rule="evenodd" transform="matrix(1 0 0 1 0 0)" d="M61.8661 48.69299L316.417 48.69299L316.417 48.69299L316.417 304.302L316.417 304.302L61.8661 304.302z" /></clipPath><clipPath id="4"><path id="" clip-rule="evenodd" transform="matrix(1 0 0 1 0 0)" d="M70.866 502.318L307.418 502.318L307.418 502.318L307.418 311.504L307.418 311.504L70.866 311.504z" /></clipPath><clipPath id="5"><path id="" clip-rule="evenodd" transform="matrix(1 0 0 1 0 0)" d="M61.8662 303.503L316.417 303.503L316.417 303.503L316.417 505.026L316.417 505.026L61.8662 505.026z" /></clipPath><clipPath id="6"><path id="" clip-rule="evenodd" transform="matrix(1 0 0 1 0 0)" d="M319.087 314.428L555.638 314.428L555.638 314.428L555.638 56.69299L555.638 56.69299L319.087 56.69299z" /></clipPath><clipPath id="7"><path id="" clip-rule="evenodd" transform="matrix(1 0 0 1 0 0)" d="M310.087 48.69299L564.638 48.69299L564.638 48.69299L564.638 308.137L564.638 308.137L310.087 308.137z" /></clipPath><clipPath id="8"><path id="" clip-rule="evenodd" transform="matrix(1 0 0 1 0 0)" d="M319.087 491.572L555.638 491.572L555.638 491.572L555.638 314.088L555.638 314.088L319.087 314.088z" /></clipPath><clipPath id="9"><path id="" clip-rule="evenodd" transform="matrix(1 0 0 1 0 0)" d="M310.087 306.088L564.638 306.088L564.638 306.088L564.638 494.28L564.638 494.28L310.087 494.28z" /></clipPath><clipPath id="10"><path id="" clip-rule="evenodd" transform="matrix(1 0 0 1 0 0)" d="M319.087 702.113L555.638 702.113L555.638 702.113L555.638 501.798L555.638 501.798L319.087 501.798z" /></clipPath><clipPath id="11"><path id="" clip-rule="evenodd" transform="matrix(1 0 0 1 0 0)" d="M310.087 493.799L564.638 493.799L564.638 493.799L564.638 684.14L564.638 684.14L310.087 684.14z" /></clipPath><clipPath id="12"><path id="" clip-rule="evenodd" transform="matrix(1 0 0 1 0 0)" d="M0 0L612 0L612 0L612 792L612 792L0 792z" /></clipPath></defs><g transform="matrix(1.333333 0 0 1.333333 0 0)"><g clip-path="url(#1)"><path id="1" transform="matrix(1 0 0 -1 0 792)" d="M73.701 735.3072L70.866 732.4722L70.866 493.2402L73.701 490.4062L304.583 490.4062L307.418 493.2402L307.418 732.4722L304.583 735.3072z" stroke="none" fill="#EAEBEC" fill-rule="nonzero" /><path id="2" transform="matrix(1 0 0 -1 0 792)" d="M77.035 647.414L301.248 647.414L301.248 672.918L77.035 672.918z" stroke="none" fill="#FFFEFE" fill-rule="nonzero" /><path id="3" transform="matrix(1 0 0 -1 0 792)" d="M77.0354 672.9179L301.2484 672.9179" stroke="#939597" stroke-width="0.5" fill="none" /><path id="4" transform="matrix(1 0 0 -1 0 792)" d="M77.035 632.745L301.248 632.745L301.248 652.084L77.035 652.084z" stroke="none" fill="#FFFEFE" fill-rule="nonzero" /><path id="5" transform="matrix(1 0 0 -1 0 792)" d="M78.0546 647.8313L300.7386 647.8313" stroke="#BBBDC0" stroke-width="0.51" stroke-linecap="round" stroke-dasharray="0.51,0.51" fill="none" /><path id="6" transform="matrix(1 0 0 -1 0 792)" d="M301.2484 647.8313L301.2484 647.8313M77.0354 647.8313L77.0354 647.8313" stroke="#BBBDC0" stroke-width="0.51" stroke-linecap="round" fill="none" /><path id="7" transform="matrix(1 0 0 -1 0 792)" d="M77.0354 632.5144L300.6964 632.5144" stroke="#939597" stroke-width="0.5" fill="none" /><g clip-path="url(#2)"><g><g clip-path="url(#3)"><path id="783" transform="matrix(1 0 0 -1 0 792)" d="M73.8044 735.0572C 72.90839 734.1612 72.0124 733.2652 71.11639 732.3692L71.11639 732.3692L71.11639 493.3442L71.11639 493.3442L73.8044 490.6562L73.8044 490.6562L304.4794 490.6562C 305.3754 491.5522 306.2714 492.4482 307.1674 493.3442L307.1674 493.3442L307.1674 732.3692C 306.2714 733.2652 305.3754 734.1612 304.4794 735.0572L304.4794 735.0572L73.8044 735.0572z" stroke="#000000" stroke-width="0.5" fill="none" stroke-opacity="0.4980392" /></g></g></g><path id="784" transform="matrix(1 0 0 -1 0 792)" d="M73.701 480.4965L70.866 477.6625L70.866 292.5175L73.701 289.6825L304.583 289.6825L307.418 292.5175L307.418 477.6625L304.583 480.4965z" stroke="none" fill="#EAEBEC" fill-rule="nonzero" /><path id="785" transform="matrix(1 0 0 -1 0 792)" d="M77.035 392.604L301.248 392.604L301.248 418.108L77.035 418.108z" stroke="none" fill="#FFFEFE" fill-rule="nonzero" /><path id="786" transform="matrix(1 0 0 -1 0 792)" d="M77.0355 418.1074L301.2485 418.1074" stroke="#939597" stroke-width="0.5" fill="none" /><path id="787" transform="matrix(1 0 0 -1 0 792)" d="M77.0355 392.3732L300.6965 392.3732" stroke="#939597" stroke-width="0.5" fill="none" /><g clip-path="url(#4)"><g><g clip-path="url(#5)"><path id="1353" transform="matrix(1 0 0 -1 0 792)" d="M73.8044 480.2467C 72.90839 479.3507 72.0124 478.4547 71.11639 477.5587L71.11639 477.5587L71.11639 292.6207C 72.0124 291.7247 72.90839 290.8287 73.8044 289.9327L73.8044 289.9327L304.4794 289.9327L304.4794 289.9327L307.1674 292.6207L307.1674 292.6207L307.1674 477.5587C 306.2714 478.4547 305.3754 479.3507 304.4794 480.2467L304.4794 480.2467L73.8044 480.2467z" stroke="#000000" stroke-width="0.5" fill="none" stroke-opacity="0.4980392" /></g></g></g><path id="1354" transform="matrix(1 0 0 -1 0 792)" d="M321.921 735.3072L319.087 732.4722L319.087 489.4062L321.921 486.5712L552.803 486.5712L555.637 489.4062L555.637 732.4722L552.803 735.3072z" stroke="none" fill="#EAEBEC" fill-rule="nonzero" /><path id="1355" transform="matrix(1 0 0 -1 0 792)" d="M325.256 656.414L549.469 656.414L549.469 681.918L325.256 681.918z" stroke="none" fill="#FFFEFE" fill-rule="nonzero" /><path id="1356" transform="matrix(1 0 0 -1 0 792)" d="M325.256 681.9178L549.469 681.9178" stroke="#939597" stroke-width="0.5" fill="none" /><path id="1357" transform="matrix(1 0 0 -1 0 792)" d="M325.256 641.745L549.469 641.745L549.469 661.084L325.256 661.084z" stroke="none" fill="#FFFEFE" fill-rule="nonzero" /><path id="1358" transform="matrix(1 0 0 -1 0 792)" d="M326.2751 656.8312L548.9591 656.8312" stroke="#BBBDC0" stroke-width="0.51" stroke-linecap="round" stroke-dasharray="0.51,0.51" fill="none" /><path id="1359" transform="matrix(1 0 0 -1 0 792)" d="M549.469 656.8312L549.469 656.8312M325.256 656.8312L325.256 656.8312" stroke="#BBBDC0" stroke-width="0.51" stroke-linecap="round" fill="none" /><path id="1360" transform="matrix(1 0 0 -1 0 792)" d="M325.256 641.0143L548.917 641.0143" stroke="#939597" stroke-width="0.5" fill="none" /><g clip-path="url(#6)"><g><g clip-path="url(#7)"><path id="2145" transform="matrix(1 0 0 -1 0 792)" d="M322.0249 735.0571C 321.1289 734.1611 320.2329 733.2651 319.3369 732.3691L319.3369 732.3691L319.3369 489.5101L319.3369 489.5101L322.0249 486.8211L322.0249 486.8211L552.6999 486.8211L552.6999 486.8211L555.3879 489.5101L555.3879 489.5101L555.3879 732.3691C 554.4919 733.2651 553.5959 734.1611 552.6999 735.0571L552.6999 735.0571L322.0249 735.0571z" stroke="#000000" stroke-width="0.5" fill="none" stroke-opacity="0.4980392" /></g></g></g><path id="2146" transform="matrix(1 0 0 -1 0 792)" d="M321.921 477.9117L319.087 475.0777L319.087 303.2627L321.921 300.4277L552.803 300.4277L555.637 303.2627L555.637 475.0777L552.803 477.9117z" stroke="none" fill="#EAEBEC" fill-rule="nonzero" /><path id="2147" transform="matrix(1 0 0 -1 0 792)" d="M325.256 399.019L549.469 399.019L549.469 424.523L325.256 424.523z" stroke="none" fill="#FFFEFE" fill-rule="nonzero" /><path id="2148" transform="matrix(1 0 0 -1 0 792)" d="M325.256 424.5226L549.469 424.5226" stroke="#939597" stroke-width="0.5" fill="none" /><path id="2149" transform="matrix(1 0 0 -1 0 792)" d="M325.256 384.349L549.469 384.349L549.469 403.688L325.256 403.688z" stroke="none" fill="#FFFEFE" fill-rule="nonzero" /><path id="2150" transform="matrix(1 0 0 -1 0 792)" d="M326.2751 399.436L548.9591 399.436" stroke="#BBBDC0" stroke-width="0.51" stroke-linecap="round" stroke-dasharray="0.51,0.51" fill="none" /><path id="2151" transform="matrix(1 0 0 -1 0 792)" d="M549.469 399.436L549.469 399.436M325.256 399.436L325.256 399.436" stroke="#BBBDC0" stroke-width="0.51" stroke-linecap="round" fill="none" /><path id="2152" transform="matrix(1 0 0 -1 0 792)" d="M325.256 384.1191L548.917 384.1191" stroke="#939597" stroke-width="0.5" fill="none" /><g clip-path="url(#8)"><g><g clip-path="url(#9)"><path id="2652" transform="matrix(1 0 0 -1 0 792)" d="M322.0249 477.6619C 321.1289 476.7659 320.2329 475.8699 319.3369 474.9739L319.3369 474.9739L319.3369 303.3659C 320.2329 302.4699 321.1289 301.5739 322.0249 300.6779L322.0249 300.6779L552.6999 300.6779C 553.5959 301.5739 554.4919 302.4699 555.3879 303.3659L555.3879 303.3659L555.3879 474.9739C 554.4919 475.8699 553.5959 476.7659 552.6999 477.6619L552.6999 477.6619L322.0249 477.6619z" stroke="#000000" stroke-width="0.5" fill="none" stroke-opacity="0.4980392" /></g></g></g><path id="2653" transform="matrix(1 0 0 -1 0 792)" d="M321.921 290.2014L319.087 287.3664L319.087 113.1394L321.921 110.3044L552.803 110.3044L555.637 113.1394L555.637 287.3664L552.803 290.2014z" stroke="none" fill="#EAEBEC" fill-rule="nonzero" /><path id="2654" transform="matrix(1 0 0 -1 0 792)" d="M325.256 202.308L549.469 202.308L549.469 227.812L325.256 227.812z" stroke="none" fill="#FFFEFE" fill-rule="nonzero" /><path id="2655" transform="matrix(1 0 0 -1 0 792)" d="M325.256 227.8122L549.469 227.8122" stroke="#939597" stroke-width="0.5" fill="none" /><path id="2656" transform="matrix(1 0 0 -1 0 792)" d="M325.256 202.078L548.917 202.078" stroke="#939597" stroke-width="0.5" fill="none" /><g clip-path="url(#10)"><g><g clip-path="url(#11)"><path id="3256" transform="matrix(1 0 0 -1 0 792)" d="M322.0249 289.9515C 321.1289 289.0555 320.2329 288.1595 319.3369 287.2635L319.3369 287.2635L319.3369 113.2425C 320.2329 112.3465 321.1289 111.4505 322.0249 110.5545L322.0249 110.5545L552.6999 110.5545C 553.5959 111.4505 554.4919 112.3465 555.3879 113.2425L555.3879 113.2425L555.3879 287.2635C 554.4919 288.1595 553.5959 289.0555 552.6999 289.9515L552.6999 289.9515L322.0249 289.9515z" stroke="#000000" stroke-width="0.5" fill="none" stroke-opacity="0.4980392" /></g></g></g><g clip-path="url(#12)"><path id="3273" transform="matrix(1 0 0 -1 0 792)" d="M555.6614 32.702L555.6614 -12.691" stroke="#000000" stroke-width="0.75" stroke-linecap="round" stroke-dasharray="0.75,1.464" fill="none" /><path id="3274" transform="matrix(1 0 0 -1 0 792)" d="M555.6614 -13.7986L555.6614 -13.7986M555.6614 34.9164L555.6614 34.9164" stroke="#000000" stroke-width="0.75" stroke-linecap="round" fill="none" /></g></g></g></svg>