<svg xmlns="http://www.w3.org/2000/svg" xmlns:xlink="http://www.w3.org/1999/xlink" id="body_88" preserveAspectRatio="xMinYMin meet" viewBox="0 0 816 1056"><defs><clipPath id="1"><path id="" clip-rule="evenodd" transform="matrix(1 0 0 1 0 0)" d="M0 792L0 0L0 0L612 0L612 0L612 792L612 792L0 792z" /></clipPath><clipPath id="2"><path id="" clip-rule="evenodd" transform="matrix(1 0 0 1 0 0)" d="M56.693 382.677L293.244 382.677L293.244 382.677L293.244 56.69299L293.244 56.69299L56.693 56.69299z" /></clipPath><clipPath id="3"><path id="" clip-rule="evenodd" transform="matrix(1 0 0 1 0 0)" d="M47.693 48.69299L302.244 48.69299L302.244 48.69299L302.244 373.637L302.244 373.637L47.693 373.637z" /></clipPath><clipPath id="4"><path id="" clip-rule="evenodd" transform="matrix(1 0 0 1 0 0)" d="M56.693 669.928L293.244 669.928L293.244 669.928L293.244 381.279L293.244 381.279L56.693 381.279z" /></clipPath><clipPath id="5"><path id="" clip-rule="evenodd" transform="matrix(1 0 0 1 0 0)" d="M47.693 373.278L302.244 373.278L302.244 373.278L302.244 672.636L302.244 672.636L47.693 672.636z" /></clipPath><clipPath id="6"><path id="" clip-rule="evenodd" transform="matrix(1 0 0 1 0 0)" d="M304.914 303.511L541.465 303.511L541.465 303.511L541.465 56.69202L541.465 56.69202L304.914 56.69202z" /></clipPath><clipPath id="7"><path id="" clip-rule="evenodd" transform="matrix(1 0 0 1 0 0)" d="M295.913 48.69299L550.465 48.69299L550.465 48.69299L550.465 306.219L550.465 306.219L295.913 306.219z" /></clipPath><clipPath id="8"><path id="" clip-rule="evenodd" transform="matrix(1 0 0 1 0 0)" d="M304.914 529.291L541.465 529.291L541.465 529.291L541.465 313.807L541.465 313.807L304.914 313.807z" /></clipPath><clipPath id="9"><path id="" clip-rule="evenodd" transform="matrix(1 0 0 1 0 0)" d="M295.913 305.807L550.465 305.807L550.465 305.807L550.465 522.499L550.465 522.499L295.913 522.499z" /></clipPath><clipPath id="10"><path id="" clip-rule="evenodd" transform="matrix(1 0 0 1 0 0)" d="M304.914 733.3L541.465 733.3L541.465 733.3L541.465 528.316L541.465 528.316L304.914 528.316z" /></clipPath><clipPath id="11"><path id="" clip-rule="evenodd" transform="matrix(1 0 0 1 0 0)" d="M295.913 520.317L550.465 520.317L550.465 520.317L550.465 736.0083L550.465 736.0083L295.913 736.0083z" /></clipPath><clipPath id="12"><path id="" clip-rule="evenodd" transform="matrix(1 0 0 1 0 0)" d="M0 0L612 0L612 0L612 792L612 792L0 792z" /></clipPath></defs><g transform="matrix(1.333333 0 0 1.333333 0 0)"><g clip-path="url(#1)"><path id="1" transform="matrix(1 0 0 -1 0 792)" d="M59.5278 735.3072L56.6928 732.4722L56.6928 423.9062L59.5278 421.0712L290.4098 421.0712L293.2438 423.9062L293.2438 732.4722L290.4098 735.3072z" stroke="none" fill="#EAEBEC" fill-rule="nonzero" /><path id="2" transform="matrix(1 0 0 -1 0 792)" d="M62.862 647.414L287.075 647.414L287.075 672.918L62.862 672.918z" stroke="none" fill="#FFFEFE" fill-rule="nonzero" /><path id="3" transform="matrix(1 0 0 -1 0 792)" d="M62.8623 672.9179L287.0753 672.9179" stroke="#939597" stroke-width="0.5" fill="none" /><path id="4" transform="matrix(1 0 0 -1 0 792)" d="M62.862 632.745L287.075 632.745L287.075 652.084L62.862 652.084z" stroke="none" fill="#FFFEFE" fill-rule="nonzero" /><path id="5" transform="matrix(1 0 0 -1 0 792)" d="M63.8814 647.8313L286.5654 647.8313" stroke="#BBBDC0" stroke-width="0.51" stroke-linecap="round" stroke-dasharray="0.51,0.51" fill="none" /><path id="6" transform="matrix(1 0 0 -1 0 792)" d="M287.0753 647.8313L287.0753 647.8313M62.8623 647.8313L62.8623 647.8313" stroke="#BBBDC0" stroke-width="0.51" stroke-linecap="round" fill="none" /><path id="7" transform="matrix(1 0 0 -1 0 792)" d="M62.8623 632.5144L286.5233 632.5144" stroke="#939597" stroke-width="0.5" fill="none" /><g clip-path="url(#2)"><g><g clip-path="url(#3)"><path id="1157" transform="matrix(1 0 0 -1 0 792)" d="M59.6312 735.0572C 58.7352 734.1612 57.8392 733.2652 56.9432 732.3692L56.9432 732.3692L56.9432 424.0102L56.9432 424.0102L59.6312 421.3212L59.6312 421.3212L290.3062 421.3212C 291.2022 422.2172 292.0982 423.1132 292.9942 424.0092L292.9942 424.0092L292.9942 732.3692C 292.0982 733.2652 291.2022 734.1612 290.3062 735.0572L290.3062 735.0572L59.6312 735.0572z" stroke="#000000" stroke-width="0.5" fill="none" stroke-opacity="0.4980392" /></g></g></g><path id="1158" transform="matrix(1 0 0 -1 0 792)" d="M59.5278 410.7213L56.6928 407.8873L56.6928 124.9073L59.5278 122.0723L290.4098 122.0723L293.2438 124.9073L293.2438 407.8873L290.4098 410.7213z" stroke="none" fill="#EAEBEC" fill-rule="nonzero" /><path id="1159" transform="matrix(1 0 0 -1 0 792)" d="M62.862 322.828L287.075 322.828L287.075 348.332L62.862 348.332z" stroke="none" fill="#FFFEFE" fill-rule="nonzero" /><path id="1160" transform="matrix(1 0 0 -1 0 792)" d="M62.8623 348.3322L287.0753 348.3322" stroke="#939597" stroke-width="0.5" fill="none" /><path id="1161" transform="matrix(1 0 0 -1 0 792)" d="M62.8623 322.598L286.5233 322.598" stroke="#939597" stroke-width="0.5" fill="none" /><g clip-path="url(#4)"><g><g clip-path="url(#5)"><path id="2261" transform="matrix(1 0 0 -1 0 792)" d="M59.6312 410.4715C 58.7352 409.5755 57.8392 408.6795 56.9432 407.7835L56.9432 407.7835L56.9432 125.0105C 57.8392 124.1145 58.7352 123.2185 59.6312 122.3225L59.6312 122.3225L290.3062 122.3225C 291.2022 123.2185 292.0982 124.1145 292.9942 125.0105L292.9942 125.0105L292.9942 407.7835C 292.0982 408.6795 291.2022 409.5755 290.3062 410.4715L290.3062 410.4715L59.6312 410.4715z" stroke="#000000" stroke-width="0.5" fill="none" stroke-opacity="0.4980392" /></g></g></g><path id="2262" transform="matrix(1 0 0 -1 0 792)" d="M307.7478 735.3072L304.9138 732.4722L304.9138 491.3232L307.7478 488.4882L538.6298 488.4882L541.4638 491.3232L541.4638 732.4722L538.6298 735.3072z" stroke="none" fill="#EAEBEC" fill-rule="nonzero" /><path id="2263" transform="matrix(1 0 0 -1 0 792)" d="M311.083 656.414L535.296 656.414L535.296 681.918L311.083 681.918z" stroke="none" fill="#FFFEFE" fill-rule="nonzero" /><path id="2264" transform="matrix(1 0 0 -1 0 792)" d="M311.0827 681.9178L535.2957 681.9178" stroke="#939597" stroke-width="0.5" fill="none" /><path id="2265" transform="matrix(1 0 0 -1 0 792)" d="M311.083 641.745L535.296 641.745L535.296 661.084L311.083 661.084z" stroke="none" fill="#FFFEFE" fill-rule="nonzero" /><path id="2266" transform="matrix(1 0 0 -1 0 792)" d="M312.1019 656.8312L534.7859 656.8312" stroke="#BBBDC0" stroke-width="0.51" stroke-linecap="round" stroke-dasharray="0.51,0.51" fill="none" /><path id="2267" transform="matrix(1 0 0 -1 0 792)" d="M535.2957 656.8312L535.2957 656.8312M311.0827 656.8312L311.0827 656.8312" stroke="#BBBDC0" stroke-width="0.51" stroke-linecap="round" fill="none" /><path id="2268" transform="matrix(1 0 0 -1 0 792)" d="M311.0827 641.5143L534.7437 641.5143" stroke="#939597" stroke-width="0.5" fill="none" /><g clip-path="url(#6)"><g><g clip-path="url(#7)"><path id="3037" transform="matrix(1 0 0 -1 0 792)" d="M307.8517 735.0571C 306.9557 734.1611 306.0597 733.2651 305.1637 732.3691L305.1637 732.3691L305.1637 491.4271L305.1637 491.4271L307.8517 488.7391L307.8517 488.7391L538.5267 488.7391L538.5267 488.7391L541.2147 491.4271L541.2147 491.4271L541.2147 732.3691C 540.3187 733.2651 539.4227 734.1611 538.5267 735.0571L538.5267 735.0571L307.8517 735.0571z" stroke="#000000" stroke-width="0.5" fill="none" stroke-opacity="0.4980392" /></g></g></g><path id="3038" transform="matrix(1 0 0 -1 0 792)" d="M307.7478 478.1934L304.9138 475.3584L304.9138 275.0444L307.7478 272.2094L538.6298 272.2094L541.4638 275.0444L541.4638 475.3584L538.6298 478.1934z" stroke="none" fill="#EAEBEC" fill-rule="nonzero" /><path id="3039" transform="matrix(1 0 0 -1 0 792)" d="M311.083 399.3L535.296 399.3L535.296 424.804L311.083 424.804z" stroke="none" fill="#FFFEFE" fill-rule="nonzero" /><path id="3040" transform="matrix(1 0 0 -1 0 792)" d="M311.0827 424.8039L535.2957 424.8039" stroke="#939597" stroke-width="0.5" fill="none" /><path id="3041" transform="matrix(1 0 0 -1 0 792)" d="M311.083 384.631L535.296 384.631L535.296 403.97L311.083 403.97z" stroke="none" fill="#FFFEFE" fill-rule="nonzero" /><path id="3042" transform="matrix(1 0 0 -1 0 792)" d="M312.1019 399.7173L534.7859 399.7173" stroke="#BBBDC0" stroke-width="0.51" stroke-linecap="round" stroke-dasharray="0.51,0.51" fill="none" /><path id="3043" transform="matrix(1 0 0 -1 0 792)" d="M535.2957 399.7173L535.2957 399.7173M311.0827 399.7173L311.0827 399.7173" stroke="#BBBDC0" stroke-width="0.51" stroke-linecap="round" fill="none" /><path id="3044" transform="matrix(1 0 0 -1 0 792)" d="M311.0827 384.4004L534.7437 384.4004" stroke="#939597" stroke-width="0.5" fill="none" /><g clip-path="url(#8)"><g><g clip-path="url(#9)"><path id="3737" transform="matrix(1 0 0 -1 0 792)" d="M307.8517 477.9432C 306.9557 477.0472 306.0597 476.1512 305.1637 475.2552L305.1637 475.2552L305.1637 275.1472C 306.0597 274.2512 306.9557 273.3552 307.8517 272.4592L307.8517 272.4592L538.5267 272.4592C 539.4227 273.3552 540.3187 274.2512 541.2147 275.1472L541.2147 275.1472L541.2147 475.2552C 540.3187 476.1512 539.4227 477.0472 538.5267 477.9432L538.5267 477.9432L307.8517 477.9432z" stroke="#000000" stroke-width="0.5" fill="none" stroke-opacity="0.4980392" /></g></g></g><path id="3738" transform="matrix(1 0 0 -1 0 792)" d="M307.7478 263.6838L304.9138 260.8488L304.9138 61.53381L307.7478 58.69981L538.6298 58.69981L541.4638 61.53381L541.4638 260.8488L538.6298 263.6838z" stroke="none" fill="#EAEBEC" fill-rule="nonzero" /><path id="3739" transform="matrix(1 0 0 -1 0 792)" d="M311.083 166.79L535.296 166.79L535.296 192.294L311.083 192.294z" stroke="none" fill="#FFFEFE" fill-rule="nonzero" /><path id="3740" transform="matrix(1 0 0 -1 0 792)" d="M311.0827 192.2941L535.2957 192.2941" stroke="#939597" stroke-width="0.5" fill="none" /><path id="3741" transform="matrix(1 0 0 -1 0 792)" d="M311.083 152.121L535.296 152.121L535.296 171.46L311.083 171.46z" stroke="none" fill="#FFFEFE" fill-rule="nonzero" /><path id="3742" transform="matrix(1 0 0 -1 0 792)" d="M312.1019 167.2075L534.7859 167.2075" stroke="#BBBDC0" stroke-width="0.51" stroke-linecap="round" stroke-dasharray="0.51,0.51" fill="none" /><path id="3743" transform="matrix(1 0 0 -1 0 792)" d="M535.2957 167.2075L535.2957 167.2075M311.0827 167.2075L311.0827 167.2075" stroke="#BBBDC0" stroke-width="0.51" stroke-linecap="round" fill="none" /><path id="3744" transform="matrix(1 0 0 -1 0 792)" d="M311.0827 151.8906L534.7437 151.8906" stroke="#939597" stroke-width="0.5" fill="none" /><g clip-path="url(#10)"><g><g clip-path="url(#11)"><path id="4309" transform="matrix(1 0 0 -1 0 792)" d="M307.8517 263.4334C 306.9557 262.5374 306.0597 261.6414 305.1637 260.7454L305.1637 260.7454L305.1637 61.63741C 306.0597 60.74141 306.9557 59.84541 307.8517 58.94942L307.8517 58.94942L538.5267 58.94942C 539.4227 59.84541 540.3187 60.74141 541.2147 61.63741L541.2147 61.63741L541.2147 260.7454C 540.3187 261.6414 539.4227 262.5374 538.5267 263.4334L538.5267 263.4334L307.8517 263.4334z" stroke="#000000" stroke-width="0.5" fill="none" stroke-opacity="0.4980392" /></g></g></g><g clip-path="url(#12)"><path id="4326" transform="matrix(1 0 0 -1 0 792)" d="M56.9448 32.702L56.9448 -12.691" stroke="#000000" stroke-width="0.75" stroke-linecap="round" stroke-dasharray="0.75,1.464" fill="none" /><path id="4327" transform="matrix(1 0 0 -1 0 792)" d="M56.9448 -13.7986L56.9448 -13.7986M56.9448 34.9164L56.9448 34.9164" stroke="#000000" stroke-width="0.75" stroke-linecap="round" fill="none" /></g></g></g></svg>