<svg xmlns="http://www.w3.org/2000/svg" xmlns:xlink="http://www.w3.org/1999/xlink" id="body_48" preserveAspectRatio="xMinYMin meet" viewBox="0 0 816 1056"><defs><clipPath id="1"><path id="" clip-rule="evenodd" transform="matrix(1 0 0 1 0 0)" d="M0 792L0 0L0 0L612 0L612 0L612 792L612 792L0 792z" /></clipPath><clipPath id="2"><path id="" clip-rule="evenodd" transform="matrix(1 0 0 1 0 0)" d="M0 0L612 0L612 0L612 792L612 792L0 792z" /></clipPath></defs><g transform="matrix(1.333333 0 0 1.333333 0 0)"><g clip-path="url(#1)"><path id="32" transform="matrix(1 0 0 -1 0 792)" d="M358.772 138.505L541.134 138.505L541.134 106.505L358.772 106.505zM292.63 138.505L358.772 138.505L358.772 106.505L292.63 106.505zM229.323 138.505L292.63 138.505L292.63 106.505L229.323 106.505zM178.583 138.505L229.323 138.505L229.323 106.505L178.583 106.505zM116.882 138.505L178.583 138.505L178.583 106.505L116.882 106.505zM56.693 138.505L116.882 138.505L116.882 106.505L56.693 106.505zM358.772 184.505L541.134 184.505L541.134 161.505L358.772 161.505zM292.63 184.505L358.772 184.505L358.772 161.505L292.63 161.505zM229.323 184.505L292.63 184.505L292.63 161.505L229.323 161.505zM178.583 184.505L229.323 184.505L229.323 161.505L178.583 161.505zM116.882 184.505L178.583 184.505L178.583 161.505L116.882 161.505zM56.693 184.505L116.882 184.505L116.882 161.505L56.693 161.505zM358.772 239.505L541.134 239.505L541.134 207.505L358.772 207.505zM292.63 239.505L358.772 239.505L358.772 207.505L292.63 207.505zM229.323 239.505L292.63 239.505L292.63 207.505L229.323 207.505zM178.583 239.505L229.323 239.505L229.323 207.505L178.583 207.505zM116.882 239.505L178.583 239.505L178.583 207.505L116.882 207.505zM56.693 239.505L116.882 239.505L116.882 207.505L56.693 207.505zM358.772 276.905L541.134 276.905L541.134 253.905L358.772 253.905zM292.63 276.905L358.772 276.905L358.772 253.905L292.63 253.905zM229.323 276.905L292.63 276.905L292.63 253.905L229.323 253.905zM178.583 276.905L229.323 276.905L229.323 253.905L178.583 253.905zM116.882 276.905L178.583 276.905L178.583 253.905L116.882 253.905zM56.693 276.905L116.882 276.905L116.882 253.905L56.693 253.905zM358.772 322.905L541.134 322.905L541.134 299.905L358.772 299.905zM292.63 322.905L358.772 322.905L358.772 299.905L292.63 299.905zM229.323 322.905L292.63 322.905L292.63 299.905L229.323 299.905zM178.583 322.905L229.323 322.905L229.323 299.905L178.583 299.905zM116.882 322.905L178.583 322.905L178.583 299.905L116.882 299.905zM56.693 322.905L116.882 322.905L116.882 299.905L56.693 299.905zM358.772 368.905L541.134 368.905L541.134 345.905L358.772 345.905zM292.63 368.905L358.772 368.905L358.772 345.905L292.63 345.905zM229.323 368.905L292.63 368.905L292.63 345.905L229.323 345.905zM178.583 368.905L229.323 368.905L229.323 345.905L178.583 345.905zM116.882 368.905L178.583 368.905L178.583 345.905L116.882 345.905zM56.693 368.905L116.882 368.905L116.882 345.905L56.693 345.905zM358.772 414.905L541.134 414.905L541.134 391.905L358.772 391.905zM292.63 414.905L358.772 414.905L358.772 391.905L292.63 391.905zM229.323 414.905L292.63 414.905L292.63 391.905L229.323 391.905zM178.583 414.905L229.323 414.905L229.323 391.905L178.583 391.905zM116.882 414.905L178.583 414.905L178.583 391.905L116.882 391.905zM56.693 414.905L116.882 414.905L116.882 391.905L56.693 391.905zM358.772 460.905L541.134 460.905L541.134 437.905L358.772 437.905zM292.63 460.905L358.772 460.905L358.772 437.905L292.63 437.905zM229.323 460.905L292.63 460.905L292.63 437.905L229.323 437.905zM178.583 460.905L229.323 460.905L229.323 437.905L178.583 437.905zM116.882 460.905L178.583 460.905L178.583 437.905L116.882 437.905zM56.693 460.905L116.882 460.905L116.882 437.905L56.693 437.905zM358.772 506.905L541.134 506.905L541.134 483.905L358.772 483.905zM292.63 506.905L358.772 506.905L358.772 483.905L292.63 483.905zM229.323 506.905L292.63 506.905L292.63 483.905L229.323 483.905zM178.583 506.905L229.323 506.905L229.323 483.905L178.583 483.905zM116.882 506.905L178.583 506.905L178.583 483.905L116.882 483.905zM56.693 506.905L116.882 506.905L116.882 483.905L56.693 483.905zM358.772 552.905L541.134 552.905L541.134 529.905L358.772 529.905zM292.63 552.905L358.772 552.905L358.772 529.905L292.63 529.905zM229.323 552.905L292.63 552.905L292.63 529.905L229.323 529.905zM178.583 552.905L229.323 552.905L229.323 529.905L178.583 529.905zM116.882 552.905L178.583 552.905L178.583 529.905L116.882 529.905zM56.693 552.905L116.882 552.905L116.882 529.905L56.693 529.905zM358.772 607.905L541.134 607.905L541.134 575.905L358.772 575.905zM292.63 607.905L358.772 607.905L358.772 575.905L292.63 575.905zM229.323 607.905L292.63 607.905L292.63 575.905L229.323 575.905zM178.583 607.905L229.323 607.905L229.323 575.905L178.583 575.905zM116.882 607.905L178.583 607.905L178.583 575.905L116.882 575.905zM56.693 607.905L116.882 607.905L116.882 575.905L56.693 575.905zM358.772 653.905L541.134 653.905L541.134 630.905L358.772 630.905zM292.63 653.905L358.772 653.905L358.772 630.905L292.63 630.905zM229.323 653.905L292.63 653.905L292.63 630.905L229.323 630.905zM178.583 653.905L229.323 653.905L229.323 630.905L178.583 630.905zM116.882 653.905L178.583 653.905L178.583 630.905L116.882 630.905zM56.693 653.905L116.882 653.905L116.882 630.905L56.693 630.905z" stroke="none" fill="#ECEDEE" fill-rule="nonzero" /><path id="33" transform="matrix(1 0 0 -1 0 792)" d="M56.6929 676.9046L116.8819 676.9046" stroke="#000000" stroke-width="1" fill="none" /><path id="34" transform="matrix(1 0 0 -1 0 792)" d="M116.8819 676.9046L178.5829 676.9046" stroke="#000000" stroke-width="1" fill="none" /><path id="35" transform="matrix(1 0 0 -1 0 792)" d="M178.5827 676.9046L229.3227 676.9046" stroke="#000000" stroke-width="1" fill="none" /><path id="36" transform="matrix(1 0 0 -1 0 792)" d="M229.3228 676.9046L292.6298 676.9046" stroke="#000000" stroke-width="1" fill="none" /><path id="37" transform="matrix(1 0 0 -1 0 792)" d="M292.6299 676.9046L358.7719 676.9046" stroke="#000000" stroke-width="1" fill="none" /><path id="38" transform="matrix(1 0 0 -1 0 792)" d="M358.7717 676.9046L541.1337 676.9046" stroke="#000000" stroke-width="1" fill="none" /><g clip-path="url(#2)"><path id="2177" transform="matrix(1 0 0 -1 0 792)" d="M56.9448 32.702L56.9448 -12.691" stroke="#000000" stroke-width="0.75" stroke-linecap="round" stroke-dasharray="0.75,1.464" fill="none" /><path id="2178" transform="matrix(1 0 0 -1 0 792)" d="M56.9448 -13.7986L56.9448 -13.7986M56.9448 34.9164L56.9448 34.9164" stroke="#000000" stroke-width="0.75" stroke-linecap="round" fill="none" /></g></g></g></svg>