<svg xmlns="http://www.w3.org/2000/svg" xmlns:xlink="http://www.w3.org/1999/xlink" id="body_33" preserveAspectRatio="xMinYMin meet" viewBox="0 0 816 1056"><defs><clipPath id="1"><path id="" clip-rule="evenodd" transform="matrix(1 0 0 1 0 0)" d="M0 792L0 0L0 0L612 0L612 0L612 792L612 792L0 792z" /></clipPath><clipPath id="2"><path id="" clip-rule="evenodd" transform="matrix(1 0 0 1 0 0)" d="M0 0L612 0L612 0L612 792L612 792L0 792z" /></clipPath></defs><g transform="matrix(1.333333 0 0 1.333333 0 0)"><g clip-path="url(#1)"><path id="1" transform="matrix(1 0 0 -1 0 792)" d="M70.866 719.682L307.086 719.682L307.086 738.142L70.866 738.142z" stroke="none" fill="#EAEBEC" fill-rule="nonzero" /><path id="2" transform="matrix(1 0 0 -1 0 792)" d="M75.1181 484.7708L75.1181 492.9358" stroke="#BBBDC0" stroke-width="8" fill="none" /><path id="3" transform="matrix(1 0 0 -1 0 792)" d="M70.866 407.989L307.086 407.989L307.086 426.449L70.866 426.449z" stroke="none" fill="#EAEBEC" fill-rule="nonzero" /><path id="4" transform="matrix(1 0 0 -1 0 792)" d="M75.1181 151.0778L75.1181 159.2428" stroke="#BBBDC0" stroke-width="8" fill="none" /><path id="2203" transform="matrix(1 0 0 -1 0 792)" d="M319.087 719.682L555.307 719.682L555.307 738.142L319.087 738.142z" stroke="none" fill="#EAEBEC" fill-rule="nonzero" /><path id="2204" transform="matrix(1 0 0 -1 0 792)" d="M323.3386 517.7708L323.3386 525.9358" stroke="#BBBDC0" stroke-width="8" fill="none" /><path id="2205" transform="matrix(1 0 0 -1 0 792)" d="M319.087 452.989L555.307 452.989L555.307 471.449L319.087 471.449z" stroke="none" fill="#EAEBEC" fill-rule="nonzero" /><path id="2206" transform="matrix(1 0 0 -1 0 792)" d="M323.3386 249.2904L323.3386 257.4554" stroke="#BBBDC0" stroke-width="8" fill="none" /><g clip-path="url(#2)"><path id="3975" transform="matrix(1 0 0 -1 0 792)" d="M555.6614 32.702L555.6614 -12.691" stroke="#000000" stroke-width="0.75" stroke-linecap="round" stroke-dasharray="0.75,1.464" fill="none" /><path id="3976" transform="matrix(1 0 0 -1 0 792)" d="M555.6614 -13.7986L555.6614 -13.7986M555.6614 34.9164L555.6614 34.9164" stroke="#000000" stroke-width="0.75" stroke-linecap="round" fill="none" /></g></g></g></svg>