<svg xmlns="http://www.w3.org/2000/svg" xmlns:xlink="http://www.w3.org/1999/xlink" id="body_58" preserveAspectRatio="xMinYMin meet" viewBox="0 0 816 1056"><defs><clipPath id="1"><path id="" clip-rule="evenodd" transform="matrix(1 0 0 1 0 0)" d="M0 792L0 0L0 0L612 0L612 0L612 792L612 792L0 792z" /></clipPath><clipPath id="2"><path id="" clip-rule="evenodd" transform="matrix(1 0 0 1 0 0)" d="M0 0L612 0L612 0L612 792L612 792L0 792z" /></clipPath></defs><g transform="matrix(1.333333 0 0 1.333333 0 0)"><g clip-path="url(#1)"><path id="274" transform="matrix(1 0 0 -1 0 792)" d="M159.685 129.958L541.134 129.958L541.134 112.95L159.685 112.95zM91.843 129.958L159.686 129.958L159.686 112.95L91.843 112.95zM56.693 129.958L91.843 129.958L91.843 112.95L56.693 112.95zM159.685 177.958L541.134 177.958L541.134 153.958L159.685 153.958zM91.843 177.958L159.686 177.958L159.686 153.958L91.843 153.958zM56.693 177.958L91.843 177.958L91.843 153.958L56.693 153.958zM159.685 225.958L541.134 225.958L541.134 201.958L159.685 201.958zM91.843 225.958L159.686 225.958L159.686 201.958L91.843 201.958zM56.693 225.958L91.843 225.958L91.843 201.958L56.693 201.958zM159.685 276.966L541.134 276.966L541.134 259.958L159.685 259.958zM91.843 276.966L159.686 276.966L159.686 259.958L91.843 259.958zM56.693 276.966L91.843 276.966L91.843 259.958L56.693 259.958zM159.685 334.966L541.134 334.966L541.134 310.966L159.685 310.966zM91.843 334.966L159.686 334.966L159.686 310.966L91.843 310.966zM56.693 334.966L91.843 334.966L91.843 310.966L56.693 310.966zM159.685 382.966L541.134 382.966L541.134 358.966L159.685 358.966zM91.843 382.966L159.686 382.966L159.686 358.966L91.843 358.966zM56.693 382.966L91.843 382.966L91.843 358.966L56.693 358.966zM159.685 430.966L541.134 430.966L541.134 406.966L159.685 406.966zM91.843 430.966L159.686 430.966L159.686 406.966L91.843 406.966zM56.693 430.966L91.843 430.966L91.843 406.966L56.693 406.966zM159.685 478.966L541.134 478.966L541.134 454.966L159.685 454.966zM91.843 478.966L159.686 478.966L159.686 454.966L91.843 454.966zM56.693 478.966L91.843 478.966L91.843 454.966L56.693 454.966zM159.685 512.982L541.134 512.982L541.134 495.974L159.685 495.974zM91.843 512.982L159.686 512.982L159.686 495.974L91.843 495.974zM56.693 512.982L91.843 512.982L91.843 495.974L56.693 495.974zM159.685 553.99L541.134 553.99L541.134 529.99L159.685 529.99zM91.843 553.99L159.686 553.99L159.686 529.99L91.843 529.99zM56.693 553.99L91.843 553.99L91.843 529.99L56.693 529.99zM159.685 601.99L541.134 601.99L541.134 577.99L159.685 577.99zM91.843 601.99L159.686 601.99L159.686 577.99L91.843 577.99zM56.693 601.99L91.843 601.99L91.843 577.99L56.693 577.99z" stroke="none" fill="#E6E7E8" fill-rule="nonzero" /><path id="275" transform="matrix(1 0 0 -1 0 792)" d="M56.6929 618.9975L91.8429 618.9975" stroke="#000000" stroke-width="1" fill="none" /><path id="276" transform="matrix(1 0 0 -1 0 792)" d="M159.685 618.9975L541.134 618.9975" stroke="#000000" stroke-width="1" fill="none" /><path id="277" transform="matrix(1 0 0 -1 0 792)" d="M91.8425 618.9975L159.6855 618.9975" stroke="#000000" stroke-width="1" fill="none" /><g clip-path="url(#2)"><path id="3084" transform="matrix(1 0 0 -1 0 792)" d="M56.9448 32.702L56.9448 -12.691" stroke="#000000" stroke-width="0.75" stroke-linecap="round" stroke-dasharray="0.75,1.464" fill="none" /><path id="3085" transform="matrix(1 0 0 -1 0 792)" d="M56.9448 -13.7986L56.9448 -13.7986M56.9448 34.9164L56.9448 34.9164" stroke="#000000" stroke-width="0.75" stroke-linecap="round" fill="none" /></g></g></g></svg>