<svg xmlns="http://www.w3.org/2000/svg" xmlns:xlink="http://www.w3.org/1999/xlink" id="body_100" preserveAspectRatio="xMinYMin meet" viewBox="0 0 816 1056"><defs><clipPath id="1"><path id="" clip-rule="evenodd" transform="matrix(1 0 0 1 0 0)" d="M0 792L0 0L0 0L612 0L612 0L612 792L612 792L0 792z" /></clipPath><clipPath id="2"><path id="" clip-rule="evenodd" transform="matrix(1 0 0 1 0 0)" d="M56.693 384.346L293.244 384.346L293.244 384.346L293.244 56.69299L293.244 56.69299L56.693 56.69299z" /></clipPath><clipPath id="3"><path id="" clip-rule="evenodd" transform="matrix(1 0 0 1 0 0)" d="M47.693 48.69299L302.244 48.69299L302.244 48.69299L302.244 387.054L302.244 387.054L47.693 387.054z" /></clipPath><clipPath id="4"><path id="" clip-rule="evenodd" transform="matrix(1 0 0 1 0 0)" d="M304.914 507.847L541.465 507.847L541.465 507.847L541.465 56.69299L541.465 56.69299L304.914 56.69299z" /></clipPath><clipPath id="5"><path id="" clip-rule="evenodd" transform="matrix(1 0 0 1 0 0)" d="M295.913 48.69299L550.465 48.69299L550.465 48.69299L550.465 500.79L550.465 500.79L295.913 500.79z" /></clipPath><clipPath id="6"><path id="" clip-rule="evenodd" transform="matrix(1 0 0 1 0 0)" d="M0 0L612 0L612 0L612 792L612 792L0 792z" /></clipPath></defs><g transform="matrix(1.333333 0 0 1.333333 0 0)"><g clip-path="url(#1)"><path id="1" transform="matrix(1 0 0 -1 0 792)" d="M59.5278 735.3072L56.6928 732.4722L56.6928 410.4892L59.5278 407.6542L290.4098 407.6542L293.2438 410.4892L293.2438 732.4722L290.4098 735.3072z" stroke="none" fill="#EAEBEC" fill-rule="nonzero" /><path id="2" transform="matrix(1 0 0 -1 0 792)" d="M62.862 635.414L287.075 635.414L287.075 660.918L62.862 660.918z" stroke="none" fill="#FFFEFE" fill-rule="nonzero" /><path id="3" transform="matrix(1 0 0 -1 0 792)" d="M62.8623 660.9178L287.0753 660.9178" stroke="#939597" stroke-width="0.5" fill="none" /><path id="4" transform="matrix(1 0 0 -1 0 792)" d="M62.862 620.745L287.075 620.745L287.075 640.084L62.862 640.084z" stroke="none" fill="#FFFEFE" fill-rule="nonzero" /><path id="5" transform="matrix(1 0 0 -1 0 792)" d="M63.8814 635.8312L286.5654 635.8312" stroke="#BBBDC0" stroke-width="0.51" stroke-linecap="round" stroke-dasharray="0.51,0.51" fill="none" /><path id="6" transform="matrix(1 0 0 -1 0 792)" d="M287.0753 635.8312L287.0753 635.8312M62.8623 635.8312L62.8623 635.8312" stroke="#BBBDC0" stroke-width="0.51" stroke-linecap="round" fill="none" /><path id="7" transform="matrix(1 0 0 -1 0 792)" d="M62.8623 620.5143L286.5233 620.5143" stroke="#939597" stroke-width="0.5" fill="none" /><g clip-path="url(#2)"><g><g clip-path="url(#3)"><path id="1132" transform="matrix(1 0 0 -1 0 792)" d="M59.6312 735.0571C 58.7352 734.1611 57.8392 733.2641 56.9432 732.3691L56.9432 732.3691L56.9432 410.5921C 57.8392 409.6961 58.7352 408.8001 59.6312 407.9041L59.6312 407.9041L290.3062 407.9041C 291.2022 408.8001 292.0982 409.6961 292.9942 410.5921L292.9942 410.5921L292.9942 732.3691C 292.0982 733.2651 291.2022 734.1611 290.3062 735.0571L290.3062 735.0571L59.6312 735.0571z" stroke="#000000" stroke-width="0.5" fill="none" stroke-opacity="0.4980392" /></g></g></g><path id="1133" transform="matrix(1 0 0 -1 0 792)" d="M307.7478 735.3072L304.9138 732.4722L304.9138 296.4892L307.7478 293.6542L538.6298 293.6542L541.4638 296.4892L541.4638 732.4722L538.6298 735.3072z" stroke="none" fill="#EAEBEC" fill-rule="nonzero" /><path id="1134" transform="matrix(1 0 0 -1 0 792)" d="M311.083 635.414L535.296 635.414L535.296 660.918L311.083 660.918z" stroke="none" fill="#FFFEFE" fill-rule="nonzero" /><path id="1135" transform="matrix(1 0 0 -1 0 792)" d="M311.0827 660.9178L535.2957 660.9178" stroke="#939597" stroke-width="0.5" fill="none" /><path id="1136" transform="matrix(1 0 0 -1 0 792)" d="M311.083 620.745L535.296 620.745L535.296 640.084L311.083 640.084z" stroke="none" fill="#FFFEFE" fill-rule="nonzero" /><path id="1137" transform="matrix(1 0 0 -1 0 792)" d="M312.1018 635.8312L534.7858 635.8312" stroke="#BBBDC0" stroke-width="0.51" stroke-linecap="round" stroke-dasharray="0.51,0.51" fill="none" /><path id="1138" transform="matrix(1 0 0 -1 0 792)" d="M535.2957 635.8312L535.2957 635.8312M311.0827 635.8312L311.0827 635.8312" stroke="#BBBDC0" stroke-width="0.51" stroke-linecap="round" fill="none" /><path id="1139" transform="matrix(1 0 0 -1 0 792)" d="M311.0827 620.5143L534.7437 620.5143" stroke="#939597" stroke-width="0.5" fill="none" /><g clip-path="url(#4)"><g><g clip-path="url(#5)"><path id="2824" transform="matrix(1 0 0 -1 0 792)" d="M307.8516 735.0571C 306.9556 734.1611 306.0596 733.2641 305.1636 732.3691L305.1636 732.3691L305.1636 296.5921C 306.0596 295.6961 306.9556 294.8001 307.8516 293.9041L307.8516 293.9041L538.5266 293.9041L538.5266 293.9041L541.2146 296.5921L541.2146 296.5921L541.2146 732.3691L541.2146 732.3691L538.5266 735.0571L538.5266 735.0571L307.8516 735.0571z" stroke="#000000" stroke-width="0.5" fill="none" stroke-opacity="0.4980392" /></g></g></g><g clip-path="url(#6)"><path id="2842" transform="matrix(1 0 0 -1 0 792)" d="M56.9448 32.702L56.9448 -12.691" stroke="#000000" stroke-width="0.75" stroke-linecap="round" stroke-dasharray="0.75,1.464" fill="none" /><path id="2843" transform="matrix(1 0 0 -1 0 792)" d="M56.9448 -13.7986L56.9448 -13.7986M56.9448 34.9164L56.9448 34.9164" stroke="#000000" stroke-width="0.75" stroke-linecap="round" fill="none" /></g></g></g></svg>