<svg xmlns="http://www.w3.org/2000/svg" xmlns:xlink="http://www.w3.org/1999/xlink" id="body_72" preserveAspectRatio="xMinYMin meet" viewBox="0 0 816 1056"><defs><clipPath id="1"><path id="" clip-rule="evenodd" transform="matrix(1 0 0 1 0 0)" d="M0 792L0 0L0 0L612 0L612 0L612 792L612 792L0 792z" /></clipPath><clipPath id="2"><path id="" clip-rule="evenodd" transform="matrix(1 0 0 1 0 0)" d="M0 0L612 0L612 0L612 792L612 792L0 792z" /></clipPath></defs><g transform="matrix(1.333333 0 0 1.333333 0 0)"><g clip-path="url(#1)"><path id="29" transform="matrix(1 0 0 -1 0 792)" d="M448.724 711.719L541.133 711.719L541.133 694.759L448.724 694.759zM356.315 711.719L448.724 711.719L448.724 694.759L356.315 694.759zM262.772 711.719L356.315 711.719L356.315 694.759L262.772 694.759zM174.803 711.719L262.772 711.719L262.772 694.759L174.803 694.759zM56.693 711.719L174.803 711.719L174.803 694.759L56.693 694.759z" stroke="none" fill="#57585B" fill-rule="nonzero" /><path id="30" transform="matrix(1 0 0 -1 0 792)" d="M448.724 639.469L541.133 639.469L541.133 623.469L448.724 623.469zM356.315 639.469L448.724 639.469L448.724 623.469L356.315 623.469zM262.772 639.469L356.315 639.469L356.315 623.469L262.772 623.469zM174.803 639.469L262.772 639.469L262.772 623.469L174.803 623.469zM56.693 639.469L174.803 639.469L174.803 623.469L56.693 623.469zM448.724 678.259L541.133 678.259L541.133 655.469L448.724 655.469zM356.315 678.259L448.724 678.259L448.724 655.469L356.315 655.469zM262.772 678.259L356.315 678.259L356.315 655.469L262.772 655.469zM174.803 678.259L262.772 678.259L262.772 655.469L174.803 655.469zM56.693 678.259L174.803 678.259L174.803 655.469L56.693 655.469z" stroke="none" fill="#E6E7E8" fill-rule="nonzero" /><path id="31" transform="matrix(1 0 0 -1 0 792)" d="M56.6929 694.7586L174.8029 694.7586" stroke="#000000" stroke-width="1" fill="none" /><path id="32" transform="matrix(1 0 0 -1 0 792)" d="M174.8032 694.7586L262.7722 694.7586" stroke="#000000" stroke-width="1" fill="none" /><path id="33" transform="matrix(1 0 0 -1 0 792)" d="M262.7717 694.7586L356.3147 694.7586" stroke="#000000" stroke-width="1" fill="none" /><path id="34" transform="matrix(1 0 0 -1 0 792)" d="M356.3149 694.7586L448.7239 694.7586" stroke="#000000" stroke-width="1" fill="none" /><path id="35" transform="matrix(1 0 0 -1 0 792)" d="M448.7244 694.7586L541.1334 694.7586" stroke="#000000" stroke-width="1" fill="none" /><path id="313" transform="matrix(1 0 0 -1 0 792)" d="M60.9449 557.1202L60.9449 565.2852" stroke="#BBBDC0" stroke-width="8" fill="none" /><path id="791" transform="matrix(1 0 0 -1 0 792)" d="M309.1653 316.262L309.1653 324.427" stroke="#BBBDC0" stroke-width="8" fill="none" /><g clip-path="url(#2)"><path id="1304" transform="matrix(1 0 0 -1 0 792)" d="M56.9448 32.702L56.9448 -12.691" stroke="#000000" stroke-width="0.75" stroke-linecap="round" stroke-dasharray="0.75,1.464" fill="none" /><path id="1305" transform="matrix(1 0 0 -1 0 792)" d="M56.9448 -13.7986L56.9448 -13.7986M56.9448 34.9164L56.9448 34.9164" stroke="#000000" stroke-width="0.75" stroke-linecap="round" fill="none" /></g></g></g></svg>