<svg xmlns="http://www.w3.org/2000/svg" xmlns:xlink="http://www.w3.org/1999/xlink" id="body_56" preserveAspectRatio="xMinYMin meet" viewBox="0 0 816 1056"><defs><clipPath id="1"><path id="" clip-rule="evenodd" transform="matrix(1 0 0 1 0 0)" d="M0 792L0 0L0 0L612 0L612 0L612 792L612 792L0 792z" /></clipPath><clipPath id="2"><path id="" clip-rule="evenodd" transform="matrix(1 0 0 1 0 0)" d="M0 0L612 0L612 0L612 792L612 792L0 792z" /></clipPath></defs><g transform="matrix(1.333333 0 0 1.333333 0 0)"><g clip-path="url(#1)"><path id="452" transform="matrix(1 0 0 -1 0 792)" d="M309.1653 645.7593L309.1653 653.9243" stroke="#BBBDC0" stroke-width="8" fill="none" /><path id="928" transform="matrix(1 0 0 -1 0 792)" d="M286.016 435.064L541.134 435.064L541.134 420.664L286.016 420.664zM240.945 435.064L286.016 435.064L286.016 420.664L240.945 420.664zM167.906 435.064L240.945 435.064L240.945 420.664L167.906 420.664zM56.693 435.064L167.906 435.064L167.906 420.664L56.693 420.664zM286.016 463.864L541.134 463.864L541.134 449.464L286.016 449.464zM240.945 463.864L286.016 463.864L286.016 449.464L240.945 449.464zM167.906 463.864L240.945 463.864L240.945 449.464L167.906 449.464zM56.693 463.864L167.906 463.864L167.906 449.464L56.693 449.464z" stroke="none" fill="#E6E7E8" fill-rule="nonzero" /><path id="929" transform="matrix(1 0 0 -1 0 792)" d="M56.6929 478.2643L167.9059 478.2643" stroke="#000000" stroke-width="1" fill="none" /><path id="930" transform="matrix(1 0 0 -1 0 792)" d="M167.9055 478.2643L240.9445 478.2643" stroke="#000000" stroke-width="1" fill="none" /><path id="931" transform="matrix(1 0 0 -1 0 792)" d="M240.9449 478.2643L286.0159 478.2643" stroke="#000000" stroke-width="1" fill="none" /><path id="932" transform="matrix(1 0 0 -1 0 792)" d="M286.0157 478.2643L541.1337 478.2643" stroke="#000000" stroke-width="1" fill="none" /><path id="1127" transform="matrix(1 0 0 -1 0 792)" d="M286.016 189.61L541.134 189.61L541.134 165.61L286.016 165.61zM240.945 189.61L286.016 189.61L286.016 165.61L240.945 165.61zM167.244 189.61L240.945 189.61L240.945 165.61L167.244 165.61zM56.693 189.61L167.244 189.61L167.244 165.61L56.693 165.61zM286.016 228.01L541.134 228.01L541.134 204.01L286.016 204.01zM240.945 228.01L286.016 228.01L286.016 204.01L240.945 204.01zM167.244 228.01L240.945 228.01L240.945 204.01L167.244 204.01zM56.693 228.01L167.244 228.01L167.244 204.01L56.693 204.01zM286.016 276.01L541.134 276.01L541.134 252.01L286.016 252.01zM240.945 276.01L286.016 276.01L286.016 252.01L240.945 252.01zM167.244 276.01L240.945 276.01L240.945 252.01L167.244 252.01zM56.693 276.01L167.244 276.01L167.244 252.01L56.693 252.01zM286.016 314.41L541.134 314.41L541.134 300.01L286.016 300.01zM240.945 314.41L286.016 314.41L286.016 300.01L240.945 300.01zM167.244 314.41L240.945 314.41L240.945 300.01L167.244 300.01zM56.693 314.41L167.244 314.41L167.244 300.01L56.693 300.01zM286.016 343.21L541.134 343.21L541.134 328.81L286.016 328.81zM240.945 343.21L286.016 343.21L286.016 328.81L240.945 328.81zM167.244 343.21L240.945 343.21L240.945 328.81L167.244 328.81zM56.693 343.21L167.244 343.21L167.244 328.81L56.693 328.81z" stroke="none" fill="#E6E7E8" fill-rule="nonzero" /><path id="1128" transform="matrix(1 0 0 -1 0 792)" d="M56.6929 357.6099L167.2439 357.6099" stroke="#000000" stroke-width="1" fill="none" /><path id="1129" transform="matrix(1 0 0 -1 0 792)" d="M167.2441 357.6099L240.9451 357.6099" stroke="#000000" stroke-width="1" fill="none" /><path id="1130" transform="matrix(1 0 0 -1 0 792)" d="M240.9449 357.6099L286.0159 357.6099" stroke="#000000" stroke-width="1" fill="none" /><path id="1131" transform="matrix(1 0 0 -1 0 792)" d="M286.0157 357.6099L541.1337 357.6099" stroke="#000000" stroke-width="1" fill="none" /><g clip-path="url(#2)"><path id="2020" transform="matrix(1 0 0 -1 0 792)" d="M56.9448 32.702L56.9448 -12.691" stroke="#000000" stroke-width="0.75" stroke-linecap="round" stroke-dasharray="0.75,1.464" fill="none" /><path id="2021" transform="matrix(1 0 0 -1 0 792)" d="M56.9448 -13.7986L56.9448 -13.7986M56.9448 34.9164L56.9448 34.9164" stroke="#000000" stroke-width="0.75" stroke-linecap="round" fill="none" /></g></g></g></svg>