<svg xmlns="http://www.w3.org/2000/svg" xmlns:xlink="http://www.w3.org/1999/xlink" id="body_74" preserveAspectRatio="xMinYMin meet" viewBox="0 0 816 1056"><defs><clipPath id="1"><path id="" clip-rule="evenodd" transform="matrix(1 0 0 1 0 0)" d="M0 792L0 0L0 0L612 0L612 0L612 792L612 792L0 792z" /></clipPath><clipPath id="2"><path id="" clip-rule="evenodd" transform="matrix(1 0 0 1 0 0)" d="M56.693 374.134L293.244 374.134L293.244 374.134L293.244 79.81604L293.244 79.81604L56.693 79.81604z" /></clipPath><clipPath id="3"><path id="" clip-rule="evenodd" transform="matrix(1 0 0 1 0 0)" d="M47.693 71.81598L302.244 71.81598L302.244 71.81598L302.244 367.342L302.244 367.342L47.693 367.342z" /></clipPath><clipPath id="4"><path id="" clip-rule="evenodd" transform="matrix(1 0 0 1 0 0)" d="M56.693 573.486L293.244 573.486L293.244 573.486L293.244 375.06L293.244 375.06L56.693 375.06z" /></clipPath><clipPath id="5"><path id="" clip-rule="evenodd" transform="matrix(1 0 0 1 0 0)" d="M47.6929 367.323L302.244 367.323L302.244 367.323L302.244 575.932L302.244 575.932L47.6929 575.932z" /></clipPath><clipPath id="6"><path id="" clip-rule="evenodd" transform="matrix(1 0 0 1 0 0)" d="M304.914 311.893L541.465 311.893L541.465 311.893L541.465 56.07397L541.465 56.07397L304.914 56.07397z" /></clipPath><clipPath id="7"><path id="" clip-rule="evenodd" transform="matrix(1 0 0 1 0 0)" d="M295.913 48.07501L550.465 48.07501L550.465 48.07501L550.465 314.601L550.465 314.601L295.913 314.601z" /></clipPath><clipPath id="8"><path id="" clip-rule="evenodd" transform="matrix(1 0 0 1 0 0)" d="M304.914 600.34L541.465 600.34L541.465 600.34L541.465 320.274L541.465 320.274L304.914 320.274z" /></clipPath><clipPath id="9"><path id="" clip-rule="evenodd" transform="matrix(1 0 0 1 0 0)" d="M295.913 312.274L550.465 312.274L550.465 312.274L550.465 593.549L550.465 593.549L295.913 593.549z" /></clipPath><clipPath id="10"><path id="" clip-rule="evenodd" transform="matrix(1 0 0 1 0 0)" d="M0 0L612 0L612 0L612 792L612 792L0 792z" /></clipPath></defs><g transform="matrix(1.333333 0 0 1.333333 0 0)"><g clip-path="url(#1)"><path id="29" transform="matrix(1 0 0 -1 0 792)" d="M59.5278 712.1844L56.6928 709.3494L56.6928 430.2014L59.5278 427.3664L290.4098 427.3664L293.2438 430.2014L293.2438 709.3494L290.4098 712.1844z" stroke="none" fill="#EAEBEC" fill-rule="nonzero" /><path id="30" transform="matrix(1 0 0 -1 0 792)" d="M62.862 633.291L287.075 633.291L287.075 658.795L62.862 658.795z" stroke="none" fill="#FFFEFE" fill-rule="nonzero" /><path id="31" transform="matrix(1 0 0 -1 0 792)" d="M62.8623 658.795L287.0753 658.795" stroke="#939597" stroke-width="0.5" fill="none" /><path id="32" transform="matrix(1 0 0 -1 0 792)" d="M62.862 618.622L287.075 618.622L287.075 637.961L62.862 637.961z" stroke="none" fill="#FFFEFE" fill-rule="nonzero" /><path id="33" transform="matrix(1 0 0 -1 0 792)" d="M63.8814 633.7084L286.5654 633.7084" stroke="#BBBDC0" stroke-width="0.51" stroke-linecap="round" stroke-dasharray="0.51,0.51" fill="none" /><path id="34" transform="matrix(1 0 0 -1 0 792)" d="M287.0753 633.7084L287.0753 633.7084M62.8623 633.7084L62.8623 633.7084" stroke="#BBBDC0" stroke-width="0.51" stroke-linecap="round" fill="none" /><path id="35" transform="matrix(1 0 0 -1 0 792)" d="M62.8623 618.3915L286.5233 618.3915" stroke="#939597" stroke-width="0.5" fill="none" /><g clip-path="url(#2)"><g><g clip-path="url(#3)"><path id="1105" transform="matrix(1 0 0 -1 0 792)" d="M59.6312 711.9343C 58.7352 711.0383 57.8392 710.1423 56.9432 709.2463L56.9432 709.2463L56.9432 430.3043C 57.8392 429.4083 58.7352 428.5123 59.6312 427.6163L59.6312 427.6163L290.3062 427.6163C 291.2022 428.5123 292.0982 429.4083 292.9942 430.3043L292.9942 430.3043L292.9942 709.2463C 292.0982 710.1423 291.2022 711.0383 290.3062 711.9343L290.3062 711.9343L59.6312 711.9343z" stroke="#000000" stroke-width="0.5" fill="none" stroke-opacity="0.4980392" /></g></g></g><path id="1106" transform="matrix(1 0 0 -1 0 792)" d="M59.5278 416.6766L56.6928 413.8426L56.6928 221.6106L59.5278 218.7756L290.4098 218.7756L293.2438 221.6106L293.2438 413.8426L290.4098 416.6766z" stroke="none" fill="#EAEBEC" fill-rule="nonzero" /><path id="1107" transform="matrix(1 0 0 -1 0 792)" d="M62.862 337.784L287.075 337.784L287.075 363.288L62.862 363.288z" stroke="none" fill="#FFFEFE" fill-rule="nonzero" /><path id="1108" transform="matrix(1 0 0 -1 0 792)" d="M62.8622 363.2877L287.0752 363.2877" stroke="#939597" stroke-width="0.5" fill="none" /><path id="1109" transform="matrix(1 0 0 -1 0 792)" d="M62.862 323.114L287.075 323.114L287.075 342.453L62.862 342.453z" stroke="none" fill="#FFFEFE" fill-rule="nonzero" /><path id="1110" transform="matrix(1 0 0 -1 0 792)" d="M63.8814 338.201L286.5654 338.201" stroke="#BBBDC0" stroke-width="0.51" stroke-linecap="round" stroke-dasharray="0.51,0.51" fill="none" /><path id="1111" transform="matrix(1 0 0 -1 0 792)" d="M287.0752 338.201L287.0752 338.201M62.8622 338.201L62.8622 338.201" stroke="#BBBDC0" stroke-width="0.51" stroke-linecap="round" fill="none" /><path id="1112" transform="matrix(1 0 0 -1 0 792)" d="M62.8622 322.8841L286.5232 322.8841" stroke="#939597" stroke-width="0.5" fill="none" /><g clip-path="url(#4)"><g><g clip-path="url(#5)"><path id="1676" transform="matrix(1 0 0 -1 0 792)" d="M59.6311 416.4269C 58.7351 415.5309 57.8391 414.6349 56.9431 413.7389L56.9431 413.7389L56.9431 221.7139C 57.8391 220.8179 58.7351 219.9219 59.6311 219.0259L59.6311 219.0259L290.3061 219.0259L290.3061 219.0259L292.9941 221.7139L292.9941 221.7139L292.9941 413.7389L292.9941 413.7389L290.3061 416.4269L290.3061 416.4269L59.6311 416.4269z" stroke="#000000" stroke-width="0.5" fill="none" stroke-opacity="0.4980392" /></g></g></g><path id="1677" transform="matrix(1 0 0 -1 0 792)" d="M307.7478 735.9255L304.9138 733.0905L304.9138 482.9415L307.7478 480.1065L538.6298 480.1065L541.4638 482.9415L541.4638 733.0905L538.6298 735.9255z" stroke="none" fill="#EAEBEC" fill-rule="nonzero" /><path id="1678" transform="matrix(1 0 0 -1 0 792)" d="M311.083 648.032L535.296 648.032L535.296 673.536L311.083 673.536z" stroke="none" fill="#FFFEFE" fill-rule="nonzero" /><path id="1679" transform="matrix(1 0 0 -1 0 792)" d="M311.0827 673.5362L535.2957 673.5362" stroke="#939597" stroke-width="0.5" fill="none" /><path id="1680" transform="matrix(1 0 0 -1 0 792)" d="M311.083 633.363L535.296 633.363L535.296 652.702L311.083 652.702z" stroke="none" fill="#FFFEFE" fill-rule="nonzero" /><path id="1681" transform="matrix(1 0 0 -1 0 792)" d="M312.1019 648.4496L534.7859 648.4496" stroke="#BBBDC0" stroke-width="0.51" stroke-linecap="round" stroke-dasharray="0.51,0.51" fill="none" /><path id="1682" transform="matrix(1 0 0 -1 0 792)" d="M535.2957 648.4496L535.2957 648.4496M311.0827 648.4496L311.0827 648.4496" stroke="#BBBDC0" stroke-width="0.51" stroke-linecap="round" fill="none" /><path id="1683" transform="matrix(1 0 0 -1 0 792)" d="M311.0827 633.1327L534.7437 633.1327" stroke="#939597" stroke-width="0.5" fill="none" /><g clip-path="url(#6)"><g><g clip-path="url(#7)"><path id="2485" transform="matrix(1 0 0 -1 0 792)" d="M307.8517 735.6755C 306.9557 734.7795 306.0597 733.8835 305.1637 732.9875L305.1637 732.9875L305.1637 483.0455L305.1637 483.0455L307.8517 480.3575L307.8517 480.3575L538.5267 480.3575L538.5267 480.3575L541.2147 483.0455L541.2147 483.0455L541.2147 732.9875L541.2147 732.9875L538.5267 735.6755L538.5267 735.6755L307.8517 735.6755z" stroke="#000000" stroke-width="0.5" fill="none" stroke-opacity="0.4980392" /></g></g></g><path id="2486" transform="matrix(1 0 0 -1 0 792)" d="M307.7478 471.726L304.9138 468.891L304.9138 203.994L307.7478 201.159L538.6298 201.159L541.4638 203.994L541.4638 468.891L538.6298 471.726z" stroke="none" fill="#EAEBEC" fill-rule="nonzero" /><path id="2487" transform="matrix(1 0 0 -1 0 792)" d="M311.083 374.832L535.296 374.832L535.296 400.336L311.083 400.336z" stroke="none" fill="#FFFEFE" fill-rule="nonzero" /><path id="2488" transform="matrix(1 0 0 -1 0 792)" d="M311.0827 400.3363L535.2957 400.3363" stroke="#939597" stroke-width="0.5" fill="none" /><path id="2489" transform="matrix(1 0 0 -1 0 792)" d="M311.0827 374.6021L534.7437 374.6021" stroke="#939597" stroke-width="0.5" fill="none" /><g clip-path="url(#8)"><g><g clip-path="url(#9)"><path id="3437" transform="matrix(1 0 0 -1 0 792)" d="M307.8516 471.4756C 306.9556 470.5796 306.0596 469.6836 305.1636 468.7876L305.1636 468.7876L305.1636 204.0976L305.1636 204.0976L307.8516 201.4096L307.8516 201.4096L538.5266 201.4096C 539.4226 202.3056 540.3186 203.2016 541.2146 204.0976L541.2146 204.0976L541.2146 468.7876C 540.3186 469.6836 539.4226 470.5796 538.5266 471.4756L538.5266 471.4756L307.8516 471.4756z" stroke="#000000" stroke-width="0.5" fill="none" stroke-opacity="0.4980392" /></g></g></g><g clip-path="url(#10)"><path id="3454" transform="matrix(1 0 0 -1 0 792)" d="M56.9448 32.702L56.9448 -12.691" stroke="#000000" stroke-width="0.75" stroke-linecap="round" stroke-dasharray="0.75,1.464" fill="none" /><path id="3455" transform="matrix(1 0 0 -1 0 792)" d="M56.9448 -13.7986L56.9448 -13.7986M56.9448 34.9164L56.9448 34.9164" stroke="#000000" stroke-width="0.75" stroke-linecap="round" fill="none" /></g></g></g></svg>