<svg xmlns="http://www.w3.org/2000/svg" xmlns:xlink="http://www.w3.org/1999/xlink" id="body_65" preserveAspectRatio="xMinYMin meet" viewBox="0 0 816 1056"><defs><clipPath id="1"><path id="" clip-rule="evenodd" transform="matrix(1 0 0 1 0 0)" d="M0 792L0 0L0 0L612 0L612 0L612 792L612 792L0 792z" /></clipPath><clipPath id="2"><path id="" clip-rule="evenodd" transform="matrix(1 0 0 1 0 0)" d="M0 0L612 0L612 0L612 792L612 792L0 792z" /></clipPath></defs><g transform="matrix(1.333333 0 0 1.333333 0 0)"><g clip-path="url(#1)"><path id="1" transform="matrix(1 0 0 -1 0 792)" d="M75.1181 531.752L75.1181 540.287" stroke="#BBBDC0" stroke-width="8" fill="none" /><path id="2" transform="matrix(1 0 0 -1 0 792)" d="M75.1181 277.4292L75.1181 285.5942" stroke="#BBBDC0" stroke-width="8" fill="none" /><path id="1346" transform="matrix(1 0 0 -1 0 792)" d="M319.087 438.595L555.307 438.595L555.307 743.811L319.087 743.811z" stroke="none" fill="#F0F1F1" fill-rule="nonzero" /><path id="1347" transform="matrix(1 0 0 -1 0 792)" d="M555.3071 438.5945L319.0871 438.5945" stroke="#939597" stroke-width="1" fill="none" /><path id="1348" transform="matrix(1 0 0 -1 0 792)" d="M319.0866 743.811L555.3066 743.811" stroke="#939597" stroke-width="1" fill="none" /><g clip-path="url(#2)"><path id="2262" transform="matrix(1 0 0 -1 0 792)" d="M555.6614 32.702L555.6614 -12.691" stroke="#000000" stroke-width="0.75" stroke-linecap="round" stroke-dasharray="0.75,1.464" fill="none" /><path id="2263" transform="matrix(1 0 0 -1 0 792)" d="M555.6614 -13.7986L555.6614 -13.7986M555.6614 34.9164L555.6614 34.9164" stroke="#000000" stroke-width="0.75" stroke-linecap="round" fill="none" /></g></g></g></svg>