<svg xmlns="http://www.w3.org/2000/svg" xmlns:xlink="http://www.w3.org/1999/xlink" id="body_95" preserveAspectRatio="xMinYMin meet" viewBox="0 0 816 1056"><defs><clipPath id="1"><path id="" clip-rule="evenodd" transform="matrix(1 0 0 1 0 0)" d="M0 792L0 0L0 0L612 0L612 0L612 792L612 792L0 792z" /></clipPath><clipPath id="2"><path id="" clip-rule="evenodd" transform="matrix(1 0 0 1 0 0)" d="M70.866 447.846L307.417 447.846L307.417 447.846L307.417 56.69202L307.417 56.69202L70.866 56.69202z" /></clipPath><clipPath id="3"><path id="" clip-rule="evenodd" transform="matrix(1 0 0 1 0 0)" d="M61.8662 48.69299L316.417 48.69299L316.417 48.69299L316.417 450.29L316.417 450.29L61.8662 450.29z" /></clipPath><clipPath id="4"><path id="" clip-rule="evenodd" transform="matrix(1 0 0 1 0 0)" d="M319.087 444.787L555.638 444.787L555.638 444.787L555.638 92.55103L555.638 92.55103L319.087 92.55103z" /></clipPath><clipPath id="5"><path id="" clip-rule="evenodd" transform="matrix(1 0 0 1 0 0)" d="M310.087 84.55103L564.638 84.55103L564.638 84.55103L564.638 447.495L564.638 447.495L310.087 447.495z" /></clipPath><clipPath id="6"><path id="" clip-rule="evenodd" transform="matrix(1 0 0 1 0 0)" d="M319.087 668.06L555.638 668.06L555.638 668.06L555.638 456.329L555.638 456.329L319.087 456.329z" /></clipPath><clipPath id="7"><path id="" clip-rule="evenodd" transform="matrix(1 0 0 1 0 0)" d="M310.087 448.329L564.638 448.329L564.638 448.329L564.638 670.769L564.638 670.769L310.087 670.769z" /></clipPath><clipPath id="8"><path id="" clip-rule="evenodd" transform="matrix(1 0 0 1 0 0)" d="M0 0L612 0L612 0L612 792L612 792L0 792z" /></clipPath></defs><g transform="matrix(1.333333 0 0 1.333333 0 0)"><g clip-path="url(#1)"><path id="1" transform="matrix(1 0 0 -1 0 792)" d="M73.701 735.3072L70.866 732.4722L70.866 346.9882L73.701 344.1532L304.582 344.1532L307.417 346.9882L307.417 732.4722L304.582 735.3072z" stroke="none" fill="#EAEBEC" fill-rule="nonzero" /><path id="2" transform="matrix(1 0 0 -1 0 792)" d="M77.035 638.414L301.248 638.414L301.248 663.918L77.035 663.918z" stroke="none" fill="#FFFEFE" fill-rule="nonzero" /><path id="3" transform="matrix(1 0 0 -1 0 792)" d="M77.0355 663.9178L301.2485 663.9178" stroke="#939597" stroke-width="0.5" fill="none" /><path id="4" transform="matrix(1 0 0 -1 0 792)" d="M77.035 623.745L301.248 623.745L301.248 643.084L77.035 643.084z" stroke="none" fill="#FFFEFE" fill-rule="nonzero" /><path id="5" transform="matrix(1 0 0 -1 0 792)" d="M78.0546 638.8312L300.7386 638.8312" stroke="#BBBDC0" stroke-width="0.51" stroke-linecap="round" stroke-dasharray="0.51,0.51" fill="none" /><path id="6" transform="matrix(1 0 0 -1 0 792)" d="M301.2485 638.8312L301.2485 638.8312M77.0355 638.8312L77.0355 638.8312" stroke="#BBBDC0" stroke-width="0.51" stroke-linecap="round" fill="none" /><path id="7" transform="matrix(1 0 0 -1 0 792)" d="M77.0355 623.5143L300.6965 623.5143" stroke="#939597" stroke-width="0.5" fill="none" /><g clip-path="url(#2)"><g><g clip-path="url(#3)"><path id="1458" transform="matrix(1 0 0 -1 0 792)" d="M73.8044 735.0571C 72.90839 734.1611 72.0124 733.2641 71.11639 732.3691L71.11639 732.3691L71.11639 347.0921C 72.0124 346.1961 72.90839 345.3001 73.8044 344.4041L73.8044 344.4041L304.4794 344.4041C 305.3754 345.3001 306.2714 346.1961 307.1674 347.0921L307.1674 347.0921L307.1674 732.3691L307.1674 732.3691L304.4794 735.0571L304.4794 735.0571L73.8044 735.0571z" stroke="#000000" stroke-width="0.5" fill="none" stroke-opacity="0.4980392" /></g></g></g><path id="1492" transform="matrix(1 0 0 -1 0 792)" d="M321.921 699.4485L319.087 696.6145L319.087 350.0475L321.921 347.2125L552.803 347.2125L555.638 350.0475L555.638 696.6145L552.803 699.4485z" stroke="none" fill="#EAEBEC" fill-rule="nonzero" /><path id="1493" transform="matrix(1 0 0 -1 0 792)" d="M325.256 611.556L549.469 611.556L549.469 637.0601L325.256 637.0601z" stroke="none" fill="#FFFEFE" fill-rule="nonzero" /><path id="1494" transform="matrix(1 0 0 -1 0 792)" d="M325.256 637.0596L549.469 637.0596" stroke="#939597" stroke-width="0.5" fill="none" /><path id="1495" transform="matrix(1 0 0 -1 0 792)" d="M325.256 596.886L549.469 596.886L549.469 616.225L325.256 616.225z" stroke="none" fill="#FFFEFE" fill-rule="nonzero" /><path id="1496" transform="matrix(1 0 0 -1 0 792)" d="M326.2751 611.973L548.9591 611.973" stroke="#BBBDC0" stroke-width="0.51" stroke-linecap="round" stroke-dasharray="0.51,0.51" fill="none" /><path id="1497" transform="matrix(1 0 0 -1 0 792)" d="M549.469 611.973L549.469 611.973M325.256 611.973L325.256 611.973" stroke="#BBBDC0" stroke-width="0.51" stroke-linecap="round" fill="none" /><path id="1498" transform="matrix(1 0 0 -1 0 792)" d="M325.256 596.6561L548.917 596.6561" stroke="#939597" stroke-width="0.5" fill="none" /><g clip-path="url(#4)"><g><g clip-path="url(#5)"><path id="2751" transform="matrix(1 0 0 -1 0 792)" d="M322.0249 699.1989C 321.1289 698.3029 320.2329 697.4069 319.3369 696.5109L319.3369 696.5109L319.3369 350.1509C 320.2329 349.2549 321.1289 348.3589 322.0249 347.4629L322.0249 347.4629L552.6999 347.4629C 553.5959 348.3589 554.4919 349.2549 555.3879 350.1509L555.3879 350.1509L555.3879 696.5109L555.3879 696.5109L552.6999 699.1989L552.6999 699.1989L322.0249 699.1989z" stroke="#000000" stroke-width="0.5" fill="none" stroke-opacity="0.4980392" /></g></g></g><path id="2752" transform="matrix(1 0 0 -1 0 792)" d="M321.921 335.6712L319.087 332.8362L319.087 126.7742L321.92 123.9402L552.804 123.9402L555.638 126.7742L555.638 332.8362L552.803 335.6712z" stroke="none" fill="#EAEBEC" fill-rule="nonzero" /><path id="2753" transform="matrix(1 0 0 -1 0 792)" d="M325.256 256.778L549.469 256.778L549.469 282.282L325.256 282.282z" stroke="none" fill="#FFFEFE" fill-rule="nonzero" /><path id="2754" transform="matrix(1 0 0 -1 0 792)" d="M325.2559 282.2817L549.4689 282.2817" stroke="#939597" stroke-width="0.5" fill="none" /><path id="2755" transform="matrix(1 0 0 -1 0 792)" d="M325.2559 256.5474L548.9169 256.5474" stroke="#939597" stroke-width="0.5" fill="none" /><g clip-path="url(#6)"><g><g clip-path="url(#7)"><path id="3416" transform="matrix(1 0 0 -1 0 792)" d="M322.0248 335.421C 321.1288 334.525 320.2328 333.629 319.3368 332.733L319.3368 332.733L319.3368 126.877C 320.2328 125.981 321.1288 125.085 322.0248 124.189L322.0248 124.189L552.6998 124.189C 553.5958 125.085 554.4918 125.981 555.3878 126.877L555.3878 126.877L555.3878 332.733C 554.4918 333.629 553.5958 334.525 552.6998 335.421L552.6998 335.421L322.0248 335.421z" stroke="#000000" stroke-width="0.5" fill="none" stroke-opacity="0.4980392" /></g></g></g><g clip-path="url(#8)"><path id="3433" transform="matrix(1 0 0 -1 0 792)" d="M555.6614 32.702L555.6614 -12.691" stroke="#000000" stroke-width="0.75" stroke-linecap="round" stroke-dasharray="0.75,1.464" fill="none" /><path id="3434" transform="matrix(1 0 0 -1 0 792)" d="M555.6614 -13.7986L555.6614 -13.7986M555.6614 34.9164L555.6614 34.9164" stroke="#000000" stroke-width="0.75" stroke-linecap="round" fill="none" /></g></g></g></svg>