<svg xmlns="http://www.w3.org/2000/svg" xmlns:xlink="http://www.w3.org/1999/xlink" id="body_44" preserveAspectRatio="xMinYMin meet" viewBox="0 0 816 1056"><defs><clipPath id="1"><path id="" clip-rule="evenodd" transform="matrix(1 0 0 1 0 0)" d="M0 792L0 0L0 0L612 0L612 0L612 792L612 792L0 792z" /></clipPath><clipPath id="2"><path id="" clip-rule="evenodd" transform="matrix(1 0 0 1 0 0)" d="M0 0L612 0L612 0L612 792L612 792L0 792z" /></clipPath></defs><g transform="matrix(1.333333 0 0 1.333333 0 0)"><g clip-path="url(#1)"><path id="806" transform="matrix(1 0 0 -1 0 792)" d="M309.1653 673.4286L309.1653 681.5936" stroke="#BBBDC0" stroke-width="8" fill="none" /><path id="807" transform="matrix(1 0 0 -1 0 792)" d="M309.1653 612.4208L309.1653 620.5858" stroke="#BBBDC0" stroke-width="8" fill="none" /><path id="808" transform="matrix(1 0 0 -1 0 792)" d="M309.1653 562.4129L309.1653 570.5779" stroke="#BBBDC0" stroke-width="8" fill="none" /><path id="809" transform="matrix(1 0 0 -1 0 792)" d="M309.1653 512.405L309.1653 520.57" stroke="#BBBDC0" stroke-width="8" fill="none" /><path id="810" transform="matrix(1 0 0 -1 0 792)" d="M309.1653 429.3972L309.1653 437.5622" stroke="#BBBDC0" stroke-width="8" fill="none" /><path id="811" transform="matrix(1 0 0 -1 0 792)" d="M309.1653 368.3893L309.1653 376.5543" stroke="#BBBDC0" stroke-width="8" fill="none" /><path id="812" transform="matrix(1 0 0 -1 0 792)" d="M309.1653 318.3814L309.1653 326.5464" stroke="#BBBDC0" stroke-width="8" fill="none" /><g clip-path="url(#2)"><path id="2041" transform="matrix(1 0 0 -1 0 792)" d="M56.9448 32.702L56.9448 -12.691" stroke="#000000" stroke-width="0.75" stroke-linecap="round" stroke-dasharray="0.75,1.464" fill="none" /><path id="2042" transform="matrix(1 0 0 -1 0 792)" d="M56.9448 -13.7986L56.9448 -13.7986M56.9448 34.9164L56.9448 34.9164" stroke="#000000" stroke-width="0.75" stroke-linecap="round" fill="none" /></g></g></g></svg>