<svg xmlns="http://www.w3.org/2000/svg" xmlns:xlink="http://www.w3.org/1999/xlink" id="body_113" preserveAspectRatio="xMinYMin meet" viewBox="0 0 816 1056"><defs><clipPath id="1"><path id="" clip-rule="evenodd" transform="matrix(1 0 0 1 0 0)" d="M0 792L0 0L0 0L612 0L612 0L612 792L612 792L0 792z" /></clipPath><clipPath id="2"><path id="" clip-rule="evenodd" transform="matrix(1 0 0 1 0 0)" d="M0 0L612 0L612 0L612 792L612 792L0 792z" /></clipPath></defs><g transform="matrix(1.333333 0 0 1.333333 0 0)"><g clip-path="url(#1)"><path id="1" transform="matrix(1 0 0 -1 0 792)" d="M71.5748 209.5752L71.5748 229.5752" stroke="#6D6E70" stroke-width="1" fill="none" /><path id="1371" transform="matrix(1 0 0 -1 0 792)" d="M319.087 454.74L555.307 454.74L555.307 568.748L319.087 568.748z" stroke="none" fill="#F0F1F1" fill-rule="nonzero" /><path id="1372" transform="matrix(1 0 0 -1 0 792)" d="M555.3071 454.7397L319.0871 454.7397" stroke="#939597" stroke-width="1" fill="none" /><path id="1373" transform="matrix(1 0 0 -1 0 792)" d="M319.0866 568.7476L555.3066 568.7476" stroke="#939597" stroke-width="1" fill="none" /><g clip-path="url(#2)"><path id="3108" transform="matrix(1 0 0 -1 0 792)" d="M555.6614 32.702L555.6614 -12.691" stroke="#000000" stroke-width="0.75" stroke-linecap="round" stroke-dasharray="0.75,1.464" fill="none" /><path id="3109" transform="matrix(1 0 0 -1 0 792)" d="M555.6614 -13.7986L555.6614 -13.7986M555.6614 34.9164L555.6614 34.9164" stroke="#000000" stroke-width="0.75" stroke-linecap="round" fill="none" /></g></g></g></svg>