<svg xmlns="http://www.w3.org/2000/svg" xmlns:xlink="http://www.w3.org/1999/xlink" id="body_80" preserveAspectRatio="xMinYMin meet" viewBox="0 0 816 1056"><defs><clipPath id="1"><path id="" clip-rule="evenodd" transform="matrix(1 0 0 1 0 0)" d="M0 792L0 0L0 0L612 0L612 0L612 792L612 792L0 792z" /></clipPath><clipPath id="2"><path id="" clip-rule="evenodd" transform="matrix(1 0 0 1 0 0)" d="M56.693 321.512L293.244 321.512L293.244 321.512L293.244 56.69299L293.244 56.69299L56.693 56.69299z" /></clipPath><clipPath id="3"><path id="" clip-rule="evenodd" transform="matrix(1 0 0 1 0 0)" d="M47.693 48.69299L302.244 48.69299L302.244 48.69299L302.244 324.219L302.244 324.219L47.693 324.219z" /></clipPath><clipPath id="4"><path id="" clip-rule="evenodd" transform="matrix(1 0 0 1 0 0)" d="M56.693 510.07L293.244 510.07L293.244 510.07L293.244 331.488L293.244 331.488L56.693 331.488z" /></clipPath><clipPath id="5"><path id="" clip-rule="evenodd" transform="matrix(1 0 0 1 0 0)" d="M47.693 323.788L302.244 323.788L302.244 323.788L302.244 502.479L302.244 502.479L47.693 502.479z" /></clipPath><clipPath id="6"><path id="" clip-rule="evenodd" transform="matrix(1 0 0 1 0 0)" d="M56.693 687.821L293.244 687.821L293.244 687.821L293.244 509.238L293.244 509.238L56.693 509.238z" /></clipPath><clipPath id="7"><path id="" clip-rule="evenodd" transform="matrix(1 0 0 1 0 0)" d="M47.693 502.04L302.244 502.04L302.244 502.04L302.244 690.232L302.244 690.232L47.693 690.232z" /></clipPath><clipPath id="8"><path id="" clip-rule="evenodd" transform="matrix(1 0 0 1 0 0)" d="M304.914 251.008L541.465 251.008L541.465 251.008L541.465 56.69299L541.465 56.69299L304.914 56.69299z" /></clipPath><clipPath id="9"><path id="" clip-rule="evenodd" transform="matrix(1 0 0 1 0 0)" d="M295.913 48.69299L550.465 48.69299L550.465 48.69299L550.465 250.716L550.465 250.716L295.913 250.716z" /></clipPath><clipPath id="10"><path id="" clip-rule="evenodd" transform="matrix(1 0 0 1 0 0)" d="M304.914 432.781L541.465 432.781L541.465 432.781L541.465 260.967L541.465 260.967L304.914 260.967z" /></clipPath><clipPath id="11"><path id="" clip-rule="evenodd" transform="matrix(1 0 0 1 0 0)" d="M295.913 252.967L550.465 252.967L550.465 252.967L550.465 435.489L550.465 435.489L295.913 435.489z" /></clipPath><clipPath id="12"><path id="" clip-rule="evenodd" transform="matrix(1 0 0 1 0 0)" d="M304.914 638.239L541.465 638.239L541.465 638.239L541.465 442.424L541.465 442.424L304.914 442.424z" /></clipPath><clipPath id="13"><path id="" clip-rule="evenodd" transform="matrix(1 0 0 1 0 0)" d="M295.913 434.424L550.465 434.424L550.465 434.424L550.465 626.946L550.465 626.946L295.913 626.946z" /></clipPath><clipPath id="14"><path id="" clip-rule="evenodd" transform="matrix(1 0 0 1 0 0)" d="M0 0L612 0L612 0L612 792L612 792L0 792z" /></clipPath></defs><g transform="matrix(1.333333 0 0 1.333333 0 0)"><g clip-path="url(#1)"><path id="1" transform="matrix(1 0 0 -1 0 792)" d="M59.5278 735.3072L56.6928 732.4722L56.6928 473.3232L59.5278 470.4882L290.4098 470.4882L293.2438 473.3232L293.2438 732.4722L290.4098 735.3072z" stroke="none" fill="#EAEBEC" fill-rule="nonzero" /><path id="2" transform="matrix(1 0 0 -1 0 792)" d="M62.862 638.414L287.075 638.414L287.075 663.918L62.862 663.918z" stroke="none" fill="#FFFEFE" fill-rule="nonzero" /><path id="3" transform="matrix(1 0 0 -1 0 792)" d="M62.8623 663.9178L287.0753 663.9178" stroke="#939597" stroke-width="0.5" fill="none" /><path id="4" transform="matrix(1 0 0 -1 0 792)" d="M62.862 623.745L287.075 623.745L287.075 643.084L62.862 643.084z" stroke="none" fill="#FFFEFE" fill-rule="nonzero" /><path id="5" transform="matrix(1 0 0 -1 0 792)" d="M63.8814 638.8312L286.5654 638.8312" stroke="#BBBDC0" stroke-width="0.51" stroke-linecap="round" stroke-dasharray="0.51,0.51" fill="none" /><path id="6" transform="matrix(1 0 0 -1 0 792)" d="M287.0753 638.8312L287.0753 638.8312M62.8623 638.8312L62.8623 638.8312" stroke="#BBBDC0" stroke-width="0.51" stroke-linecap="round" fill="none" /><path id="7" transform="matrix(1 0 0 -1 0 792)" d="M62.8623 623.5143L286.5233 623.5143" stroke="#939597" stroke-width="0.5" fill="none" /><g clip-path="url(#2)"><g><g clip-path="url(#3)"><path id="803" transform="matrix(1 0 0 -1 0 792)" d="M59.6311 735.0571C 58.7351 734.1611 57.8391 733.2651 56.9431 732.3691L56.9431 732.3691L56.9431 473.4271L56.9431 473.4271L59.6311 470.7391L59.6311 470.7391L290.3061 470.7391C 291.2021 471.6351 292.0981 472.5311 292.9941 473.4271L292.9941 473.4271L292.9941 732.3691L292.9941 732.3691L290.3061 735.0571L290.3061 735.0571L59.6311 735.0571z" stroke="#000000" stroke-width="0.5" fill="none" stroke-opacity="0.4980392" /></g></g></g><path id="804" transform="matrix(1 0 0 -1 0 792)" d="M59.5278 460.2123L56.6928 457.3773L56.6928 295.0633L59.5278 292.2283L290.4098 292.2283L293.2438 295.0633L293.2438 457.3773L290.4098 460.2123z" stroke="none" fill="#EAEBEC" fill-rule="nonzero" /><path id="805" transform="matrix(1 0 0 -1 0 792)" d="M62.862 381.319L287.075 381.319L287.075 406.823L62.862 406.823z" stroke="none" fill="#FFFEFE" fill-rule="nonzero" /><path id="806" transform="matrix(1 0 0 -1 0 792)" d="M62.8623 406.823L287.0753 406.823" stroke="#939597" stroke-width="0.5" fill="none" /><path id="807" transform="matrix(1 0 0 -1 0 792)" d="M62.862 366.65L287.075 366.65L287.075 385.989L62.862 385.989z" stroke="none" fill="#FFFEFE" fill-rule="nonzero" /><path id="808" transform="matrix(1 0 0 -1 0 792)" d="M63.8814 381.7364L286.5654 381.7364" stroke="#BBBDC0" stroke-width="0.51" stroke-linecap="round" stroke-dasharray="0.51,0.51" fill="none" /><path id="809" transform="matrix(1 0 0 -1 0 792)" d="M287.0753 381.7364L287.0753 381.7364M62.8623 381.7364L62.8623 381.7364" stroke="#BBBDC0" stroke-width="0.51" stroke-linecap="round" fill="none" /><path id="810" transform="matrix(1 0 0 -1 0 792)" d="M62.8623 366.4195L286.5233 366.4195" stroke="#939597" stroke-width="0.5" fill="none" /><g clip-path="url(#4)"><g><g clip-path="url(#5)"><path id="1235" transform="matrix(1 0 0 -1 0 792)" d="M59.6311 459.9623C 58.7351 459.0663 57.8391 458.1703 56.9431 457.2743L56.9431 457.2743L56.9431 295.1663C 57.8391 294.2703 58.7351 293.3743 59.6311 292.4783L59.6311 292.4783L290.3061 292.4783L290.3061 292.4783L292.9941 295.1663L292.9941 295.1663L292.9941 457.2743C 292.0981 458.1703 291.2021 459.0663 290.3061 459.9623L290.3061 459.9623L59.6311 459.9623z" stroke="#000000" stroke-width="0.5" fill="none" stroke-opacity="0.4980392" /></g></g></g><path id="1236" transform="matrix(1 0 0 -1 0 792)" d="M59.5278 281.9601L56.6928 279.1251L56.6928 107.3111L59.5278 104.4761L290.4098 104.4761L293.2438 107.3111L293.2438 279.1251L290.4098 281.9601z" stroke="none" fill="#EAEBEC" fill-rule="nonzero" /><path id="1237" transform="matrix(1 0 0 -1 0 792)" d="M62.862 203.067L287.075 203.067L287.075 228.571L62.862 228.571z" stroke="none" fill="#FFFEFE" fill-rule="nonzero" /><path id="1238" transform="matrix(1 0 0 -1 0 792)" d="M62.8623 228.5709L287.0753 228.5709" stroke="#939597" stroke-width="0.5" fill="none" /><path id="1239" transform="matrix(1 0 0 -1 0 792)" d="M62.862 188.398L287.075 188.398L287.075 207.737L62.862 207.737z" stroke="none" fill="#FFFEFE" fill-rule="nonzero" /><path id="1240" transform="matrix(1 0 0 -1 0 792)" d="M63.8814 203.4843L286.5654 203.4843" stroke="#BBBDC0" stroke-width="0.51" stroke-linecap="round" stroke-dasharray="0.51,0.51" fill="none" /><path id="1241" transform="matrix(1 0 0 -1 0 792)" d="M287.0753 203.4843L287.0753 203.4843M62.8623 203.4843L62.8623 203.4843" stroke="#BBBDC0" stroke-width="0.51" stroke-linecap="round" fill="none" /><path id="1242" transform="matrix(1 0 0 -1 0 792)" d="M62.8623 188.1673L286.5233 188.1673" stroke="#939597" stroke-width="0.5" fill="none" /><g clip-path="url(#6)"><g><g clip-path="url(#7)"><path id="1750" transform="matrix(1 0 0 -1 0 792)" d="M59.6311 281.7101C 58.7351 280.8141 57.8391 279.9181 56.9431 279.0221L56.9431 279.0221L56.9431 107.4141L56.9431 107.4141L59.6311 104.7261L59.6311 104.7261L290.3061 104.7261C 291.2021 105.6221 292.0981 106.5181 292.9941 107.4141L292.9941 107.4141L292.9941 279.0221C 292.0981 279.9181 291.2021 280.8141 290.3061 281.7101L290.3061 281.7101L59.6311 281.7101z" stroke="#000000" stroke-width="0.5" fill="none" stroke-opacity="0.4980392" /></g></g></g><path id="1751" transform="matrix(1 0 0 -1 0 792)" d="M307.7478 735.3063L304.9138 732.4723L304.9138 546.8263L307.7478 543.9923L538.6298 543.9923L541.4638 546.8263L541.4638 732.4723L538.6298 735.3063z" stroke="none" fill="#EAEBEC" fill-rule="nonzero" /><path id="1752" transform="matrix(1 0 0 -1 0 792)" d="M311.083 656.413L535.296 656.413L535.296 681.9171L311.083 681.9171z" stroke="none" fill="#FFFEFE" fill-rule="nonzero" /><path id="1753" transform="matrix(1 0 0 -1 0 792)" d="M311.0827 681.9174L535.2957 681.9174" stroke="#939597" stroke-width="0.5" fill="none" /><path id="1754" transform="matrix(1 0 0 -1 0 792)" d="M311.0827 656.1831L534.7437 656.1831" stroke="#939597" stroke-width="0.5" fill="none" /><g clip-path="url(#8)"><g><g clip-path="url(#9)"><path id="2312" transform="matrix(1 0 0 -1 0 792)" d="M307.8517 735.0566C 306.9557 734.1606 306.0597 733.2646 305.1637 732.3686L305.1637 732.3686L305.1637 546.9305C 306.0597 546.0345 306.9557 545.1385 307.8517 544.2426L307.8517 544.2426L538.5267 544.2426C 539.4227 545.1385 540.3187 546.0345 541.2147 546.9305L541.2147 546.9305L541.2147 732.3686L541.2147 732.3686L538.5267 735.0566L538.5267 735.0566L307.8517 735.0566z" stroke="#000000" stroke-width="0.5" fill="none" stroke-opacity="0.4980392" /></g></g></g><path id="2313" transform="matrix(1 0 0 -1 0 792)" d="M307.7478 531.0333L304.9138 528.1983L304.9138 362.0533L307.7478 359.2193L538.6298 359.2193L541.4638 362.0533L541.4638 528.1983L538.6298 531.0333z" stroke="none" fill="#EAEBEC" fill-rule="nonzero" /><path id="2314" transform="matrix(1 0 0 -1 0 792)" d="M311.083 443.14L535.296 443.14L535.296 468.644L311.083 468.644z" stroke="none" fill="#FFFEFE" fill-rule="nonzero" /><path id="2315" transform="matrix(1 0 0 -1 0 792)" d="M311.0827 468.6438L535.2957 468.6438" stroke="#939597" stroke-width="0.5" fill="none" /><path id="2316" transform="matrix(1 0 0 -1 0 792)" d="M311.0827 442.9095L534.7437 442.9095" stroke="#939597" stroke-width="0.5" fill="none" /><g clip-path="url(#10)"><g><g clip-path="url(#11)"><path id="2761" transform="matrix(1 0 0 -1 0 792)" d="M307.8517 530.7831C 306.9557 529.8871 306.0597 528.9911 305.1637 528.0951L305.1637 528.0951L305.1637 362.1571C 306.0597 361.2611 306.9557 360.3651 307.8517 359.4691L307.8517 359.4691L538.5267 359.4691C 539.4227 360.3651 540.3187 361.2611 541.2147 362.1571L541.2147 362.1571L541.2147 528.0951L541.2147 528.0951L538.5267 530.7831L538.5267 530.7831L307.8517 530.7831z" stroke="#000000" stroke-width="0.5" fill="none" stroke-opacity="0.4980392" /></g></g></g><path id="2762" transform="matrix(1 0 0 -1 0 792)" d="M307.7478 349.5762L304.9138 346.7412L304.9138 170.5972L307.7478 167.7622L538.6298 167.7622L541.4638 170.5972L541.4638 346.7412L538.6298 349.5762z" stroke="none" fill="#EAEBEC" fill-rule="nonzero" /><path id="2763" transform="matrix(1 0 0 -1 0 792)" d="M311.083 270.683L535.296 270.683L535.296 296.187L311.083 296.187z" stroke="none" fill="#FFFEFE" fill-rule="nonzero" /><path id="2764" transform="matrix(1 0 0 -1 0 792)" d="M311.0827 296.187L535.2957 296.187" stroke="#939597" stroke-width="0.5" fill="none" /><path id="2765" transform="matrix(1 0 0 -1 0 792)" d="M311.0827 270.4527L534.7437 270.4527" stroke="#939597" stroke-width="0.5" fill="none" /><g clip-path="url(#12)"><g><g clip-path="url(#13)"><path id="3316" transform="matrix(1 0 0 -1 0 792)" d="M307.8517 349.3262C 306.9557 348.4302 306.0597 347.5342 305.1637 346.6382L305.1637 346.6382L305.1637 170.7002C 306.0597 169.8042 306.9557 168.9082 307.8517 168.0122L307.8517 168.0122L538.5267 168.0122C 539.4227 168.9082 540.3187 169.8042 541.2147 170.7002L541.2147 170.7002L541.2147 346.6382C 540.3187 347.5342 539.4227 348.4302 538.5267 349.3262L538.5267 349.3262L307.8517 349.3262z" stroke="#000000" stroke-width="0.5" fill="none" stroke-opacity="0.4980392" /></g></g></g><g clip-path="url(#14)"><path id="3333" transform="matrix(1 0 0 -1 0 792)" d="M56.9448 32.702L56.9448 -12.691" stroke="#000000" stroke-width="0.75" stroke-linecap="round" stroke-dasharray="0.75,1.464" fill="none" /><path id="3334" transform="matrix(1 0 0 -1 0 792)" d="M56.9448 -13.7986L56.9448 -13.7986M56.9448 34.9164L56.9448 34.9164" stroke="#000000" stroke-width="0.75" stroke-linecap="round" fill="none" /></g></g></g></svg>