<svg xmlns="http://www.w3.org/2000/svg" xmlns:xlink="http://www.w3.org/1999/xlink" id="body_21" preserveAspectRatio="xMinYMin meet" viewBox="0 0 816 1056"><defs><clipPath id="1"><path id="" clip-rule="evenodd" transform="matrix(1 0 0 1 0 0)" d="M0 792L0 0L0 0L612 0L612 0L612 792L612 792L0 792z" /></clipPath><clipPath id="2"><path id="" clip-rule="evenodd" transform="matrix(1 0 0 1 0 0)" d="M0 0L612 0L612 0L612 792L612 792L0 792z" /></clipPath></defs><g transform="matrix(1.333333 0 0 1.333333 0 0)"><g clip-path="url(#1)"><path id="1" transform="matrix(1 0 0 -1 0 792)" d="M70.866 671.17L307.086 671.17L307.086 689.63L70.866 689.63z" stroke="none" fill="#EAEBEC" fill-rule="nonzero" /><path id="2" transform="matrix(1 0 0 -1 0 792)" d="M75.1181 627.1408L75.1181 635.3058" stroke="#BBBDC0" stroke-width="8" fill="none" /><path id="3" transform="matrix(1 0 0 -1 0 792)" d="M75.1181 588.1329L75.1181 596.2979" stroke="#BBBDC0" stroke-width="8" fill="none" /><path id="4" transform="matrix(1 0 0 -1 0 792)" d="M75.1181 477.4558L75.1181 485.6208" stroke="#BBBDC0" stroke-width="8" fill="none" /><path id="5" transform="matrix(1 0 0 -1 0 792)" d="M75.1181 405.4479L75.1181 413.6129" stroke="#BBBDC0" stroke-width="8" fill="none" /><path id="6" transform="matrix(1 0 0 -1 0 792)" d="M70.866 318.666L307.086 318.666L307.086 337.126L70.866 337.126z" stroke="none" fill="#EAEBEC" fill-rule="nonzero" /><path id="7" transform="matrix(1 0 0 -1 0 792)" d="M75.1181 274.6369L75.1181 282.8019" stroke="#BBBDC0" stroke-width="8" fill="none" /><path id="8" transform="matrix(1 0 0 -1 0 792)" d="M75.1181 235.629L75.1181 243.794" stroke="#BBBDC0" stroke-width="8" fill="none" /><path id="9" transform="matrix(1 0 0 -1 0 792)" d="M75.1181 135.9518L75.1181 144.1168" stroke="#BBBDC0" stroke-width="8" fill="none" /><path id="1395" transform="matrix(1 0 0 -1 0 792)" d="M323.3386 727.1418L323.3386 735.3068" stroke="#BBBDC0" stroke-width="8" fill="none" /><path id="1396" transform="matrix(1 0 0 -1 0 792)" d="M319.087 341.569L555.307 341.569L555.307 651.961L319.087 651.961z" stroke="none" fill="#F0F1F1" fill-rule="nonzero" /><path id="1397" transform="matrix(1 0 0 -1 0 792)" d="M555.3071 341.5687L319.0871 341.5687" stroke="#939597" stroke-width="1" fill="none" /><path id="1398" transform="matrix(1 0 0 -1 0 792)" d="M319.0866 651.9607L555.3066 651.9607" stroke="#939597" stroke-width="1" fill="none" /><g clip-path="url(#2)"><path id="2163" transform="matrix(1 0 0 -1 0 792)" d="M555.6614 32.702L555.6614 -12.691" stroke="#000000" stroke-width="0.75" stroke-linecap="round" stroke-dasharray="0.75,1.464" fill="none" /><path id="2164" transform="matrix(1 0 0 -1 0 792)" d="M555.6614 -13.7986L555.6614 -13.7986M555.6614 34.9164L555.6614 34.9164" stroke="#000000" stroke-width="0.75" stroke-linecap="round" fill="none" /></g></g></g></svg>