<svg xmlns="http://www.w3.org/2000/svg" xmlns:xlink="http://www.w3.org/1999/xlink" id="body_36" preserveAspectRatio="xMinYMin meet" viewBox="0 0 816 1056"><defs><clipPath id="1"><path id="" clip-rule="evenodd" transform="matrix(1 0 0 1 0 0)" d="M0 792L0 0L0 0L612 0L612 0L612 792L612 792L0 792z" /></clipPath><clipPath id="2"><path id="" clip-rule="evenodd" transform="matrix(1 0 0 1 0 0)" d="M0 0L612 0L612 0L612 792L612 792L0 792z" /></clipPath></defs><g transform="matrix(1.333333 0 0 1.333333 0 0)"><g clip-path="url(#1)"><path id="1" transform="matrix(1 0 0 -1 0 792)" d="M56.693 435.913L292.913 435.913L292.913 577.59L56.693 577.59z" stroke="none" fill="#F0F1F1" fill-rule="nonzero" /><path id="2" transform="matrix(1 0 0 -1 0 792)" d="M292.9134 435.9129L56.69339 435.9129" stroke="#6D6E70" stroke-width="1" fill="none" /><path id="3" transform="matrix(1 0 0 -1 0 792)" d="M56.6929 577.5901L292.9129 577.5901" stroke="#6D6E70" stroke-width="1" fill="none" /><path id="1885" transform="matrix(1 0 0 -1 0 792)" d="M305.622 552.8032L305.622 561.8032" stroke="#6D6E70" stroke-width="1" fill="none" /><path id="1886" transform="matrix(1 0 0 -1 0 792)" d="M309.1653 505.13L309.1653 513.295" stroke="#BBBDC0" stroke-width="8" fill="none" /><path id="1887" transform="matrix(1 0 0 -1 0 792)" d="M309.1653 379.6969L309.1653 387.8619" stroke="#BBBDC0" stroke-width="8" fill="none" /><path id="1888" transform="matrix(1 0 0 -1 0 792)" d="M309.1653 296.689L309.1653 304.854" stroke="#BBBDC0" stroke-width="8" fill="none" /><path id="1889" transform="matrix(1 0 0 -1 0 792)" d="M309.1653 202.6811L309.1653 210.8461" stroke="#BBBDC0" stroke-width="8" fill="none" /><path id="1890" transform="matrix(1 0 0 -1 0 792)" d="M305.622 112.0079L305.622 143.0079" stroke="#6D6E70" stroke-width="1" fill="none" /><g clip-path="url(#2)"><path id="3818" transform="matrix(1 0 0 -1 0 792)" d="M56.9448 32.702L56.9448 -12.691" stroke="#000000" stroke-width="0.75" stroke-linecap="round" stroke-dasharray="0.75,1.464" fill="none" /><path id="3819" transform="matrix(1 0 0 -1 0 792)" d="M56.9448 -13.7986L56.9448 -13.7986M56.9448 34.9164L56.9448 34.9164" stroke="#000000" stroke-width="0.75" stroke-linecap="round" fill="none" /></g></g></g></svg>