<svg xmlns="http://www.w3.org/2000/svg" xmlns:xlink="http://www.w3.org/1999/xlink" id="body_106" preserveAspectRatio="xMinYMin meet" viewBox="0 0 816 1056"><defs><clipPath id="1"><path id="" clip-rule="evenodd" transform="matrix(1 0 0 1 0 0)" d="M0 792L0 0L0 0L612 0L612 0L612 792L612 792L0 792z" /></clipPath><clipPath id="2"><path id="" clip-rule="evenodd" transform="matrix(1 0 0 1 0 0)" d="M56.693 379.929L293.244 379.929L293.244 379.929L293.244 56.69299L293.244 56.69299L56.693 56.69299z" /></clipPath><clipPath id="3"><path id="" clip-rule="evenodd" transform="matrix(1 0 0 1 0 0)" d="M56.693 379.929L293.244 379.929L293.244 379.929L293.244 56.69299L293.244 56.69299L56.693 56.69299z" /></clipPath><clipPath id="4"><path id="" clip-rule="evenodd" transform="matrix(1 0 0 1 0 0)" d="M47.6929 48.69299L302.244 48.69299L302.244 48.69299L302.244 382.887L302.244 382.887L47.6929 382.887z" /></clipPath><clipPath id="5"><path id="" clip-rule="evenodd" transform="matrix(1 0 0 1 0 0)" d="M304.914 577.659L541.465 577.659L541.465 577.659L541.465 93.91797L541.465 93.91797L304.914 93.91797z" /></clipPath><clipPath id="6"><path id="" clip-rule="evenodd" transform="matrix(1 0 0 1 0 0)" d="M304.914 577.659L541.465 577.659L541.465 577.659L541.465 93.91797L541.465 93.91797L304.914 93.91797z" /></clipPath><clipPath id="7"><path id="" clip-rule="evenodd" transform="matrix(1 0 0 1 0 0)" d="M295.913 85.91803L550.465 85.91803L550.465 85.91803L550.465 568.517L550.465 568.517L295.913 568.517z" /></clipPath><clipPath id="8"><path id="" clip-rule="evenodd" transform="matrix(1 0 0 1 0 0)" d="M0 0L612 0L612 0L612 792L612 792L0 792z" /></clipPath></defs><g transform="matrix(1.333333 0 0 1.333333 0 0)"><g clip-path="url(#1)"><g clip-path="url(#2)"><path id="1" transform="matrix(1 0 0 -1 0 792)" d="M63.112 629.164L286.825 629.164L286.825 672.668L63.112 672.668z" stroke="none" fill="#F5F5F6" fill-rule="nonzero" /><path id="2" transform="matrix(1 0 0 -1 0 792)" d="M63.1122 672.6678L286.8252 672.6678" stroke="#000000" stroke-width="0.5" fill="none" /><path id="3" transform="matrix(1 0 0 -1 0 792)" d="M63.1122 628.9336L286.7732 628.9336" stroke="#000000" stroke-width="0.5" fill="none" /></g><g clip-path="url(#3)"><g><g clip-path="url(#4)"><path id="1194" transform="matrix(1 0 0 -1 0 792)" d="M59.5275 734.9321C 58.1715 734.9321 57.0675 733.8291 57.0675 732.4721L57.0675 732.4721L57.0675 414.4061C 57.0675 413.0501 58.1715 411.9461 59.5275 411.9461L59.5275 411.9461L290.4095 411.9461C 291.7655 411.9461 292.8695 413.0501 292.8695 414.4061L292.8695 414.4061L292.8695 732.4721C 292.8695 733.8291 291.7655 734.9321 290.4095 734.9321L290.4095 734.9321L59.5275 734.9321z" stroke="#000000" stroke-width="0.75" fill="none" stroke-opacity="0.4980392" /></g></g></g><g clip-path="url(#5)"><path id="1228" transform="matrix(1 0 0 -1 0 792)" d="M311.333 591.939L535.046 591.939L535.046 626.4431L311.333 626.4431z" stroke="none" fill="#F5F5F6" fill-rule="nonzero" /><path id="1229" transform="matrix(1 0 0 -1 0 792)" d="M311.3327 626.4431L535.0457 626.4431" stroke="#000000" stroke-width="0.5" fill="none" /><path id="1230" transform="matrix(1 0 0 -1 0 792)" d="M311.3327 591.2089L534.9937 591.2089" stroke="#000000" stroke-width="0.5" fill="none" /></g><g clip-path="url(#6)"><g><g clip-path="url(#7)"><path id="3083" transform="matrix(1 0 0 -1 0 792)" d="M307.748 697.7074C 306.392 697.7074 305.288 696.6044 305.288 695.2474L305.288 695.2474L305.288 228.3574C 305.288 227.0004 306.392 225.8974 307.748 225.8974L307.748 225.8974L538.63 225.8974C 539.986 225.8974 541.09 227.0004 541.09 228.3574L541.09 228.3574L541.09 695.2474C 541.09 696.6044 539.986 697.7074 538.63 697.7074L538.63 697.7074L307.748 697.7074z" stroke="#000000" stroke-width="0.75" fill="none" stroke-opacity="0.4980392" /></g></g></g><g clip-path="url(#8)"><path id="3101" transform="matrix(1 0 0 -1 0 792)" d="M56.9448 32.702L56.9448 -12.691" stroke="#000000" stroke-width="0.75" stroke-linecap="round" stroke-dasharray="0.75,1.464" fill="none" /><path id="3102" transform="matrix(1 0 0 -1 0 792)" d="M56.9448 -13.7986L56.9448 -13.7986M56.9448 34.9164L56.9448 34.9164" stroke="#000000" stroke-width="0.75" stroke-linecap="round" fill="none" /></g></g></g></svg>