<svg xmlns="http://www.w3.org/2000/svg" xmlns:xlink="http://www.w3.org/1999/xlink" id="body_108" preserveAspectRatio="xMinYMin meet" viewBox="0 0 816 1056"><defs><clipPath id="1"><path id="" clip-rule="evenodd" transform="matrix(1 0 0 1 0 0)" d="M0 792L0 0L0 0L612 0L612 0L612 792L612 792L0 792z" /></clipPath><clipPath id="2"><path id="" clip-rule="evenodd" transform="matrix(1 0 0 1 0 0)" d="M56.693 529.515L293.244 529.515L293.244 529.515L293.244 56.69299L293.244 56.69299L56.693 56.69299z" /></clipPath><clipPath id="3"><path id="" clip-rule="evenodd" transform="matrix(1 0 0 1 0 0)" d="M56.693 529.515L293.244 529.515L293.244 529.515L293.244 56.69299L293.244 56.69299L56.693 56.69299z" /></clipPath><clipPath id="4"><path id="" clip-rule="evenodd" transform="matrix(1 0 0 1 0 0)" d="M47.6929 48.69299L302.244 48.69299L302.244 48.69299L302.244 532.473L302.244 532.473L47.6929 532.473z" /></clipPath><clipPath id="5"><path id="" clip-rule="evenodd" transform="matrix(1 0 0 1 0 0)" d="M304.914 643.333L541.465 643.333L541.465 643.333L541.465 92.17603L541.465 92.17603L304.914 92.17603z" /></clipPath><clipPath id="6"><path id="" clip-rule="evenodd" transform="matrix(1 0 0 1 0 0)" d="M304.914 643.333L541.465 643.333L541.465 643.333L541.465 92.17603L541.465 92.17603L304.914 92.17603z" /></clipPath><clipPath id="7"><path id="" clip-rule="evenodd" transform="matrix(1 0 0 1 0 0)" d="M295.913 84.17499L550.465 84.17499L550.465 84.17499L550.465 645.919L550.465 645.919L295.913 645.919z" /></clipPath><clipPath id="8"><path id="" clip-rule="evenodd" transform="matrix(1 0 0 1 0 0)" d="M0 0L612 0L612 0L612 792L612 792L0 792z" /></clipPath></defs><g transform="matrix(1.333333 0 0 1.333333 0 0)"><g clip-path="url(#1)"><g clip-path="url(#2)"><path id="1" transform="matrix(1 0 0 -1 0 792)" d="M63.112 629.164L286.825 629.164L286.825 663.668L63.112 663.668z" stroke="none" fill="#F5F5F6" fill-rule="nonzero" /><path id="2" transform="matrix(1 0 0 -1 0 792)" d="M63.1122 663.6678L286.8252 663.6678" stroke="#000000" stroke-width="0.5" fill="none" /><path id="3" transform="matrix(1 0 0 -1 0 792)" d="M63.1122 628.9336L286.7732 628.9336" stroke="#000000" stroke-width="0.5" fill="none" /></g><g clip-path="url(#3)"><g><g clip-path="url(#4)"><path id="1986" transform="matrix(1 0 0 -1 0 792)" d="M59.5276 734.9321C 58.1716 734.9321 57.0676 733.8291 57.0676 732.4721L57.0676 732.4721L57.0676 264.8191C 57.0676 263.4631 58.1716 262.3601 59.5276 262.3601L59.5276 262.3601L290.4096 262.3601C 291.7656 262.3601 292.8696 263.4631 292.8696 264.8191L292.8696 264.8191L292.8696 732.4721C 292.8696 733.8291 291.7656 734.9321 290.4096 734.9321L290.4096 734.9321L59.5276 734.9321z" stroke="#000000" stroke-width="0.75" fill="none" stroke-opacity="0.4980392" /></g></g></g><g clip-path="url(#5)"><path id="2020" transform="matrix(1 0 0 -1 0 792)" d="M311.333 584.682L535.046 584.682L535.046 628.186L311.333 628.186z" stroke="none" fill="#F5F5F6" fill-rule="nonzero" /><path id="2021" transform="matrix(1 0 0 -1 0 792)" d="M311.3327 628.1858L535.0457 628.1858" stroke="#000000" stroke-width="0.5" fill="none" /><path id="2022" transform="matrix(1 0 0 -1 0 792)" d="M311.3327 584.4515L534.9937 584.4515" stroke="#000000" stroke-width="0.5" fill="none" /></g><g clip-path="url(#6)"><g><g clip-path="url(#7)"><path id="4271" transform="matrix(1 0 0 -1 0 792)" d="M307.748 699.4501C 306.392 699.4501 305.288 698.347 305.288 696.9901L305.288 696.9901L305.288 151.0031C 305.288 149.6461 306.392 148.5431 307.748 148.5431L307.748 148.5431L538.63 148.5431C 539.986 148.5431 541.09 149.6461 541.09 151.0031L541.09 151.0031L541.09 696.9901C 541.09 698.347 539.986 699.4501 538.63 699.4501L538.63 699.4501L307.748 699.4501z" stroke="#000000" stroke-width="0.75" fill="none" stroke-opacity="0.4980392" /></g></g></g><g clip-path="url(#8)"><path id="4289" transform="matrix(1 0 0 -1 0 792)" d="M56.9448 32.702L56.9448 -12.691" stroke="#000000" stroke-width="0.75" stroke-linecap="round" stroke-dasharray="0.75,1.464" fill="none" /><path id="4290" transform="matrix(1 0 0 -1 0 792)" d="M56.9448 -13.7986L56.9448 -13.7986M56.9448 34.9164L56.9448 34.9164" stroke="#000000" stroke-width="0.75" stroke-linecap="round" fill="none" /></g></g></g></svg>