<svg xmlns="http://www.w3.org/2000/svg" xmlns:xlink="http://www.w3.org/1999/xlink" id="body_81" preserveAspectRatio="xMinYMin meet" viewBox="0 0 816 1056"><defs><clipPath id="1"><path id="" clip-rule="evenodd" transform="matrix(1 0 0 1 0 0)" d="M0 792L0 0L0 0L612 0L612 0L612 792L612 792L0 792z" /></clipPath><clipPath id="2"><path id="" clip-rule="evenodd" transform="matrix(1 0 0 1 0 0)" d="M70.866 321.511L307.418 321.511L307.418 321.511L307.418 56.69202L307.418 56.69202L70.866 56.69202z" /></clipPath><clipPath id="3"><path id="" clip-rule="evenodd" transform="matrix(1 0 0 1 0 0)" d="M61.8662 48.69299L316.417 48.69299L316.417 48.69299L316.417 324.219L316.417 324.219L61.8662 324.219z" /></clipPath><clipPath id="4"><path id="" clip-rule="evenodd" transform="matrix(1 0 0 1 0 0)" d="M70.866 510.07L307.418 510.07L307.418 510.07L307.418 331.487L307.418 331.487L70.866 331.487z" /></clipPath><clipPath id="5"><path id="" clip-rule="evenodd" transform="matrix(1 0 0 1 0 0)" d="M61.8662 323.788L316.417 323.788L316.417 323.788L316.417 502.479L316.417 502.479L61.8662 502.479z" /></clipPath><clipPath id="6"><path id="" clip-rule="evenodd" transform="matrix(1 0 0 1 0 0)" d="M70.866 687.821L307.418 687.821L307.418 687.821L307.418 509.238L307.418 509.238L70.866 509.238z" /></clipPath><clipPath id="7"><path id="" clip-rule="evenodd" transform="matrix(1 0 0 1 0 0)" d="M61.8662 502.04L316.417 502.04L316.417 502.04L316.417 690.232L316.417 690.232L61.8662 690.232z" /></clipPath><clipPath id="8"><path id="" clip-rule="evenodd" transform="matrix(1 0 0 1 0 0)" d="M319.087 251.008L555.638 251.008L555.638 251.008L555.638 56.69299L555.638 56.69299L319.087 56.69299z" /></clipPath><clipPath id="9"><path id="" clip-rule="evenodd" transform="matrix(1 0 0 1 0 0)" d="M310.087 48.69299L564.638 48.69299L564.638 48.69299L564.638 250.716L564.638 250.716L310.087 250.716z" /></clipPath><clipPath id="10"><path id="" clip-rule="evenodd" transform="matrix(1 0 0 1 0 0)" d="M319.087 432.781L555.638 432.781L555.638 432.781L555.638 260.966L555.638 260.966L319.087 260.966z" /></clipPath><clipPath id="11"><path id="" clip-rule="evenodd" transform="matrix(1 0 0 1 0 0)" d="M310.087 252.967L564.638 252.967L564.638 252.967L564.638 435.489L564.638 435.489L310.087 435.489z" /></clipPath><clipPath id="12"><path id="" clip-rule="evenodd" transform="matrix(1 0 0 1 0 0)" d="M319.087 638.239L555.638 638.239L555.638 638.239L555.638 442.424L555.638 442.424L319.087 442.424z" /></clipPath><clipPath id="13"><path id="" clip-rule="evenodd" transform="matrix(1 0 0 1 0 0)" d="M310.087 434.424L564.638 434.424L564.638 434.424L564.638 626.946L564.638 626.946L310.087 626.946z" /></clipPath><clipPath id="14"><path id="" clip-rule="evenodd" transform="matrix(1 0 0 1 0 0)" d="M0 0L612 0L612 0L612 792L612 792L0 792z" /></clipPath></defs><g transform="matrix(1.333333 0 0 1.333333 0 0)"><g clip-path="url(#1)"><path id="1" transform="matrix(1 0 0 -1 0 792)" d="M73.701 735.3072L70.866 732.4722L70.866 473.3232L73.701 470.4882L304.583 470.4882L307.418 473.3232L307.418 732.4722L304.583 735.3072z" stroke="none" fill="#EAEBEC" fill-rule="nonzero" /><path id="2" transform="matrix(1 0 0 -1 0 792)" d="M77.035 638.414L301.248 638.414L301.248 663.918L77.035 663.918z" stroke="none" fill="#FFFEFE" fill-rule="nonzero" /><path id="3" transform="matrix(1 0 0 -1 0 792)" d="M77.0355 663.9178L301.2485 663.9178" stroke="#939597" stroke-width="0.5" fill="none" /><path id="4" transform="matrix(1 0 0 -1 0 792)" d="M77.035 623.745L301.248 623.745L301.248 643.084L77.035 643.084z" stroke="none" fill="#FFFEFE" fill-rule="nonzero" /><path id="5" transform="matrix(1 0 0 -1 0 792)" d="M78.0546 638.8312L300.7386 638.8312" stroke="#BBBDC0" stroke-width="0.51" stroke-linecap="round" stroke-dasharray="0.51,0.51" fill="none" /><path id="6" transform="matrix(1 0 0 -1 0 792)" d="M301.2485 638.8312L301.2485 638.8312M77.0355 638.8312L77.0355 638.8312" stroke="#BBBDC0" stroke-width="0.51" stroke-linecap="round" fill="none" /><path id="7" transform="matrix(1 0 0 -1 0 792)" d="M77.0355 623.5143L300.6965 623.5143" stroke="#939597" stroke-width="0.5" fill="none" /><g clip-path="url(#2)"><g><g clip-path="url(#3)"><path id="803" transform="matrix(1 0 0 -1 0 792)" d="M73.8044 735.0571C 72.90839 734.1611 72.0124 733.2651 71.11639 732.3691L71.11639 732.3691L71.11639 473.4271L71.11639 473.4271L73.8044 470.7391L73.8044 470.7391L304.4794 470.7391C 305.3754 471.6351 306.2714 472.5311 307.1674 473.4271L307.1674 473.4271L307.1674 732.3691C 306.2714 733.2651 305.3754 734.1611 304.4794 735.0571L304.4794 735.0571L73.8044 735.0571z" stroke="#000000" stroke-width="0.5" fill="none" stroke-opacity="0.4980392" /></g></g></g><path id="804" transform="matrix(1 0 0 -1 0 792)" d="M73.701 460.2123L70.866 457.3773L70.866 295.0633L73.701 292.2283L304.583 292.2283L307.418 295.0633L307.418 457.3773L304.583 460.2123z" stroke="none" fill="#EAEBEC" fill-rule="nonzero" /><path id="805" transform="matrix(1 0 0 -1 0 792)" d="M77.035 381.319L301.248 381.319L301.248 406.823L77.035 406.823z" stroke="none" fill="#FFFEFE" fill-rule="nonzero" /><path id="806" transform="matrix(1 0 0 -1 0 792)" d="M77.0355 406.823L301.2485 406.823" stroke="#939597" stroke-width="0.5" fill="none" /><path id="807" transform="matrix(1 0 0 -1 0 792)" d="M77.035 366.65L301.248 366.65L301.248 385.989L77.035 385.989z" stroke="none" fill="#FFFEFE" fill-rule="nonzero" /><path id="808" transform="matrix(1 0 0 -1 0 792)" d="M78.0546 381.7364L300.7386 381.7364" stroke="#BBBDC0" stroke-width="0.51" stroke-linecap="round" stroke-dasharray="0.51,0.51" fill="none" /><path id="809" transform="matrix(1 0 0 -1 0 792)" d="M301.2485 381.7364L301.2485 381.7364M77.0355 381.7364L77.0355 381.7364" stroke="#BBBDC0" stroke-width="0.51" stroke-linecap="round" fill="none" /><path id="810" transform="matrix(1 0 0 -1 0 792)" d="M77.0355 366.4195L300.6965 366.4195" stroke="#939597" stroke-width="0.5" fill="none" /><g clip-path="url(#4)"><g><g clip-path="url(#5)"><path id="1235" transform="matrix(1 0 0 -1 0 792)" d="M73.8044 459.9623C 72.90839 459.0663 72.0124 458.1703 71.11639 457.2743L71.11639 457.2743L71.11639 295.1663C 72.0124 294.2703 72.90839 293.3743 73.8044 292.4783L73.8044 292.4783L304.4794 292.4783L304.4794 292.4783L307.1674 295.1663L307.1674 295.1663L307.1674 457.2743C 306.2714 458.1703 305.3754 459.0663 304.4794 459.9623L304.4794 459.9623L73.8044 459.9623z" stroke="#000000" stroke-width="0.5" fill="none" stroke-opacity="0.4980392" /></g></g></g><path id="1236" transform="matrix(1 0 0 -1 0 792)" d="M73.701 281.9601L70.866 279.1251L70.866 107.3101L73.701 104.4761L304.583 104.4761L307.418 107.3101L307.418 279.1251L304.583 281.9601z" stroke="none" fill="#EAEBEC" fill-rule="nonzero" /><path id="1237" transform="matrix(1 0 0 -1 0 792)" d="M77.035 203.067L301.248 203.067L301.248 228.571L77.035 228.571z" stroke="none" fill="#FFFEFE" fill-rule="nonzero" /><path id="1238" transform="matrix(1 0 0 -1 0 792)" d="M77.0355 228.5709L301.2485 228.5709" stroke="#939597" stroke-width="0.5" fill="none" /><path id="1239" transform="matrix(1 0 0 -1 0 792)" d="M77.035 188.398L301.248 188.398L301.248 207.737L77.035 207.737z" stroke="none" fill="#FFFEFE" fill-rule="nonzero" /><path id="1240" transform="matrix(1 0 0 -1 0 792)" d="M78.0546 203.4843L300.7386 203.4843" stroke="#BBBDC0" stroke-width="0.51" stroke-linecap="round" stroke-dasharray="0.51,0.51" fill="none" /><path id="1241" transform="matrix(1 0 0 -1 0 792)" d="M301.2485 203.4843L301.2485 203.4843M77.0355 203.4843L77.0355 203.4843" stroke="#BBBDC0" stroke-width="0.51" stroke-linecap="round" fill="none" /><path id="1242" transform="matrix(1 0 0 -1 0 792)" d="M77.0355 188.1673L300.6965 188.1673" stroke="#939597" stroke-width="0.5" fill="none" /><g clip-path="url(#6)"><g><g clip-path="url(#7)"><path id="1750" transform="matrix(1 0 0 -1 0 792)" d="M73.8044 281.7101C 72.90839 280.8141 72.0124 279.9181 71.11639 279.0221L71.11639 279.0221L71.11639 107.4141L71.11639 107.4141L73.8044 104.7261L73.8044 104.7261L304.4794 104.7261C 305.3754 105.6221 306.2714 106.5181 307.1674 107.4141L307.1674 107.4141L307.1674 279.0221C 306.2714 279.9181 305.3754 280.8141 304.4794 281.7101L304.4794 281.7101L73.8044 281.7101z" stroke="#000000" stroke-width="0.5" fill="none" stroke-opacity="0.4980392" /></g></g></g><path id="1751" transform="matrix(1 0 0 -1 0 792)" d="M321.921 735.3063L319.087 732.4723L319.087 546.8263L321.921 543.9923L552.803 543.9923L555.637 546.8263L555.637 732.4723L552.803 735.3063z" stroke="none" fill="#EAEBEC" fill-rule="nonzero" /><path id="1752" transform="matrix(1 0 0 -1 0 792)" d="M325.256 656.413L549.469 656.413L549.469 681.9171L325.256 681.9171z" stroke="none" fill="#FFFEFE" fill-rule="nonzero" /><path id="1753" transform="matrix(1 0 0 -1 0 792)" d="M325.256 681.9174L549.469 681.9174" stroke="#939597" stroke-width="0.5" fill="none" /><path id="1754" transform="matrix(1 0 0 -1 0 792)" d="M325.256 656.1831L548.917 656.1831" stroke="#939597" stroke-width="0.5" fill="none" /><g clip-path="url(#8)"><g><g clip-path="url(#9)"><path id="2312" transform="matrix(1 0 0 -1 0 792)" d="M322.0249 735.0566C 321.1289 734.1606 320.2329 733.2646 319.3369 732.3686L319.3369 732.3686L319.3369 546.9305C 320.2329 546.0345 321.1289 545.1385 322.0249 544.2426L322.0249 544.2426L552.6999 544.2426C 553.5959 545.1385 554.4919 546.0345 555.3879 546.9305L555.3879 546.9305L555.3879 732.3686L555.3879 732.3686L552.6999 735.0566L552.6999 735.0566L322.0249 735.0566z" stroke="#000000" stroke-width="0.5" fill="none" stroke-opacity="0.4980392" /></g></g></g><path id="2313" transform="matrix(1 0 0 -1 0 792)" d="M321.921 531.0333L319.087 528.1983L319.087 362.0533L321.921 359.2183L552.803 359.2183L555.637 362.0533L555.637 528.1983L552.803 531.0333z" stroke="none" fill="#EAEBEC" fill-rule="nonzero" /><path id="2314" transform="matrix(1 0 0 -1 0 792)" d="M325.256 443.14L549.469 443.14L549.469 468.644L325.256 468.644z" stroke="none" fill="#FFFEFE" fill-rule="nonzero" /><path id="2315" transform="matrix(1 0 0 -1 0 792)" d="M325.256 468.6438L549.469 468.6438" stroke="#939597" stroke-width="0.5" fill="none" /><path id="2316" transform="matrix(1 0 0 -1 0 792)" d="M325.256 442.9095L548.917 442.9095" stroke="#939597" stroke-width="0.5" fill="none" /><g clip-path="url(#10)"><g><g clip-path="url(#11)"><path id="2761" transform="matrix(1 0 0 -1 0 792)" d="M322.0249 530.7831C 321.1289 529.8871 320.2329 528.9911 319.3369 528.0951L319.3369 528.0951L319.3369 362.1571C 320.2329 361.2611 321.1289 360.3651 322.0249 359.4691L322.0249 359.4691L552.6999 359.4691C 553.5959 360.3651 554.4919 361.2611 555.3879 362.1571L555.3879 362.1571L555.3879 528.0951L555.3879 528.0951L552.6999 530.7831L552.6999 530.7831L322.0249 530.7831z" stroke="#000000" stroke-width="0.5" fill="none" stroke-opacity="0.4980392" /></g></g></g><path id="2762" transform="matrix(1 0 0 -1 0 792)" d="M321.921 349.5762L319.087 346.7412L319.087 170.5972L321.921 167.7622L552.803 167.7622L555.637 170.5972L555.637 346.7412L552.803 349.5762z" stroke="none" fill="#EAEBEC" fill-rule="nonzero" /><path id="2763" transform="matrix(1 0 0 -1 0 792)" d="M325.256 270.683L549.469 270.683L549.469 296.187L325.256 296.187z" stroke="none" fill="#FFFEFE" fill-rule="nonzero" /><path id="2764" transform="matrix(1 0 0 -1 0 792)" d="M325.256 296.187L549.469 296.187" stroke="#939597" stroke-width="0.5" fill="none" /><path id="2765" transform="matrix(1 0 0 -1 0 792)" d="M325.256 270.4527L548.917 270.4527" stroke="#939597" stroke-width="0.5" fill="none" /><g clip-path="url(#12)"><g><g clip-path="url(#13)"><path id="3316" transform="matrix(1 0 0 -1 0 792)" d="M322.0249 349.3262C 321.1289 348.4302 320.2329 347.5342 319.3369 346.6382L319.3369 346.6382L319.3369 170.7002C 320.2329 169.8042 321.1289 168.9082 322.0249 168.0122L322.0249 168.0122L552.6999 168.0122C 553.5959 168.9082 554.4919 169.8042 555.3879 170.7002L555.3879 170.7002L555.3879 346.6382C 554.4919 347.5342 553.5959 348.4302 552.6999 349.3262L552.6999 349.3262L322.0249 349.3262z" stroke="#000000" stroke-width="0.5" fill="none" stroke-opacity="0.4980392" /></g></g></g><g clip-path="url(#14)"><path id="3333" transform="matrix(1 0 0 -1 0 792)" d="M555.6614 32.702L555.6614 -12.691" stroke="#000000" stroke-width="0.75" stroke-linecap="round" stroke-dasharray="0.75,1.464" fill="none" /><path id="3334" transform="matrix(1 0 0 -1 0 792)" d="M555.6614 -13.7986L555.6614 -13.7986M555.6614 34.9164L555.6614 34.9164" stroke="#000000" stroke-width="0.75" stroke-linecap="round" fill="none" /></g></g></g></svg>