<svg xmlns="http://www.w3.org/2000/svg" xmlns:xlink="http://www.w3.org/1999/xlink" id="body_133" preserveAspectRatio="xMinYMin meet" viewBox="0 0 816 1056"><defs><clipPath id="1"><path id="" clip-rule="evenodd" transform="matrix(1 0 0 1 0 0)" d="M0 792L0 0L0 0L612 0L612 0L612 792L612 792L0 792z" /></clipPath><clipPath id="2"><path id="" clip-rule="evenodd" transform="matrix(1 0 0 1 0 0)" d="M0 0L612 0L612 0L612 792L612 792L0 792z" /></clipPath></defs><g transform="matrix(1.333333 0 0 1.333333 0 0)"><g clip-path="url(#1)"><path id="1" transform="matrix(1 0 0 -1 0 792)" d="M75.0974 727.1418L75.0974 735.3068" stroke="#000000" stroke-width="8" fill="none" /><path id="2" transform="matrix(1 0 0 -1 0 792)" d="M75.0974 645.6379L75.0974 653.8029" stroke="#000000" stroke-width="8" fill="none" /><path id="3" transform="matrix(1 0 0 -1 0 792)" d="M75.0974 508.4646L75.0974 516.6296" stroke="#000000" stroke-width="8" fill="none" /><path id="4" transform="matrix(1 0 0 -1 0 792)" d="M75.0974 396.9607L75.0974 405.1257" stroke="#000000" stroke-width="8" fill="none" /><path id="5" transform="matrix(1 0 0 -1 0 792)" d="M75.0974 335.4568L75.0974 343.6218" stroke="#000000" stroke-width="8" fill="none" /><path id="6" transform="matrix(1 0 0 -1 0 792)" d="M75.0974 227.2835L75.0974 235.4485" stroke="#000000" stroke-width="8" fill="none" /><path id="1794" transform="matrix(1 0 0 -1 0 792)" d="M323.3179 727.1418L323.3179 735.3068" stroke="#000000" stroke-width="8" fill="none" /><path id="1795" transform="matrix(1 0 0 -1 0 792)" d="M323.3179 602.8032L323.3179 610.9682" stroke="#000000" stroke-width="8" fill="none" /><path id="1796" transform="matrix(1 0 0 -1 0 792)" d="M323.3179 508.4646L323.3179 516.6296" stroke="#000000" stroke-width="8" fill="none" /><path id="1797" transform="matrix(1 0 0 -1 0 792)" d="M323.3179 426.9607L323.3179 435.1257" stroke="#000000" stroke-width="8" fill="none" /><path id="1798" transform="matrix(1 0 0 -1 0 792)" d="M323.3179 345.4568L323.3179 353.6218" stroke="#000000" stroke-width="8" fill="none" /><g clip-path="url(#2)"><path id="3239" transform="matrix(1 0 0 -1 0 792)" d="M555.6614 32.702L555.6614 -12.691" stroke="#000000" stroke-width="0.75" stroke-linecap="round" stroke-dasharray="0.75,1.464" fill="none" /><path id="3240" transform="matrix(1 0 0 -1 0 792)" d="M555.6614 -13.7986L555.6614 -13.7986M555.6614 34.9164L555.6614 34.9164" stroke="#000000" stroke-width="0.75" stroke-linecap="round" fill="none" /></g></g></g></svg>