<svg xmlns="http://www.w3.org/2000/svg" xmlns:xlink="http://www.w3.org/1999/xlink" id="body_83" preserveAspectRatio="xMinYMin meet" viewBox="0 0 816 1056"><defs><clipPath id="1"><path id="" clip-rule="evenodd" transform="matrix(1 0 0 1 0 0)" d="M0 792L0 0L0 0L612 0L612 0L612 792L612 792L0 792z" /></clipPath><clipPath id="2"><path id="" clip-rule="evenodd" transform="matrix(1 0 0 1 0 0)" d="M65.867 296.923L302.418 296.923L302.418 296.923L302.418 56.69202L302.418 56.69202L65.867 56.69202z" /></clipPath><clipPath id="3"><path id="" clip-rule="evenodd" transform="matrix(1 0 0 1 0 0)" d="M56.8662 48.69202L311.417 48.69202L311.417 48.69202L311.417 299.631L311.417 299.631L56.8662 299.631z" /></clipPath><clipPath id="4"><path id="" clip-rule="evenodd" transform="matrix(1 0 0 1 0 0)" d="M65.867 502.74L302.418 502.74L302.418 502.74L302.418 307.149L302.418 307.149L65.867 307.149z" /></clipPath><clipPath id="5"><path id="" clip-rule="evenodd" transform="matrix(1 0 0 1 0 0)" d="M56.8661 299.66L311.417 299.66L311.417 299.66L311.417 503.6L311.417 503.6L56.8661 503.6z" /></clipPath><clipPath id="6"><path id="" clip-rule="evenodd" transform="matrix(1 0 0 1 0 0)" d="M65.867 718.787L302.418 718.787L302.418 718.787L302.418 511.386L302.418 511.386L65.867 511.386z" /></clipPath><clipPath id="7"><path id="" clip-rule="evenodd" transform="matrix(1 0 0 1 0 0)" d="M56.8662 503.385L311.417 503.385L311.417 503.385L311.417 721.4945L311.417 721.4945L56.8662 721.4945z" /></clipPath><clipPath id="8"><path id="" clip-rule="evenodd" transform="matrix(1 0 0 1 0 0)" d="M314.087 283.094L550.638 283.094L550.638 283.094L550.638 56.69299L550.638 56.69299L314.087 56.69299z" /></clipPath><clipPath id="9"><path id="" clip-rule="evenodd" transform="matrix(1 0 0 1 0 0)" d="M305.087 48.69299L559.638 48.69299L559.638 48.69299L559.638 285.802L559.638 285.802L305.087 285.802z" /></clipPath><clipPath id="10"><path id="" clip-rule="evenodd" transform="matrix(1 0 0 1 0 0)" d="M314.087 531.277L550.638 531.277L550.638 531.277L550.638 293.168L550.638 293.168L314.087 293.168z" /></clipPath><clipPath id="11"><path id="" clip-rule="evenodd" transform="matrix(1 0 0 1 0 0)" d="M305.087 285.563L559.638 285.563L559.638 285.563L559.638 533.09L559.638 533.09L305.087 533.09z" /></clipPath><clipPath id="12"><path id="" clip-rule="evenodd" transform="matrix(1 0 0 1 0 0)" d="M314.087 733.834L550.638 733.834L550.638 733.834L550.638 542.521L550.638 542.521L314.087 542.521z" /></clipPath><clipPath id="13"><path id="" clip-rule="evenodd" transform="matrix(1 0 0 1 0 0)" d="M305.087 534.521L559.638 534.521L559.638 534.521L559.638 736.543L559.638 736.543L305.087 736.543z" /></clipPath><clipPath id="14"><path id="" clip-rule="evenodd" transform="matrix(1 0 0 1 0 0)" d="M0 0L612 0L612 0L612 792L612 792L0 792z" /></clipPath></defs><g transform="matrix(1.333333 0 0 1.333333 0 0)"><g clip-path="url(#1)"><path id="1" transform="matrix(1 0 0 -1 0 792)" d="M68.6997 735.3072L65.8667 732.4742L65.8667 497.9112L68.7007 495.0762L299.5827 495.0762L302.4167 497.9112L302.4167 732.4742L299.5837 735.3072z" stroke="none" fill="#EAEBEC" fill-rule="nonzero" /><path id="2" transform="matrix(1 0 0 -1 0 792)" d="M72.035 656.415L296.248 656.415L296.248 681.919L72.035 681.919z" stroke="none" fill="#FFFEFE" fill-rule="nonzero" /><path id="3" transform="matrix(1 0 0 -1 0 792)" d="M72.0355 681.9191L296.2485 681.9191" stroke="#939597" stroke-width="0.5" fill="none" /><path id="4" transform="matrix(1 0 0 -1 0 792)" d="M72.0355 656.1848L295.6965 656.1848" stroke="#939597" stroke-width="0.5" fill="none" /><g clip-path="url(#2)"><g><g clip-path="url(#3)"><path id="795" transform="matrix(1 0 0 -1 0 792)" d="M68.8044 735.0583C 67.90839 734.1623 67.0124 733.2663 66.11639 732.3703L66.11639 732.3703L66.11639 498.0143C 67.0124 497.1183 67.90839 496.2223 68.8044 495.3263L68.8044 495.3263L299.4794 495.3263C 300.3754 496.2223 301.2714 497.1183 302.1674 498.0143L302.1674 498.0143L302.1674 732.3703C 301.2714 733.2663 300.3754 734.1623 299.4794 735.0583L299.4794 735.0583L68.8044 735.0583z" stroke="#000000" stroke-width="0.5" fill="none" stroke-opacity="0.4980392" /></g></g></g><path id="796" transform="matrix(1 0 0 -1 0 792)" d="M68.7006 484.3404L65.8666 481.5054L65.8666 293.9424L68.7006 291.1084L299.5826 291.1084L302.4176 293.9424L302.4176 481.5054L299.5826 484.3404z" stroke="none" fill="#EAEBEC" fill-rule="nonzero" /><path id="797" transform="matrix(1 0 0 -1 0 792)" d="M72.035 405.447L296.248 405.447L296.248 430.951L72.035 430.951z" stroke="none" fill="#FFFEFE" fill-rule="nonzero" /><path id="798" transform="matrix(1 0 0 -1 0 792)" d="M72.0354 430.9509L296.2484 430.9509" stroke="#939597" stroke-width="0.5" fill="none" /><path id="799" transform="matrix(1 0 0 -1 0 792)" d="M72.0354 404.7166L295.6964 404.7166" stroke="#939597" stroke-width="0.5" fill="none" /><g clip-path="url(#4)"><g><g clip-path="url(#5)"><path id="1372" transform="matrix(1 0 0 -1 0 792)" d="M68.8043 484.0901C 67.90829 483.1941 67.0123 482.2981 66.11629 481.4021L66.11629 481.4021L66.11629 294.0461C 67.0123 293.1501 67.90829 292.2541 68.8043 291.3581L68.8043 291.3581L299.4793 291.3581L299.4793 291.3581L302.1673 294.0461L302.1673 294.0461L302.1673 481.4021L302.1673 481.4021L299.4793 484.0901L299.4793 484.0901L68.8043 484.0901z" stroke="#000000" stroke-width="0.5" fill="none" stroke-opacity="0.4980392" /></g></g></g><path id="1373" transform="matrix(1 0 0 -1 0 792)" d="M68.7006 280.6146L65.8666 277.7796L65.8666 76.0486L68.7006 73.21359L299.5826 73.21359L302.4176 76.0486L302.4176 277.7796L299.5826 280.6146z" stroke="none" fill="#EAEBEC" fill-rule="nonzero" /><path id="1374" transform="matrix(1 0 0 -1 0 792)" d="M72.035 201.721L296.248 201.721L296.248 227.225L72.035 227.225z" stroke="none" fill="#FFFEFE" fill-rule="nonzero" /><path id="1375" transform="matrix(1 0 0 -1 0 792)" d="M72.0355 227.2253L296.2485 227.2253" stroke="#939597" stroke-width="0.5" fill="none" /><path id="1376" transform="matrix(1 0 0 -1 0 792)" d="M72.035 187.052L296.248 187.052L296.248 206.391L72.035 206.391z" stroke="none" fill="#FFFEFE" fill-rule="nonzero" /><path id="1377" transform="matrix(1 0 0 -1 0 792)" d="M73.0546 202.1387L295.7386 202.1387" stroke="#BBBDC0" stroke-width="0.51" stroke-linecap="round" stroke-dasharray="0.51,0.51" fill="none" /><path id="1378" transform="matrix(1 0 0 -1 0 792)" d="M296.2485 202.1387L296.2485 202.1387M72.0355 202.1387L72.0355 202.1387" stroke="#BBBDC0" stroke-width="0.51" stroke-linecap="round" fill="none" /><path id="1379" transform="matrix(1 0 0 -1 0 792)" d="M72.0355 186.8218L295.6965 186.8218" stroke="#939597" stroke-width="0.5" fill="none" /><g clip-path="url(#6)"><g><g clip-path="url(#7)"><path id="2015" transform="matrix(1 0 0 -1 0 792)" d="M68.8044 280.3646C 67.90839 279.4686 67.0124 278.5726 66.11639 277.6766L66.11639 277.6766L66.11639 76.1516C 67.0124 75.2556 67.90839 74.35959 68.8044 73.46359L68.8044 73.46359L299.4794 73.46359L299.4794 73.46359L302.1674 76.1516L302.1674 76.1516L302.1674 277.6766L302.1674 277.6766L299.4794 280.3646L299.4794 280.3646L68.8044 280.3646z" stroke="#000000" stroke-width="0.5" fill="none" stroke-opacity="0.4980392" /></g></g></g><path id="2016" transform="matrix(1 0 0 -1 0 792)" d="M316.9215 735.3072L314.0865 732.4722L314.0865 511.7412L316.9215 508.9062L547.8035 508.9062L550.6375 511.7412L550.6375 732.4722L547.8035 735.3072z" stroke="none" fill="#EAEBEC" fill-rule="nonzero" /><path id="2017" transform="matrix(1 0 0 -1 0 792)" d="M320.256 656.414L544.469 656.414L544.469 681.918L320.256 681.918z" stroke="none" fill="#FFFEFE" fill-rule="nonzero" /><path id="2018" transform="matrix(1 0 0 -1 0 792)" d="M320.256 681.9179L544.469 681.9179" stroke="#939597" stroke-width="0.5" fill="none" /><path id="2019" transform="matrix(1 0 0 -1 0 792)" d="M320.256 641.745L544.469 641.745L544.469 661.084L320.256 661.084z" stroke="none" fill="#FFFEFE" fill-rule="nonzero" /><path id="2020" transform="matrix(1 0 0 -1 0 792)" d="M321.2751 656.8313L543.9591 656.8313" stroke="#BBBDC0" stroke-width="0.51" stroke-linecap="round" stroke-dasharray="0.51,0.51" fill="none" /><path id="2021" transform="matrix(1 0 0 -1 0 792)" d="M544.469 656.8313L544.469 656.8313M320.256 656.8313L320.256 656.8313" stroke="#BBBDC0" stroke-width="0.51" stroke-linecap="round" fill="none" /><path id="2022" transform="matrix(1 0 0 -1 0 792)" d="M320.256 641.5144L543.917 641.5144" stroke="#939597" stroke-width="0.5" fill="none" /><g clip-path="url(#8)"><g><g clip-path="url(#9)"><path id="2751" transform="matrix(1 0 0 -1 0 792)" d="M317.0249 735.0572C 316.1289 734.1612 315.2329 733.2652 314.3369 732.3692L314.3369 732.3692L314.3369 511.8442C 315.2329 510.9482 316.1289 510.0522 317.0249 509.1562L317.0249 509.1562L547.6999 509.1562C 548.5959 510.0522 549.4919 510.9482 550.3879 511.8442L550.3879 511.8442L550.3879 732.3692L550.3879 732.3692L547.6999 735.0572L547.6999 735.0572L317.0249 735.0572z" stroke="#000000" stroke-width="0.5" fill="none" stroke-opacity="0.4980392" /></g></g></g><path id="2752" transform="matrix(1 0 0 -1 0 792)" d="M316.9215 498.4362L314.0865 495.6022L314.0865 264.4532L316.9215 261.6182L547.8035 261.6182L550.6375 264.4532L550.6375 495.6022L547.8035 498.4362z" stroke="none" fill="#EAEBEC" fill-rule="nonzero" /><path id="2753" transform="matrix(1 0 0 -1 0 792)" d="M320.256 410.543L544.469 410.543L544.469 436.047L320.256 436.047z" stroke="none" fill="#FFFEFE" fill-rule="nonzero" /><path id="2754" transform="matrix(1 0 0 -1 0 792)" d="M320.256 436.0474L544.469 436.0474" stroke="#939597" stroke-width="0.5" fill="none" /><path id="2755" transform="matrix(1 0 0 -1 0 792)" d="M320.256 395.874L544.469 395.874L544.469 415.213L320.256 415.213z" stroke="none" fill="#FFFEFE" fill-rule="nonzero" /><path id="2756" transform="matrix(1 0 0 -1 0 792)" d="M321.2751 410.9608L543.9591 410.9608" stroke="#BBBDC0" stroke-width="0.51" stroke-linecap="round" stroke-dasharray="0.51,0.51" fill="none" /><path id="2757" transform="matrix(1 0 0 -1 0 792)" d="M544.469 410.9608L544.469 410.9608M320.256 410.9608L320.256 410.9608" stroke="#BBBDC0" stroke-width="0.51" stroke-linecap="round" fill="none" /><path id="2758" transform="matrix(1 0 0 -1 0 792)" d="M320.256 395.6438L543.917 395.6438" stroke="#939597" stroke-width="0.5" fill="none" /><g clip-path="url(#10)"><g><g clip-path="url(#11)"><path id="3537" transform="matrix(1 0 0 -1 0 792)" d="M317.0249 498.1867C 316.1289 497.2907 315.2329 496.3947 314.3369 495.4987L314.3369 495.4987L314.3369 264.5567C 315.2329 263.6607 316.1289 262.7647 317.0249 261.8687L317.0249 261.8687L547.6999 261.8687C 548.5959 262.7647 549.4919 263.6607 550.3879 264.5567L550.3879 264.5567L550.3879 495.4987C 549.4919 496.3947 548.5959 497.2907 547.6999 498.1867L547.6999 498.1867L317.0249 498.1867z" stroke="#000000" stroke-width="0.5" fill="none" stroke-opacity="0.4980392" /></g></g></g><path id="3538" transform="matrix(1 0 0 -1 0 792)" d="M316.9215 249.4791L314.0865 246.6451L314.0865 60.9991L316.9205 58.16609L547.8035 58.16609L550.6375 60.9991L550.6375 246.6451L547.8035 249.4791z" stroke="none" fill="#EAEBEC" fill-rule="nonzero" /><path id="3539" transform="matrix(1 0 0 -1 0 792)" d="M320.256 170.586L544.469 170.586L544.469 196.09L320.256 196.09z" stroke="none" fill="#FFFEFE" fill-rule="nonzero" /><path id="3540" transform="matrix(1 0 0 -1 0 792)" d="M320.256 196.0902L544.469 196.0902" stroke="#939597" stroke-width="0.5" fill="none" /><path id="3541" transform="matrix(1 0 0 -1 0 792)" d="M320.256 170.3559L543.917 170.3559" stroke="#939597" stroke-width="0.5" fill="none" /><g clip-path="url(#12)"><g><g clip-path="url(#13)"><path id="4096" transform="matrix(1 0 0 -1 0 792)" d="M317.0249 249.2295C 316.1289 248.3335 315.2329 247.4375 314.3369 246.5415L314.3369 246.5415L314.3369 61.1035C 315.2329 60.2075 316.1289 59.31151 317.0249 58.41551L317.0249 58.41551L547.6999 58.41551C 548.5959 59.31151 549.4919 60.2075 550.3879 61.1035L550.3879 61.1035L550.3879 246.5415C 549.4919 247.4375 548.5959 248.3335 547.6999 249.2295L547.6999 249.2295L317.0249 249.2295z" stroke="#000000" stroke-width="0.5" fill="none" stroke-opacity="0.4980392" /></g></g></g><g clip-path="url(#14)"><path id="4113" transform="matrix(1 0 0 -1 0 792)" d="M555.6614 32.702L555.6614 -12.691" stroke="#000000" stroke-width="0.75" stroke-linecap="round" stroke-dasharray="0.75,1.464" fill="none" /><path id="4114" transform="matrix(1 0 0 -1 0 792)" d="M555.6614 -13.7986L555.6614 -13.7986M555.6614 34.9164L555.6614 34.9164" stroke="#000000" stroke-width="0.75" stroke-linecap="round" fill="none" /></g></g></g></svg>