<svg xmlns="http://www.w3.org/2000/svg" xmlns:xlink="http://www.w3.org/1999/xlink" id="body_39" preserveAspectRatio="xMinYMin meet" viewBox="0 0 816 1056"><defs><clipPath id="1"><path id="" clip-rule="evenodd" transform="matrix(1 0 0 1 0 0)" d="M0 792L0 0L0 0L612 0L612 0L612 792L612 792L0 792z" /></clipPath><clipPath id="2"><path id="" clip-rule="evenodd" transform="matrix(1 0 0 1 0 0)" d="M0 0L612 0L612 0L612 792L612 792L0 792z" /></clipPath></defs><g transform="matrix(1.333333 0 0 1.333333 0 0)"><g clip-path="url(#1)"><path id="1" transform="matrix(1 0 0 -1 0 792)" d="M71.5748 558.3381L71.5748 578.3381" stroke="#6D6E70" stroke-width="1" fill="none" /><path id="2" transform="matrix(1 0 0 -1 0 792)" d="M70.866 156.551L307.086 156.551L307.086 210.228L70.866 210.228z" stroke="none" fill="#F0F1F1" fill-rule="nonzero" /><path id="3" transform="matrix(1 0 0 -1 0 792)" d="M307.0866 156.5506L70.86661 156.5506" stroke="#6D6E70" stroke-width="1" fill="none" /><path id="4" transform="matrix(1 0 0 -1 0 792)" d="M70.8661 210.2278L307.0861 210.2278" stroke="#6D6E70" stroke-width="1" fill="none" /><path id="1548" transform="matrix(1 0 0 -1 0 792)" d="M323.3386 485.0822L323.3386 493.2472" stroke="#BBBDC0" stroke-width="8" fill="none" /><path id="1549" transform="matrix(1 0 0 -1 0 792)" d="M323.3386 402.0743L323.3386 410.2393" stroke="#BBBDC0" stroke-width="8" fill="none" /><path id="1550" transform="matrix(1 0 0 -1 0 792)" d="M319.7953 283.7318L319.7953 303.7318" stroke="#6D6E70" stroke-width="1" fill="none" /><path id="1551" transform="matrix(1 0 0 -1 0 792)" d="M323.3386 175.3893L323.3386 183.5543" stroke="#BBBDC0" stroke-width="8" fill="none" /><g clip-path="url(#2)"><path id="3513" transform="matrix(1 0 0 -1 0 792)" d="M555.6614 32.702L555.6614 -12.691" stroke="#000000" stroke-width="0.75" stroke-linecap="round" stroke-dasharray="0.75,1.464" fill="none" /><path id="3514" transform="matrix(1 0 0 -1 0 792)" d="M555.6614 -13.7986L555.6614 -13.7986M555.6614 34.9164L555.6614 34.9164" stroke="#000000" stroke-width="0.75" stroke-linecap="round" fill="none" /></g></g></g></svg>