<svg xmlns="http://www.w3.org/2000/svg" xmlns:xlink="http://www.w3.org/1999/xlink" id="body_78" preserveAspectRatio="xMinYMin meet" viewBox="0 0 816 1056"><defs><clipPath id="1"><path id="" clip-rule="evenodd" transform="matrix(1 0 0 1 0 0)" d="M0 792L0 0L0 0L612 0L612 0L612 792L612 792L0 792z" /></clipPath><clipPath id="2"><path id="" clip-rule="evenodd" transform="matrix(1 0 0 1 0 0)" d="M56.693 262.176L293.244 262.176L293.244 262.176L293.244 56.69202L293.244 56.69202L56.693 56.69202z" /></clipPath><clipPath id="3"><path id="" clip-rule="evenodd" transform="matrix(1 0 0 1 0 0)" d="M47.693 48.69299L302.244 48.69299L302.244 48.69299L302.244 264.621L302.244 264.621L47.693 264.621z" /></clipPath><clipPath id="4"><path id="" clip-rule="evenodd" transform="matrix(1 0 0 1 0 0)" d="M56.693 508.946L293.244 508.946L293.244 508.946L293.244 275.38L293.244 275.38L56.693 275.38z" /></clipPath><clipPath id="5"><path id="" clip-rule="evenodd" transform="matrix(1 0 0 1 0 0)" d="M47.693 267.38L302.244 267.38L302.244 267.38L302.244 511.654L302.244 511.654L47.693 511.654z" /></clipPath><clipPath id="6"><path id="" clip-rule="evenodd" transform="matrix(1 0 0 1 0 0)" d="M304.914 337.323L541.465 337.323L541.465 337.323L541.465 56.69299L541.465 56.69299L304.914 56.69299z" /></clipPath><clipPath id="7"><path id="" clip-rule="evenodd" transform="matrix(1 0 0 1 0 0)" d="M295.913 48.47498L550.465 48.47498L550.465 48.47498L550.465 339.749L550.465 339.749L295.913 339.749z" /></clipPath><clipPath id="8"><path id="" clip-rule="evenodd" transform="matrix(1 0 0 1 0 0)" d="M304.914 601.204L541.465 601.204L541.465 601.204L541.465 349.638L541.465 349.638L304.914 349.638z" /></clipPath><clipPath id="9"><path id="" clip-rule="evenodd" transform="matrix(1 0 0 1 0 0)" d="M295.913 341.637L550.465 341.637L550.465 341.637L550.465 603.912L550.465 603.912L295.913 603.912z" /></clipPath><clipPath id="10"><path id="" clip-rule="evenodd" transform="matrix(1 0 0 1 0 0)" d="M0 0L612 0L612 0L612 792L612 792L0 792z" /></clipPath></defs><g transform="matrix(1.333333 0 0 1.333333 0 0)"><g clip-path="url(#1)"><path id="1" transform="matrix(1 0 0 -1 0 792)" d="M59.5278 735.3072L56.6928 732.4722L56.6928 532.6582L59.5278 529.8232L290.4098 529.8232L293.2438 532.6582L293.2438 732.4722L290.4098 735.3072z" stroke="none" fill="#EAEBEC" fill-rule="nonzero" /><path id="2" transform="matrix(1 0 0 -1 0 792)" d="M62.862 647.414L287.075 647.414L287.075 672.918L62.862 672.918z" stroke="none" fill="#FFFEFE" fill-rule="nonzero" /><path id="3" transform="matrix(1 0 0 -1 0 792)" d="M62.8623 672.9178L287.0753 672.9178" stroke="#939597" stroke-width="0.5" fill="none" /><path id="4" transform="matrix(1 0 0 -1 0 792)" d="M62.862 632.745L287.075 632.745L287.075 652.084L62.862 652.084z" stroke="none" fill="#FFFEFE" fill-rule="nonzero" /><path id="5" transform="matrix(1 0 0 -1 0 792)" d="M63.8814 647.8312L286.5654 647.8312" stroke="#BBBDC0" stroke-width="0.51" stroke-linecap="round" stroke-dasharray="0.51,0.51" fill="none" /><path id="6" transform="matrix(1 0 0 -1 0 792)" d="M287.0753 647.8312L287.0753 647.8312M62.8623 647.8312L62.8623 647.8312" stroke="#BBBDC0" stroke-width="0.51" stroke-linecap="round" fill="none" /><path id="7" transform="matrix(1 0 0 -1 0 792)" d="M62.8623 632.5143L286.5233 632.5143" stroke="#939597" stroke-width="0.5" fill="none" /><g clip-path="url(#2)"><g><g clip-path="url(#3)"><path id="563" transform="matrix(1 0 0 -1 0 792)" d="M59.6311 735.0571C 58.7351 734.1611 57.8391 733.2651 56.9431 732.3691L56.9431 732.3691L56.9431 532.7611C 57.8391 531.8651 58.7351 530.9691 59.6311 530.0731L59.6311 530.0731L290.3061 530.0731C 291.2021 530.9691 292.0981 531.8651 292.9941 532.7611L292.9941 532.7611L292.9941 732.3691C 292.0981 733.2651 291.2021 734.1611 290.3061 735.0571L290.3061 735.0571L59.6311 735.0571z" stroke="#000000" stroke-width="0.5" fill="none" stroke-opacity="0.4980392" /></g></g></g><path id="564" transform="matrix(1 0 0 -1 0 792)" d="M59.5278 516.6198L56.6928 513.7858L56.6928 285.8888L59.5278 283.0538L290.4098 283.0538L293.2438 285.8888L293.2438 513.7858L290.4098 516.6198z" stroke="none" fill="#EAEBEC" fill-rule="nonzero" /><path id="565" transform="matrix(1 0 0 -1 0 792)" d="M62.862 437.727L287.075 437.727L287.075 463.231L62.862 463.231z" stroke="none" fill="#FFFEFE" fill-rule="nonzero" /><path id="566" transform="matrix(1 0 0 -1 0 792)" d="M62.8623 463.2307L287.0753 463.2307" stroke="#939597" stroke-width="0.5" fill="none" /><path id="567" transform="matrix(1 0 0 -1 0 792)" d="M62.8623 437.4964L286.5233 437.4964" stroke="#939597" stroke-width="0.5" fill="none" /><g clip-path="url(#4)"><g><g clip-path="url(#5)"><path id="1312" transform="matrix(1 0 0 -1 0 792)" d="M59.6311 516.3699C 58.7351 515.4739 57.8391 514.5779 56.9431 513.6819L56.9431 513.6819L56.9431 285.9919C 57.8391 285.0959 58.7351 284.1999 59.6311 283.3039L59.6311 283.3039L290.3061 283.3039L290.3061 283.3039L292.9941 285.9919L292.9941 285.9919L292.9941 513.6819C 292.0981 514.5779 291.2021 515.4739 290.3061 516.3699L290.3061 516.3699L59.6311 516.3699z" stroke="#000000" stroke-width="0.5" fill="none" stroke-opacity="0.4980392" /></g></g></g><path id="1313" transform="matrix(1 0 0 -1 0 792)" d="M307.53 735.3072L304.914 732.6912L304.914 457.7942L307.748 454.9592L538.63 454.9592L541.464 457.7942L541.464 732.6912L538.848 735.3072z" stroke="none" fill="#EAEBEC" fill-rule="nonzero" /><path id="1314" transform="matrix(1 0 0 -1 0 792)" d="M311.083 647.632L535.296 647.632L535.296 673.136L311.083 673.136z" stroke="none" fill="#FFFEFE" fill-rule="nonzero" /><path id="1315" transform="matrix(1 0 0 -1 0 792)" d="M311.0827 673.1361L535.2957 673.1361" stroke="#939597" stroke-width="0.5" fill="none" /><path id="1316" transform="matrix(1 0 0 -1 0 792)" d="M311.0827 647.4019L534.7437 647.4019" stroke="#939597" stroke-width="0.5" fill="none" /><g clip-path="url(#6)"><g><g clip-path="url(#7)"><path id="2278" transform="matrix(1 0 0 -1 0 792)" d="M307.8516 735.2754C 306.9556 734.3794 306.0596 733.4834 305.1636 732.5874L305.1636 732.5874L305.1636 457.8974C 306.0596 457.0014 306.9556 456.1054 307.8516 455.2094L307.8516 455.2094L538.5266 455.2094C 539.4226 456.1054 540.3186 457.0004 541.2146 457.8974L541.2146 457.8974L541.2146 732.5874C 540.3186 733.4834 539.4226 734.3794 538.5266 735.2754L538.5266 735.2754L307.8516 735.2754z" stroke="#000000" stroke-width="0.5" fill="none" stroke-opacity="0.4980392" /></g></g></g><path id="2279" transform="matrix(1 0 0 -1 0 792)" d="M307.7478 442.3626L304.9138 439.5276L304.9138 193.6306L307.7478 190.7966L538.6298 190.7966L541.4638 193.6306L541.4638 439.5276L538.6298 442.3626z" stroke="none" fill="#EAEBEC" fill-rule="nonzero" /><path id="2280" transform="matrix(1 0 0 -1 0 792)" d="M311.083 345.469L535.296 345.469L535.296 370.973L311.083 370.973z" stroke="none" fill="#FFFEFE" fill-rule="nonzero" /><path id="2281" transform="matrix(1 0 0 -1 0 792)" d="M311.0827 370.9733L535.2957 370.9733" stroke="#939597" stroke-width="0.5" fill="none" /><path id="2282" transform="matrix(1 0 0 -1 0 792)" d="M311.0827 345.2391L534.7437 345.2391" stroke="#939597" stroke-width="0.5" fill="none" /><g clip-path="url(#8)"><g><g clip-path="url(#9)"><path id="3104" transform="matrix(1 0 0 -1 0 792)" d="M307.8517 442.1126C 306.9557 441.2166 306.0597 440.3206 305.1637 439.4246L305.1637 439.4246L305.1637 193.7346L305.1637 193.7346L307.8517 191.0466L307.8517 191.0466L538.5267 191.0466C 539.4227 191.9426 540.3187 192.8376 541.2147 193.7346L541.2147 193.7346L541.2147 439.4246C 540.3187 440.3206 539.4227 441.2166 538.5267 442.1126L538.5267 442.1126L307.8517 442.1126z" stroke="#000000" stroke-width="0.5" fill="none" stroke-opacity="0.4980392" /></g></g></g><g clip-path="url(#10)"><path id="3121" transform="matrix(1 0 0 -1 0 792)" d="M56.9448 32.702L56.9448 -12.691" stroke="#000000" stroke-width="0.75" stroke-linecap="round" stroke-dasharray="0.75,1.464" fill="none" /><path id="3122" transform="matrix(1 0 0 -1 0 792)" d="M56.9448 -13.7986L56.9448 -13.7986M56.9448 34.9164L56.9448 34.9164" stroke="#000000" stroke-width="0.75" stroke-linecap="round" fill="none" /></g></g></g></svg>