<svg xmlns="http://www.w3.org/2000/svg" xmlns:xlink="http://www.w3.org/1999/xlink" id="body_76" preserveAspectRatio="xMinYMin meet" viewBox="0 0 816 1056"><defs><clipPath id="1"><path id="" clip-rule="evenodd" transform="matrix(1 0 0 1 0 0)" d="M0 792L0 0L0 0L612 0L612 0L612 792L612 792L0 792z" /></clipPath><clipPath id="2"><path id="" clip-rule="evenodd" transform="matrix(1 0 0 1 0 0)" d="M56.693 296.425L293.244 296.425L293.244 296.425L293.244 56.69299L293.244 56.69299L56.693 56.69299z" /></clipPath><clipPath id="3"><path id="" clip-rule="evenodd" transform="matrix(1 0 0 1 0 0)" d="M47.693 48.69299L302.244 48.69299L302.244 48.69299L302.244 299.133L302.244 299.133L47.693 299.133z" /></clipPath><clipPath id="4"><path id="" clip-rule="evenodd" transform="matrix(1 0 0 1 0 0)" d="M56.693 482.513L293.244 482.513L293.244 482.513L293.244 305.029L293.244 305.029L56.693 305.029z" /></clipPath><clipPath id="5"><path id="" clip-rule="evenodd" transform="matrix(1 0 0 1 0 0)" d="M47.693 297.028L302.244 297.028L302.244 297.028L302.244 485.22L302.244 485.22L47.693 485.22z" /></clipPath><clipPath id="6"><path id="" clip-rule="evenodd" transform="matrix(1 0 0 1 0 0)" d="M56.693 668.458L293.244 668.458L293.244 668.458L293.244 493.391L293.244 493.391L56.693 493.391z" /></clipPath><clipPath id="7"><path id="" clip-rule="evenodd" transform="matrix(1 0 0 1 0 0)" d="M47.693 485.391L302.244 485.391L302.244 485.391L302.244 671.166L302.244 671.166L47.693 671.166z" /></clipPath><clipPath id="8"><path id="" clip-rule="evenodd" transform="matrix(1 0 0 1 0 0)" d="M304.914 280.677L541.465 280.677L541.465 280.677L541.465 56.69299L541.465 56.69299L304.914 56.69299z" /></clipPath><clipPath id="9"><path id="" clip-rule="evenodd" transform="matrix(1 0 0 1 0 0)" d="M295.913 48.69299L550.465 48.69299L550.465 48.69299L550.465 283.385L550.465 283.385L295.913 283.385z" /></clipPath><clipPath id="10"><path id="" clip-rule="evenodd" transform="matrix(1 0 0 1 0 0)" d="M304.914 506.489L541.465 506.489L541.465 506.489L541.465 289.588L541.465 289.588L304.914 289.588z" /></clipPath><clipPath id="11"><path id="" clip-rule="evenodd" transform="matrix(1 0 0 1 0 0)" d="M295.913 281.589L550.465 281.589L550.465 281.589L550.465 509.198L550.465 509.198L295.913 509.198z" /></clipPath><clipPath id="12"><path id="" clip-rule="evenodd" transform="matrix(1 0 0 1 0 0)" d="M304.914 678.338L541.465 678.338L541.465 678.338L541.465 516.764L541.465 516.764L304.914 516.764z" /></clipPath><clipPath id="13"><path id="" clip-rule="evenodd" transform="matrix(1 0 0 1 0 0)" d="M295.913 510.514L550.465 510.514L550.465 510.514L550.465 679.706L550.465 679.706L295.913 679.706z" /></clipPath><clipPath id="14"><path id="" clip-rule="evenodd" transform="matrix(1 0 0 1 0 0)" d="M0 0L612 0L612 0L612 792L612 792L0 792z" /></clipPath></defs><g transform="matrix(1.333333 0 0 1.333333 0 0)"><g clip-path="url(#1)"><path id="1" transform="matrix(1 0 0 -1 0 792)" d="M59.5278 735.3072L56.6928 732.4722L56.6928 498.4102L59.5278 495.5752L290.4098 495.5752L293.2438 498.4102L293.2438 732.4722L290.4098 735.3072z" stroke="none" fill="#EAEBEC" fill-rule="nonzero" /><path id="2" transform="matrix(1 0 0 -1 0 792)" d="M62.862 647.414L287.075 647.414L287.075 672.918L62.862 672.918z" stroke="none" fill="#FFFEFE" fill-rule="nonzero" /><path id="3" transform="matrix(1 0 0 -1 0 792)" d="M62.8623 672.9178L287.0753 672.9178" stroke="#939597" stroke-width="0.5" fill="none" /><path id="4" transform="matrix(1 0 0 -1 0 792)" d="M62.8623 647.1836L286.5233 647.1836" stroke="#939597" stroke-width="0.5" fill="none" /><g clip-path="url(#2)"><g><g clip-path="url(#3)"><path id="866" transform="matrix(1 0 0 -1 0 792)" d="M59.6311 735.0571C 58.7351 734.1611 57.8391 733.2651 56.9431 732.3691L56.9431 732.3691L56.9431 498.5131C 57.8391 497.6171 58.7351 496.7211 59.6311 495.8251L59.6311 495.8251L290.3061 495.8251L290.3061 495.8251L292.9941 498.5131L292.9941 498.5131L292.9941 732.3691C 292.0981 733.2651 291.2021 734.1611 290.3061 735.0571L290.3061 735.0571L59.6311 735.0571z" stroke="#000000" stroke-width="0.5" fill="none" stroke-opacity="0.4980392" /></g></g></g><path id="867" transform="matrix(1 0 0 -1 0 792)" d="M59.5278 486.972L56.6928 484.137L56.6928 312.322L59.5278 309.488L290.4098 309.488L293.2438 312.322L293.2438 484.137L290.4098 486.972z" stroke="none" fill="#EAEBEC" fill-rule="nonzero" /><path id="868" transform="matrix(1 0 0 -1 0 792)" d="M62.862 408.078L287.075 408.078L287.075 433.582L62.862 433.582z" stroke="none" fill="#FFFEFE" fill-rule="nonzero" /><path id="869" transform="matrix(1 0 0 -1 0 792)" d="M62.8623 433.5824L287.0753 433.5824" stroke="#939597" stroke-width="0.5" fill="none" /><path id="870" transform="matrix(1 0 0 -1 0 792)" d="M62.862 393.409L287.075 393.409L287.075 412.748L62.862 412.748z" stroke="none" fill="#FFFEFE" fill-rule="nonzero" /><path id="871" transform="matrix(1 0 0 -1 0 792)" d="M63.8814 408.4958L286.5654 408.4958" stroke="#BBBDC0" stroke-width="0.51" stroke-linecap="round" stroke-dasharray="0.51,0.51" fill="none" /><path id="872" transform="matrix(1 0 0 -1 0 792)" d="M287.0753 408.4958L287.0753 408.4958M62.8623 408.4958L62.8623 408.4958" stroke="#BBBDC0" stroke-width="0.51" stroke-linecap="round" fill="none" /><path id="873" transform="matrix(1 0 0 -1 0 792)" d="M62.8623 393.1789L286.5233 393.1789" stroke="#939597" stroke-width="0.5" fill="none" /><g clip-path="url(#4)"><g><g clip-path="url(#5)"><path id="1356" transform="matrix(1 0 0 -1 0 792)" d="M59.6311 486.7217C 58.7351 485.8257 57.8391 484.9297 56.9431 484.0337L56.9431 484.0337L56.9431 312.4257C 57.8391 311.5297 58.7351 310.6337 59.6311 309.7377L59.6311 309.7377L290.3061 309.7377L290.3061 309.7377L292.9941 312.4257L292.9941 312.4257L292.9941 484.0337C 292.0981 484.9297 291.2021 485.8257 290.3061 486.7217L290.3061 486.7217L59.6311 486.7217z" stroke="#000000" stroke-width="0.5" fill="none" stroke-opacity="0.4980392" /></g></g></g><path id="1357" transform="matrix(1 0 0 -1 0 792)" d="M59.5278 298.6092L56.6928 295.7742L56.6928 126.3772L59.5278 123.5422L290.4098 123.5422L293.2438 126.3772L293.2438 295.7742L290.4098 298.6092z" stroke="none" fill="#EAEBEC" fill-rule="nonzero" /><path id="1358" transform="matrix(1 0 0 -1 0 792)" d="M62.862 201.716L287.075 201.716L287.075 227.22L62.862 227.22z" stroke="none" fill="#FFFEFE" fill-rule="nonzero" /><path id="1359" transform="matrix(1 0 0 -1 0 792)" d="M62.8623 227.2195L287.0753 227.2195" stroke="#939597" stroke-width="0.5" fill="none" /><path id="1360" transform="matrix(1 0 0 -1 0 792)" d="M62.862 187.046L287.075 187.046L287.075 206.385L62.862 206.385z" stroke="none" fill="#FFFEFE" fill-rule="nonzero" /><path id="1361" transform="matrix(1 0 0 -1 0 792)" d="M63.8814 202.1329L286.5654 202.1329" stroke="#BBBDC0" stroke-width="0.51" stroke-linecap="round" stroke-dasharray="0.51,0.51" fill="none" /><path id="1362" transform="matrix(1 0 0 -1 0 792)" d="M287.0753 202.1329L287.0753 202.1329M62.8623 202.1329L62.8623 202.1329" stroke="#BBBDC0" stroke-width="0.51" stroke-linecap="round" fill="none" /><path id="1363" transform="matrix(1 0 0 -1 0 792)" d="M62.8623 186.816L286.5233 186.816" stroke="#939597" stroke-width="0.5" fill="none" /><g clip-path="url(#6)"><g><g clip-path="url(#7)"><path id="1827" transform="matrix(1 0 0 -1 0 792)" d="M59.6311 298.3588C 58.7351 297.4628 57.8391 296.5668 56.9431 295.6708L56.9431 295.6708L56.9431 126.4808L56.9431 126.4808L59.6311 123.7928L59.6311 123.7928L290.3061 123.7928C 291.2021 124.6888 292.0981 125.5848 292.9941 126.4808L292.9941 126.4808L292.9941 295.6708L292.9941 295.6708L290.3061 298.3588L290.3061 298.3588L59.6311 298.3588z" stroke="#000000" stroke-width="0.5" fill="none" stroke-opacity="0.4980392" /></g></g></g><path id="1828" transform="matrix(1 0 0 -1 0 792)" d="M307.7478 735.3072L304.9138 732.4722L304.9138 514.1582L307.7478 511.3232L538.6298 511.3232L541.4638 514.1582L541.4638 732.4722L538.6298 735.3072z" stroke="none" fill="#EAEBEC" fill-rule="nonzero" /><path id="1829" transform="matrix(1 0 0 -1 0 792)" d="M311.083 638.414L535.296 638.414L535.296 663.918L311.083 663.918z" stroke="none" fill="#FFFEFE" fill-rule="nonzero" /><path id="1830" transform="matrix(1 0 0 -1 0 792)" d="M311.0827 663.9178L535.2957 663.9178" stroke="#939597" stroke-width="0.5" fill="none" /><path id="1831" transform="matrix(1 0 0 -1 0 792)" d="M311.083 623.745L535.296 623.745L535.296 643.084L311.083 643.084z" stroke="none" fill="#FFFEFE" fill-rule="nonzero" /><path id="1832" transform="matrix(1 0 0 -1 0 792)" d="M312.1018 638.8312L534.7858 638.8312" stroke="#BBBDC0" stroke-width="0.51" stroke-linecap="round" stroke-dasharray="0.51,0.51" fill="none" /><path id="1833" transform="matrix(1 0 0 -1 0 792)" d="M535.2957 638.8312L535.2957 638.8312M311.0827 638.8312L311.0827 638.8312" stroke="#BBBDC0" stroke-width="0.51" stroke-linecap="round" fill="none" /><path id="1834" transform="matrix(1 0 0 -1 0 792)" d="M311.0827 623.5143L534.7437 623.5143" stroke="#939597" stroke-width="0.5" fill="none" /><g clip-path="url(#8)"><g><g clip-path="url(#9)"><path id="2525" transform="matrix(1 0 0 -1 0 792)" d="M307.8516 735.0571C 306.9556 734.1611 306.0596 733.2651 305.1636 732.3691L305.1636 732.3691L305.1636 514.2611L305.1636 514.2611L307.8516 511.5731L307.8516 511.5731L538.5266 511.5731C 539.4226 512.4691 540.3186 513.3651 541.2146 514.2611L541.2146 514.2611L541.2146 732.3691L541.2146 732.3691L538.5266 735.0571L538.5266 735.0571L307.8516 735.0571z" stroke="#000000" stroke-width="0.5" fill="none" stroke-opacity="0.4980392" /></g></g></g><path id="2526" transform="matrix(1 0 0 -1 0 792)" d="M307.7478 502.4115L304.9138 499.5765L304.9138 288.3445L307.7478 285.5105L538.6298 285.5105L541.4638 288.3445L541.4638 499.5765L538.6298 502.4115z" stroke="none" fill="#EAEBEC" fill-rule="nonzero" /><path id="2527" transform="matrix(1 0 0 -1 0 792)" d="M311.083 423.518L535.296 423.518L535.296 449.022L311.083 449.022z" stroke="none" fill="#FFFEFE" fill-rule="nonzero" /><path id="2528" transform="matrix(1 0 0 -1 0 792)" d="M311.0827 449.0221L535.2957 449.0221" stroke="#939597" stroke-width="0.5" fill="none" /><path id="2529" transform="matrix(1 0 0 -1 0 792)" d="M311.083 408.849L535.296 408.849L535.296 428.188L311.083 428.188z" stroke="none" fill="#FFFEFE" fill-rule="nonzero" /><path id="2530" transform="matrix(1 0 0 -1 0 792)" d="M312.1019 423.9355L534.7859 423.9355" stroke="#BBBDC0" stroke-width="0.51" stroke-linecap="round" stroke-dasharray="0.51,0.51" fill="none" /><path id="2531" transform="matrix(1 0 0 -1 0 792)" d="M535.2957 423.9355L535.2957 423.9355M311.0827 423.9355L311.0827 423.9355" stroke="#BBBDC0" stroke-width="0.51" stroke-linecap="round" fill="none" /><path id="2532" transform="matrix(1 0 0 -1 0 792)" d="M311.0827 408.6186L534.7437 408.6186" stroke="#939597" stroke-width="0.5" fill="none" /><g clip-path="url(#10)"><g><g clip-path="url(#11)"><path id="3242" transform="matrix(1 0 0 -1 0 792)" d="M307.8517 502.1613C 306.9557 501.2653 306.0597 500.3693 305.1637 499.4733L305.1637 499.4733L305.1637 288.4483C 306.0597 287.5523 306.9557 286.6563 307.8517 285.7603L307.8517 285.7603L538.5267 285.7603L538.5267 285.7603L541.2147 288.4483L541.2147 288.4483L541.2147 499.4733C 540.3187 500.3693 539.4227 501.2653 538.5267 502.1613L538.5267 502.1613L307.8517 502.1613z" stroke="#000000" stroke-width="0.5" fill="none" stroke-opacity="0.4980392" /></g></g></g><path id="3243" transform="matrix(1 0 0 -1 0 792)" d="M307.7478 273.4857L304.9138 270.6517L304.9138 117.8367L307.7478 115.0017L538.6298 115.0017L541.4638 117.8367L541.4638 270.6517L538.6298 273.4857z" stroke="none" fill="#EAEBEC" fill-rule="nonzero" /><path id="3244" transform="matrix(1 0 0 -1 0 792)" d="M311.083 194.593L535.296 194.593L535.296 220.097L311.083 220.097z" stroke="none" fill="#FFFEFE" fill-rule="nonzero" /><path id="3245" transform="matrix(1 0 0 -1 0 792)" d="M311.0827 220.0966L535.2957 220.0966" stroke="#939597" stroke-width="0.5" fill="none" /><path id="3246" transform="matrix(1 0 0 -1 0 792)" d="M311.083 179.923L535.296 179.923L535.296 199.262L311.083 199.262z" stroke="none" fill="#FFFEFE" fill-rule="nonzero" /><path id="3247" transform="matrix(1 0 0 -1 0 792)" d="M312.1019 195.01L534.7859 195.01" stroke="#BBBDC0" stroke-width="0.51" stroke-linecap="round" stroke-dasharray="0.51,0.51" fill="none" /><path id="3248" transform="matrix(1 0 0 -1 0 792)" d="M535.2957 195.01L535.2957 195.01M311.0827 195.01L311.0827 195.01" stroke="#BBBDC0" stroke-width="0.51" stroke-linecap="round" fill="none" /><path id="3249" transform="matrix(1 0 0 -1 0 792)" d="M311.0827 179.6931L534.7437 179.6931" stroke="#939597" stroke-width="0.5" fill="none" /><g clip-path="url(#12)"><g><g clip-path="url(#13)"><path id="3664" transform="matrix(1 0 0 -1 0 792)" d="M307.8517 273.2359C 306.9557 272.3399 306.0597 271.4439 305.1637 270.5479L305.1637 270.5479L305.1637 117.9399C 306.0597 117.0439 306.9557 116.1479 307.8517 115.2519L307.8517 115.2519L538.5267 115.2519C 539.4227 116.1479 540.3187 117.0439 541.2147 117.9399L541.2147 117.9399L541.2147 270.5479C 540.3187 271.4439 539.4227 272.3399 538.5267 273.2359L538.5267 273.2359L307.8517 273.2359z" stroke="#000000" stroke-width="0.5" fill="none" stroke-opacity="0.4980392" /></g></g></g><g clip-path="url(#14)"><path id="3681" transform="matrix(1 0 0 -1 0 792)" d="M56.9448 32.702L56.9448 -12.691" stroke="#000000" stroke-width="0.75" stroke-linecap="round" stroke-dasharray="0.75,1.464" fill="none" /><path id="3682" transform="matrix(1 0 0 -1 0 792)" d="M56.9448 -13.7986L56.9448 -13.7986M56.9448 34.9164L56.9448 34.9164" stroke="#000000" stroke-width="0.75" stroke-linecap="round" fill="none" /></g></g></g></svg>