<svg xmlns="http://www.w3.org/2000/svg" xmlns:xlink="http://www.w3.org/1999/xlink" id="body_71" preserveAspectRatio="xMinYMin meet" viewBox="0 0 816 1056"><defs><clipPath id="1"><path id="" clip-rule="evenodd" transform="matrix(1 0 0 1 0 0)" d="M0 792L0 0L0 0L612 0L612 0L612 792L612 792L0 792z" /></clipPath><clipPath id="2"><path id="" clip-rule="evenodd" transform="matrix(1 0 0 1 0 0)" d="M0 0L612 0L612 0L612 792L612 792L0 792z" /></clipPath></defs><g transform="matrix(1.333333 0 0 1.333333 0 0)"><g clip-path="url(#1)"><path id="1" transform="matrix(1 0 0 -1 0 792)" d="M75.1181 605.9168L75.1181 614.0818" stroke="#BBBDC0" stroke-width="8" fill="none" /><path id="2" transform="matrix(1 0 0 -1 0 792)" d="M75.1181 544.9089L75.1181 553.0739" stroke="#BBBDC0" stroke-width="8" fill="none" /><path id="3" transform="matrix(1 0 0 -1 0 792)" d="M75.1181 483.9011L75.1181 492.0661" stroke="#BBBDC0" stroke-width="8" fill="none" /><path id="4" transform="matrix(1 0 0 -1 0 792)" d="M75.1181 218.5467L75.1181 226.7117" stroke="#BBBDC0" stroke-width="8" fill="none" /><path id="5" transform="matrix(1 0 0 -1 0 792)" d="M75.1181 179.5389L75.1181 187.7039" stroke="#BBBDC0" stroke-width="8" fill="none" /><path id="6" transform="matrix(1 0 0 -1 0 792)" d="M75.1181 140.531L75.1181 148.696" stroke="#BBBDC0" stroke-width="8" fill="none" /><path id="7" transform="matrix(1 0 0 -1 0 792)" d="M75.1181 90.153L75.1181 98.688" stroke="#BBBDC0" stroke-width="8" fill="none" /><path id="1377" transform="matrix(1 0 0 -1 0 792)" d="M323.3386 695.3032L323.3386 703.4682" stroke="#BBBDC0" stroke-width="8" fill="none" /><path id="1378" transform="matrix(1 0 0 -1 0 792)" d="M323.3386 645.2953L323.3386 653.4603" stroke="#BBBDC0" stroke-width="8" fill="none" /><path id="1379" transform="matrix(1 0 0 -1 0 792)" d="M323.3386 573.2875L323.3386 581.4525" stroke="#BBBDC0" stroke-width="8" fill="none" /><path id="1380" transform="matrix(1 0 0 -1 0 792)" d="M323.3386 384.2717L323.3386 392.4367" stroke="#BBBDC0" stroke-width="8" fill="none" /><path id="1381" transform="matrix(1 0 0 -1 0 792)" d="M323.3386 182.7599L323.3386 190.9249" stroke="#BBBDC0" stroke-width="8" fill="none" /><path id="1888" transform="matrix(1 0 0 -1 0 792)" d="M476.567 443.026L555.307 443.026L555.307 417.276L476.567 417.276zM397.827 443.026L476.567 443.026L476.567 417.276L397.827 417.276zM319.087 443.026L397.827 443.026L397.827 417.276L319.087 417.276zM476.567 472.526L555.307 472.526L555.307 457.776L476.567 457.776zM397.827 472.526L476.567 472.526L476.567 457.776L397.827 457.776zM319.087 472.526L397.827 472.526L397.827 457.776L319.087 457.776zM476.567 502.026L555.307 502.026L555.307 487.276L476.567 487.276zM397.827 502.026L476.567 502.026L476.567 487.276L397.827 487.276zM319.087 502.026L397.827 502.026L397.827 487.276L319.087 487.276z" stroke="none" fill="#E5E6E7" fill-rule="nonzero" /><path id="1889" transform="matrix(1 0 0 -1 0 792)" d="M319.0866 502.0256L397.8266 502.0256" stroke="#000000" stroke-width="1" fill="none" /><path id="1890" transform="matrix(1 0 0 -1 0 792)" d="M397.8268 502.0256L476.5668 502.0256" stroke="#000000" stroke-width="1" fill="none" /><path id="1891" transform="matrix(1 0 0 -1 0 792)" d="M476.5669 502.0256L555.3069 502.0256" stroke="#000000" stroke-width="1" fill="none" /><g clip-path="url(#2)"><path id="2814" transform="matrix(1 0 0 -1 0 792)" d="M555.6614 32.702L555.6614 -12.691" stroke="#000000" stroke-width="0.75" stroke-linecap="round" stroke-dasharray="0.75,1.464" fill="none" /><path id="2815" transform="matrix(1 0 0 -1 0 792)" d="M555.6614 -13.7986L555.6614 -13.7986M555.6614 34.9164L555.6614 34.9164" stroke="#000000" stroke-width="0.75" stroke-linecap="round" fill="none" /></g></g></g></svg>