<svg xmlns="http://www.w3.org/2000/svg" xmlns:xlink="http://www.w3.org/1999/xlink" id="body_91" preserveAspectRatio="xMinYMin meet" viewBox="0 0 816 1056"><defs><clipPath id="1"><path id="" clip-rule="evenodd" transform="matrix(1 0 0 1 0 0)" d="M0 792L0 0L0 0L612 0L612 0L612 792L612 792L0 792z" /></clipPath><clipPath id="2"><path id="" clip-rule="evenodd" transform="matrix(1 0 0 1 0 0)" d="M70.866 293.512L307.417 293.512L307.417 293.512L307.417 56.69299L307.417 56.69299L70.866 56.69299z" /></clipPath><clipPath id="3"><path id="" clip-rule="evenodd" transform="matrix(1 0 0 1 0 0)" d="M61.8661 48.69299L316.417 48.69299L316.417 48.69299L316.417 296.219L316.417 296.219L61.8661 296.219z" /></clipPath><clipPath id="4"><path id="" clip-rule="evenodd" transform="matrix(1 0 0 1 0 0)" d="M70.866 560.902L307.417 560.902L307.417 560.902L307.417 304.165L307.417 304.165L70.866 304.165z" /></clipPath><clipPath id="5"><path id="" clip-rule="evenodd" transform="matrix(1 0 0 1 0 0)" d="M61.8662 296.166L316.417 296.166L316.417 296.166L316.417 563.609L316.417 563.609L61.8662 563.609z" /></clipPath><clipPath id="6"><path id="" clip-rule="evenodd" transform="matrix(1 0 0 1 0 0)" d="M319.087 312.512L555.638 312.512L555.638 312.512L555.638 56.69299L555.638 56.69299L319.087 56.69299z" /></clipPath><clipPath id="7"><path id="" clip-rule="evenodd" transform="matrix(1 0 0 1 0 0)" d="M310.087 48.69299L564.638 48.69299L564.638 48.69299L564.638 315.219L564.638 315.219L310.087 315.219z" /></clipPath><clipPath id="8"><path id="" clip-rule="evenodd" transform="matrix(1 0 0 1 0 0)" d="M319.087 560.417L555.638 560.417L555.638 560.417L555.638 323.099L555.638 323.099L319.087 323.099z" /></clipPath><clipPath id="9"><path id="" clip-rule="evenodd" transform="matrix(1 0 0 1 0 0)" d="M310.087 315.098L564.638 315.098L564.638 315.098L564.638 563.125L564.638 563.125L310.087 563.125z" /></clipPath><clipPath id="10"><path id="" clip-rule="evenodd" transform="matrix(1 0 0 1 0 0)" d="M0 0L612 0L612 0L612 792L612 792L0 792z" /></clipPath></defs><g transform="matrix(1.333333 0 0 1.333333 0 0)"><g clip-path="url(#1)"><path id="1" transform="matrix(1 0 0 -1 0 792)" d="M73.701 735.3072L70.866 732.4722L70.866 501.3232L73.701 498.4882L304.582 498.4882L307.417 501.3232L307.417 732.4722L304.582 735.3072z" stroke="none" fill="#EAEBEC" fill-rule="nonzero" /><path id="2" transform="matrix(1 0 0 -1 0 792)" d="M77.035 647.414L301.248 647.414L301.248 672.918L77.035 672.918z" stroke="none" fill="#FFFEFE" fill-rule="nonzero" /><path id="3" transform="matrix(1 0 0 -1 0 792)" d="M77.0354 672.9178L301.2484 672.9178" stroke="#939597" stroke-width="0.5" fill="none" /><path id="4" transform="matrix(1 0 0 -1 0 792)" d="M77.035 632.745L301.248 632.745L301.248 652.084L77.035 652.084z" stroke="none" fill="#FFFEFE" fill-rule="nonzero" /><path id="5" transform="matrix(1 0 0 -1 0 792)" d="M78.0546 647.8312L300.7386 647.8312" stroke="#BBBDC0" stroke-width="0.51" stroke-linecap="round" stroke-dasharray="0.51,0.51" fill="none" /><path id="6" transform="matrix(1 0 0 -1 0 792)" d="M301.2484 647.8312L301.2484 647.8312M77.0354 647.8312L77.0354 647.8312" stroke="#BBBDC0" stroke-width="0.51" stroke-linecap="round" fill="none" /><path id="7" transform="matrix(1 0 0 -1 0 792)" d="M77.0354 632.5143L300.6964 632.5143" stroke="#939597" stroke-width="0.5" fill="none" /><g clip-path="url(#2)"><g><g clip-path="url(#3)"><path id="688" transform="matrix(1 0 0 -1 0 792)" d="M73.8043 735.0571C 72.90829 734.1611 72.0123 733.2651 71.11629 732.3691L71.11629 732.3691L71.11629 501.4271C 72.0123 500.5311 72.90829 499.6351 73.8043 498.7391L73.8043 498.7391L304.4793 498.7391L304.4793 498.7391L307.1673 501.4271L307.1673 501.4271L307.1673 732.3691C 306.2713 733.2651 305.3753 734.1611 304.4793 735.0571L304.4793 735.0571L73.8043 735.0571z" stroke="#000000" stroke-width="0.5" fill="none" stroke-opacity="0.4980392" /></g></g></g><path id="689" transform="matrix(1 0 0 -1 0 792)" d="M73.701 487.8342L70.866 484.9992L70.866 233.9332L73.701 231.0982L304.582 231.0982L307.417 233.9332L307.417 484.9992L304.582 487.8342z" stroke="none" fill="#EAEBEC" fill-rule="nonzero" /><path id="690" transform="matrix(1 0 0 -1 0 792)" d="M77.035 390.941L301.248 390.941L301.248 416.445L77.035 416.445z" stroke="none" fill="#FFFEFE" fill-rule="nonzero" /><path id="691" transform="matrix(1 0 0 -1 0 792)" d="M77.0355 416.4449L301.2485 416.4449" stroke="#939597" stroke-width="0.5" fill="none" /><path id="692" transform="matrix(1 0 0 -1 0 792)" d="M77.035 376.272L301.248 376.272L301.248 395.611L77.035 395.611z" stroke="none" fill="#FFFEFE" fill-rule="nonzero" /><path id="693" transform="matrix(1 0 0 -1 0 792)" d="M78.0546 391.3583L300.7386 391.3583" stroke="#BBBDC0" stroke-width="0.51" stroke-linecap="round" stroke-dasharray="0.51,0.51" fill="none" /><path id="694" transform="matrix(1 0 0 -1 0 792)" d="M301.2485 391.3583L301.2485 391.3583M77.0355 391.3583L77.0355 391.3583" stroke="#BBBDC0" stroke-width="0.51" stroke-linecap="round" fill="none" /><path id="695" transform="matrix(1 0 0 -1 0 792)" d="M77.0355 376.0414L300.6965 376.0414" stroke="#939597" stroke-width="0.5" fill="none" /><g clip-path="url(#4)"><g><g clip-path="url(#5)"><path id="1511" transform="matrix(1 0 0 -1 0 792)" d="M73.8044 487.5842C 72.90839 486.6882 72.0124 485.7922 71.11639 484.8962L71.11639 484.8962L71.11639 234.0372L71.11639 234.0372L73.8044 231.3482L73.8044 231.3482L304.4794 231.3482L304.4794 231.3482L307.1674 234.0372L307.1674 234.0372L307.1674 484.8962C 306.2714 485.7922 305.3754 486.6882 304.4794 487.5842L304.4794 487.5842L73.8044 487.5842z" stroke="#000000" stroke-width="0.5" fill="none" stroke-opacity="0.4980392" /></g></g></g><path id="1512" transform="matrix(1 0 0 -1 0 792)" d="M321.921 735.3072L319.087 732.4722L319.087 482.3232L321.921 479.4882L552.803 479.4882L555.638 482.3232L555.638 732.4722L552.803 735.3072z" stroke="none" fill="#EAEBEC" fill-rule="nonzero" /><path id="1513" transform="matrix(1 0 0 -1 0 792)" d="M325.256 647.414L549.469 647.414L549.469 672.918L325.256 672.918z" stroke="none" fill="#FFFEFE" fill-rule="nonzero" /><path id="1514" transform="matrix(1 0 0 -1 0 792)" d="M325.256 672.9178L549.469 672.9178" stroke="#939597" stroke-width="0.5" fill="none" /><path id="1515" transform="matrix(1 0 0 -1 0 792)" d="M325.256 632.745L549.469 632.745L549.469 652.084L325.256 652.084z" stroke="none" fill="#FFFEFE" fill-rule="nonzero" /><path id="1516" transform="matrix(1 0 0 -1 0 792)" d="M326.2751 647.8312L548.9591 647.8312" stroke="#BBBDC0" stroke-width="0.51" stroke-linecap="round" stroke-dasharray="0.51,0.51" fill="none" /><path id="1517" transform="matrix(1 0 0 -1 0 792)" d="M549.469 647.8312L549.469 647.8312M325.256 647.8312L325.256 647.8312" stroke="#BBBDC0" stroke-width="0.51" stroke-linecap="round" fill="none" /><path id="1518" transform="matrix(1 0 0 -1 0 792)" d="M325.256 632.5143L548.917 632.5143" stroke="#939597" stroke-width="0.5" fill="none" /><g clip-path="url(#6)"><g><g clip-path="url(#7)"><path id="2325" transform="matrix(1 0 0 -1 0 792)" d="M322.0249 735.0571C 321.1289 734.1611 320.2329 733.2651 319.3369 732.3691L319.3369 732.3691L319.3369 482.4271L319.3369 482.4271L322.0249 479.7391L322.0249 479.7391L552.6999 479.7391L552.6999 479.7391L555.3879 482.4271L555.3879 482.4271L555.3879 732.3691C 554.4919 733.2651 553.5959 734.1611 552.6999 735.0571L552.6999 735.0571L322.0249 735.0571z" stroke="#000000" stroke-width="0.5" fill="none" stroke-opacity="0.4980392" /></g></g></g><path id="2326" transform="matrix(1 0 0 -1 0 792)" d="M321.921 468.9018L319.087 466.0668L319.087 234.4178L321.921 231.5838L552.803 231.5838L555.638 234.4178L555.638 466.0668L552.803 468.9018z" stroke="none" fill="#EAEBEC" fill-rule="nonzero" /><path id="2327" transform="matrix(1 0 0 -1 0 792)" d="M325.256 390.008L549.469 390.008L549.469 415.512L325.256 415.512z" stroke="none" fill="#FFFEFE" fill-rule="nonzero" /><path id="2328" transform="matrix(1 0 0 -1 0 792)" d="M325.256 415.5123L549.469 415.5123" stroke="#939597" stroke-width="0.5" fill="none" /><path id="2329" transform="matrix(1 0 0 -1 0 792)" d="M325.256 375.339L549.469 375.339L549.469 394.678L325.256 394.678z" stroke="none" fill="#FFFEFE" fill-rule="nonzero" /><path id="2330" transform="matrix(1 0 0 -1 0 792)" d="M326.2751 390.4257L548.9591 390.4257" stroke="#BBBDC0" stroke-width="0.51" stroke-linecap="round" stroke-dasharray="0.51,0.51" fill="none" /><path id="2331" transform="matrix(1 0 0 -1 0 792)" d="M549.469 390.4257L549.469 390.4257M325.256 390.4257L325.256 390.4257" stroke="#BBBDC0" stroke-width="0.51" stroke-linecap="round" fill="none" /><path id="2332" transform="matrix(1 0 0 -1 0 792)" d="M325.256 375.1087L548.917 375.1087" stroke="#939597" stroke-width="0.5" fill="none" /><g clip-path="url(#8)"><g><g clip-path="url(#9)"><path id="3062" transform="matrix(1 0 0 -1 0 792)" d="M322.0249 468.6516C 321.1289 467.7556 320.2329 466.8596 319.3369 465.9636L319.3369 465.9636L319.3369 234.5216C 320.2329 233.6256 321.1289 232.7296 322.0249 231.8336L322.0249 231.8336L552.6999 231.8336C 553.5959 232.7296 554.4919 233.6256 555.3879 234.5216L555.3879 234.5216L555.3879 465.9636C 554.4919 466.8596 553.5959 467.7556 552.6999 468.6516L552.6999 468.6516L322.0249 468.6516z" stroke="#000000" stroke-width="0.5" fill="none" stroke-opacity="0.4980392" /></g></g></g><g clip-path="url(#10)"><path id="3079" transform="matrix(1 0 0 -1 0 792)" d="M555.6614 32.702L555.6614 -12.691" stroke="#000000" stroke-width="0.75" stroke-linecap="round" stroke-dasharray="0.75,1.464" fill="none" /><path id="3080" transform="matrix(1 0 0 -1 0 792)" d="M555.6614 -13.7986L555.6614 -13.7986M555.6614 34.9164L555.6614 34.9164" stroke="#000000" stroke-width="0.75" stroke-linecap="round" fill="none" /></g></g></g></svg>