<svg xmlns="http://www.w3.org/2000/svg" xmlns:xlink="http://www.w3.org/1999/xlink" id="body_24" preserveAspectRatio="xMinYMin meet" viewBox="0 0 816 1056"><defs><clipPath id="1"><path id="" clip-rule="evenodd" transform="matrix(1 0 0 1 0 0)" d="M0 792L0 0L0 0L612 0L612 0L612 792L612 792L0 792z" /></clipPath><clipPath id="2"><path id="" clip-rule="evenodd" transform="matrix(1 0 0 1 0 0)" d="M0 0L612 0L612 0L612 792L612 792L0 792z" /></clipPath></defs><g transform="matrix(1.333333 0 0 1.333333 0 0)"><g clip-path="url(#1)"><path id="1" transform="matrix(1 0 0 -1 0 792)" d="M56.693 656.678L292.913 656.678L292.913 675.138L56.693 675.138z" stroke="none" fill="#EAEBEC" fill-rule="nonzero" /><path id="2" transform="matrix(1 0 0 -1 0 792)" d="M60.9449 612.6488L60.9449 620.8138" stroke="#BBBDC0" stroke-width="8" fill="none" /><path id="3" transform="matrix(1 0 0 -1 0 792)" d="M60.9449 512.9716L60.9449 521.1366" stroke="#BBBDC0" stroke-width="8" fill="none" /><path id="4" transform="matrix(1 0 0 -1 0 792)" d="M60.9449 451.9638L60.9449 460.1288" stroke="#BBBDC0" stroke-width="8" fill="none" /><path id="5" transform="matrix(1 0 0 -1 0 792)" d="M56.693 354.182L292.913 354.182L292.913 372.642L56.693 372.642z" stroke="none" fill="#EAEBEC" fill-rule="nonzero" /><path id="6" transform="matrix(1 0 0 -1 0 792)" d="M60.9449 310.1527L60.9449 318.3177" stroke="#BBBDC0" stroke-width="8" fill="none" /><path id="7" transform="matrix(1 0 0 -1 0 792)" d="M60.9449 183.1449L60.9449 191.3099" stroke="#BBBDC0" stroke-width="8" fill="none" /><path id="1525" transform="matrix(1 0 0 -1 0 792)" d="M309.1653 727.1418L309.1653 735.3068" stroke="#BBBDC0" stroke-width="8" fill="none" /><path id="1526" transform="matrix(1 0 0 -1 0 792)" d="M304.913 350.911L541.133 350.911L541.133 619.299L304.913 619.299z" stroke="none" fill="#F0F1F1" fill-rule="nonzero" /><path id="1527" transform="matrix(1 0 0 -1 0 792)" d="M541.1339 350.9112L304.9139 350.9112" stroke="#939597" stroke-width="1" fill="none" /><path id="1528" transform="matrix(1 0 0 -1 0 792)" d="M304.9134 619.2992L541.1334 619.2992" stroke="#939597" stroke-width="1" fill="none" /><g clip-path="url(#2)"><path id="2449" transform="matrix(1 0 0 -1 0 792)" d="M56.9448 32.702L56.9448 -12.691" stroke="#000000" stroke-width="0.75" stroke-linecap="round" stroke-dasharray="0.75,1.464" fill="none" /><path id="2450" transform="matrix(1 0 0 -1 0 792)" d="M56.9448 -13.7986L56.9448 -13.7986M56.9448 34.9164L56.9448 34.9164" stroke="#000000" stroke-width="0.75" stroke-linecap="round" fill="none" /></g></g></g></svg>