<svg xmlns="http://www.w3.org/2000/svg" xmlns:xlink="http://www.w3.org/1999/xlink" id="body_65" preserveAspectRatio="xMinYMin meet" viewBox="0 0 816 1056"><defs><clipPath id="1"><path id="" clip-rule="evenodd" transform="matrix(1 0 0 1 0 0)" d="M0 792L0 0L0 0L612 0L612 0L612 792L612 792L0 792z" /></clipPath><clipPath id="2"><path id="" clip-rule="evenodd" transform="matrix(1 0 0 1 0 0)" d="M0 0L612 0L612 0L612 792L612 792L0 792z" /></clipPath></defs><g transform="matrix(1.333333 0 0 1.333333 0 0)"><g clip-path="url(#1)"><path id="145" transform="matrix(1 0 0 -1 0 792)" d="M250.783 450.388L307.476 450.388L307.476 391.638L250.783 391.638zM130.394 450.388L250.784 450.388L250.784 391.638L130.394 391.638zM70.866 450.388L130.394 450.388L130.394 391.638L70.866 391.638zM250.783 600.888L307.476 600.888L307.476 531.138L250.783 531.138zM130.394 600.888L250.784 600.888L250.784 531.138L130.394 531.138zM70.866 600.888L130.394 600.888L130.394 531.138L70.866 531.138zM250.783 696.388L307.476 696.388L307.476 637.638L250.783 637.638zM130.394 696.388L250.784 696.388L250.784 637.638L130.394 637.638zM70.866 696.388L130.394 696.388L130.394 637.638L70.866 637.638z" stroke="none" fill="#E5E6E7" fill-rule="nonzero" /><path id="146" transform="matrix(1 0 0 -1 0 792)" d="M70.8661 696.3878L130.3941 696.3878" stroke="#000000" stroke-width="1" fill="none" /><path id="147" transform="matrix(1 0 0 -1 0 792)" d="M130.3937 696.3878L250.7837 696.3878" stroke="#000000" stroke-width="1" fill="none" /><path id="148" transform="matrix(1 0 0 -1 0 792)" d="M250.7835 696.3878L307.4765 696.3878" stroke="#000000" stroke-width="1" fill="none" /><path id="1782" transform="matrix(1 0 0 -1 0 792)" d="M70.866 277.205L99.212 277.205L99.212 88.82799L70.866 88.82799z" stroke="none" fill="#404042" fill-rule="nonzero" /><path id="1783" transform="matrix(1 0 0 -1 0 792)" d="M422.362 277.205L555.307 277.205L555.307 258.906L422.362 258.906zM275.811 277.205L422.362 277.205L422.362 258.906L275.811 258.906zM136.063 277.205L275.811 277.205L275.811 258.906L136.063 258.906zM99.213 277.205L136.063 277.205L136.063 258.906L99.213 258.906z" stroke="none" fill="#EAEBEC" fill-rule="nonzero" /><path id="1784" transform="matrix(1 0 0 -1 0 792)" d="M422.362 117.174L555.307 117.174L555.307 88.828L422.362 88.828zM275.811 117.174L422.362 117.174L422.362 88.828L275.811 88.828zM136.063 117.174L275.811 117.174L275.811 88.828L136.063 88.828zM99.213 117.174L136.063 117.174L136.063 88.828L99.213 88.828zM422.362 173.867L555.307 173.867L555.307 145.521L422.362 145.521zM275.811 173.867L422.362 173.867L422.362 145.521L275.811 145.521zM136.063 173.867L275.811 173.867L275.811 145.521L136.063 145.521zM99.213 173.867L136.063 173.867L136.063 145.521L99.213 145.521zM422.362 230.56L555.307 230.56L555.307 202.214L422.362 202.214zM275.811 230.56L422.362 230.56L422.362 202.214L275.811 202.214zM136.063 230.56L275.811 230.56L275.811 202.214L136.063 202.214zM99.213 230.56L136.063 230.56L136.063 202.214L99.213 202.214z" stroke="none" fill="#F0F1F1" fill-rule="nonzero" /><path id="1785" transform="matrix(1 0 0 -1 0 792)" d="M99.2126 258.9062L136.0626 258.9062" stroke="#000000" stroke-width="1" fill="none" /><path id="1786" transform="matrix(1 0 0 -1 0 792)" d="M136.063 258.9062L275.811 258.9062" stroke="#000000" stroke-width="1" fill="none" /><path id="1787" transform="matrix(1 0 0 -1 0 792)" d="M275.811 258.9062L422.362 258.9062" stroke="#000000" stroke-width="1" fill="none" /><path id="1788" transform="matrix(1 0 0 -1 0 792)" d="M422.3622 258.9062L555.3073 258.9062" stroke="#000000" stroke-width="1" fill="none" /><path id="1789" transform="matrix(1 0 0 -1 0 792)" d="M96.378 268.701L79.335 268.701L79.335 97.33199L96.378 97.33199z" stroke="none" fill="#404042" fill-rule="nonzero" /><path id="1790" transform="matrix(1 0 0 -1 0 792)" d="M83.2953 265.6022C 83.1993 265.6502 83.1033 265.5942 83.1033 265.4822L83.1033 265.4822L83.1033 265.1222C 83.1033 264.9942 83.1833 264.8702 83.2953 264.8222L83.2953 264.8222L85.0593 264.0302C 85.1553 263.9822 85.2153 263.8862 85.2153 263.7902L85.2153 263.7902L85.2153 258.2462C 85.2153 258.1502 85.1553 258.0542 85.0593 258.0062L85.0593 258.0062L83.2953 257.2022C 83.1833 257.1542 83.1033 257.0462 83.1033 256.9022L83.1033 256.9022L83.1033 256.5542C 83.1033 256.4582 83.1993 256.3862 83.2953 256.4342L83.2953 256.4342L92.2713 260.5382C 92.3673 260.6022 92.4633 260.7222 92.4633 260.8502L92.4633 260.8502L92.4633 261.1862C 92.4633 261.3302 92.3673 261.4502 92.2713 261.4982zM86.0433 258.4622C 85.9633 258.4302 85.8873 258.4782 85.8873 258.5582L85.8873 258.5582L85.8873 263.4782C 85.8873 263.5742 85.9633 263.6222 86.0433 263.5742L86.0433 263.5742L91.5393 261.0902C 91.5873 261.0582 91.5873 260.9942 91.5393 260.9462z" stroke="none" fill="#FFFEFE" fill-rule="evenodd" /><path id="1791" transform="matrix(1 0 0 -1 0 792)" d="M87.29131 247.1702C 87.29131 247.0742 87.2193 247.0022 87.1233 247.0022L87.1233 247.0022L85.79131 247.0022C 85.6953 247.0022 85.5713 247.0382 85.4913 247.0862C 84.3553 247.8542 83.6313 249.1062 83.6313 250.5302C 83.6313 252.8342 85.4793 254.6942 87.7833 254.6942C 90.0553 254.6942 91.9353 252.8342 91.9353 250.5302C 91.9353 249.2662 91.3353 248.1062 90.4233 247.3382C 90.3273 247.2582 90.3073 247.1222 90.3873 247.0262L90.3873 247.0262L90.5433 246.7982C 90.5913 246.7022 90.73531 246.6862 90.8313 246.7502C 91.9353 247.6622 92.6433 249.0102 92.6433 250.5302C 92.6433 253.2342 90.4553 255.4142 87.7833 255.4142C 85.0953 255.4142 82.9233 253.2342 82.9233 250.5302C 82.9233 249.1222 83.5513 247.8342 84.5913 247.0502C 84.63931 247.0182 84.6153 246.9542 84.5673 246.9542L84.5673 246.9542L84.5433 246.9422C 84.4633 246.9422 84.31931 246.9302 84.2553 246.9302L84.2553 246.9302L83.31931 246.9302C 83.1913 246.9302 83.1033 246.8422 83.1033 246.7142L83.1033 246.7142L83.1033 246.5462C 83.1033 246.4342 83.1913 246.3302 83.31931 246.3302L83.31931 246.3302L87.6993 246.3302C 87.8113 246.3302 87.9153 246.4342 87.9153 246.5462L87.9153 246.5462L87.9153 250.2062C 87.9153 250.3342 87.8113 250.4222 87.6993 250.4222L87.6993 250.4222L87.5073 250.4222C 87.3793 250.4222 87.29131 250.3342 87.29131 250.2062z" stroke="none" fill="#FFFEFE" fill-rule="evenodd" /><path id="1792" transform="matrix(1 0 0 -1 0 792)" d="M83.31931 243.5342C 83.1913 243.5342 83.1033 243.4462 83.1033 243.3182L83.1033 243.3182L83.1033 243.0422C 83.1033 242.9302 83.1913 242.8262 83.31931 242.8262L83.31931 242.8262L92.2473 242.8262C 92.3593 242.8262 92.4633 242.9302 92.4633 243.0422L92.4633 243.0422L92.4633 243.3182C 92.4633 243.4462 92.3593 243.5342 92.2473 243.5342z" stroke="none" fill="#FFFEFE" fill-rule="evenodd" /><path id="1793" transform="matrix(1 0 0 -1 0 792)" d="M83.1033 233.6462C 83.1033 233.5342 83.1913 233.4302 83.31931 233.4302L83.31931 233.4302L83.58331 233.4302C 83.6953 233.4302 83.7993 233.5342 83.7993 233.6462L83.7993 233.6462L83.7993 238.6742C 83.7993 238.7702 83.8713 238.8422 83.9673 238.8422L83.9673 238.8422L92.2473 238.8422C 92.3593 238.8422 92.4633 238.9462 92.4633 239.0582L92.4633 239.0582L92.4633 239.3342C 92.4633 239.4622 92.3593 239.5502 92.2473 239.5502L92.2473 239.5502L83.31931 239.5502C 83.1913 239.5502 83.1033 239.4622 83.1033 239.3342z" stroke="none" fill="#FFFEFE" fill-rule="evenodd" /><path id="1794" transform="matrix(1 0 0 -1 0 792)" d="M83.31931 231.0902C 83.1913 231.0902 83.1033 231.0022 83.1033 230.8742L83.1033 230.8742L83.1033 230.5982C 83.1033 230.4862 83.1913 230.3822 83.31931 230.3822L83.31931 230.3822L92.2473 230.3822C 92.3593 230.3822 92.4633 230.4862 92.4633 230.5982L92.4633 230.5982L92.4633 230.8742C 92.4633 231.0022 92.3593 231.0902 92.2473 231.0902z" stroke="none" fill="#FFFEFE" fill-rule="evenodd" /><path id="1795" transform="matrix(1 0 0 -1 0 792)" d="M91.7673 224.9222C 91.7673 224.8262 91.6953 224.7542 91.5993 224.7542L91.5993 224.7542L83.31931 224.7542C 83.1913 224.7542 83.1033 224.6662 83.1033 224.5382L83.1033 224.5382L83.1033 224.2622C 83.1033 224.1502 83.1913 224.0462 83.31931 224.0462L83.31931 224.0462L91.5993 224.0462C 91.6953 224.0462 91.7673 223.9742 91.7673 223.8782L91.7673 223.8782L91.7673 220.8782C 91.7673 220.7662 91.8553 220.6622 91.9833 220.6622L91.9833 220.6622L92.2473 220.6622C 92.3593 220.6622 92.4633 220.7662 92.4633 220.8782L92.4633 220.8782L92.4633 227.9102C 92.4633 228.0382 92.3593 228.1262 92.2473 228.1262L92.2473 228.1262L91.9833 228.1262C 91.8553 228.1262 91.7673 228.0382 91.7673 227.9102z" stroke="none" fill="#FFFEFE" fill-rule="evenodd" /><path id="1796" transform="matrix(1 0 0 -1 0 792)" d="M92.4633 219.3542C 92.4633 219.4502 92.3633 219.4982 92.2833 219.4502L92.2833 219.4502L86.6553 215.4302C 86.5593 215.3822 86.4513 215.3342 86.3553 215.3342L86.3553 215.3342L83.31931 215.3342C 83.1913 215.3342 83.1033 215.2462 83.1033 215.1182L83.1033 215.1182L83.1033 214.8422C 83.1033 214.7302 83.1913 214.6262 83.31931 214.6262L83.31931 214.6262L86.3673 214.6262C 86.4633 214.6262 86.5713 214.5942 86.6673 214.5302L86.6673 214.5302L92.2833 210.5102C 92.3633 210.4622 92.4633 210.5102 92.4633 210.6062L92.4633 210.6062L92.4633 211.0262C 92.4633 211.1702 92.3793 211.2982 92.2833 211.3622L92.2833 211.3622L87.37531 214.8902C 87.3113 214.9382 87.3113 215.0342 87.37531 215.0822L87.37531 215.0822L92.2833 218.5982C 92.3793 218.6782 92.4633 218.8062 92.4633 218.9342z" stroke="none" fill="#FFFEFE" fill-rule="evenodd" /><g clip-path="url(#2)"><path id="2734" transform="matrix(1 0 0 -1 0 792)" d="M555.6614 32.702L555.6614 -12.691" stroke="#000000" stroke-width="0.75" stroke-linecap="round" stroke-dasharray="0.75,1.464" fill="none" /><path id="2735" transform="matrix(1 0 0 -1 0 792)" d="M555.6614 -13.7986L555.6614 -13.7986M555.6614 34.9164L555.6614 34.9164" stroke="#000000" stroke-width="0.75" stroke-linecap="round" fill="none" /></g></g></g></svg>