<svg xmlns="http://www.w3.org/2000/svg" xmlns:xlink="http://www.w3.org/1999/xlink" id="body_67" preserveAspectRatio="xMinYMin meet" viewBox="0 0 816 1056"><defs><clipPath id="1"><path id="" clip-rule="evenodd" transform="matrix(1 0 0 1 0 0)" d="M0 792L0 0L0 0L612 0L612 0L612 792L612 792L0 792z" /></clipPath><clipPath id="2"><path id="" clip-rule="evenodd" transform="matrix(1 0 0 1 0 0)" d="M0 0L612 0L612 0L612 792L612 792L0 792z" /></clipPath></defs><g transform="matrix(1.333333 0 0 1.333333 0 0)"><g clip-path="url(#1)"><path id="1" transform="matrix(1 0 0 -1 0 792)" d="M70.866 384.495L99.212 384.495L99.212 196.118L70.866 196.118zM70.866 581.376L99.212 581.376L99.212 392.999L70.866 392.999zM70.866 735.307L99.212 735.307L99.212 589.88L70.866 589.88z" stroke="none" fill="#404042" fill-rule="nonzero" /><path id="2" transform="matrix(1 0 0 -1 0 792)" d="M422.362 581.376L555.307 581.376L555.307 563.077L422.362 563.077zM275.811 581.376L422.362 581.376L422.362 563.077L275.811 563.077zM136.063 581.376L275.811 581.376L275.811 563.077L136.063 563.077zM99.213 581.376L136.063 581.376L136.063 563.077L99.213 563.077zM422.362 735.307L555.307 735.307L555.307 717.008L422.362 717.008zM275.811 735.307L422.362 735.307L422.362 717.008L275.811 717.008zM136.063 735.307L275.811 735.307L275.811 717.008L136.063 717.008zM99.213 735.307L136.063 735.307L136.063 717.008L99.213 717.008z" stroke="none" fill="#EAEBEC" fill-rule="nonzero" /><path id="3" transform="matrix(1 0 0 -1 0 792)" d="M422.362 224.464L555.307 224.464L555.307 196.118L422.362 196.118zM275.811 224.464L422.362 224.464L422.362 196.118L275.811 196.118zM136.063 224.464L275.811 224.464L275.811 196.118L136.063 196.118zM99.213 224.464L136.063 224.464L136.063 196.118L99.213 196.118zM422.362 281.157L555.307 281.157L555.307 252.811L422.362 252.811zM275.811 281.157L422.362 281.157L422.362 252.811L275.811 252.811zM136.063 281.157L275.811 281.157L275.811 252.811L136.063 252.811zM99.213 281.157L136.063 281.157L136.063 252.811L99.213 252.811zM422.362 337.85L555.307 337.85L555.307 309.504L422.362 309.504zM275.811 337.85L422.362 337.85L422.362 309.504L275.811 309.504zM136.063 337.85L275.811 337.85L275.811 309.504L136.063 309.504zM99.213 337.85L136.063 337.85L136.063 309.504L99.213 309.504zM422.362 421.346L555.307 421.346L555.307 393L422.362 393zM275.811 421.346L422.362 421.346L422.362 393L275.811 393zM136.063 421.346L275.811 421.346L275.811 393L136.063 393zM99.213 421.346L136.063 421.346L136.063 393L99.213 393zM422.362 478.038L555.307 478.038L555.307 449.692L422.362 449.692zM275.811 478.038L422.362 478.038L422.362 449.692L275.811 449.692zM136.063 478.038L275.811 478.038L275.811 449.692L136.063 449.692zM99.213 478.038L136.063 478.038L136.063 449.692L99.213 449.692zM422.362 534.731L555.307 534.731L555.307 506.385L422.362 506.385zM275.811 534.731L422.362 534.731L422.362 506.385L275.811 506.385zM136.063 534.731L275.811 534.731L275.811 506.385L136.063 506.385zM99.213 534.731L136.063 534.731L136.063 506.385L99.213 506.385zM422.362 609.723L555.307 609.723L555.307 589.88L422.362 589.88zM275.811 609.723L422.362 609.723L422.362 589.88L275.811 589.88zM136.063 609.723L275.811 609.723L275.811 589.88L136.063 589.88zM99.213 609.723L136.063 609.723L136.063 589.88L99.213 589.88zM422.362 658.762L555.307 658.762L555.307 630.416L422.362 630.416zM275.811 658.762L422.362 658.762L422.362 630.416L275.811 630.416zM136.063 658.762L275.811 658.762L275.811 630.416L136.063 630.416zM99.213 658.762L136.063 658.762L136.063 630.416L99.213 630.416zM422.362 697.03L555.307 697.03L555.307 677.187L422.362 677.187zM275.811 697.03L422.362 697.03L422.362 677.187L275.811 677.187zM136.063 697.03L275.811 697.03L275.811 677.187L136.063 677.187zM99.213 697.03L136.063 697.03L136.063 677.187L99.213 677.187z" stroke="none" fill="#F0F1F1" fill-rule="nonzero" /><path id="4" transform="matrix(1 0 0 -1 0 792)" d="M99.2126 563.0778L136.0626 563.0778" stroke="#000000" stroke-width="1" fill="none" /><path id="5" transform="matrix(1 0 0 -1 0 792)" d="M136.063 563.0778L275.811 563.0778" stroke="#000000" stroke-width="1" fill="none" /><path id="6" transform="matrix(1 0 0 -1 0 792)" d="M275.811 563.0778L422.362 563.0778" stroke="#000000" stroke-width="1" fill="none" /><path id="7" transform="matrix(1 0 0 -1 0 792)" d="M422.3622 563.0778L555.3073 563.0778" stroke="#000000" stroke-width="1" fill="none" /><path id="8" transform="matrix(1 0 0 -1 0 792)" d="M99.2126 717.0086L136.0626 717.0086" stroke="#000000" stroke-width="1" fill="none" /><path id="9" transform="matrix(1 0 0 -1 0 792)" d="M136.063 717.0086L275.811 717.0086" stroke="#000000" stroke-width="1" fill="none" /><path id="10" transform="matrix(1 0 0 -1 0 792)" d="M275.811 717.0086L422.362 717.0086" stroke="#000000" stroke-width="1" fill="none" /><path id="11" transform="matrix(1 0 0 -1 0 792)" d="M422.3622 717.0086L555.3073 717.0086" stroke="#000000" stroke-width="1" fill="none" /><path id="12" transform="matrix(1 0 0 -1 0 792)" d="M96.378 726.803L79.335 726.803L79.335 598.384L96.378 598.384z" stroke="none" fill="#404042" fill-rule="nonzero" /><path id="13" transform="matrix(1 0 0 -1 0 792)" d="M82.9233 719.6246C 82.9233 717.5606 83.8713 716.1926 85.3593 716.1926C 87.1033 716.1926 87.6793 718.1606 88.1433 719.6486C 88.6233 721.1846 89.0433 722.4446 90.2433 722.4446C 91.2513 722.4446 91.9833 721.5446 91.9833 719.8646C 91.9833 718.2487 91.3113 717.2126 90.3513 717.0686C 90.20731 717.0686 90.11131 716.9727 90.11131 716.8286L90.11131 716.8286L90.11131 716.5646C 90.11131 716.4686 90.26331 716.3726 90.37531 716.3726C 91.7193 716.4686 92.6433 717.9126 92.6433 719.8646C 92.6433 721.8966 91.65131 723.1886 90.1953 723.1886C 88.4993 723.1886 87.9233 721.3886 87.4593 719.8526C 86.9793 718.2686 86.5393 716.9486 85.3233 716.9486C 84.3153 716.9486 83.58331 717.8966 83.58331 719.6246C 83.58331 721.3206 84.2433 722.4086 85.2033 722.5526C 85.3313 722.5686 85.4273 722.6606 85.4433 722.8046L85.4433 722.8046L85.4433 723.0086C 85.4433 723.1526 85.3073 723.2646 85.1793 723.2487C 83.8353 723.1526 82.9233 721.6566 82.9233 719.6246z" stroke="none" fill="#FFFEFE" fill-rule="evenodd" /><path id="14" transform="matrix(1 0 0 -1 0 792)" d="M91.7673 711.5006C 91.7673 711.4046 91.6953 711.3326 91.5993 711.3326L91.5993 711.3326L83.31931 711.3326C 83.1913 711.3326 83.1033 711.2446 83.1033 711.1166L83.1033 711.1166L83.1033 710.8406C 83.1033 710.7286 83.1913 710.6246 83.31931 710.6246L83.31931 710.6246L91.5993 710.6246C 91.6953 710.6246 91.7673 710.5526 91.7673 710.4566L91.7673 710.4566L91.7673 707.4566C 91.7673 707.3446 91.8553 707.2406 91.9833 707.2406L91.9833 707.2406L92.2473 707.2406C 92.3593 707.2406 92.4633 707.3446 92.4633 707.4566L92.4633 707.4566L92.4633 714.4886C 92.4633 714.6166 92.3593 714.7047 92.2473 714.7047L92.2473 714.7047L91.9833 714.7047C 91.8553 714.7047 91.7673 714.6166 91.7673 714.4886z" stroke="none" fill="#FFFEFE" fill-rule="evenodd" /><path id="15" transform="matrix(1 0 0 -1 0 792)" d="M83.31931 704.9727C 83.1913 704.9727 83.1033 704.8846 83.1033 704.7567L83.1033 704.7567L83.1033 704.4807C 83.1033 704.3687 83.1913 704.2646 83.31931 704.2646L83.31931 704.2646L86.2473 704.2646C 86.3433 704.2646 86.4153 704.1926 86.4153 704.0966L86.4153 704.0966L86.4153 700.8446C 86.4153 700.7966 86.4153 700.7366 86.4153 700.6886C 86.4153 700.5927 86.3673 700.5366 86.31931 700.4726L86.31931 700.4726L83.2833 698.3126C 83.1713 698.2487 83.1033 698.1206 83.1033 697.9766L83.1033 697.9766L83.1033 697.5446C 83.1033 697.4486 83.1873 697.4006 83.2833 697.4486L83.2833 697.4486L86.4153 699.6926C 86.4793 699.7406 86.5753 699.7126 86.6073 699.6326C 87.05531 698.3687 88.1713 697.6526 89.4513 697.6526C 91.0673 697.6526 92.4633 698.8286 92.4633 700.8446L92.4633 700.8446L92.4633 704.7567C 92.4633 704.8846 92.3593 704.9727 92.2473 704.9727zM89.4393 698.3486C 88.1913 698.3486 87.0873 699.2366 87.0873 700.8687L87.0873 700.8687L87.0873 704.0966C 87.0873 704.1926 87.1593 704.2646 87.2553 704.2646L87.2553 704.2646L91.6233 704.2646C 91.7193 704.2646 91.79131 704.1926 91.79131 704.0966L91.79131 704.0966L91.79131 700.8687C 91.79131 699.2366 90.6713 698.3486 89.4393 698.3486z" stroke="none" fill="#FFFEFE" fill-rule="evenodd" /><path id="16" transform="matrix(1 0 0 -1 0 792)" d="M83.1033 688.6286C 83.1033 688.5166 83.1913 688.4126 83.31931 688.4126L83.31931 688.4126L83.58331 688.4126C 83.6953 688.4126 83.7993 688.5166 83.7993 688.6286L83.7993 688.6286L83.7993 693.9686C 83.7993 694.0646 83.8713 694.1366 83.9673 694.1366L83.9673 694.1366L87.1953 694.1366C 87.29131 694.1366 87.3633 694.0646 87.3633 693.9686L87.3633 693.9686L87.3633 689.4807C 87.3633 689.3687 87.4513 689.2646 87.5793 689.2646L87.5793 689.2646L87.81931 689.2646C 87.9313 689.2646 88.0353 689.3687 88.0353 689.4807L88.0353 689.4807L88.0353 693.9686C 88.0353 694.0646 88.1073 694.1366 88.2033 694.1366L88.2033 694.1366L91.5993 694.1366C 91.6953 694.1366 91.7673 694.0646 91.7673 693.9686L91.7673 693.9686L91.7673 688.6286C 91.7673 688.5166 91.8553 688.4126 91.9833 688.4126L91.9833 688.4126L92.2473 688.4126C 92.3593 688.4126 92.4633 688.5166 92.4633 688.6286L92.4633 688.6286L92.4633 694.6286C 92.4633 694.7567 92.3593 694.8446 92.2473 694.8446L92.2473 694.8446L83.31931 694.8446C 83.1913 694.8446 83.1033 694.7567 83.1033 694.6286z" stroke="none" fill="#FFFEFE" fill-rule="evenodd" /><path id="17" transform="matrix(1 0 0 -1 0 792)" d="M91.0713 685.0166C 91.1193 685.0166 91.1553 684.9566 91.1073 684.9086L91.1073 684.9086L83.2713 678.6686C 83.1593 678.5886 83.1033 678.4646 83.1033 678.3206L83.1033 678.3206L83.1033 678.1166C 83.1033 678.0046 83.1913 677.9006 83.31931 677.9006L83.31931 677.9006L92.2473 677.9006C 92.3593 677.9006 92.4633 678.0046 92.4633 678.1166L92.4633 678.1166L92.4633 678.3926C 92.4633 678.5206 92.3593 678.6086 92.2473 678.6086L92.2473 678.6086L84.4833 678.6086C 84.4193 678.6086 84.3993 678.6846 84.4473 678.7166L84.4473 678.7166L92.2953 684.9566C 92.3913 685.0526 92.4633 685.1766 92.4633 685.3046L92.4633 685.3046L92.4633 685.5086C 92.4633 685.6366 92.3593 685.7246 92.2473 685.7246L92.2473 685.7246L83.31931 685.7246C 83.1913 685.7246 83.1033 685.6366 83.1033 685.5086L83.1033 685.5086L83.1033 685.2326C 83.1033 685.1206 83.1913 685.0166 83.31931 685.0166z" stroke="none" fill="#FFFEFE" fill-rule="evenodd" /><path id="18" transform="matrix(1 0 0 -1 0 792)" d="M87.29131 667.0526C 87.29131 666.9566 87.2193 666.8846 87.1233 666.8846L87.1233 666.8846L85.79131 666.8846C 85.6953 666.8846 85.5713 666.9207 85.4913 666.9686C 84.3553 667.7366 83.6313 668.9886 83.6313 670.4126C 83.6313 672.7166 85.4793 674.5766 87.7833 674.5766C 90.0553 674.5766 91.9353 672.7166 91.9353 670.4126C 91.9353 669.1486 91.3353 667.9886 90.4233 667.2206C 90.3273 667.1406 90.3073 667.0046 90.3873 666.9086L90.3873 666.9086L90.5433 666.6806C 90.5913 666.5846 90.73531 666.5686 90.8313 666.6326C 91.9353 667.5446 92.6433 668.8926 92.6433 670.4126C 92.6433 673.1166 90.4553 675.2966 87.7833 675.2966C 85.0953 675.2966 82.9233 673.1166 82.9233 670.4126C 82.9233 669.0046 83.5513 667.7166 84.5913 666.9326C 84.63931 666.9006 84.6153 666.8366 84.5673 666.8366L84.5673 666.8366L84.5433 666.8246C 84.4633 666.8246 84.31931 666.8126 84.2553 666.8126L84.2553 666.8126L83.31931 666.8126C 83.1913 666.8126 83.1033 666.7246 83.1033 666.5966L83.1033 666.5966L83.1033 666.4286C 83.1033 666.3167 83.1913 666.2126 83.31931 666.2126L83.31931 666.2126L87.6993 666.2126C 87.8113 666.2126 87.9153 666.3167 87.9153 666.4286L87.9153 666.4286L87.9153 670.0886C 87.9153 670.2166 87.8113 670.3046 87.6993 670.3046L87.6993 670.3046L87.5073 670.3046C 87.3793 670.3046 87.29131 670.2166 87.29131 670.0886z" stroke="none" fill="#FFFEFE" fill-rule="evenodd" /><path id="19" transform="matrix(1 0 0 -1 0 792)" d="M91.7673 661.7006C 91.7673 661.6046 91.6953 661.5327 91.5993 661.5327L91.5993 661.5327L83.31931 661.5327C 83.1913 661.5327 83.1033 661.4446 83.1033 661.3167L83.1033 661.3167L83.1033 661.0406C 83.1033 660.9286 83.1913 660.8246 83.31931 660.8246L83.31931 660.8246L91.5993 660.8246C 91.6953 660.8246 91.7673 660.7526 91.7673 660.6566L91.7673 660.6566L91.7673 657.6566C 91.7673 657.5446 91.8553 657.4406 91.9833 657.4406L91.9833 657.4406L92.2473 657.4406C 92.3593 657.4406 92.4633 657.5446 92.4633 657.6566L92.4633 657.6566L92.4633 664.6887C 92.4633 664.8167 92.3593 664.9047 92.2473 664.9047L92.2473 664.9047L91.9833 664.9047C 91.8553 664.9047 91.7673 664.8167 91.7673 664.6887z" stroke="none" fill="#FFFEFE" fill-rule="evenodd" /><path id="20" transform="matrix(1 0 0 -1 0 792)" d="M88.2033 648.0327C 88.1073 648.0327 88.0353 648.1046 88.0353 648.2006L88.0353 648.2006L88.0353 654.2966C 88.0353 654.3926 88.1073 654.4647 88.2033 654.4647L88.2033 654.4647L92.2473 654.4647C 92.3593 654.4647 92.4633 654.5687 92.4633 654.6807L92.4633 654.6807L92.4633 654.9567C 92.4633 655.0847 92.3593 655.1726 92.2473 655.1726L92.2473 655.1726L83.31931 655.1726C 83.1913 655.1726 83.1033 655.0847 83.1033 654.9567L83.1033 654.9567L83.1033 654.6807C 83.1033 654.5687 83.1913 654.4647 83.31931 654.4647L83.31931 654.4647L87.1953 654.4647C 87.29131 654.4647 87.3633 654.3926 87.3633 654.2966L87.3633 654.2966L87.3633 648.2006C 87.3633 648.1046 87.29131 648.0327 87.1953 648.0327L87.1953 648.0327L83.31931 648.0327C 83.1913 648.0327 83.1033 647.9446 83.1033 647.8167L83.1033 647.8167L83.1033 647.5406C 83.1033 647.4286 83.1913 647.3246 83.31931 647.3246L83.31931 647.3246L92.2473 647.3246C 92.3593 647.3246 92.4633 647.4286 92.4633 647.5406L92.4633 647.5406L92.4633 647.8167C 92.4633 647.9446 92.3593 648.0327 92.2473 648.0327z" stroke="none" fill="#FFFEFE" fill-rule="evenodd" /><path id="470" transform="matrix(1 0 0 -1 0 792)" d="M96.378 572.872L79.335 572.872L79.335 401.503L96.378 401.503z" stroke="none" fill="#404042" fill-rule="nonzero" /><path id="471" transform="matrix(1 0 0 -1 0 792)" d="M83.1033 568.2018C 83.1033 568.0898 83.1913 567.9858 83.31931 567.9858L83.31931 567.9858L86.8833 567.9858C 86.9793 567.9858 87.0513 567.9138 87.0513 567.8178L87.0513 567.8178L87.0513 563.4498C 87.0513 563.3378 87.13931 563.2338 87.2673 563.2338L87.2673 563.2338L87.5073 563.2338C 87.6193 563.2338 87.7233 563.3378 87.7233 563.4498L87.7233 563.4498L87.7233 567.8178C 87.7233 567.9138 87.7953 567.9858 87.8913 567.9858L87.8913 567.9858L91.5993 567.9858C 91.6953 567.9858 91.7673 567.9138 91.7673 567.8178L91.7673 567.8178L91.7673 562.7178C 91.7673 562.6058 91.8553 562.5018 91.9833 562.5018L91.9833 562.5018L92.2473 562.5018C 92.3593 562.5018 92.4633 562.6058 92.4633 562.7178L92.4633 562.7178L92.4633 568.4778C 92.4633 568.6058 92.3593 568.6938 92.2473 568.6938L92.2473 568.6938L83.31931 568.6938C 83.1913 568.6938 83.1033 568.6058 83.1033 568.4778z" stroke="none" fill="#FFFEFE" fill-rule="evenodd" /><path id="472" transform="matrix(1 0 0 -1 0 792)" d="M83.31931 559.8738C 83.1913 559.8738 83.1033 559.7858 83.1033 559.6578L83.1033 559.6578L83.1033 559.3818C 83.1033 559.2698 83.1913 559.1658 83.31931 559.1658L83.31931 559.1658L92.2473 559.1658C 92.3593 559.1658 92.4633 559.2698 92.4633 559.3818L92.4633 559.3818L92.4633 559.6578C 92.4633 559.7858 92.3593 559.8738 92.2473 559.8738z" stroke="none" fill="#FFFEFE" fill-rule="evenodd" /><path id="473" transform="matrix(1 0 0 -1 0 792)" d="M91.0713 555.1818C 91.1193 555.1818 91.1553 555.1218 91.1073 555.0738L91.1073 555.0738L83.2713 548.8338C 83.1593 548.7538 83.1033 548.6298 83.1033 548.4858L83.1033 548.4858L83.1033 548.2818C 83.1033 548.1698 83.1913 548.0658 83.31931 548.0658L83.31931 548.0658L92.2473 548.0658C 92.3593 548.0658 92.4633 548.1698 92.4633 548.2818L92.4633 548.2818L92.4633 548.5578C 92.4633 548.6858 92.3593 548.7738 92.2473 548.7738L92.2473 548.7738L84.4833 548.7738C 84.4193 548.7738 84.3993 548.8498 84.4473 548.8818L84.4473 548.8818L92.2953 555.1218C 92.3913 555.2178 92.4633 555.3418 92.4633 555.4698L92.4633 555.4698L92.4633 555.6738C 92.4633 555.8018 92.3593 555.8898 92.2473 555.8898L92.2473 555.8898L83.31931 555.8898C 83.1913 555.8898 83.1033 555.8018 83.1033 555.6738L83.1033 555.6738L83.1033 555.3978C 83.1033 555.2858 83.1913 555.1818 83.31931 555.1818z" stroke="none" fill="#FFFEFE" fill-rule="evenodd" /><path id="474" transform="matrix(1 0 0 -1 0 792)" d="M83.1033 538.5738C 83.1033 538.4618 83.1913 538.3578 83.31931 538.3578L83.31931 538.3578L83.58331 538.3578C 83.6953 538.3578 83.7993 538.4618 83.7993 538.5738L83.7993 538.5738L83.7993 543.9138C 83.7993 544.0098 83.8713 544.0818 83.9673 544.0818L83.9673 544.0818L87.1953 544.0818C 87.29131 544.0818 87.3633 544.0098 87.3633 543.9138L87.3633 543.9138L87.3633 539.4258C 87.3633 539.3138 87.4513 539.2098 87.5793 539.2098L87.5793 539.2098L87.81931 539.2098C 87.9313 539.2098 88.0353 539.3138 88.0353 539.4258L88.0353 539.4258L88.0353 543.9138C 88.0353 544.0098 88.1073 544.0818 88.2033 544.0818L88.2033 544.0818L91.5993 544.0818C 91.6953 544.0818 91.7673 544.0098 91.7673 543.9138L91.7673 543.9138L91.7673 538.5738C 91.7673 538.4618 91.8553 538.3578 91.9833 538.3578L91.9833 538.3578L92.2473 538.3578C 92.3593 538.3578 92.4633 538.4618 92.4633 538.5738L92.4633 538.5738L92.4633 544.5738C 92.4633 544.7018 92.3593 544.7898 92.2473 544.7898L92.2473 544.7898L83.31931 544.7898C 83.1913 544.7898 83.1033 544.7018 83.1033 544.5738z" stroke="none" fill="#FFFEFE" fill-rule="evenodd" /><path id="475" transform="matrix(1 0 0 -1 0 792)" d="M82.9233 532.9098C 82.9233 530.8458 83.8713 529.4778 85.3593 529.4778C 87.1033 529.4778 87.6793 531.4458 88.1433 532.9338C 88.6233 534.4698 89.0433 535.7298 90.2433 535.7298C 91.2513 535.7298 91.9833 534.8298 91.9833 533.1498C 91.9833 531.5338 91.3113 530.4978 90.3513 530.3538C 90.20731 530.3538 90.11131 530.2578 90.11131 530.1138L90.11131 530.1138L90.11131 529.8498C 90.11131 529.7538 90.26331 529.6578 90.37531 529.6578C 91.7193 529.7538 92.6433 531.1978 92.6433 533.1498C 92.6433 535.1818 91.65131 536.4738 90.1953 536.4738C 88.4993 536.4738 87.9233 534.6738 87.4593 533.1378C 86.9793 531.5538 86.5393 530.2338 85.3233 530.2338C 84.3153 530.2338 83.58331 531.1818 83.58331 532.9098C 83.58331 534.6058 84.2433 535.6938 85.2033 535.8378C 85.3313 535.8538 85.4273 535.9458 85.4433 536.0898L85.4433 536.0898L85.4433 536.2938C 85.4433 536.4378 85.3073 536.5498 85.1793 536.5338C 83.8353 536.4378 82.9233 534.9418 82.9233 532.9098z" stroke="none" fill="#FFFEFE" fill-rule="evenodd" /><path id="476" transform="matrix(1 0 0 -1 0 792)" d="M82.9233 523.8618C 82.9233 521.7978 83.8713 520.4298 85.3593 520.4298C 87.1033 520.4298 87.6793 522.3978 88.1433 523.8858C 88.6233 525.4218 89.0433 526.6818 90.2433 526.6818C 91.2513 526.6818 91.9833 525.7818 91.9833 524.1018C 91.9833 522.4858 91.3113 521.4498 90.3513 521.3058C 90.20731 521.3058 90.11131 521.2098 90.11131 521.0658L90.11131 521.0658L90.11131 520.8018C 90.11131 520.7058 90.26331 520.6098 90.37531 520.6098C 91.7193 520.7058 92.6433 522.1498 92.6433 524.1018C 92.6433 526.1338 91.65131 527.4258 90.1953 527.4258C 88.4993 527.4258 87.9233 525.6258 87.4593 524.0898C 86.9793 522.5058 86.5393 521.1858 85.3233 521.1858C 84.3153 521.1858 83.58331 522.1338 83.58331 523.8618C 83.58331 525.5578 84.2433 526.6458 85.2033 526.7898C 85.3313 526.8058 85.4273 526.8978 85.4433 527.0418L85.4433 527.0418L85.4433 527.2458C 85.4433 527.3898 85.3073 527.5018 85.1793 527.4858C 83.8353 527.3898 82.9233 525.8938 82.9233 523.8618z" stroke="none" fill="#FFFEFE" fill-rule="evenodd" /><path id="477" transform="matrix(1 0 0 -1 0 792)" d="M83.1033 511.5978C 83.1033 511.4858 83.1913 511.3818 83.31931 511.3818L83.31931 511.3818L83.58331 511.3818C 83.6953 511.3818 83.7993 511.4858 83.7993 511.5978L83.7993 511.5978L83.7993 516.9378C 83.7993 517.0338 83.8713 517.1058 83.9673 517.1058L83.9673 517.1058L87.1953 517.1058C 87.29131 517.1058 87.3633 517.0338 87.3633 516.9378L87.3633 516.9378L87.3633 512.4498C 87.3633 512.3378 87.4513 512.2338 87.5793 512.2338L87.5793 512.2338L87.81931 512.2338C 87.9313 512.2338 88.0353 512.3378 88.0353 512.4498L88.0353 512.4498L88.0353 516.9378C 88.0353 517.0338 88.1073 517.1058 88.2033 517.1058L88.2033 517.1058L91.5993 517.1058C 91.6953 517.1058 91.7673 517.0338 91.7673 516.9378L91.7673 516.9378L91.7673 511.5978C 91.7673 511.4858 91.8553 511.3818 91.9833 511.3818L91.9833 511.3818L92.2473 511.3818C 92.3593 511.3818 92.4633 511.4858 92.4633 511.5978L92.4633 511.5978L92.4633 517.5978C 92.4633 517.7258 92.3593 517.8138 92.2473 517.8138L92.2473 517.8138L83.31931 517.8138C 83.1913 517.8138 83.1033 517.7258 83.1033 517.5978z" stroke="none" fill="#FFFEFE" fill-rule="evenodd" /><path id="1132" transform="matrix(1 0 0 -1 0 792)" d="M96.378 375.991L79.335 375.991L79.335 204.622L96.378 204.622z" stroke="none" fill="#404042" fill-rule="nonzero" /><path id="1133" transform="matrix(1 0 0 -1 0 792)" d="M83.31931 371.8125C 83.1913 371.8125 83.1033 371.7245 83.1033 371.5965L83.1033 371.5965L83.1033 371.3205C 83.1033 371.2085 83.1913 371.1045 83.31931 371.1045L83.31931 371.1045L92.2473 371.1045C 92.3593 371.1045 92.4633 371.2085 92.4633 371.3205L92.4633 371.3205L92.4633 371.5965C 92.4633 371.7245 92.3593 371.8125 92.2473 371.8125z" stroke="none" fill="#FFFEFE" fill-rule="evenodd" /><path id="1134" transform="matrix(1 0 0 -1 0 792)" d="M91.0713 367.1205C 91.1193 367.1205 91.1553 367.0605 91.1073 367.0125L91.1073 367.0125L83.2713 360.7725C 83.1593 360.6925 83.1033 360.5685 83.1033 360.4245L83.1033 360.4245L83.1033 360.2205C 83.1033 360.1085 83.1913 360.0045 83.31931 360.0045L83.31931 360.0045L92.2473 360.0045C 92.3593 360.0045 92.4633 360.1085 92.4633 360.2205L92.4633 360.2205L92.4633 360.4965C 92.4633 360.6245 92.3593 360.7125 92.2473 360.7125L92.2473 360.7125L84.4833 360.7125C 84.4193 360.7125 84.3993 360.7885 84.4473 360.8205L84.4473 360.8205L92.2953 367.0605C 92.3913 367.1565 92.4633 367.2805 92.4633 367.4085L92.4633 367.4085L92.4633 367.6125C 92.4633 367.7405 92.3593 367.8285 92.2473 367.8285L92.2473 367.8285L83.31931 367.8285C 83.1913 367.8285 83.1033 367.7405 83.1033 367.6125L83.1033 367.6125L83.1033 367.3365C 83.1033 367.2245 83.1913 367.1205 83.31931 367.1205z" stroke="none" fill="#FFFEFE" fill-rule="evenodd" /><path id="1135" transform="matrix(1 0 0 -1 0 792)" d="M82.9233 353.7285C 82.9233 351.6645 83.8713 350.2965 85.3593 350.2965C 87.1033 350.2965 87.6793 352.2645 88.1433 353.7525C 88.6233 355.2885 89.0433 356.5485 90.2433 356.5485C 91.2513 356.5485 91.9833 355.6485 91.9833 353.9685C 91.9833 352.3525 91.3113 351.3165 90.3513 351.1725C 90.20731 351.1725 90.11131 351.0765 90.11131 350.9325L90.11131 350.9325L90.11131 350.6685C 90.11131 350.5725 90.26331 350.4765 90.37531 350.4765C 91.7193 350.5725 92.6433 352.0165 92.6433 353.9685C 92.6433 356.0005 91.65131 357.2925 90.1953 357.2925C 88.4993 357.2925 87.9233 355.4925 87.4593 353.9565C 86.9793 352.3725 86.5393 351.0525 85.3233 351.0525C 84.3153 351.0525 83.58331 352.0005 83.58331 353.7285C 83.58331 355.4245 84.2433 356.5125 85.2033 356.6565C 85.3313 356.6725 85.4273 356.7645 85.4433 356.9085L85.4433 356.9085L85.4433 357.1125C 85.4433 357.2565 85.3073 357.3685 85.1793 357.3525C 83.8353 357.2565 82.9233 355.7605 82.9233 353.7285z" stroke="none" fill="#FFFEFE" fill-rule="evenodd" /><path id="1136" transform="matrix(1 0 0 -1 0 792)" d="M91.7673 345.6045C 91.7673 345.5085 91.6953 345.4365 91.5993 345.4365L91.5993 345.4365L83.31931 345.4365C 83.1913 345.4365 83.1033 345.3485 83.1033 345.2205L83.1033 345.2205L83.1033 344.9445C 83.1033 344.8325 83.1913 344.7285 83.31931 344.7285L83.31931 344.7285L91.5993 344.7285C 91.6953 344.7285 91.7673 344.6565 91.7673 344.5605L91.7673 344.5605L91.7673 341.5605C 91.7673 341.4485 91.8553 341.3445 91.9833 341.3445L91.9833 341.3445L92.2473 341.3445C 92.3593 341.3445 92.4633 341.4485 92.4633 341.5605L92.4633 341.5605L92.4633 348.5925C 92.4633 348.7205 92.3593 348.8085 92.2473 348.8085L92.2473 348.8085L91.9833 348.8085C 91.8553 348.8085 91.7673 348.7205 91.7673 348.5925z" stroke="none" fill="#FFFEFE" fill-rule="evenodd" /><path id="1137" transform="matrix(1 0 0 -1 0 792)" d="M83.31931 339.0765C 83.1913 339.0765 83.1033 338.9885 83.1033 338.8605L83.1033 338.8605L83.1033 338.5845C 83.1033 338.4725 83.1913 338.3685 83.31931 338.3685L83.31931 338.3685L92.2473 338.3685C 92.3593 338.3685 92.4633 338.4725 92.4633 338.5845L92.4633 338.5845L92.4633 338.8605C 92.4633 338.9885 92.3593 339.0765 92.2473 339.0765z" stroke="none" fill="#FFFEFE" fill-rule="evenodd" /><path id="1138" transform="matrix(1 0 0 -1 0 792)" d="M91.0713 334.3845C 91.1193 334.3845 91.1553 334.3245 91.1073 334.2765L91.1073 334.2765L83.2713 328.0365C 83.1593 327.9565 83.1033 327.8325 83.1033 327.6885L83.1033 327.6885L83.1033 327.4845C 83.1033 327.3725 83.1913 327.2685 83.31931 327.2685L83.31931 327.2685L92.2473 327.2685C 92.3593 327.2685 92.4633 327.3725 92.4633 327.4845L92.4633 327.4845L92.4633 327.7605C 92.4633 327.8885 92.3593 327.9765 92.2473 327.9765L92.2473 327.9765L84.4833 327.9765C 84.4193 327.9765 84.3993 328.0525 84.4473 328.0845L84.4473 328.0845L92.2953 334.3245C 92.3913 334.4205 92.4633 334.5445 92.4633 334.6725L92.4633 334.6725L92.4633 334.8765C 92.4633 335.0045 92.3593 335.0925 92.2473 335.0925L92.2473 335.0925L83.31931 335.0925C 83.1913 335.0925 83.1033 335.0045 83.1033 334.8765L83.1033 334.8765L83.1033 334.6005C 83.1033 334.4885 83.1913 334.3845 83.31931 334.3845z" stroke="none" fill="#FFFEFE" fill-rule="evenodd" /><path id="1139" transform="matrix(1 0 0 -1 0 792)" d="M83.6313 319.7805C 83.6313 322.0845 85.4793 323.9445 87.7833 323.9445C 90.0553 323.9445 91.9353 322.0845 91.9353 319.7805C 91.9353 318.3565 91.2153 317.1165 90.11131 316.3485C 89.9993 316.2845 89.9753 316.1485 90.0393 316.0365L90.0393 316.0365L90.1713 315.7965C 90.2193 315.7005 90.3513 315.6765 90.4473 315.7245C 91.7593 316.5885 92.6433 318.1005 92.6433 319.7805C 92.6433 322.4845 90.4553 324.6645 87.7833 324.6645C 85.0953 324.6645 82.9233 322.4845 82.9233 319.7805C 82.9233 318.0845 83.79131 316.5765 85.1193 315.7125C 85.1993 315.6645 85.34731 315.6885 85.3953 315.7845L85.3953 315.7845L85.5393 316.0365C 85.5873 316.1485 85.5633 316.2845 85.4673 316.3485C 84.34731 317.1005 83.6313 318.3565 83.6313 319.7805z" stroke="none" fill="#FFFEFE" fill-rule="evenodd" /><path id="1140" transform="matrix(1 0 0 -1 0 792)" d="M91.7673 311.1525C 91.7673 311.0565 91.6953 310.9845 91.5993 310.9845L91.5993 310.9845L83.31931 310.9845C 83.1913 310.9845 83.1033 310.8965 83.1033 310.7685L83.1033 310.7685L83.1033 310.4925C 83.1033 310.3805 83.1913 310.2765 83.31931 310.2765L83.31931 310.2765L91.5993 310.2765C 91.6953 310.2765 91.7673 310.2045 91.7673 310.1085L91.7673 310.1085L91.7673 307.1085C 91.7673 306.9965 91.8553 306.8925 91.9833 306.8925L91.9833 306.8925L92.2473 306.8925C 92.3593 306.8925 92.4633 306.9965 92.4633 307.1085L92.4633 307.1085L92.4633 314.1405C 92.4633 314.2685 92.3593 314.3565 92.2473 314.3565L92.2473 314.3565L91.9833 314.3565C 91.8553 314.3565 91.7673 314.2685 91.7673 314.1405z" stroke="none" fill="#FFFEFE" fill-rule="evenodd" /><g clip-path="url(#2)"><path id="1977" transform="matrix(1 0 0 -1 0 792)" d="M555.6614 32.702L555.6614 -12.691" stroke="#000000" stroke-width="0.75" stroke-linecap="round" stroke-dasharray="0.75,1.464" fill="none" /><path id="1978" transform="matrix(1 0 0 -1 0 792)" d="M555.6614 -13.7986L555.6614 -13.7986M555.6614 34.9164L555.6614 34.9164" stroke="#000000" stroke-width="0.75" stroke-linecap="round" fill="none" /></g></g></g></svg>