<svg xmlns="http://www.w3.org/2000/svg" xmlns:xlink="http://www.w3.org/1999/xlink" id="body_78" preserveAspectRatio="xMinYMin meet" viewBox="0 0 816 1056"><defs><clipPath id="1"><path id="" clip-rule="evenodd" transform="matrix(1 0 0 1 0 0)" d="M0 792L0 0L0 0L612 0L612 0L612 792L612 792L0 792z" /></clipPath><clipPath id="2"><path id="" clip-rule="evenodd" transform="matrix(1 0 0 1 0 0)" d="M56.693 252.678L293.244 252.678L293.244 252.678L293.244 56.69299L293.244 56.69299L56.693 56.69299z" /></clipPath><clipPath id="3"><path id="" clip-rule="evenodd" transform="matrix(1 0 0 1 0 0)" d="M47.693 48.69299L302.244 48.69299L302.244 48.69299L302.244 255.385L302.244 255.385L47.693 255.385z" /></clipPath><clipPath id="4"><path id="" clip-rule="evenodd" transform="matrix(1 0 0 1 0 0)" d="M56.693 452.837L293.244 452.837L293.244 452.837L293.244 260.764L293.244 260.764L56.693 260.764z" /></clipPath><clipPath id="5"><path id="" clip-rule="evenodd" transform="matrix(1 0 0 1 0 0)" d="M47.693 252.763L302.244 252.763L302.244 252.763L302.244 450.455L302.244 450.455L47.693 450.455z" /></clipPath><clipPath id="6"><path id="" clip-rule="evenodd" transform="matrix(1 0 0 1 0 0)" d="M56.693 680.53L293.244 680.53L293.244 680.53L293.244 460.868L293.244 460.868L56.693 460.868z" /></clipPath><clipPath id="7"><path id="" clip-rule="evenodd" transform="matrix(1 0 0 1 0 0)" d="M47.693 452.957L302.244 452.957L302.244 452.957L302.244 669.149L302.244 669.149L47.693 669.149z" /></clipPath><clipPath id="8"><path id="" clip-rule="evenodd" transform="matrix(1 0 0 1 0 0)" d="M304.914 274.961L541.465 274.961L541.465 274.961L541.465 56.69299L541.465 56.69299L304.914 56.69299z" /></clipPath><clipPath id="9"><path id="" clip-rule="evenodd" transform="matrix(1 0 0 1 0 0)" d="M295.913 48.91803L550.465 48.91803L550.465 48.91803L550.465 277.444L550.465 277.444L295.913 277.444z" /></clipPath><clipPath id="10"><path id="" clip-rule="evenodd" transform="matrix(1 0 0 1 0 0)" d="M304.914 471.667L541.465 471.667L541.465 471.667L541.465 285.184L541.465 285.184L304.914 285.184z" /></clipPath><clipPath id="11"><path id="" clip-rule="evenodd" transform="matrix(1 0 0 1 0 0)" d="M295.913 277.184L550.465 277.184L550.465 277.184L550.465 474.376L550.465 474.376L295.913 474.376z" /></clipPath><clipPath id="12"><path id="" clip-rule="evenodd" transform="matrix(1 0 0 1 0 0)" d="M304.914 629.807L541.465 629.807L541.465 629.807L541.465 482.24L541.465 482.24L304.914 482.24z" /></clipPath><clipPath id="13"><path id="" clip-rule="evenodd" transform="matrix(1 0 0 1 0 0)" d="M295.913 474.24L550.465 474.24L550.465 474.24L550.465 632.515L550.465 632.515L295.913 632.515z" /></clipPath><clipPath id="14"><path id="" clip-rule="evenodd" transform="matrix(1 0 0 1 0 0)" d="M0 0L612 0L612 0L612 792L612 792L0 792z" /></clipPath></defs><g transform="matrix(1.333333 0 0 1.333333 0 0)"><g clip-path="url(#1)"><path id="1" transform="matrix(1 0 0 -1 0 792)" d="M59.5278 735.3072L56.6928 732.4722L56.6928 542.1582L59.5278 539.3232L290.4098 539.3232L293.2438 542.1582L293.2438 732.4722L290.4098 735.3072z" stroke="none" fill="#EAEBEC" fill-rule="nonzero" /><path id="2" transform="matrix(1 0 0 -1 0 792)" d="M62.862 647.414L287.075 647.414L287.075 672.918L62.862 672.918z" stroke="none" fill="#FFFEFE" fill-rule="nonzero" /><path id="3" transform="matrix(1 0 0 -1 0 792)" d="M62.8623 672.9178L287.0753 672.9178" stroke="#939597" stroke-width="0.5" fill="none" /><path id="4" transform="matrix(1 0 0 -1 0 792)" d="M62.862 632.745L287.075 632.745L287.075 652.084L62.862 652.084z" stroke="none" fill="#FFFEFE" fill-rule="nonzero" /><path id="5" transform="matrix(1 0 0 -1 0 792)" d="M63.8814 647.8312L286.5654 647.8312" stroke="#BBBDC0" stroke-width="0.51" stroke-linecap="round" stroke-dasharray="0.51,0.51" fill="none" /><path id="6" transform="matrix(1 0 0 -1 0 792)" d="M287.0753 647.8312L287.0753 647.8312M62.8623 647.8312L62.8623 647.8312" stroke="#BBBDC0" stroke-width="0.51" stroke-linecap="round" fill="none" /><path id="7" transform="matrix(1 0 0 -1 0 792)" d="M62.8623 632.5143L286.5233 632.5143" stroke="#939597" stroke-width="0.5" fill="none" /><g clip-path="url(#2)"><g><g clip-path="url(#3)"><path id="562" transform="matrix(1 0 0 -1 0 792)" d="M59.6311 735.0571C 58.7351 734.1611 57.8391 733.2651 56.9431 732.3691L56.9431 732.3691L56.9431 542.2611C 57.8391 541.3651 58.7351 540.4691 59.6311 539.5731L59.6311 539.5731L290.3061 539.5731C 291.2021 540.4691 292.0981 541.3651 292.9941 542.2611L292.9941 542.2611L292.9941 732.3691C 292.0981 733.2651 291.2021 734.1611 290.3061 735.0571L290.3061 735.0571L59.6311 735.0571z" stroke="#000000" stroke-width="0.5" fill="none" stroke-opacity="0.4980392" /></g></g></g><path id="563" transform="matrix(1 0 0 -1 0 792)" d="M59.5278 531.2367L56.6928 528.4017L56.6928 347.0877L59.5278 344.2527L290.4098 344.2527L293.2438 347.0877L293.2438 528.4017L290.4098 531.2367z" stroke="none" fill="#EAEBEC" fill-rule="nonzero" /><path id="564" transform="matrix(1 0 0 -1 0 792)" d="M62.862 452.343L287.075 452.343L287.075 477.847L62.862 477.847z" stroke="none" fill="#FFFEFE" fill-rule="nonzero" /><path id="565" transform="matrix(1 0 0 -1 0 792)" d="M62.8623 477.8472L287.0753 477.8472" stroke="#939597" stroke-width="0.5" fill="none" /><path id="566" transform="matrix(1 0 0 -1 0 792)" d="M62.862 437.674L287.075 437.674L287.075 457.013L62.862 457.013z" stroke="none" fill="#FFFEFE" fill-rule="nonzero" /><path id="567" transform="matrix(1 0 0 -1 0 792)" d="M63.8814 452.7606L286.5654 452.7606" stroke="#BBBDC0" stroke-width="0.51" stroke-linecap="round" stroke-dasharray="0.51,0.51" fill="none" /><path id="568" transform="matrix(1 0 0 -1 0 792)" d="M287.0753 452.7606L287.0753 452.7606M62.8623 452.7606L62.8623 452.7606" stroke="#BBBDC0" stroke-width="0.51" stroke-linecap="round" fill="none" /><path id="569" transform="matrix(1 0 0 -1 0 792)" d="M62.8623 437.4437L286.5233 437.4437" stroke="#939597" stroke-width="0.5" fill="none" /><g clip-path="url(#4)"><g><g clip-path="url(#5)"><path id="1160" transform="matrix(1 0 0 -1 0 792)" d="M59.6311 530.9865C 58.7351 530.0905 57.8391 529.1945 56.9431 528.2985L56.9431 528.2985L56.9431 347.1905C 57.8391 346.2945 58.7351 345.3985 59.6311 344.5025L59.6311 344.5025L290.3061 344.5025L290.3061 344.5025L292.9941 347.1905L292.9941 347.1905L292.9941 528.2985C 292.0981 529.1945 291.2021 530.0905 290.3061 530.9865L290.3061 530.9865L59.6311 530.9865z" stroke="#000000" stroke-width="0.5" fill="none" stroke-opacity="0.4980392" /></g></g></g><path id="1161" transform="matrix(1 0 0 -1 0 792)" d="M59.5278 331.0434L56.6928 328.2084L56.6928 128.3944L59.5278 125.5604L290.4098 125.5604L293.2438 128.3944L293.2438 328.2084L290.4098 331.0434z" stroke="none" fill="#EAEBEC" fill-rule="nonzero" /><path id="1162" transform="matrix(1 0 0 -1 0 792)" d="M62.862 243.15L287.075 243.15L287.075 268.654L62.862 268.654z" stroke="none" fill="#FFFEFE" fill-rule="nonzero" /><path id="1163" transform="matrix(1 0 0 -1 0 792)" d="M62.8623 268.6539L287.0753 268.6539" stroke="#939597" stroke-width="0.5" fill="none" /><path id="1164" transform="matrix(1 0 0 -1 0 792)" d="M62.862 228.481L287.075 228.481L287.075 247.82L62.862 247.82z" stroke="none" fill="#FFFEFE" fill-rule="nonzero" /><path id="1165" transform="matrix(1 0 0 -1 0 792)" d="M63.8814 243.5673L286.5654 243.5673" stroke="#BBBDC0" stroke-width="0.51" stroke-linecap="round" stroke-dasharray="0.51,0.51" fill="none" /><path id="1166" transform="matrix(1 0 0 -1 0 792)" d="M287.0753 243.5673L287.0753 243.5673M62.8623 243.5673L62.8623 243.5673" stroke="#BBBDC0" stroke-width="0.51" stroke-linecap="round" fill="none" /><path id="1167" transform="matrix(1 0 0 -1 0 792)" d="M62.8623 228.2504L286.5233 228.2504" stroke="#939597" stroke-width="0.5" fill="none" /><g clip-path="url(#6)"><g><g clip-path="url(#7)"><path id="1773" transform="matrix(1 0 0 -1 0 792)" d="M59.6311 330.7932C 58.7351 329.8972 57.8391 329.0012 56.9431 328.1052L56.9431 328.1052L56.9431 128.4972L56.9431 128.4972L59.6311 125.8092L59.6311 125.8092L290.3061 125.8092C 291.2021 126.7052 292.0981 127.6012 292.9941 128.4972L292.9941 128.4972L292.9941 328.1052L292.9941 328.1052L290.3061 330.7932L290.3061 330.7932L59.6311 330.7932z" stroke="#000000" stroke-width="0.5" fill="none" stroke-opacity="0.4980392" /></g></g></g><path id="1774" transform="matrix(1 0 0 -1 0 792)" d="M307.7478 735.0822L304.9138 732.2482L304.9138 520.0982L307.7478 517.2642L538.6298 517.2642L541.4638 520.0982L541.4638 732.2482L538.6298 735.0822z" stroke="none" fill="#EAEBEC" fill-rule="nonzero" /><path id="1775" transform="matrix(1 0 0 -1 0 792)" d="M311.083 647.189L535.296 647.189L535.296 672.6931L311.083 672.6931z" stroke="none" fill="#FFFEFE" fill-rule="nonzero" /><path id="1776" transform="matrix(1 0 0 -1 0 792)" d="M311.0827 672.6932L535.2957 672.6932" stroke="#939597" stroke-width="0.5" fill="none" /><path id="1777" transform="matrix(1 0 0 -1 0 792)" d="M311.083 632.52L535.296 632.52L535.296 651.859L311.083 651.859z" stroke="none" fill="#FFFEFE" fill-rule="nonzero" /><path id="1778" transform="matrix(1 0 0 -1 0 792)" d="M312.1018 647.6066L534.7858 647.6066" stroke="#BBBDC0" stroke-width="0.51" stroke-linecap="round" stroke-dasharray="0.51,0.51" fill="none" /><path id="1779" transform="matrix(1 0 0 -1 0 792)" d="M535.2957 647.6066L535.2957 647.6066M311.0827 647.6066L311.0827 647.6066" stroke="#BBBDC0" stroke-width="0.51" stroke-linecap="round" fill="none" /><path id="1780" transform="matrix(1 0 0 -1 0 792)" d="M311.0827 632.2897L534.7437 632.2897" stroke="#939597" stroke-width="0.5" fill="none" /><g clip-path="url(#8)"><g><g clip-path="url(#9)"><path id="2434" transform="matrix(1 0 0 -1 0 792)" d="M307.8516 734.8325C 306.9556 733.9365 306.0596 733.0405 305.1636 732.1445L305.1636 732.1445L305.1636 520.2025C 306.0596 519.3065 306.9556 518.4105 307.8516 517.5145L307.8516 517.5145L538.5266 517.5145C 539.4226 518.4105 540.3186 519.3065 541.2146 520.2025L541.2146 520.2025L541.2146 732.1445L541.2146 732.1445L538.5266 734.8325L538.5266 734.8325L307.8516 734.8325z" stroke="#000000" stroke-width="0.5" fill="none" stroke-opacity="0.4980392" /></g></g></g><path id="2435" transform="matrix(1 0 0 -1 0 792)" d="M307.7478 506.8161L304.9138 503.9811L304.9138 323.1661L307.7468 320.3331L538.6308 320.3331L541.4638 323.1661L541.4638 503.9811L538.6298 506.8161z" stroke="none" fill="#EAEBEC" fill-rule="nonzero" /><path id="2436" transform="matrix(1 0 0 -1 0 792)" d="M311.083 418.923L535.296 418.923L535.296 444.427L311.083 444.427z" stroke="none" fill="#FFFEFE" fill-rule="nonzero" /><path id="2437" transform="matrix(1 0 0 -1 0 792)" d="M311.0827 444.4266L535.2957 444.4266" stroke="#939597" stroke-width="0.5" fill="none" /><path id="2438" transform="matrix(1 0 0 -1 0 792)" d="M311.083 404.253L535.296 404.253L535.296 423.592L311.083 423.592z" stroke="none" fill="#FFFEFE" fill-rule="nonzero" /><path id="2439" transform="matrix(1 0 0 -1 0 792)" d="M312.1019 419.34L534.7859 419.34" stroke="#BBBDC0" stroke-width="0.51" stroke-linecap="round" stroke-dasharray="0.51,0.51" fill="none" /><path id="2440" transform="matrix(1 0 0 -1 0 792)" d="M535.2957 419.34L535.2957 419.34M311.0827 419.34L311.0827 419.34" stroke="#BBBDC0" stroke-width="0.51" stroke-linecap="round" fill="none" /><path id="2441" transform="matrix(1 0 0 -1 0 792)" d="M311.0827 404.023L534.7437 404.023" stroke="#939597" stroke-width="0.5" fill="none" /><g clip-path="url(#10)"><g><g clip-path="url(#11)"><path id="2926" transform="matrix(1 0 0 -1 0 792)" d="M307.8517 506.5659C 306.9557 505.6699 306.0597 504.7739 305.1637 503.8779L305.1637 503.8779L305.1637 323.2699C 306.0597 322.3739 306.9557 321.4779 307.8517 320.5819L307.8517 320.5819L538.5267 320.5819C 539.4227 321.4779 540.3187 322.3739 541.2147 323.2699L541.2147 323.2699L541.2147 503.8779C 540.3187 504.7739 539.4227 505.6699 538.5267 506.5659L538.5267 506.5659L307.8517 506.5659z" stroke="#000000" stroke-width="0.5" fill="none" stroke-opacity="0.4980392" /></g></g></g><path id="2927" transform="matrix(1 0 0 -1 0 792)" d="M307.7478 309.7602L304.9138 306.9252L304.9138 165.0282L307.7478 162.1932L538.6298 162.1932L541.4638 165.0282L541.4638 306.9252L538.6298 309.7602z" stroke="none" fill="#EAEBEC" fill-rule="nonzero" /><path id="2928" transform="matrix(1 0 0 -1 0 792)" d="M311.083 230.867L535.296 230.867L535.296 256.371L311.083 256.371z" stroke="none" fill="#FFFEFE" fill-rule="nonzero" /><path id="2929" transform="matrix(1 0 0 -1 0 792)" d="M311.0827 256.3706L535.2957 256.3706" stroke="#939597" stroke-width="0.5" fill="none" /><path id="2930" transform="matrix(1 0 0 -1 0 792)" d="M311.083 216.197L535.296 216.197L535.296 235.536L311.083 235.536z" stroke="none" fill="#FFFEFE" fill-rule="nonzero" /><path id="2931" transform="matrix(1 0 0 -1 0 792)" d="M312.1019 231.284L534.7859 231.284" stroke="#BBBDC0" stroke-width="0.51" stroke-linecap="round" stroke-dasharray="0.51,0.51" fill="none" /><path id="2932" transform="matrix(1 0 0 -1 0 792)" d="M535.2957 231.284L535.2957 231.284M311.0827 231.284L311.0827 231.284" stroke="#BBBDC0" stroke-width="0.51" stroke-linecap="round" fill="none" /><path id="2933" transform="matrix(1 0 0 -1 0 792)" d="M311.0827 215.9671L534.7437 215.9671" stroke="#939597" stroke-width="0.5" fill="none" /><g clip-path="url(#12)"><g><g clip-path="url(#13)"><path id="3297" transform="matrix(1 0 0 -1 0 792)" d="M307.8517 309.5099C 306.9557 308.6139 306.0597 307.7179 305.1637 306.8219L305.1637 306.8219L305.1637 165.1319C 306.0597 164.2359 306.9557 163.3399 307.8517 162.4439L307.8517 162.4439L538.5267 162.4439C 539.4227 163.3399 540.3187 164.2359 541.2147 165.1319L541.2147 165.1319L541.2147 306.8219C 540.3187 307.7179 539.4227 308.6139 538.5267 309.5099L538.5267 309.5099L307.8517 309.5099z" stroke="#000000" stroke-width="0.5" fill="none" stroke-opacity="0.4980392" /></g></g></g><g clip-path="url(#14)"><path id="3314" transform="matrix(1 0 0 -1 0 792)" d="M56.9448 32.702L56.9448 -12.691" stroke="#000000" stroke-width="0.75" stroke-linecap="round" stroke-dasharray="0.75,1.464" fill="none" /><path id="3315" transform="matrix(1 0 0 -1 0 792)" d="M56.9448 -13.7986L56.9448 -13.7986M56.9448 34.9164L56.9448 34.9164" stroke="#000000" stroke-width="0.75" stroke-linecap="round" fill="none" /></g></g></g></svg>