<svg xmlns="http://www.w3.org/2000/svg" xmlns:xlink="http://www.w3.org/1999/xlink" id="body_54" preserveAspectRatio="xMinYMin meet" viewBox="0 0 816 1056"><defs><clipPath id="1"><path id="" clip-rule="evenodd" transform="matrix(1 0 0 1 0 0)" d="M0 792L0 0L0 0L612 0L612 0L612 792L612 792L0 792z" /></clipPath><clipPath id="2"><path id="" clip-rule="evenodd" transform="matrix(1 0 0 1 0 0)" d="M0 0L612 0L612 0L612 792L612 792L0 792z" /></clipPath></defs><g transform="matrix(1.333333 0 0 1.333333 0 0)"><g clip-path="url(#1)"><path id="144" transform="matrix(1 0 0 -1 0 792)" d="M368.268 580.711L541.134 580.711L541.134 546.711L368.268 546.711zM304.913 580.711L368.267 580.711L368.267 546.711L304.913 546.711zM247.559 580.711L304.913 580.711L304.913 546.711L247.559 546.711zM200.315 580.711L247.559 580.711L247.559 546.711L200.315 546.711zM158.74 580.711L200.315 580.711L200.315 546.711L158.74 546.711zM125.15 580.711L158.741 580.711L158.741 546.711L125.15 546.711zM56.693 580.711L125.15 580.711L125.15 546.711L56.693 546.711zM368.268 648.711L541.134 648.711L541.134 614.711L368.268 614.711zM304.913 648.711L368.267 648.711L368.267 614.711L304.913 614.711zM247.559 648.711L304.913 648.711L304.913 614.711L247.559 614.711zM200.315 648.711L247.559 648.711L247.559 614.711L200.315 614.711zM158.74 648.711L200.315 648.711L200.315 614.711L158.74 614.711zM125.15 648.711L158.741 648.711L158.741 614.711L125.15 614.711zM56.693 648.711L125.15 648.711L125.15 614.711L56.693 614.711z" stroke="none" fill="#ECEDEE" fill-rule="nonzero" /><path id="145" transform="matrix(1 0 0 -1 0 792)" d="M56.6929 672.7107L125.1499 672.7107" stroke="#000000" stroke-width="1" fill="none" /><path id="146" transform="matrix(1 0 0 -1 0 792)" d="M125.1496 672.7107L158.7406 672.7107" stroke="#000000" stroke-width="1" fill="none" /><path id="147" transform="matrix(1 0 0 -1 0 792)" d="M158.7402 672.7107L200.3152 672.7107" stroke="#000000" stroke-width="1" fill="none" /><path id="148" transform="matrix(1 0 0 -1 0 792)" d="M200.315 672.7107L247.559 672.7107" stroke="#000000" stroke-width="1" fill="none" /><path id="149" transform="matrix(1 0 0 -1 0 792)" d="M247.5591 672.7107L304.9131 672.7107" stroke="#000000" stroke-width="1" fill="none" /><path id="150" transform="matrix(1 0 0 -1 0 792)" d="M304.9134 672.7107L368.2674 672.7107" stroke="#000000" stroke-width="1" fill="none" /><path id="151" transform="matrix(1 0 0 -1 0 792)" d="M368.2677 672.7107L541.1337 672.7107" stroke="#000000" stroke-width="1" fill="none" /><path id="785" transform="matrix(1 0 0 -1 0 792)" d="M378.567 367.026L541.134 367.026L541.134 333.026L378.567 333.026zM315.213 367.026L378.567 367.026L378.567 333.026L315.213 333.026zM257.858 367.026L315.212 367.026L315.212 333.026L257.858 333.026zM210.614 367.026L257.858 367.026L257.858 333.026L210.614 333.026zM158.74 367.026L210.614 367.026L210.614 333.026L158.74 333.026zM125.15 367.026L158.741 367.026L158.741 333.026L125.15 333.026zM56.693 367.026L125.15 367.026L125.15 333.026L56.693 333.026zM378.567 435.026L541.134 435.026L541.134 401.026L378.567 401.026zM315.213 435.026L378.567 435.026L378.567 401.026L315.213 401.026zM257.858 435.026L315.212 435.026L315.212 401.026L257.858 401.026zM210.614 435.026L257.858 435.026L257.858 401.026L210.614 401.026zM158.74 435.026L210.614 435.026L210.614 401.026L158.74 401.026zM125.15 435.026L158.741 435.026L158.741 401.026L125.15 401.026zM56.693 435.026L125.15 435.026L125.15 401.026L56.693 401.026z" stroke="none" fill="#ECEDEE" fill-rule="nonzero" /><path id="786" transform="matrix(1 0 0 -1 0 792)" d="M56.6929 459.0256L125.1499 459.0256" stroke="#000000" stroke-width="1" fill="none" /><path id="787" transform="matrix(1 0 0 -1 0 792)" d="M125.1496 459.0256L158.7406 459.0256" stroke="#000000" stroke-width="1" fill="none" /><path id="788" transform="matrix(1 0 0 -1 0 792)" d="M158.7402 459.0256L210.6142 459.0256" stroke="#000000" stroke-width="1" fill="none" /><path id="789" transform="matrix(1 0 0 -1 0 792)" d="M210.6142 459.0256L257.8582 459.0256" stroke="#000000" stroke-width="1" fill="none" /><path id="790" transform="matrix(1 0 0 -1 0 792)" d="M257.8583 459.0256L315.2123 459.0256" stroke="#000000" stroke-width="1" fill="none" /><path id="791" transform="matrix(1 0 0 -1 0 792)" d="M315.2126 459.0256L378.5666 459.0256" stroke="#000000" stroke-width="1" fill="none" /><path id="792" transform="matrix(1 0 0 -1 0 792)" d="M378.567 459.0256L541.134 459.0256" stroke="#000000" stroke-width="1" fill="none" /><g clip-path="url(#2)"><path id="1173" transform="matrix(1 0 0 -1 0 792)" d="M56.9448 32.702L56.9448 -12.691" stroke="#000000" stroke-width="0.75" stroke-linecap="round" stroke-dasharray="0.75,1.464" fill="none" /><path id="1174" transform="matrix(1 0 0 -1 0 792)" d="M56.9448 -13.7986L56.9448 -13.7986M56.9448 34.9164L56.9448 34.9164" stroke="#000000" stroke-width="0.75" stroke-linecap="round" fill="none" /></g></g></g></svg>