<svg xmlns="http://www.w3.org/2000/svg" xmlns:xlink="http://www.w3.org/1999/xlink" id="body_125" preserveAspectRatio="xMinYMin meet" viewBox="0 0 816 1056"><defs><clipPath id="1"><path id="" clip-rule="evenodd" transform="matrix(1 0 0 1 0 0)" d="M0 792L0 0L0 0L612 0L612 0L612 792L612 792L0 792z" /></clipPath><clipPath id="2"><path id="" clip-rule="evenodd" transform="matrix(1 0 0 1 0 0)" d="M0 0L612 0L612 0L612 792L612 792L0 792z" /></clipPath></defs><g transform="matrix(1.333333 0 0 1.333333 0 0)"><g clip-path="url(#1)"><path id="1" transform="matrix(1 0 0 -1 0 792)" d="M75.0974 727.1418L75.0974 735.3068" stroke="#000000" stroke-width="8" fill="none" /><path id="2" transform="matrix(1 0 0 -1 0 792)" d="M75.0974 559.9686L75.0974 568.1336" stroke="#000000" stroke-width="8" fill="none" /><path id="3" transform="matrix(1 0 0 -1 0 792)" d="M75.0974 458.4646L75.0974 466.6296" stroke="#000000" stroke-width="8" fill="none" /><path id="4" transform="matrix(1 0 0 -1 0 792)" d="M75.0974 291.7874L75.0974 299.9524" stroke="#000000" stroke-width="8" fill="none" /><path id="1813" transform="matrix(1 0 0 -1 0 792)" d="M323.3179 727.1418L323.3179 735.3068" stroke="#000000" stroke-width="8" fill="none" /><path id="1814" transform="matrix(1 0 0 -1 0 792)" d="M323.3179 605.6379L323.3179 613.8029" stroke="#000000" stroke-width="8" fill="none" /><path id="1815" transform="matrix(1 0 0 -1 0 792)" d="M323.3179 481.2993L323.3179 489.4643" stroke="#000000" stroke-width="8" fill="none" /><path id="1816" transform="matrix(1 0 0 -1 0 792)" d="M323.3179 372.126L323.3179 380.291" stroke="#000000" stroke-width="8" fill="none" /><path id="1817" transform="matrix(1 0 0 -1 0 792)" d="M323.3179 247.7874L323.3179 255.9524" stroke="#000000" stroke-width="8" fill="none" /><g clip-path="url(#2)"><path id="3749" transform="matrix(1 0 0 -1 0 792)" d="M555.6614 32.702L555.6614 -12.691" stroke="#000000" stroke-width="0.75" stroke-linecap="round" stroke-dasharray="0.75,1.464" fill="none" /><path id="3750" transform="matrix(1 0 0 -1 0 792)" d="M555.6614 -13.7986L555.6614 -13.7986M555.6614 34.9164L555.6614 34.9164" stroke="#000000" stroke-width="0.75" stroke-linecap="round" fill="none" /></g></g></g></svg>