<svg xmlns="http://www.w3.org/2000/svg" xmlns:xlink="http://www.w3.org/1999/xlink" id="body_102" preserveAspectRatio="xMinYMin meet" viewBox="0 0 816 1056"><defs><clipPath id="1"><path id="" clip-rule="evenodd" transform="matrix(1 0 0 1 0 0)" d="M0 792L0 0L0 0L612 0L612 0L612 792L612 792L0 792z" /></clipPath><clipPath id="2"><path id="" clip-rule="evenodd" transform="matrix(1 0 0 1 0 0)" d="M0 0L612 0L612 0L612 792L612 792L0 792z" /></clipPath></defs><g transform="matrix(1.333333 0 0 1.333333 0 0)"><g clip-path="url(#1)"><path id="140" transform="matrix(1 0 0 -1 0 792)" d="M60.9449 621.5188L60.9449 629.6838" stroke="#BBBDC0" stroke-width="8" fill="none" /><path id="141" transform="matrix(1 0 0 -1 0 792)" d="M60.9449 582.5109L60.9449 590.6759" stroke="#BBBDC0" stroke-width="8" fill="none" /><path id="142" transform="matrix(1 0 0 -1 0 792)" d="M60.9449 543.503L60.9449 551.668" stroke="#BBBDC0" stroke-width="8" fill="none" /><path id="637" transform="matrix(1 0 0 -1 0 792)" d="M309.1653 672.1093L309.1653 680.2743" stroke="#BBBDC0" stroke-width="8" fill="none" /><path id="638" transform="matrix(1 0 0 -1 0 792)" d="M309.1653 633.1014L309.1653 641.2664" stroke="#BBBDC0" stroke-width="8" fill="none" /><path id="639" transform="matrix(1 0 0 -1 0 792)" d="M309.1653 583.0936L309.1653 591.2586" stroke="#BBBDC0" stroke-width="8" fill="none" /><path id="640" transform="matrix(1 0 0 -1 0 792)" d="M309.1653 533.0857L309.1653 541.2507" stroke="#BBBDC0" stroke-width="8" fill="none" /><path id="641" transform="matrix(1 0 0 -1 0 792)" d="M309.1653 483.0778L309.1653 491.2428" stroke="#BBBDC0" stroke-width="8" fill="none" /><path id="642" transform="matrix(1 0 0 -1 0 792)" d="M309.1653 433.0699L309.1653 441.2349" stroke="#BBBDC0" stroke-width="8" fill="none" /><path id="1146" transform="matrix(1 0 0 -1 0 792)" d="M59.1906 389.1467L539.6346 389.1467" stroke="#000000" stroke-width="1" stroke-linecap="round" stroke-dasharray="1,1" fill="none" /><path id="1147" transform="matrix(1 0 0 -1 0 792)" d="M540.6339 389.1467L540.6339 389.1467M57.1929 389.1467L57.1929 389.1467" stroke="#000000" stroke-width="1" stroke-linecap="round" fill="none" /><path id="1785" transform="matrix(1 0 0 -1 0 792)" d="M448.299 242.544L541.299 242.544L541.299 225.794L448.299 225.794zM355.299 242.544L448.299 242.544L448.299 225.794L355.299 225.794zM262.299 242.544L355.299 242.544L355.299 225.794L262.299 225.794zM169.299 242.544L262.299 242.544L262.299 225.794L169.299 225.794zM56.693 242.544L169.299 242.544L169.299 225.794L56.693 225.794z" stroke="none" fill="#57585B" fill-rule="nonzero" /><path id="1786" transform="matrix(1 0 0 -1 0 792)" d="M448.299 225.794L541.299 225.794L541.299 209.044L448.299 209.044zM355.299 225.794L448.299 225.794L448.299 209.044L355.299 209.044zM262.299 225.794L355.299 225.794L355.299 209.044L262.299 209.044zM169.299 225.794L262.299 225.794L262.299 209.044L169.299 209.044zM56.693 225.794L169.299 225.794L169.299 209.044L56.693 209.044z" stroke="none" fill="#E6E7E8" fill-rule="nonzero" /><g clip-path="url(#2)"><path id="1922" transform="matrix(1 0 0 -1 0 792)" d="M56.9448 32.702L56.9448 -12.691" stroke="#000000" stroke-width="0.75" stroke-linecap="round" stroke-dasharray="0.75,1.464" fill="none" /><path id="1923" transform="matrix(1 0 0 -1 0 792)" d="M56.9448 -13.7986L56.9448 -13.7986M56.9448 34.9164L56.9448 34.9164" stroke="#000000" stroke-width="0.75" stroke-linecap="round" fill="none" /></g></g></g></svg>