<svg xmlns="http://www.w3.org/2000/svg" xmlns:xlink="http://www.w3.org/1999/xlink" id="body_37" preserveAspectRatio="xMinYMin meet" viewBox="0 0 816 1056"><defs><clipPath id="1"><path id="" clip-rule="evenodd" transform="matrix(1 0 0 1 0 0)" d="M0 792L0 0L0 0L612 0L612 0L612 792L612 792L0 792z" /></clipPath><clipPath id="2"><path id="" clip-rule="evenodd" transform="matrix(1 0 0 1 0 0)" d="M0 0L612 0L612 0L612 792L612 792L0 792z" /></clipPath></defs><g transform="matrix(1.333333 0 0 1.333333 0 0)"><g clip-path="url(#1)"><path id="1" transform="matrix(1 0 0 -1 0 792)" d="M75.1181 727.1418L75.1181 735.3068" stroke="#BBBDC0" stroke-width="8" fill="none" /><path id="2" transform="matrix(1 0 0 -1 0 792)" d="M71.5748 636.4686L71.5748 678.4686" stroke="#6D6E70" stroke-width="1" fill="none" /><path id="3" transform="matrix(1 0 0 -1 0 792)" d="M75.1181 616.4646L75.1181 624.6296" stroke="#BBBDC0" stroke-width="8" fill="none" /><path id="4" transform="matrix(1 0 0 -1 0 792)" d="M71.5748 346.8544L71.5748 377.8544" stroke="#6D6E70" stroke-width="1" fill="none" /><path id="1702" transform="matrix(1 0 0 -1 0 792)" d="M323.3386 727.1418L323.3386 735.3068" stroke="#BBBDC0" stroke-width="8" fill="none" /><path id="1703" transform="matrix(1 0 0 -1 0 792)" d="M319.087 536.791L555.307 536.791L555.307 606.799L319.087 606.799z" stroke="none" fill="#F0F1F1" fill-rule="nonzero" /><path id="1704" transform="matrix(1 0 0 -1 0 792)" d="M555.3071 536.7914L319.0871 536.7914" stroke="#6D6E70" stroke-width="1" fill="none" /><path id="1705" transform="matrix(1 0 0 -1 0 792)" d="M319.0866 606.7992L555.3066 606.7992" stroke="#6D6E70" stroke-width="1" fill="none" /><path id="1706" transform="matrix(1 0 0 -1 0 792)" d="M323.3386 513.9528L323.3386 522.1178" stroke="#BBBDC0" stroke-width="8" fill="none" /><path id="1707" transform="matrix(1 0 0 -1 0 792)" d="M319.7953 301.6024L319.7953 426.6104" stroke="#808285" stroke-width="2" fill="none" /><path id="1708" transform="matrix(1 0 0 -1 0 792)" d="M323.3386 281.5985L323.3386 289.7635" stroke="#BBBDC0" stroke-width="8" fill="none" /><g clip-path="url(#2)"><path id="3402" transform="matrix(1 0 0 -1 0 792)" d="M555.6614 32.702L555.6614 -12.691" stroke="#000000" stroke-width="0.75" stroke-linecap="round" stroke-dasharray="0.75,1.464" fill="none" /><path id="3403" transform="matrix(1 0 0 -1 0 792)" d="M555.6614 -13.7986L555.6614 -13.7986M555.6614 34.9164L555.6614 34.9164" stroke="#000000" stroke-width="0.75" stroke-linecap="round" fill="none" /></g></g></g></svg>