<svg xmlns="http://www.w3.org/2000/svg" xmlns:xlink="http://www.w3.org/1999/xlink" id="body_60" preserveAspectRatio="xMinYMin meet" viewBox="0 0 816 1056"><defs><clipPath id="1"><path id="" clip-rule="evenodd" transform="matrix(1 0 0 1 0 0)" d="M0 792L0 0L0 0L612 0L612 0L612 792L612 792L0 792z" /></clipPath><clipPath id="2"><path id="" clip-rule="evenodd" transform="matrix(1 0 0 1 0 0)" d="M0 0L612 0L612 0L612 792L612 792L0 792z" /></clipPath></defs><g transform="matrix(1.333333 0 0 1.333333 0 0)"><g clip-path="url(#1)"><path id="1" transform="matrix(1 0 0 -1 0 792)" d="M157.039 131.775L293.102 131.775L293.102 97.77499L157.039 97.77499zM91.843 131.775L157.04 131.775L157.04 97.77499L91.843 97.77499zM56.693 131.775L91.843 131.775L91.843 97.77499L56.693 97.77499zM157.039 209.775L293.102 209.775L293.102 175.775L157.039 175.775zM91.843 209.775L157.04 209.775L157.04 175.775L91.843 175.775zM56.693 209.775L91.843 209.775L91.843 175.775L56.693 175.775zM157.039 277.775L293.102 277.775L293.102 253.775L157.039 253.775zM91.843 277.775L157.04 277.775L157.04 253.775L91.843 253.775zM56.693 277.775L91.843 277.775L91.843 253.775L56.693 253.775zM157.039 325.775L293.102 325.775L293.102 301.775L157.039 301.775zM91.843 325.775L157.04 325.775L157.04 301.775L91.843 301.775zM56.693 325.775L91.843 325.775L91.843 301.775L56.693 301.775zM157.039 373.775L293.102 373.775L293.102 349.775L157.039 349.775zM91.843 373.775L157.04 373.775L157.04 349.775L91.843 349.775zM56.693 373.775L91.843 373.775L91.843 349.775L56.693 349.775zM157.039 441.775L293.102 441.775L293.102 397.775L157.039 397.775zM91.843 441.775L157.04 441.775L157.04 397.775L91.843 397.775zM56.693 441.775L91.843 441.775L91.843 397.775L56.693 397.775zM157.039 529.775L293.102 529.775L293.102 495.775L157.039 495.775zM91.843 529.775L157.04 529.775L157.04 495.775L91.843 495.775zM56.693 529.775L91.843 529.775L91.843 495.775L56.693 495.775zM157.039 580.782L293.102 580.782L293.102 563.774L157.039 563.774zM91.843 580.782L157.04 580.782L157.04 563.774L91.843 563.774zM56.693 580.782L91.843 580.782L91.843 563.774L56.693 563.774zM157.039 614.798L293.102 614.798L293.102 597.79L157.039 597.79zM91.843 614.798L157.04 614.798L157.04 597.79L91.843 597.79zM56.693 614.798L91.843 614.798L91.843 597.79L56.693 597.79zM157.039 682.798L293.102 682.798L293.102 638.798L157.039 638.798zM91.843 682.798L157.04 682.798L157.04 638.798L91.843 638.798zM56.693 682.798L91.843 682.798L91.843 638.798L56.693 638.798z" stroke="none" fill="#E6E7E8" fill-rule="nonzero" /><path id="2" transform="matrix(1 0 0 -1 0 792)" d="M56.6929 717.2983L91.8429 717.2983" stroke="#000000" stroke-width="1" fill="none" /><path id="3" transform="matrix(1 0 0 -1 0 792)" d="M91.8425 717.2983L157.0395 717.2983" stroke="#000000" stroke-width="1" fill="none" /><path id="4" transform="matrix(1 0 0 -1 0 792)" d="M157.0394 717.2983L293.1024 717.2983" stroke="#000000" stroke-width="1" fill="none" /><path id="1734" transform="matrix(1 0 0 -1 0 792)" d="M405.26 194.798L541.323 194.798L541.323 130.798L405.26 130.798zM340.063 194.798L405.26 194.798L405.26 130.798L340.063 130.798zM304.913 194.798L340.063 194.798L340.063 130.798L304.913 130.798zM405.26 292.798L541.323 292.798L541.323 258.798L405.26 258.798zM340.063 292.798L405.26 292.798L405.26 258.798L340.063 258.798zM304.913 292.798L340.063 292.798L340.063 258.798L304.913 258.798zM405.26 350.798L541.323 350.798L541.323 326.798L405.26 326.798zM340.063 350.798L405.26 350.798L405.26 326.798L340.063 326.798zM304.913 350.798L340.063 350.798L340.063 326.798L304.913 326.798zM405.26 398.798L541.323 398.798L541.323 374.798L405.26 374.798zM340.063 398.798L405.26 398.798L405.26 374.798L340.063 374.798zM304.913 398.798L340.063 398.798L340.063 374.798L304.913 374.798zM405.26 506.798L541.323 506.798L541.323 452.798L405.26 452.798zM340.063 506.798L405.26 506.798L405.26 452.798L340.063 452.798zM304.913 506.798L340.063 506.798L340.063 452.798L304.913 452.798zM405.26 584.798L541.323 584.798L541.323 540.798L405.26 540.798zM340.063 584.798L405.26 584.798L405.26 540.798L340.063 540.798zM304.913 584.798L340.063 584.798L340.063 540.798L304.913 540.798zM405.26 672.798L541.323 672.798L541.323 648.798L405.26 648.798zM340.063 672.798L405.26 672.798L405.26 648.798L340.063 648.798zM304.913 672.798L340.063 672.798L340.063 648.798L304.913 648.798z" stroke="none" fill="#E6E7E8" fill-rule="nonzero" /><path id="1735" transform="matrix(1 0 0 -1 0 792)" d="M304.9134 717.2983L340.0634 717.2983" stroke="#000000" stroke-width="1" fill="none" /><path id="1736" transform="matrix(1 0 0 -1 0 792)" d="M340.063 717.2983L405.26 717.2983" stroke="#000000" stroke-width="1" fill="none" /><path id="1737" transform="matrix(1 0 0 -1 0 792)" d="M405.2599 717.2983L541.3229 717.2983" stroke="#000000" stroke-width="1" fill="none" /><g clip-path="url(#2)"><path id="3471" transform="matrix(1 0 0 -1 0 792)" d="M56.9448 32.702L56.9448 -12.691" stroke="#000000" stroke-width="0.75" stroke-linecap="round" stroke-dasharray="0.75,1.464" fill="none" /><path id="3472" transform="matrix(1 0 0 -1 0 792)" d="M56.9448 -13.7986L56.9448 -13.7986M56.9448 34.9164L56.9448 34.9164" stroke="#000000" stroke-width="0.75" stroke-linecap="round" fill="none" /></g></g></g></svg>