<svg xmlns="http://www.w3.org/2000/svg" xmlns:xlink="http://www.w3.org/1999/xlink" id="body_61" preserveAspectRatio="xMinYMin meet" viewBox="0 0 816 1056"><defs><clipPath id="1"><path id="" clip-rule="evenodd" transform="matrix(1 0 0 1 0 0)" d="M0 792L0 0L0 0L612 0L612 0L612 792L612 792L0 792z" /></clipPath><clipPath id="2"><path id="" clip-rule="evenodd" transform="matrix(1 0 0 1 0 0)" d="M0 0L612 0L612 0L612 792L612 792L0 792z" /></clipPath></defs><g transform="matrix(1.333333 0 0 1.333333 0 0)"><g clip-path="url(#1)"><path id="1" transform="matrix(1 0 0 -1 0 792)" d="M171.213 306.798L307.276 306.798L307.276 262.798L171.213 262.798zM106.016 306.798L171.213 306.798L171.213 262.798L106.016 262.798zM70.866 306.798L106.016 306.798L106.016 262.798L70.866 262.798zM171.213 394.798L307.276 394.798L307.276 340.798L171.213 340.798zM106.016 394.798L171.213 394.798L171.213 340.798L106.016 340.798zM70.866 394.798L106.016 394.798L106.016 340.798L70.866 340.798zM171.213 462.798L307.276 462.798L307.276 438.798L171.213 438.798zM106.016 462.798L171.213 462.798L171.213 438.798L106.016 438.798zM70.866 462.798L106.016 462.798L106.016 438.798L70.866 438.798zM171.213 580.798L307.276 580.798L307.276 516.798L171.213 516.798zM106.016 580.798L171.213 580.798L171.213 516.798L106.016 516.798zM70.866 580.798L106.016 580.798L106.016 516.798L70.866 516.798zM171.213 658.798L307.276 658.798L307.276 634.798L171.213 634.798zM106.016 658.798L171.213 658.798L171.213 634.798L106.016 634.798zM70.866 658.798L106.016 658.798L106.016 634.798L70.866 634.798zM171.213 717.298L307.276 717.298L307.276 682.798L171.213 682.798zM106.016 717.298L171.213 717.298L171.213 682.798L106.016 682.798zM70.866 717.298L106.016 717.298L106.016 682.798L70.866 682.798z" stroke="none" fill="#E6E7E8" fill-rule="nonzero" /><path id="2" transform="matrix(1 0 0 -1 0 792)" d="M70.8661 717.2983L106.0161 717.2983" stroke="#000000" stroke-width="1" fill="none" /><path id="3" transform="matrix(1 0 0 -1 0 792)" d="M106.0157 717.2983L171.2127 717.2983" stroke="#000000" stroke-width="1" fill="none" /><path id="4" transform="matrix(1 0 0 -1 0 792)" d="M171.2126 717.2983L307.2756 717.2983" stroke="#000000" stroke-width="1" fill="none" /><path id="1294" transform="matrix(1 0 0 -1 0 792)" d="M319.087 496.913L555.307 496.913L555.307 561.59L319.087 561.59z" stroke="none" fill="#F0F1F1" fill-rule="nonzero" /><path id="1295" transform="matrix(1 0 0 -1 0 792)" d="M555.3071 496.9129L319.0871 496.9129" stroke="#6D6E70" stroke-width="1" fill="none" /><path id="1296" transform="matrix(1 0 0 -1 0 792)" d="M319.0866 561.5901L555.3066 561.5901" stroke="#6D6E70" stroke-width="1" fill="none" /><g clip-path="url(#2)"><path id="2034" transform="matrix(1 0 0 -1 0 792)" d="M555.6614 32.702L555.6614 -12.691" stroke="#000000" stroke-width="0.75" stroke-linecap="round" stroke-dasharray="0.75,1.464" fill="none" /><path id="2035" transform="matrix(1 0 0 -1 0 792)" d="M555.6614 -13.7986L555.6614 -13.7986M555.6614 34.9164L555.6614 34.9164" stroke="#000000" stroke-width="0.75" stroke-linecap="round" fill="none" /></g></g></g></svg>