<svg xmlns="http://www.w3.org/2000/svg" xmlns:xlink="http://www.w3.org/1999/xlink" id="body_130" preserveAspectRatio="xMinYMin meet" viewBox="0 0 816 1056"><defs><clipPath id="1"><path id="" clip-rule="evenodd" transform="matrix(1 0 0 1 0 0)" d="M0 792L0 0L0 0L612 0L612 0L612 792L612 792L0 792z" /></clipPath><clipPath id="2"><path id="" clip-rule="evenodd" transform="matrix(1 0 0 1 0 0)" d="M0 0L612 0L612 0L612 792L612 792L0 792z" /></clipPath></defs><g transform="matrix(1.333333 0 0 1.333333 0 0)"><g clip-path="url(#1)"><path id="1" transform="matrix(1 0 0 -1 0 792)" d="M56.693 721.099L541.134 721.099L541.134 738.142L56.693 738.142z" stroke="none" fill="#000000" fill-rule="nonzero" /><path id="14" transform="matrix(1 0 0 -1 0 792)" d="M60.9449 699.7786L60.9449 707.9436" stroke="#000000" stroke-width="8" fill="none" /><path id="15" transform="matrix(1 0 0 -1 0 792)" d="M60.9449 544.1014L60.9449 552.2664" stroke="#000000" stroke-width="8" fill="none" /><path id="16" transform="matrix(1 0 0 -1 0 792)" d="M60.9449 419.7629L60.9449 427.9279" stroke="#000000" stroke-width="8" fill="none" /><path id="17" transform="matrix(1 0 0 -1 0 792)" d="M60.9449 315.4243L60.9449 323.5893" stroke="#000000" stroke-width="8" fill="none" /><path id="18" transform="matrix(1 0 0 -1 0 792)" d="M60.9449 201.0857L60.9449 209.2507" stroke="#000000" stroke-width="8" fill="none" /><path id="1882" transform="matrix(1 0 0 -1 0 792)" d="M309.1653 699.7786L309.1653 707.9436" stroke="#000000" stroke-width="8" fill="none" /><path id="1883" transform="matrix(1 0 0 -1 0 792)" d="M309.1653 598.2747L309.1653 606.4397" stroke="#000000" stroke-width="8" fill="none" /><path id="1884" transform="matrix(1 0 0 -1 0 792)" d="M309.1653 473.9361L309.1653 482.1011" stroke="#000000" stroke-width="8" fill="none" /><path id="1885" transform="matrix(1 0 0 -1 0 792)" d="M309.1653 320.0936L309.1653 328.2586" stroke="#000000" stroke-width="8" fill="none" /><path id="1886" transform="matrix(1 0 0 -1 0 792)" d="M309.1653 215.755L309.1653 223.92" stroke="#000000" stroke-width="8" fill="none" /><g clip-path="url(#2)"><path id="3673" transform="matrix(1 0 0 -1 0 792)" d="M56.9448 32.702L56.9448 -12.691" stroke="#000000" stroke-width="0.75" stroke-linecap="round" stroke-dasharray="0.75,1.464" fill="none" /><path id="3674" transform="matrix(1 0 0 -1 0 792)" d="M56.9448 -13.7986L56.9448 -13.7986M56.9448 34.9164L56.9448 34.9164" stroke="#000000" stroke-width="0.75" stroke-linecap="round" fill="none" /></g></g></g></svg>