<svg xmlns="http://www.w3.org/2000/svg" xmlns:xlink="http://www.w3.org/1999/xlink" id="body_68" preserveAspectRatio="xMinYMin meet" viewBox="0 0 816 1056"><defs><clipPath id="1"><path id="" clip-rule="evenodd" transform="matrix(1 0 0 1 0 0)" d="M0 792L0 0L0 0L612 0L612 0L612 792L612 792L0 792z" /></clipPath><clipPath id="2"><path id="" clip-rule="evenodd" transform="matrix(1 0 0 1 0 0)" d="M0 0L612 0L612 0L612 792L612 792L0 792z" /></clipPath></defs><g transform="matrix(1.333333 0 0 1.333333 0 0)"><g clip-path="url(#1)"><path id="1" transform="matrix(1 0 0 -1 0 792)" d="M56.693 538.426L85.039 538.426L85.039 350.049L56.693 350.049zM56.693 735.307L85.039 735.307L85.039 546.93L56.693 546.93z" stroke="none" fill="#404042" fill-rule="nonzero" /><path id="2" transform="matrix(1 0 0 -1 0 792)" d="M408.189 538.426L541.134 538.426L541.134 520.127L408.189 520.127zM261.638 538.426L408.189 538.426L408.189 520.127L261.638 520.127zM121.89 538.426L261.638 538.426L261.638 520.127L121.89 520.127zM85.039 538.426L121.889 538.426L121.889 520.127L85.039 520.127zM408.189 735.307L541.134 735.307L541.134 717.008L408.189 717.008zM261.638 735.307L408.189 735.307L408.189 717.008L261.638 717.008zM121.89 735.307L261.638 735.307L261.638 717.008L121.89 717.008zM85.039 735.307L121.889 735.307L121.889 717.008L85.039 717.008z" stroke="none" fill="#EAEBEC" fill-rule="nonzero" /><path id="3" transform="matrix(1 0 0 -1 0 792)" d="M408.189 378.395L541.134 378.395L541.134 350.049L408.189 350.049zM261.638 378.395L408.189 378.395L408.189 350.049L261.638 350.049zM121.89 378.395L261.638 378.395L261.638 350.049L121.89 350.049zM85.039 378.395L121.889 378.395L121.889 350.049L85.039 350.049zM408.189 435.088L541.134 435.088L541.134 406.742L408.189 406.742zM261.638 435.088L408.189 435.088L408.189 406.742L261.638 406.742zM121.89 435.088L261.638 435.088L261.638 406.742L121.89 406.742zM85.039 435.088L121.889 435.088L121.889 406.742L85.039 406.742zM408.189 491.781L541.134 491.781L541.134 463.435L408.189 463.435zM261.638 491.781L408.189 491.781L408.189 463.435L261.638 463.435zM121.89 491.781L261.638 491.781L261.638 463.435L121.89 463.435zM85.039 491.781L121.889 491.781L121.889 463.435L85.039 463.435zM408.189 575.276L541.134 575.276L541.134 546.93L408.189 546.93zM261.638 575.276L408.189 575.276L408.189 546.93L261.638 546.93zM121.89 575.276L261.638 575.276L261.638 546.93L121.89 546.93zM85.039 575.276L121.889 575.276L121.889 546.93L85.039 546.93zM408.189 631.969L541.134 631.969L541.134 603.623L408.189 603.623zM261.638 631.969L408.189 631.969L408.189 603.623L261.638 603.623zM121.89 631.969L261.638 631.969L261.638 603.623L121.89 603.623zM85.039 631.969L121.889 631.969L121.889 603.623L85.039 603.623zM408.189 688.662L541.134 688.662L541.134 660.316L408.189 660.316zM261.638 688.662L408.189 688.662L408.189 660.316L261.638 660.316zM121.89 688.662L261.638 688.662L261.638 660.316L121.89 660.316zM85.039 688.662L121.889 688.662L121.889 660.316L85.039 660.316z" stroke="none" fill="#F0F1F1" fill-rule="nonzero" /><path id="4" transform="matrix(1 0 0 -1 0 792)" d="M85.0394 717.0086L121.8894 717.0086" stroke="#000000" stroke-width="1" fill="none" /><path id="5" transform="matrix(1 0 0 -1 0 792)" d="M121.8898 717.0086L261.6378 717.0086" stroke="#000000" stroke-width="1" fill="none" /><path id="6" transform="matrix(1 0 0 -1 0 792)" d="M261.6378 717.0086L408.1888 717.0086" stroke="#000000" stroke-width="1" fill="none" /><path id="7" transform="matrix(1 0 0 -1 0 792)" d="M408.189 717.0086L541.134 717.0086" stroke="#000000" stroke-width="1" fill="none" /><path id="8" transform="matrix(1 0 0 -1 0 792)" d="M85.0394 520.1274L121.8894 520.1274" stroke="#000000" stroke-width="1" fill="none" /><path id="9" transform="matrix(1 0 0 -1 0 792)" d="M121.8898 520.1274L261.6378 520.1274" stroke="#000000" stroke-width="1" fill="none" /><path id="10" transform="matrix(1 0 0 -1 0 792)" d="M261.6378 520.1274L408.1888 520.1274" stroke="#000000" stroke-width="1" fill="none" /><path id="11" transform="matrix(1 0 0 -1 0 792)" d="M408.189 520.1274L541.134 520.1274" stroke="#000000" stroke-width="1" fill="none" /><path id="12" transform="matrix(1 0 0 -1 0 792)" d="M82.205 726.803L65.162 726.803L65.162 555.434L82.205 555.434z" stroke="none" fill="#404042" fill-rule="nonzero" /><path id="13" transform="matrix(1 0 0 -1 0 792)" d="M68.9301 722.1326C 68.9301 722.0206 69.0181 721.9166 69.1461 721.9166L69.1461 721.9166L71.6781 721.9166C 71.7741 721.9166 71.8461 721.8446 71.8461 721.7487L71.8461 721.7487L71.8461 719.0126C 71.8461 716.8366 73.3501 715.5806 75.0621 715.5806C 76.7901 715.5806 78.2901 716.8366 78.2901 719.0126L78.2901 719.0126L78.2901 722.4086C 78.2901 722.5366 78.1861 722.6246 78.0741 722.6246L78.0741 722.6246L69.1461 722.6246C 69.0181 722.6246 68.9301 722.5366 68.9301 722.4086zM75.0621 716.3006C 73.7341 716.3006 72.5181 717.3087 72.5181 719.0366L72.5181 719.0366L72.5181 721.7487C 72.5181 721.8446 72.5901 721.9166 72.6861 721.9166L72.6861 721.9166L77.4501 721.9166C 77.5461 721.9166 77.6181 721.8446 77.6181 721.7487L77.6181 721.7487L77.6181 719.0366C 77.6181 717.3087 76.4381 716.3006 75.0621 716.3006z" stroke="none" fill="#FFFEFE" fill-rule="evenodd" /><path id="14" transform="matrix(1 0 0 -1 0 792)" d="M69.1461 713.1206C 69.0181 713.1206 68.9301 713.0327 68.9301 712.9046L68.9301 712.9046L68.9301 712.6286C 68.9301 712.5166 69.0181 712.4126 69.1461 712.4126L69.1461 712.4126L72.0741 712.4126C 72.1701 712.4126 72.2421 712.3406 72.2421 712.2446L72.2421 712.2446L72.2421 708.9926C 72.2421 708.9446 72.2421 708.8846 72.2421 708.8366C 72.2421 708.7406 72.1941 708.6846 72.1461 708.6206L72.1461 708.6206L69.1101 706.4606C 68.9981 706.3966 68.9301 706.2686 68.9301 706.1246L68.9301 706.1246L68.9301 705.6926C 68.9301 705.5966 69.0141 705.5486 69.1101 705.5966L69.1101 705.5966L72.2421 707.8406C 72.3061 707.8886 72.4021 707.8607 72.4341 707.7806C 72.8821 706.5166 73.9981 705.8007 75.2781 705.8007C 76.8941 705.8007 78.2901 706.9766 78.2901 708.9926L78.2901 708.9926L78.2901 712.9046C 78.2901 713.0327 78.1861 713.1206 78.0741 713.1206zM75.2661 706.4966C 74.0181 706.4966 72.9141 707.3846 72.9141 709.0166L72.9141 709.0166L72.9141 712.2446C 72.9141 712.3406 72.9861 712.4126 73.0821 712.4126L73.0821 712.4126L77.4501 712.4126C 77.5461 712.4126 77.6181 712.3406 77.6181 712.2446L77.6181 712.2446L77.6181 709.0166C 77.6181 707.3846 76.4981 706.4966 75.2661 706.4966z" stroke="none" fill="#FFFEFE" fill-rule="evenodd" /><path id="15" transform="matrix(1 0 0 -1 0 792)" d="M68.9301 696.7766C 68.9301 696.6646 69.0181 696.5606 69.1461 696.5606L69.1461 696.5606L69.4101 696.5606C 69.5221 696.5606 69.6261 696.6646 69.6261 696.7766L69.6261 696.7766L69.6261 702.1166C 69.6261 702.2126 69.6981 702.2846 69.7941 702.2846L69.7941 702.2846L73.0221 702.2846C 73.1181 702.2846 73.1901 702.2126 73.1901 702.1166L73.1901 702.1166L73.1901 697.6286C 73.1901 697.5166 73.2781 697.4126 73.4061 697.4126L73.4061 697.4126L73.6461 697.4126C 73.7581 697.4126 73.8621 697.5166 73.8621 697.6286L73.8621 697.6286L73.8621 702.1166C 73.8621 702.2126 73.9341 702.2846 74.0301 702.2846L74.0301 702.2846L77.4261 702.2846C 77.5221 702.2846 77.5941 702.2126 77.5941 702.1166L77.5941 702.1166L77.5941 696.7766C 77.5941 696.6646 77.6821 696.5606 77.8101 696.5606L77.8101 696.5606L78.0741 696.5606C 78.1861 696.5606 78.2901 696.6646 78.2901 696.7766L78.2901 696.7766L78.2901 702.7766C 78.2901 702.9046 78.1861 702.9926 78.0741 702.9926L78.0741 702.9926L69.1461 702.9926C 69.0181 702.9926 68.9301 702.9046 68.9301 702.7766z" stroke="none" fill="#FFFEFE" fill-rule="evenodd" /><path id="16" transform="matrix(1 0 0 -1 0 792)" d="M68.7501 691.1126C 68.7501 689.0486 69.6981 687.6806 71.1861 687.6806C 72.9301 687.6806 73.5061 689.6486 73.9701 691.1366C 74.4501 692.6726 74.8701 693.9326 76.0701 693.9326C 77.0781 693.9326 77.8101 693.0326 77.8101 691.3526C 77.8101 689.7366 77.1381 688.7006 76.1781 688.5566C 76.0341 688.5566 75.9381 688.4606 75.9381 688.3166L75.9381 688.3166L75.9381 688.0526C 75.9381 687.9566 76.0901 687.8606 76.2021 687.8606C 77.5461 687.9566 78.4701 689.4006 78.4701 691.3526C 78.4701 693.3846 77.4781 694.6766 76.0221 694.6766C 74.3261 694.6766 73.7501 692.8766 73.2861 691.3406C 72.8061 689.7566 72.3661 688.4366 71.1501 688.4366C 70.1421 688.4366 69.4101 689.3846 69.4101 691.1126C 69.4101 692.8086 70.0701 693.8966 71.0301 694.0406C 71.1581 694.0566 71.2541 694.1486 71.2701 694.2926L71.2701 694.2926L71.2701 694.4966C 71.2701 694.6406 71.1341 694.7526 71.0061 694.7366C 69.6621 694.6406 68.7501 693.1446 68.7501 691.1126z" stroke="none" fill="#FFFEFE" fill-rule="evenodd" /><path id="17" transform="matrix(1 0 0 -1 0 792)" d="M68.9301 678.8486C 68.9301 678.7366 69.0181 678.6326 69.1461 678.6326L69.1461 678.6326L69.4101 678.6326C 69.5221 678.6326 69.6261 678.7366 69.6261 678.8486L69.6261 678.8486L69.6261 684.1886C 69.6261 684.2846 69.6981 684.3566 69.7941 684.3566L69.7941 684.3566L73.0221 684.3566C 73.1181 684.3566 73.1901 684.2846 73.1901 684.1886L73.1901 684.1886L73.1901 679.7006C 73.1901 679.5886 73.2781 679.4846 73.4061 679.4846L73.4061 679.4846L73.6461 679.4846C 73.7581 679.4846 73.8621 679.5886 73.8621 679.7006L73.8621 679.7006L73.8621 684.1886C 73.8621 684.2846 73.9341 684.3566 74.0301 684.3566L74.0301 684.3566L77.4261 684.3566C 77.5221 684.3566 77.5941 684.2846 77.5941 684.1886L77.5941 684.1886L77.5941 678.8486C 77.5941 678.7366 77.6821 678.6326 77.8101 678.6326L77.8101 678.6326L78.0741 678.6326C 78.1861 678.6326 78.2901 678.7366 78.2901 678.8486L78.2901 678.8486L78.2901 684.8486C 78.2901 684.9766 78.1861 685.0646 78.0741 685.0646L78.0741 685.0646L69.1461 685.0646C 69.0181 685.0646 68.9301 684.9766 68.9301 684.8486z" stroke="none" fill="#FFFEFE" fill-rule="evenodd" /><path id="18" transform="matrix(1 0 0 -1 0 792)" d="M76.8981 675.2366C 76.9461 675.2366 76.9821 675.1766 76.9341 675.1286L76.9341 675.1286L69.0981 668.8886C 68.9861 668.8086 68.9301 668.6846 68.9301 668.5406L68.9301 668.5406L68.9301 668.3366C 68.9301 668.2246 69.0181 668.1206 69.1461 668.1206L69.1461 668.1206L78.0741 668.1206C 78.1861 668.1206 78.2901 668.2246 78.2901 668.3366L78.2901 668.3366L78.2901 668.6126C 78.2901 668.7406 78.1861 668.8286 78.0741 668.8286L78.0741 668.8286L70.3101 668.8286C 70.2461 668.8286 70.2261 668.9046 70.2741 668.9366L70.2741 668.9366L78.1221 675.1766C 78.2181 675.2726 78.2901 675.3966 78.2901 675.5246L78.2901 675.5246L78.2901 675.7286C 78.2901 675.8566 78.1861 675.9446 78.0741 675.9446L78.0741 675.9446L69.1461 675.9446C 69.0181 675.9446 68.9301 675.8566 68.9301 675.7286L68.9301 675.7286L68.9301 675.4526C 68.9301 675.3406 69.0181 675.2366 69.1461 675.2366z" stroke="none" fill="#FFFEFE" fill-rule="evenodd" /><path id="19" transform="matrix(1 0 0 -1 0 792)" d="M69.4581 660.6326C 69.4581 662.9366 71.3061 664.7966 73.6101 664.7966C 75.8821 664.7966 77.7621 662.9366 77.7621 660.6326C 77.7621 659.2086 77.0421 657.9686 75.9381 657.2006C 75.8261 657.1366 75.8021 657.0006 75.8661 656.8886L75.8661 656.8886L75.9981 656.6486C 76.0461 656.5526 76.1781 656.5286 76.2741 656.5766C 77.5861 657.4406 78.4701 658.9526 78.4701 660.6326C 78.4701 663.3366 76.2821 665.5166 73.6101 665.5166C 70.9221 665.5166 68.7501 663.3366 68.7501 660.6326C 68.7501 658.9366 69.6181 657.4286 70.9461 656.5646C 71.0261 656.5166 71.1741 656.5406 71.2221 656.6366L71.2221 656.6366L71.3661 656.8886C 71.4141 657.0006 71.3901 657.1366 71.2941 657.2006C 70.1741 657.9526 69.4581 659.2086 69.4581 660.6326z" stroke="none" fill="#FFFEFE" fill-rule="evenodd" /><path id="20" transform="matrix(1 0 0 -1 0 792)" d="M68.9301 647.7206C 68.9301 647.6086 69.0181 647.5046 69.1461 647.5046L69.1461 647.5046L69.4101 647.5046C 69.5221 647.5046 69.6261 647.6086 69.6261 647.7206L69.6261 647.7206L69.6261 653.0606C 69.6261 653.1566 69.6981 653.2286 69.7941 653.2286L69.7941 653.2286L73.0221 653.2286C 73.1181 653.2286 73.1901 653.1566 73.1901 653.0606L73.1901 653.0606L73.1901 648.5726C 73.1901 648.4606 73.2781 648.3566 73.4061 648.3566L73.4061 648.3566L73.6461 648.3566C 73.7581 648.3566 73.8621 648.4606 73.8621 648.5726L73.8621 648.5726L73.8621 653.0606C 73.8621 653.1566 73.9341 653.2286 74.0301 653.2286L74.0301 653.2286L77.4261 653.2286C 77.5221 653.2286 77.5941 653.1566 77.5941 653.0606L77.5941 653.0606L77.5941 647.7206C 77.5941 647.6086 77.6821 647.5046 77.8101 647.5046L77.8101 647.5046L78.0741 647.5046C 78.1861 647.5046 78.2901 647.6086 78.2901 647.7206L78.2901 647.7206L78.2901 653.7206C 78.2901 653.8486 78.1861 653.9366 78.0741 653.9366L78.0741 653.9366L69.1461 653.9366C 69.0181 653.9366 68.9301 653.8486 68.9301 653.7206z" stroke="none" fill="#FFFEFE" fill-rule="evenodd" /><path id="726" transform="matrix(1 0 0 -1 0 792)" d="M82.205 529.922L65.162 529.922L65.162 358.553L82.205 358.553z" stroke="none" fill="#404042" fill-rule="nonzero" /><path id="727" transform="matrix(1 0 0 -1 0 792)" d="M68.9301 525.2513C 68.9301 525.1393 69.0181 525.0353 69.1461 525.0353L69.1461 525.0353L71.4741 525.0353C 71.5701 525.0353 71.6821 524.9953 71.7621 524.9153L71.7621 524.9153L73.8021 522.7553C 73.8501 522.7073 73.8541 522.5913 73.7901 522.5273L73.7901 522.5273L69.0981 518.9033C 69.0021 518.8233 68.9301 518.6993 68.9301 518.5553L68.9301 518.5553L68.9301 518.0873C 68.9301 518.0073 69.0181 517.9553 69.0981 518.0033L69.0981 518.0033L74.2941 521.9993C 74.3581 522.0633 74.4661 522.0513 74.5461 521.9873L74.5461 521.9873L78.1461 518.1953C 78.1941 518.1473 78.2901 518.1753 78.2901 518.2553L78.2901 518.2553L78.2901 518.7833C 78.2901 518.9273 78.2261 519.0593 78.1461 519.1553L78.1461 519.1553L72.6981 524.9153C 72.6501 524.9633 72.6821 525.0353 72.7461 525.0353L72.7461 525.0353L78.0741 525.0353C 78.1861 525.0353 78.2901 525.1393 78.2901 525.2513L78.2901 525.2513L78.2901 525.5273C 78.2901 525.6553 78.1861 525.7433 78.0741 525.7433L78.0741 525.7433L69.1461 525.7433C 69.0181 525.7433 68.9301 525.6553 68.9301 525.5273z" stroke="none" fill="#FFFEFE" fill-rule="evenodd" /><path id="728" transform="matrix(1 0 0 -1 0 792)" d="M76.8981 515.0993C 76.9461 515.0993 76.9821 515.0393 76.9341 514.9913L76.9341 514.9913L69.0981 508.7513C 68.9861 508.6713 68.9301 508.5473 68.9301 508.4033L68.9301 508.4033L68.9301 508.1993C 68.9301 508.0873 69.0181 507.9833 69.1461 507.9833L69.1461 507.9833L78.0741 507.9833C 78.1861 507.9833 78.2901 508.0873 78.2901 508.1993L78.2901 508.1993L78.2901 508.4753C 78.2901 508.6033 78.1861 508.6913 78.0741 508.6913L78.0741 508.6913L70.3101 508.6913C 70.2461 508.6913 70.2261 508.7673 70.2741 508.7993L70.2741 508.7993L78.1221 515.0393C 78.2181 515.1353 78.2901 515.2593 78.2901 515.3873L78.2901 515.3873L78.2901 515.5913C 78.2901 515.7193 78.1861 515.8073 78.0741 515.8073L78.0741 515.8073L69.1461 515.8073C 69.0181 515.8073 68.9301 515.7193 68.9301 515.5913L68.9301 515.5913L68.9301 515.3153C 68.9301 515.2033 69.0181 515.0993 69.1461 515.0993z" stroke="none" fill="#FFFEFE" fill-rule="evenodd" /><path id="729" transform="matrix(1 0 0 -1 0 792)" d="M68.7501 500.4953C 68.7501 497.8073 70.9221 495.6233 73.6101 495.6233C 76.2821 495.6233 78.4701 497.8073 78.4701 500.4953C 78.4701 503.1993 76.2821 505.3793 73.6101 505.3793C 70.9221 505.3793 68.7501 503.1993 68.7501 500.4953zM77.7621 500.4953C 77.7621 498.2233 75.8821 496.3433 73.6101 496.3433C 71.3061 496.3433 69.4581 498.2233 69.4581 500.4953C 69.4581 502.7993 71.3061 504.6593 73.6101 504.6593C 75.8821 504.6593 77.7621 502.7993 77.7621 500.4953z" stroke="none" fill="#FFFEFE" fill-rule="evenodd" /><path id="730" transform="matrix(1 0 0 -1 0 792)" d="M76.9941 487.8353C 77.0421 487.8353 77.0421 487.7553 76.9941 487.7393L76.9941 487.7393L69.1341 485.1353C 69.0061 485.0873 68.9301 484.9913 68.9301 484.8473L68.9301 484.8473L68.9301 484.4993C 68.9301 484.3713 69.0061 484.2593 69.1341 484.2113L69.1341 484.2113L78.0861 481.3433C 78.1821 481.3113 78.2901 481.3913 78.2901 481.4873L78.2901 481.4873L78.2901 481.8233C 78.2901 481.9673 78.1981 482.0673 78.0861 482.0993L78.0861 482.0993L70.1421 484.6433C 70.0941 484.6593 70.0941 484.7393 70.1421 484.7393L70.1421 484.7393L78.0861 487.3673C 78.1981 487.4153 78.2901 487.5273 78.2901 487.6553L78.2901 487.6553L78.2901 487.9193C 78.2901 488.0633 78.1981 488.1593 78.0861 488.2073L78.0861 488.2073L70.1421 490.8353C 70.0941 490.8513 70.0941 490.9313 70.1421 490.9313L70.1421 490.9313L78.0861 493.4633C 78.1981 493.5113 78.2901 493.6113 78.2901 493.7393L78.2901 493.7393L78.2901 494.0753C 78.2901 494.1873 78.1821 494.2673 78.0861 494.2193L78.0861 494.2193L69.1341 491.3513C 69.0061 491.3033 68.9301 491.2073 68.9301 491.0633L68.9301 491.0633L68.9301 490.7153C 68.9301 490.5873 69.0061 490.4753 69.1341 490.4273z" stroke="none" fill="#FFFEFE" fill-rule="evenodd" /><path id="731" transform="matrix(1 0 0 -1 0 792)" d="M68.9301 473.1353C 68.9301 473.0233 69.0181 472.9193 69.1461 472.9193L69.1461 472.9193L69.4101 472.9193C 69.5221 472.9193 69.6261 473.0233 69.6261 473.1353L69.6261 473.1353L69.6261 478.1633C 69.6261 478.2593 69.6981 478.3313 69.7941 478.3313L69.7941 478.3313L78.0741 478.3313C 78.1861 478.3313 78.2901 478.4353 78.2901 478.5473L78.2901 478.5473L78.2901 478.8233C 78.2901 478.9513 78.1861 479.0393 78.0741 479.0393L78.0741 479.0393L69.1461 479.0393C 69.0181 479.0393 68.9301 478.9513 68.9301 478.8233z" stroke="none" fill="#FFFEFE" fill-rule="evenodd" /><path id="732" transform="matrix(1 0 0 -1 0 792)" d="M68.9301 464.3633C 68.9301 464.2513 69.0181 464.1473 69.1461 464.1473L69.1461 464.1473L69.4101 464.1473C 69.5221 464.1473 69.6261 464.2513 69.6261 464.3633L69.6261 464.3633L69.6261 469.7033C 69.6261 469.7993 69.6981 469.8713 69.7941 469.8713L69.7941 469.8713L73.0221 469.8713C 73.1181 469.8713 73.1901 469.7993 73.1901 469.7033L73.1901 469.7033L73.1901 465.2153C 73.1901 465.1033 73.2781 464.9993 73.4061 464.9993L73.4061 464.9993L73.6461 464.9993C 73.7581 464.9993 73.8621 465.1033 73.8621 465.2153L73.8621 465.2153L73.8621 469.7033C 73.8621 469.7993 73.9341 469.8713 74.0301 469.8713L74.0301 469.8713L77.4261 469.8713C 77.5221 469.8713 77.5941 469.7993 77.5941 469.7033L77.5941 469.7033L77.5941 464.3633C 77.5941 464.2513 77.6821 464.1473 77.8101 464.1473L77.8101 464.1473L78.0741 464.1473C 78.1861 464.1473 78.2901 464.2513 78.2901 464.3633L78.2901 464.3633L78.2901 470.3633C 78.2901 470.4913 78.1861 470.5793 78.0741 470.5793L78.0741 470.5793L69.1461 470.5793C 69.0181 470.5793 68.9301 470.4913 68.9301 470.3633z" stroke="none" fill="#FFFEFE" fill-rule="evenodd" /><path id="733" transform="matrix(1 0 0 -1 0 792)" d="M68.9301 457.7993C 68.9301 454.9673 70.9701 453.4433 73.6101 453.4433C 76.2181 453.4433 78.2901 454.9673 78.2901 457.7993L78.2901 457.7993L78.2901 461.2433C 78.2901 461.3713 78.1861 461.4593 78.0741 461.4593L78.0741 461.4593L69.1461 461.4593C 69.0181 461.4593 68.9301 461.3713 68.9301 461.2433zM73.6101 454.1513C 71.3381 454.1513 69.6261 455.4833 69.6261 457.8353L69.6261 457.8353L69.6261 460.5833C 69.6261 460.6793 69.6981 460.7513 69.7941 460.7513L69.7941 460.7513L77.4261 460.7513C 77.5221 460.7513 77.5941 460.6793 77.5941 460.5833L77.5941 460.5833L77.5941 457.8353C 77.5941 455.4833 75.8661 454.1513 73.6101 454.1513z" stroke="none" fill="#FFFEFE" fill-rule="evenodd" /><path id="734" transform="matrix(1 0 0 -1 0 792)" d="M73.1181 443.1953C 73.1181 443.0993 73.0461 443.0273 72.9501 443.0273L72.9501 443.0273L71.6181 443.0273C 71.5221 443.0273 71.3981 443.0633 71.3181 443.1113C 70.1821 443.8793 69.4581 445.1313 69.4581 446.5553C 69.4581 448.8593 71.3061 450.7193 73.6101 450.7193C 75.8821 450.7193 77.7621 448.8593 77.7621 446.5553C 77.7621 445.2913 77.1621 444.1313 76.2501 443.3633C 76.1541 443.2833 76.1341 443.1473 76.2141 443.0513L76.2141 443.0513L76.3701 442.8233C 76.4181 442.7273 76.5621 442.7113 76.6581 442.7753C 77.7621 443.6873 78.4701 445.0353 78.4701 446.5553C 78.4701 449.2593 76.2821 451.4393 73.6101 451.4393C 70.9221 451.4393 68.7501 449.2593 68.7501 446.5553C 68.7501 445.1473 69.3781 443.8593 70.4181 443.0753C 70.4661 443.0433 70.4421 442.9793 70.3941 442.9793L70.3941 442.9793L70.3701 442.9673C 70.2901 442.9673 70.1461 442.9553 70.0821 442.9553L70.0821 442.9553L69.1461 442.9553C 69.0181 442.9553 68.9301 442.8673 68.9301 442.7393L68.9301 442.7393L68.9301 442.5713C 68.9301 442.4593 69.0181 442.3553 69.1461 442.3553L69.1461 442.3553L73.5261 442.3553C 73.6381 442.3553 73.7421 442.4593 73.7421 442.5713L73.7421 442.5713L73.7421 446.2313C 73.7421 446.3593 73.6381 446.4473 73.5261 446.4473L73.5261 446.4473L73.3341 446.4473C 73.2061 446.4473 73.1181 446.3593 73.1181 446.2313z" stroke="none" fill="#FFFEFE" fill-rule="evenodd" /><path id="735" transform="matrix(1 0 0 -1 0 792)" d="M68.9301 433.3433C 68.9301 433.2313 69.0181 433.1273 69.1461 433.1273L69.1461 433.1273L69.4101 433.1273C 69.5221 433.1273 69.6261 433.2313 69.6261 433.3433L69.6261 433.3433L69.6261 438.6833C 69.6261 438.7793 69.6981 438.8513 69.7941 438.8513L69.7941 438.8513L73.0221 438.8513C 73.1181 438.8513 73.1901 438.7793 73.1901 438.6833L73.1901 438.6833L73.1901 434.1953C 73.1901 434.0833 73.2781 433.9793 73.4061 433.9793L73.4061 433.9793L73.6461 433.9793C 73.7581 433.9793 73.8621 434.0833 73.8621 434.1953L73.8621 434.1953L73.8621 438.6833C 73.8621 438.7793 73.9341 438.8513 74.0301 438.8513L74.0301 438.8513L77.4261 438.8513C 77.5221 438.8513 77.5941 438.7793 77.5941 438.6833L77.5941 438.6833L77.5941 433.3433C 77.5941 433.2313 77.6821 433.1273 77.8101 433.1273L77.8101 433.1273L78.0741 433.1273C 78.1861 433.1273 78.2901 433.2313 78.2901 433.3433L78.2901 433.3433L78.2901 439.3433C 78.2901 439.4713 78.1861 439.5593 78.0741 439.5593L78.0741 439.5593L69.1461 439.5593C 69.0181 439.5593 68.9301 439.4713 68.9301 439.3433z" stroke="none" fill="#FFFEFE" fill-rule="evenodd" /><path id="1569" transform="matrix(1 0 0 -1 0 792)" d="M60.9449 234.8656L60.9449 243.0306" stroke="#BBBDC0" stroke-width="8" fill="none" /><path id="2432" transform="matrix(1 0 0 -1 0 792)" d="M309.1653 320.4561L309.1653 328.6211" stroke="#BBBDC0" stroke-width="8" fill="none" /><path id="2433" transform="matrix(1 0 0 -1 0 792)" d="M309.1653 248.4482L309.1653 256.6132" stroke="#BBBDC0" stroke-width="8" fill="none" /><g clip-path="url(#2)"><path id="3194" transform="matrix(1 0 0 -1 0 792)" d="M56.9448 32.702L56.9448 -12.691" stroke="#000000" stroke-width="0.75" stroke-linecap="round" stroke-dasharray="0.75,1.464" fill="none" /><path id="3195" transform="matrix(1 0 0 -1 0 792)" d="M56.9448 -13.7986L56.9448 -13.7986M56.9448 34.9164L56.9448 34.9164" stroke="#000000" stroke-width="0.75" stroke-linecap="round" fill="none" /></g></g></g></svg>