<svg xmlns="http://www.w3.org/2000/svg" xmlns:xlink="http://www.w3.org/1999/xlink" id="body_121" preserveAspectRatio="xMinYMin meet" viewBox="0 0 816 1056"><defs><clipPath id="1"><path id="" clip-rule="evenodd" transform="matrix(1 0 0 1 0 0)" d="M0 792L0 0L0 0L612 0L612 0L612 792L612 792L0 792z" /></clipPath><clipPath id="2"><path id="" clip-rule="evenodd" transform="matrix(1 0 0 1 0 0)" d="M0 0L612 0L612 0L612 792L612 792L0 792z" /></clipPath></defs><g transform="matrix(1.333333 0 0 1.333333 0 0)"><g clip-path="url(#1)"><path id="1" transform="matrix(1 0 0 -1 0 792)" d="M70.845 721.099L555.286 721.099L555.286 738.142L70.845 738.142z" stroke="none" fill="#000000" fill-rule="nonzero" /><path id="15" transform="matrix(1 0 0 -1 0 792)" d="M75.0974 699.7786L75.0974 707.9436" stroke="#000000" stroke-width="8" fill="none" /><path id="16" transform="matrix(1 0 0 -1 0 792)" d="M75.0974 638.2747L75.0974 646.4397" stroke="#000000" stroke-width="8" fill="none" /><path id="17" transform="matrix(1 0 0 -1 0 792)" d="M75.0974 586.7708L75.0974 594.9358" stroke="#000000" stroke-width="8" fill="none" /><path id="18" transform="matrix(1 0 0 -1 0 792)" d="M75.0974 495.2668L75.0974 503.4318" stroke="#000000" stroke-width="8" fill="none" /><path id="19" transform="matrix(1 0 0 -1 0 792)" d="M75.0974 423.7629L75.0974 431.9279" stroke="#000000" stroke-width="8" fill="none" /><path id="20" transform="matrix(1 0 0 -1 0 792)" d="M75.0974 362.2589L75.0974 370.4239" stroke="#000000" stroke-width="8" fill="none" /><path id="21" transform="matrix(1 0 0 -1 0 792)" d="M75.0974 290.755L75.0974 298.92" stroke="#000000" stroke-width="8" fill="none" /><path id="22" transform="matrix(1 0 0 -1 0 792)" d="M75.0974 196.4164L75.0974 204.5814" stroke="#000000" stroke-width="8" fill="none" /><path id="23" transform="matrix(1 0 0 -1 0 792)" d="M75.0974 124.9125L75.0974 133.0775" stroke="#000000" stroke-width="8" fill="none" /><path id="1379" transform="matrix(1 0 0 -1 0 792)" d="M323.3179 699.7786L323.3179 707.9436" stroke="#000000" stroke-width="8" fill="none" /><path id="1380" transform="matrix(1 0 0 -1 0 792)" d="M323.3179 573.9361L323.3179 582.1011" stroke="#000000" stroke-width="8" fill="none" /><path id="1381" transform="matrix(1 0 0 -1 0 792)" d="M323.3179 458.0936L323.3179 466.2586" stroke="#000000" stroke-width="8" fill="none" /><path id="1382" transform="matrix(1 0 0 -1 0 792)" d="M323.3179 396.5896L323.3179 404.7546" stroke="#000000" stroke-width="8" fill="none" /><path id="1383" transform="matrix(1 0 0 -1 0 792)" d="M323.3179 322.2511L323.3179 330.4161" stroke="#000000" stroke-width="8" fill="none" /><path id="1384" transform="matrix(1 0 0 -1 0 792)" d="M323.3179 233.0778L323.3179 241.2428" stroke="#000000" stroke-width="8" fill="none" /><path id="1385" transform="matrix(1 0 0 -1 0 792)" d="M323.3179 171.5739L323.3179 179.7389" stroke="#000000" stroke-width="8" fill="none" /><g clip-path="url(#2)"><path id="2733" transform="matrix(1 0 0 -1 0 792)" d="M555.6614 32.702L555.6614 -12.691" stroke="#000000" stroke-width="0.75" stroke-linecap="round" stroke-dasharray="0.75,1.464" fill="none" /><path id="2734" transform="matrix(1 0 0 -1 0 792)" d="M555.6614 -13.7986L555.6614 -13.7986M555.6614 34.9164L555.6614 34.9164" stroke="#000000" stroke-width="0.75" stroke-linecap="round" fill="none" /></g></g></g></svg>