<svg xmlns="http://www.w3.org/2000/svg" xmlns:xlink="http://www.w3.org/1999/xlink" id="body_54" preserveAspectRatio="xMinYMin meet" viewBox="0 0 816 1056"><defs><clipPath id="1"><path id="" clip-rule="evenodd" transform="matrix(1 0 0 1 0 0)" d="M0 792L0 0L0 0L612 0L612 0L612 792L612 792L0 792z" /></clipPath><clipPath id="2"><path id="" clip-rule="evenodd" transform="matrix(1 0 0 1 0 0)" d="M0 0L612 0L612 0L612 792L612 792L0 792z" /></clipPath></defs><g transform="matrix(1.333333 0 0 1.333333 0 0)"><g clip-path="url(#1)"><path id="1974" transform="matrix(1 0 0 -1 0 792)" d="M59.1906 340.3086L539.6346 340.3086" stroke="#000000" stroke-width="1" stroke-linecap="round" stroke-dasharray="1,1" fill="none" /><path id="1975" transform="matrix(1 0 0 -1 0 792)" d="M540.6339 340.3086L540.6339 340.3086M57.1929 340.3086L57.1929 340.3086" stroke="#000000" stroke-width="1" stroke-linecap="round" fill="none" /><path id="2160" transform="matrix(1 0 0 -1 0 792)" d="M368.268 171.124L541.134 171.124L541.134 137.124L368.268 137.124zM304.913 171.124L368.267 171.124L368.267 137.124L304.913 137.124zM247.559 171.124L304.913 171.124L304.913 137.124L247.559 137.124zM200.315 171.124L247.559 171.124L247.559 137.124L200.315 137.124zM158.74 171.124L200.315 171.124L200.315 137.124L158.74 137.124zM125.15 171.124L158.741 171.124L158.741 137.124L125.15 137.124zM56.693 171.124L125.15 171.124L125.15 137.124L56.693 137.124zM368.268 239.124L541.134 239.124L541.134 205.124L368.268 205.124zM304.913 239.124L368.267 239.124L368.267 205.124L304.913 205.124zM247.559 239.124L304.913 239.124L304.913 205.124L247.559 205.124zM200.315 239.124L247.559 239.124L247.559 205.124L200.315 205.124zM158.74 239.124L200.315 239.124L200.315 205.124L158.74 205.124zM125.15 239.124L158.741 239.124L158.741 205.124L125.15 205.124zM56.693 239.124L125.15 239.124L125.15 205.124L56.693 205.124z" stroke="none" fill="#ECEDEE" fill-rule="nonzero" /><path id="2161" transform="matrix(1 0 0 -1 0 792)" d="M56.6929 263.1235L125.1499 263.1235" stroke="#000000" stroke-width="1" fill="none" /><path id="2162" transform="matrix(1 0 0 -1 0 792)" d="M125.1496 263.1235L158.7406 263.1235" stroke="#000000" stroke-width="1" fill="none" /><path id="2163" transform="matrix(1 0 0 -1 0 792)" d="M158.7402 263.1235L200.3152 263.1235" stroke="#000000" stroke-width="1" fill="none" /><path id="2164" transform="matrix(1 0 0 -1 0 792)" d="M200.315 263.1235L247.559 263.1235" stroke="#000000" stroke-width="1" fill="none" /><path id="2165" transform="matrix(1 0 0 -1 0 792)" d="M247.5591 263.1235L304.9131 263.1235" stroke="#000000" stroke-width="1" fill="none" /><path id="2166" transform="matrix(1 0 0 -1 0 792)" d="M304.9134 263.1235L368.2674 263.1235" stroke="#000000" stroke-width="1" fill="none" /><path id="2167" transform="matrix(1 0 0 -1 0 792)" d="M368.2677 263.1235L541.1337 263.1235" stroke="#000000" stroke-width="1" fill="none" /><g clip-path="url(#2)"><path id="2760" transform="matrix(1 0 0 -1 0 792)" d="M56.9448 32.702L56.9448 -12.691" stroke="#000000" stroke-width="0.75" stroke-linecap="round" stroke-dasharray="0.75,1.464" fill="none" /><path id="2761" transform="matrix(1 0 0 -1 0 792)" d="M56.9448 -13.7986L56.9448 -13.7986M56.9448 34.9164L56.9448 34.9164" stroke="#000000" stroke-width="0.75" stroke-linecap="round" fill="none" /></g></g></g></svg>