<svg xmlns="http://www.w3.org/2000/svg" xmlns:xlink="http://www.w3.org/1999/xlink" id="body_27" preserveAspectRatio="xMinYMin meet" viewBox="0 0 816 1056"><defs><clipPath id="1"><path id="" clip-rule="evenodd" transform="matrix(1 0 0 1 0 0)" d="M0 792L0 0L0 0L612 0L612 0L612 792L612 792L0 792z" /></clipPath><clipPath id="2"><path id="" clip-rule="evenodd" transform="matrix(1 0 0 1 0 0)" d="M0 0L612 0L612 0L612 792L612 792L0 792z" /></clipPath></defs><g transform="matrix(1.333333 0 0 1.333333 0 0)"><g clip-path="url(#1)"><path id="1" transform="matrix(1 0 0 -1 0 792)" d="M70.866 307.552L307.086 307.552L307.086 326.012L70.866 326.012z" stroke="none" fill="#EAEBEC" fill-rule="nonzero" /><path id="2247" transform="matrix(1 0 0 -1 0 792)" d="M323.3386 727.1418L323.3386 735.3068" stroke="#BBBDC0" stroke-width="8" fill="none" /><path id="2248" transform="matrix(1 0 0 -1 0 792)" d="M319.087 612.691L555.307 612.691L555.307 631.151L319.087 631.151z" stroke="none" fill="#EAEBEC" fill-rule="nonzero" /><path id="2249" transform="matrix(1 0 0 -1 0 792)" d="M323.3386 449.4489L323.3386 457.6139" stroke="#BBBDC0" stroke-width="8" fill="none" /><path id="2250" transform="matrix(1 0 0 -1 0 792)" d="M319.087 312.998L555.307 312.998L555.307 331.458L319.087 331.458z" stroke="none" fill="#EAEBEC" fill-rule="nonzero" /><path id="2251" transform="matrix(1 0 0 -1 0 792)" d="M323.3386 149.756L323.3386 157.921" stroke="#BBBDC0" stroke-width="8" fill="none" /><g clip-path="url(#2)"><path id="4203" transform="matrix(1 0 0 -1 0 792)" d="M555.6614 32.702L555.6614 -12.691" stroke="#000000" stroke-width="0.75" stroke-linecap="round" stroke-dasharray="0.75,1.464" fill="none" /><path id="4204" transform="matrix(1 0 0 -1 0 792)" d="M555.6614 -13.7986L555.6614 -13.7986M555.6614 34.9164L555.6614 34.9164" stroke="#000000" stroke-width="0.75" stroke-linecap="round" fill="none" /></g></g></g></svg>