<svg xmlns="http://www.w3.org/2000/svg" xmlns:xlink="http://www.w3.org/1999/xlink" id="body_75" preserveAspectRatio="xMinYMin meet" viewBox="0 0 816 1056"><defs><clipPath id="1"><path id="" clip-rule="evenodd" transform="matrix(1 0 0 1 0 0)" d="M0 792L0 0L0 0L612 0L612 0L612 792L612 792L0 792z" /></clipPath><clipPath id="2"><path id="" clip-rule="evenodd" transform="matrix(1 0 0 1 0 0)" d="M70.866 374.134L307.418 374.134L307.418 374.134L307.418 79.81604L307.418 79.81604L70.866 79.81604z" /></clipPath><clipPath id="3"><path id="" clip-rule="evenodd" transform="matrix(1 0 0 1 0 0)" d="M61.8662 71.81598L316.417 71.81598L316.417 71.81598L316.417 367.342L316.417 367.342L61.8662 367.342z" /></clipPath><clipPath id="4"><path id="" clip-rule="evenodd" transform="matrix(1 0 0 1 0 0)" d="M70.866 573.486L307.418 573.486L307.418 573.486L307.418 375.06L307.418 375.06L70.866 375.06z" /></clipPath><clipPath id="5"><path id="" clip-rule="evenodd" transform="matrix(1 0 0 1 0 0)" d="M61.8661 367.323L316.417 367.323L316.417 367.323L316.417 575.932L316.417 575.932L61.8661 575.932z" /></clipPath><clipPath id="6"><path id="" clip-rule="evenodd" transform="matrix(1 0 0 1 0 0)" d="M319.087 336.649L555.638 336.649L555.638 336.649L555.638 80.83099L555.638 80.83099L319.087 80.83099z" /></clipPath><clipPath id="7"><path id="" clip-rule="evenodd" transform="matrix(1 0 0 1 0 0)" d="M310.087 72.83002L564.638 72.83002L564.638 72.83002L564.638 339.357L564.638 339.357L310.087 339.357z" /></clipPath><clipPath id="8"><path id="" clip-rule="evenodd" transform="matrix(1 0 0 1 0 0)" d="M319.087 625.096L555.638 625.096L555.638 625.096L555.638 345.03L555.638 345.03L319.087 345.03z" /></clipPath><clipPath id="9"><path id="" clip-rule="evenodd" transform="matrix(1 0 0 1 0 0)" d="M310.087 337.03L564.638 337.03L564.638 337.03L564.638 618.305L564.638 618.305L310.087 618.305z" /></clipPath><clipPath id="10"><path id="" clip-rule="evenodd" transform="matrix(1 0 0 1 0 0)" d="M0 0L612 0L612 0L612 792L612 792L0 792z" /></clipPath></defs><g transform="matrix(1.333333 0 0 1.333333 0 0)"><g clip-path="url(#1)"><path id="29" transform="matrix(1 0 0 -1 0 792)" d="M73.701 712.1844L70.866 709.3494L70.866 430.2014L73.701 427.3664L304.583 427.3664L307.418 430.2014L307.418 709.3494L304.583 712.1844z" stroke="none" fill="#EAEBEC" fill-rule="nonzero" /><path id="30" transform="matrix(1 0 0 -1 0 792)" d="M77.035 633.291L301.248 633.291L301.248 658.795L77.035 658.795z" stroke="none" fill="#FFFEFE" fill-rule="nonzero" /><path id="31" transform="matrix(1 0 0 -1 0 792)" d="M77.0355 658.795L301.2485 658.795" stroke="#939597" stroke-width="0.5" fill="none" /><path id="32" transform="matrix(1 0 0 -1 0 792)" d="M77.035 618.622L301.248 618.622L301.248 637.961L77.035 637.961z" stroke="none" fill="#FFFEFE" fill-rule="nonzero" /><path id="33" transform="matrix(1 0 0 -1 0 792)" d="M78.0546 633.7084L300.7386 633.7084" stroke="#BBBDC0" stroke-width="0.51" stroke-linecap="round" stroke-dasharray="0.51,0.51" fill="none" /><path id="34" transform="matrix(1 0 0 -1 0 792)" d="M301.2485 633.7084L301.2485 633.7084M77.0355 633.7084L77.0355 633.7084" stroke="#BBBDC0" stroke-width="0.51" stroke-linecap="round" fill="none" /><path id="35" transform="matrix(1 0 0 -1 0 792)" d="M77.0355 618.3915L300.6965 618.3915" stroke="#939597" stroke-width="0.5" fill="none" /><g clip-path="url(#2)"><g><g clip-path="url(#3)"><path id="1105" transform="matrix(1 0 0 -1 0 792)" d="M73.8044 711.9343C 72.90839 711.0383 72.0124 710.1423 71.11639 709.2463L71.11639 709.2463L71.11639 430.3043C 72.0124 429.4083 72.90839 428.5123 73.8044 427.6163L73.8044 427.6163L304.4794 427.6163C 305.3754 428.5123 306.2714 429.4083 307.1674 430.3043L307.1674 430.3043L307.1674 709.2463C 306.2714 710.1423 305.3754 711.0383 304.4794 711.9343L304.4794 711.9343L73.8044 711.9343z" stroke="#000000" stroke-width="0.5" fill="none" stroke-opacity="0.4980392" /></g></g></g><path id="1106" transform="matrix(1 0 0 -1 0 792)" d="M73.701 416.6766L70.866 413.8426L70.866 221.6106L73.701 218.7756L304.583 218.7756L307.418 221.6106L307.418 413.8426L304.583 416.6766z" stroke="none" fill="#EAEBEC" fill-rule="nonzero" /><path id="1107" transform="matrix(1 0 0 -1 0 792)" d="M77.035 337.784L301.248 337.784L301.248 363.288L77.035 363.288z" stroke="none" fill="#FFFEFE" fill-rule="nonzero" /><path id="1108" transform="matrix(1 0 0 -1 0 792)" d="M77.0354 363.2877L301.2484 363.2877" stroke="#939597" stroke-width="0.5" fill="none" /><path id="1109" transform="matrix(1 0 0 -1 0 792)" d="M77.035 323.114L301.248 323.114L301.248 342.453L77.035 342.453z" stroke="none" fill="#FFFEFE" fill-rule="nonzero" /><path id="1110" transform="matrix(1 0 0 -1 0 792)" d="M78.0546 338.201L300.7386 338.201" stroke="#BBBDC0" stroke-width="0.51" stroke-linecap="round" stroke-dasharray="0.51,0.51" fill="none" /><path id="1111" transform="matrix(1 0 0 -1 0 792)" d="M301.2484 338.201L301.2484 338.201M77.0354 338.201L77.0354 338.201" stroke="#BBBDC0" stroke-width="0.51" stroke-linecap="round" fill="none" /><path id="1112" transform="matrix(1 0 0 -1 0 792)" d="M77.0354 322.8841L300.6964 322.8841" stroke="#939597" stroke-width="0.5" fill="none" /><g clip-path="url(#4)"><g><g clip-path="url(#5)"><path id="1676" transform="matrix(1 0 0 -1 0 792)" d="M73.8043 416.4269C 72.90829 415.5309 72.0123 414.6349 71.11629 413.7389L71.11629 413.7389L71.11629 221.7139C 72.0123 220.8179 72.90829 219.9219 73.8043 219.0259L73.8043 219.0259L304.4793 219.0259L304.4793 219.0259L307.1673 221.7139L307.1673 221.7139L307.1673 413.7389L307.1673 413.7389L304.4793 416.4269L304.4793 416.4269L73.8043 416.4269z" stroke="#000000" stroke-width="0.5" fill="none" stroke-opacity="0.4980392" /></g></g></g><path id="1677" transform="matrix(1 0 0 -1 0 792)" d="M321.921 711.1692L319.087 708.3352L319.087 458.1852L321.921 455.3512L552.803 455.3512L555.637 458.1852L555.637 708.3352L552.803 711.1692z" stroke="none" fill="#EAEBEC" fill-rule="nonzero" /><path id="1678" transform="matrix(1 0 0 -1 0 792)" d="M325.256 623.276L549.469 623.276L549.469 648.78L325.256 648.78z" stroke="none" fill="#FFFEFE" fill-rule="nonzero" /><path id="1679" transform="matrix(1 0 0 -1 0 792)" d="M325.256 648.7803L549.469 648.7803" stroke="#939597" stroke-width="0.5" fill="none" /><path id="1680" transform="matrix(1 0 0 -1 0 792)" d="M325.256 608.607L549.469 608.607L549.469 627.946L325.256 627.946z" stroke="none" fill="#FFFEFE" fill-rule="nonzero" /><path id="1681" transform="matrix(1 0 0 -1 0 792)" d="M326.2751 623.6937L548.9591 623.6937" stroke="#BBBDC0" stroke-width="0.51" stroke-linecap="round" stroke-dasharray="0.51,0.51" fill="none" /><path id="1682" transform="matrix(1 0 0 -1 0 792)" d="M549.469 623.6937L549.469 623.6937M325.256 623.6937L325.256 623.6937" stroke="#BBBDC0" stroke-width="0.51" stroke-linecap="round" fill="none" /><path id="1683" transform="matrix(1 0 0 -1 0 792)" d="M325.256 608.3768L548.917 608.3768" stroke="#939597" stroke-width="0.5" fill="none" /><g clip-path="url(#6)"><g><g clip-path="url(#7)"><path id="2485" transform="matrix(1 0 0 -1 0 792)" d="M322.0249 710.9196C 321.1289 710.0236 320.2329 709.1276 319.3369 708.2316L319.3369 708.2316L319.3369 458.2896L319.3369 458.2896L322.0249 455.6016L322.0249 455.6016L552.6999 455.6016L552.6999 455.6016L555.3879 458.2896L555.3879 458.2896L555.3879 708.2316L555.3879 708.2316L552.6999 710.9196L552.6999 710.9196L322.0249 710.9196z" stroke="#000000" stroke-width="0.5" fill="none" stroke-opacity="0.4980392" /></g></g></g><path id="2486" transform="matrix(1 0 0 -1 0 792)" d="M321.921 446.9697L319.087 444.1347L319.087 179.2377L321.921 176.4037L552.803 176.4037L555.637 179.2377L555.637 444.1347L552.803 446.9697z" stroke="none" fill="#EAEBEC" fill-rule="nonzero" /><path id="2487" transform="matrix(1 0 0 -1 0 792)" d="M325.256 350.076L549.469 350.076L549.469 375.58L325.256 375.58z" stroke="none" fill="#FFFEFE" fill-rule="nonzero" /><path id="2488" transform="matrix(1 0 0 -1 0 792)" d="M325.2559 375.5804L549.4689 375.5804" stroke="#939597" stroke-width="0.5" fill="none" /><path id="2489" transform="matrix(1 0 0 -1 0 792)" d="M325.2559 349.8461L548.9169 349.8461" stroke="#939597" stroke-width="0.5" fill="none" /><g clip-path="url(#8)"><g><g clip-path="url(#9)"><path id="3437" transform="matrix(1 0 0 -1 0 792)" d="M322.0248 446.7197C 321.1288 445.8237 320.2328 444.9277 319.3368 444.0317L319.3368 444.0317L319.3368 179.3417L319.3368 179.3417L322.0248 176.6537L322.0248 176.6537L552.6998 176.6537C 553.5958 177.5497 554.4918 178.4457 555.3878 179.3417L555.3878 179.3417L555.3878 444.0317C 554.4918 444.9277 553.5958 445.8237 552.6998 446.7197L552.6998 446.7197L322.0248 446.7197z" stroke="#000000" stroke-width="0.5" fill="none" stroke-opacity="0.4980392" /></g></g></g><g clip-path="url(#10)"><path id="3454" transform="matrix(1 0 0 -1 0 792)" d="M555.6614 32.702L555.6614 -12.691" stroke="#000000" stroke-width="0.75" stroke-linecap="round" stroke-dasharray="0.75,1.464" fill="none" /><path id="3455" transform="matrix(1 0 0 -1 0 792)" d="M555.6614 -13.7986L555.6614 -13.7986M555.6614 34.9164L555.6614 34.9164" stroke="#000000" stroke-width="0.75" stroke-linecap="round" fill="none" /></g></g></g></svg>