<svg xmlns="http://www.w3.org/2000/svg" xmlns:xlink="http://www.w3.org/1999/xlink" id="body_96" preserveAspectRatio="xMinYMin meet" viewBox="0 0 816 1056"><defs><clipPath id="1"><path id="" clip-rule="evenodd" transform="matrix(1 0 0 1 0 0)" d="M0 792L0 0L0 0L612 0L612 0L612 792L612 792L0 792z" /></clipPath><clipPath id="2"><path id="" clip-rule="evenodd" transform="matrix(1 0 0 1 0 0)" d="M56.693 299.055L293.244 299.055L293.244 299.055L293.244 56.69299L293.244 56.69299L56.693 56.69299z" /></clipPath><clipPath id="3"><path id="" clip-rule="evenodd" transform="matrix(1 0 0 1 0 0)" d="M47.693 49.29999L302.244 49.29999L302.244 49.29999L302.244 301.657L302.244 301.657L47.693 301.657z" /></clipPath><clipPath id="4"><path id="" clip-rule="evenodd" transform="matrix(1 0 0 1 0 0)" d="M56.693 589.522L293.244 589.522L293.244 589.522L293.244 310.372L293.244 310.372L56.693 310.372z" /></clipPath><clipPath id="5"><path id="" clip-rule="evenodd" transform="matrix(1 0 0 1 0 0)" d="M47.693 302.372L302.244 302.372L302.244 302.372L302.244 592.229L302.244 592.229L47.693 592.229z" /></clipPath><clipPath id="6"><path id="" clip-rule="evenodd" transform="matrix(1 0 0 1 0 0)" d="M304.914 447.846L541.465 447.846L541.465 447.846L541.465 56.69299L541.465 56.69299L304.914 56.69299z" /></clipPath><clipPath id="7"><path id="" clip-rule="evenodd" transform="matrix(1 0 0 1 0 0)" d="M295.913 48.69299L550.465 48.69299L550.465 48.69299L550.465 450.29L550.465 450.29L295.913 450.29z" /></clipPath><clipPath id="8"><path id="" clip-rule="evenodd" transform="matrix(1 0 0 1 0 0)" d="M0 0L612 0L612 0L612 792L612 792L0 792z" /></clipPath></defs><g transform="matrix(1.333333 0 0 1.333333 0 0)"><g clip-path="url(#1)"><path id="1" transform="matrix(1 0 0 -1 0 792)" d="M59.5278 734.7006L56.6928 731.8656L56.6928 495.8856L59.5278 493.0516L290.4098 493.0516L293.2438 495.8856L293.2438 731.8656L290.4098 734.7006z" stroke="none" fill="#EAEBEC" fill-rule="nonzero" /><path id="2" transform="matrix(1 0 0 -1 0 792)" d="M62.862 646.807L287.075 646.807L287.075 672.311L62.862 672.311z" stroke="none" fill="#FFFEFE" fill-rule="nonzero" /><path id="3" transform="matrix(1 0 0 -1 0 792)" d="M62.8623 672.3112L287.0753 672.3112" stroke="#939597" stroke-width="0.5" fill="none" /><path id="4" transform="matrix(1 0 0 -1 0 792)" d="M62.8623 646.0769L286.5233 646.0769" stroke="#939597" stroke-width="0.5" fill="none" /><g clip-path="url(#2)"><g><g clip-path="url(#3)"><path id="869" transform="matrix(1 0 0 -1 0 792)" d="M59.6311 734.4504C 58.7351 733.5544 57.8391 732.6584 56.9431 731.7624L56.9431 731.7624L56.9431 495.9894C 57.8391 495.0934 58.7351 494.1974 59.6311 493.3014L59.6311 493.3014L290.3061 493.3014C 291.2021 494.1974 292.0981 495.0934 292.9941 495.9894L292.9941 495.9894L292.9941 731.7624C 292.0981 732.6584 291.2021 733.5544 290.3061 734.4504L290.3061 734.4504L59.6311 734.4504z" stroke="#000000" stroke-width="0.5" fill="none" stroke-opacity="0.4980392" /></g></g></g><path id="870" transform="matrix(1 0 0 -1 0 792)" d="M59.5278 481.6278L56.6928 478.7928L56.6928 205.3138L59.5278 202.4788L290.4098 202.4788L293.2438 205.3138L293.2438 478.7928L290.4098 481.6278z" stroke="none" fill="#EAEBEC" fill-rule="nonzero" /><path id="871" transform="matrix(1 0 0 -1 0 792)" d="M62.862 393.734L287.075 393.734L287.075 419.238L62.862 419.238z" stroke="none" fill="#FFFEFE" fill-rule="nonzero" /><path id="872" transform="matrix(1 0 0 -1 0 792)" d="M62.8623 419.2384L287.0753 419.2384" stroke="#939597" stroke-width="0.5" fill="none" /><path id="873" transform="matrix(1 0 0 -1 0 792)" d="M62.8623 393.5042L286.5233 393.5042" stroke="#939597" stroke-width="0.5" fill="none" /><g clip-path="url(#4)"><g><g clip-path="url(#5)"><path id="1880" transform="matrix(1 0 0 -1 0 792)" d="M59.6312 481.3777C 58.7352 480.4817 57.8392 479.5857 56.9432 478.6897L56.9432 478.6897L56.9432 205.4167C 57.8392 204.5207 58.7352 203.6247 59.6312 202.7287L59.6312 202.7287L290.3062 202.7287C 291.2022 203.6247 292.0982 204.5207 292.9942 205.4167L292.9942 205.4167L292.9942 478.6897C 292.0982 479.5857 291.2022 480.4817 290.3062 481.3777L290.3062 481.3777L59.6312 481.3777z" stroke="#000000" stroke-width="0.5" fill="none" stroke-opacity="0.4980392" /></g></g></g><path id="1881" transform="matrix(1 0 0 -1 0 792)" d="M307.7478 735.3072L304.9138 732.4722L304.9138 346.9892L307.7478 344.1542L538.6298 344.1542L541.4638 346.9892L541.4638 732.4722L538.6298 735.3072z" stroke="none" fill="#EAEBEC" fill-rule="nonzero" /><path id="1882" transform="matrix(1 0 0 -1 0 792)" d="M311.083 638.414L535.296 638.414L535.296 663.918L311.083 663.918z" stroke="none" fill="#FFFEFE" fill-rule="nonzero" /><path id="1883" transform="matrix(1 0 0 -1 0 792)" d="M311.0827 663.9178L535.2957 663.9178" stroke="#939597" stroke-width="0.5" fill="none" /><path id="1884" transform="matrix(1 0 0 -1 0 792)" d="M311.083 623.745L535.296 623.745L535.296 643.084L311.083 643.084z" stroke="none" fill="#FFFEFE" fill-rule="nonzero" /><path id="1885" transform="matrix(1 0 0 -1 0 792)" d="M312.1018 638.8312L534.7858 638.8312" stroke="#BBBDC0" stroke-width="0.51" stroke-linecap="round" stroke-dasharray="0.51,0.51" fill="none" /><path id="1886" transform="matrix(1 0 0 -1 0 792)" d="M535.2957 638.8312L535.2957 638.8312M311.0827 638.8312L311.0827 638.8312" stroke="#BBBDC0" stroke-width="0.51" stroke-linecap="round" fill="none" /><path id="1887" transform="matrix(1 0 0 -1 0 792)" d="M311.0827 623.5143L534.7437 623.5143" stroke="#939597" stroke-width="0.5" fill="none" /><g clip-path="url(#6)"><g><g clip-path="url(#7)"><path id="3338" transform="matrix(1 0 0 -1 0 792)" d="M307.8517 735.0571C 306.9557 734.1611 306.0597 733.2641 305.1637 732.3691L305.1637 732.3691L305.1637 347.0921C 306.0597 346.1961 306.9557 345.3001 307.8517 344.4041L307.8517 344.4041L538.5267 344.4041C 539.4227 345.3001 540.3187 346.1961 541.2147 347.0921L541.2147 347.0921L541.2147 732.3691L541.2147 732.3691L538.5267 735.0571L538.5267 735.0571L307.8517 735.0571z" stroke="#000000" stroke-width="0.5" fill="none" stroke-opacity="0.4980392" /></g></g></g><g clip-path="url(#8)"><path id="3355" transform="matrix(1 0 0 -1 0 792)" d="M56.9448 32.702L56.9448 -12.691" stroke="#000000" stroke-width="0.75" stroke-linecap="round" stroke-dasharray="0.75,1.464" fill="none" /><path id="3356" transform="matrix(1 0 0 -1 0 792)" d="M56.9448 -13.7986L56.9448 -13.7986M56.9448 34.9164L56.9448 34.9164" stroke="#000000" stroke-width="0.75" stroke-linecap="round" fill="none" /></g></g></g></svg>