<svg xmlns="http://www.w3.org/2000/svg" xmlns:xlink="http://www.w3.org/1999/xlink" id="body_98" preserveAspectRatio="xMinYMin meet" viewBox="0 0 816 1056"><defs><clipPath id="1"><path id="" clip-rule="evenodd" transform="matrix(1 0 0 1 0 0)" d="M0 792L0 0L0 0L612 0L612 0L612 792L612 792L0 792z" /></clipPath><clipPath id="2"><path id="" clip-rule="evenodd" transform="matrix(1 0 0 1 0 0)" d="M56.693 440.847L293.244 440.847L293.244 440.847L293.244 56.69299L293.244 56.69299L56.693 56.69299z" /></clipPath><clipPath id="3"><path id="" clip-rule="evenodd" transform="matrix(1 0 0 1 0 0)" d="M47.693 48.69299L302.244 48.69299L302.244 48.69299L302.244 434.29L302.244 434.29L47.693 434.29z" /></clipPath><clipPath id="4"><path id="" clip-rule="evenodd" transform="matrix(1 0 0 1 0 0)" d="M56.693 584.29L293.244 584.29L293.244 584.29L293.244 440.475L293.244 440.475L56.693 440.475z" /></clipPath><clipPath id="5"><path id="" clip-rule="evenodd" transform="matrix(1 0 0 1 0 0)" d="M47.693 432.475L302.244 432.475L302.244 432.475L302.244 586.998L302.244 586.998L47.693 586.998z" /></clipPath><clipPath id="6"><path id="" clip-rule="evenodd" transform="matrix(1 0 0 1 0 0)" d="M304.914 277.925L541.465 277.925L541.465 277.925L541.465 56.69202L541.465 56.69202L304.914 56.69202z" /></clipPath><clipPath id="7"><path id="" clip-rule="evenodd" transform="matrix(1 0 0 1 0 0)" d="M295.913 48.69299L550.465 48.69299L550.465 48.69299L550.465 280.633L550.465 280.633L295.913 280.633z" /></clipPath><clipPath id="8"><path id="" clip-rule="evenodd" transform="matrix(1 0 0 1 0 0)" d="M304.914 611.304L541.465 611.304L541.465 611.304L541.465 288.068L541.465 288.068L304.914 288.068z" /></clipPath><clipPath id="9"><path id="" clip-rule="evenodd" transform="matrix(1 0 0 1 0 0)" d="M295.913 280.069L550.465 280.069L550.465 280.069L550.465 605.012L550.465 605.012L295.913 605.012z" /></clipPath><clipPath id="10"><path id="" clip-rule="evenodd" transform="matrix(1 0 0 1 0 0)" d="M0 0L612 0L612 0L612 792L612 792L0 792z" /></clipPath></defs><g transform="matrix(1.333333 0 0 1.333333 0 0)"><g clip-path="url(#1)"><path id="1" transform="matrix(1 0 0 -1 0 792)" d="M59.5278 735.3072L56.6928 732.4722L56.6928 362.9892L59.5278 360.1542L290.4098 360.1542L293.2438 362.9892L293.2438 732.4722L290.4098 735.3072z" stroke="none" fill="#EAEBEC" fill-rule="nonzero" /><path id="2" transform="matrix(1 0 0 -1 0 792)" d="M62.862 635.414L287.075 635.414L287.075 660.918L62.862 660.918z" stroke="none" fill="#FFFEFE" fill-rule="nonzero" /><path id="3" transform="matrix(1 0 0 -1 0 792)" d="M62.8623 660.9178L287.0753 660.9178" stroke="#939597" stroke-width="0.5" fill="none" /><path id="4" transform="matrix(1 0 0 -1 0 792)" d="M62.862 620.745L287.075 620.745L287.075 640.084L62.862 640.084z" stroke="none" fill="#FFFEFE" fill-rule="nonzero" /><path id="5" transform="matrix(1 0 0 -1 0 792)" d="M63.8814 635.8312L286.5654 635.8312" stroke="#BBBDC0" stroke-width="0.51" stroke-linecap="round" stroke-dasharray="0.51,0.51" fill="none" /><path id="6" transform="matrix(1 0 0 -1 0 792)" d="M287.0753 635.8312L287.0753 635.8312M62.8623 635.8312L62.8623 635.8312" stroke="#BBBDC0" stroke-width="0.51" stroke-linecap="round" fill="none" /><path id="7" transform="matrix(1 0 0 -1 0 792)" d="M62.8623 620.5143L286.5233 620.5143" stroke="#939597" stroke-width="0.5" fill="none" /><g clip-path="url(#2)"><g><g clip-path="url(#3)"><path id="1336" transform="matrix(1 0 0 -1 0 792)" d="M59.6312 735.0571C 58.7352 734.1611 57.8392 733.2641 56.9432 732.3691L56.9432 732.3691L56.9432 363.0921C 57.8392 362.1961 58.7352 361.3001 59.6312 360.4041L59.6312 360.4041L290.3062 360.4041C 291.2022 361.3001 292.0982 362.1961 292.9942 363.0921L292.9942 363.0921L292.9942 732.3691L292.9942 732.3691L290.3062 735.0571L290.3062 735.0571L59.6312 735.0571z" stroke="#000000" stroke-width="0.5" fill="none" stroke-opacity="0.4980392" /></g></g></g><path id="1337" transform="matrix(1 0 0 -1 0 792)" d="M59.5278 351.5247L56.6928 348.6897L56.6928 210.5447L59.5278 207.7097L290.4098 207.7097L293.2438 210.5447L293.2438 348.6897L290.4098 351.5247z" stroke="none" fill="#EAEBEC" fill-rule="nonzero" /><path id="1338" transform="matrix(1 0 0 -1 0 792)" d="M62.862 272.632L287.075 272.632L287.075 298.136L62.862 298.136z" stroke="none" fill="#FFFEFE" fill-rule="nonzero" /><path id="1339" transform="matrix(1 0 0 -1 0 792)" d="M62.8623 298.1354L287.0753 298.1354" stroke="#939597" stroke-width="0.5" fill="none" /><path id="1340" transform="matrix(1 0 0 -1 0 792)" d="M62.8623 272.4012L286.5233 272.4012" stroke="#939597" stroke-width="0.5" fill="none" /><g clip-path="url(#4)"><g><g clip-path="url(#5)"><path id="1693" transform="matrix(1 0 0 -1 0 792)" d="M59.6311 351.2747C 58.7351 350.3787 57.8391 349.4827 56.9431 348.5867L56.9431 348.5867L56.9431 210.6487C 57.8391 209.7527 58.7351 208.8567 59.6311 207.9607L59.6311 207.9607L290.3061 207.9607C 291.2021 208.8567 292.0981 209.7527 292.9941 210.6487L292.9941 210.6487L292.9941 348.5867L292.9941 348.5867L290.3061 351.2747L290.3061 351.2747L59.6311 351.2747z" stroke="#000000" stroke-width="0.5" fill="none" stroke-opacity="0.4980392" /></g></g></g><path id="1694" transform="matrix(1 0 0 -1 0 792)" d="M307.7478 735.3072L304.9138 732.4722L304.9138 516.9102L307.7478 514.0752L538.6298 514.0752L541.4638 516.9102L541.4638 732.4722L538.6298 735.3072z" stroke="none" fill="#EAEBEC" fill-rule="nonzero" /><path id="1695" transform="matrix(1 0 0 -1 0 792)" d="M311.083 656.414L535.296 656.414L535.296 681.918L311.083 681.918z" stroke="none" fill="#FFFEFE" fill-rule="nonzero" /><path id="1696" transform="matrix(1 0 0 -1 0 792)" d="M311.0827 681.9179L535.2957 681.9179" stroke="#939597" stroke-width="0.5" fill="none" /><path id="1697" transform="matrix(1 0 0 -1 0 792)" d="M311.0827 656.1837L534.7437 656.1837" stroke="#939597" stroke-width="0.5" fill="none" /><g clip-path="url(#6)"><g><g clip-path="url(#7)"><path id="2396" transform="matrix(1 0 0 -1 0 792)" d="M307.8517 735.0572C 306.9557 734.1612 306.0597 733.2652 305.1637 732.3692L305.1637 732.3692L305.1637 517.0132C 306.0597 516.1172 306.9557 515.2212 307.8517 514.3252L307.8517 514.3252L538.5267 514.3252C 539.4227 515.2212 540.3187 516.1172 541.2147 517.0132L541.2147 517.0132L541.2147 732.3692L541.2147 732.3692L538.5267 735.0572L538.5267 735.0572L307.8517 735.0572z" stroke="#000000" stroke-width="0.5" fill="none" stroke-opacity="0.4980392" /></g></g></g><path id="2397" transform="matrix(1 0 0 -1 0 792)" d="M307.7478 503.9316L304.9138 501.0966L304.9138 192.5306L307.7478 189.6956L538.6298 189.6956L541.4638 192.5306L541.4638 501.0966L538.6298 503.9316z" stroke="none" fill="#EAEBEC" fill-rule="nonzero" /><path id="2398" transform="matrix(1 0 0 -1 0 792)" d="M311.083 416.038L535.296 416.038L535.296 441.542L311.083 441.542z" stroke="none" fill="#FFFEFE" fill-rule="nonzero" /><path id="2399" transform="matrix(1 0 0 -1 0 792)" d="M311.0827 441.5422L535.2957 441.5422" stroke="#939597" stroke-width="0.5" fill="none" /><path id="2400" transform="matrix(1 0 0 -1 0 792)" d="M311.083 401.369L535.296 401.369L535.296 420.708L311.083 420.708z" stroke="none" fill="#FFFEFE" fill-rule="nonzero" /><path id="2401" transform="matrix(1 0 0 -1 0 792)" d="M312.1019 416.4556L534.7859 416.4556" stroke="#BBBDC0" stroke-width="0.51" stroke-linecap="round" stroke-dasharray="0.51,0.51" fill="none" /><path id="2402" transform="matrix(1 0 0 -1 0 792)" d="M535.2957 416.4556L535.2957 416.4556M311.0827 416.4556L311.0827 416.4556" stroke="#BBBDC0" stroke-width="0.51" stroke-linecap="round" fill="none" /><path id="2403" transform="matrix(1 0 0 -1 0 792)" d="M311.0827 401.1386L534.7437 401.1386" stroke="#939597" stroke-width="0.5" fill="none" /><g clip-path="url(#8)"><g><g clip-path="url(#9)"><path id="3573" transform="matrix(1 0 0 -1 0 792)" d="M307.8517 503.6815C 306.9557 502.7855 306.0597 501.8895 305.1637 500.9935L305.1637 500.9935L305.1637 192.6345L305.1637 192.6345L307.8517 189.9455L307.8517 189.9455L538.5267 189.9455C 539.4227 190.8415 540.3187 191.7375 541.2147 192.6335L541.2147 192.6335L541.2147 500.9935C 540.3187 501.8895 539.4227 502.7855 538.5267 503.6815L538.5267 503.6815L307.8517 503.6815z" stroke="#000000" stroke-width="0.5" fill="none" stroke-opacity="0.4980392" /></g></g></g><g clip-path="url(#10)"><path id="3590" transform="matrix(1 0 0 -1 0 792)" d="M56.9448 32.702L56.9448 -12.691" stroke="#000000" stroke-width="0.75" stroke-linecap="round" stroke-dasharray="0.75,1.464" fill="none" /><path id="3591" transform="matrix(1 0 0 -1 0 792)" d="M56.9448 -13.7986L56.9448 -13.7986M56.9448 34.9164L56.9448 34.9164" stroke="#000000" stroke-width="0.75" stroke-linecap="round" fill="none" /></g></g></g></svg>