<svg xmlns="http://www.w3.org/2000/svg" xmlns:xlink="http://www.w3.org/1999/xlink" id="body_11" preserveAspectRatio="xMinYMin meet" viewBox="0 0 816 1056"><defs><clipPath id="1"><path id="" clip-rule="evenodd" transform="matrix(1 0 0 1 0 0)" d="M0 792L0 0L0 0L612 0L612 0L612 792L612 792L0 792z" /></clipPath><clipPath id="2"><path id="" clip-rule="evenodd" transform="matrix(1 0 0 1 0 0)" d="M0 0L612 0L612 0L612 792L612 792L0 792z" /></clipPath></defs><g transform="matrix(1.333333 0 0 1.333333 0 0)"><g clip-path="url(#1)"><path id="1" transform="matrix(1 0 0 -1 0 792)" d="M70.866 660.17L307.086 660.17L307.086 678.63L70.866 678.63z" stroke="none" fill="#EAEBEC" fill-rule="nonzero" /><path id="2" transform="matrix(1 0 0 -1 0 792)" d="M75.1181 616.1408L75.1181 624.3058" stroke="#BBBDC0" stroke-width="8" fill="none" /><path id="3" transform="matrix(1 0 0 -1 0 792)" d="M75.1181 577.1329L75.1181 585.2979" stroke="#BBBDC0" stroke-width="8" fill="none" /><path id="4" transform="matrix(1 0 0 -1 0 792)" d="M75.1181 416.7865L75.1181 424.9515" stroke="#BBBDC0" stroke-width="8" fill="none" /><path id="5" transform="matrix(1 0 0 -1 0 792)" d="M75.1181 256.44L75.1181 264.605" stroke="#BBBDC0" stroke-width="8" fill="none" /><path id="1495" transform="matrix(1 0 0 -1 0 792)" d="M319.087 719.682L555.307 719.682L555.307 738.142L319.087 738.142z" stroke="none" fill="#EAEBEC" fill-rule="nonzero" /><path id="1496" transform="matrix(1 0 0 -1 0 792)" d="M323.3386 675.6526L323.3386 683.8176" stroke="#BBBDC0" stroke-width="8" fill="none" /><path id="1497" transform="matrix(1 0 0 -1 0 792)" d="M323.3386 636.6448L323.3386 644.8098" stroke="#BBBDC0" stroke-width="8" fill="none" /><path id="1498" transform="matrix(1 0 0 -1 0 792)" d="M323.3386 525.9676L323.3386 534.1326" stroke="#BBBDC0" stroke-width="8" fill="none" /><path id="1499" transform="matrix(1 0 0 -1 0 792)" d="M323.3386 448.2904L323.3386 456.4554" stroke="#BBBDC0" stroke-width="8" fill="none" /><path id="1500" transform="matrix(1 0 0 -1 0 792)" d="M319.087 129.578L555.307 129.578L555.307 384.448L319.087 384.448z" stroke="none" fill="#F0F1F1" fill-rule="nonzero" /><path id="1501" transform="matrix(1 0 0 -1 0 792)" d="M555.3071 129.5778L319.0871 129.5778" stroke="#939597" stroke-width="1" fill="none" /><path id="1502" transform="matrix(1 0 0 -1 0 792)" d="M319.0866 384.4479L555.3066 384.4479" stroke="#939597" stroke-width="1" fill="none" /><g clip-path="url(#2)"><path id="2828" transform="matrix(1 0 0 -1 0 792)" d="M555.6614 32.702L555.6614 -12.691" stroke="#000000" stroke-width="0.75" stroke-linecap="round" stroke-dasharray="0.75,1.464" fill="none" /><path id="2829" transform="matrix(1 0 0 -1 0 792)" d="M555.6614 -13.7986L555.6614 -13.7986M555.6614 34.9164L555.6614 34.9164" stroke="#000000" stroke-width="0.75" stroke-linecap="round" fill="none" /></g></g></g></svg>