<svg xmlns="http://www.w3.org/2000/svg" xmlns:xlink="http://www.w3.org/1999/xlink" id="body_56" preserveAspectRatio="xMinYMin meet" viewBox="0 0 816 1056"><defs><clipPath id="1"><path id="" clip-rule="evenodd" transform="matrix(1 0 0 1 0 0)" d="M0 792L0 0L0 0L612 0L612 0L612 792L612 792L0 792z" /></clipPath><clipPath id="2"><path id="" clip-rule="evenodd" transform="matrix(1 0 0 1 0 0)" d="M0 0L612 0L612 0L612 792L612 792L0 792z" /></clipPath></defs><g transform="matrix(1.333333 0 0 1.333333 0 0)"><g clip-path="url(#1)"><path id="17" transform="matrix(1 0 0 -1 0 792)" d="M288.472 542.68L541.133 542.68L541.133 528.28L288.472 528.28zM243.118 542.68L288.472 542.68L288.472 528.28L243.118 528.28zM170.362 542.68L243.118 542.68L243.118 528.28L170.362 528.28zM56.693 542.68L170.362 542.68L170.362 528.28L56.693 528.28zM288.472 572.055L541.133 572.055L541.133 557.079L288.472 557.079zM243.118 572.055L288.472 572.055L288.472 557.079L243.118 557.079zM170.362 572.055L243.118 572.055L243.118 557.079L170.362 557.079zM56.693 572.055L170.362 572.055L170.362 557.079L56.693 557.079zM288.472 620.055L541.133 620.055L541.133 596.055L288.472 596.055zM243.118 620.055L288.472 620.055L288.472 596.055L243.118 596.055zM170.362 620.055L243.118 620.055L243.118 596.055L170.362 596.055zM56.693 620.055L170.362 620.055L170.362 596.055L56.693 596.055zM288.472 648.855L541.133 648.855L541.133 634.455L288.472 634.455zM243.118 648.855L288.472 648.855L288.472 634.455L243.118 634.455zM170.362 648.855L243.118 648.855L243.118 634.455L170.362 634.455zM56.693 648.855L170.362 648.855L170.362 634.455L56.693 634.455zM288.472 677.655L541.133 677.655L541.133 663.255L288.472 663.255zM243.118 677.655L288.472 677.655L288.472 663.255L243.118 663.255zM170.362 677.655L243.118 677.655L243.118 663.255L170.362 663.255zM56.693 677.655L170.362 677.655L170.362 663.255L56.693 663.255z" stroke="none" fill="#ECEDEE" fill-rule="nonzero" /><path id="18" transform="matrix(1 0 0 -1 0 792)" d="M56.6929 692.0553L170.3619 692.0553" stroke="#000000" stroke-width="1" fill="none" /><path id="19" transform="matrix(1 0 0 -1 0 792)" d="M170.3622 692.0553L243.1182 692.0553" stroke="#000000" stroke-width="1" fill="none" /><path id="20" transform="matrix(1 0 0 -1 0 792)" d="M243.1181 692.0553L288.4721 692.0553" stroke="#000000" stroke-width="1" fill="none" /><path id="21" transform="matrix(1 0 0 -1 0 792)" d="M288.4724 692.0553L541.1334 692.0553" stroke="#000000" stroke-width="1" fill="none" /><path id="726" transform="matrix(1 0 0 -1 0 792)" d="M287.244 293.225L541.134 293.225L541.134 278.825L287.244 278.825zM244.724 293.225L287.244 293.225L287.244 278.825L244.724 278.825zM169.134 293.225L244.725 293.225L244.725 278.825L169.134 278.825zM56.693 293.225L169.134 293.225L169.134 278.825L56.693 278.825zM287.244 341.225L541.134 341.225L541.134 317.225L287.244 317.225zM244.724 341.225L287.244 341.225L287.244 317.225L244.724 317.225zM169.134 341.225L244.725 341.225L244.725 317.225L169.134 317.225zM56.693 341.225L169.134 341.225L169.134 317.225L56.693 317.225zM287.244 379.625L541.134 379.625L541.134 365.225L287.244 365.225zM244.724 379.625L287.244 379.625L287.244 365.225L244.724 365.225zM169.134 379.625L244.725 379.625L244.725 365.225L169.134 365.225zM56.693 379.625L169.134 379.625L169.134 365.225L56.693 365.225zM287.244 418.025L541.134 418.025L541.134 403.625L287.244 403.625zM244.724 418.025L287.244 418.025L287.244 403.625L244.724 403.625zM169.134 418.025L244.725 418.025L244.725 403.625L169.134 403.625zM56.693 418.025L169.134 418.025L169.134 403.625L56.693 403.625zM287.244 446.825L541.134 446.825L541.134 432.425L287.244 432.425zM244.724 446.825L287.244 446.825L287.244 432.425L244.724 432.425zM169.134 446.825L244.725 446.825L244.725 432.425L169.134 432.425zM56.693 446.825L169.134 446.825L169.134 432.425L56.693 432.425z" stroke="none" fill="#ECEDEE" fill-rule="nonzero" /><path id="727" transform="matrix(1 0 0 -1 0 792)" d="M56.6929 461.2252L169.1339 461.2252" stroke="#000000" stroke-width="1" fill="none" /><path id="728" transform="matrix(1 0 0 -1 0 792)" d="M169.1339 461.2252L244.7249 461.2252" stroke="#000000" stroke-width="1" fill="none" /><path id="729" transform="matrix(1 0 0 -1 0 792)" d="M244.7244 461.2252L287.2444 461.2252" stroke="#000000" stroke-width="1" fill="none" /><path id="730" transform="matrix(1 0 0 -1 0 792)" d="M287.2441 461.2252L541.1341 461.2252" stroke="#000000" stroke-width="1" fill="none" /><g clip-path="url(#2)"><path id="1488" transform="matrix(1 0 0 -1 0 792)" d="M56.9448 32.702L56.9448 -12.691" stroke="#000000" stroke-width="0.75" stroke-linecap="round" stroke-dasharray="0.75,1.464" fill="none" /><path id="1489" transform="matrix(1 0 0 -1 0 792)" d="M56.9448 -13.7986L56.9448 -13.7986M56.9448 34.9164L56.9448 34.9164" stroke="#000000" stroke-width="0.75" stroke-linecap="round" fill="none" /></g></g></g></svg>