<svg xmlns="http://www.w3.org/2000/svg" xmlns:xlink="http://www.w3.org/1999/xlink" id="body_57" preserveAspectRatio="xMinYMin meet" viewBox="0 0 816 1056"><defs><clipPath id="1"><path id="" clip-rule="evenodd" transform="matrix(1 0 0 1 0 0)" d="M0 792L0 0L0 0L612 0L612 0L612 792L612 792L0 792z" /></clipPath><clipPath id="2"><path id="" clip-rule="evenodd" transform="matrix(1 0 0 1 0 0)" d="M0 0L612 0L612 0L612 792L612 792L0 792z" /></clipPath></defs><g transform="matrix(1.333333 0 0 1.333333 0 0)"><g clip-path="url(#1)"><path id="17" transform="matrix(1 0 0 -1 0 792)" d="M302.646 542.68L555.307 542.68L555.307 528.28L302.646 528.28zM257.291 542.68L302.645 542.68L302.645 528.28L257.291 528.28zM184.535 542.68L257.291 542.68L257.291 528.28L184.535 528.28zM70.866 542.68L184.535 542.68L184.535 528.28L70.866 528.28zM302.646 572.055L555.307 572.055L555.307 557.079L302.646 557.079zM257.291 572.055L302.645 572.055L302.645 557.079L257.291 557.079zM184.535 572.055L257.291 572.055L257.291 557.079L184.535 557.079zM70.866 572.055L184.535 572.055L184.535 557.079L70.866 557.079zM302.646 620.055L555.307 620.055L555.307 596.055L302.646 596.055zM257.291 620.055L302.645 620.055L302.645 596.055L257.291 596.055zM184.535 620.055L257.291 620.055L257.291 596.055L184.535 596.055zM70.866 620.055L184.535 620.055L184.535 596.055L70.866 596.055zM302.646 648.855L555.307 648.855L555.307 634.455L302.646 634.455zM257.291 648.855L302.645 648.855L302.645 634.455L257.291 634.455zM184.535 648.855L257.291 648.855L257.291 634.455L184.535 634.455zM70.866 648.855L184.535 648.855L184.535 634.455L70.866 634.455zM302.646 677.655L555.307 677.655L555.307 663.255L302.646 663.255zM257.291 677.655L302.645 677.655L302.645 663.255L257.291 663.255zM184.535 677.655L257.291 677.655L257.291 663.255L184.535 663.255zM70.866 677.655L184.535 677.655L184.535 663.255L70.866 663.255z" stroke="none" fill="#ECEDEE" fill-rule="nonzero" /><path id="18" transform="matrix(1 0 0 -1 0 792)" d="M70.8661 692.0553L184.5351 692.0553" stroke="#000000" stroke-width="1" fill="none" /><path id="19" transform="matrix(1 0 0 -1 0 792)" d="M184.5354 692.0553L257.2914 692.0553" stroke="#000000" stroke-width="1" fill="none" /><path id="20" transform="matrix(1 0 0 -1 0 792)" d="M257.2913 692.0553L302.6453 692.0553" stroke="#000000" stroke-width="1" fill="none" /><path id="21" transform="matrix(1 0 0 -1 0 792)" d="M302.6457 692.0553L555.3067 692.0553" stroke="#000000" stroke-width="1" fill="none" /><path id="726" transform="matrix(1 0 0 -1 0 792)" d="M301.417 293.225L555.307 293.225L555.307 278.825L301.417 278.825zM258.898 293.225L301.418 293.225L301.418 278.825L258.898 278.825zM183.307 293.225L258.898 293.225L258.898 278.825L183.307 278.825zM70.866 293.225L183.307 293.225L183.307 278.825L70.866 278.825zM301.417 341.225L555.307 341.225L555.307 317.225L301.417 317.225zM258.898 341.225L301.418 341.225L301.418 317.225L258.898 317.225zM183.307 341.225L258.898 341.225L258.898 317.225L183.307 317.225zM70.866 341.225L183.307 341.225L183.307 317.225L70.866 317.225zM301.417 379.625L555.307 379.625L555.307 365.225L301.417 365.225zM258.898 379.625L301.418 379.625L301.418 365.225L258.898 365.225zM183.307 379.625L258.898 379.625L258.898 365.225L183.307 365.225zM70.866 379.625L183.307 379.625L183.307 365.225L70.866 365.225zM301.417 418.025L555.307 418.025L555.307 403.625L301.417 403.625zM258.898 418.025L301.418 418.025L301.418 403.625L258.898 403.625zM183.307 418.025L258.898 418.025L258.898 403.625L183.307 403.625zM70.866 418.025L183.307 418.025L183.307 403.625L70.866 403.625zM301.417 446.825L555.307 446.825L555.307 432.425L301.417 432.425zM258.898 446.825L301.418 446.825L301.418 432.425L258.898 432.425zM183.307 446.825L258.898 446.825L258.898 432.425L183.307 432.425zM70.866 446.825L183.307 446.825L183.307 432.425L70.866 432.425z" stroke="none" fill="#ECEDEE" fill-rule="nonzero" /><path id="727" transform="matrix(1 0 0 -1 0 792)" d="M70.8661 461.2252L183.3071 461.2252" stroke="#000000" stroke-width="1" fill="none" /><path id="728" transform="matrix(1 0 0 -1 0 792)" d="M183.3071 461.2252L258.8981 461.2252" stroke="#000000" stroke-width="1" fill="none" /><path id="729" transform="matrix(1 0 0 -1 0 792)" d="M258.8976 461.2252L301.4176 461.2252" stroke="#000000" stroke-width="1" fill="none" /><path id="730" transform="matrix(1 0 0 -1 0 792)" d="M301.4173 461.2252L555.3073 461.2252" stroke="#000000" stroke-width="1" fill="none" /><g clip-path="url(#2)"><path id="1488" transform="matrix(1 0 0 -1 0 792)" d="M555.6614 32.702L555.6614 -12.691" stroke="#000000" stroke-width="0.75" stroke-linecap="round" stroke-dasharray="0.75,1.464" fill="none" /><path id="1489" transform="matrix(1 0 0 -1 0 792)" d="M555.6614 -13.7986L555.6614 -13.7986M555.6614 34.9164L555.6614 34.9164" stroke="#000000" stroke-width="0.75" stroke-linecap="round" fill="none" /></g></g></g></svg>