<svg xmlns="http://www.w3.org/2000/svg" xmlns:xlink="http://www.w3.org/1999/xlink" id="body_22" preserveAspectRatio="xMinYMin meet" viewBox="0 0 816 1056"><defs><clipPath id="1"><path id="" clip-rule="evenodd" transform="matrix(1 0 0 1 0 0)" d="M0 792L0 0L0 0L612 0L612 0L612 792L612 792L0 792z" /></clipPath><clipPath id="2"><path id="" clip-rule="evenodd" transform="matrix(1 0 0 1 0 0)" d="M0 0L612 0L612 0L612 792L612 792L0 792z" /></clipPath></defs><g transform="matrix(1.333333 0 0 1.333333 0 0)"><g clip-path="url(#1)"><path id="1" transform="matrix(1 0 0 -1 0 792)" d="M56.693 719.682L292.913 719.682L292.913 738.142L56.693 738.142z" stroke="none" fill="#000000" fill-rule="nonzero" /><path id="2" transform="matrix(1 0 0 -1 0 792)" d="M59.1863 582.7372L291.4163 582.7372" stroke="#000000" stroke-width="1" stroke-linecap="round" stroke-dasharray="1,1" fill="none" /><path id="3" transform="matrix(1 0 0 -1 0 792)" d="M292.4129 582.7372L292.4129 582.7372M57.1929 582.7372L57.1929 582.7372" stroke="#000000" stroke-width="1" stroke-linecap="round" fill="none" /><path id="4" transform="matrix(1 0 0 -1 0 792)" d="M59.1863 488.0522L291.4163 488.0522" stroke="#000000" stroke-width="1" stroke-linecap="round" stroke-dasharray="1,1" fill="none" /><path id="5" transform="matrix(1 0 0 -1 0 792)" d="M292.4129 488.0522L292.4129 488.0522M57.1929 488.0522L57.1929 488.0522" stroke="#000000" stroke-width="1" stroke-linecap="round" fill="none" /><path id="6" transform="matrix(1 0 0 -1 0 792)" d="M60.9449 465.2983L60.9449 473.4633" stroke="#BBBDC0" stroke-width="8" fill="none" /><path id="7" transform="matrix(1 0 0 -1 0 792)" d="M60.9449 415.2904L60.9449 423.4554" stroke="#BBBDC0" stroke-width="8" fill="none" /><path id="1228" transform="matrix(1 0 0 -1 0 792)" d="M304.913 667.678L541.133 667.678L541.133 686.138L304.913 686.138z" stroke="none" fill="#EAEBEC" fill-rule="nonzero" /><path id="1229" transform="matrix(1 0 0 -1 0 792)" d="M309.1653 623.6488L309.1653 631.8138" stroke="#BBBDC0" stroke-width="8" fill="none" /><path id="1230" transform="matrix(1 0 0 -1 0 792)" d="M309.1653 584.6409L309.1653 592.8059" stroke="#BBBDC0" stroke-width="8" fill="none" /><path id="1231" transform="matrix(1 0 0 -1 0 792)" d="M309.1653 473.9638L309.1653 482.1288" stroke="#BBBDC0" stroke-width="8" fill="none" /><path id="1232" transform="matrix(1 0 0 -1 0 792)" d="M309.1653 390.9559L309.1653 399.1209" stroke="#BBBDC0" stroke-width="8" fill="none" /><path id="1233" transform="matrix(1 0 0 -1 0 792)" d="M304.913 248.836L541.133 248.836L541.133 267.296L304.913 267.296z" stroke="none" fill="#EAEBEC" fill-rule="nonzero" /><path id="1234" transform="matrix(1 0 0 -1 0 792)" d="M309.1653 204.8063L309.1653 212.9713" stroke="#BBBDC0" stroke-width="8" fill="none" /><path id="1235" transform="matrix(1 0 0 -1 0 792)" d="M309.1653 165.7984L309.1653 173.9634" stroke="#BBBDC0" stroke-width="8" fill="none" /><g clip-path="url(#2)"><path id="2739" transform="matrix(1 0 0 -1 0 792)" d="M56.9448 32.702L56.9448 -12.691" stroke="#000000" stroke-width="0.75" stroke-linecap="round" stroke-dasharray="0.75,1.464" fill="none" /><path id="2740" transform="matrix(1 0 0 -1 0 792)" d="M56.9448 -13.7986L56.9448 -13.7986M56.9448 34.9164L56.9448 34.9164" stroke="#000000" stroke-width="0.75" stroke-linecap="round" fill="none" /></g></g></g></svg>