<svg xmlns="http://www.w3.org/2000/svg" xmlns:xlink="http://www.w3.org/1999/xlink" id="body_53" preserveAspectRatio="xMinYMin meet" viewBox="0 0 816 1056"><defs><clipPath id="1"><path id="" clip-rule="evenodd" transform="matrix(1 0 0 1 0 0)" d="M0 792L0 0L0 0L612 0L612 0L612 792L612 792L0 792z" /></clipPath><clipPath id="2"><path id="" clip-rule="evenodd" transform="matrix(1 0 0 1 0 0)" d="M0 0L612 0L612 0L612 792L612 792L0 792z" /></clipPath></defs><g transform="matrix(1.333333 0 0 1.333333 0 0)"><g clip-path="url(#1)"><path id="17" transform="matrix(1 0 0 -1 0 792)" d="M351.496 463.607L555.307 463.607L555.307 439.607L351.496 439.607zM287.906 463.607L351.497 463.607L351.497 439.607L287.906 439.607zM230.268 463.607L287.906 463.607L287.906 439.607L230.268 439.607zM177.354 463.607L230.267 463.607L230.267 439.607L177.354 439.607zM126.331 463.607L177.355 463.607L177.355 439.607L126.331 439.607zM70.866 463.607L126.331 463.607L126.331 439.607L70.866 439.607zM351.496 521.607L555.307 521.607L555.307 487.607L351.496 487.607zM287.906 521.607L351.497 521.607L351.497 487.607L287.906 487.607zM230.268 521.607L287.906 521.607L287.906 487.607L230.268 487.607zM177.354 521.607L230.267 521.607L230.267 487.607L177.354 487.607zM126.331 521.607L177.355 521.607L177.355 487.607L126.331 487.607zM70.866 521.607L126.331 521.607L126.331 487.607L70.866 487.607zM351.496 579.607L555.307 579.607L555.307 555.607L351.496 555.607zM287.906 579.607L351.497 579.607L351.497 555.607L287.906 555.607zM230.268 579.607L287.906 579.607L287.906 555.607L230.268 555.607zM177.354 579.607L230.267 579.607L230.267 555.607L177.354 555.607zM126.331 579.607L177.355 579.607L177.355 555.607L126.331 555.607zM70.866 579.607L126.331 579.607L126.331 555.607L70.866 555.607zM351.496 627.607L555.307 627.607L555.307 603.607L351.496 603.607zM287.906 627.607L351.497 627.607L351.497 603.607L287.906 603.607zM230.268 627.607L287.906 627.607L287.906 603.607L230.268 603.607zM177.354 627.607L230.267 627.607L230.267 603.607L177.354 603.607zM126.331 627.607L177.355 627.607L177.355 603.607L126.331 603.607zM70.866 627.607L126.331 627.607L126.331 603.607L70.866 603.607zM351.496 675.607L555.307 675.607L555.307 651.607L351.496 651.607zM287.906 675.607L351.497 675.607L351.497 651.607L287.906 651.607zM230.268 675.607L287.906 675.607L287.906 651.607L230.268 651.607zM177.354 675.607L230.267 675.607L230.267 651.607L177.354 651.607zM126.331 675.607L177.355 675.607L177.355 651.607L126.331 651.607zM70.866 675.607L126.331 675.607L126.331 651.607L70.866 651.607z" stroke="none" fill="#E6E7E8" fill-rule="nonzero" /><path id="18" transform="matrix(1 0 0 -1 0 792)" d="M70.8661 699.6074L126.3311 699.6074" stroke="#000000" stroke-width="1" fill="none" /><path id="19" transform="matrix(1 0 0 -1 0 792)" d="M126.3307 699.6074L177.3547 699.6074" stroke="#000000" stroke-width="1" fill="none" /><path id="20" transform="matrix(1 0 0 -1 0 792)" d="M177.3543 699.6074L230.2673 699.6074" stroke="#000000" stroke-width="1" fill="none" /><path id="21" transform="matrix(1 0 0 -1 0 792)" d="M230.2677 699.6074L287.9057 699.6074" stroke="#000000" stroke-width="1" fill="none" /><path id="22" transform="matrix(1 0 0 -1 0 792)" d="M287.9055 699.6074L351.4965 699.6074" stroke="#000000" stroke-width="1" fill="none" /><path id="23" transform="matrix(1 0 0 -1 0 792)" d="M351.496 699.6074L555.307 699.6074" stroke="#000000" stroke-width="1" fill="none" /><path id="1114" transform="matrix(1 0 0 -1 0 792)" d="M353.102 139.505L555.307 139.505L555.307 105.505L353.102 105.505zM288.85 139.505L353.102 139.505L353.102 105.505L288.85 105.505zM232.441 139.505L288.85 139.505L288.85 105.505L232.441 105.505zM179.244 139.505L232.441 139.505L232.441 105.505L179.244 105.505zM127.559 139.505L179.244 139.505L179.244 105.505L127.559 105.505zM70.866 139.505L127.559 139.505L127.559 105.505L70.866 105.505zM353.102 207.505L555.307 207.505L555.307 173.505L353.102 173.505zM288.85 207.505L353.102 207.505L353.102 173.505L288.85 173.505zM232.441 207.505L288.85 207.505L288.85 173.505L232.441 173.505zM179.244 207.505L232.441 207.505L232.441 173.505L179.244 173.505zM127.559 207.505L179.244 207.505L179.244 173.505L127.559 173.505zM70.866 207.505L127.559 207.505L127.559 173.505L70.866 173.505zM353.102 265.505L555.307 265.505L555.307 241.505L353.102 241.505zM288.85 265.505L353.102 265.505L353.102 241.505L288.85 241.505zM232.441 265.505L288.85 265.505L288.85 241.505L232.441 241.505zM179.244 265.505L232.441 265.505L232.441 241.505L179.244 241.505zM127.559 265.505L179.244 265.505L179.244 241.505L127.559 241.505zM70.866 265.505L127.559 265.505L127.559 241.505L70.866 241.505zM353.102 313.505L555.307 313.505L555.307 289.505L353.102 289.505zM288.85 313.505L353.102 313.505L353.102 289.505L288.85 289.505zM232.441 313.505L288.85 313.505L288.85 289.505L232.441 289.505zM179.244 313.505L232.441 313.505L232.441 289.505L179.244 289.505zM127.559 313.505L179.244 313.505L179.244 289.505L127.559 289.505zM70.866 313.505L127.559 313.505L127.559 289.505L70.866 289.505zM353.102 361.505L555.307 361.505L555.307 337.505L353.102 337.505zM288.85 361.505L353.102 361.505L353.102 337.505L288.85 337.505zM232.441 361.505L288.85 361.505L288.85 337.505L232.441 337.505zM179.244 361.505L232.441 361.505L232.441 337.505L179.244 337.505zM127.559 361.505L179.244 361.505L179.244 337.505L127.559 337.505zM70.866 361.505L127.559 361.505L127.559 337.505L70.866 337.505z" stroke="none" fill="#ECEDEE" fill-rule="nonzero" /><path id="1115" transform="matrix(1 0 0 -1 0 792)" d="M70.8661 385.505L127.5591 385.505" stroke="#000000" stroke-width="1" fill="none" /><path id="1116" transform="matrix(1 0 0 -1 0 792)" d="M127.5591 385.505L179.2441 385.505" stroke="#000000" stroke-width="1" fill="none" /><path id="1117" transform="matrix(1 0 0 -1 0 792)" d="M179.2441 385.505L232.4411 385.505" stroke="#000000" stroke-width="1" fill="none" /><path id="1118" transform="matrix(1 0 0 -1 0 792)" d="M232.4409 385.505L288.8499 385.505" stroke="#000000" stroke-width="1" fill="none" /><path id="1119" transform="matrix(1 0 0 -1 0 792)" d="M288.8504 385.505L353.1024 385.505" stroke="#000000" stroke-width="1" fill="none" /><path id="1120" transform="matrix(1 0 0 -1 0 792)" d="M353.1024 385.505L555.3074 385.505" stroke="#000000" stroke-width="1" fill="none" /><g clip-path="url(#2)"><path id="2269" transform="matrix(1 0 0 -1 0 792)" d="M555.6614 32.702L555.6614 -12.691" stroke="#000000" stroke-width="0.75" stroke-linecap="round" stroke-dasharray="0.75,1.464" fill="none" /><path id="2270" transform="matrix(1 0 0 -1 0 792)" d="M555.6614 -13.7986L555.6614 -13.7986M555.6614 34.9164L555.6614 34.9164" stroke="#000000" stroke-width="0.75" stroke-linecap="round" fill="none" /></g></g></g></svg>