<svg xmlns="http://www.w3.org/2000/svg" xmlns:xlink="http://www.w3.org/1999/xlink" id="body_77" preserveAspectRatio="xMinYMin meet" viewBox="0 0 816 1056"><defs><clipPath id="1"><path id="" clip-rule="evenodd" transform="matrix(1 0 0 1 0 0)" d="M0 792L0 0L0 0L612 0L612 0L612 792L612 792L0 792z" /></clipPath><clipPath id="2"><path id="" clip-rule="evenodd" transform="matrix(1 0 0 1 0 0)" d="M70.866 296.425L307.418 296.425L307.418 296.425L307.418 56.69299L307.418 56.69299L70.866 56.69299z" /></clipPath><clipPath id="3"><path id="" clip-rule="evenodd" transform="matrix(1 0 0 1 0 0)" d="M61.8662 48.69299L316.417 48.69299L316.417 48.69299L316.417 299.133L316.417 299.133L61.8662 299.133z" /></clipPath><clipPath id="4"><path id="" clip-rule="evenodd" transform="matrix(1 0 0 1 0 0)" d="M70.866 482.512L307.418 482.512L307.418 482.512L307.418 305.028L307.418 305.028L70.866 305.028z" /></clipPath><clipPath id="5"><path id="" clip-rule="evenodd" transform="matrix(1 0 0 1 0 0)" d="M61.8662 297.028L316.417 297.028L316.417 297.028L316.417 485.22L316.417 485.22L61.8662 485.22z" /></clipPath><clipPath id="6"><path id="" clip-rule="evenodd" transform="matrix(1 0 0 1 0 0)" d="M70.866 668.458L307.418 668.458L307.418 668.458L307.418 493.391L307.418 493.391L70.866 493.391z" /></clipPath><clipPath id="7"><path id="" clip-rule="evenodd" transform="matrix(1 0 0 1 0 0)" d="M61.8662 485.391L316.417 485.391L316.417 485.391L316.417 671.166L316.417 671.166L61.8662 671.166z" /></clipPath><clipPath id="8"><path id="" clip-rule="evenodd" transform="matrix(1 0 0 1 0 0)" d="M319.087 280.677L555.638 280.677L555.638 280.677L555.638 56.69299L555.638 56.69299L319.087 56.69299z" /></clipPath><clipPath id="9"><path id="" clip-rule="evenodd" transform="matrix(1 0 0 1 0 0)" d="M310.087 48.69299L564.638 48.69299L564.638 48.69299L564.638 283.385L564.638 283.385L310.087 283.385z" /></clipPath><clipPath id="10"><path id="" clip-rule="evenodd" transform="matrix(1 0 0 1 0 0)" d="M319.087 506.489L555.638 506.489L555.638 506.489L555.638 289.588L555.638 289.588L319.087 289.588z" /></clipPath><clipPath id="11"><path id="" clip-rule="evenodd" transform="matrix(1 0 0 1 0 0)" d="M310.087 281.589L564.638 281.589L564.638 281.589L564.638 509.198L564.638 509.198L310.087 509.198z" /></clipPath><clipPath id="12"><path id="" clip-rule="evenodd" transform="matrix(1 0 0 1 0 0)" d="M319.087 678.338L555.638 678.338L555.638 678.338L555.638 516.764L555.638 516.764L319.087 516.764z" /></clipPath><clipPath id="13"><path id="" clip-rule="evenodd" transform="matrix(1 0 0 1 0 0)" d="M310.087 510.514L564.638 510.514L564.638 510.514L564.638 679.706L564.638 679.706L310.087 679.706z" /></clipPath><clipPath id="14"><path id="" clip-rule="evenodd" transform="matrix(1 0 0 1 0 0)" d="M0 0L612 0L612 0L612 792L612 792L0 792z" /></clipPath></defs><g transform="matrix(1.333333 0 0 1.333333 0 0)"><g clip-path="url(#1)"><path id="1" transform="matrix(1 0 0 -1 0 792)" d="M73.701 735.3072L70.866 732.4722L70.866 498.4102L73.701 495.5752L304.583 495.5752L307.418 498.4102L307.418 732.4722L304.583 735.3072z" stroke="none" fill="#EAEBEC" fill-rule="nonzero" /><path id="2" transform="matrix(1 0 0 -1 0 792)" d="M77.035 647.414L301.248 647.414L301.248 672.918L77.035 672.918z" stroke="none" fill="#FFFEFE" fill-rule="nonzero" /><path id="3" transform="matrix(1 0 0 -1 0 792)" d="M77.0355 672.9178L301.2485 672.9178" stroke="#939597" stroke-width="0.5" fill="none" /><path id="4" transform="matrix(1 0 0 -1 0 792)" d="M77.0355 647.1836L300.6965 647.1836" stroke="#939597" stroke-width="0.5" fill="none" /><g clip-path="url(#2)"><g><g clip-path="url(#3)"><path id="866" transform="matrix(1 0 0 -1 0 792)" d="M73.8044 735.0571C 72.90839 734.1611 72.0124 733.2651 71.11639 732.3691L71.11639 732.3691L71.11639 498.5131C 72.0124 497.6171 72.90839 496.7211 73.8044 495.8251L73.8044 495.8251L304.4794 495.8251C 305.3754 496.7211 306.2714 497.6171 307.1674 498.5131L307.1674 498.5131L307.1674 732.3691C 306.2714 733.2651 305.3754 734.1611 304.4794 735.0571L304.4794 735.0571L73.8044 735.0571z" stroke="#000000" stroke-width="0.5" fill="none" stroke-opacity="0.4980392" /></g></g></g><path id="867" transform="matrix(1 0 0 -1 0 792)" d="M73.701 486.972L70.866 484.137L70.866 312.322L73.701 309.488L304.583 309.488L307.418 312.322L307.418 484.137L304.583 486.972z" stroke="none" fill="#EAEBEC" fill-rule="nonzero" /><path id="868" transform="matrix(1 0 0 -1 0 792)" d="M77.035 408.078L301.248 408.078L301.248 433.582L77.035 433.582z" stroke="none" fill="#FFFEFE" fill-rule="nonzero" /><path id="869" transform="matrix(1 0 0 -1 0 792)" d="M77.0355 433.5824L301.2485 433.5824" stroke="#939597" stroke-width="0.5" fill="none" /><path id="870" transform="matrix(1 0 0 -1 0 792)" d="M77.035 393.409L301.248 393.409L301.248 412.748L77.035 412.748z" stroke="none" fill="#FFFEFE" fill-rule="nonzero" /><path id="871" transform="matrix(1 0 0 -1 0 792)" d="M78.0546 408.4958L300.7386 408.4958" stroke="#BBBDC0" stroke-width="0.51" stroke-linecap="round" stroke-dasharray="0.51,0.51" fill="none" /><path id="872" transform="matrix(1 0 0 -1 0 792)" d="M301.2485 408.4958L301.2485 408.4958M77.0355 408.4958L77.0355 408.4958" stroke="#BBBDC0" stroke-width="0.51" stroke-linecap="round" fill="none" /><path id="873" transform="matrix(1 0 0 -1 0 792)" d="M77.0355 393.1789L300.6965 393.1789" stroke="#939597" stroke-width="0.5" fill="none" /><g clip-path="url(#4)"><g><g clip-path="url(#5)"><path id="1356" transform="matrix(1 0 0 -1 0 792)" d="M73.8044 486.7217C 72.90839 485.8257 72.0124 484.9297 71.11639 484.0337L71.11639 484.0337L71.11639 312.4257C 72.0124 311.5297 72.90839 310.6337 73.8044 309.7377L73.8044 309.7377L304.4794 309.7377L304.4794 309.7377L307.1674 312.4257L307.1674 312.4257L307.1674 484.0337C 306.2714 484.9297 305.3754 485.8257 304.4794 486.7217L304.4794 486.7217L73.8044 486.7217z" stroke="#000000" stroke-width="0.5" fill="none" stroke-opacity="0.4980392" /></g></g></g><path id="1357" transform="matrix(1 0 0 -1 0 792)" d="M73.701 298.6092L70.866 295.7742L70.866 126.3772L73.701 123.5422L304.583 123.5422L307.418 126.3772L307.418 295.7742L304.583 298.6092z" stroke="none" fill="#EAEBEC" fill-rule="nonzero" /><path id="1358" transform="matrix(1 0 0 -1 0 792)" d="M77.035 201.716L301.248 201.716L301.248 227.22L77.035 227.22z" stroke="none" fill="#FFFEFE" fill-rule="nonzero" /><path id="1359" transform="matrix(1 0 0 -1 0 792)" d="M77.0355 227.2195L301.2485 227.2195" stroke="#939597" stroke-width="0.5" fill="none" /><path id="1360" transform="matrix(1 0 0 -1 0 792)" d="M77.035 187.046L301.248 187.046L301.248 206.385L77.035 206.385z" stroke="none" fill="#FFFEFE" fill-rule="nonzero" /><path id="1361" transform="matrix(1 0 0 -1 0 792)" d="M78.0546 202.1329L300.7386 202.1329" stroke="#BBBDC0" stroke-width="0.51" stroke-linecap="round" stroke-dasharray="0.51,0.51" fill="none" /><path id="1362" transform="matrix(1 0 0 -1 0 792)" d="M301.2485 202.1329L301.2485 202.1329M77.0355 202.1329L77.0355 202.1329" stroke="#BBBDC0" stroke-width="0.51" stroke-linecap="round" fill="none" /><path id="1363" transform="matrix(1 0 0 -1 0 792)" d="M77.0355 186.816L300.6965 186.816" stroke="#939597" stroke-width="0.5" fill="none" /><g clip-path="url(#6)"><g><g clip-path="url(#7)"><path id="1827" transform="matrix(1 0 0 -1 0 792)" d="M73.8044 298.3588C 72.90839 297.4628 72.0124 296.5668 71.11639 295.6708L71.11639 295.6708L71.11639 126.4808L71.11639 126.4808L73.8044 123.7928L73.8044 123.7928L304.4794 123.7928C 305.3754 124.6888 306.2714 125.5848 307.1674 126.4808L307.1674 126.4808L307.1674 295.6708L307.1674 295.6708L304.4794 298.3588L304.4794 298.3588L73.8044 298.3588z" stroke="#000000" stroke-width="0.5" fill="none" stroke-opacity="0.4980392" /></g></g></g><path id="1828" transform="matrix(1 0 0 -1 0 792)" d="M321.921 735.3072L319.087 732.4722L319.087 514.1582L321.921 511.3232L552.803 511.3232L555.637 514.1582L555.637 732.4722L552.803 735.3072z" stroke="none" fill="#EAEBEC" fill-rule="nonzero" /><path id="1829" transform="matrix(1 0 0 -1 0 792)" d="M325.256 638.414L549.469 638.414L549.469 663.918L325.256 663.918z" stroke="none" fill="#FFFEFE" fill-rule="nonzero" /><path id="1830" transform="matrix(1 0 0 -1 0 792)" d="M325.2559 663.9178L549.4689 663.9178" stroke="#939597" stroke-width="0.5" fill="none" /><path id="1831" transform="matrix(1 0 0 -1 0 792)" d="M325.256 623.745L549.469 623.745L549.469 643.084L325.256 643.084z" stroke="none" fill="#FFFEFE" fill-rule="nonzero" /><path id="1832" transform="matrix(1 0 0 -1 0 792)" d="M326.2751 638.8312L548.9591 638.8312" stroke="#BBBDC0" stroke-width="0.51" stroke-linecap="round" stroke-dasharray="0.51,0.51" fill="none" /><path id="1833" transform="matrix(1 0 0 -1 0 792)" d="M549.4689 638.8312L549.4689 638.8312M325.2559 638.8312L325.2559 638.8312" stroke="#BBBDC0" stroke-width="0.51" stroke-linecap="round" fill="none" /><path id="1834" transform="matrix(1 0 0 -1 0 792)" d="M325.2559 623.5143L548.9169 623.5143" stroke="#939597" stroke-width="0.5" fill="none" /><g clip-path="url(#8)"><g><g clip-path="url(#9)"><path id="2525" transform="matrix(1 0 0 -1 0 792)" d="M322.0248 735.0571C 321.1288 734.1611 320.2328 733.2651 319.3368 732.3691L319.3368 732.3691L319.3368 514.2611L319.3368 514.2611L322.0248 511.5731L322.0248 511.5731L552.6998 511.5731C 553.5958 512.4691 554.4918 513.3651 555.3878 514.2611L555.3878 514.2611L555.3878 732.3691L555.3878 732.3691L552.6998 735.0571L552.6998 735.0571L322.0248 735.0571z" stroke="#000000" stroke-width="0.5" fill="none" stroke-opacity="0.4980392" /></g></g></g><path id="2526" transform="matrix(1 0 0 -1 0 792)" d="M321.921 502.4115L319.087 499.5765L319.087 288.3445L321.921 285.5105L552.803 285.5105L555.637 288.3445L555.637 499.5765L552.803 502.4115z" stroke="none" fill="#EAEBEC" fill-rule="nonzero" /><path id="2527" transform="matrix(1 0 0 -1 0 792)" d="M325.256 423.518L549.469 423.518L549.469 449.022L325.256 449.022z" stroke="none" fill="#FFFEFE" fill-rule="nonzero" /><path id="2528" transform="matrix(1 0 0 -1 0 792)" d="M325.256 449.0221L549.469 449.0221" stroke="#939597" stroke-width="0.5" fill="none" /><path id="2529" transform="matrix(1 0 0 -1 0 792)" d="M325.256 408.849L549.469 408.849L549.469 428.188L325.256 428.188z" stroke="none" fill="#FFFEFE" fill-rule="nonzero" /><path id="2530" transform="matrix(1 0 0 -1 0 792)" d="M326.2751 423.9355L548.9591 423.9355" stroke="#BBBDC0" stroke-width="0.51" stroke-linecap="round" stroke-dasharray="0.51,0.51" fill="none" /><path id="2531" transform="matrix(1 0 0 -1 0 792)" d="M549.469 423.9355L549.469 423.9355M325.256 423.9355L325.256 423.9355" stroke="#BBBDC0" stroke-width="0.51" stroke-linecap="round" fill="none" /><path id="2532" transform="matrix(1 0 0 -1 0 792)" d="M325.256 408.6186L548.917 408.6186" stroke="#939597" stroke-width="0.5" fill="none" /><g clip-path="url(#10)"><g><g clip-path="url(#11)"><path id="3242" transform="matrix(1 0 0 -1 0 792)" d="M322.0249 502.1613C 321.1289 501.2653 320.2329 500.3693 319.3369 499.4733L319.3369 499.4733L319.3369 288.4483C 320.2329 287.5523 321.1289 286.6563 322.0249 285.7603L322.0249 285.7603L552.6999 285.7603L552.6999 285.7603L555.3879 288.4483L555.3879 288.4483L555.3879 499.4733C 554.4919 500.3693 553.5959 501.2653 552.6999 502.1613L552.6999 502.1613L322.0249 502.1613z" stroke="#000000" stroke-width="0.5" fill="none" stroke-opacity="0.4980392" /></g></g></g><path id="3243" transform="matrix(1 0 0 -1 0 792)" d="M321.921 273.4857L319.087 270.6517L319.087 117.8367L321.921 115.0017L552.803 115.0017L555.637 117.8367L555.637 270.6517L552.803 273.4857z" stroke="none" fill="#EAEBEC" fill-rule="nonzero" /><path id="3244" transform="matrix(1 0 0 -1 0 792)" d="M325.256 194.593L549.469 194.593L549.469 220.097L325.256 220.097z" stroke="none" fill="#FFFEFE" fill-rule="nonzero" /><path id="3245" transform="matrix(1 0 0 -1 0 792)" d="M325.256 220.0966L549.469 220.0966" stroke="#939597" stroke-width="0.5" fill="none" /><path id="3246" transform="matrix(1 0 0 -1 0 792)" d="M325.256 179.923L549.469 179.923L549.469 199.262L325.256 199.262z" stroke="none" fill="#FFFEFE" fill-rule="nonzero" /><path id="3247" transform="matrix(1 0 0 -1 0 792)" d="M326.2751 195.01L548.9591 195.01" stroke="#BBBDC0" stroke-width="0.51" stroke-linecap="round" stroke-dasharray="0.51,0.51" fill="none" /><path id="3248" transform="matrix(1 0 0 -1 0 792)" d="M549.469 195.01L549.469 195.01M325.256 195.01L325.256 195.01" stroke="#BBBDC0" stroke-width="0.51" stroke-linecap="round" fill="none" /><path id="3249" transform="matrix(1 0 0 -1 0 792)" d="M325.256 179.6931L548.917 179.6931" stroke="#939597" stroke-width="0.5" fill="none" /><g clip-path="url(#12)"><g><g clip-path="url(#13)"><path id="3664" transform="matrix(1 0 0 -1 0 792)" d="M322.0249 273.2359C 321.1289 272.3399 320.2329 271.4439 319.3369 270.5479L319.3369 270.5479L319.3369 117.9399C 320.2329 117.0439 321.1289 116.1479 322.0249 115.2519L322.0249 115.2519L552.6999 115.2519C 553.5959 116.1479 554.4919 117.0439 555.3879 117.9399L555.3879 117.9399L555.3879 270.5479C 554.4919 271.4439 553.5959 272.3399 552.6999 273.2359L552.6999 273.2359L322.0249 273.2359z" stroke="#000000" stroke-width="0.5" fill="none" stroke-opacity="0.4980392" /></g></g></g><g clip-path="url(#14)"><path id="3681" transform="matrix(1 0 0 -1 0 792)" d="M555.6614 32.702L555.6614 -12.691" stroke="#000000" stroke-width="0.75" stroke-linecap="round" stroke-dasharray="0.75,1.464" fill="none" /><path id="3682" transform="matrix(1 0 0 -1 0 792)" d="M555.6614 -13.7986L555.6614 -13.7986M555.6614 34.9164L555.6614 34.9164" stroke="#000000" stroke-width="0.75" stroke-linecap="round" fill="none" /></g></g></g></svg>