<svg xmlns="http://www.w3.org/2000/svg" xmlns:xlink="http://www.w3.org/1999/xlink" id="body_94" preserveAspectRatio="xMinYMin meet" viewBox="0 0 816 1056"><defs><clipPath id="1"><path id="" clip-rule="evenodd" transform="matrix(1 0 0 1 0 0)" d="M0 792L0 0L0 0L612 0L612 0L612 792L612 792L0 792z" /></clipPath><clipPath id="2"><path id="" clip-rule="evenodd" transform="matrix(1 0 0 1 0 0)" d="M56.693 351.012L293.244 351.012L293.244 351.012L293.244 56.69299L293.244 56.69299L56.693 56.69299z" /></clipPath><clipPath id="3"><path id="" clip-rule="evenodd" transform="matrix(1 0 0 1 0 0)" d="M47.693 48.69299L302.244 48.69299L302.244 48.69299L302.244 353.719L302.244 353.719L47.693 353.719z" /></clipPath><clipPath id="4"><path id="" clip-rule="evenodd" transform="matrix(1 0 0 1 0 0)" d="M56.693 604.717L293.244 604.717L293.244 604.717L293.244 362.151L293.244 362.151L56.693 362.151z" /></clipPath><clipPath id="5"><path id="" clip-rule="evenodd" transform="matrix(1 0 0 1 0 0)" d="M47.693 354.151L302.244 354.151L302.244 354.151L302.244 607.426L302.244 607.426L47.693 607.426z" /></clipPath><clipPath id="6"><path id="" clip-rule="evenodd" transform="matrix(1 0 0 1 0 0)" d="M304.914 292.094L541.465 292.094L541.465 292.094L541.465 56.69299L541.465 56.69299L304.914 56.69299z" /></clipPath><clipPath id="7"><path id="" clip-rule="evenodd" transform="matrix(1 0 0 1 0 0)" d="M295.913 48.69299L550.465 48.69299L550.465 48.69299L550.465 294.802L550.465 294.802L295.913 294.802z" /></clipPath><clipPath id="8"><path id="" clip-rule="evenodd" transform="matrix(1 0 0 1 0 0)" d="M304.914 540.621L541.465 540.621L541.465 540.621L541.465 305.719L541.465 305.719L304.914 305.719z" /></clipPath><clipPath id="9"><path id="" clip-rule="evenodd" transform="matrix(1 0 0 1 0 0)" d="M295.913 297.72L550.465 297.72L550.465 297.72L550.465 543.329L550.465 543.329L295.913 543.329z" /></clipPath><clipPath id="10"><path id="" clip-rule="evenodd" transform="matrix(1 0 0 1 0 0)" d="M0 0L612 0L612 0L612 792L612 792L0 792z" /></clipPath></defs><g transform="matrix(1.333333 0 0 1.333333 0 0)"><g clip-path="url(#1)"><path id="1" transform="matrix(1 0 0 -1 0 792)" d="M59.5278 735.3072L56.6928 732.4722L56.6928 443.8232L59.5278 440.9892L290.4098 440.9892L293.2438 443.8232L293.2438 732.4722L290.4098 735.3072z" stroke="none" fill="#EAEBEC" fill-rule="nonzero" /><path id="2" transform="matrix(1 0 0 -1 0 792)" d="M62.862 656.414L287.075 656.414L287.075 681.918L62.862 681.918z" stroke="none" fill="#FFFEFE" fill-rule="nonzero" /><path id="3" transform="matrix(1 0 0 -1 0 792)" d="M62.8623 681.9178L287.0753 681.9178" stroke="#939597" stroke-width="0.5" fill="none" /><path id="4" transform="matrix(1 0 0 -1 0 792)" d="M62.862 641.745L287.075 641.745L287.075 661.084L62.862 661.084z" stroke="none" fill="#FFFEFE" fill-rule="nonzero" /><path id="5" transform="matrix(1 0 0 -1 0 792)" d="M63.8814 656.8312L286.5654 656.8312" stroke="#BBBDC0" stroke-width="0.51" stroke-linecap="round" stroke-dasharray="0.51,0.51" fill="none" /><path id="6" transform="matrix(1 0 0 -1 0 792)" d="M287.0753 656.8312L287.0753 656.8312M62.8623 656.8312L62.8623 656.8312" stroke="#BBBDC0" stroke-width="0.51" stroke-linecap="round" fill="none" /><path id="7" transform="matrix(1 0 0 -1 0 792)" d="M62.8623 641.5143L286.5233 641.5143" stroke="#939597" stroke-width="0.5" fill="none" /><g clip-path="url(#2)"><g><g clip-path="url(#3)"><path id="1098" transform="matrix(1 0 0 -1 0 792)" d="M59.6312 735.0571C 58.7352 734.1611 57.8392 733.2651 56.9432 732.3691L56.9432 732.3691L56.9432 443.9271L56.9432 443.9271L59.6312 441.2391L59.6312 441.2391L290.3062 441.2391C 291.2022 442.1351 292.0982 443.0311 292.9942 443.9271L292.9942 443.9271L292.9942 732.3691C 292.0982 733.2651 291.2022 734.1611 290.3062 735.0571L290.3062 735.0571L59.6312 735.0571z" stroke="#000000" stroke-width="0.5" fill="none" stroke-opacity="0.4980392" /></g></g></g><path id="1099" transform="matrix(1 0 0 -1 0 792)" d="M59.5278 429.849L56.6928 427.014L56.6928 190.117L59.5278 187.283L290.4098 187.283L293.2438 190.117L293.2438 427.014L290.4098 429.849z" stroke="none" fill="#EAEBEC" fill-rule="nonzero" /><path id="1100" transform="matrix(1 0 0 -1 0 792)" d="M62.862 341.956L287.075 341.956L287.075 367.46L62.862 367.46z" stroke="none" fill="#FFFEFE" fill-rule="nonzero" /><path id="1101" transform="matrix(1 0 0 -1 0 792)" d="M62.8623 367.4596L287.0753 367.4596" stroke="#939597" stroke-width="0.5" fill="none" /><path id="1102" transform="matrix(1 0 0 -1 0 792)" d="M62.8623 341.7253L286.5233 341.7253" stroke="#939597" stroke-width="0.5" fill="none" /><g clip-path="url(#4)"><g><g clip-path="url(#5)"><path id="1866" transform="matrix(1 0 0 -1 0 792)" d="M59.6312 429.5989C 58.7352 428.7029 57.8392 427.8069 56.9432 426.9109L56.9432 426.9109L56.9432 190.2209L56.9432 190.2209L59.6312 187.5329L59.6312 187.5329L290.3062 187.5329C 291.2022 188.4289 292.0982 189.3239 292.9942 190.2209L292.9942 190.2209L292.9942 426.9109C 292.0982 427.8069 291.2022 428.7029 290.3062 429.5989L290.3062 429.5989L59.6312 429.5989z" stroke="#000000" stroke-width="0.5" fill="none" stroke-opacity="0.4980392" /></g></g></g><path id="1867" transform="matrix(1 0 0 -1 0 792)" d="M307.7478 735.3072L304.9138 732.4722L304.9138 502.7412L307.7478 499.9062L538.6298 499.9062L541.4638 502.7412L541.4638 732.4722L538.6298 735.3072z" stroke="none" fill="#EAEBEC" fill-rule="nonzero" /><path id="1868" transform="matrix(1 0 0 -1 0 792)" d="M311.083 647.414L535.296 647.414L535.296 672.918L311.083 672.918z" stroke="none" fill="#FFFEFE" fill-rule="nonzero" /><path id="1869" transform="matrix(1 0 0 -1 0 792)" d="M311.0827 672.9179L535.2957 672.9179" stroke="#939597" stroke-width="0.5" fill="none" /><path id="1870" transform="matrix(1 0 0 -1 0 792)" d="M311.083 632.745L535.296 632.745L535.296 652.084L311.083 652.084z" stroke="none" fill="#FFFEFE" fill-rule="nonzero" /><path id="1871" transform="matrix(1 0 0 -1 0 792)" d="M312.1018 647.8313L534.7858 647.8313" stroke="#BBBDC0" stroke-width="0.51" stroke-linecap="round" stroke-dasharray="0.51,0.51" fill="none" /><path id="1872" transform="matrix(1 0 0 -1 0 792)" d="M535.2957 647.8313L535.2957 647.8313M311.0827 647.8313L311.0827 647.8313" stroke="#BBBDC0" stroke-width="0.51" stroke-linecap="round" fill="none" /><path id="1873" transform="matrix(1 0 0 -1 0 792)" d="M311.0827 632.5144L534.7437 632.5144" stroke="#939597" stroke-width="0.5" fill="none" /><g clip-path="url(#6)"><g><g clip-path="url(#7)"><path id="2653" transform="matrix(1 0 0 -1 0 792)" d="M307.8516 735.0572C 306.9556 734.1612 306.0596 733.2652 305.1636 732.3692L305.1636 732.3692L305.1636 502.8442C 306.0596 501.9482 306.9556 501.0522 307.8516 500.1562L307.8516 500.1562L538.5266 500.1562C 539.4226 501.0522 540.3186 501.9482 541.2146 502.8442L541.2146 502.8442L541.2146 732.3692L541.2146 732.3692L538.5266 735.0572L538.5266 735.0572L307.8516 735.0572z" stroke="#000000" stroke-width="0.5" fill="none" stroke-opacity="0.4980392" /></g></g></g><path id="2654" transform="matrix(1 0 0 -1 0 792)" d="M307.7478 486.2799L304.9138 483.4459L304.9138 254.2139L307.7478 251.3789L538.6298 251.3789L541.4638 254.2139L541.4638 483.4459L538.6298 486.2799z" stroke="none" fill="#EAEBEC" fill-rule="nonzero" /><path id="2655" transform="matrix(1 0 0 -1 0 792)" d="M311.083 389.387L535.296 389.387L535.296 414.891L311.083 414.891z" stroke="none" fill="#FFFEFE" fill-rule="nonzero" /><path id="2656" transform="matrix(1 0 0 -1 0 792)" d="M311.0827 414.8911L535.2957 414.8911" stroke="#939597" stroke-width="0.5" fill="none" /><path id="2657" transform="matrix(1 0 0 -1 0 792)" d="M311.083 374.718L535.296 374.718L535.296 394.057L311.083 394.057z" stroke="none" fill="#FFFEFE" fill-rule="nonzero" /><path id="2658" transform="matrix(1 0 0 -1 0 792)" d="M312.1019 389.8044L534.7859 389.8044" stroke="#BBBDC0" stroke-width="0.51" stroke-linecap="round" stroke-dasharray="0.51,0.51" fill="none" /><path id="2659" transform="matrix(1 0 0 -1 0 792)" d="M535.2957 389.8044L535.2957 389.8044M311.0827 389.8044L311.0827 389.8044" stroke="#BBBDC0" stroke-width="0.51" stroke-linecap="round" fill="none" /><path id="2660" transform="matrix(1 0 0 -1 0 792)" d="M311.0827 374.4875L534.7437 374.4875" stroke="#939597" stroke-width="0.5" fill="none" /><g clip-path="url(#8)"><g><g clip-path="url(#9)"><path id="3361" transform="matrix(1 0 0 -1 0 792)" d="M307.8517 486.0303C 306.9557 485.1343 306.0597 484.2383 305.1637 483.3423L305.1637 483.3423L305.1637 254.3173C 306.0597 253.4213 306.9557 252.5253 307.8517 251.6293L307.8517 251.6293L538.5267 251.6293C 539.4227 252.5253 540.3187 253.4213 541.2147 254.3173L541.2147 254.3173L541.2147 483.3423C 540.3187 484.2383 539.4227 485.1343 538.5267 486.0303L538.5267 486.0303L307.8517 486.0303z" stroke="#000000" stroke-width="0.5" fill="none" stroke-opacity="0.4980392" /></g></g></g><g clip-path="url(#10)"><path id="3378" transform="matrix(1 0 0 -1 0 792)" d="M56.9448 32.702L56.9448 -12.691" stroke="#000000" stroke-width="0.75" stroke-linecap="round" stroke-dasharray="0.75,1.464" fill="none" /><path id="3379" transform="matrix(1 0 0 -1 0 792)" d="M56.9448 -13.7986L56.9448 -13.7986M56.9448 34.9164L56.9448 34.9164" stroke="#000000" stroke-width="0.75" stroke-linecap="round" fill="none" /></g></g></g></svg>