<svg xmlns="http://www.w3.org/2000/svg" xmlns:xlink="http://www.w3.org/1999/xlink" id="body_93" preserveAspectRatio="xMinYMin meet" viewBox="0 0 816 1056"><defs><clipPath id="1"><path id="" clip-rule="evenodd" transform="matrix(1 0 0 1 0 0)" d="M0 792L0 0L0 0L612 0L612 0L612 792L612 792L0 792z" /></clipPath><clipPath id="2"><path id="" clip-rule="evenodd" transform="matrix(1 0 0 1 0 0)" d="M70.866 351.012L307.417 351.012L307.417 351.012L307.417 56.69299L307.417 56.69299L70.866 56.69299z" /></clipPath><clipPath id="3"><path id="" clip-rule="evenodd" transform="matrix(1 0 0 1 0 0)" d="M61.8662 48.69299L316.417 48.69299L316.417 48.69299L316.417 353.719L316.417 353.719L61.8662 353.719z" /></clipPath><clipPath id="4"><path id="" clip-rule="evenodd" transform="matrix(1 0 0 1 0 0)" d="M70.866 604.717L307.417 604.717L307.417 604.717L307.417 362.151L307.417 362.151L70.866 362.151z" /></clipPath><clipPath id="5"><path id="" clip-rule="evenodd" transform="matrix(1 0 0 1 0 0)" d="M61.8662 354.151L316.417 354.151L316.417 354.151L316.417 607.426L316.417 607.426L61.8662 607.426z" /></clipPath><clipPath id="6"><path id="" clip-rule="evenodd" transform="matrix(1 0 0 1 0 0)" d="M319.087 292.094L555.638 292.094L555.638 292.094L555.638 56.69299L555.638 56.69299L319.087 56.69299z" /></clipPath><clipPath id="7"><path id="" clip-rule="evenodd" transform="matrix(1 0 0 1 0 0)" d="M310.087 48.69299L564.638 48.69299L564.638 48.69299L564.638 294.802L564.638 294.802L310.087 294.802z" /></clipPath><clipPath id="8"><path id="" clip-rule="evenodd" transform="matrix(1 0 0 1 0 0)" d="M319.087 547.806L555.638 547.806L555.638 547.806L555.638 302.904L555.638 302.904L319.087 302.904z" /></clipPath><clipPath id="9"><path id="" clip-rule="evenodd" transform="matrix(1 0 0 1 0 0)" d="M310.087 294.904L564.638 294.904L564.638 294.904L564.638 550.513L564.638 550.513L310.087 550.513z" /></clipPath><clipPath id="10"><path id="" clip-rule="evenodd" transform="matrix(1 0 0 1 0 0)" d="M319.087 748.528L555.638 748.528L555.638 748.528L555.638 557.714L555.638 557.714L319.087 557.714z" /></clipPath><clipPath id="11"><path id="" clip-rule="evenodd" transform="matrix(1 0 0 1 0 0)" d="M310.087 549.714L564.638 549.714L564.638 549.714L564.638 751.2365L564.638 751.2365L310.087 751.2365z" /></clipPath><clipPath id="12"><path id="" clip-rule="evenodd" transform="matrix(1 0 0 1 0 0)" d="M0 0L612 0L612 0L612 792L612 792L0 792z" /></clipPath></defs><g transform="matrix(1.333333 0 0 1.333333 0 0)"><g clip-path="url(#1)"><path id="1" transform="matrix(1 0 0 -1 0 792)" d="M73.701 735.3072L70.866 732.4722L70.866 443.8232L73.701 440.9892L304.582 440.9892L307.417 443.8232L307.417 732.4722L304.582 735.3072z" stroke="none" fill="#EAEBEC" fill-rule="nonzero" /><path id="2" transform="matrix(1 0 0 -1 0 792)" d="M77.035 656.414L301.248 656.414L301.248 681.918L77.035 681.918z" stroke="none" fill="#FFFEFE" fill-rule="nonzero" /><path id="3" transform="matrix(1 0 0 -1 0 792)" d="M77.0355 681.9178L301.2485 681.9178" stroke="#939597" stroke-width="0.5" fill="none" /><path id="4" transform="matrix(1 0 0 -1 0 792)" d="M77.035 641.745L301.248 641.745L301.248 661.084L77.035 661.084z" stroke="none" fill="#FFFEFE" fill-rule="nonzero" /><path id="5" transform="matrix(1 0 0 -1 0 792)" d="M78.0546 656.8312L300.7386 656.8312" stroke="#BBBDC0" stroke-width="0.51" stroke-linecap="round" stroke-dasharray="0.51,0.51" fill="none" /><path id="6" transform="matrix(1 0 0 -1 0 792)" d="M301.2485 656.8312L301.2485 656.8312M77.0355 656.8312L77.0355 656.8312" stroke="#BBBDC0" stroke-width="0.51" stroke-linecap="round" fill="none" /><path id="7" transform="matrix(1 0 0 -1 0 792)" d="M77.0355 641.5143L300.6965 641.5143" stroke="#939597" stroke-width="0.5" fill="none" /><g clip-path="url(#2)"><g><g clip-path="url(#3)"><path id="1098" transform="matrix(1 0 0 -1 0 792)" d="M73.8044 735.0571C 72.90839 734.1611 72.0124 733.2651 71.11639 732.3691L71.11639 732.3691L71.11639 443.9271L71.11639 443.9271L73.8044 441.2391L73.8044 441.2391L304.4794 441.2391C 305.3754 442.1351 306.2714 443.0311 307.1674 443.9271L307.1674 443.9271L307.1674 732.3691C 306.2714 733.2651 305.3754 734.1611 304.4794 735.0571L304.4794 735.0571L73.8044 735.0571z" stroke="#000000" stroke-width="0.5" fill="none" stroke-opacity="0.4980392" /></g></g></g><path id="1099" transform="matrix(1 0 0 -1 0 792)" d="M73.701 429.849L70.866 427.014L70.866 190.117L73.701 187.283L304.582 187.283L307.417 190.117L307.417 427.014L304.582 429.849z" stroke="none" fill="#EAEBEC" fill-rule="nonzero" /><path id="1100" transform="matrix(1 0 0 -1 0 792)" d="M77.035 341.956L301.248 341.956L301.248 367.46L77.035 367.46z" stroke="none" fill="#FFFEFE" fill-rule="nonzero" /><path id="1101" transform="matrix(1 0 0 -1 0 792)" d="M77.0355 367.4596L301.2485 367.4596" stroke="#939597" stroke-width="0.5" fill="none" /><path id="1102" transform="matrix(1 0 0 -1 0 792)" d="M77.0355 341.7253L300.6965 341.7253" stroke="#939597" stroke-width="0.5" fill="none" /><g clip-path="url(#4)"><g><g clip-path="url(#5)"><path id="1866" transform="matrix(1 0 0 -1 0 792)" d="M73.8044 429.5989C 72.90839 428.7029 72.0124 427.8069 71.11639 426.9109L71.11639 426.9109L71.11639 190.2209L71.11639 190.2209L73.8044 187.5329L73.8044 187.5329L304.4794 187.5329C 305.3754 188.4289 306.2714 189.3239 307.1674 190.2209L307.1674 190.2209L307.1674 426.9109C 306.2714 427.8069 305.3754 428.7029 304.4794 429.5989L304.4794 429.5989L73.8044 429.5989z" stroke="#000000" stroke-width="0.5" fill="none" stroke-opacity="0.4980392" /></g></g></g><path id="1867" transform="matrix(1 0 0 -1 0 792)" d="M321.921 735.3072L319.087 732.4722L319.087 502.7412L321.921 499.9062L552.803 499.9062L555.638 502.7412L555.638 732.4722L552.803 735.3072z" stroke="none" fill="#EAEBEC" fill-rule="nonzero" /><path id="1868" transform="matrix(1 0 0 -1 0 792)" d="M325.256 647.414L549.469 647.414L549.469 672.918L325.256 672.918z" stroke="none" fill="#FFFEFE" fill-rule="nonzero" /><path id="1869" transform="matrix(1 0 0 -1 0 792)" d="M325.2559 672.9179L549.4689 672.9179" stroke="#939597" stroke-width="0.5" fill="none" /><path id="1870" transform="matrix(1 0 0 -1 0 792)" d="M325.256 632.745L549.469 632.745L549.469 652.084L325.256 652.084z" stroke="none" fill="#FFFEFE" fill-rule="nonzero" /><path id="1871" transform="matrix(1 0 0 -1 0 792)" d="M326.2751 647.8313L548.9591 647.8313" stroke="#BBBDC0" stroke-width="0.51" stroke-linecap="round" stroke-dasharray="0.51,0.51" fill="none" /><path id="1872" transform="matrix(1 0 0 -1 0 792)" d="M549.4689 647.8313L549.4689 647.8313M325.2559 647.8313L325.2559 647.8313" stroke="#BBBDC0" stroke-width="0.51" stroke-linecap="round" fill="none" /><path id="1873" transform="matrix(1 0 0 -1 0 792)" d="M325.2559 632.5144L548.9169 632.5144" stroke="#939597" stroke-width="0.5" fill="none" /><g clip-path="url(#6)"><g><g clip-path="url(#7)"><path id="2653" transform="matrix(1 0 0 -1 0 792)" d="M322.0248 735.0572C 321.1288 734.1612 320.2328 733.2652 319.3368 732.3692L319.3368 732.3692L319.3368 502.8442C 320.2328 501.9482 321.1288 501.0522 322.0248 500.1562L322.0248 500.1562L552.6998 500.1562C 553.5958 501.0522 554.4918 501.9482 555.3878 502.8442L555.3878 502.8442L555.3878 732.3692L555.3878 732.3692L552.6998 735.0572L552.6998 735.0572L322.0248 735.0572z" stroke="#000000" stroke-width="0.5" fill="none" stroke-opacity="0.4980392" /></g></g></g><path id="2654" transform="matrix(1 0 0 -1 0 792)" d="M321.921 489.096L319.087 486.262L319.087 247.03L321.921 244.195L552.803 244.195L555.638 247.03L555.638 486.262L552.803 489.096z" stroke="none" fill="#EAEBEC" fill-rule="nonzero" /><path id="2655" transform="matrix(1 0 0 -1 0 792)" d="M325.256 401.203L549.469 401.203L549.469 426.707L325.256 426.707z" stroke="none" fill="#FFFEFE" fill-rule="nonzero" /><path id="2656" transform="matrix(1 0 0 -1 0 792)" d="M325.256 426.7072L549.469 426.7072" stroke="#939597" stroke-width="0.5" fill="none" /><path id="2657" transform="matrix(1 0 0 -1 0 792)" d="M325.256 386.534L549.469 386.534L549.469 405.873L325.256 405.873z" stroke="none" fill="#FFFEFE" fill-rule="nonzero" /><path id="2658" transform="matrix(1 0 0 -1 0 792)" d="M326.2751 401.6205L548.9591 401.6205" stroke="#BBBDC0" stroke-width="0.51" stroke-linecap="round" stroke-dasharray="0.51,0.51" fill="none" /><path id="2659" transform="matrix(1 0 0 -1 0 792)" d="M549.469 401.6205L549.469 401.6205M325.256 401.6205L325.256 401.6205" stroke="#BBBDC0" stroke-width="0.51" stroke-linecap="round" fill="none" /><path id="2660" transform="matrix(1 0 0 -1 0 792)" d="M325.256 386.3036L548.917 386.3036" stroke="#939597" stroke-width="0.5" fill="none" /><g clip-path="url(#8)"><g><g clip-path="url(#9)"><path id="3436" transform="matrix(1 0 0 -1 0 792)" d="M322.0249 488.8464C 321.1289 487.9504 320.2329 487.0544 319.3369 486.1584L319.3369 486.1584L319.3369 247.1334L319.3369 247.1334L322.0249 244.4454L322.0249 244.4454L552.6999 244.4454C 553.5959 245.3414 554.4919 246.2374 555.3879 247.1334L555.3879 247.1334L555.3879 486.1584C 554.4919 487.0544 553.5959 487.9504 552.6999 488.8464L552.6999 488.8464L322.0249 488.8464z" stroke="#000000" stroke-width="0.5" fill="none" stroke-opacity="0.4980392" /></g></g></g><path id="3437" transform="matrix(1 0 0 -1 0 792)" d="M321.921 234.2862L319.087 231.4512L319.087 46.3062L321.921 43.4722L552.803 43.4722L555.638 46.3062L555.638 231.4512L552.803 234.2862z" stroke="none" fill="#EAEBEC" fill-rule="nonzero" /><path id="3438" transform="matrix(1 0 0 -1 0 792)" d="M325.256 146.393L549.469 146.393L549.469 171.897L325.256 171.897z" stroke="none" fill="#FFFEFE" fill-rule="nonzero" /><path id="3439" transform="matrix(1 0 0 -1 0 792)" d="M325.256 171.8967L549.469 171.8967" stroke="#939597" stroke-width="0.5" fill="none" /><path id="3440" transform="matrix(1 0 0 -1 0 792)" d="M325.256 146.1625L548.917 146.1625" stroke="#939597" stroke-width="0.5" fill="none" /><g clip-path="url(#10)"><g><g clip-path="url(#11)"><path id="4006" transform="matrix(1 0 0 -1 0 792)" d="M322.0249 234.036C 321.1289 233.14 320.2329 232.244 319.3369 231.348L319.3369 231.348L319.3369 46.40999C 320.2329 45.51399 321.1289 44.618 322.0249 43.722L322.0249 43.722L552.6999 43.722C 553.5959 44.618 554.4919 45.51399 555.3879 46.40999L555.3879 46.40999L555.3879 231.348C 554.4919 232.244 553.5959 233.14 552.6999 234.036L552.6999 234.036L322.0249 234.036z" stroke="#000000" stroke-width="0.5" fill="none" stroke-opacity="0.4980392" /></g></g></g><g clip-path="url(#12)"><path id="4023" transform="matrix(1 0 0 -1 0 792)" d="M555.6614 32.702L555.6614 -12.691" stroke="#000000" stroke-width="0.75" stroke-linecap="round" stroke-dasharray="0.75,1.464" fill="none" /><path id="4024" transform="matrix(1 0 0 -1 0 792)" d="M555.6614 -13.7986L555.6614 -13.7986M555.6614 34.9164L555.6614 34.9164" stroke="#000000" stroke-width="0.75" stroke-linecap="round" fill="none" /></g></g></g></svg>