<svg xmlns="http://www.w3.org/2000/svg" xmlns:xlink="http://www.w3.org/1999/xlink" id="body_92" preserveAspectRatio="xMinYMin meet" viewBox="0 0 816 1056"><defs><clipPath id="1"><path id="" clip-rule="evenodd" transform="matrix(1 0 0 1 0 0)" d="M0 792L0 0L0 0L612 0L612 0L612 792L612 792L0 792z" /></clipPath><clipPath id="2"><path id="" clip-rule="evenodd" transform="matrix(1 0 0 1 0 0)" d="M56.693 293.512L293.244 293.512L293.244 293.512L293.244 56.69299L293.244 56.69299L56.693 56.69299z" /></clipPath><clipPath id="3"><path id="" clip-rule="evenodd" transform="matrix(1 0 0 1 0 0)" d="M47.693 48.69299L302.244 48.69299L302.244 48.69299L302.244 296.219L302.244 296.219L47.693 296.219z" /></clipPath><clipPath id="4"><path id="" clip-rule="evenodd" transform="matrix(1 0 0 1 0 0)" d="M56.693 560.902L293.244 560.902L293.244 560.902L293.244 304.165L293.244 304.165L56.693 304.165z" /></clipPath><clipPath id="5"><path id="" clip-rule="evenodd" transform="matrix(1 0 0 1 0 0)" d="M47.693 296.166L302.244 296.166L302.244 296.166L302.244 563.609L302.244 563.609L47.693 563.609z" /></clipPath><clipPath id="6"><path id="" clip-rule="evenodd" transform="matrix(1 0 0 1 0 0)" d="M304.914 312.511L541.465 312.511L541.465 312.511L541.465 56.69202L541.465 56.69202L304.914 56.69202z" /></clipPath><clipPath id="7"><path id="" clip-rule="evenodd" transform="matrix(1 0 0 1 0 0)" d="M295.913 48.69299L550.465 48.69299L550.465 48.69299L550.465 315.219L550.465 315.219L295.913 315.219z" /></clipPath><clipPath id="8"><path id="" clip-rule="evenodd" transform="matrix(1 0 0 1 0 0)" d="M304.914 560.416L541.465 560.416L541.465 560.416L541.465 323.098L541.465 323.098L304.914 323.098z" /></clipPath><clipPath id="9"><path id="" clip-rule="evenodd" transform="matrix(1 0 0 1 0 0)" d="M295.913 315.098L550.465 315.098L550.465 315.098L550.465 563.125L550.465 563.125L295.913 563.125z" /></clipPath><clipPath id="10"><path id="" clip-rule="evenodd" transform="matrix(1 0 0 1 0 0)" d="M0 0L612 0L612 0L612 792L612 792L0 792z" /></clipPath></defs><g transform="matrix(1.333333 0 0 1.333333 0 0)"><g clip-path="url(#1)"><path id="1" transform="matrix(1 0 0 -1 0 792)" d="M59.5278 735.3072L56.6928 732.4722L56.6928 501.3232L59.5278 498.4882L290.4098 498.4882L293.2438 501.3232L293.2438 732.4722L290.4098 735.3072z" stroke="none" fill="#EAEBEC" fill-rule="nonzero" /><path id="2" transform="matrix(1 0 0 -1 0 792)" d="M62.862 647.414L287.075 647.414L287.075 672.918L62.862 672.918z" stroke="none" fill="#FFFEFE" fill-rule="nonzero" /><path id="3" transform="matrix(1 0 0 -1 0 792)" d="M62.8623 672.9178L287.0753 672.9178" stroke="#939597" stroke-width="0.5" fill="none" /><path id="4" transform="matrix(1 0 0 -1 0 792)" d="M62.862 632.745L287.075 632.745L287.075 652.084L62.862 652.084z" stroke="none" fill="#FFFEFE" fill-rule="nonzero" /><path id="5" transform="matrix(1 0 0 -1 0 792)" d="M63.8814 647.8312L286.5654 647.8312" stroke="#BBBDC0" stroke-width="0.51" stroke-linecap="round" stroke-dasharray="0.51,0.51" fill="none" /><path id="6" transform="matrix(1 0 0 -1 0 792)" d="M287.0753 647.8312L287.0753 647.8312M62.8623 647.8312L62.8623 647.8312" stroke="#BBBDC0" stroke-width="0.51" stroke-linecap="round" fill="none" /><path id="7" transform="matrix(1 0 0 -1 0 792)" d="M62.8623 632.5143L286.5233 632.5143" stroke="#939597" stroke-width="0.5" fill="none" /><g clip-path="url(#2)"><g><g clip-path="url(#3)"><path id="688" transform="matrix(1 0 0 -1 0 792)" d="M59.6311 735.0571C 58.7351 734.1611 57.8391 733.2651 56.9431 732.3691L56.9431 732.3691L56.9431 501.4271C 57.8391 500.5311 58.7351 499.6351 59.6311 498.7391L59.6311 498.7391L290.3061 498.7391L290.3061 498.7391L292.9941 501.4271L292.9941 501.4271L292.9941 732.3691C 292.0981 733.2651 291.2021 734.1611 290.3061 735.0571L290.3061 735.0571L59.6311 735.0571z" stroke="#000000" stroke-width="0.5" fill="none" stroke-opacity="0.4980392" /></g></g></g><path id="689" transform="matrix(1 0 0 -1 0 792)" d="M59.5278 487.8342L56.6928 484.9992L56.6928 233.9332L59.5278 231.0982L290.4098 231.0982L293.2438 233.9332L293.2438 484.9992L290.4098 487.8342z" stroke="none" fill="#EAEBEC" fill-rule="nonzero" /><path id="690" transform="matrix(1 0 0 -1 0 792)" d="M62.862 390.941L287.075 390.941L287.075 416.445L62.862 416.445z" stroke="none" fill="#FFFEFE" fill-rule="nonzero" /><path id="691" transform="matrix(1 0 0 -1 0 792)" d="M62.8623 416.4449L287.0753 416.4449" stroke="#939597" stroke-width="0.5" fill="none" /><path id="692" transform="matrix(1 0 0 -1 0 792)" d="M62.862 376.272L287.075 376.272L287.075 395.611L62.862 395.611z" stroke="none" fill="#FFFEFE" fill-rule="nonzero" /><path id="693" transform="matrix(1 0 0 -1 0 792)" d="M63.8814 391.3583L286.5654 391.3583" stroke="#BBBDC0" stroke-width="0.51" stroke-linecap="round" stroke-dasharray="0.51,0.51" fill="none" /><path id="694" transform="matrix(1 0 0 -1 0 792)" d="M287.0753 391.3583L287.0753 391.3583M62.8623 391.3583L62.8623 391.3583" stroke="#BBBDC0" stroke-width="0.51" stroke-linecap="round" fill="none" /><path id="695" transform="matrix(1 0 0 -1 0 792)" d="M62.8623 376.0414L286.5233 376.0414" stroke="#939597" stroke-width="0.5" fill="none" /><g clip-path="url(#4)"><g><g clip-path="url(#5)"><path id="1511" transform="matrix(1 0 0 -1 0 792)" d="M59.6312 487.5842C 58.7352 486.6882 57.8392 485.7922 56.9432 484.8962L56.9432 484.8962L56.9432 234.0372L56.9432 234.0372L59.6312 231.3482L59.6312 231.3482L290.3062 231.3482L290.3062 231.3482L292.9942 234.0372L292.9942 234.0372L292.9942 484.8962C 292.0982 485.7922 291.2022 486.6882 290.3062 487.5842L290.3062 487.5842L59.6312 487.5842z" stroke="#000000" stroke-width="0.5" fill="none" stroke-opacity="0.4980392" /></g></g></g><path id="1512" transform="matrix(1 0 0 -1 0 792)" d="M307.7478 735.3072L304.9138 732.4722L304.9138 482.3232L307.7478 479.4882L538.6298 479.4882L541.4638 482.3232L541.4638 732.4722L538.6298 735.3072z" stroke="none" fill="#EAEBEC" fill-rule="nonzero" /><path id="1513" transform="matrix(1 0 0 -1 0 792)" d="M311.083 647.414L535.296 647.414L535.296 672.918L311.083 672.918z" stroke="none" fill="#FFFEFE" fill-rule="nonzero" /><path id="1514" transform="matrix(1 0 0 -1 0 792)" d="M311.0827 672.9178L535.2957 672.9178" stroke="#939597" stroke-width="0.5" fill="none" /><path id="1515" transform="matrix(1 0 0 -1 0 792)" d="M311.083 632.745L535.296 632.745L535.296 652.084L311.083 652.084z" stroke="none" fill="#FFFEFE" fill-rule="nonzero" /><path id="1516" transform="matrix(1 0 0 -1 0 792)" d="M312.1019 647.8312L534.7859 647.8312" stroke="#BBBDC0" stroke-width="0.51" stroke-linecap="round" stroke-dasharray="0.51,0.51" fill="none" /><path id="1517" transform="matrix(1 0 0 -1 0 792)" d="M535.2957 647.8312L535.2957 647.8312M311.0827 647.8312L311.0827 647.8312" stroke="#BBBDC0" stroke-width="0.51" stroke-linecap="round" fill="none" /><path id="1518" transform="matrix(1 0 0 -1 0 792)" d="M311.0827 632.5143L534.7437 632.5143" stroke="#939597" stroke-width="0.5" fill="none" /><g clip-path="url(#6)"><g><g clip-path="url(#7)"><path id="2325" transform="matrix(1 0 0 -1 0 792)" d="M307.8517 735.0571C 306.9557 734.1611 306.0597 733.2651 305.1637 732.3691L305.1637 732.3691L305.1637 482.4271L305.1637 482.4271L307.8517 479.7391L307.8517 479.7391L538.5267 479.7391L538.5267 479.7391L541.2147 482.4271L541.2147 482.4271L541.2147 732.3691C 540.3187 733.2651 539.4227 734.1611 538.5267 735.0571L538.5267 735.0571L307.8517 735.0571z" stroke="#000000" stroke-width="0.5" fill="none" stroke-opacity="0.4980392" /></g></g></g><path id="2326" transform="matrix(1 0 0 -1 0 792)" d="M307.7478 468.9018L304.9138 466.0668L304.9138 234.4178L307.7478 231.5838L538.6298 231.5838L541.4638 234.4178L541.4638 466.0668L538.6298 468.9018z" stroke="none" fill="#EAEBEC" fill-rule="nonzero" /><path id="2327" transform="matrix(1 0 0 -1 0 792)" d="M311.083 390.008L535.296 390.008L535.296 415.512L311.083 415.512z" stroke="none" fill="#FFFEFE" fill-rule="nonzero" /><path id="2328" transform="matrix(1 0 0 -1 0 792)" d="M311.0827 415.5123L535.2957 415.5123" stroke="#939597" stroke-width="0.5" fill="none" /><path id="2329" transform="matrix(1 0 0 -1 0 792)" d="M311.083 375.339L535.296 375.339L535.296 394.678L311.083 394.678z" stroke="none" fill="#FFFEFE" fill-rule="nonzero" /><path id="2330" transform="matrix(1 0 0 -1 0 792)" d="M312.1019 390.4257L534.7859 390.4257" stroke="#BBBDC0" stroke-width="0.51" stroke-linecap="round" stroke-dasharray="0.51,0.51" fill="none" /><path id="2331" transform="matrix(1 0 0 -1 0 792)" d="M535.2957 390.4257L535.2957 390.4257M311.0827 390.4257L311.0827 390.4257" stroke="#BBBDC0" stroke-width="0.51" stroke-linecap="round" fill="none" /><path id="2332" transform="matrix(1 0 0 -1 0 792)" d="M311.0827 375.1087L534.7437 375.1087" stroke="#939597" stroke-width="0.5" fill="none" /><g clip-path="url(#8)"><g><g clip-path="url(#9)"><path id="3062" transform="matrix(1 0 0 -1 0 792)" d="M307.8517 468.6516C 306.9557 467.7556 306.0597 466.8596 305.1637 465.9636L305.1637 465.9636L305.1637 234.5216C 306.0597 233.6256 306.9557 232.7296 307.8517 231.8336L307.8517 231.8336L538.5267 231.8336C 539.4227 232.7296 540.3187 233.6256 541.2147 234.5216L541.2147 234.5216L541.2147 465.9636C 540.3187 466.8596 539.4227 467.7556 538.5267 468.6516L538.5267 468.6516L307.8517 468.6516z" stroke="#000000" stroke-width="0.5" fill="none" stroke-opacity="0.4980392" /></g></g></g><g clip-path="url(#10)"><path id="3079" transform="matrix(1 0 0 -1 0 792)" d="M56.9448 32.702L56.9448 -12.691" stroke="#000000" stroke-width="0.75" stroke-linecap="round" stroke-dasharray="0.75,1.464" fill="none" /><path id="3080" transform="matrix(1 0 0 -1 0 792)" d="M56.9448 -13.7986L56.9448 -13.7986M56.9448 34.9164L56.9448 34.9164" stroke="#000000" stroke-width="0.75" stroke-linecap="round" fill="none" /></g></g></g></svg>