<svg xmlns="http://www.w3.org/2000/svg" xmlns:xlink="http://www.w3.org/1999/xlink" id="body_84" preserveAspectRatio="xMinYMin meet" viewBox="0 0 816 1056"><defs><clipPath id="1"><path id="" clip-rule="evenodd" transform="matrix(1 0 0 1 0 0)" d="M0 792L0 0L0 0L612 0L612 0L612 792L612 792L0 792z" /></clipPath><clipPath id="2"><path id="" clip-rule="evenodd" transform="matrix(1 0 0 1 0 0)" d="M56.693 523.771L293.244 523.771L293.244 523.771L293.244 56.69299L293.244 56.69299L56.693 56.69299z" /></clipPath><clipPath id="3"><path id="" clip-rule="evenodd" transform="matrix(1 0 0 1 0 0)" d="M47.693 48.69299L302.244 48.69299L302.244 48.69299L302.244 526.479L302.244 526.479L47.693 526.479z" /></clipPath><clipPath id="4"><path id="" clip-rule="evenodd" transform="matrix(1 0 0 1 0 0)" d="M56.693 747.137L293.244 747.137L293.244 747.137L293.244 533.987L293.244 533.987L56.693 533.987z" /></clipPath><clipPath id="5"><path id="" clip-rule="evenodd" transform="matrix(1 0 0 1 0 0)" d="M47.693 525.987L302.244 525.987L302.244 525.987L302.244 749.8444L302.244 749.8444L47.693 749.8444z" /></clipPath><clipPath id="6"><path id="" clip-rule="evenodd" transform="matrix(1 0 0 1 0 0)" d="M304.914 248.006L541.465 248.006L541.465 248.006L541.465 56.69299L541.465 56.69299L304.914 56.69299z" /></clipPath><clipPath id="7"><path id="" clip-rule="evenodd" transform="matrix(1 0 0 1 0 0)" d="M295.913 48.69299L550.465 48.69299L550.465 48.69299L550.465 250.715L550.465 250.715L295.913 250.715z" /></clipPath><clipPath id="8"><path id="" clip-rule="evenodd" transform="matrix(1 0 0 1 0 0)" d="M304.914 435.254L541.465 435.254L541.465 435.254L541.465 259.189L541.465 259.189L304.914 259.189z" /></clipPath><clipPath id="9"><path id="" clip-rule="evenodd" transform="matrix(1 0 0 1 0 0)" d="M295.913 251.188L550.465 251.188L550.465 251.188L550.465 436.281L550.465 436.281L295.913 436.281z" /></clipPath><clipPath id="10"><path id="" clip-rule="evenodd" transform="matrix(1 0 0 1 0 0)" d="M304.914 700.906L541.465 700.906L541.465 700.906L541.465 444.588L541.465 444.588L304.914 444.588z" /></clipPath><clipPath id="11"><path id="" clip-rule="evenodd" transform="matrix(1 0 0 1 0 0)" d="M295.913 436.588L550.465 436.588L550.465 436.588L550.465 694.1143L550.465 694.1143L295.913 694.1143z" /></clipPath><clipPath id="12"><path id="" clip-rule="evenodd" transform="matrix(1 0 0 1 0 0)" d="M0 0L612 0L612 0L612 792L612 792L0 792z" /></clipPath></defs><g transform="matrix(1.333333 0 0 1.333333 0 0)"><g clip-path="url(#1)"><path id="1" transform="matrix(1 0 0 -1 0 792)" d="M59.5278 735.3072L56.6928 732.4722L56.6928 271.0642L59.5278 268.2292L290.4098 268.2292L293.2438 271.0642L293.2438 732.4722L290.4098 735.3072z" stroke="none" fill="#EAEBEC" fill-rule="nonzero" /><path id="2" transform="matrix(1 0 0 -1 0 792)" d="M62.862 647.414L287.075 647.414L287.075 672.918L62.862 672.918z" stroke="none" fill="#FFFEFE" fill-rule="nonzero" /><path id="3" transform="matrix(1 0 0 -1 0 792)" d="M62.8623 672.9178L287.0753 672.9178" stroke="#939597" stroke-width="0.5" fill="none" /><path id="4" transform="matrix(1 0 0 -1 0 792)" d="M62.862 632.245L287.075 632.245L287.075 653.584L62.862 653.584z" stroke="none" fill="#FFFEFE" fill-rule="nonzero" /><path id="5" transform="matrix(1 0 0 -1 0 792)" d="M63.8814 649.3312L286.5654 649.3312" stroke="#BBBDC0" stroke-width="0.51" stroke-linecap="round" stroke-dasharray="0.51,0.51" fill="none" /><path id="6" transform="matrix(1 0 0 -1 0 792)" d="M287.0753 649.3312L287.0753 649.3312M62.8623 649.3312L62.8623 649.3312" stroke="#BBBDC0" stroke-width="0.51" stroke-linecap="round" fill="none" /><path id="7" transform="matrix(1 0 0 -1 0 792)" d="M62.8623 632.5143L286.5233 632.5143" stroke="#C1AE88" stroke-width="0.5" fill="none" /><g clip-path="url(#2)"><g><g clip-path="url(#3)"><path id="1649" transform="matrix(1 0 0 -1 0 792)" d="M59.6311 735.0571C 58.7351 734.1611 57.8391 733.2651 56.9431 732.3691L56.9431 732.3691L56.9431 271.1671C 57.8391 270.2711 58.7351 269.3751 59.6311 268.4791L59.6311 268.4791L290.3061 268.4791C 291.2021 269.3751 292.0981 270.2711 292.9941 271.1671L292.9941 271.1671L292.9941 732.3691L292.9941 732.3691L290.3061 735.0571L290.3061 735.0571L59.6311 735.0571z" stroke="#000000" stroke-width="0.5" fill="none" stroke-opacity="0.4980392" /></g></g></g><path id="1650" transform="matrix(1 0 0 -1 0 792)" d="M59.5278 258.0129L56.6928 255.1779L56.6928 47.69791L59.5278 44.86292L290.4098 44.86292L293.2438 47.69791L293.2438 255.1779L290.4098 258.0129z" stroke="none" fill="#EAEBEC" fill-rule="nonzero" /><path id="1651" transform="matrix(1 0 0 -1 0 792)" d="M62.862 179.119L287.075 179.119L287.075 204.623L62.862 204.623z" stroke="none" fill="#FFFEFE" fill-rule="nonzero" /><path id="1652" transform="matrix(1 0 0 -1 0 792)" d="M62.8623 204.6234L287.0753 204.6234" stroke="#939597" stroke-width="0.5" fill="none" /><path id="1653" transform="matrix(1 0 0 -1 0 792)" d="M62.8623 178.8892L286.5233 178.8892" stroke="#939597" stroke-width="0.5" fill="none" /><g clip-path="url(#4)"><g><g clip-path="url(#5)"><path id="2334" transform="matrix(1 0 0 -1 0 792)" d="M59.6311 257.7627C 58.7351 256.8667 57.8391 255.9707 56.9431 255.0747L56.9431 255.0747L56.9431 47.8017L56.9431 47.8017L59.6311 45.11369L59.6311 45.11369L290.3061 45.11369C 291.2021 46.00969 292.0981 46.9057 292.9941 47.8017L292.9941 47.8017L292.9941 255.0747L292.9941 255.0747L290.3061 257.7627L290.3061 257.7627L59.6311 257.7627z" stroke="#000000" stroke-width="0.5" fill="none" stroke-opacity="0.4980392" /></g></g></g><path id="2335" transform="matrix(1 0 0 -1 0 792)" d="M307.7478 735.3072L304.9138 732.4722L304.9138 546.8272L307.7458 543.9942L538.6318 543.9942L541.4638 546.8272L541.4638 732.4722L538.6298 735.3072z" stroke="none" fill="#EAEBEC" fill-rule="nonzero" /><path id="2336" transform="matrix(1 0 0 -1 0 792)" d="M311.083 656.414L535.296 656.414L535.296 681.918L311.083 681.918z" stroke="none" fill="#FFFEFE" fill-rule="nonzero" /><path id="2337" transform="matrix(1 0 0 -1 0 792)" d="M311.0827 681.9178L535.2957 681.9178" stroke="#939597" stroke-width="0.5" fill="none" /><path id="2338" transform="matrix(1 0 0 -1 0 792)" d="M311.0827 656.1836L534.7437 656.1836" stroke="#939597" stroke-width="0.5" fill="none" /><g clip-path="url(#6)"><g><g clip-path="url(#7)"><path id="2897" transform="matrix(1 0 0 -1 0 792)" d="M307.8516 735.0571C 306.9556 734.1611 306.0596 733.2651 305.1636 732.3691L305.1636 732.3691L305.1636 546.9312C 306.0596 546.0352 306.9556 545.1392 307.8516 544.2432L307.8516 544.2432L538.5266 544.2432C 539.4226 545.1392 540.3186 546.0352 541.2146 546.9312L541.2146 546.9312L541.2146 732.3691L541.2146 732.3691L538.5266 735.0571L538.5266 735.0571L307.8516 735.0571z" stroke="#000000" stroke-width="0.5" fill="none" stroke-opacity="0.4980392" /></g></g></g><path id="2898" transform="matrix(1 0 0 -1 0 792)" d="M307.7478 532.8117L304.9138 529.9777L304.9138 360.9967L307.7478 358.1627L538.6298 358.1627L541.4638 360.9967L541.4638 529.9777L538.6298 532.8117z" stroke="none" fill="#EAEBEC" fill-rule="nonzero" /><path id="2899" transform="matrix(1 0 0 -1 0 792)" d="M311.083 453.919L535.296 453.919L535.296 479.423L311.083 479.423z" stroke="none" fill="#FFFEFE" fill-rule="nonzero" /><path id="2900" transform="matrix(1 0 0 -1 0 792)" d="M311.0827 479.4226L535.2957 479.4226" stroke="#939597" stroke-width="0.5" fill="none" /><path id="2901" transform="matrix(1 0 0 -1 0 792)" d="M311.083 439.249L535.296 439.249L535.296 458.588L311.083 458.588z" stroke="none" fill="#FFFEFE" fill-rule="nonzero" /><path id="2902" transform="matrix(1 0 0 -1 0 792)" d="M312.1019 454.336L534.7859 454.336" stroke="#BBBDC0" stroke-width="0.51" stroke-linecap="round" stroke-dasharray="0.51,0.51" fill="none" /><path id="2903" transform="matrix(1 0 0 -1 0 792)" d="M535.2957 454.336L535.2957 454.336M311.0827 454.336L311.0827 454.336" stroke="#BBBDC0" stroke-width="0.51" stroke-linecap="round" fill="none" /><path id="2904" transform="matrix(1 0 0 -1 0 792)" d="M311.0827 439.0191L534.7437 439.0191" stroke="#939597" stroke-width="0.5" fill="none" /><g clip-path="url(#8)"><g><g clip-path="url(#9)"><path id="3408" transform="matrix(1 0 0 -1 0 792)" d="M307.8517 532.5619C 306.9557 531.6659 306.0597 530.7699 305.1637 529.8739L305.1637 529.8739L305.1637 361.1009C 306.0597 360.2049 306.9557 359.3089 307.8517 358.4129L307.8517 358.4129L538.5267 358.4129C 539.4227 359.3089 540.3187 360.2049 541.2147 361.1009L541.2147 361.1009L541.2147 529.8739L541.2147 529.8739L538.5267 532.5619L538.5267 532.5619L307.8517 532.5619z" stroke="#000000" stroke-width="0.5" fill="none" stroke-opacity="0.4980392" /></g></g></g><path id="3409" transform="matrix(1 0 0 -1 0 792)" d="M307.7478 347.4117L304.9138 344.5777L304.9138 103.4277L307.7478 100.5937L538.6298 100.5937L541.4638 103.4277L541.4638 344.5777L538.6298 347.4117z" stroke="none" fill="#EAEBEC" fill-rule="nonzero" /><path id="3410" transform="matrix(1 0 0 -1 0 792)" d="M311.083 268.519L535.296 268.519L535.296 294.023L311.083 294.023z" stroke="none" fill="#FFFEFE" fill-rule="nonzero" /><path id="3411" transform="matrix(1 0 0 -1 0 792)" d="M311.0827 294.0228L535.2957 294.0228" stroke="#939597" stroke-width="0.5" fill="none" /><path id="3412" transform="matrix(1 0 0 -1 0 792)" d="M311.083 253.85L535.296 253.85L535.296 273.189L311.083 273.189z" stroke="none" fill="#FFFEFE" fill-rule="nonzero" /><path id="3413" transform="matrix(1 0 0 -1 0 792)" d="M312.1019 268.9362L534.7859 268.9362" stroke="#BBBDC0" stroke-width="0.51" stroke-linecap="round" stroke-dasharray="0.51,0.51" fill="none" /><path id="3414" transform="matrix(1 0 0 -1 0 792)" d="M535.2957 268.9362L535.2957 268.9362M311.0827 268.9362L311.0827 268.9362" stroke="#BBBDC0" stroke-width="0.51" stroke-linecap="round" fill="none" /><path id="3415" transform="matrix(1 0 0 -1 0 792)" d="M311.0827 253.6192L534.7437 253.6192" stroke="#939597" stroke-width="0.5" fill="none" /><g clip-path="url(#10)"><g><g clip-path="url(#11)"><path id="4248" transform="matrix(1 0 0 -1 0 792)" d="M307.8517 347.162C 306.9557 346.266 306.0597 345.37 305.1637 344.474L305.1637 344.474L305.1637 103.532L305.1637 103.532L307.8517 100.844L307.8517 100.844L538.5267 100.844L538.5267 100.844L541.2147 103.532L541.2147 103.532L541.2147 344.474C 540.3187 345.37 539.4227 346.266 538.5267 347.162L538.5267 347.162L307.8517 347.162z" stroke="#000000" stroke-width="0.5" fill="none" stroke-opacity="0.4980392" /></g></g></g><g clip-path="url(#12)"><path id="4265" transform="matrix(1 0 0 -1 0 792)" d="M56.9448 32.702L56.9448 -12.691" stroke="#000000" stroke-width="0.75" stroke-linecap="round" stroke-dasharray="0.75,1.464" fill="none" /><path id="4266" transform="matrix(1 0 0 -1 0 792)" d="M56.9448 -13.7986L56.9448 -13.7986M56.9448 34.9164L56.9448 34.9164" stroke="#000000" stroke-width="0.75" stroke-linecap="round" fill="none" /></g></g></g></svg>