<svg xmlns="http://www.w3.org/2000/svg" xmlns:xlink="http://www.w3.org/1999/xlink" id="body_52" preserveAspectRatio="xMinYMin meet" viewBox="0 0 816 1056"><defs><clipPath id="1"><path id="" clip-rule="evenodd" transform="matrix(1 0 0 1 0 0)" d="M0 792L0 0L0 0L612 0L612 0L612 792L612 792L0 792z" /></clipPath><clipPath id="2"><path id="" clip-rule="evenodd" transform="matrix(1 0 0 1 0 0)" d="M0 0L612 0L612 0L612 792L612 792L0 792z" /></clipPath></defs><g transform="matrix(1.333333 0 0 1.333333 0 0)"><g clip-path="url(#1)"><path id="17" transform="matrix(1 0 0 -1 0 792)" d="M337.323 463.607L541.134 463.607L541.134 439.607L337.323 439.607zM273.732 463.607L337.323 463.607L337.323 439.607L273.732 439.607zM216.094 463.607L273.732 463.607L273.732 439.607L216.094 439.607zM163.181 463.607L216.094 463.607L216.094 439.607L163.181 439.607zM112.157 463.607L163.181 463.607L163.181 439.607L112.157 439.607zM56.693 463.607L112.158 463.607L112.158 439.607L56.693 439.607zM337.323 521.607L541.134 521.607L541.134 487.607L337.323 487.607zM273.732 521.607L337.323 521.607L337.323 487.607L273.732 487.607zM216.094 521.607L273.732 521.607L273.732 487.607L216.094 487.607zM163.181 521.607L216.094 521.607L216.094 487.607L163.181 487.607zM112.157 521.607L163.181 521.607L163.181 487.607L112.157 487.607zM56.693 521.607L112.158 521.607L112.158 487.607L56.693 487.607zM337.323 579.607L541.134 579.607L541.134 555.607L337.323 555.607zM273.732 579.607L337.323 579.607L337.323 555.607L273.732 555.607zM216.094 579.607L273.732 579.607L273.732 555.607L216.094 555.607zM163.181 579.607L216.094 579.607L216.094 555.607L163.181 555.607zM112.157 579.607L163.181 579.607L163.181 555.607L112.157 555.607zM56.693 579.607L112.158 579.607L112.158 555.607L56.693 555.607zM337.323 627.607L541.134 627.607L541.134 603.607L337.323 603.607zM273.732 627.607L337.323 627.607L337.323 603.607L273.732 603.607zM216.094 627.607L273.732 627.607L273.732 603.607L216.094 603.607zM163.181 627.607L216.094 627.607L216.094 603.607L163.181 603.607zM112.157 627.607L163.181 627.607L163.181 603.607L112.157 603.607zM56.693 627.607L112.158 627.607L112.158 603.607L56.693 603.607zM337.323 675.607L541.134 675.607L541.134 651.607L337.323 651.607zM273.732 675.607L337.323 675.607L337.323 651.607L273.732 651.607zM216.094 675.607L273.732 675.607L273.732 651.607L216.094 651.607zM163.181 675.607L216.094 675.607L216.094 651.607L163.181 651.607zM112.157 675.607L163.181 675.607L163.181 651.607L112.157 651.607zM56.693 675.607L112.158 675.607L112.158 651.607L56.693 651.607z" stroke="none" fill="#E6E7E8" fill-rule="nonzero" /><path id="18" transform="matrix(1 0 0 -1 0 792)" d="M56.6929 699.6074L112.1579 699.6074" stroke="#000000" stroke-width="1" fill="none" /><path id="19" transform="matrix(1 0 0 -1 0 792)" d="M112.1575 699.6074L163.1815 699.6074" stroke="#000000" stroke-width="1" fill="none" /><path id="20" transform="matrix(1 0 0 -1 0 792)" d="M163.1811 699.6074L216.0941 699.6074" stroke="#000000" stroke-width="1" fill="none" /><path id="21" transform="matrix(1 0 0 -1 0 792)" d="M216.0945 699.6074L273.7325 699.6074" stroke="#000000" stroke-width="1" fill="none" /><path id="22" transform="matrix(1 0 0 -1 0 792)" d="M273.7323 699.6074L337.3233 699.6074" stroke="#000000" stroke-width="1" fill="none" /><path id="23" transform="matrix(1 0 0 -1 0 792)" d="M337.3228 699.6074L541.1338 699.6074" stroke="#000000" stroke-width="1" fill="none" /><path id="1105" transform="matrix(1 0 0 -1 0 792)" d="M338.929 139.505L541.134 139.505L541.134 105.505L338.929 105.505zM274.677 139.505L338.929 139.505L338.929 105.505L274.677 105.505zM218.268 139.505L274.677 139.505L274.677 105.505L218.268 105.505zM165.071 139.505L218.268 139.505L218.268 105.505L165.071 105.505zM113.386 139.505L165.071 139.505L165.071 105.505L113.386 105.505zM56.693 139.505L113.386 139.505L113.386 105.505L56.693 105.505zM338.929 207.505L541.134 207.505L541.134 173.505L338.929 173.505zM274.677 207.505L338.929 207.505L338.929 173.505L274.677 173.505zM218.268 207.505L274.677 207.505L274.677 173.505L218.268 173.505zM165.071 207.505L218.268 207.505L218.268 173.505L165.071 173.505zM113.386 207.505L165.071 207.505L165.071 173.505L113.386 173.505zM56.693 207.505L113.386 207.505L113.386 173.505L56.693 173.505zM338.929 265.505L541.134 265.505L541.134 241.505L338.929 241.505zM274.677 265.505L338.929 265.505L338.929 241.505L274.677 241.505zM218.268 265.505L274.677 265.505L274.677 241.505L218.268 241.505zM165.071 265.505L218.268 265.505L218.268 241.505L165.071 241.505zM113.386 265.505L165.071 265.505L165.071 241.505L113.386 241.505zM56.693 265.505L113.386 265.505L113.386 241.505L56.693 241.505zM338.929 313.505L541.134 313.505L541.134 289.505L338.929 289.505zM274.677 313.505L338.929 313.505L338.929 289.505L274.677 289.505zM218.268 313.505L274.677 313.505L274.677 289.505L218.268 289.505zM165.071 313.505L218.268 313.505L218.268 289.505L165.071 289.505zM113.386 313.505L165.071 313.505L165.071 289.505L113.386 289.505zM56.693 313.505L113.386 313.505L113.386 289.505L56.693 289.505zM338.929 361.505L541.134 361.505L541.134 337.505L338.929 337.505zM274.677 361.505L338.929 361.505L338.929 337.505L274.677 337.505zM218.268 361.505L274.677 361.505L274.677 337.505L218.268 337.505zM165.071 361.505L218.268 361.505L218.268 337.505L165.071 337.505zM113.386 361.505L165.071 361.505L165.071 337.505L113.386 337.505zM56.693 361.505L113.386 361.505L113.386 337.505L56.693 337.505z" stroke="none" fill="#ECEDEE" fill-rule="nonzero" /><path id="1106" transform="matrix(1 0 0 -1 0 792)" d="M56.6929 385.505L113.3859 385.505" stroke="#000000" stroke-width="1" fill="none" /><path id="1107" transform="matrix(1 0 0 -1 0 792)" d="M113.3858 385.505L165.0708 385.505" stroke="#000000" stroke-width="1" fill="none" /><path id="1108" transform="matrix(1 0 0 -1 0 792)" d="M165.0709 385.505L218.2679 385.505" stroke="#000000" stroke-width="1" fill="none" /><path id="1109" transform="matrix(1 0 0 -1 0 792)" d="M218.2677 385.505L274.6767 385.505" stroke="#000000" stroke-width="1" fill="none" /><path id="1110" transform="matrix(1 0 0 -1 0 792)" d="M274.6772 385.505L338.9292 385.505" stroke="#000000" stroke-width="1" fill="none" /><path id="1111" transform="matrix(1 0 0 -1 0 792)" d="M338.9291 385.505L541.1341 385.505" stroke="#000000" stroke-width="1" fill="none" /><g clip-path="url(#2)"><path id="2260" transform="matrix(1 0 0 -1 0 792)" d="M56.9448 32.702L56.9448 -12.691" stroke="#000000" stroke-width="0.75" stroke-linecap="round" stroke-dasharray="0.75,1.464" fill="none" /><path id="2261" transform="matrix(1 0 0 -1 0 792)" d="M56.9448 -13.7986L56.9448 -13.7986M56.9448 34.9164L56.9448 34.9164" stroke="#000000" stroke-width="0.75" stroke-linecap="round" fill="none" /></g></g></g></svg>