<svg xmlns="http://www.w3.org/2000/svg" xmlns:xlink="http://www.w3.org/1999/xlink" id="body_68" preserveAspectRatio="xMinYMin meet" viewBox="0 0 816 1056"><defs><clipPath id="1"><path id="" clip-rule="evenodd" transform="matrix(1 0 0 1 0 0)" d="M0 792L0 0L0 0L612 0L612 0L612 792L612 792L0 792z" /></clipPath><clipPath id="2"><path id="" clip-rule="evenodd" transform="matrix(1 0 0 1 0 0)" d="M0 0L612 0L612 0L612 792L612 792L0 792z" /></clipPath></defs><g transform="matrix(1.333333 0 0 1.333333 0 0)"><g clip-path="url(#1)"><path id="1" transform="matrix(1 0 0 -1 0 792)" d="M57.4016 634.2786L57.4016 654.2786" stroke="#6D6E70" stroke-width="1" fill="none" /><path id="692" transform="matrix(1 0 0 -1 0 792)" d="M214.173 409.265L292.913 409.265L292.913 383.515L214.173 383.515zM135.433 409.265L214.173 409.265L214.173 383.515L135.433 383.515zM56.693 409.265L135.433 409.265L135.433 383.515L56.693 383.515zM214.173 438.765L292.913 438.765L292.913 424.015L214.173 424.015zM135.433 438.765L214.173 438.765L214.173 424.015L135.433 424.015zM56.693 438.765L135.433 438.765L135.433 424.015L56.693 424.015zM214.173 479.265L292.913 479.265L292.913 453.515L214.173 453.515zM135.433 479.265L214.173 479.265L214.173 453.515L135.433 453.515zM56.693 479.265L135.433 479.265L135.433 453.515L56.693 453.515z" stroke="none" fill="#E5E6E7" fill-rule="nonzero" /><path id="693" transform="matrix(1 0 0 -1 0 792)" d="M56.6929 479.2648L135.4329 479.2648" stroke="#000000" stroke-width="1" fill="none" /><path id="694" transform="matrix(1 0 0 -1 0 792)" d="M135.4331 479.2648L214.1731 479.2648" stroke="#000000" stroke-width="1" fill="none" /><path id="695" transform="matrix(1 0 0 -1 0 792)" d="M214.1732 479.2648L292.9132 479.2648" stroke="#000000" stroke-width="1" fill="none" /><path id="1886" transform="matrix(1 0 0 -1 0 792)" d="M464.173 510.219L537.874 510.219L537.874 495.469L464.173 495.469zM304.913 510.219L464.173 510.219L464.173 495.469L304.913 495.469zM464.173 539.719L537.874 539.719L537.874 524.969L464.173 524.969zM304.913 539.719L464.173 539.719L464.173 524.969L304.913 524.969zM464.173 569.219L537.874 569.219L537.874 554.469L464.173 554.469zM304.913 569.219L464.173 569.219L464.173 554.469L304.913 554.469zM464.173 598.719L537.874 598.719L537.874 583.969L464.173 583.969zM304.913 598.719L464.173 598.719L464.173 583.969L304.913 583.969zM464.173 628.219L537.874 628.219L537.874 613.469L464.173 613.469zM304.913 628.219L464.173 628.219L464.173 613.469L304.913 613.469zM464.173 668.719L537.874 668.719L537.874 642.969L464.173 642.969zM304.913 668.719L464.173 668.719L464.173 642.969L304.913 642.969z" stroke="none" fill="#E5E6E7" fill-rule="nonzero" /><path id="1887" transform="matrix(1 0 0 -1 0 792)" d="M304.9134 668.7186L464.1734 668.7186" stroke="#000000" stroke-width="1" fill="none" /><path id="1888" transform="matrix(1 0 0 -1 0 792)" d="M464.1732 668.7186L537.8742 668.7186" stroke="#000000" stroke-width="1" fill="none" /><g clip-path="url(#2)"><path id="3418" transform="matrix(1 0 0 -1 0 792)" d="M56.9448 32.702L56.9448 -12.691" stroke="#000000" stroke-width="0.75" stroke-linecap="round" stroke-dasharray="0.75,1.464" fill="none" /><path id="3419" transform="matrix(1 0 0 -1 0 792)" d="M56.9448 -13.7986L56.9448 -13.7986M56.9448 34.9164L56.9448 34.9164" stroke="#000000" stroke-width="0.75" stroke-linecap="round" fill="none" /></g></g></g></svg>