<svg xmlns="http://www.w3.org/2000/svg" xmlns:xlink="http://www.w3.org/1999/xlink" id="body_59" preserveAspectRatio="xMinYMin meet" viewBox="0 0 816 1056"><defs><clipPath id="1"><path id="" clip-rule="evenodd" transform="matrix(1 0 0 1 0 0)" d="M0 792L0 0L0 0L612 0L612 0L612 792L612 792L0 792z" /></clipPath><clipPath id="2"><path id="" clip-rule="evenodd" transform="matrix(1 0 0 1 0 0)" d="M0 0L612 0L612 0L612 792L612 792L0 792z" /></clipPath></defs><g transform="matrix(1.333333 0 0 1.333333 0 0)"><g clip-path="url(#1)"><path id="1" transform="matrix(1 0 0 -1 0 792)" d="M173.858 131.721L555.307 131.721L555.307 107.721L173.858 107.721zM106.016 131.721L173.859 131.721L173.859 107.721L106.016 107.721zM70.866 131.721L106.016 131.721L106.016 107.721L70.866 107.721zM173.858 165.736L555.307 165.736L555.307 148.728L173.858 148.728zM106.016 165.736L173.859 165.736L173.859 148.728L106.016 148.728zM70.866 165.736L106.016 165.736L106.016 148.728L70.866 148.728zM173.858 199.752L555.307 199.752L555.307 182.744L173.858 182.744zM106.016 199.752L173.859 199.752L173.859 182.744L106.016 182.744zM70.866 199.752L106.016 199.752L106.016 182.744L70.866 182.744zM173.858 233.768L555.307 233.768L555.307 216.76L173.858 216.76zM106.016 233.768L173.859 233.768L173.859 216.76L106.016 216.76zM70.866 233.768L106.016 233.768L106.016 216.76L70.866 216.76zM173.858 274.776L555.307 274.776L555.307 250.776L173.858 250.776zM106.016 274.776L173.859 274.776L173.859 250.776L106.016 250.776zM70.866 274.776L106.016 274.776L106.016 250.776L70.866 250.776zM173.858 332.776L555.307 332.776L555.307 308.776L173.858 308.776zM106.016 332.776L173.859 332.776L173.859 308.776L106.016 308.776zM70.866 332.776L106.016 332.776L106.016 308.776L70.866 308.776zM173.858 400.776L555.307 400.776L555.307 366.776L173.858 366.776zM106.016 400.776L173.859 400.776L173.859 366.776L106.016 366.776zM70.866 400.776L106.016 400.776L106.016 366.776L70.866 366.776zM173.858 458.776L555.307 458.776L555.307 424.776L173.858 424.776zM106.016 458.776L173.859 458.776L173.859 424.776L106.016 424.776zM70.866 458.776L106.016 458.776L106.016 424.776L70.866 424.776zM173.858 506.776L555.307 506.776L555.307 482.776L173.858 482.776zM106.016 506.776L173.859 506.776L173.859 482.776L106.016 482.776zM70.866 506.776L106.016 506.776L106.016 482.776L70.866 482.776zM173.858 564.776L555.307 564.776L555.307 540.776L173.858 540.776zM106.016 564.776L173.859 564.776L173.859 540.776L106.016 540.776zM70.866 564.776L106.016 564.776L106.016 540.776L70.866 540.776zM173.858 598.791L555.307 598.791L555.307 581.783L173.858 581.783zM106.016 598.791L173.859 598.791L173.859 581.783L106.016 581.783zM70.866 598.791L106.016 598.791L106.016 581.783L70.866 581.783zM173.858 649.799L555.307 649.799L555.307 615.799L173.858 615.799zM106.016 649.799L173.859 649.799L173.859 615.799L106.016 615.799zM70.866 649.799L106.016 649.799L106.016 615.799L70.866 615.799zM173.858 718.299L555.307 718.299L555.307 683.799L173.858 683.799zM106.016 718.299L173.859 718.299L173.859 683.799L106.016 683.799zM70.866 718.299L106.016 718.299L106.016 683.799L70.866 683.799z" stroke="none" fill="#E6E7E8" fill-rule="nonzero" /><path id="2" transform="matrix(1 0 0 -1 0 792)" d="M70.8661 718.2993L106.0161 718.2993" stroke="#000000" stroke-width="1" fill="none" /><path id="3" transform="matrix(1 0 0 -1 0 792)" d="M173.8583 718.2993L555.3073 718.2993" stroke="#000000" stroke-width="1" fill="none" /><path id="4" transform="matrix(1 0 0 -1 0 792)" d="M106.0157 718.2993L173.8587 718.2993" stroke="#000000" stroke-width="1" fill="none" /><g clip-path="url(#2)"><path id="3287" transform="matrix(1 0 0 -1 0 792)" d="M555.6614 32.702L555.6614 -12.691" stroke="#000000" stroke-width="0.75" stroke-linecap="round" stroke-dasharray="0.75,1.464" fill="none" /><path id="3288" transform="matrix(1 0 0 -1 0 792)" d="M555.6614 -13.7986L555.6614 -13.7986M555.6614 34.9164L555.6614 34.9164" stroke="#000000" stroke-width="0.75" stroke-linecap="round" fill="none" /></g></g></g></svg>