<svg xmlns="http://www.w3.org/2000/svg" xmlns:xlink="http://www.w3.org/1999/xlink" id="body_135" preserveAspectRatio="xMinYMin meet" viewBox="0 0 816 1056"><defs><clipPath id="1"><path id="" clip-rule="evenodd" transform="matrix(1 0 0 1 0 0)" d="M0 792L0 0L0 0L612 0L612 0L612 792L612 792L0 792z" /></clipPath><clipPath id="2"><path id="" clip-rule="evenodd" transform="matrix(1 0 0 1 0 0)" d="M0 0L612 0L612 0L612 792L612 792L0 792z" /></clipPath></defs><g transform="matrix(1.333333 0 0 1.333333 0 0)"><g clip-path="url(#1)"><path id="1" transform="matrix(1 0 0 -1 0 792)" d="M75.0974 727.1418L75.0974 735.3068" stroke="#000000" stroke-width="8" fill="none" /><path id="2" transform="matrix(1 0 0 -1 0 792)" d="M75.0974 655.6379L75.0974 663.8029" stroke="#000000" stroke-width="8" fill="none" /><path id="3" transform="matrix(1 0 0 -1 0 792)" d="M75.0974 564.1339L75.0974 572.2989" stroke="#000000" stroke-width="8" fill="none" /><path id="4" transform="matrix(1 0 0 -1 0 792)" d="M75.0974 469.7953L75.0974 477.9603" stroke="#000000" stroke-width="8" fill="none" /><path id="5" transform="matrix(1 0 0 -1 0 792)" d="M75.0974 388.2914L75.0974 396.4564" stroke="#000000" stroke-width="8" fill="none" /><path id="6" transform="matrix(1 0 0 -1 0 792)" d="M75.0974 316.7874L75.0974 324.9524" stroke="#000000" stroke-width="8" fill="none" /><g clip-path="url(#2)"><path id="1267" transform="matrix(1 0 0 -1 0 792)" d="M555.6614 32.702L555.6614 -12.691" stroke="#000000" stroke-width="0.75" stroke-linecap="round" stroke-dasharray="0.75,1.464" fill="none" /><path id="1268" transform="matrix(1 0 0 -1 0 792)" d="M555.6614 -13.7986L555.6614 -13.7986M555.6614 34.9164L555.6614 34.9164" stroke="#000000" stroke-width="0.75" stroke-linecap="round" fill="none" /></g></g></g></svg>