<svg xmlns="http://www.w3.org/2000/svg" xmlns:xlink="http://www.w3.org/1999/xlink" id="body_28" preserveAspectRatio="xMinYMin meet" viewBox="0 0 816 1056"><defs><clipPath id="1"><path id="" clip-rule="evenodd" transform="matrix(1 0 0 1 0 0)" d="M0 792L0 0L0 0L612 0L612 0L612 792L612 792L0 792z" /></clipPath><clipPath id="2"><path id="" clip-rule="evenodd" transform="matrix(1 0 0 1 0 0)" d="M0 0L612 0L612 0L612 792L612 792L0 792z" /></clipPath></defs><g transform="matrix(1.333333 0 0 1.333333 0 0)"><g clip-path="url(#1)"><path id="1" transform="matrix(1 0 0 -1 0 792)" d="M56.693 719.682L292.913 719.682L292.913 738.142L56.693 738.142z" stroke="none" fill="#EAEBEC" fill-rule="nonzero" /><path id="2" transform="matrix(1 0 0 -1 0 792)" d="M60.9449 495.7708L60.9449 503.9358" stroke="#BBBDC0" stroke-width="8" fill="none" /><path id="3" transform="matrix(1 0 0 -1 0 792)" d="M56.693 403.32L292.913 403.32L292.913 421.78L56.693 421.78z" stroke="none" fill="#EAEBEC" fill-rule="nonzero" /><path id="4" transform="matrix(1 0 0 -1 0 792)" d="M60.9449 229.0778L60.9449 237.2428" stroke="#BBBDC0" stroke-width="8" fill="none" /><path id="5" transform="matrix(1 0 0 -1 0 792)" d="M56.693 114.627L292.913 114.627L292.913 133.087L56.693 133.087z" stroke="none" fill="#EAEBEC" fill-rule="nonzero" /><path id="2135" transform="matrix(1 0 0 -1 0 792)" d="M309.1653 607.3032L309.1653 615.4682" stroke="#BBBDC0" stroke-width="8" fill="none" /><path id="2136" transform="matrix(1 0 0 -1 0 792)" d="M304.913 481.852L541.133 481.852L541.133 500.312L304.913 500.312z" stroke="none" fill="#EAEBEC" fill-rule="nonzero" /><path id="2137" transform="matrix(1 0 0 -1 0 792)" d="M309.1653 279.941L309.1653 288.106" stroke="#BBBDC0" stroke-width="8" fill="none" /><g clip-path="url(#2)"><path id="3936" transform="matrix(1 0 0 -1 0 792)" d="M56.9448 32.702L56.9448 -12.691" stroke="#000000" stroke-width="0.75" stroke-linecap="round" stroke-dasharray="0.75,1.464" fill="none" /><path id="3937" transform="matrix(1 0 0 -1 0 792)" d="M56.9448 -13.7986L56.9448 -13.7986M56.9448 34.9164L56.9448 34.9164" stroke="#000000" stroke-width="0.75" stroke-linecap="round" fill="none" /></g></g></g></svg>