<svg xmlns="http://www.w3.org/2000/svg" xmlns:xlink="http://www.w3.org/1999/xlink" id="body_20" preserveAspectRatio="xMinYMin meet" viewBox="0 0 816 1056"><defs><clipPath id="1"><path id="" clip-rule="evenodd" transform="matrix(1 0 0 1 0 0)" d="M0 792L0 0L0 0L612 0L612 0L612 792L612 792L0 792z" /></clipPath><clipPath id="2"><path id="" clip-rule="evenodd" transform="matrix(1 0 0 1 0 0)" d="M0 0L612 0L612 0L612 792L612 792L0 792z" /></clipPath></defs><g transform="matrix(1.333333 0 0 1.333333 0 0)"><g clip-path="url(#1)"><path id="1" transform="matrix(1 0 0 -1 0 792)" d="M56.693 719.682L292.913 719.682L292.913 738.142L56.693 738.142z" stroke="none" fill="#EAEBEC" fill-rule="nonzero" /><path id="2" transform="matrix(1 0 0 -1 0 792)" d="M60.9449 675.6526L60.9449 683.8176" stroke="#BBBDC0" stroke-width="8" fill="none" /><path id="3" transform="matrix(1 0 0 -1 0 792)" d="M60.9449 636.6448L60.9449 644.8098" stroke="#BBBDC0" stroke-width="8" fill="none" /><path id="4" transform="matrix(1 0 0 -1 0 792)" d="M60.9449 495.4637L60.9449 503.6287" stroke="#BBBDC0" stroke-width="8" fill="none" /><path id="5" transform="matrix(1 0 0 -1 0 792)" d="M60.9449 348.9518L60.9449 357.1168" stroke="#BBBDC0" stroke-width="8" fill="none" /><path id="6" transform="matrix(1 0 0 -1 0 792)" d="M56.693 77.751L292.913 77.751L292.913 229.771L56.693 229.771z" stroke="none" fill="#F0F1F1" fill-rule="nonzero" /><path id="7" transform="matrix(1 0 0 -1 0 792)" d="M292.9134 77.751L56.69339 77.751" stroke="#939597" stroke-width="1" fill="none" /><path id="8" transform="matrix(1 0 0 -1 0 792)" d="M56.6929 229.7707L292.9129 229.7707" stroke="#939597" stroke-width="1" fill="none" /><path id="1510" transform="matrix(1 0 0 -1 0 792)" d="M304.913 602.791L541.133 602.791L541.133 743.811L304.913 743.811z" stroke="none" fill="#F0F1F1" fill-rule="nonzero" /><path id="1511" transform="matrix(1 0 0 -1 0 792)" d="M541.1339 602.7914L304.9139 602.7914" stroke="#939597" stroke-width="1" fill="none" /><path id="1512" transform="matrix(1 0 0 -1 0 792)" d="M304.9134 743.811L541.1334 743.811" stroke="#939597" stroke-width="1" fill="none" /><path id="1513" transform="matrix(1 0 0 -1 0 792)" d="M304.913 576.518L541.133 576.518L541.133 594.978L304.913 594.978z" stroke="none" fill="#000000" fill-rule="nonzero" /><path id="1514" transform="matrix(1 0 0 -1 0 792)" d="M307.4068 439.5729L539.6368 439.5729" stroke="#000000" stroke-width="1" stroke-linecap="round" stroke-dasharray="1,1" fill="none" /><path id="1515" transform="matrix(1 0 0 -1 0 792)" d="M540.6334 439.5729L540.6334 439.5729M305.4134 439.5729L305.4134 439.5729" stroke="#000000" stroke-width="1" stroke-linecap="round" fill="none" /><path id="1516" transform="matrix(1 0 0 -1 0 792)" d="M307.4068 344.8878L539.6368 344.8878" stroke="#000000" stroke-width="1" stroke-linecap="round" stroke-dasharray="1,1" fill="none" /><path id="1517" transform="matrix(1 0 0 -1 0 792)" d="M540.6334 344.8878L540.6334 344.8878M305.4134 344.8878L305.4134 344.8878" stroke="#000000" stroke-width="1" stroke-linecap="round" fill="none" /><path id="1518" transform="matrix(1 0 0 -1 0 792)" d="M309.1653 322.1339L309.1653 330.2989" stroke="#BBBDC0" stroke-width="8" fill="none" /><path id="1519" transform="matrix(1 0 0 -1 0 792)" d="M309.1653 272.126L309.1653 280.291" stroke="#BBBDC0" stroke-width="8" fill="none" /><g clip-path="url(#2)"><path id="2961" transform="matrix(1 0 0 -1 0 792)" d="M56.9448 32.702L56.9448 -12.691" stroke="#000000" stroke-width="0.75" stroke-linecap="round" stroke-dasharray="0.75,1.464" fill="none" /><path id="2962" transform="matrix(1 0 0 -1 0 792)" d="M56.9448 -13.7986L56.9448 -13.7986M56.9448 34.9164L56.9448 34.9164" stroke="#000000" stroke-width="0.75" stroke-linecap="round" fill="none" /></g></g></g></svg>