<svg xmlns="http://www.w3.org/2000/svg" xmlns:xlink="http://www.w3.org/1999/xlink" id="body_97" preserveAspectRatio="xMinYMin meet" viewBox="0 0 816 1056"><defs><clipPath id="1"><path id="" clip-rule="evenodd" transform="matrix(1 0 0 1 0 0)" d="M0 792L0 0L0 0L612 0L612 0L612 792L612 792L0 792z" /></clipPath><clipPath id="2"><path id="" clip-rule="evenodd" transform="matrix(1 0 0 1 0 0)" d="M70.866 444.787L307.418 444.787L307.418 444.787L307.418 92.55103L307.418 92.55103L70.866 92.55103z" /></clipPath><clipPath id="3"><path id="" clip-rule="evenodd" transform="matrix(1 0 0 1 0 0)" d="M61.8662 84.55103L316.417 84.55103L316.417 84.55103L316.417 447.495L316.417 447.495L61.8662 447.495z" /></clipPath><clipPath id="4"><path id="" clip-rule="evenodd" transform="matrix(1 0 0 1 0 0)" d="M70.866 668.06L307.418 668.06L307.418 668.06L307.418 456.329L307.418 456.329L70.866 456.329z" /></clipPath><clipPath id="5"><path id="" clip-rule="evenodd" transform="matrix(1 0 0 1 0 0)" d="M61.8661 448.329L316.417 448.329L316.417 448.329L316.417 670.769L316.417 670.769L61.8661 670.769z" /></clipPath><clipPath id="6"><path id="" clip-rule="evenodd" transform="matrix(1 0 0 1 0 0)" d="M319.087 351.012L555.638 351.012L555.638 351.012L555.638 56.69299L555.638 56.69299L319.087 56.69299z" /></clipPath><clipPath id="7"><path id="" clip-rule="evenodd" transform="matrix(1 0 0 1 0 0)" d="M310.087 48.69299L564.638 48.69299L564.638 48.69299L564.638 344.219L564.638 344.219L310.087 344.219z" /></clipPath><clipPath id="8"><path id="" clip-rule="evenodd" transform="matrix(1 0 0 1 0 0)" d="M319.087 743.972L555.638 743.972L555.638 743.972L555.638 349.819L555.638 349.819L319.087 349.819z" /></clipPath><clipPath id="9"><path id="" clip-rule="evenodd" transform="matrix(1 0 0 1 0 0)" d="M310.087 341.819L564.638 341.819L564.638 341.819L564.638 746.6801L564.638 746.6801L310.087 746.6801z" /></clipPath><clipPath id="10"><path id="" clip-rule="evenodd" transform="matrix(1 0 0 1 0 0)" d="M0 0L612 0L612 0L612 792L612 792L0 792z" /></clipPath></defs><g transform="matrix(1.333333 0 0 1.333333 0 0)"><g clip-path="url(#1)"><path id="34" transform="matrix(1 0 0 -1 0 792)" d="M73.701 699.4485L70.866 696.6145L70.866 350.0475L73.701 347.2125L304.583 347.2125L307.418 350.0475L307.418 696.6145L304.583 699.4485z" stroke="none" fill="#EAEBEC" fill-rule="nonzero" /><path id="35" transform="matrix(1 0 0 -1 0 792)" d="M77.035 611.556L301.248 611.556L301.248 637.0601L77.035 637.0601z" stroke="none" fill="#FFFEFE" fill-rule="nonzero" /><path id="36" transform="matrix(1 0 0 -1 0 792)" d="M77.0355 637.0596L301.2485 637.0596" stroke="#939597" stroke-width="0.5" fill="none" /><path id="37" transform="matrix(1 0 0 -1 0 792)" d="M77.035 596.886L301.248 596.886L301.248 616.225L77.035 616.225z" stroke="none" fill="#FFFEFE" fill-rule="nonzero" /><path id="38" transform="matrix(1 0 0 -1 0 792)" d="M78.0546 611.973L300.7386 611.973" stroke="#BBBDC0" stroke-width="0.51" stroke-linecap="round" stroke-dasharray="0.51,0.51" fill="none" /><path id="39" transform="matrix(1 0 0 -1 0 792)" d="M301.2485 611.973L301.2485 611.973M77.0355 611.973L77.0355 611.973" stroke="#BBBDC0" stroke-width="0.51" stroke-linecap="round" fill="none" /><path id="40" transform="matrix(1 0 0 -1 0 792)" d="M77.0355 596.6561L300.6965 596.6561" stroke="#939597" stroke-width="0.5" fill="none" /><g clip-path="url(#2)"><g><g clip-path="url(#3)"><path id="1293" transform="matrix(1 0 0 -1 0 792)" d="M73.8044 699.1989C 72.90839 698.3029 72.0124 697.4069 71.11639 696.5109L71.11639 696.5109L71.11639 350.1509C 72.0124 349.2549 72.90839 348.3589 73.8044 347.4629L73.8044 347.4629L304.4794 347.4629C 305.3754 348.3589 306.2714 349.2549 307.1674 350.1509L307.1674 350.1509L307.1674 696.5109L307.1674 696.5109L304.4794 699.1989L304.4794 699.1989L73.8044 699.1989z" stroke="#000000" stroke-width="0.5" fill="none" stroke-opacity="0.4980392" /></g></g></g><path id="1294" transform="matrix(1 0 0 -1 0 792)" d="M73.701 335.6712L70.866 332.8362L70.866 126.7742L73.7 123.9402L304.583 123.9402L307.418 126.7742L307.418 332.8362L304.583 335.6712z" stroke="none" fill="#EAEBEC" fill-rule="nonzero" /><path id="1295" transform="matrix(1 0 0 -1 0 792)" d="M77.035 256.778L301.248 256.778L301.248 282.282L77.035 282.282z" stroke="none" fill="#FFFEFE" fill-rule="nonzero" /><path id="1296" transform="matrix(1 0 0 -1 0 792)" d="M77.0354 282.2817L301.2484 282.2817" stroke="#939597" stroke-width="0.5" fill="none" /><path id="1297" transform="matrix(1 0 0 -1 0 792)" d="M77.0354 256.5474L300.6964 256.5474" stroke="#939597" stroke-width="0.5" fill="none" /><g clip-path="url(#4)"><g><g clip-path="url(#5)"><path id="1958" transform="matrix(1 0 0 -1 0 792)" d="M73.8043 335.421C 72.90829 334.525 72.0123 333.629 71.11629 332.733L71.11629 332.733L71.11629 126.877L71.11629 126.877L73.8043 124.189L73.8043 124.189L304.4793 124.189C 305.3753 125.085 306.2713 125.981 307.1673 126.877L307.1673 126.877L307.1673 332.733L307.1673 332.733L304.4793 335.421L304.4793 335.421L73.8043 335.421z" stroke="#000000" stroke-width="0.5" fill="none" stroke-opacity="0.4980392" /></g></g></g><path id="1959" transform="matrix(1 0 0 -1 0 792)" d="M321.921 735.3072L319.087 732.4722L319.087 453.3242L321.921 450.4892L552.803 450.4892L555.637 453.3242L555.637 732.4722L552.803 735.3072z" stroke="none" fill="#EAEBEC" fill-rule="nonzero" /><path id="1960" transform="matrix(1 0 0 -1 0 792)" d="M325.256 656.414L549.469 656.414L549.469 681.918L325.256 681.918z" stroke="none" fill="#FFFEFE" fill-rule="nonzero" /><path id="1961" transform="matrix(1 0 0 -1 0 792)" d="M325.256 681.9178L549.469 681.9178" stroke="#939597" stroke-width="0.5" fill="none" /><path id="1962" transform="matrix(1 0 0 -1 0 792)" d="M325.256 641.745L549.469 641.745L549.469 661.084L325.256 661.084z" stroke="none" fill="#FFFEFE" fill-rule="nonzero" /><path id="1963" transform="matrix(1 0 0 -1 0 792)" d="M326.2751 656.8312L548.9591 656.8312" stroke="#BBBDC0" stroke-width="0.51" stroke-linecap="round" stroke-dasharray="0.51,0.51" fill="none" /><path id="1964" transform="matrix(1 0 0 -1 0 792)" d="M549.469 656.8312L549.469 656.8312M325.256 656.8312L325.256 656.8312" stroke="#BBBDC0" stroke-width="0.51" stroke-linecap="round" fill="none" /><path id="1965" transform="matrix(1 0 0 -1 0 792)" d="M325.256 641.5143L548.917 641.5143" stroke="#939597" stroke-width="0.5" fill="none" /><g clip-path="url(#6)"><g><g clip-path="url(#7)"><path id="3001" transform="matrix(1 0 0 -1 0 792)" d="M322.0249 735.0571C 321.1289 734.1611 320.2329 733.2651 319.3369 732.3691L319.3369 732.3691L319.3369 453.4271C 320.2329 452.5311 321.1289 451.6351 322.0249 450.7391L322.0249 450.7391L552.6999 450.7391C 553.5959 451.6351 554.4919 452.5311 555.3879 453.4271L555.3879 453.4271L555.3879 732.3691C 554.4919 733.2651 553.5959 734.1611 552.6999 735.0571L552.6999 735.0571L322.0249 735.0571z" stroke="#000000" stroke-width="0.5" fill="none" stroke-opacity="0.4980392" /></g></g></g><path id="3002" transform="matrix(1 0 0 -1 0 792)" d="M321.921 442.1808L319.087 439.3458L319.087 50.86279L321.921 48.02777L552.803 48.02777L555.637 50.86279L555.637 439.3458L552.803 442.1808z" stroke="none" fill="#EAEBEC" fill-rule="nonzero" /><path id="3003" transform="matrix(1 0 0 -1 0 792)" d="M325.256 342.288L549.469 342.288L549.469 367.792L325.256 367.792z" stroke="none" fill="#FFFEFE" fill-rule="nonzero" /><path id="3004" transform="matrix(1 0 0 -1 0 792)" d="M325.256 367.7916L549.469 367.7916" stroke="#939597" stroke-width="0.5" fill="none" /><path id="3005" transform="matrix(1 0 0 -1 0 792)" d="M325.256 327.618L549.469 327.618L549.469 346.957L325.256 346.957z" stroke="none" fill="#FFFEFE" fill-rule="nonzero" /><path id="3006" transform="matrix(1 0 0 -1 0 792)" d="M326.2751 342.705L548.9591 342.705" stroke="#BBBDC0" stroke-width="0.51" stroke-linecap="round" stroke-dasharray="0.51,0.51" fill="none" /><path id="3007" transform="matrix(1 0 0 -1 0 792)" d="M549.469 342.705L549.469 342.705M325.256 342.705L325.256 342.705" stroke="#BBBDC0" stroke-width="0.51" stroke-linecap="round" fill="none" /><path id="3008" transform="matrix(1 0 0 -1 0 792)" d="M325.256 327.3881L548.917 327.3881" stroke="#939597" stroke-width="0.5" fill="none" /><g clip-path="url(#8)"><g><g clip-path="url(#9)"><path id="4493" transform="matrix(1 0 0 -1 0 792)" d="M322.0249 441.9309C 321.1289 441.0349 320.2329 440.1379 319.3369 439.2429L319.3369 439.2429L319.3369 50.96591C 320.2329 50.06992 321.1289 49.17392 322.0249 48.27789L322.0249 48.27789L552.6999 48.27789C 553.5959 49.17392 554.4919 50.06992 555.3879 50.96591L555.3879 50.96591L555.3879 439.2429L555.3879 439.2429L552.6999 441.9309L552.6999 441.9309L322.0249 441.9309z" stroke="#000000" stroke-width="0.5" fill="none" stroke-opacity="0.4980392" /></g></g></g><g clip-path="url(#10)"><path id="4510" transform="matrix(1 0 0 -1 0 792)" d="M555.6614 32.702L555.6614 -12.691" stroke="#000000" stroke-width="0.75" stroke-linecap="round" stroke-dasharray="0.75,1.464" fill="none" /><path id="4511" transform="matrix(1 0 0 -1 0 792)" d="M555.6614 -13.7986L555.6614 -13.7986M555.6614 34.9164L555.6614 34.9164" stroke="#000000" stroke-width="0.75" stroke-linecap="round" fill="none" /></g></g></g></svg>