<svg xmlns="http://www.w3.org/2000/svg" xmlns:xlink="http://www.w3.org/1999/xlink" id="body_120" preserveAspectRatio="xMinYMin meet" viewBox="0 0 816 1056"><defs><clipPath id="1"><path id="" clip-rule="evenodd" transform="matrix(1 0 0 1 0 0)" d="M0 792L0 0L0 0L612 0L612 0L612 792L612 792L0 792z" /></clipPath><clipPath id="2"><path id="" clip-rule="evenodd" transform="matrix(1 0 0 1 0 0)" d="M0 0L612 0L612 0L612 792L612 792L0 792z" /></clipPath></defs><g transform="matrix(1.333333 0 0 1.333333 0 0)"><g clip-path="url(#1)"><path id="1" transform="matrix(1 0 0 -1 0 792)" d="M60.9449 727.1418L60.9449 735.3068" stroke="#000000" stroke-width="8" fill="none" /><path id="2" transform="matrix(1 0 0 -1 0 792)" d="M60.9449 635.6379L60.9449 643.8029" stroke="#000000" stroke-width="8" fill="none" /><path id="3" transform="matrix(1 0 0 -1 0 792)" d="M60.9449 511.2993L60.9449 519.4643" stroke="#000000" stroke-width="8" fill="none" /><path id="4" transform="matrix(1 0 0 -1 0 792)" d="M60.9449 399.7953L60.9449 407.9603" stroke="#000000" stroke-width="8" fill="none" /><path id="5" transform="matrix(1 0 0 -1 0 792)" d="M60.9449 301.6221L60.9449 309.7871" stroke="#000000" stroke-width="8" fill="none" /><path id="6" transform="matrix(1 0 0 -1 0 792)" d="M60.9449 200.1181L60.9449 208.2831" stroke="#000000" stroke-width="8" fill="none" /><path id="1742" transform="matrix(1 0 0 -1 0 792)" d="M309.1653 727.1418L309.1653 735.3068" stroke="#000000" stroke-width="8" fill="none" /><path id="1743" transform="matrix(1 0 0 -1 0 792)" d="M309.1653 605.6379L309.1653 613.8029" stroke="#000000" stroke-width="8" fill="none" /><path id="1744" transform="matrix(1 0 0 -1 0 792)" d="M309.1653 481.2993L309.1653 489.4643" stroke="#000000" stroke-width="8" fill="none" /><path id="1745" transform="matrix(1 0 0 -1 0 792)" d="M309.1653 359.7953L309.1653 367.9603" stroke="#000000" stroke-width="8" fill="none" /><path id="1746" transform="matrix(1 0 0 -1 0 792)" d="M309.1653 278.2914L309.1653 286.4564" stroke="#000000" stroke-width="8" fill="none" /><g clip-path="url(#2)"><path id="3435" transform="matrix(1 0 0 -1 0 792)" d="M56.9448 32.702L56.9448 -12.691" stroke="#000000" stroke-width="0.75" stroke-linecap="round" stroke-dasharray="0.75,1.464" fill="none" /><path id="3436" transform="matrix(1 0 0 -1 0 792)" d="M56.9448 -13.7986L56.9448 -13.7986M56.9448 34.9164L56.9448 34.9164" stroke="#000000" stroke-width="0.75" stroke-linecap="round" fill="none" /></g></g></g></svg>