<svg xmlns="http://www.w3.org/2000/svg" xmlns:xlink="http://www.w3.org/1999/xlink" id="body_134" preserveAspectRatio="xMinYMin meet" viewBox="0 0 816 1056"><defs><clipPath id="1"><path id="" clip-rule="evenodd" transform="matrix(1 0 0 1 0 0)" d="M0 792L0 0L0 0L612 0L612 0L612 792L612 792L0 792z" /></clipPath><clipPath id="2"><path id="" clip-rule="evenodd" transform="matrix(1 0 0 1 0 0)" d="M0 0L612 0L612 0L612 792L612 792L0 792z" /></clipPath></defs><g transform="matrix(1.333333 0 0 1.333333 0 0)"><g clip-path="url(#1)"><path id="1" transform="matrix(1 0 0 -1 0 792)" d="M56.693 721.099L541.134 721.099L541.134 738.142L56.693 738.142z" stroke="none" fill="#000000" fill-rule="nonzero" /><path id="15" transform="matrix(1 0 0 -1 0 792)" d="M60.9449 699.7786L60.9449 707.9436" stroke="#000000" stroke-width="8" fill="none" /><path id="16" transform="matrix(1 0 0 -1 0 792)" d="M60.9449 572.9361L60.9449 581.1011" stroke="#000000" stroke-width="8" fill="none" /><path id="17" transform="matrix(1 0 0 -1 0 792)" d="M60.9449 467.5975L60.9449 475.7625" stroke="#000000" stroke-width="8" fill="none" /><path id="18" transform="matrix(1 0 0 -1 0 792)" d="M60.9449 386.0936L60.9449 394.2586" stroke="#000000" stroke-width="8" fill="none" /><path id="19" transform="matrix(1 0 0 -1 0 792)" d="M60.9449 314.5896L60.9449 322.7546" stroke="#000000" stroke-width="8" fill="none" /><path id="20" transform="matrix(1 0 0 -1 0 792)" d="M60.9449 220.251L60.9449 228.416" stroke="#000000" stroke-width="8" fill="none" /><path id="21" transform="matrix(1 0 0 -1 0 792)" d="M60.9449 158.7471L60.9449 166.9121" stroke="#000000" stroke-width="8" fill="none" /><path id="1402" transform="matrix(1 0 0 -1 0 792)" d="M309.1653 699.7786L309.1653 707.9436" stroke="#000000" stroke-width="8" fill="none" /><path id="1403" transform="matrix(1 0 0 -1 0 792)" d="M309.1653 607.2747L309.1653 615.4397" stroke="#000000" stroke-width="8" fill="none" /><path id="1404" transform="matrix(1 0 0 -1 0 792)" d="M309.1653 535.7708L309.1653 543.9358" stroke="#000000" stroke-width="8" fill="none" /><path id="1405" transform="matrix(1 0 0 -1 0 792)" d="M309.1653 451.4322L309.1653 459.5972" stroke="#000000" stroke-width="8" fill="none" /><path id="1406" transform="matrix(1 0 0 -1 0 792)" d="M309.1653 379.9282L309.1653 388.0932" stroke="#000000" stroke-width="8" fill="none" /><path id="1407" transform="matrix(1 0 0 -1 0 792)" d="M309.1653 318.4243L309.1653 326.5893" stroke="#000000" stroke-width="8" fill="none" /><path id="1408" transform="matrix(1 0 0 -1 0 792)" d="M309.1653 234.0857L309.1653 242.2507" stroke="#000000" stroke-width="8" fill="none" /><path id="1409" transform="matrix(1 0 0 -1 0 792)" d="M309.1653 152.5818L309.1653 160.7468" stroke="#000000" stroke-width="8" fill="none" /><g clip-path="url(#2)"><path id="2791" transform="matrix(1 0 0 -1 0 792)" d="M56.9448 32.702L56.9448 -12.691" stroke="#000000" stroke-width="0.75" stroke-linecap="round" stroke-dasharray="0.75,1.464" fill="none" /><path id="2792" transform="matrix(1 0 0 -1 0 792)" d="M56.9448 -13.7986L56.9448 -13.7986M56.9448 34.9164L56.9448 34.9164" stroke="#000000" stroke-width="0.75" stroke-linecap="round" fill="none" /></g></g></g></svg>