<svg xmlns="http://www.w3.org/2000/svg" xmlns:xlink="http://www.w3.org/1999/xlink" id="body_88" preserveAspectRatio="xMinYMin meet" viewBox="0 0 816 1056"><defs><clipPath id="1"><path id="" clip-rule="evenodd" transform="matrix(1 0 0 1 0 0)" d="M0 792L0 0L0 0L612 0L612 0L612 792L612 792L0 792z" /></clipPath><clipPath id="2"><path id="" clip-rule="evenodd" transform="matrix(1 0 0 1 0 0)" d="M56.693 292.594L293.244 292.594L293.244 292.594L293.244 56.69299L293.244 56.69299L56.693 56.69299z" /></clipPath><clipPath id="3"><path id="" clip-rule="evenodd" transform="matrix(1 0 0 1 0 0)" d="M47.693 48.69299L302.244 48.69299L302.244 48.69299L302.244 295.302L302.244 295.302L47.693 295.302z" /></clipPath><clipPath id="4"><path id="" clip-rule="evenodd" transform="matrix(1 0 0 1 0 0)" d="M56.693 578.687L293.244 578.687L293.244 578.687L293.244 303.868L293.244 303.868L56.693 303.868z" /></clipPath><clipPath id="5"><path id="" clip-rule="evenodd" transform="matrix(1 0 0 1 0 0)" d="M47.693 295.868L302.244 295.868L302.244 295.868L302.244 581.395L302.244 581.395L47.693 581.395z" /></clipPath><clipPath id="6"><path id="" clip-rule="evenodd" transform="matrix(1 0 0 1 0 0)" d="M304.914 283.094L541.465 283.094L541.465 283.094L541.465 56.69299L541.465 56.69299L304.914 56.69299z" /></clipPath><clipPath id="7"><path id="" clip-rule="evenodd" transform="matrix(1 0 0 1 0 0)" d="M295.913 48.69299L550.465 48.69299L550.465 48.69299L550.465 285.802L550.465 285.802L295.913 285.802z" /></clipPath><clipPath id="8"><path id="" clip-rule="evenodd" transform="matrix(1 0 0 1 0 0)" d="M304.914 549.501L541.465 549.501L541.465 549.501L541.465 293.683L541.465 293.683L304.914 293.683z" /></clipPath><clipPath id="9"><path id="" clip-rule="evenodd" transform="matrix(1 0 0 1 0 0)" d="M295.913 285.683L550.465 285.683L550.465 285.683L550.465 543.21L550.465 543.21L295.913 543.21z" /></clipPath><clipPath id="10"><path id="" clip-rule="evenodd" transform="matrix(1 0 0 1 0 0)" d="M0 0L612 0L612 0L612 792L612 792L0 792z" /></clipPath></defs><g transform="matrix(1.333333 0 0 1.333333 0 0)"><g clip-path="url(#1)"><path id="1" transform="matrix(1 0 0 -1 0 792)" d="M59.5278 735.3072L56.6928 732.4722L56.6928 502.2402L59.5278 499.4062L290.4098 499.4062L293.2438 502.2402L293.2438 732.4722L290.4098 735.3072z" stroke="none" fill="#EAEBEC" fill-rule="nonzero" /><path id="2" transform="matrix(1 0 0 -1 0 792)" d="M62.862 656.414L287.075 656.414L287.075 681.918L62.862 681.918z" stroke="none" fill="#FFFEFE" fill-rule="nonzero" /><path id="3" transform="matrix(1 0 0 -1 0 792)" d="M62.8623 681.9179L287.0753 681.9179" stroke="#939597" stroke-width="0.5" fill="none" /><path id="4" transform="matrix(1 0 0 -1 0 792)" d="M62.862 641.745L287.075 641.745L287.075 661.084L62.862 661.084z" stroke="none" fill="#FFFEFE" fill-rule="nonzero" /><path id="5" transform="matrix(1 0 0 -1 0 792)" d="M63.8814 656.8313L286.5654 656.8313" stroke="#BBBDC0" stroke-width="0.51" stroke-linecap="round" stroke-dasharray="0.51,0.51" fill="none" /><path id="6" transform="matrix(1 0 0 -1 0 792)" d="M287.0753 656.8313L287.0753 656.8313M62.8623 656.8313L62.8623 656.8313" stroke="#BBBDC0" stroke-width="0.51" stroke-linecap="round" fill="none" /><path id="7" transform="matrix(1 0 0 -1 0 792)" d="M62.8623 641.5144L286.5233 641.5144" stroke="#939597" stroke-width="0.5" fill="none" /><g clip-path="url(#2)"><g><g clip-path="url(#3)"><path id="810" transform="matrix(1 0 0 -1 0 792)" d="M59.6311 735.0572C 58.7351 734.1612 57.8391 733.2652 56.9431 732.3692L56.9431 732.3692L56.9431 502.3442C 57.8391 501.4482 58.7351 500.5522 59.6311 499.6562L59.6311 499.6562L290.3061 499.6562C 291.2021 500.5522 292.0981 501.4482 292.9941 502.3442L292.9941 502.3442L292.9941 732.3692C 292.0981 733.2652 291.2021 734.1612 290.3061 735.0572L290.3061 735.0572L59.6311 735.0572z" stroke="#000000" stroke-width="0.5" fill="none" stroke-opacity="0.4980392" /></g></g></g><path id="811" transform="matrix(1 0 0 -1 0 792)" d="M59.5278 488.1312L56.6928 485.2972L56.6928 216.1472L59.5278 213.3132L290.4098 213.3132L293.2438 216.1472L293.2438 485.2972L290.4098 488.1312z" stroke="none" fill="#EAEBEC" fill-rule="nonzero" /><path id="812" transform="matrix(1 0 0 -1 0 792)" d="M62.862 400.238L287.075 400.238L287.075 425.742L62.862 425.742z" stroke="none" fill="#FFFEFE" fill-rule="nonzero" /><path id="813" transform="matrix(1 0 0 -1 0 792)" d="M62.8623 425.7422L287.0753 425.7422" stroke="#939597" stroke-width="0.5" fill="none" /><path id="814" transform="matrix(1 0 0 -1 0 792)" d="M62.862 385.569L287.075 385.569L287.075 404.908L62.862 404.908z" stroke="none" fill="#FFFEFE" fill-rule="nonzero" /><path id="815" transform="matrix(1 0 0 -1 0 792)" d="M63.8814 400.6556L286.5654 400.6556" stroke="#BBBDC0" stroke-width="0.51" stroke-linecap="round" stroke-dasharray="0.51,0.51" fill="none" /><path id="816" transform="matrix(1 0 0 -1 0 792)" d="M287.0753 400.6556L287.0753 400.6556M62.8623 400.6556L62.8623 400.6556" stroke="#BBBDC0" stroke-width="0.51" stroke-linecap="round" fill="none" /><path id="817" transform="matrix(1 0 0 -1 0 792)" d="M62.8623 385.3387L286.5233 385.3387" stroke="#939597" stroke-width="0.5" fill="none" /><g clip-path="url(#4)"><g><g clip-path="url(#5)"><path id="1755" transform="matrix(1 0 0 -1 0 792)" d="M59.6312 487.8815C 58.7352 486.9855 57.8392 486.0895 56.9432 485.1935L56.9432 485.1935L56.9432 216.2515C 57.8392 215.3555 58.7352 214.4595 59.6312 213.5635L59.6312 213.5635L290.3062 213.5635C 291.2022 214.4595 292.0982 215.3555 292.9942 216.2515L292.9942 216.2515L292.9942 485.1935C 292.0982 486.0895 291.2022 486.9855 290.3062 487.8815L290.3062 487.8815L59.6312 487.8815z" stroke="#000000" stroke-width="0.5" fill="none" stroke-opacity="0.4980392" /></g></g></g><path id="1756" transform="matrix(1 0 0 -1 0 792)" d="M307.7478 735.3072L304.9138 732.4722L304.9138 511.7412L307.7478 508.9062L538.6298 508.9062L541.4638 511.7412L541.4638 732.4722L538.6298 735.3072z" stroke="none" fill="#EAEBEC" fill-rule="nonzero" /><path id="1757" transform="matrix(1 0 0 -1 0 792)" d="M311.083 656.414L535.296 656.414L535.296 681.918L311.083 681.918z" stroke="none" fill="#FFFEFE" fill-rule="nonzero" /><path id="1758" transform="matrix(1 0 0 -1 0 792)" d="M311.0827 681.9179L535.2957 681.9179" stroke="#939597" stroke-width="0.5" fill="none" /><path id="1759" transform="matrix(1 0 0 -1 0 792)" d="M311.083 641.745L535.296 641.745L535.296 661.084L311.083 661.084z" stroke="none" fill="#FFFEFE" fill-rule="nonzero" /><path id="1760" transform="matrix(1 0 0 -1 0 792)" d="M312.1018 656.8313L534.7858 656.8313" stroke="#BBBDC0" stroke-width="0.51" stroke-linecap="round" stroke-dasharray="0.51,0.51" fill="none" /><path id="1761" transform="matrix(1 0 0 -1 0 792)" d="M535.2957 656.8313L535.2957 656.8313M311.0827 656.8313L311.0827 656.8313" stroke="#BBBDC0" stroke-width="0.51" stroke-linecap="round" fill="none" /><path id="1762" transform="matrix(1 0 0 -1 0 792)" d="M311.0827 641.5144L534.7437 641.5144" stroke="#939597" stroke-width="0.5" fill="none" /><g clip-path="url(#6)"><g><g clip-path="url(#7)"><path id="2511" transform="matrix(1 0 0 -1 0 792)" d="M307.8516 735.0572C 306.9556 734.1612 306.0596 733.2652 305.1636 732.3692L305.1636 732.3692L305.1636 511.8442C 306.0596 510.9482 306.9556 510.0522 307.8516 509.1562L307.8516 509.1562L538.5266 509.1562C 539.4226 510.0522 540.3186 510.9482 541.2146 511.8442L541.2146 511.8442L541.2146 732.3692L541.2146 732.3692L538.5266 735.0572L538.5266 735.0572L307.8516 735.0572z" stroke="#000000" stroke-width="0.5" fill="none" stroke-opacity="0.4980392" /></g></g></g><path id="2512" transform="matrix(1 0 0 -1 0 792)" d="M307.7478 498.3165L304.9138 495.4825L304.9138 254.3325L307.7478 251.4985L538.6298 251.4985L541.4638 254.3325L541.4638 495.4825L538.6298 498.3165z" stroke="none" fill="#EAEBEC" fill-rule="nonzero" /><path id="2513" transform="matrix(1 0 0 -1 0 792)" d="M311.083 419.424L535.296 419.424L535.296 444.928L311.083 444.928z" stroke="none" fill="#FFFEFE" fill-rule="nonzero" /><path id="2514" transform="matrix(1 0 0 -1 0 792)" d="M311.0827 444.9274L535.2957 444.9274" stroke="#939597" stroke-width="0.5" fill="none" /><path id="2515" transform="matrix(1 0 0 -1 0 792)" d="M311.083 404.754L535.296 404.754L535.296 424.093L311.083 424.093z" stroke="none" fill="#FFFEFE" fill-rule="nonzero" /><path id="2516" transform="matrix(1 0 0 -1 0 792)" d="M312.1019 419.8408L534.7859 419.8408" stroke="#BBBDC0" stroke-width="0.51" stroke-linecap="round" stroke-dasharray="0.51,0.51" fill="none" /><path id="2517" transform="matrix(1 0 0 -1 0 792)" d="M535.2957 419.8408L535.2957 419.8408M311.0827 419.8408L311.0827 419.8408" stroke="#BBBDC0" stroke-width="0.51" stroke-linecap="round" fill="none" /><path id="2518" transform="matrix(1 0 0 -1 0 792)" d="M311.0827 404.5239L534.7437 404.5239" stroke="#939597" stroke-width="0.5" fill="none" /><g clip-path="url(#8)"><g><g clip-path="url(#9)"><path id="3341" transform="matrix(1 0 0 -1 0 792)" d="M307.8517 498.0667C 306.9557 497.1707 306.0597 496.2747 305.1637 495.3787L305.1637 495.3787L305.1637 254.4367L305.1637 254.4367L307.8517 251.7487L307.8517 251.7487L538.5267 251.7487L538.5267 251.7487L541.2147 254.4367L541.2147 254.4367L541.2147 495.3787C 540.3187 496.2747 539.4227 497.1707 538.5267 498.0667L538.5267 498.0667L307.8517 498.0667z" stroke="#000000" stroke-width="0.5" fill="none" stroke-opacity="0.4980392" /></g></g></g><g clip-path="url(#10)"><path id="3358" transform="matrix(1 0 0 -1 0 792)" d="M56.9448 32.702L56.9448 -12.691" stroke="#000000" stroke-width="0.75" stroke-linecap="round" stroke-dasharray="0.75,1.464" fill="none" /><path id="3359" transform="matrix(1 0 0 -1 0 792)" d="M56.9448 -13.7986L56.9448 -13.7986M56.9448 34.9164L56.9448 34.9164" stroke="#000000" stroke-width="0.75" stroke-linecap="round" fill="none" /></g></g></g></svg>