<svg xmlns="http://www.w3.org/2000/svg" xmlns:xlink="http://www.w3.org/1999/xlink" id="body_62" preserveAspectRatio="xMinYMin meet" viewBox="0 0 816 1056"><defs><clipPath id="1"><path id="" clip-rule="evenodd" transform="matrix(1 0 0 1 0 0)" d="M0 792L0 0L0 0L612 0L612 0L612 792L612 792L0 792z" /></clipPath><clipPath id="2"><path id="" clip-rule="evenodd" transform="matrix(1 0 0 1 0 0)" d="M0 0L612 0L612 0L612 792L612 792L0 792z" /></clipPath></defs><g transform="matrix(1.333333 0 0 1.333333 0 0)"><g clip-path="url(#1)"><path id="19" transform="matrix(1 0 0 -1 0 792)" d="M60.9449 484.5831L60.9449 492.7481" stroke="#BBBDC0" stroke-width="8" fill="none" /><path id="20" transform="matrix(1 0 0 -1 0 792)" d="M60.9449 434.2051L60.9449 442.7401" stroke="#BBBDC0" stroke-width="8" fill="none" /><path id="21" transform="matrix(1 0 0 -1 0 792)" d="M60.9449 373.1973L60.9449 381.7323" stroke="#BBBDC0" stroke-width="8" fill="none" /><path id="22" transform="matrix(1 0 0 -1 0 792)" d="M60.9449 312.1894L60.9449 320.7244" stroke="#BBBDC0" stroke-width="8" fill="none" /><path id="23" transform="matrix(1 0 0 -1 0 792)" d="M60.9449 251.5516L60.9449 259.7166" stroke="#BBBDC0" stroke-width="8" fill="none" /><path id="24" transform="matrix(1 0 0 -1 0 792)" d="M60.9449 212.5437L60.9449 220.7087" stroke="#BBBDC0" stroke-width="8" fill="none" /><path id="25" transform="matrix(1 0 0 -1 0 792)" d="M60.9449 162.5359L60.9449 170.7009" stroke="#BBBDC0" stroke-width="8" fill="none" /><path id="1212" transform="matrix(1 0 0 -1 0 792)" d="M309.1653 651.5989L309.1653 659.7639" stroke="#BBBDC0" stroke-width="8" fill="none" /><path id="1213" transform="matrix(1 0 0 -1 0 792)" d="M309.1653 601.591L309.1653 609.756" stroke="#BBBDC0" stroke-width="8" fill="none" /><path id="1214" transform="matrix(1 0 0 -1 0 792)" d="M309.1653 551.5831L309.1653 559.7481" stroke="#BBBDC0" stroke-width="8" fill="none" /><path id="1215" transform="matrix(1 0 0 -1 0 792)" d="M309.1653 490.5752L309.1653 498.7402" stroke="#BBBDC0" stroke-width="8" fill="none" /><path id="1216" transform="matrix(1 0 0 -1 0 792)" d="M309.1653 451.5674L309.1653 459.7324" stroke="#BBBDC0" stroke-width="8" fill="none" /><path id="1217" transform="matrix(1 0 0 -1 0 792)" d="M309.1653 401.5595L309.1653 409.7245" stroke="#BBBDC0" stroke-width="8" fill="none" /><path id="1218" transform="matrix(1 0 0 -1 0 792)" d="M309.1653 351.5516L309.1653 359.7166" stroke="#BBBDC0" stroke-width="8" fill="none" /><path id="1219" transform="matrix(1 0 0 -1 0 792)" d="M309.1653 301.5437L309.1653 309.7087" stroke="#BBBDC0" stroke-width="8" fill="none" /><path id="1220" transform="matrix(1 0 0 -1 0 792)" d="M309.1653 262.5359L309.1653 270.7009" stroke="#BBBDC0" stroke-width="8" fill="none" /><path id="1221" transform="matrix(1 0 0 -1 0 792)" d="M309.1653 212.5279L309.1653 220.6929" stroke="#BBBDC0" stroke-width="8" fill="none" /><path id="1222" transform="matrix(1 0 0 -1 0 792)" d="M309.1653 162.5201L309.1653 170.6851" stroke="#BBBDC0" stroke-width="8" fill="none" /><g clip-path="url(#2)"><path id="2254" transform="matrix(1 0 0 -1 0 792)" d="M56.9448 32.702L56.9448 -12.691" stroke="#000000" stroke-width="0.75" stroke-linecap="round" stroke-dasharray="0.75,1.464" fill="none" /><path id="2255" transform="matrix(1 0 0 -1 0 792)" d="M56.9448 -13.7986L56.9448 -13.7986M56.9448 34.9164L56.9448 34.9164" stroke="#000000" stroke-width="0.75" stroke-linecap="round" fill="none" /></g></g></g></svg>