<svg xmlns="http://www.w3.org/2000/svg" xmlns:xlink="http://www.w3.org/1999/xlink" id="body_57" preserveAspectRatio="xMinYMin meet" viewBox="0 0 816 1056"><defs><clipPath id="1"><path id="" clip-rule="evenodd" transform="matrix(1 0 0 1 0 0)" d="M0 792L0 0L0 0L612 0L612 0L612 792L612 792L0 792z" /></clipPath><clipPath id="2"><path id="" clip-rule="evenodd" transform="matrix(1 0 0 1 0 0)" d="M0 0L612 0L612 0L612 792L612 792L0 792z" /></clipPath></defs><g transform="matrix(1.333333 0 0 1.333333 0 0)"><g clip-path="url(#1)"><path id="274" transform="matrix(1 0 0 -1 0 792)" d="M173.858 129.958L555.307 129.958L555.307 112.95L173.858 112.95zM106.016 129.958L173.859 129.958L173.859 112.95L106.016 112.95zM70.866 129.958L106.016 129.958L106.016 112.95L70.866 112.95zM173.858 177.958L555.307 177.958L555.307 153.958L173.858 153.958zM106.016 177.958L173.859 177.958L173.859 153.958L106.016 153.958zM70.866 177.958L106.016 177.958L106.016 153.958L70.866 153.958zM173.858 225.958L555.307 225.958L555.307 201.958L173.858 201.958zM106.016 225.958L173.859 225.958L173.859 201.958L106.016 201.958zM70.866 225.958L106.016 225.958L106.016 201.958L70.866 201.958zM173.858 276.966L555.307 276.966L555.307 259.958L173.858 259.958zM106.016 276.966L173.859 276.966L173.859 259.958L106.016 259.958zM70.866 276.966L106.016 276.966L106.016 259.958L70.866 259.958zM173.858 334.966L555.307 334.966L555.307 310.966L173.858 310.966zM106.016 334.966L173.859 334.966L173.859 310.966L106.016 310.966zM70.866 334.966L106.016 334.966L106.016 310.966L70.866 310.966zM173.858 382.966L555.307 382.966L555.307 358.966L173.858 358.966zM106.016 382.966L173.859 382.966L173.859 358.966L106.016 358.966zM70.866 382.966L106.016 382.966L106.016 358.966L70.866 358.966zM173.858 430.966L555.307 430.966L555.307 406.966L173.858 406.966zM106.016 430.966L173.859 430.966L173.859 406.966L106.016 406.966zM70.866 430.966L106.016 430.966L106.016 406.966L70.866 406.966zM173.858 478.966L555.307 478.966L555.307 454.966L173.858 454.966zM106.016 478.966L173.859 478.966L173.859 454.966L106.016 454.966zM70.866 478.966L106.016 478.966L106.016 454.966L70.866 454.966zM173.858 512.982L555.307 512.982L555.307 495.974L173.858 495.974zM106.016 512.982L173.859 512.982L173.859 495.974L106.016 495.974zM70.866 512.982L106.016 512.982L106.016 495.974L70.866 495.974zM173.858 553.99L555.307 553.99L555.307 529.99L173.858 529.99zM106.016 553.99L173.859 553.99L173.859 529.99L106.016 529.99zM70.866 553.99L106.016 553.99L106.016 529.99L70.866 529.99zM173.858 601.99L555.307 601.99L555.307 577.99L173.858 577.99zM106.016 601.99L173.859 601.99L173.859 577.99L106.016 577.99zM70.866 601.99L106.016 601.99L106.016 577.99L70.866 577.99z" stroke="none" fill="#E6E7E8" fill-rule="nonzero" /><path id="275" transform="matrix(1 0 0 -1 0 792)" d="M70.8661 618.9975L106.0161 618.9975" stroke="#000000" stroke-width="1" fill="none" /><path id="276" transform="matrix(1 0 0 -1 0 792)" d="M173.8583 618.9975L555.3073 618.9975" stroke="#000000" stroke-width="1" fill="none" /><path id="277" transform="matrix(1 0 0 -1 0 792)" d="M106.0157 618.9975L173.8587 618.9975" stroke="#000000" stroke-width="1" fill="none" /><g clip-path="url(#2)"><path id="3084" transform="matrix(1 0 0 -1 0 792)" d="M555.6614 32.702L555.6614 -12.691" stroke="#000000" stroke-width="0.75" stroke-linecap="round" stroke-dasharray="0.75,1.464" fill="none" /><path id="3085" transform="matrix(1 0 0 -1 0 792)" d="M555.6614 -13.7986L555.6614 -13.7986M555.6614 34.9164L555.6614 34.9164" stroke="#000000" stroke-width="0.75" stroke-linecap="round" fill="none" /></g></g></g></svg>