<svg xmlns="http://www.w3.org/2000/svg" xmlns:xlink="http://www.w3.org/1999/xlink" id="body_126" preserveAspectRatio="xMinYMin meet" viewBox="0 0 816 1056"><defs><clipPath id="1"><path id="" clip-rule="evenodd" transform="matrix(1 0 0 1 0 0)" d="M0 792L0 0L0 0L612 0L612 0L612 792L612 792L0 792z" /></clipPath><clipPath id="2"><path id="" clip-rule="evenodd" transform="matrix(1 0 0 1 0 0)" d="M0 0L612 0L612 0L612 792L612 792L0 792z" /></clipPath></defs><g transform="matrix(1.333333 0 0 1.333333 0 0)"><g clip-path="url(#1)"><path id="1" transform="matrix(1 0 0 -1 0 792)" d="M60.9449 727.1418L60.9449 735.3068" stroke="#000000" stroke-width="8" fill="none" /><path id="2" transform="matrix(1 0 0 -1 0 792)" d="M60.9449 602.8032L60.9449 610.9682" stroke="#000000" stroke-width="8" fill="none" /><path id="614" transform="matrix(1 0 0 -1 0 792)" d="M309.1653 727.1418L309.1653 735.3068" stroke="#000000" stroke-width="8" fill="none" /><path id="615" transform="matrix(1 0 0 -1 0 792)" d="M309.1653 622.8032L309.1653 630.9682" stroke="#000000" stroke-width="8" fill="none" /><path id="1141" transform="matrix(1 0 0 -1 0 792)" d="M56.693 492.273L541.134 492.273L541.134 509.316L56.693 509.316z" stroke="none" fill="#000000" fill-rule="nonzero" /><path id="1155" transform="matrix(1 0 0 -1 0 792)" d="M60.9449 470.9528L60.9449 479.1178" stroke="#000000" stroke-width="8" fill="none" /><path id="1156" transform="matrix(1 0 0 -1 0 792)" d="M60.9449 409.4489L60.9449 417.6139" stroke="#000000" stroke-width="8" fill="none" /><path id="1157" transform="matrix(1 0 0 -1 0 792)" d="M60.9449 307.9449L60.9449 316.1099" stroke="#000000" stroke-width="8" fill="none" /><path id="1158" transform="matrix(1 0 0 -1 0 792)" d="M60.9449 172.1024L60.9449 180.2674" stroke="#000000" stroke-width="8" fill="none" /><path id="2296" transform="matrix(1 0 0 -1 0 792)" d="M309.1653 470.9528L309.1653 479.1178" stroke="#000000" stroke-width="8" fill="none" /><path id="2297" transform="matrix(1 0 0 -1 0 792)" d="M309.1653 389.4489L309.1653 397.6139" stroke="#000000" stroke-width="8" fill="none" /><path id="2298" transform="matrix(1 0 0 -1 0 792)" d="M309.1653 287.9449L309.1653 296.1099" stroke="#000000" stroke-width="8" fill="none" /><path id="2299" transform="matrix(1 0 0 -1 0 792)" d="M309.1653 153.6063L309.1653 161.7713" stroke="#000000" stroke-width="8" fill="none" /><g clip-path="url(#2)"><path id="3572" transform="matrix(1 0 0 -1 0 792)" d="M56.9448 32.702L56.9448 -12.691" stroke="#000000" stroke-width="0.75" stroke-linecap="round" stroke-dasharray="0.75,1.464" fill="none" /><path id="3573" transform="matrix(1 0 0 -1 0 792)" d="M56.9448 -13.7986L56.9448 -13.7986M56.9448 34.9164L56.9448 34.9164" stroke="#000000" stroke-width="0.75" stroke-linecap="round" fill="none" /></g></g></g></svg>