<svg xmlns="http://www.w3.org/2000/svg" xmlns:xlink="http://www.w3.org/1999/xlink" id="body_63" preserveAspectRatio="xMinYMin meet" viewBox="0 0 816 1056"><defs><clipPath id="1"><path id="" clip-rule="evenodd" transform="matrix(1 0 0 1 0 0)" d="M0 792L0 0L0 0L612 0L612 0L612 792L612 792L0 792z" /></clipPath><clipPath id="2"><path id="" clip-rule="evenodd" transform="matrix(1 0 0 1 0 0)" d="M0 0L612 0L612 0L612 792L612 792L0 792z" /></clipPath></defs><g transform="matrix(1.333333 0 0 1.333333 0 0)"><g clip-path="url(#1)"><path id="1" transform="matrix(1 0 0 -1 0 792)" d="M75.1181 704.0306L75.1181 712.1956" stroke="#BBBDC0" stroke-width="8" fill="none" /><path id="2" transform="matrix(1 0 0 -1 0 792)" d="M75.1181 642.6526L75.1181 651.1876" stroke="#BBBDC0" stroke-width="8" fill="none" /><path id="3" transform="matrix(1 0 0 -1 0 792)" d="M75.1181 593.0148L75.1181 601.1797" stroke="#BBBDC0" stroke-width="8" fill="none" /><path id="4" transform="matrix(1 0 0 -1 0 792)" d="M75.1181 543.007L75.1181 551.172" stroke="#BBBDC0" stroke-width="8" fill="none" /><path id="5" transform="matrix(1 0 0 -1 0 792)" d="M75.1181 434.8259L75.1181 442.9909" stroke="#BBBDC0" stroke-width="8" fill="none" /><path id="6" transform="matrix(1 0 0 -1 0 792)" d="M71.5748 377.1526L71.5748 397.1526" stroke="#6D6E70" stroke-width="1" fill="none" /><path id="7" transform="matrix(1 0 0 -1 0 792)" d="M75.1181 275.3849L75.1181 283.5499" stroke="#BBBDC0" stroke-width="8" fill="none" /><path id="8" transform="matrix(1 0 0 -1 0 792)" d="M71.5748 112.5424L71.5748 133.0424" stroke="#6D6E70" stroke-width="1" fill="none" /><path id="1450" transform="matrix(1 0 0 -1 0 792)" d="M323.3386 727.1418L323.3386 735.3068" stroke="#BBBDC0" stroke-width="8" fill="none" /><path id="1451" transform="matrix(1 0 0 -1 0 792)" d="M323.3386 419.7008L323.3386 427.8658" stroke="#BBBDC0" stroke-width="8" fill="none" /><path id="1452" transform="matrix(1 0 0 -1 0 792)" d="M323.3386 250.8504L323.3386 259.0154" stroke="#BBBDC0" stroke-width="8" fill="none" /><g clip-path="url(#2)"><path id="3221" transform="matrix(1 0 0 -1 0 792)" d="M555.6614 32.702L555.6614 -12.691" stroke="#000000" stroke-width="0.75" stroke-linecap="round" stroke-dasharray="0.75,1.464" fill="none" /><path id="3222" transform="matrix(1 0 0 -1 0 792)" d="M555.6614 -13.7986L555.6614 -13.7986M555.6614 34.9164L555.6614 34.9164" stroke="#000000" stroke-width="0.75" stroke-linecap="round" fill="none" /></g></g></g></svg>