<svg xmlns="http://www.w3.org/2000/svg" xmlns:xlink="http://www.w3.org/1999/xlink" id="body_128" preserveAspectRatio="xMinYMin meet" viewBox="0 0 816 1056"><defs><clipPath id="1"><path id="" clip-rule="evenodd" transform="matrix(1 0 0 1 0 0)" d="M0 792L0 0L0 0L612 0L612 0L612 792L612 792L0 792z" /></clipPath><clipPath id="2"><path id="" clip-rule="evenodd" transform="matrix(1 0 0 1 0 0)" d="M0 0L612 0L612 0L612 792L612 792L0 792z" /></clipPath></defs><g transform="matrix(1.333333 0 0 1.333333 0 0)"><g clip-path="url(#1)"><path id="1" transform="matrix(1 0 0 -1 0 792)" d="M56.693 721.099L541.134 721.099L541.134 738.142L56.693 738.142z" stroke="none" fill="#000000" fill-rule="nonzero" /><path id="18" transform="matrix(1 0 0 -1 0 792)" d="M60.9449 699.7786L60.9449 707.9436" stroke="#000000" stroke-width="8" fill="none" /><path id="19" transform="matrix(1 0 0 -1 0 792)" d="M60.9449 628.2747L60.9449 636.4397" stroke="#000000" stroke-width="8" fill="none" /><path id="20" transform="matrix(1 0 0 -1 0 792)" d="M60.9449 533.9361L60.9449 542.1011" stroke="#000000" stroke-width="8" fill="none" /><path id="21" transform="matrix(1 0 0 -1 0 792)" d="M60.9449 409.5975L60.9449 417.7625" stroke="#000000" stroke-width="8" fill="none" /><path id="22" transform="matrix(1 0 0 -1 0 792)" d="M60.9449 285.2589L60.9449 293.4239" stroke="#000000" stroke-width="8" fill="none" /><path id="23" transform="matrix(1 0 0 -1 0 792)" d="M60.9449 213.755L60.9449 221.92" stroke="#000000" stroke-width="8" fill="none" /><path id="1694" transform="matrix(1 0 0 -1 0 792)" d="M309.1653 699.7786L309.1653 707.9436" stroke="#000000" stroke-width="8" fill="none" /><path id="1695" transform="matrix(1 0 0 -1 0 792)" d="M309.1653 598.2747L309.1653 606.4397" stroke="#000000" stroke-width="8" fill="none" /><path id="1696" transform="matrix(1 0 0 -1 0 792)" d="M309.1653 493.9361L309.1653 502.1011" stroke="#000000" stroke-width="8" fill="none" /><path id="1697" transform="matrix(1 0 0 -1 0 792)" d="M309.1653 402.4322L309.1653 410.5972" stroke="#000000" stroke-width="8" fill="none" /><path id="1698" transform="matrix(1 0 0 -1 0 792)" d="M309.1653 278.0936L309.1653 286.2586" stroke="#000000" stroke-width="8" fill="none" /><g clip-path="url(#2)"><path id="3262" transform="matrix(1 0 0 -1 0 792)" d="M56.9448 32.702L56.9448 -12.691" stroke="#000000" stroke-width="0.75" stroke-linecap="round" stroke-dasharray="0.75,1.464" fill="none" /><path id="3263" transform="matrix(1 0 0 -1 0 792)" d="M56.9448 -13.7986L56.9448 -13.7986M56.9448 34.9164L56.9448 34.9164" stroke="#000000" stroke-width="0.75" stroke-linecap="round" fill="none" /></g></g></g></svg>