<svg xmlns="http://www.w3.org/2000/svg" xmlns:xlink="http://www.w3.org/1999/xlink" id="body_98" preserveAspectRatio="xMinYMin meet" viewBox="0 0 816 1056"><defs><clipPath id="1"><path id="" clip-rule="evenodd" transform="matrix(1 0 0 1 0 0)" d="M0 792L0 0L0 0L612 0L612 0L612 792L612 792L0 792z" /></clipPath><clipPath id="2"><path id="" clip-rule="evenodd" transform="matrix(1 0 0 1 0 0)" d="M56.693 316.842L293.244 316.842L293.244 316.842L293.244 56.69202L293.244 56.69202L56.693 56.69202z" /></clipPath><clipPath id="3"><path id="" clip-rule="evenodd" transform="matrix(1 0 0 1 0 0)" d="M47.693 48.69299L302.244 48.69299L302.244 48.69299L302.244 310.55L302.244 310.55L47.693 310.55z" /></clipPath><clipPath id="4"><path id="" clip-rule="evenodd" transform="matrix(1 0 0 1 0 0)" d="M56.693 480.332L293.244 480.332L293.244 480.332L293.244 317.517L293.244 317.517L56.693 317.517z" /></clipPath><clipPath id="5"><path id="" clip-rule="evenodd" transform="matrix(1 0 0 1 0 0)" d="M47.693 309.518L302.244 309.518L302.244 309.518L302.244 483.04L302.244 483.04L47.693 483.04z" /></clipPath><clipPath id="6"><path id="" clip-rule="evenodd" transform="matrix(1 0 0 1 0 0)" d="M56.693 672.452L293.244 672.452L293.244 672.452L293.244 490.638L293.244 490.638L56.693 490.638z" /></clipPath><clipPath id="7"><path id="" clip-rule="evenodd" transform="matrix(1 0 0 1 0 0)" d="M47.693 482.637L302.244 482.637L302.244 482.637L302.244 675.16L302.244 675.16L47.693 675.16z" /></clipPath><clipPath id="8"><path id="" clip-rule="evenodd" transform="matrix(1 0 0 1 0 0)" d="M304.914 471.263L541.465 471.263L541.465 471.263L541.465 56.69299L541.465 56.69299L304.914 56.69299z" /></clipPath><clipPath id="9"><path id="" clip-rule="evenodd" transform="matrix(1 0 0 1 0 0)" d="M295.913 48.69299L550.465 48.69299L550.465 48.69299L550.465 473.971L550.465 473.971L295.913 473.971z" /></clipPath><clipPath id="10"><path id="" clip-rule="evenodd" transform="matrix(1 0 0 1 0 0)" d="M0 0L612 0L612 0L612 792L612 792L0 792z" /></clipPath></defs><g transform="matrix(1.333333 0 0 1.333333 0 0)"><g clip-path="url(#1)"><path id="1" transform="matrix(1 0 0 -1 0 792)" d="M59.5278 735.3072L56.6928 732.4722L56.6928 486.9932L59.5278 484.1572L290.4098 484.1572L293.2438 486.9932L293.2438 732.4722L290.4098 735.3072z" stroke="none" fill="#EAEBEC" fill-rule="nonzero" /><path id="2" transform="matrix(1 0 0 -1 0 792)" d="M62.862 656.414L287.075 656.414L287.075 681.918L62.862 681.918z" stroke="none" fill="#FFFEFE" fill-rule="nonzero" /><path id="3" transform="matrix(1 0 0 -1 0 792)" d="M62.8623 681.9178L287.0753 681.9178" stroke="#939597" stroke-width="0.5" fill="none" /><path id="4" transform="matrix(1 0 0 -1 0 792)" d="M62.8623 656.1836L286.5233 656.1836" stroke="#939597" stroke-width="0.5" fill="none" /><g clip-path="url(#2)"><g><g clip-path="url(#3)"><path id="915" transform="matrix(1 0 0 -1 0 792)" d="M59.6312 735.0571C 58.7352 734.1611 57.8392 733.2651 56.9432 732.3691L56.9432 732.3691L56.9432 487.0961L56.9432 487.0961L59.6312 484.4081L59.6312 484.4081L290.3062 484.4081C 291.2022 485.3041 292.0982 486.2001 292.9942 487.0961L292.9942 487.0961L292.9942 732.3691C 292.0982 733.2651 291.2022 734.1611 290.3062 735.0571L290.3062 735.0571L59.6312 735.0571z" stroke="#000000" stroke-width="0.5" fill="none" stroke-opacity="0.4980392" /></g></g></g><path id="916" transform="matrix(1 0 0 -1 0 792)" d="M59.5278 474.4827L56.6928 471.6477L56.6928 314.5027L59.5278 311.6677L290.4098 311.6677L293.2438 314.5027L293.2438 471.6477L290.4098 474.4827z" stroke="none" fill="#EAEBEC" fill-rule="nonzero" /><path id="917" transform="matrix(1 0 0 -1 0 792)" d="M62.862 395.589L287.075 395.589L287.075 421.093L62.862 421.093z" stroke="none" fill="#FFFEFE" fill-rule="nonzero" /><path id="918" transform="matrix(1 0 0 -1 0 792)" d="M62.8623 421.0931L287.0753 421.0931" stroke="#939597" stroke-width="0.5" fill="none" /><path id="919" transform="matrix(1 0 0 -1 0 792)" d="M62.8623 395.3589L286.5233 395.3589" stroke="#939597" stroke-width="0.5" fill="none" /><g clip-path="url(#4)"><g><g clip-path="url(#5)"><path id="1396" transform="matrix(1 0 0 -1 0 792)" d="M59.6311 474.2325C 58.7351 473.3365 57.8391 472.4405 56.9431 471.5445L56.9431 471.5445L56.9431 314.6065C 57.8391 313.7105 58.7351 312.8145 59.6311 311.9185L59.6311 311.9185L290.3061 311.9185L290.3061 311.9185L292.9941 314.6065L292.9941 314.6065L292.9941 471.5445C 292.0981 472.4405 291.2021 473.3365 290.3061 474.2325L290.3061 474.2325L59.6311 474.2325z" stroke="#000000" stroke-width="0.5" fill="none" stroke-opacity="0.4980392" /></g></g></g><path id="1397" transform="matrix(1 0 0 -1 0 792)" d="M59.5278 301.3623L56.6928 298.5283L56.6928 122.3833L59.5278 119.5483L290.4098 119.5483L293.2438 122.3833L293.2438 298.5283L290.4098 301.3623z" stroke="none" fill="#EAEBEC" fill-rule="nonzero" /><path id="1398" transform="matrix(1 0 0 -1 0 792)" d="M62.862 222.469L287.075 222.469L287.075 247.973L62.862 247.973z" stroke="none" fill="#FFFEFE" fill-rule="nonzero" /><path id="1399" transform="matrix(1 0 0 -1 0 792)" d="M62.8623 247.9734L287.0753 247.9734" stroke="#939597" stroke-width="0.5" fill="none" /><path id="1400" transform="matrix(1 0 0 -1 0 792)" d="M62.8623 222.2392L286.5233 222.2392" stroke="#939597" stroke-width="0.5" fill="none" /><g clip-path="url(#6)"><g><g clip-path="url(#7)"><path id="2001" transform="matrix(1 0 0 -1 0 792)" d="M59.6311 301.1127C 58.7351 300.2167 57.8391 299.3207 56.9431 298.4247L56.9431 298.4247L56.9431 122.4867L56.9431 122.4867L59.6311 119.7987L59.6311 119.7987L290.3061 119.7987C 291.2021 120.6947 292.0981 121.5907 292.9941 122.4867L292.9941 122.4867L292.9941 298.4247L292.9941 298.4247L290.3061 301.1127L290.3061 301.1127L59.6311 301.1127z" stroke="#000000" stroke-width="0.5" fill="none" stroke-opacity="0.4980392" /></g></g></g><path id="2002" transform="matrix(1 0 0 -1 0 792)" d="M307.7478 735.3072L304.9138 732.4722L304.9138 323.5712L307.7468 320.7372L538.6308 320.7372L541.4638 323.5712L541.4638 732.4722L538.6298 735.3072z" stroke="none" fill="#EAEBEC" fill-rule="nonzero" /><path id="2003" transform="matrix(1 0 0 -1 0 792)" d="M311.083 635.414L535.296 635.414L535.296 660.918L311.083 660.918z" stroke="none" fill="#FFFEFE" fill-rule="nonzero" /><path id="2004" transform="matrix(1 0 0 -1 0 792)" d="M311.0827 660.9178L535.2957 660.9178" stroke="#939597" stroke-width="0.5" fill="none" /><path id="2005" transform="matrix(1 0 0 -1 0 792)" d="M311.083 620.745L535.296 620.745L535.296 640.084L311.083 640.084z" stroke="none" fill="#FFFEFE" fill-rule="nonzero" /><path id="2006" transform="matrix(1 0 0 -1 0 792)" d="M312.1018 635.8312L534.7858 635.8312" stroke="#BBBDC0" stroke-width="0.51" stroke-linecap="round" stroke-dasharray="0.51,0.51" fill="none" /><path id="2007" transform="matrix(1 0 0 -1 0 792)" d="M535.2957 635.8312L535.2957 635.8312M311.0827 635.8312L311.0827 635.8312" stroke="#BBBDC0" stroke-width="0.51" stroke-linecap="round" fill="none" /><path id="2008" transform="matrix(1 0 0 -1 0 792)" d="M311.0827 620.5143L534.7437 620.5143" stroke="#939597" stroke-width="0.5" fill="none" /><g clip-path="url(#8)"><g><g clip-path="url(#9)"><path id="3644" transform="matrix(1 0 0 -1 0 792)" d="M307.8516 735.0571C 306.9556 734.1611 306.0596 733.2651 305.1636 732.3691L305.1636 732.3691L305.1636 323.6751L305.1636 323.6751L307.8516 320.9871L307.8516 320.9871L538.5266 320.9871C 539.4226 321.8831 540.3186 322.7781 541.2146 323.6751L541.2146 323.6751L541.2146 732.3691L541.2146 732.3691L538.5266 735.0571L538.5266 735.0571L307.8516 735.0571z" stroke="#000000" stroke-width="0.5" fill="none" stroke-opacity="0.4980392" /></g></g></g><g clip-path="url(#10)"><path id="3661" transform="matrix(1 0 0 -1 0 792)" d="M56.9448 32.702L56.9448 -12.691" stroke="#000000" stroke-width="0.75" stroke-linecap="round" stroke-dasharray="0.75,1.464" fill="none" /><path id="3662" transform="matrix(1 0 0 -1 0 792)" d="M56.9448 -13.7986L56.9448 -13.7986M56.9448 34.9164L56.9448 34.9164" stroke="#000000" stroke-width="0.75" stroke-linecap="round" fill="none" /></g></g></g></svg>