<svg xmlns="http://www.w3.org/2000/svg" xmlns:xlink="http://www.w3.org/1999/xlink" id="body_90" preserveAspectRatio="xMinYMin meet" viewBox="0 0 816 1056"><defs><clipPath id="1"><path id="" clip-rule="evenodd" transform="matrix(1 0 0 1 0 0)" d="M0 792L0 0L0 0L612 0L612 0L612 792L612 792L0 792z" /></clipPath><clipPath id="2"><path id="" clip-rule="evenodd" transform="matrix(1 0 0 1 0 0)" d="M56.693 273.595L293.244 273.595L293.244 273.595L293.244 56.69299L293.244 56.69299L56.693 56.69299z" /></clipPath><clipPath id="3"><path id="" clip-rule="evenodd" transform="matrix(1 0 0 1 0 0)" d="M47.693 48.69299L302.244 48.69299L302.244 48.69299L302.244 276.302L302.244 276.302L47.693 276.302z" /></clipPath><clipPath id="4"><path id="" clip-rule="evenodd" transform="matrix(1 0 0 1 0 0)" d="M56.693 500.574L293.244 500.574L293.244 500.574L293.244 285.09L293.244 285.09L56.693 285.09z" /></clipPath><clipPath id="5"><path id="" clip-rule="evenodd" transform="matrix(1 0 0 1 0 0)" d="M47.693 277.09L302.244 277.09L302.244 277.09L302.244 493.782L302.244 493.782L47.693 493.782z" /></clipPath><clipPath id="6"><path id="" clip-rule="evenodd" transform="matrix(1 0 0 1 0 0)" d="M56.693 706.324L293.244 706.324L293.244 706.324L293.244 501.34L293.244 501.34L56.693 501.34z" /></clipPath><clipPath id="7"><path id="" clip-rule="evenodd" transform="matrix(1 0 0 1 0 0)" d="M47.693 493.34L302.244 493.34L302.244 493.34L302.244 699.5322L302.244 699.5322L47.693 699.5322z" /></clipPath><clipPath id="8"><path id="" clip-rule="evenodd" transform="matrix(1 0 0 1 0 0)" d="M304.914 293.512L541.465 293.512L541.465 293.512L541.465 56.69299L541.465 56.69299L304.914 56.69299z" /></clipPath><clipPath id="9"><path id="" clip-rule="evenodd" transform="matrix(1 0 0 1 0 0)" d="M295.913 48.69299L550.465 48.69299L550.465 48.69299L550.465 286.719L550.465 286.719L295.913 286.719z" /></clipPath><clipPath id="10"><path id="" clip-rule="evenodd" transform="matrix(1 0 0 1 0 0)" d="M304.914 480.622L541.465 480.622L541.465 480.622L541.465 294.138L541.465 294.138L304.914 294.138z" /></clipPath><clipPath id="11"><path id="" clip-rule="evenodd" transform="matrix(1 0 0 1 0 0)" d="M295.913 286.138L550.465 286.138L550.465 286.138L550.465 473.83L550.465 473.83L295.913 473.83z" /></clipPath><clipPath id="12"><path id="" clip-rule="evenodd" transform="matrix(1 0 0 1 0 0)" d="M304.914 675.391L541.465 675.391L541.465 675.391L541.465 479.908L541.465 479.908L304.914 479.908z" /></clipPath><clipPath id="13"><path id="" clip-rule="evenodd" transform="matrix(1 0 0 1 0 0)" d="M295.913 471.909L550.465 471.909L550.465 471.909L550.465 669.101L550.465 669.101L295.913 669.101z" /></clipPath><clipPath id="14"><path id="" clip-rule="evenodd" transform="matrix(1 0 0 1 0 0)" d="M0 0L612 0L612 0L612 792L612 792L0 792z" /></clipPath></defs><g transform="matrix(1.333333 0 0 1.333333 0 0)"><g clip-path="url(#1)"><path id="1" transform="matrix(1 0 0 -1 0 792)" d="M59.5278 735.3072L56.6928 732.4722L56.6928 521.2402L59.5278 518.4062L290.4098 518.4062L293.2438 521.2402L293.2438 732.4722L290.4098 735.3072z" stroke="none" fill="#EAEBEC" fill-rule="nonzero" /><path id="2" transform="matrix(1 0 0 -1 0 792)" d="M62.862 656.414L287.075 656.414L287.075 681.918L62.862 681.918z" stroke="none" fill="#FFFEFE" fill-rule="nonzero" /><path id="3" transform="matrix(1 0 0 -1 0 792)" d="M62.8623 681.9177L287.0753 681.9177" stroke="#939597" stroke-width="0.5" fill="none" /><path id="4" transform="matrix(1 0 0 -1 0 792)" d="M62.862 641.745L287.075 641.745L287.075 661.084L62.862 661.084z" stroke="none" fill="#FFFEFE" fill-rule="nonzero" /><path id="5" transform="matrix(1 0 0 -1 0 792)" d="M63.8814 656.8311L286.5654 656.8311" stroke="#BBBDC0" stroke-width="0.51" stroke-linecap="round" stroke-dasharray="0.51,0.51" fill="none" /><path id="6" transform="matrix(1 0 0 -1 0 792)" d="M287.0753 656.8311L287.0753 656.8311M62.8623 656.8311L62.8623 656.8311" stroke="#BBBDC0" stroke-width="0.51" stroke-linecap="round" fill="none" /><path id="7" transform="matrix(1 0 0 -1 0 792)" d="M62.8623 641.5142L286.5233 641.5142" stroke="#939597" stroke-width="0.5" fill="none" /><g clip-path="url(#2)"><g><g clip-path="url(#3)"><path id="737" transform="matrix(1 0 0 -1 0 792)" d="M59.6311 735.057C 58.7351 734.161 57.8391 733.265 56.9431 732.369L56.9431 732.369L56.9431 521.344C 57.8391 520.448 58.7351 519.552 59.6311 518.656L59.6311 518.656L290.3061 518.656C 291.2021 519.552 292.0981 520.448 292.9941 521.344L292.9941 521.344L292.9941 732.369C 292.0981 733.265 291.2021 734.161 290.3061 735.057L290.3061 735.057L59.6311 735.057z" stroke="#000000" stroke-width="0.5" fill="none" stroke-opacity="0.4980392" /></g></g></g><path id="738" transform="matrix(1 0 0 -1 0 792)" d="M59.5278 506.9106L56.6928 504.0756L56.6928 303.7606L59.5278 300.9266L290.4098 300.9266L293.2438 303.7606L293.2438 504.0756L290.4098 506.9106z" stroke="none" fill="#EAEBEC" fill-rule="nonzero" /><path id="739" transform="matrix(1 0 0 -1 0 792)" d="M62.862 428.017L287.075 428.017L287.075 453.521L62.862 453.521z" stroke="none" fill="#FFFEFE" fill-rule="nonzero" /><path id="740" transform="matrix(1 0 0 -1 0 792)" d="M62.8623 453.5209L287.0753 453.5209" stroke="#939597" stroke-width="0.5" fill="none" /><path id="741" transform="matrix(1 0 0 -1 0 792)" d="M62.862 413.348L287.075 413.348L287.075 432.687L62.862 432.687z" stroke="none" fill="#FFFEFE" fill-rule="nonzero" /><path id="742" transform="matrix(1 0 0 -1 0 792)" d="M63.8814 428.4343L286.5654 428.4343" stroke="#BBBDC0" stroke-width="0.51" stroke-linecap="round" stroke-dasharray="0.51,0.51" fill="none" /><path id="743" transform="matrix(1 0 0 -1 0 792)" d="M287.0753 428.4343L287.0753 428.4343M62.8623 428.4343L62.8623 428.4343" stroke="#BBBDC0" stroke-width="0.51" stroke-linecap="round" fill="none" /><path id="744" transform="matrix(1 0 0 -1 0 792)" d="M62.8623 413.1174L286.5233 413.1174" stroke="#939597" stroke-width="0.5" fill="none" /><g clip-path="url(#4)"><g><g clip-path="url(#5)"><path id="1429" transform="matrix(1 0 0 -1 0 792)" d="M59.6311 506.6602C 58.7351 505.7642 57.8391 504.8682 56.9431 503.9722L56.9431 503.9722L56.9431 303.8642C 57.8391 302.9682 58.7351 302.0722 59.6311 301.1762L59.6311 301.1762L290.3061 301.1762L290.3061 301.1762L292.9941 303.8642L292.9941 303.8642L292.9941 503.9722C 292.0981 504.8682 291.2021 505.7642 290.3061 506.6602L290.3061 506.6602L59.6311 506.6602z" stroke="#000000" stroke-width="0.5" fill="none" stroke-opacity="0.4980392" /></g></g></g><path id="1430" transform="matrix(1 0 0 -1 0 792)" d="M59.5278 290.6595L56.6928 287.8245L56.6928 98.00949L59.5278 95.17549L290.4098 95.17549L293.2438 98.00949L293.2438 287.8245L290.4098 290.6595z" stroke="none" fill="#EAEBEC" fill-rule="nonzero" /><path id="1431" transform="matrix(1 0 0 -1 0 792)" d="M62.862 193.766L287.075 193.766L287.075 219.27L62.862 219.27z" stroke="none" fill="#FFFEFE" fill-rule="nonzero" /><path id="1432" transform="matrix(1 0 0 -1 0 792)" d="M62.8623 219.2703L287.0753 219.2703" stroke="#939597" stroke-width="0.5" fill="none" /><path id="1433" transform="matrix(1 0 0 -1 0 792)" d="M62.862 179.097L287.075 179.097L287.075 198.436L62.862 198.436z" stroke="none" fill="#FFFEFE" fill-rule="nonzero" /><path id="1434" transform="matrix(1 0 0 -1 0 792)" d="M63.8814 194.1837L286.5654 194.1837" stroke="#BBBDC0" stroke-width="0.51" stroke-linecap="round" stroke-dasharray="0.51,0.51" fill="none" /><path id="1435" transform="matrix(1 0 0 -1 0 792)" d="M287.0753 194.1837L287.0753 194.1837M62.8623 194.1837L62.8623 194.1837" stroke="#BBBDC0" stroke-width="0.51" stroke-linecap="round" fill="none" /><path id="1436" transform="matrix(1 0 0 -1 0 792)" d="M62.8623 178.8667L286.5233 178.8667" stroke="#939597" stroke-width="0.5" fill="none" /><g clip-path="url(#6)"><g><g clip-path="url(#7)"><path id="1983" transform="matrix(1 0 0 -1 0 792)" d="M59.6311 290.4095C 58.7351 289.5135 57.8391 288.6175 56.9431 287.7215L56.9431 287.7215L56.9431 98.11348L56.9431 98.11348L59.6311 95.42549L59.6311 95.42549L290.3061 95.42549C 291.2021 96.32149 292.0981 97.21748 292.9941 98.11348L292.9941 98.11348L292.9941 287.7215L292.9941 287.7215L290.3061 290.4095L290.3061 290.4095L59.6311 290.4095z" stroke="#000000" stroke-width="0.5" fill="none" stroke-opacity="0.4980392" /></g></g></g><path id="1984" transform="matrix(1 0 0 -1 0 792)" d="M307.7478 735.3072L304.9138 732.4722L304.9138 510.8242L307.7478 507.9892L538.6298 507.9892L541.4638 510.8242L541.4638 732.4722L538.6298 735.3072z" stroke="none" fill="#EAEBEC" fill-rule="nonzero" /><path id="1985" transform="matrix(1 0 0 -1 0 792)" d="M311.083 647.414L535.296 647.414L535.296 672.918L311.083 672.918z" stroke="none" fill="#FFFEFE" fill-rule="nonzero" /><path id="1986" transform="matrix(1 0 0 -1 0 792)" d="M311.0827 672.9178L535.2957 672.9178" stroke="#939597" stroke-width="0.5" fill="none" /><path id="1987" transform="matrix(1 0 0 -1 0 792)" d="M311.083 632.745L535.296 632.745L535.296 652.084L311.083 652.084z" stroke="none" fill="#FFFEFE" fill-rule="nonzero" /><path id="1988" transform="matrix(1 0 0 -1 0 792)" d="M312.1019 647.8312L534.7859 647.8312" stroke="#BBBDC0" stroke-width="0.51" stroke-linecap="round" stroke-dasharray="0.51,0.51" fill="none" /><path id="1989" transform="matrix(1 0 0 -1 0 792)" d="M535.2957 647.8312L535.2957 647.8312M311.0827 647.8312L311.0827 647.8312" stroke="#BBBDC0" stroke-width="0.51" stroke-linecap="round" fill="none" /><path id="1990" transform="matrix(1 0 0 -1 0 792)" d="M311.0827 632.5143L534.7437 632.5143" stroke="#939597" stroke-width="0.5" fill="none" /><g clip-path="url(#8)"><g><g clip-path="url(#9)"><path id="2691" transform="matrix(1 0 0 -1 0 792)" d="M307.8517 735.0571C 306.9557 734.1611 306.0597 733.2651 305.1637 732.3691L305.1637 732.3691L305.1637 510.9271C 306.0597 510.0311 306.9557 509.1351 307.8517 508.2391L307.8517 508.2391L538.5267 508.2391C 539.4227 509.1351 540.3187 510.0311 541.2147 510.9271L541.2147 510.9271L541.2147 732.3691L541.2147 732.3691L538.5267 735.0571L538.5267 735.0571L307.8517 735.0571z" stroke="#000000" stroke-width="0.5" fill="none" stroke-opacity="0.4980392" /></g></g></g><path id="2692" transform="matrix(1 0 0 -1 0 792)" d="M307.7478 497.862L304.9138 495.027L304.9138 323.713L307.7478 320.878L538.6298 320.878L541.4638 323.713L541.4638 495.027L538.6298 497.862z" stroke="none" fill="#EAEBEC" fill-rule="nonzero" /><path id="2693" transform="matrix(1 0 0 -1 0 792)" d="M311.083 409.969L535.296 409.969L535.296 435.473L311.083 435.473z" stroke="none" fill="#FFFEFE" fill-rule="nonzero" /><path id="2694" transform="matrix(1 0 0 -1 0 792)" d="M311.0827 435.4724L535.2957 435.4724" stroke="#939597" stroke-width="0.5" fill="none" /><path id="2695" transform="matrix(1 0 0 -1 0 792)" d="M311.083 395.299L535.296 395.299L535.296 414.638L311.083 414.638z" stroke="none" fill="#FFFEFE" fill-rule="nonzero" /><path id="2696" transform="matrix(1 0 0 -1 0 792)" d="M312.1019 410.3858L534.7859 410.3858" stroke="#BBBDC0" stroke-width="0.51" stroke-linecap="round" stroke-dasharray="0.51,0.51" fill="none" /><path id="2697" transform="matrix(1 0 0 -1 0 792)" d="M535.2957 410.3858L535.2957 410.3858M311.0827 410.3858L311.0827 410.3858" stroke="#BBBDC0" stroke-width="0.51" stroke-linecap="round" fill="none" /><path id="2698" transform="matrix(1 0 0 -1 0 792)" d="M311.0827 395.0689L534.7437 395.0689" stroke="#939597" stroke-width="0.5" fill="none" /><g clip-path="url(#10)"><g><g clip-path="url(#11)"><path id="3205" transform="matrix(1 0 0 -1 0 792)" d="M307.8517 497.6117C 306.9557 496.7157 306.0597 495.8197 305.1637 494.9237L305.1637 494.9237L305.1637 323.8157C 306.0597 322.9197 306.9557 322.0237 307.8517 321.1277L307.8517 321.1277L538.5267 321.1277C 539.4227 322.0237 540.3187 322.9197 541.2147 323.8157L541.2147 323.8157L541.2147 494.9237C 540.3187 495.8197 539.4227 496.7157 538.5267 497.6117L538.5267 497.6117L307.8517 497.6117z" stroke="#000000" stroke-width="0.5" fill="none" stroke-opacity="0.4980392" /></g></g></g><path id="3206" transform="matrix(1 0 0 -1 0 792)" d="M307.7478 312.0912L304.9138 309.2562L304.9138 128.4412L307.7478 125.6072L538.6298 125.6072L541.4638 128.4412L541.4638 309.2562L538.6298 312.0912z" stroke="none" fill="#EAEBEC" fill-rule="nonzero" /><path id="3207" transform="matrix(1 0 0 -1 0 792)" d="M311.083 224.198L535.296 224.198L535.296 249.702L311.083 249.702z" stroke="none" fill="#FFFEFE" fill-rule="nonzero" /><path id="3208" transform="matrix(1 0 0 -1 0 792)" d="M311.0827 249.7018L535.2957 249.7018" stroke="#939597" stroke-width="0.5" fill="none" /><path id="3209" transform="matrix(1 0 0 -1 0 792)" d="M311.083 209.529L535.296 209.529L535.296 228.868L311.083 228.868z" stroke="none" fill="#FFFEFE" fill-rule="nonzero" /><path id="3210" transform="matrix(1 0 0 -1 0 792)" d="M312.1019 224.6152L534.7859 224.6152" stroke="#BBBDC0" stroke-width="0.51" stroke-linecap="round" stroke-dasharray="0.51,0.51" fill="none" /><path id="3211" transform="matrix(1 0 0 -1 0 792)" d="M535.2957 224.6152L535.2957 224.6152M311.0827 224.6152L311.0827 224.6152" stroke="#BBBDC0" stroke-width="0.51" stroke-linecap="round" fill="none" /><path id="3212" transform="matrix(1 0 0 -1 0 792)" d="M311.0827 209.2983L534.7437 209.2983" stroke="#939597" stroke-width="0.5" fill="none" /><g clip-path="url(#12)"><g><g clip-path="url(#13)"><path id="3732" transform="matrix(1 0 0 -1 0 792)" d="M307.8517 311.8411C 306.9557 310.9451 306.0597 310.0491 305.1637 309.1531L305.1637 309.1531L305.1637 128.5451C 306.0597 127.6491 306.9557 126.7531 307.8517 125.8571L307.8517 125.8571L538.5267 125.8571C 539.4227 126.7531 540.3187 127.6491 541.2147 128.5451L541.2147 128.5451L541.2147 309.1531C 540.3187 310.0491 539.4227 310.9451 538.5267 311.8411L538.5267 311.8411L307.8517 311.8411z" stroke="#000000" stroke-width="0.5" fill="none" stroke-opacity="0.4980392" /></g></g></g><g clip-path="url(#14)"><path id="3749" transform="matrix(1 0 0 -1 0 792)" d="M56.9448 32.702L56.9448 -12.691" stroke="#000000" stroke-width="0.75" stroke-linecap="round" stroke-dasharray="0.75,1.464" fill="none" /><path id="3750" transform="matrix(1 0 0 -1 0 792)" d="M56.9448 -13.7986L56.9448 -13.7986M56.9448 34.9164L56.9448 34.9164" stroke="#000000" stroke-width="0.75" stroke-linecap="round" fill="none" /></g></g></g></svg>