<svg xmlns="http://www.w3.org/2000/svg" xmlns:xlink="http://www.w3.org/1999/xlink" id="body_49" preserveAspectRatio="xMinYMin meet" viewBox="0 0 816 1056"><defs><clipPath id="1"><path id="" clip-rule="evenodd" transform="matrix(1 0 0 1 0 0)" d="M0 792L0 0L0 0L612 0L612 0L612 792L612 792L0 792z" /></clipPath><clipPath id="2"><path id="" clip-rule="evenodd" transform="matrix(1 0 0 1 0 0)" d="M0 0L612 0L612 0L612 792L612 792L0 792z" /></clipPath></defs><g transform="matrix(1.333333 0 0 1.333333 0 0)"><g clip-path="url(#1)"><path id="33" transform="matrix(1 0 0 -1 0 792)" d="M380.173 178.663L555.307 178.663L555.307 144.663L380.173 144.663zM324.331 178.663L380.174 178.663L380.174 144.663L324.331 144.663zM258.567 178.663L324.331 178.663L324.331 144.663L258.567 144.663zM204.709 178.663L258.567 178.663L258.567 144.663L204.709 144.663zM151.843 178.663L204.709 178.663L204.709 144.663L151.843 144.663zM70.866 178.663L151.842 178.663L151.842 144.663L70.866 144.663zM380.173 217.063L555.307 217.063L555.307 193.063L380.173 193.063zM324.331 217.063L380.174 217.063L380.174 193.063L324.331 193.063zM258.567 217.063L324.331 217.063L324.331 193.063L258.567 193.063zM204.709 217.063L258.567 217.063L258.567 193.063L204.709 193.063zM151.843 217.063L204.709 217.063L204.709 193.063L151.843 193.063zM70.866 217.063L151.842 217.063L151.842 193.063L70.866 193.063zM380.173 275.063L555.307 275.063L555.307 251.063L380.173 251.063zM324.331 275.063L380.174 275.063L380.174 251.063L324.331 251.063zM258.567 275.063L324.331 275.063L324.331 251.063L258.567 251.063zM204.709 275.063L258.567 275.063L258.567 251.063L204.709 251.063zM151.843 275.063L204.709 275.063L204.709 251.063L151.843 251.063zM70.866 275.063L151.842 275.063L151.842 251.063L70.866 251.063zM380.173 333.063L555.307 333.063L555.307 299.063L380.173 299.063zM324.331 333.063L380.174 333.063L380.174 299.063L324.331 299.063zM258.567 333.063L324.331 333.063L324.331 299.063L258.567 299.063zM204.709 333.063L258.567 333.063L258.567 299.063L204.709 299.063zM151.843 333.063L204.709 333.063L204.709 299.063L151.843 299.063zM70.866 333.063L151.842 333.063L151.842 299.063L70.866 299.063zM380.173 391.063L555.307 391.063L555.307 367.063L380.173 367.063zM324.331 391.063L380.174 391.063L380.174 367.063L324.331 367.063zM258.567 391.063L324.331 391.063L324.331 367.063L258.567 367.063zM204.709 391.063L258.567 391.063L258.567 367.063L204.709 367.063zM151.843 391.063L204.709 391.063L204.709 367.063L151.843 367.063zM70.866 391.063L151.842 391.063L151.842 367.063L70.866 367.063zM380.173 419.863L555.307 419.863L555.307 405.463L380.173 405.463zM324.331 419.863L380.174 419.863L380.174 405.463L324.331 405.463zM258.567 419.863L324.331 419.863L324.331 405.463L258.567 405.463zM204.709 419.863L258.567 419.863L258.567 405.463L204.709 405.463zM151.843 419.863L204.709 419.863L204.709 405.463L151.843 405.463zM70.866 419.863L151.842 419.863L151.842 405.463L70.866 405.463zM380.173 448.663L555.307 448.663L555.307 434.263L380.173 434.263zM324.331 448.663L380.174 448.663L380.174 434.263L324.331 434.263zM258.567 448.663L324.331 448.663L324.331 434.263L258.567 434.263zM204.709 448.663L258.567 448.663L258.567 434.263L204.709 434.263zM151.843 448.663L204.709 448.663L204.709 434.263L151.843 434.263zM70.866 448.663L151.842 448.663L151.842 434.263L70.866 434.263zM380.173 487.063L555.307 487.063L555.307 463.063L380.173 463.063zM324.331 487.063L380.174 487.063L380.174 463.063L324.331 463.063zM258.567 487.063L324.331 487.063L324.331 463.063L258.567 463.063zM204.709 487.063L258.567 487.063L258.567 463.063L204.709 463.063zM151.843 487.063L204.709 487.063L204.709 463.063L151.843 463.063zM70.866 487.063L151.842 487.063L151.842 463.063L70.866 463.063zM380.173 525.463L555.307 525.463L555.307 501.463L380.173 501.463zM324.331 525.463L380.174 525.463L380.174 501.463L324.331 501.463zM258.567 525.463L324.331 525.463L324.331 501.463L258.567 501.463zM204.709 525.463L258.567 525.463L258.567 501.463L204.709 501.463zM151.843 525.463L204.709 525.463L204.709 501.463L151.843 501.463zM70.866 525.463L151.842 525.463L151.842 501.463L70.866 501.463zM380.173 563.863L555.307 563.863L555.307 539.863L380.173 539.863zM324.331 563.863L380.174 563.863L380.174 539.863L324.331 539.863zM258.567 563.863L324.331 563.863L324.331 539.863L258.567 539.863zM204.709 563.863L258.567 563.863L258.567 539.863L204.709 539.863zM151.843 563.863L204.709 563.863L204.709 539.863L151.843 539.863zM70.866 563.863L151.842 563.863L151.842 539.863L70.866 539.863zM380.173 612.263L555.307 612.263L555.307 578.263L380.173 578.263zM324.331 612.263L380.174 612.263L380.174 578.263L324.331 578.263zM258.567 612.263L324.331 612.263L324.331 578.263L258.567 578.263zM204.709 612.263L258.567 612.263L258.567 578.263L204.709 578.263zM151.843 612.263L204.709 612.263L204.709 578.263L151.843 578.263zM70.866 612.263L151.842 612.263L151.842 578.263L70.866 578.263zM380.173 650.857L555.307 650.857L555.307 626.857L380.173 626.857zM324.331 650.857L380.174 650.857L380.174 626.857L324.331 626.857zM258.567 650.857L324.331 650.857L324.331 626.857L258.567 626.857zM204.709 650.857L258.567 650.857L258.567 626.857L204.709 626.857zM151.843 650.857L204.709 650.857L204.709 626.857L151.843 626.857zM70.866 650.857L151.842 650.857L151.842 626.857L70.866 626.857z" stroke="none" fill="#ECEDEE" fill-rule="nonzero" /><path id="34" transform="matrix(1 0 0 -1 0 792)" d="M70.8661 674.8567L151.8421 674.8567" stroke="#000000" stroke-width="1" fill="none" /><path id="35" transform="matrix(1 0 0 -1 0 792)" d="M151.8425 674.8567L204.7085 674.8567" stroke="#000000" stroke-width="1" fill="none" /><path id="36" transform="matrix(1 0 0 -1 0 792)" d="M204.7086 674.8567L258.5666 674.8567" stroke="#000000" stroke-width="1" fill="none" /><path id="37" transform="matrix(1 0 0 -1 0 792)" d="M258.5669 674.8567L324.3309 674.8567" stroke="#000000" stroke-width="1" fill="none" /><path id="38" transform="matrix(1 0 0 -1 0 792)" d="M324.3307 674.8567L380.1737 674.8567" stroke="#000000" stroke-width="1" fill="none" /><path id="39" transform="matrix(1 0 0 -1 0 792)" d="M380.1732 674.8567L555.3072 674.8567" stroke="#000000" stroke-width="1" fill="none" /><g clip-path="url(#2)"><path id="2140" transform="matrix(1 0 0 -1 0 792)" d="M555.6614 32.702L555.6614 -12.691" stroke="#000000" stroke-width="0.75" stroke-linecap="round" stroke-dasharray="0.75,1.464" fill="none" /><path id="2141" transform="matrix(1 0 0 -1 0 792)" d="M555.6614 -13.7986L555.6614 -13.7986M555.6614 34.9164L555.6614 34.9164" stroke="#000000" stroke-width="0.75" stroke-linecap="round" fill="none" /></g></g></g></svg>