<svg xmlns="http://www.w3.org/2000/svg" xmlns:xlink="http://www.w3.org/1999/xlink" id="body_122" preserveAspectRatio="xMinYMin meet" viewBox="0 0 816 1056"><defs><clipPath id="1"><path id="" clip-rule="evenodd" transform="matrix(1 0 0 1 0 0)" d="M0 792L0 0L0 0L612 0L612 0L612 792L612 792L0 792z" /></clipPath><clipPath id="2"><path id="" clip-rule="evenodd" transform="matrix(1 0 0 1 0 0)" d="M0 0L612 0L612 0L612 792L612 792L0 792z" /></clipPath></defs><g transform="matrix(1.333333 0 0 1.333333 0 0)"><g clip-path="url(#1)"><path id="1" transform="matrix(1 0 0 -1 0 792)" d="M60.9449 727.1418L60.9449 735.3068" stroke="#000000" stroke-width="8" fill="none" /><path id="2" transform="matrix(1 0 0 -1 0 792)" d="M60.9449 632.8032L60.9449 640.9682" stroke="#000000" stroke-width="8" fill="none" /><path id="431" transform="matrix(1 0 0 -1 0 792)" d="M309.1653 727.1418L309.1653 735.3068" stroke="#000000" stroke-width="8" fill="none" /><path id="432" transform="matrix(1 0 0 -1 0 792)" d="M309.1653 648.4725L309.1653 656.6375" stroke="#000000" stroke-width="8" fill="none" /><path id="433" transform="matrix(1 0 0 -1 0 792)" d="M309.1653 566.9686L309.1653 575.1336" stroke="#000000" stroke-width="8" fill="none" /><path id="1231" transform="matrix(1 0 0 -1 0 792)" d="M56.693 431.604L541.134 431.604L541.134 448.647L56.693 448.647z" stroke="none" fill="#000000" fill-rule="nonzero" /><path id="1244" transform="matrix(1 0 0 -1 0 792)" d="M60.9449 410.2835L60.9449 418.4485" stroke="#000000" stroke-width="8" fill="none" /><path id="1245" transform="matrix(1 0 0 -1 0 792)" d="M60.9449 315.9449L60.9449 324.1099" stroke="#000000" stroke-width="8" fill="none" /><path id="1246" transform="matrix(1 0 0 -1 0 792)" d="M60.9449 244.441L60.9449 252.606" stroke="#000000" stroke-width="8" fill="none" /><path id="1247" transform="matrix(1 0 0 -1 0 792)" d="M60.9449 192.9371L60.9449 201.1021" stroke="#000000" stroke-width="8" fill="none" /><path id="1965" transform="matrix(1 0 0 -1 0 792)" d="M309.1653 410.2835L309.1653 418.4485" stroke="#000000" stroke-width="8" fill="none" /><path id="1966" transform="matrix(1 0 0 -1 0 792)" d="M309.1653 253.441L309.1653 261.606" stroke="#000000" stroke-width="8" fill="none" /><path id="1967" transform="matrix(1 0 0 -1 0 792)" d="M309.1653 191.9371L309.1653 200.1021" stroke="#000000" stroke-width="8" fill="none" /><g clip-path="url(#2)"><path id="2699" transform="matrix(1 0 0 -1 0 792)" d="M56.9448 32.702L56.9448 -12.691" stroke="#000000" stroke-width="0.75" stroke-linecap="round" stroke-dasharray="0.75,1.464" fill="none" /><path id="2700" transform="matrix(1 0 0 -1 0 792)" d="M56.9448 -13.7986L56.9448 -13.7986M56.9448 34.9164L56.9448 34.9164" stroke="#000000" stroke-width="0.75" stroke-linecap="round" fill="none" /></g></g></g></svg>