<svg xmlns="http://www.w3.org/2000/svg" xmlns:xlink="http://www.w3.org/1999/xlink" id="body_55" preserveAspectRatio="xMinYMin meet" viewBox="0 0 816 1056"><defs><clipPath id="1"><path id="" clip-rule="evenodd" transform="matrix(1 0 0 1 0 0)" d="M0 792L0 0L0 0L612 0L612 0L612 792L612 792L0 792z" /></clipPath><clipPath id="2"><path id="" clip-rule="evenodd" transform="matrix(1 0 0 1 0 0)" d="M0 0L612 0L612 0L612 792L612 792L0 792z" /></clipPath></defs><g transform="matrix(1.333333 0 0 1.333333 0 0)"><g clip-path="url(#1)"><path id="452" transform="matrix(1 0 0 -1 0 792)" d="M323.3386 645.7593L323.3386 653.9243" stroke="#BBBDC0" stroke-width="8" fill="none" /><path id="928" transform="matrix(1 0 0 -1 0 792)" d="M300.189 435.064L555.307 435.064L555.307 420.664L300.189 420.664zM255.118 435.064L300.189 435.064L300.189 420.664L255.118 420.664zM182.079 435.064L255.118 435.064L255.118 420.664L182.079 420.664zM70.866 435.064L182.079 435.064L182.079 420.664L70.866 420.664zM300.189 463.864L555.307 463.864L555.307 449.464L300.189 449.464zM255.118 463.864L300.189 463.864L300.189 449.464L255.118 449.464zM182.079 463.864L255.118 463.864L255.118 449.464L182.079 449.464zM70.866 463.864L182.079 463.864L182.079 449.464L70.866 449.464z" stroke="none" fill="#E6E7E8" fill-rule="nonzero" /><path id="929" transform="matrix(1 0 0 -1 0 792)" d="M70.8661 478.2643L182.0791 478.2643" stroke="#000000" stroke-width="1" fill="none" /><path id="930" transform="matrix(1 0 0 -1 0 792)" d="M182.0787 478.2643L255.1177 478.2643" stroke="#000000" stroke-width="1" fill="none" /><path id="931" transform="matrix(1 0 0 -1 0 792)" d="M255.1181 478.2643L300.1891 478.2643" stroke="#000000" stroke-width="1" fill="none" /><path id="932" transform="matrix(1 0 0 -1 0 792)" d="M300.189 478.2643L555.307 478.2643" stroke="#000000" stroke-width="1" fill="none" /><path id="1127" transform="matrix(1 0 0 -1 0 792)" d="M300.189 189.61L555.307 189.61L555.307 165.61L300.189 165.61zM255.118 189.61L300.189 189.61L300.189 165.61L255.118 165.61zM181.417 189.61L255.118 189.61L255.118 165.61L181.417 165.61zM70.866 189.61L181.417 189.61L181.417 165.61L70.866 165.61zM300.189 228.01L555.307 228.01L555.307 204.01L300.189 204.01zM255.118 228.01L300.189 228.01L300.189 204.01L255.118 204.01zM181.417 228.01L255.118 228.01L255.118 204.01L181.417 204.01zM70.866 228.01L181.417 228.01L181.417 204.01L70.866 204.01zM300.189 276.01L555.307 276.01L555.307 252.01L300.189 252.01zM255.118 276.01L300.189 276.01L300.189 252.01L255.118 252.01zM181.417 276.01L255.118 276.01L255.118 252.01L181.417 252.01zM70.866 276.01L181.417 276.01L181.417 252.01L70.866 252.01zM300.189 314.41L555.307 314.41L555.307 300.01L300.189 300.01zM255.118 314.41L300.189 314.41L300.189 300.01L255.118 300.01zM181.417 314.41L255.118 314.41L255.118 300.01L181.417 300.01zM70.866 314.41L181.417 314.41L181.417 300.01L70.866 300.01zM300.189 343.21L555.307 343.21L555.307 328.81L300.189 328.81zM255.118 343.21L300.189 343.21L300.189 328.81L255.118 328.81zM181.417 343.21L255.118 343.21L255.118 328.81L181.417 328.81zM70.866 343.21L181.417 343.21L181.417 328.81L70.866 328.81z" stroke="none" fill="#E6E7E8" fill-rule="nonzero" /><path id="1128" transform="matrix(1 0 0 -1 0 792)" d="M70.8661 357.6099L181.4171 357.6099" stroke="#000000" stroke-width="1" fill="none" /><path id="1129" transform="matrix(1 0 0 -1 0 792)" d="M181.4173 357.6099L255.1183 357.6099" stroke="#000000" stroke-width="1" fill="none" /><path id="1130" transform="matrix(1 0 0 -1 0 792)" d="M255.1181 357.6099L300.1891 357.6099" stroke="#000000" stroke-width="1" fill="none" /><path id="1131" transform="matrix(1 0 0 -1 0 792)" d="M300.189 357.6099L555.307 357.6099" stroke="#000000" stroke-width="1" fill="none" /><g clip-path="url(#2)"><path id="2020" transform="matrix(1 0 0 -1 0 792)" d="M555.6614 32.702L555.6614 -12.691" stroke="#000000" stroke-width="0.75" stroke-linecap="round" stroke-dasharray="0.75,1.464" fill="none" /><path id="2021" transform="matrix(1 0 0 -1 0 792)" d="M555.6614 -13.7986L555.6614 -13.7986M555.6614 34.9164L555.6614 34.9164" stroke="#000000" stroke-width="0.75" stroke-linecap="round" fill="none" /></g></g></g></svg>