<svg xmlns="http://www.w3.org/2000/svg" xmlns:xlink="http://www.w3.org/1999/xlink" id="body_63" preserveAspectRatio="xMinYMin meet" viewBox="0 0 816 1056"><defs><clipPath id="1"><path id="" clip-rule="evenodd" transform="matrix(1 0 0 1 0 0)" d="M0 792L0 0L0 0L612 0L612 0L612 792L612 792L0 792z" /></clipPath><clipPath id="2"><path id="" clip-rule="evenodd" transform="matrix(1 0 0 1 0 0)" d="M0 0L612 0L612 0L612 792L612 792L0 792z" /></clipPath></defs><g transform="matrix(1.333333 0 0 1.333333 0 0)"><g clip-path="url(#1)"><path id="19" transform="matrix(1 0 0 -1 0 792)" d="M75.1181 484.5831L75.1181 492.7481" stroke="#BBBDC0" stroke-width="8" fill="none" /><path id="20" transform="matrix(1 0 0 -1 0 792)" d="M75.1181 434.2051L75.1181 442.7401" stroke="#BBBDC0" stroke-width="8" fill="none" /><path id="21" transform="matrix(1 0 0 -1 0 792)" d="M75.1181 373.1973L75.1181 381.7323" stroke="#BBBDC0" stroke-width="8" fill="none" /><path id="22" transform="matrix(1 0 0 -1 0 792)" d="M75.1181 312.1894L75.1181 320.7244" stroke="#BBBDC0" stroke-width="8" fill="none" /><path id="23" transform="matrix(1 0 0 -1 0 792)" d="M75.1181 251.5516L75.1181 259.7166" stroke="#BBBDC0" stroke-width="8" fill="none" /><path id="24" transform="matrix(1 0 0 -1 0 792)" d="M75.1181 212.5437L75.1181 220.7087" stroke="#BBBDC0" stroke-width="8" fill="none" /><path id="25" transform="matrix(1 0 0 -1 0 792)" d="M75.1181 162.5359L75.1181 170.7009" stroke="#BBBDC0" stroke-width="8" fill="none" /><path id="1212" transform="matrix(1 0 0 -1 0 792)" d="M323.3386 651.5989L323.3386 659.7639" stroke="#BBBDC0" stroke-width="8" fill="none" /><path id="1213" transform="matrix(1 0 0 -1 0 792)" d="M323.3386 601.591L323.3386 609.756" stroke="#BBBDC0" stroke-width="8" fill="none" /><path id="1214" transform="matrix(1 0 0 -1 0 792)" d="M323.3386 551.5831L323.3386 559.7481" stroke="#BBBDC0" stroke-width="8" fill="none" /><path id="1215" transform="matrix(1 0 0 -1 0 792)" d="M323.3386 490.5752L323.3386 498.7402" stroke="#BBBDC0" stroke-width="8" fill="none" /><path id="1216" transform="matrix(1 0 0 -1 0 792)" d="M323.3386 451.5674L323.3386 459.7324" stroke="#BBBDC0" stroke-width="8" fill="none" /><path id="1217" transform="matrix(1 0 0 -1 0 792)" d="M323.3386 401.5595L323.3386 409.7245" stroke="#BBBDC0" stroke-width="8" fill="none" /><path id="1218" transform="matrix(1 0 0 -1 0 792)" d="M323.3386 351.5516L323.3386 359.7166" stroke="#BBBDC0" stroke-width="8" fill="none" /><path id="1219" transform="matrix(1 0 0 -1 0 792)" d="M323.3386 301.5437L323.3386 309.7087" stroke="#BBBDC0" stroke-width="8" fill="none" /><path id="1220" transform="matrix(1 0 0 -1 0 792)" d="M323.3386 262.5359L323.3386 270.7009" stroke="#BBBDC0" stroke-width="8" fill="none" /><path id="1221" transform="matrix(1 0 0 -1 0 792)" d="M323.3386 212.5279L323.3386 220.6929" stroke="#BBBDC0" stroke-width="8" fill="none" /><path id="1222" transform="matrix(1 0 0 -1 0 792)" d="M323.3386 162.5201L323.3386 170.6851" stroke="#BBBDC0" stroke-width="8" fill="none" /><g clip-path="url(#2)"><path id="2254" transform="matrix(1 0 0 -1 0 792)" d="M555.6614 32.702L555.6614 -12.691" stroke="#000000" stroke-width="0.75" stroke-linecap="round" stroke-dasharray="0.75,1.464" fill="none" /><path id="2255" transform="matrix(1 0 0 -1 0 792)" d="M555.6614 -13.7986L555.6614 -13.7986M555.6614 34.9164L555.6614 34.9164" stroke="#000000" stroke-width="0.75" stroke-linecap="round" fill="none" /></g></g></g></svg>