<svg xmlns="http://www.w3.org/2000/svg" xmlns:xlink="http://www.w3.org/1999/xlink" id="body_92" preserveAspectRatio="xMinYMin meet" viewBox="0 0 816 1056"><defs><clipPath id="1"><path id="" clip-rule="evenodd" transform="matrix(1 0 0 1 0 0)" d="M0 792L0 0L0 0L612 0L612 0L612 792L612 792L0 792z" /></clipPath><clipPath id="2"><path id="" clip-rule="evenodd" transform="matrix(1 0 0 1 0 0)" d="M56.693 264.092L293.244 264.092L293.244 264.092L293.244 56.69202L293.244 56.69202L56.693 56.69202z" /></clipPath><clipPath id="3"><path id="" clip-rule="evenodd" transform="matrix(1 0 0 1 0 0)" d="M47.693 48.69299L302.244 48.69299L302.244 48.69299L302.244 266.802L302.244 266.802L47.693 266.802z" /></clipPath><clipPath id="4"><path id="" clip-rule="evenodd" transform="matrix(1 0 0 1 0 0)" d="M56.693 519.817L293.244 519.817L293.244 519.817L293.244 274.916L293.244 274.916L56.693 274.916z" /></clipPath><clipPath id="5"><path id="" clip-rule="evenodd" transform="matrix(1 0 0 1 0 0)" d="M47.693 266.916L302.244 266.916L302.244 266.916L302.244 522.525L302.244 522.525L47.693 522.525z" /></clipPath><clipPath id="6"><path id="" clip-rule="evenodd" transform="matrix(1 0 0 1 0 0)" d="M56.693 722.746L293.244 722.746L293.244 722.746L293.244 531.433L293.244 531.433L56.693 531.433z" /></clipPath><clipPath id="7"><path id="" clip-rule="evenodd" transform="matrix(1 0 0 1 0 0)" d="M47.693 523.433L302.244 523.433L302.244 523.433L302.244 725.4555L302.244 725.4555L47.693 725.4555z" /></clipPath><clipPath id="8"><path id="" clip-rule="evenodd" transform="matrix(1 0 0 1 0 0)" d="M304.914 366.259L541.465 366.259L541.465 366.259L541.465 56.69299L541.465 56.69299L304.914 56.69299z" /></clipPath><clipPath id="9"><path id="" clip-rule="evenodd" transform="matrix(1 0 0 1 0 0)" d="M295.913 48.69299L550.465 48.69299L550.465 48.69299L550.465 368.967L550.465 368.967L295.913 368.967z" /></clipPath><clipPath id="10"><path id="" clip-rule="evenodd" transform="matrix(1 0 0 1 0 0)" d="M304.914 601.23L541.465 601.23L541.465 601.23L541.465 379.499L541.465 379.499L304.914 379.499z" /></clipPath><clipPath id="11"><path id="" clip-rule="evenodd" transform="matrix(1 0 0 1 0 0)" d="M295.913 371.498L550.465 371.498L550.465 371.498L550.465 603.938L550.465 603.938L295.913 603.938z" /></clipPath><clipPath id="12"><path id="" clip-rule="evenodd" transform="matrix(1 0 0 1 0 0)" d="M0 0L612 0L612 0L612 792L612 792L0 792z" /></clipPath></defs><g transform="matrix(1.333333 0 0 1.333333 0 0)"><g clip-path="url(#1)"><path id="1" transform="matrix(1 0 0 -1 0 792)" d="M59.5278 735.3072L56.6928 732.4722L56.6928 530.7412L59.5258 527.9072L290.4108 527.9072L293.2438 530.7412L293.2438 732.4722L290.4098 735.3072z" stroke="none" fill="#EAEBEC" fill-rule="nonzero" /><path id="2" transform="matrix(1 0 0 -1 0 792)" d="M62.862 656.414L287.075 656.414L287.075 681.918L62.862 681.918z" stroke="none" fill="#FFFEFE" fill-rule="nonzero" /><path id="3" transform="matrix(1 0 0 -1 0 792)" d="M62.8623 681.9178L287.0753 681.9178" stroke="#939597" stroke-width="0.5" fill="none" /><path id="4" transform="matrix(1 0 0 -1 0 792)" d="M62.862 641.745L287.075 641.745L287.075 661.084L62.862 661.084z" stroke="none" fill="#FFFEFE" fill-rule="nonzero" /><path id="5" transform="matrix(1 0 0 -1 0 792)" d="M63.8814 656.8312L286.5654 656.8312" stroke="#BBBDC0" stroke-width="0.51" stroke-linecap="round" stroke-dasharray="0.51,0.51" fill="none" /><path id="6" transform="matrix(1 0 0 -1 0 792)" d="M287.0753 656.8312L287.0753 656.8312M62.8623 656.8312L62.8623 656.8312" stroke="#BBBDC0" stroke-width="0.51" stroke-linecap="round" fill="none" /><path id="7" transform="matrix(1 0 0 -1 0 792)" d="M62.8623 641.5143L286.5233 641.5143" stroke="#939597" stroke-width="0.5" fill="none" /><g clip-path="url(#2)"><g><g clip-path="url(#3)"><path id="587" transform="matrix(1 0 0 -1 0 792)" d="M59.6311 735.0571C 58.7351 734.1611 57.8391 733.2651 56.9431 732.3691L56.9431 732.3691L56.9431 530.8441C 57.8391 529.9481 58.7351 529.0521 59.6311 528.1561L59.6311 528.1561L290.3061 528.1561C 291.2021 529.0521 292.0981 529.9481 292.9941 530.8441L292.9941 530.8441L292.9941 732.3691C 292.0981 733.2651 291.2021 734.1611 290.3061 735.0571L290.3061 735.0571L59.6311 735.0571z" stroke="#000000" stroke-width="0.5" fill="none" stroke-opacity="0.4980392" /></g></g></g><path id="588" transform="matrix(1 0 0 -1 0 792)" d="M59.5278 517.0842L56.6928 514.2492L56.6928 275.0172L59.5278 272.1832L290.4098 272.1832L293.2438 275.0172L293.2438 514.2492L290.4098 517.0842z" stroke="none" fill="#EAEBEC" fill-rule="nonzero" /><path id="589" transform="matrix(1 0 0 -1 0 792)" d="M62.862 429.191L287.075 429.191L287.075 454.695L62.862 454.695z" stroke="none" fill="#FFFEFE" fill-rule="nonzero" /><path id="590" transform="matrix(1 0 0 -1 0 792)" d="M62.8623 454.6949L287.0753 454.6949" stroke="#939597" stroke-width="0.5" fill="none" /><path id="591" transform="matrix(1 0 0 -1 0 792)" d="M62.862 414.522L287.075 414.522L287.075 433.861L62.862 433.861z" stroke="none" fill="#FFFEFE" fill-rule="nonzero" /><path id="592" transform="matrix(1 0 0 -1 0 792)" d="M63.8814 429.6083L286.5654 429.6083" stroke="#BBBDC0" stroke-width="0.51" stroke-linecap="round" stroke-dasharray="0.51,0.51" fill="none" /><path id="593" transform="matrix(1 0 0 -1 0 792)" d="M287.0753 429.6083L287.0753 429.6083M62.8623 429.6083L62.8623 429.6083" stroke="#BBBDC0" stroke-width="0.51" stroke-linecap="round" fill="none" /><path id="594" transform="matrix(1 0 0 -1 0 792)" d="M62.8623 414.2914L286.5233 414.2914" stroke="#939597" stroke-width="0.5" fill="none" /><g clip-path="url(#4)"><g><g clip-path="url(#5)"><path id="1348" transform="matrix(1 0 0 -1 0 792)" d="M59.6312 516.8342C 58.7352 515.9382 57.8392 515.0422 56.9432 514.1462L56.9432 514.1462L56.9432 275.1212L56.9432 275.1212L59.6312 272.4332L59.6312 272.4332L290.3062 272.4332C 291.2022 273.3292 292.0982 274.2252 292.9942 275.1212L292.9942 275.1212L292.9942 514.1462C 292.0982 515.0422 291.2022 515.9382 290.3062 516.8342L290.3062 516.8342L59.6312 516.8342z" stroke="#000000" stroke-width="0.5" fill="none" stroke-opacity="0.4980392" /></g></g></g><path id="1349" transform="matrix(1 0 0 -1 0 792)" d="M59.5278 260.5671L56.6928 257.7321L56.6928 72.08711L59.5258 69.2541L290.4108 69.2541L293.2438 72.08711L293.2438 257.7321L290.4098 260.5671z" stroke="none" fill="#EAEBEC" fill-rule="nonzero" /><path id="1350" transform="matrix(1 0 0 -1 0 792)" d="M62.862 181.674L287.075 181.674L287.075 207.178L62.862 207.178z" stroke="none" fill="#FFFEFE" fill-rule="nonzero" /><path id="1351" transform="matrix(1 0 0 -1 0 792)" d="M62.8623 207.1777L287.0753 207.1777" stroke="#939597" stroke-width="0.5" fill="none" /><path id="1352" transform="matrix(1 0 0 -1 0 792)" d="M62.8623 181.4435L286.5233 181.4435" stroke="#939597" stroke-width="0.5" fill="none" /><g clip-path="url(#6)"><g><g clip-path="url(#7)"><path id="1909" transform="matrix(1 0 0 -1 0 792)" d="M59.6311 260.317C 58.7351 259.421 57.8391 258.525 56.9431 257.629L56.9431 257.629L56.9431 72.19098L56.9431 72.19098L59.6311 69.50299L59.6311 69.50299L290.3061 69.50299C 291.2021 70.39899 292.0981 71.29498 292.9941 72.19098L292.9941 72.19098L292.9941 257.629L292.9941 257.629L290.3061 260.317L290.3061 260.317L59.6311 260.317z" stroke="#000000" stroke-width="0.5" fill="none" stroke-opacity="0.4980392" /></g></g></g><path id="1910" transform="matrix(1 0 0 -1 0 792)" d="M307.7478 735.3072L304.9138 732.4722L304.9138 428.5752L307.7468 425.7412L538.6308 425.7412L541.4638 428.5752L541.4638 732.4722L538.6298 735.3072z" stroke="none" fill="#EAEBEC" fill-rule="nonzero" /><path id="1911" transform="matrix(1 0 0 -1 0 792)" d="M311.083 656.414L535.296 656.414L535.296 681.918L311.083 681.918z" stroke="none" fill="#FFFEFE" fill-rule="nonzero" /><path id="1912" transform="matrix(1 0 0 -1 0 792)" d="M311.0827 681.9178L535.2957 681.9178" stroke="#939597" stroke-width="0.5" fill="none" /><path id="1913" transform="matrix(1 0 0 -1 0 792)" d="M311.0827 656.1836L534.7437 656.1836" stroke="#939597" stroke-width="0.5" fill="none" /><g clip-path="url(#8)"><g><g clip-path="url(#9)"><path id="3108" transform="matrix(1 0 0 -1 0 792)" d="M307.8517 735.0571C 306.9557 734.1611 306.0597 733.2651 305.1637 732.3691L305.1637 732.3691L305.1637 428.6791L305.1637 428.6791L307.8517 425.9911L307.8517 425.9911L538.5267 425.9911C 539.4227 426.8871 540.3187 427.7821 541.2147 428.6791L541.2147 428.6791L541.2147 732.3691C 540.3187 733.2651 539.4227 734.1611 538.5267 735.0571L538.5267 735.0571L307.8517 735.0571z" stroke="#000000" stroke-width="0.5" fill="none" stroke-opacity="0.4980392" /></g></g></g><path id="3109" transform="matrix(1 0 0 -1 0 792)" d="M307.7478 412.5015L304.9138 409.6675L304.9138 193.6045L307.7478 190.7705L538.6298 190.7705L541.4638 193.6045L541.4638 409.6675L538.6298 412.5015z" stroke="none" fill="#EAEBEC" fill-rule="nonzero" /><path id="3110" transform="matrix(1 0 0 -1 0 792)" d="M311.083 333.609L535.296 333.609L535.296 359.113L311.083 359.113z" stroke="none" fill="#FFFEFE" fill-rule="nonzero" /><path id="3111" transform="matrix(1 0 0 -1 0 792)" d="M311.0827 359.1125L535.2957 359.1125" stroke="#939597" stroke-width="0.5" fill="none" /><path id="3112" transform="matrix(1 0 0 -1 0 792)" d="M311.0827 332.8782L534.7437 332.8782" stroke="#939597" stroke-width="0.5" fill="none" /><g clip-path="url(#10)"><g><g clip-path="url(#11)"><path id="3850" transform="matrix(1 0 0 -1 0 792)" d="M307.8517 412.2517C 306.9557 411.3557 306.0597 410.4597 305.1637 409.5637L305.1637 409.5637L305.1637 193.7077C 306.0597 192.8117 306.9557 191.9157 307.8517 191.0197L307.8517 191.0197L538.5267 191.0197C 539.4227 191.9157 540.3187 192.8117 541.2147 193.7077L541.2147 193.7077L541.2147 409.5637C 540.3187 410.4597 539.4227 411.3557 538.5267 412.2517L538.5267 412.2517L307.8517 412.2517z" stroke="#000000" stroke-width="0.5" fill="none" stroke-opacity="0.4980392" /></g></g></g><g clip-path="url(#12)"><path id="3867" transform="matrix(1 0 0 -1 0 792)" d="M56.9448 32.702L56.9448 -12.691" stroke="#000000" stroke-width="0.75" stroke-linecap="round" stroke-dasharray="0.75,1.464" fill="none" /><path id="3868" transform="matrix(1 0 0 -1 0 792)" d="M56.9448 -13.7986L56.9448 -13.7986M56.9448 34.9164L56.9448 34.9164" stroke="#000000" stroke-width="0.75" stroke-linecap="round" fill="none" /></g></g></g></svg>