<svg xmlns="http://www.w3.org/2000/svg" xmlns:xlink="http://www.w3.org/1999/xlink" id="body_132" preserveAspectRatio="xMinYMin meet" viewBox="0 0 816 1056"><defs><clipPath id="1"><path id="" clip-rule="evenodd" transform="matrix(1 0 0 1 0 0)" d="M0 792L0 0L0 0L612 0L612 0L612 792L612 792L0 792z" /></clipPath><clipPath id="2"><path id="" clip-rule="evenodd" transform="matrix(1 0 0 1 0 0)" d="M0 0L612 0L612 0L612 792L612 792L0 792z" /></clipPath></defs><g transform="matrix(1.333333 0 0 1.333333 0 0)"><g clip-path="url(#1)"><path id="1" transform="matrix(1 0 0 -1 0 792)" d="M60.9449 727.1418L60.9449 735.3068" stroke="#000000" stroke-width="8" fill="none" /><path id="459" transform="matrix(1 0 0 -1 0 792)" d="M56.693 543.108L541.134 543.108L541.134 560.151L56.693 560.151z" stroke="none" fill="#000000" fill-rule="nonzero" /><path id="476" transform="matrix(1 0 0 -1 0 792)" d="M60.9449 521.7875L60.9449 529.9525" stroke="#000000" stroke-width="8" fill="none" /><path id="477" transform="matrix(1 0 0 -1 0 792)" d="M60.9449 430.2835L60.9449 438.4485" stroke="#000000" stroke-width="8" fill="none" /><path id="478" transform="matrix(1 0 0 -1 0 792)" d="M60.9449 305.9449L60.9449 314.1099" stroke="#000000" stroke-width="8" fill="none" /><path id="479" transform="matrix(1 0 0 -1 0 792)" d="M60.9449 234.441L60.9449 242.606" stroke="#000000" stroke-width="8" fill="none" /><path id="1679" transform="matrix(1 0 0 -1 0 792)" d="M309.1653 521.7875L309.1653 529.9525" stroke="#000000" stroke-width="8" fill="none" /><path id="1680" transform="matrix(1 0 0 -1 0 792)" d="M309.1653 430.2835L309.1653 438.4485" stroke="#000000" stroke-width="8" fill="none" /><path id="1681" transform="matrix(1 0 0 -1 0 792)" d="M309.1653 348.7796L309.1653 356.9446" stroke="#000000" stroke-width="8" fill="none" /><path id="1682" transform="matrix(1 0 0 -1 0 792)" d="M309.1653 244.441L309.1653 252.606" stroke="#000000" stroke-width="8" fill="none" /><path id="1683" transform="matrix(1 0 0 -1 0 792)" d="M309.1653 162.9371L309.1653 171.1021" stroke="#000000" stroke-width="8" fill="none" /><g clip-path="url(#2)"><path id="3015" transform="matrix(1 0 0 -1 0 792)" d="M56.9448 32.702L56.9448 -12.691" stroke="#000000" stroke-width="0.75" stroke-linecap="round" stroke-dasharray="0.75,1.464" fill="none" /><path id="3016" transform="matrix(1 0 0 -1 0 792)" d="M56.9448 -13.7986L56.9448 -13.7986M56.9448 34.9164L56.9448 34.9164" stroke="#000000" stroke-width="0.75" stroke-linecap="round" fill="none" /></g></g></g></svg>