<svg xmlns="http://www.w3.org/2000/svg" xmlns:xlink="http://www.w3.org/1999/xlink" id="body_124" preserveAspectRatio="xMinYMin meet" viewBox="0 0 816 1056"><defs><clipPath id="1"><path id="" clip-rule="evenodd" transform="matrix(1 0 0 1 0 0)" d="M0 792L0 0L0 0L612 0L612 0L612 792L612 792L0 792z" /></clipPath><clipPath id="2"><path id="" clip-rule="evenodd" transform="matrix(1 0 0 1 0 0)" d="M0 0L612 0L612 0L612 792L612 792L0 792z" /></clipPath></defs><g transform="matrix(1.333333 0 0 1.333333 0 0)"><g clip-path="url(#1)"><path id="1" transform="matrix(1 0 0 -1 0 792)" d="M56.693 721.099L541.134 721.099L541.134 738.142L56.693 738.142z" stroke="none" fill="#000000" fill-rule="nonzero" /><path id="15" transform="matrix(1 0 0 -1 0 792)" d="M60.9449 699.7786L60.9449 707.9436" stroke="#000000" stroke-width="8" fill="none" /><path id="16" transform="matrix(1 0 0 -1 0 792)" d="M60.9449 542.6054L60.9449 550.7704" stroke="#000000" stroke-width="8" fill="none" /><path id="17" transform="matrix(1 0 0 -1 0 792)" d="M60.9449 385.4322L60.9449 393.5972" stroke="#000000" stroke-width="8" fill="none" /><path id="18" transform="matrix(1 0 0 -1 0 792)" d="M60.9449 238.2589L60.9449 246.4239" stroke="#000000" stroke-width="8" fill="none" /><path id="2015" transform="matrix(1 0 0 -1 0 792)" d="M309.1653 699.7786L309.1653 707.9436" stroke="#000000" stroke-width="8" fill="none" /><path id="2016" transform="matrix(1 0 0 -1 0 792)" d="M309.1653 532.6054L309.1653 540.7704" stroke="#000000" stroke-width="8" fill="none" /><path id="2017" transform="matrix(1 0 0 -1 0 792)" d="M309.1653 385.4322L309.1653 393.5972" stroke="#000000" stroke-width="8" fill="none" /><path id="2018" transform="matrix(1 0 0 -1 0 792)" d="M309.1653 241.0936L309.1653 249.2586" stroke="#000000" stroke-width="8" fill="none" /><g clip-path="url(#2)"><path id="4127" transform="matrix(1 0 0 -1 0 792)" d="M56.9448 32.702L56.9448 -12.691" stroke="#000000" stroke-width="0.75" stroke-linecap="round" stroke-dasharray="0.75,1.464" fill="none" /><path id="4128" transform="matrix(1 0 0 -1 0 792)" d="M56.9448 -13.7986L56.9448 -13.7986M56.9448 34.9164L56.9448 34.9164" stroke="#000000" stroke-width="0.75" stroke-linecap="round" fill="none" /></g></g></g></svg>