<svg xmlns="http://www.w3.org/2000/svg" xmlns:xlink="http://www.w3.org/1999/xlink" id="body_60" preserveAspectRatio="xMinYMin meet" viewBox="0 0 816 1056"><defs><clipPath id="1"><path id="" clip-rule="evenodd" transform="matrix(1 0 0 1 0 0)" d="M0 792L0 0L0 0L612 0L612 0L612 792L612 792L0 792z" /></clipPath><clipPath id="2"><path id="" clip-rule="evenodd" transform="matrix(1 0 0 1 0 0)" d="M0 0L612 0L612 0L612 792L612 792L0 792z" /></clipPath></defs><g transform="matrix(1.333333 0 0 1.333333 0 0)"><g clip-path="url(#1)"><path id="1" transform="matrix(1 0 0 -1 0 792)" d="M159.685 464.791L541.134 464.791L541.134 447.783L159.685 447.783zM91.843 464.791L159.686 464.791L159.686 447.783L91.843 447.783zM56.693 464.791L91.843 464.791L91.843 447.783L56.693 447.783zM159.685 522.791L541.134 522.791L541.134 498.791L159.685 498.791zM91.843 522.791L159.686 522.791L159.686 498.791L91.843 498.791zM56.693 522.791L91.843 522.791L91.843 498.791L56.693 498.791zM159.685 570.791L541.134 570.791L541.134 546.791L159.685 546.791zM91.843 570.791L159.686 570.791L159.686 546.791L91.843 546.791zM56.693 570.791L91.843 570.791L91.843 546.791L56.693 546.791zM159.685 618.791L541.134 618.791L541.134 594.791L159.685 594.791zM91.843 618.791L159.686 618.791L159.686 594.791L91.843 594.791zM56.693 618.791L91.843 618.791L91.843 594.791L56.693 594.791zM159.685 659.799L541.134 659.799L541.134 635.799L159.685 635.799zM91.843 659.799L159.686 659.799L159.686 635.799L91.843 635.799zM56.693 659.799L91.843 659.799L91.843 635.799L56.693 635.799zM159.685 718.299L541.134 718.299L541.134 683.799L159.685 683.799zM91.843 718.299L159.686 718.299L159.686 683.799L91.843 683.799zM56.693 718.299L91.843 718.299L91.843 683.799L56.693 683.799z" stroke="none" fill="#E6E7E8" fill-rule="nonzero" /><path id="2" transform="matrix(1 0 0 -1 0 792)" d="M56.6929 718.2993L91.8429 718.2993" stroke="#000000" stroke-width="1" fill="none" /><path id="3" transform="matrix(1 0 0 -1 0 792)" d="M159.685 718.2993L541.134 718.2993" stroke="#000000" stroke-width="1" fill="none" /><path id="4" transform="matrix(1 0 0 -1 0 792)" d="M91.8425 718.2993L159.6855 718.2993" stroke="#000000" stroke-width="1" fill="none" /><path id="1634" transform="matrix(1 0 0 -1 0 792)" d="M157.039 122.42L293.102 122.42L293.102 98.42L157.039 98.42zM91.843 122.42L157.04 122.42L157.04 98.42L91.843 98.42zM56.693 122.42L91.843 122.42L91.843 98.42L56.693 98.42zM157.039 170.42L293.102 170.42L293.102 146.42L157.039 146.42zM91.843 170.42L157.04 170.42L157.04 146.42L91.843 146.42zM56.693 170.42L91.843 170.42L91.843 146.42L56.693 146.42zM157.039 218.42L293.102 218.42L293.102 194.42L157.039 194.42zM91.843 218.42L157.04 218.42L157.04 194.42L91.843 194.42zM56.693 218.42L91.843 218.42L91.843 194.42L56.693 194.42zM157.039 266.42L293.102 266.42L293.102 242.42L157.039 242.42zM91.843 266.42L157.04 266.42L157.04 242.42L91.843 242.42zM56.693 266.42L91.843 266.42L91.843 242.42L56.693 242.42z" stroke="none" fill="#E6E7E8" fill-rule="nonzero" /><path id="1635" transform="matrix(1 0 0 -1 0 792)" d="M56.6929 290.4203L91.8429 290.4203" stroke="#000000" stroke-width="1" fill="none" /><path id="1636" transform="matrix(1 0 0 -1 0 792)" d="M91.8425 290.4203L157.0395 290.4203" stroke="#000000" stroke-width="1" fill="none" /><path id="1637" transform="matrix(1 0 0 -1 0 792)" d="M157.0394 290.4203L293.1024 290.4203" stroke="#000000" stroke-width="1" fill="none" /><path id="2037" transform="matrix(1 0 0 -1 0 792)" d="M405.26 123.92L541.323 123.92L541.323 79.92L405.26 79.92zM340.063 123.92L405.26 123.92L405.26 79.92L340.063 79.92zM304.913 123.92L340.063 123.92L340.063 79.92L304.913 79.92zM405.26 191.92L541.323 191.92L541.323 147.92L405.26 147.92zM340.063 191.92L405.26 191.92L405.26 147.92L340.063 147.92zM304.913 191.92L340.063 191.92L340.063 147.92L304.913 147.92zM405.26 249.92L541.323 249.92L541.323 225.92L405.26 225.92zM340.063 249.92L405.26 249.92L405.26 225.92L340.063 225.92zM304.913 249.92L340.063 249.92L340.063 225.92L304.913 225.92z" stroke="none" fill="#E6E7E8" fill-rule="nonzero" /><path id="2038" transform="matrix(1 0 0 -1 0 792)" d="M304.9134 294.4203L340.0634 294.4203" stroke="#000000" stroke-width="1" fill="none" /><path id="2039" transform="matrix(1 0 0 -1 0 792)" d="M340.063 294.4203L405.26 294.4203" stroke="#000000" stroke-width="1" fill="none" /><path id="2040" transform="matrix(1 0 0 -1 0 792)" d="M405.2599 294.4203L541.3229 294.4203" stroke="#000000" stroke-width="1" fill="none" /><g clip-path="url(#2)"><path id="2679" transform="matrix(1 0 0 -1 0 792)" d="M56.9448 32.702L56.9448 -12.691" stroke="#000000" stroke-width="0.75" stroke-linecap="round" stroke-dasharray="0.75,1.464" fill="none" /><path id="2680" transform="matrix(1 0 0 -1 0 792)" d="M56.9448 -13.7986L56.9448 -13.7986M56.9448 34.9164L56.9448 34.9164" stroke="#000000" stroke-width="0.75" stroke-linecap="round" fill="none" /></g></g></g></svg>