<svg xmlns="http://www.w3.org/2000/svg" xmlns:xlink="http://www.w3.org/1999/xlink" id="body_79" preserveAspectRatio="xMinYMin meet" viewBox="0 0 816 1056"><defs><clipPath id="1"><path id="" clip-rule="evenodd" transform="matrix(1 0 0 1 0 0)" d="M0 792L0 0L0 0L612 0L612 0L612 792L612 792L0 792z" /></clipPath><clipPath id="2"><path id="" clip-rule="evenodd" transform="matrix(1 0 0 1 0 0)" d="M70.866 262.176L307.418 262.176L307.418 262.176L307.418 56.69299L307.418 56.69299L70.866 56.69299z" /></clipPath><clipPath id="3"><path id="" clip-rule="evenodd" transform="matrix(1 0 0 1 0 0)" d="M61.8661 48.69299L316.417 48.69299L316.417 48.69299L316.417 264.621L316.417 264.621L61.8661 264.621z" /></clipPath><clipPath id="4"><path id="" clip-rule="evenodd" transform="matrix(1 0 0 1 0 0)" d="M70.866 508.946L307.418 508.946L307.418 508.946L307.418 275.38L307.418 275.38L70.866 275.38z" /></clipPath><clipPath id="5"><path id="" clip-rule="evenodd" transform="matrix(1 0 0 1 0 0)" d="M61.8662 267.38L316.417 267.38L316.417 267.38L316.417 511.654L316.417 511.654L61.8662 511.654z" /></clipPath><clipPath id="6"><path id="" clip-rule="evenodd" transform="matrix(1 0 0 1 0 0)" d="M319.087 337.323L555.638 337.323L555.638 337.323L555.638 56.69299L555.638 56.69299L319.087 56.69299z" /></clipPath><clipPath id="7"><path id="" clip-rule="evenodd" transform="matrix(1 0 0 1 0 0)" d="M310.087 48.47498L564.638 48.47498L564.638 48.47498L564.638 339.749L564.638 339.749L310.087 339.749z" /></clipPath><clipPath id="8"><path id="" clip-rule="evenodd" transform="matrix(1 0 0 1 0 0)" d="M319.087 601.204L555.638 601.204L555.638 601.204L555.638 349.638L555.638 349.638L319.087 349.638z" /></clipPath><clipPath id="9"><path id="" clip-rule="evenodd" transform="matrix(1 0 0 1 0 0)" d="M310.087 341.637L564.638 341.637L564.638 341.637L564.638 603.912L564.638 603.912L310.087 603.912z" /></clipPath><clipPath id="10"><path id="" clip-rule="evenodd" transform="matrix(1 0 0 1 0 0)" d="M0 0L612 0L612 0L612 792L612 792L0 792z" /></clipPath></defs><g transform="matrix(1.333333 0 0 1.333333 0 0)"><g clip-path="url(#1)"><path id="1" transform="matrix(1 0 0 -1 0 792)" d="M73.701 735.3072L70.866 732.4722L70.866 532.6582L73.701 529.8242L304.583 529.8242L307.418 532.6582L307.418 732.4722L304.583 735.3072z" stroke="none" fill="#EAEBEC" fill-rule="nonzero" /><path id="2" transform="matrix(1 0 0 -1 0 792)" d="M77.035 647.414L301.248 647.414L301.248 672.918L77.035 672.918z" stroke="none" fill="#FFFEFE" fill-rule="nonzero" /><path id="3" transform="matrix(1 0 0 -1 0 792)" d="M77.0354 672.9178L301.2484 672.9178" stroke="#939597" stroke-width="0.5" fill="none" /><path id="4" transform="matrix(1 0 0 -1 0 792)" d="M77.035 632.745L301.248 632.745L301.248 652.084L77.035 652.084z" stroke="none" fill="#FFFEFE" fill-rule="nonzero" /><path id="5" transform="matrix(1 0 0 -1 0 792)" d="M78.0546 647.8312L300.7386 647.8312" stroke="#BBBDC0" stroke-width="0.51" stroke-linecap="round" stroke-dasharray="0.51,0.51" fill="none" /><path id="6" transform="matrix(1 0 0 -1 0 792)" d="M301.2484 647.8312L301.2484 647.8312M77.0354 647.8312L77.0354 647.8312" stroke="#BBBDC0" stroke-width="0.51" stroke-linecap="round" fill="none" /><path id="7" transform="matrix(1 0 0 -1 0 792)" d="M77.0354 632.5143L300.6964 632.5143" stroke="#939597" stroke-width="0.5" fill="none" /><g clip-path="url(#2)"><g><g clip-path="url(#3)"><path id="563" transform="matrix(1 0 0 -1 0 792)" d="M73.8043 735.0571C 72.90829 734.1611 72.0123 733.2651 71.11629 732.3691L71.11629 732.3691L71.11629 532.7611C 72.0123 531.8651 72.90829 530.9691 73.8043 530.0731L73.8043 530.0731L304.4793 530.0731C 305.3753 530.9691 306.2713 531.8651 307.1673 532.7611L307.1673 532.7611L307.1673 732.3691C 306.2713 733.2651 305.3753 734.1611 304.4793 735.0571L304.4793 735.0571L73.8043 735.0571z" stroke="#000000" stroke-width="0.5" fill="none" stroke-opacity="0.4980392" /></g></g></g><path id="564" transform="matrix(1 0 0 -1 0 792)" d="M73.701 516.6198L70.866 513.7858L70.866 285.8888L73.701 283.0538L304.583 283.0538L307.418 285.8888L307.418 513.7858L304.583 516.6198z" stroke="none" fill="#EAEBEC" fill-rule="nonzero" /><path id="565" transform="matrix(1 0 0 -1 0 792)" d="M77.035 437.727L301.248 437.727L301.248 463.231L77.035 463.231z" stroke="none" fill="#FFFEFE" fill-rule="nonzero" /><path id="566" transform="matrix(1 0 0 -1 0 792)" d="M77.0355 463.2307L301.2485 463.2307" stroke="#939597" stroke-width="0.5" fill="none" /><path id="567" transform="matrix(1 0 0 -1 0 792)" d="M77.0355 437.4964L300.6965 437.4964" stroke="#939597" stroke-width="0.5" fill="none" /><g clip-path="url(#4)"><g><g clip-path="url(#5)"><path id="1312" transform="matrix(1 0 0 -1 0 792)" d="M73.8044 516.3699C 72.90839 515.4739 72.0124 514.5779 71.11639 513.6819L71.11639 513.6819L71.11639 285.9919C 72.0124 285.0959 72.90839 284.1999 73.8044 283.3039L73.8044 283.3039L304.4794 283.3039L304.4794 283.3039L307.1674 285.9919L307.1674 285.9919L307.1674 513.6819C 306.2714 514.5779 305.3754 515.4739 304.4794 516.3699L304.4794 516.3699L73.8044 516.3699z" stroke="#000000" stroke-width="0.5" fill="none" stroke-opacity="0.4980392" /></g></g></g><path id="1313" transform="matrix(1 0 0 -1 0 792)" d="M321.7032 735.3072L319.0872 732.6912L319.0872 457.7942L321.9212 454.9592L552.8032 454.9592L555.6372 457.7942L555.6372 732.6912L553.0212 735.3072z" stroke="none" fill="#EAEBEC" fill-rule="nonzero" /><path id="1314" transform="matrix(1 0 0 -1 0 792)" d="M325.256 647.632L549.469 647.632L549.469 673.136L325.256 673.136z" stroke="none" fill="#FFFEFE" fill-rule="nonzero" /><path id="1315" transform="matrix(1 0 0 -1 0 792)" d="M325.2559 673.1361L549.4689 673.1361" stroke="#939597" stroke-width="0.5" fill="none" /><path id="1316" transform="matrix(1 0 0 -1 0 792)" d="M325.2559 647.4019L548.9169 647.4019" stroke="#939597" stroke-width="0.5" fill="none" /><g clip-path="url(#6)"><g><g clip-path="url(#7)"><path id="2278" transform="matrix(1 0 0 -1 0 792)" d="M322.0248 735.2754C 321.1288 734.3794 320.2328 733.4834 319.3368 732.5874L319.3368 732.5874L319.3368 457.8974C 320.2328 457.0014 321.1288 456.1054 322.0248 455.2094L322.0248 455.2094L552.6998 455.2094C 553.5958 456.1054 554.4918 457.0004 555.3878 457.8974L555.3878 457.8974L555.3878 732.5874C 554.4918 733.4834 553.5958 734.3794 552.6998 735.2754L552.6998 735.2754L322.0248 735.2754z" stroke="#000000" stroke-width="0.5" fill="none" stroke-opacity="0.4980392" /></g></g></g><path id="2279" transform="matrix(1 0 0 -1 0 792)" d="M321.921 442.3626L319.087 439.5276L319.087 193.6306L321.921 190.7966L552.803 190.7966L555.637 193.6306L555.637 439.5276L552.803 442.3626z" stroke="none" fill="#EAEBEC" fill-rule="nonzero" /><path id="2280" transform="matrix(1 0 0 -1 0 792)" d="M325.256 345.469L549.469 345.469L549.469 370.973L325.256 370.973z" stroke="none" fill="#FFFEFE" fill-rule="nonzero" /><path id="2281" transform="matrix(1 0 0 -1 0 792)" d="M325.256 370.9733L549.469 370.9733" stroke="#939597" stroke-width="0.5" fill="none" /><path id="2282" transform="matrix(1 0 0 -1 0 792)" d="M325.256 345.2391L548.917 345.2391" stroke="#939597" stroke-width="0.5" fill="none" /><g clip-path="url(#8)"><g><g clip-path="url(#9)"><path id="3104" transform="matrix(1 0 0 -1 0 792)" d="M322.0249 442.1126C 321.1289 441.2166 320.2329 440.3206 319.3369 439.4246L319.3369 439.4246L319.3369 193.7346L319.3369 193.7346L322.0249 191.0466L322.0249 191.0466L552.6999 191.0466C 553.5959 191.9426 554.4919 192.8376 555.3879 193.7346L555.3879 193.7346L555.3879 439.4246C 554.4919 440.3206 553.5959 441.2166 552.6999 442.1126L552.6999 442.1126L322.0249 442.1126z" stroke="#000000" stroke-width="0.5" fill="none" stroke-opacity="0.4980392" /></g></g></g><g clip-path="url(#10)"><path id="3121" transform="matrix(1 0 0 -1 0 792)" d="M555.6614 32.702L555.6614 -12.691" stroke="#000000" stroke-width="0.75" stroke-linecap="round" stroke-dasharray="0.75,1.464" fill="none" /><path id="3122" transform="matrix(1 0 0 -1 0 792)" d="M555.6614 -13.7986L555.6614 -13.7986M555.6614 34.9164L555.6614 34.9164" stroke="#000000" stroke-width="0.75" stroke-linecap="round" fill="none" /></g></g></g></svg>