<svg xmlns="http://www.w3.org/2000/svg" xmlns:xlink="http://www.w3.org/1999/xlink" id="body_81" preserveAspectRatio="xMinYMin meet" viewBox="0 0 816 1056"><defs><clipPath id="1"><path id="" clip-rule="evenodd" transform="matrix(1 0 0 1 0 0)" d="M0 792L0 0L0 0L612 0L612 0L612 792L612 792L0 792z" /></clipPath><clipPath id="2"><path id="" clip-rule="evenodd" transform="matrix(1 0 0 1 0 0)" d="M70.866 258.925L307.417 258.925L307.417 258.925L307.417 56.69299L307.417 56.69299L70.866 56.69299z" /></clipPath><clipPath id="3"><path id="" clip-rule="evenodd" transform="matrix(1 0 0 1 0 0)" d="M61.8661 48.71698L316.417 48.71698L316.417 48.71698L316.417 261.657L316.417 261.657L61.8661 261.657z" /></clipPath><clipPath id="4"><path id="" clip-rule="evenodd" transform="matrix(1 0 0 1 0 0)" d="M70.866 423.805L307.417 423.805L307.417 423.805L307.417 270.491L307.417 270.491L70.866 270.491z" /></clipPath><clipPath id="5"><path id="" clip-rule="evenodd" transform="matrix(1 0 0 1 0 0)" d="M61.8662 262.49L316.417 262.49L316.417 262.49L316.417 426.513L316.417 426.513L61.8662 426.513z" /></clipPath><clipPath id="6"><path id="" clip-rule="evenodd" transform="matrix(1 0 0 1 0 0)" d="M70.866 651.882L307.417 651.882L307.417 651.882L307.417 432.764L307.417 432.764L70.866 432.764z" /></clipPath><clipPath id="7"><path id="" clip-rule="evenodd" transform="matrix(1 0 0 1 0 0)" d="M61.8662 424.988L316.417 424.988L316.417 424.988L316.417 654.015L316.417 654.015L61.8662 654.015z" /></clipPath><clipPath id="8"><path id="" clip-rule="evenodd" transform="matrix(1 0 0 1 0 0)" d="M319.087 219.007L555.638 219.007L555.638 219.007L555.638 56.69299L555.638 56.69299L319.087 56.69299z" /></clipPath><clipPath id="9"><path id="" clip-rule="evenodd" transform="matrix(1 0 0 1 0 0)" d="M310.087 48.69299L564.638 48.69299L564.638 48.69299L564.638 221.715L564.638 221.715L310.087 221.715z" /></clipPath><clipPath id="10"><path id="" clip-rule="evenodd" transform="matrix(1 0 0 1 0 0)" d="M319.087 433.978L555.638 433.978L555.638 433.978L555.638 226.577L555.638 226.577L319.087 226.577z" /></clipPath><clipPath id="11"><path id="" clip-rule="evenodd" transform="matrix(1 0 0 1 0 0)" d="M310.087 218.577L564.638 218.577L564.638 218.577L564.638 436.686L564.638 436.686L310.087 436.686z" /></clipPath><clipPath id="12"><path id="" clip-rule="evenodd" transform="matrix(1 0 0 1 0 0)" d="M319.087 707.397L555.638 707.397L555.638 707.397L555.638 443.497L555.638 443.497L319.087 443.497z" /></clipPath><clipPath id="13"><path id="" clip-rule="evenodd" transform="matrix(1 0 0 1 0 0)" d="M310.087 435.498L564.638 435.498L564.638 435.498L564.638 710.1066L564.638 710.1066L310.087 710.1066z" /></clipPath><clipPath id="14"><path id="" clip-rule="evenodd" transform="matrix(1 0 0 1 0 0)" d="M0 0L612 0L612 0L612 792L612 792L0 792z" /></clipPath></defs><g transform="matrix(1.333333 0 0 1.333333 0 0)"><g clip-path="url(#1)"><path id="1" transform="matrix(1 0 0 -1 0 792)" d="M73.701 735.2829L70.866 732.4489L70.866 535.8859L73.67699 533.0749L304.607 533.0749L307.417 535.8859L307.417 732.4489L304.582 735.2829z" stroke="none" fill="#EAEBEC" fill-rule="nonzero" /><path id="2" transform="matrix(1 0 0 -1 0 792)" d="M77.035 656.39L301.248 656.39L301.248 681.894L77.035 681.894z" stroke="none" fill="#FFFEFE" fill-rule="nonzero" /><path id="3" transform="matrix(1 0 0 -1 0 792)" d="M77.0354 681.8938L301.2484 681.8938" stroke="#939597" stroke-width="0.5" fill="none" /><path id="4" transform="matrix(1 0 0 -1 0 792)" d="M77.0354 656.1595L300.6964 656.1595" stroke="#939597" stroke-width="0.5" fill="none" /><g clip-path="url(#2)"><g><g clip-path="url(#3)"><path id="661" transform="matrix(1 0 0 -1 0 792)" d="M73.8043 735.0331C 72.90829 734.1371 72.0123 733.2411 71.11629 732.3451L71.11629 732.3451L71.11629 535.9891C 72.0123 535.0931 72.90829 534.1971 73.8043 533.3011L73.8043 533.3011L304.4793 533.3011C 305.3753 534.1971 306.2713 535.0931 307.1673 535.9891L307.1673 535.9891L307.1673 732.3451C 306.2713 733.2411 305.3753 734.1371 304.4793 735.0331L304.4793 735.0331L73.8043 735.0331z" stroke="#000000" stroke-width="0.5" fill="none" stroke-opacity="0.4980392" /></g></g></g><path id="662" transform="matrix(1 0 0 -1 0 792)" d="M73.701 521.5095L70.866 518.6745L70.866 371.0295L73.701 368.1955L304.582 368.1955L307.417 371.0295L307.417 518.6745L304.582 521.5095z" stroke="none" fill="#EAEBEC" fill-rule="nonzero" /><path id="663" transform="matrix(1 0 0 -1 0 792)" d="M77.035 442.616L301.248 442.616L301.248 468.12L77.035 468.12z" stroke="none" fill="#FFFEFE" fill-rule="nonzero" /><path id="664" transform="matrix(1 0 0 -1 0 792)" d="M77.0355 468.1202L301.2485 468.1202" stroke="#939597" stroke-width="0.5" fill="none" /><path id="665" transform="matrix(1 0 0 -1 0 792)" d="M77.0355 442.386L300.6965 442.386" stroke="#939597" stroke-width="0.5" fill="none" /><g clip-path="url(#4)"><g><g clip-path="url(#5)"><path id="1078" transform="matrix(1 0 0 -1 0 792)" d="M73.8044 521.2595C 72.90839 520.3635 72.0124 519.4675 71.11639 518.5715L71.11639 518.5715L71.11639 371.1335C 72.0124 370.2375 72.90839 369.3415 73.8044 368.4455L73.8044 368.4455L304.4794 368.4455L304.4794 368.4455L307.1674 371.1335L307.1674 371.1335L307.1674 518.5715C 306.2714 519.4675 305.3754 520.3635 304.4794 521.2595L304.4794 521.2595L73.8044 521.2595z" stroke="#000000" stroke-width="0.5" fill="none" stroke-opacity="0.4980392" /></g></g></g><path id="1079" transform="matrix(1 0 0 -1 0 792)" d="M73.701 359.0118L70.866 356.1768L70.866 143.5278L73.701 140.6938L304.582 140.6938L307.417 143.5278L307.417 356.1768L304.582 359.0118z" stroke="none" fill="#EAEBEC" fill-rule="nonzero" /><path id="1080" transform="matrix(1 0 0 -1 0 792)" d="M77.035 280.118L301.248 280.118L301.248 305.622L77.035 305.622z" stroke="none" fill="#FFFEFE" fill-rule="nonzero" /><path id="1081" transform="matrix(1 0 0 -1 0 792)" d="M77.0355 305.6223L301.2485 305.6223" stroke="#939597" stroke-width="0.5" fill="none" /><path id="1082" transform="matrix(1 0 0 -1 0 792)" d="M77.035 265.449L301.248 265.449L301.248 284.788L77.035 284.788z" stroke="none" fill="#FFFEFE" fill-rule="nonzero" /><path id="1083" transform="matrix(1 0 0 -1 0 792)" d="M78.0546 280.5356L300.7386 280.5356" stroke="#BBBDC0" stroke-width="0.51" stroke-linecap="round" stroke-dasharray="0.51,0.51" fill="none" /><path id="1084" transform="matrix(1 0 0 -1 0 792)" d="M301.2485 280.5356L301.2485 280.5356M77.0355 280.5356L77.0355 280.5356" stroke="#BBBDC0" stroke-width="0.51" stroke-linecap="round" fill="none" /><path id="1085" transform="matrix(1 0 0 -1 0 792)" d="M77.0355 265.2187L300.6965 265.2187" stroke="#939597" stroke-width="0.5" fill="none" /><g clip-path="url(#6)"><g><g clip-path="url(#7)"><path id="1742" transform="matrix(1 0 0 -1 0 792)" d="M73.8044 358.7616C 72.90839 357.8656 72.0124 356.9696 71.11639 356.0736L71.11639 356.0736L71.11639 143.6316C 72.0124 142.7356 72.90839 141.8396 73.8044 140.9436L73.8044 140.9436L304.4794 140.9436L304.4794 140.9436L307.1674 143.6316L307.1674 143.6316L307.1674 356.0736C 306.2714 356.9696 305.3754 357.8656 304.4794 358.7616L304.4794 358.7616L73.8044 358.7616z" stroke="#000000" stroke-width="0.5" fill="none" stroke-opacity="0.4980392" /></g></g></g><path id="1743" transform="matrix(1 0 0 -1 0 792)" d="M321.921 735.3072L319.087 732.4722L319.087 575.8272L321.921 572.9932L552.803 572.9932L555.638 575.8272L555.638 732.4722L552.803 735.3072z" stroke="none" fill="#EAEBEC" fill-rule="nonzero" /><path id="1744" transform="matrix(1 0 0 -1 0 792)" d="M325.256 647.414L549.469 647.414L549.469 672.918L325.256 672.918z" stroke="none" fill="#FFFEFE" fill-rule="nonzero" /><path id="1745" transform="matrix(1 0 0 -1 0 792)" d="M325.2559 672.9178L549.4689 672.9178" stroke="#939597" stroke-width="0.5" fill="none" /><path id="1746" transform="matrix(1 0 0 -1 0 792)" d="M325.2559 647.1836L548.9169 647.1836" stroke="#939597" stroke-width="0.5" fill="none" /><g clip-path="url(#8)"><g><g clip-path="url(#9)"><path id="2166" transform="matrix(1 0 0 -1 0 792)" d="M322.0248 735.0571C 321.1288 734.1611 320.2328 733.2651 319.3368 732.3691L319.3368 732.3691L319.3368 575.9312C 320.2328 575.0352 321.1288 574.1392 322.0248 573.2432L322.0248 573.2432L552.6998 573.2432C 553.5958 574.1392 554.4918 575.0352 555.3878 575.9312L555.3878 575.9312L555.3878 732.3691L555.3878 732.3691L552.6998 735.0571L552.6998 735.0571L322.0248 735.0571z" stroke="#000000" stroke-width="0.5" fill="none" stroke-opacity="0.4980392" /></g></g></g><path id="2167" transform="matrix(1 0 0 -1 0 792)" d="M321.921 565.4232L319.087 562.5882L319.087 360.8572L321.921 358.0222L552.803 358.0222L555.638 360.8572L555.638 562.5882L552.803 565.4232z" stroke="none" fill="#EAEBEC" fill-rule="nonzero" /><path id="2168" transform="matrix(1 0 0 -1 0 792)" d="M325.256 486.53L549.469 486.53L549.469 512.034L325.256 512.034z" stroke="none" fill="#FFFEFE" fill-rule="nonzero" /><path id="2169" transform="matrix(1 0 0 -1 0 792)" d="M325.256 512.0337L549.469 512.0337" stroke="#939597" stroke-width="0.5" fill="none" /><path id="2170" transform="matrix(1 0 0 -1 0 792)" d="M325.256 471.86L549.469 471.86L549.469 491.199L325.256 491.199z" stroke="none" fill="#FFFEFE" fill-rule="nonzero" /><path id="2171" transform="matrix(1 0 0 -1 0 792)" d="M326.2751 486.9471L548.9591 486.9471" stroke="#BBBDC0" stroke-width="0.51" stroke-linecap="round" stroke-dasharray="0.51,0.51" fill="none" /><path id="2172" transform="matrix(1 0 0 -1 0 792)" d="M549.469 486.9471L549.469 486.9471M325.256 486.9471L325.256 486.9471" stroke="#BBBDC0" stroke-width="0.51" stroke-linecap="round" fill="none" /><path id="2173" transform="matrix(1 0 0 -1 0 792)" d="M325.256 471.6302L548.917 471.6302" stroke="#939597" stroke-width="0.5" fill="none" /><g clip-path="url(#10)"><g><g clip-path="url(#11)"><path id="2856" transform="matrix(1 0 0 -1 0 792)" d="M322.0249 565.173C 321.1289 564.277 320.2329 563.381 319.3369 562.485L319.3369 562.485L319.3369 360.96C 320.2329 360.064 321.1289 359.168 322.0249 358.272L322.0249 358.272L552.6999 358.272L552.6999 358.272L555.3879 360.96L555.3879 360.96L555.3879 562.485C 554.4919 563.381 553.5959 564.277 552.6999 565.173L552.6999 565.173L322.0249 565.173z" stroke="#000000" stroke-width="0.5" fill="none" stroke-opacity="0.4980392" /></g></g></g><path id="2857" transform="matrix(1 0 0 -1 0 792)" d="M321.921 348.5025L319.087 345.6675L319.087 87.43552L321.92 84.60251L552.804 84.60251L555.638 87.43552L555.638 345.6675L552.803 348.5025z" stroke="none" fill="#EAEBEC" fill-rule="nonzero" /><path id="2858" transform="matrix(1 0 0 -1 0 792)" d="M325.256 260.609L549.469 260.609L549.469 286.113L325.256 286.113z" stroke="none" fill="#FFFEFE" fill-rule="nonzero" /><path id="2859" transform="matrix(1 0 0 -1 0 792)" d="M325.256 286.1132L549.469 286.1132" stroke="#939597" stroke-width="0.5" fill="none" /><path id="2860" transform="matrix(1 0 0 -1 0 792)" d="M325.256 245.94L549.469 245.94L549.469 265.279L325.256 265.279z" stroke="none" fill="#FFFEFE" fill-rule="nonzero" /><path id="2861" transform="matrix(1 0 0 -1 0 792)" d="M326.2751 261.0266L548.9591 261.0266" stroke="#BBBDC0" stroke-width="0.51" stroke-linecap="round" stroke-dasharray="0.51,0.51" fill="none" /><path id="2862" transform="matrix(1 0 0 -1 0 792)" d="M549.469 261.0266L549.469 261.0266M325.256 261.0266L325.256 261.0266" stroke="#BBBDC0" stroke-width="0.51" stroke-linecap="round" fill="none" /><path id="2863" transform="matrix(1 0 0 -1 0 792)" d="M325.256 245.7096L548.917 245.7096" stroke="#939597" stroke-width="0.5" fill="none" /><g clip-path="url(#12)"><g><g clip-path="url(#13)"><path id="3749" transform="matrix(1 0 0 -1 0 792)" d="M322.0249 348.2524C 321.1289 347.3564 320.2329 346.4604 319.3369 345.5644L319.3369 345.5644L319.3369 87.5394L319.3369 87.5394L322.0249 84.85141L322.0249 84.85141L552.6999 84.85141C 553.5959 85.74741 554.4919 86.6434 555.3879 87.5394L555.3879 87.5394L555.3879 345.5644C 554.4919 346.4604 553.5959 347.3564 552.6999 348.2524L552.6999 348.2524L322.0249 348.2524z" stroke="#000000" stroke-width="0.5" fill="none" stroke-opacity="0.4980392" /></g></g></g><g clip-path="url(#14)"><path id="3766" transform="matrix(1 0 0 -1 0 792)" d="M555.6614 32.702L555.6614 -12.691" stroke="#000000" stroke-width="0.75" stroke-linecap="round" stroke-dasharray="0.75,1.464" fill="none" /><path id="3767" transform="matrix(1 0 0 -1 0 792)" d="M555.6614 -13.7986L555.6614 -13.7986M555.6614 34.9164L555.6614 34.9164" stroke="#000000" stroke-width="0.75" stroke-linecap="round" fill="none" /></g></g></g></svg>