<svg xmlns="http://www.w3.org/2000/svg" xmlns:xlink="http://www.w3.org/1999/xlink" id="body_87" preserveAspectRatio="xMinYMin meet" viewBox="0 0 816 1056"><defs><clipPath id="1"><path id="" clip-rule="evenodd" transform="matrix(1 0 0 1 0 0)" d="M0 792L0 0L0 0L612 0L612 0L612 792L612 792L0 792z" /></clipPath><clipPath id="2"><path id="" clip-rule="evenodd" transform="matrix(1 0 0 1 0 0)" d="M70.866 292.093L307.418 292.093L307.418 292.093L307.418 56.69299L307.418 56.69299L70.866 56.69299z" /></clipPath><clipPath id="3"><path id="" clip-rule="evenodd" transform="matrix(1 0 0 1 0 0)" d="M61.8661 48.69299L316.417 48.69299L316.417 48.69299L316.417 294.802L316.417 294.802L61.8661 294.802z" /></clipPath><clipPath id="4"><path id="" clip-rule="evenodd" transform="matrix(1 0 0 1 0 0)" d="M70.866 550.904L307.418 550.904L307.418 550.904L307.418 304.29L307.418 304.29L70.866 304.29z" /></clipPath><clipPath id="5"><path id="" clip-rule="evenodd" transform="matrix(1 0 0 1 0 0)" d="M61.8662 297.355L316.417 297.355L316.417 297.355L316.417 552.965L316.417 552.965L61.8662 552.965z" /></clipPath><clipPath id="6"><path id="" clip-rule="evenodd" transform="matrix(1 0 0 1 0 0)" d="M319.087 238.507L555.638 238.507L555.638 238.507L555.638 56.69299L555.638 56.69299L319.087 56.69299z" /></clipPath><clipPath id="7"><path id="" clip-rule="evenodd" transform="matrix(1 0 0 1 0 0)" d="M310.087 48.69299L564.638 48.69299L564.638 48.69299L564.638 241.215L564.638 241.215L310.087 241.215z" /></clipPath><clipPath id="8"><path id="" clip-rule="evenodd" transform="matrix(1 0 0 1 0 0)" d="M319.087 522.614L555.638 522.614L555.638 522.614L555.638 252.465L555.638 252.465L319.087 252.465z" /></clipPath><clipPath id="9"><path id="" clip-rule="evenodd" transform="matrix(1 0 0 1 0 0)" d="M310.087 244.465L564.638 244.465L564.638 244.465L564.638 515.822L564.638 515.822L310.087 515.822z" /></clipPath><clipPath id="10"><path id="" clip-rule="evenodd" transform="matrix(1 0 0 1 0 0)" d="M0 0L612 0L612 0L612 792L612 792L0 792z" /></clipPath></defs><g transform="matrix(1.333333 0 0 1.333333 0 0)"><g clip-path="url(#1)"><path id="1" transform="matrix(1 0 0 -1 0 792)" d="M73.701 735.3072L70.866 732.4722L70.866 502.7412L73.7 499.9072L304.583 499.9072L307.418 502.7412L307.418 732.4722L304.583 735.3072z" stroke="none" fill="#EAEBEC" fill-rule="nonzero" /><path id="2" transform="matrix(1 0 0 -1 0 792)" d="M77.035 647.414L301.248 647.414L301.248 672.918L77.035 672.918z" stroke="none" fill="#FFFEFE" fill-rule="nonzero" /><path id="3" transform="matrix(1 0 0 -1 0 792)" d="M77.0354 672.9178L301.2484 672.9178" stroke="#939597" stroke-width="0.5" fill="none" /><path id="4" transform="matrix(1 0 0 -1 0 792)" d="M77.035 632.745L301.248 632.745L301.248 652.084L77.035 652.084z" stroke="none" fill="#FFFEFE" fill-rule="nonzero" /><path id="5" transform="matrix(1 0 0 -1 0 792)" d="M78.0546 647.8312L300.7386 647.8312" stroke="#BBBDC0" stroke-width="0.51" stroke-linecap="round" stroke-dasharray="0.51,0.51" fill="none" /><path id="6" transform="matrix(1 0 0 -1 0 792)" d="M301.2484 647.8312L301.2484 647.8312M77.0354 647.8312L77.0354 647.8312" stroke="#BBBDC0" stroke-width="0.51" stroke-linecap="round" fill="none" /><path id="7" transform="matrix(1 0 0 -1 0 792)" d="M77.0354 632.5143L300.6964 632.5143" stroke="#939597" stroke-width="0.5" fill="none" /><g clip-path="url(#2)"><g><g clip-path="url(#3)"><path id="744" transform="matrix(1 0 0 -1 0 792)" d="M73.8043 735.0571C 72.90829 734.1611 72.0123 733.2651 71.11629 732.3691L71.11629 732.3691L71.11629 502.8441C 72.0123 501.9481 72.90829 501.0521 73.8043 500.1561L73.8043 500.1561L304.4793 500.1561C 305.3753 501.0521 306.2713 501.9481 307.1673 502.8441L307.1673 502.8441L307.1673 732.3691C 306.2713 733.2651 305.3753 734.1611 304.4793 735.0571L304.4793 735.0571L73.8043 735.0571z" stroke="#000000" stroke-width="0.5" fill="none" stroke-opacity="0.4980392" /></g></g></g><path id="745" transform="matrix(1 0 0 -1 0 792)" d="M73.701 486.6444L70.866 483.8104L70.866 244.5774L73.701 241.7434L304.583 241.7434L307.418 244.5774L307.418 483.8104L304.583 486.6444z" stroke="none" fill="#EAEBEC" fill-rule="nonzero" /><path id="746" transform="matrix(1 0 0 -1 0 792)" d="M77.035 398.751L301.248 398.751L301.248 424.255L77.035 424.255z" stroke="none" fill="#FFFEFE" fill-rule="nonzero" /><path id="747" transform="matrix(1 0 0 -1 0 792)" d="M77.0355 424.2552L301.2485 424.2552" stroke="#939597" stroke-width="0.5" fill="none" /><path id="748" transform="matrix(1 0 0 -1 0 792)" d="M77.035 384.082L301.248 384.082L301.248 403.421L77.035 403.421z" stroke="none" fill="#FFFEFE" fill-rule="nonzero" /><path id="749" transform="matrix(1 0 0 -1 0 792)" d="M78.0546 399.1686L300.7386 399.1686" stroke="#BBBDC0" stroke-width="0.51" stroke-linecap="round" stroke-dasharray="0.51,0.51" fill="none" /><path id="750" transform="matrix(1 0 0 -1 0 792)" d="M301.2485 399.1686L301.2485 399.1686M77.0355 399.1686L77.0355 399.1686" stroke="#BBBDC0" stroke-width="0.51" stroke-linecap="round" fill="none" /><path id="751" transform="matrix(1 0 0 -1 0 792)" d="M77.0355 383.8517L300.6965 383.8517" stroke="#939597" stroke-width="0.5" fill="none" /><g clip-path="url(#4)"><g><g clip-path="url(#5)"><path id="1547" transform="matrix(1 0 0 -1 0 792)" d="M73.8044 486.3945C 72.90839 485.4985 72.0124 484.6025 71.11639 483.7065L71.11639 483.7065L71.11639 244.6815L71.11639 244.6815L73.8044 241.9935L73.8044 241.9935L304.4794 241.9935C 305.3754 242.8895 306.2714 243.7855 307.1674 244.6815L307.1674 244.6815L307.1674 483.7065C 306.2714 484.6025 305.3754 485.4985 304.4794 486.3945L304.4794 486.3945L73.8044 486.3945z" stroke="#000000" stroke-width="0.5" fill="none" stroke-opacity="0.4980392" /></g></g></g><path id="1548" transform="matrix(1 0 0 -1 0 792)" d="M321.921 735.3072L319.087 732.4722L319.087 556.3272L321.921 553.4932L552.803 553.4932L555.637 556.3272L555.637 732.4722L552.803 735.3072z" stroke="none" fill="#EAEBEC" fill-rule="nonzero" /><path id="1549" transform="matrix(1 0 0 -1 0 792)" d="M325.256 656.414L549.469 656.414L549.469 681.918L325.256 681.918z" stroke="none" fill="#FFFEFE" fill-rule="nonzero" /><path id="1550" transform="matrix(1 0 0 -1 0 792)" d="M325.2559 681.9178L549.4689 681.9178" stroke="#939597" stroke-width="0.5" fill="none" /><path id="1551" transform="matrix(1 0 0 -1 0 792)" d="M325.2559 656.1836L548.9169 656.1836" stroke="#939597" stroke-width="0.5" fill="none" /><g clip-path="url(#6)"><g><g clip-path="url(#7)"><path id="2121" transform="matrix(1 0 0 -1 0 792)" d="M322.0248 735.0571C 321.1288 734.1611 320.2328 733.2651 319.3368 732.3691L319.3368 732.3691L319.3368 556.4312C 320.2328 555.5352 321.1288 554.6392 322.0248 553.7432L322.0248 553.7432L552.6998 553.7432C 553.5958 554.6392 554.4918 555.5352 555.3878 556.4312L555.3878 556.4312L555.3878 732.3691L555.3878 732.3691L552.6998 735.0571L552.6998 735.0571L322.0248 735.0571z" stroke="#000000" stroke-width="0.5" fill="none" stroke-opacity="0.4980392" /></g></g></g><path id="2122" transform="matrix(1 0 0 -1 0 792)" d="M321.921 539.5347L319.087 536.7007L319.087 281.7207L321.921 278.8857L552.803 278.8857L555.637 281.7207L555.637 536.7007L552.803 539.5347z" stroke="none" fill="#EAEBEC" fill-rule="nonzero" /><path id="2123" transform="matrix(1 0 0 -1 0 792)" d="M325.256 460.642L549.469 460.642L549.469 486.146L325.256 486.146z" stroke="none" fill="#FFFEFE" fill-rule="nonzero" /><path id="2124" transform="matrix(1 0 0 -1 0 792)" d="M325.256 486.1458L549.469 486.1458" stroke="#939597" stroke-width="0.5" fill="none" /><path id="2125" transform="matrix(1 0 0 -1 0 792)" d="M325.256 460.4115L548.917 460.4115" stroke="#939597" stroke-width="0.5" fill="none" /><g clip-path="url(#8)"><g><g clip-path="url(#9)"><path id="3077" transform="matrix(1 0 0 -1 0 792)" d="M322.0249 539.285C 321.1289 538.389 320.2329 537.493 319.3369 536.597L319.3369 536.597L319.3369 281.824L319.3369 281.824L322.0249 279.136L322.0249 279.136L552.6999 279.136C 553.5959 280.032 554.4919 280.928 555.3879 281.824L555.3879 281.824L555.3879 536.597L555.3879 536.597L552.6999 539.285L552.6999 539.285L322.0249 539.285z" stroke="#000000" stroke-width="0.5" fill="none" stroke-opacity="0.4980392" /></g></g></g><g clip-path="url(#10)"><path id="3094" transform="matrix(1 0 0 -1 0 792)" d="M555.6614 32.702L555.6614 -12.691" stroke="#000000" stroke-width="0.75" stroke-linecap="round" stroke-dasharray="0.75,1.464" fill="none" /><path id="3095" transform="matrix(1 0 0 -1 0 792)" d="M555.6614 -13.7986L555.6614 -13.7986M555.6614 34.9164L555.6614 34.9164" stroke="#000000" stroke-width="0.75" stroke-linecap="round" fill="none" /></g></g></g></svg>