<svg xmlns="http://www.w3.org/2000/svg" xmlns:xlink="http://www.w3.org/1999/xlink" id="body_50" preserveAspectRatio="xMinYMin meet" viewBox="0 0 816 1056"><defs><clipPath id="1"><path id="" clip-rule="evenodd" transform="matrix(1 0 0 1 0 0)" d="M0 792L0 0L0 0L612 0L612 0L612 792L612 792L0 792z" /></clipPath><clipPath id="2"><path id="" clip-rule="evenodd" transform="matrix(1 0 0 1 0 0)" d="M0 0L612 0L612 0L612 792L612 792L0 792z" /></clipPath></defs><g transform="matrix(1.333333 0 0 1.333333 0 0)"><g clip-path="url(#1)"><path id="33" transform="matrix(1 0 0 -1 0 792)" d="M366 181.075L541.134 181.075L541.134 147.075L366 147.075zM310.157 181.075L366 181.075L366 147.075L310.157 147.075zM244.394 181.075L310.158 181.075L310.158 147.075L244.394 147.075zM190.535 181.075L244.393 181.075L244.393 147.075L190.535 147.075zM137.669 181.075L190.535 181.075L190.535 147.075L137.669 147.075zM56.693 181.075L137.669 181.075L137.669 147.075L56.693 147.075zM366 219.475L541.134 219.475L541.134 195.475L366 195.475zM310.157 219.475L366 219.475L366 195.475L310.157 195.475zM244.394 219.475L310.158 219.475L310.158 195.475L244.394 195.475zM190.535 219.475L244.393 219.475L244.393 195.475L190.535 195.475zM137.669 219.475L190.535 219.475L190.535 195.475L137.669 195.475zM56.693 219.475L137.669 219.475L137.669 195.475L56.693 195.475zM366 277.475L541.134 277.475L541.134 253.475L366 253.475zM310.157 277.475L366 277.475L366 253.475L310.157 253.475zM244.394 277.475L310.158 277.475L310.158 253.475L244.394 253.475zM190.535 277.475L244.393 277.475L244.393 253.475L190.535 253.475zM137.669 277.475L190.535 277.475L190.535 253.475L137.669 253.475zM56.693 277.475L137.669 277.475L137.669 253.475L56.693 253.475zM366 335.475L541.134 335.475L541.134 301.475L366 301.475zM310.157 335.475L366 335.475L366 301.475L310.157 301.475zM244.394 335.475L310.158 335.475L310.158 301.475L244.394 301.475zM190.535 335.475L244.393 335.475L244.393 301.475L190.535 301.475zM137.669 335.475L190.535 335.475L190.535 301.475L137.669 301.475zM56.693 335.475L137.669 335.475L137.669 301.475L56.693 301.475zM366 393.475L541.134 393.475L541.134 369.475L366 369.475zM310.157 393.475L366 393.475L366 369.475L310.157 369.475zM244.394 393.475L310.158 393.475L310.158 369.475L244.394 369.475zM190.535 393.475L244.393 393.475L244.393 369.475L190.535 369.475zM137.669 393.475L190.535 393.475L190.535 369.475L137.669 369.475zM56.693 393.475L137.669 393.475L137.669 369.475L56.693 369.475zM366 422.275L541.134 422.275L541.134 407.875L366 407.875zM310.157 422.275L366 422.275L366 407.875L310.157 407.875zM244.394 422.275L310.158 422.275L310.158 407.875L244.394 407.875zM190.535 422.275L244.393 422.275L244.393 407.875L190.535 407.875zM137.669 422.275L190.535 422.275L190.535 407.875L137.669 407.875zM56.693 422.275L137.669 422.275L137.669 407.875L56.693 407.875zM366 451.075L541.134 451.075L541.134 436.675L366 436.675zM310.157 451.075L366 451.075L366 436.675L310.157 436.675zM244.394 451.075L310.158 451.075L310.158 436.675L244.394 436.675zM190.535 451.075L244.393 451.075L244.393 436.675L190.535 436.675zM137.669 451.075L190.535 451.075L190.535 436.675L137.669 436.675zM56.693 451.075L137.669 451.075L137.669 436.675L56.693 436.675zM366 489.475L541.134 489.475L541.134 465.475L366 465.475zM310.157 489.475L366 489.475L366 465.475L310.157 465.475zM244.394 489.475L310.158 489.475L310.158 465.475L244.394 465.475zM190.535 489.475L244.393 489.475L244.393 465.475L190.535 465.475zM137.669 489.475L190.535 489.475L190.535 465.475L137.669 465.475zM56.693 489.475L137.669 489.475L137.669 465.475L56.693 465.475zM366 527.875L541.134 527.875L541.134 503.875L366 503.875zM310.157 527.875L366 527.875L366 503.875L310.157 503.875zM244.394 527.875L310.158 527.875L310.158 503.875L244.394 503.875zM190.535 527.875L244.393 527.875L244.393 503.875L190.535 503.875zM137.669 527.875L190.535 527.875L190.535 503.875L137.669 503.875zM56.693 527.875L137.669 527.875L137.669 503.875L56.693 503.875zM366 566.275L541.134 566.275L541.134 542.275L366 542.275zM310.157 566.275L366 566.275L366 542.275L310.157 542.275zM244.394 566.275L310.158 566.275L310.158 542.275L244.394 542.275zM190.535 566.275L244.393 566.275L244.393 542.275L190.535 542.275zM137.669 566.275L190.535 566.275L190.535 542.275L137.669 542.275zM56.693 566.275L137.669 566.275L137.669 542.275L56.693 542.275zM366 614.675L541.134 614.675L541.134 580.675L366 580.675zM310.157 614.675L366 614.675L366 580.675L310.157 580.675zM244.394 614.675L310.158 614.675L310.158 580.675L244.394 580.675zM190.535 614.675L244.393 614.675L244.393 580.675L190.535 580.675zM137.669 614.675L190.535 614.675L190.535 580.675L137.669 580.675zM56.693 614.675L137.669 614.675L137.669 580.675L56.693 580.675zM366 653.269L541.134 653.269L541.134 629.269L366 629.269zM310.157 653.269L366 653.269L366 629.269L310.157 629.269zM244.394 653.269L310.158 653.269L310.158 629.269L244.394 629.269zM190.535 653.269L244.393 653.269L244.393 629.269L190.535 629.269zM137.669 653.269L190.535 653.269L190.535 629.269L137.669 629.269zM56.693 653.269L137.669 653.269L137.669 629.269L56.693 629.269z" stroke="none" fill="#ECEDEE" fill-rule="nonzero" /><path id="34" transform="matrix(1 0 0 -1 0 792)" d="M56.6929 677.2687L137.6689 677.2687" stroke="#000000" stroke-width="1" fill="none" /><path id="35" transform="matrix(1 0 0 -1 0 792)" d="M137.6693 677.2687L190.5353 677.2687" stroke="#000000" stroke-width="1" fill="none" /><path id="36" transform="matrix(1 0 0 -1 0 792)" d="M190.5354 677.2687L244.3934 677.2687" stroke="#000000" stroke-width="1" fill="none" /><path id="37" transform="matrix(1 0 0 -1 0 792)" d="M244.3937 677.2687L310.1577 677.2687" stroke="#000000" stroke-width="1" fill="none" /><path id="38" transform="matrix(1 0 0 -1 0 792)" d="M310.1575 677.2687L366.0005 677.2687" stroke="#000000" stroke-width="1" fill="none" /><path id="39" transform="matrix(1 0 0 -1 0 792)" d="M366 677.2687L541.134 677.2687" stroke="#000000" stroke-width="1" fill="none" /><g clip-path="url(#2)"><path id="2119" transform="matrix(1 0 0 -1 0 792)" d="M56.9448 32.702L56.9448 -12.691" stroke="#000000" stroke-width="0.75" stroke-linecap="round" stroke-dasharray="0.75,1.464" fill="none" /><path id="2120" transform="matrix(1 0 0 -1 0 792)" d="M56.9448 -13.7986L56.9448 -13.7986M56.9448 34.9164L56.9448 34.9164" stroke="#000000" stroke-width="0.75" stroke-linecap="round" fill="none" /></g></g></g></svg>