<svg xmlns="http://www.w3.org/2000/svg" xmlns:xlink="http://www.w3.org/1999/xlink" id="body_119" preserveAspectRatio="xMinYMin meet" viewBox="0 0 816 1056"><defs><clipPath id="1"><path id="" clip-rule="evenodd" transform="matrix(1 0 0 1 0 0)" d="M0 792L0 0L0 0L612 0L612 0L612 792L612 792L0 792z" /></clipPath><clipPath id="2"><path id="" clip-rule="evenodd" transform="matrix(1 0 0 1 0 0)" d="M0 0L612 0L612 0L612 792L612 792L0 792z" /></clipPath></defs><g transform="matrix(1.333333 0 0 1.333333 0 0)"><g clip-path="url(#1)"><path id="1" transform="matrix(1 0 0 -1 0 792)" d="M70.845 606.212L555.286 606.212L555.286 623.255L70.845 623.255z" stroke="none" fill="#000000" fill-rule="nonzero" /><path id="102" transform="matrix(1 0 0 -1 0 792)" d="M75.0974 584.8915L75.0974 593.0565" stroke="#000000" stroke-width="8" fill="none" /><path id="103" transform="matrix(1 0 0 -1 0 792)" d="M75.0974 470.553L75.0974 478.718" stroke="#000000" stroke-width="8" fill="none" /><path id="104" transform="matrix(1 0 0 -1 0 792)" d="M75.0974 333.3797L75.0974 341.5447" stroke="#000000" stroke-width="8" fill="none" /><path id="105" transform="matrix(1 0 0 -1 0 792)" d="M75.0974 261.8758L75.0974 270.0408" stroke="#000000" stroke-width="8" fill="none" /><path id="106" transform="matrix(1 0 0 -1 0 792)" d="M75.0974 157.5372L75.0974 165.7022" stroke="#000000" stroke-width="8" fill="none" /><path id="1686" transform="matrix(1 0 0 -1 0 792)" d="M323.3179 584.8915L323.3179 593.0565" stroke="#000000" stroke-width="8" fill="none" /><path id="1687" transform="matrix(1 0 0 -1 0 792)" d="M323.3179 503.3876L323.3179 511.5526" stroke="#000000" stroke-width="8" fill="none" /><path id="1688" transform="matrix(1 0 0 -1 0 792)" d="M323.3179 401.8837L323.3179 410.0487" stroke="#000000" stroke-width="8" fill="none" /><path id="1689" transform="matrix(1 0 0 -1 0 792)" d="M323.3179 320.3797L323.3179 328.5447" stroke="#000000" stroke-width="8" fill="none" /><path id="1690" transform="matrix(1 0 0 -1 0 792)" d="M323.3179 248.8758L323.3179 257.0408" stroke="#000000" stroke-width="8" fill="none" /><g clip-path="url(#2)"><path id="3087" transform="matrix(1 0 0 -1 0 792)" d="M555.6614 32.702L555.6614 -12.691" stroke="#000000" stroke-width="0.75" stroke-linecap="round" stroke-dasharray="0.75,1.464" fill="none" /><path id="3088" transform="matrix(1 0 0 -1 0 792)" d="M555.6614 -13.7986L555.6614 -13.7986M555.6614 34.9164L555.6614 34.9164" stroke="#000000" stroke-width="0.75" stroke-linecap="round" fill="none" /></g></g></g></svg>