<svg xmlns="http://www.w3.org/2000/svg" xmlns:xlink="http://www.w3.org/1999/xlink" id="body_103" preserveAspectRatio="xMinYMin meet" viewBox="0 0 816 1056"><defs><clipPath id="1"><path id="" clip-rule="evenodd" transform="matrix(1 0 0 1 0 0)" d="M0 792L0 0L0 0L612 0L612 0L612 792L612 792L0 792z" /></clipPath><clipPath id="2"><path id="" clip-rule="evenodd" transform="matrix(1 0 0 1 0 0)" d="M71.493 746.347L308.044 746.347L308.044 746.347L308.044 277.771L308.044 277.771L71.493 277.771z" /></clipPath><clipPath id="3"><path id="" clip-rule="evenodd" transform="matrix(1 0 0 1 0 0)" d="M71.493 746.347L308.044 746.347L308.044 746.347L308.044 277.771L308.044 277.771L71.493 277.771z" /></clipPath><clipPath id="4"><path id="" clip-rule="evenodd" transform="matrix(1 0 0 1 0 0)" d="M62.4931 269.771L317.044 269.771L317.044 269.771L317.044 736.9687L317.044 736.9687L62.4931 736.9687z" /></clipPath><clipPath id="5"><path id="" clip-rule="evenodd" transform="matrix(1 0 0 1 0 0)" d="M319.667 462.145L556.218 462.145L556.218 462.145L556.218 277.497L556.218 277.497L319.667 277.497z" /></clipPath><clipPath id="6"><path id="" clip-rule="evenodd" transform="matrix(1 0 0 1 0 0)" d="M319.667 462.145L556.218 462.145L556.218 462.145L556.218 277.497L556.218 277.497L319.667 277.497z" /></clipPath><clipPath id="7"><path id="" clip-rule="evenodd" transform="matrix(1 0 0 1 0 0)" d="M310.666 269.496L565.217 269.496L565.217 269.496L565.217 464.732L565.217 464.732L310.666 464.732z" /></clipPath><clipPath id="8"><path id="" clip-rule="evenodd" transform="matrix(1 0 0 1 0 0)" d="M319.667 669.811L556.218 669.811L556.218 669.811L556.218 473.328L556.218 473.328L319.667 473.328z" /></clipPath><clipPath id="9"><path id="" clip-rule="evenodd" transform="matrix(1 0 0 1 0 0)" d="M319.667 669.811L556.218 669.811L556.218 669.811L556.218 473.328L556.218 473.328L319.667 473.328z" /></clipPath><clipPath id="10"><path id="" clip-rule="evenodd" transform="matrix(1 0 0 1 0 0)" d="M310.666 465.412L565.218 465.412L565.218 465.412L565.218 672.483L565.218 672.483L310.666 672.483z" /></clipPath><clipPath id="11"><path id="" clip-rule="evenodd" transform="matrix(1 0 0 1 0 0)" d="M0 0L612 0L612 0L612 792L612 792L0 792z" /></clipPath></defs><g transform="matrix(1.333333 0 0 1.333333 0 0)"><g clip-path="url(#1)"><path id="1" transform="matrix(1 0 0 -1 0 792)" d="M75.1181 727.1418L75.1181 735.3068" stroke="#BBBDC0" stroke-width="8" fill="none" /><path id="94" transform="matrix(1 0 0 -1 0 792)" d="M323.3386 716.1418L323.3386 735.3068" stroke="#BBBDC0" stroke-width="8" fill="none" /><g clip-path="url(#2)"><path id="244" transform="matrix(1 0 0 -1 0 792)" d="M77.912 426.086L301.625 426.086L301.625 460.59L77.912 460.59z" stroke="none" fill="#F5F5F6" fill-rule="nonzero" /><path id="245" transform="matrix(1 0 0 -1 0 792)" d="M77.9124 460.5897L301.6254 460.5897" stroke="#000000" stroke-width="0.5" fill="none" /><path id="246" transform="matrix(1 0 0 -1 0 792)" d="M77.9124 425.8555L301.5734 425.8555" stroke="#000000" stroke-width="0.5" fill="none" /></g><g clip-path="url(#3)"><g><g clip-path="url(#4)"><path id="2112" transform="matrix(1 0 0 -1 0 792)" d="M74.3278 513.854C 72.97179 513.854 71.8678 512.751 71.8678 511.394L71.8678 511.394L71.8678 60.32401C 71.8678 58.96802 72.97179 57.86401 74.3278 57.86401L74.3278 57.86401L305.2098 57.86401C 306.5658 57.86401 307.6698 58.96802 307.6698 60.32401L307.6698 60.32401L307.6698 511.394C 307.6698 512.751 306.5658 513.854 305.2098 513.854L305.2098 513.854L74.3278 513.854z" stroke="#000000" stroke-width="0.75" fill="none" stroke-opacity="0.4980392" /></g></g></g><g clip-path="url(#5)"><path id="2113" transform="matrix(1 0 0 -1 0 792)" d="M326.086 435.361L549.799 435.361L549.799 460.865L326.086 460.865z" stroke="none" fill="#F5F5F6" fill-rule="nonzero" /><path id="2114" transform="matrix(1 0 0 -1 0 792)" d="M326.0856 460.865L549.7986 460.865" stroke="#000000" stroke-width="0.5" fill="none" /><path id="2115" transform="matrix(1 0 0 -1 0 792)" d="M326.0856 435.1307L549.7466 435.1307" stroke="#000000" stroke-width="0.5" fill="none" /></g><g clip-path="url(#6)"><g><g clip-path="url(#7)"><path id="2671" transform="matrix(1 0 0 -1 0 792)" d="M322.5009 514.1293C 321.1449 514.1293 320.0409 513.0262 320.0409 511.6693L320.0409 511.6693L320.0409 332.1903C 320.0409 330.8333 321.1449 329.7303 322.5009 329.7303L322.5009 329.7303L553.3829 329.7303C 554.7389 329.7303 555.8429 330.8333 555.8429 332.1903L555.8429 332.1903L555.8429 511.6693C 555.8429 513.0262 554.7389 514.1293 553.3829 514.1293L553.3829 514.1293L322.5009 514.1293z" stroke="#000000" stroke-width="0.75" fill="none" stroke-opacity="0.4980392" /></g></g></g><g clip-path="url(#8)"><path id="2672" transform="matrix(1 0 0 -1 0 792)" d="M326.086 230.445L549.799 230.445L549.799 255.949L326.086 255.949z" stroke="none" fill="#F5F5F6" fill-rule="nonzero" /><path id="2673" transform="matrix(1 0 0 -1 0 792)" d="M326.0856 255.9486L549.7986 255.9486" stroke="#000000" stroke-width="0.5" fill="none" /><path id="2674" transform="matrix(1 0 0 -1 0 792)" d="M326.0856 230.2144L549.7466 230.2144" stroke="#000000" stroke-width="0.5" fill="none" /></g><g clip-path="url(#9)"><g><g clip-path="url(#10)"><path id="3292" transform="matrix(1 0 0 -1 0 792)" d="M322.501 318.2129C 321.145 318.2129 320.041 317.1099 320.041 315.7529L320.041 315.7529L320.041 124.4389C 320.041 123.0829 321.145 121.9789 322.501 121.9789L322.501 121.9789L553.383 121.9789C 554.739 121.9789 555.843 123.0829 555.843 124.4389L555.843 124.4389L555.843 315.7529C 555.843 317.1099 554.739 318.2129 553.383 318.2129L553.383 318.2129L322.501 318.2129z" stroke="#000000" stroke-width="0.75" fill="none" stroke-opacity="0.4980392" /></g></g></g><g clip-path="url(#11)"><path id="3310" transform="matrix(1 0 0 -1 0 792)" d="M555.6614 32.702L555.6614 -12.691" stroke="#000000" stroke-width="0.75" stroke-linecap="round" stroke-dasharray="0.75,1.464" fill="none" /><path id="3311" transform="matrix(1 0 0 -1 0 792)" d="M555.6614 -13.7986L555.6614 -13.7986M555.6614 34.9164L555.6614 34.9164" stroke="#000000" stroke-width="0.75" stroke-linecap="round" fill="none" /></g></g></g></svg>