<svg xmlns="http://www.w3.org/2000/svg" xmlns:xlink="http://www.w3.org/1999/xlink" id="body_70" preserveAspectRatio="xMinYMin meet" viewBox="0 0 816 1056"><defs><clipPath id="1"><path id="" clip-rule="evenodd" transform="matrix(1 0 0 1 0 0)" d="M0 792L0 0L0 0L612 0L612 0L612 792L612 792L0 792z" /></clipPath><clipPath id="2"><path id="" clip-rule="evenodd" transform="matrix(1 0 0 1 0 0)" d="M0 0L612 0L612 0L612 792L612 792L0 792z" /></clipPath></defs><g transform="matrix(1.333333 0 0 1.333333 0 0)"><g clip-path="url(#1)"><path id="1" transform="matrix(1 0 0 -1 0 792)" d="M60.9449 605.9168L60.9449 614.0818" stroke="#BBBDC0" stroke-width="8" fill="none" /><path id="2" transform="matrix(1 0 0 -1 0 792)" d="M60.9449 544.9089L60.9449 553.0739" stroke="#BBBDC0" stroke-width="8" fill="none" /><path id="3" transform="matrix(1 0 0 -1 0 792)" d="M60.9449 483.9011L60.9449 492.0661" stroke="#BBBDC0" stroke-width="8" fill="none" /><path id="4" transform="matrix(1 0 0 -1 0 792)" d="M60.9449 218.5467L60.9449 226.7117" stroke="#BBBDC0" stroke-width="8" fill="none" /><path id="5" transform="matrix(1 0 0 -1 0 792)" d="M60.9449 196.2082L60.9449 204.3732" stroke="#BBBDC0" stroke-width="8" fill="none" /><path id="6" transform="matrix(1 0 0 -1 0 792)" d="M60.9449 173.8696L60.9449 182.0346" stroke="#BBBDC0" stroke-width="8" fill="none" /><path id="7" transform="matrix(1 0 0 -1 0 792)" d="M60.9449 123.4916L60.9449 132.0266" stroke="#BBBDC0" stroke-width="8" fill="none" /><path id="1353" transform="matrix(1 0 0 -1 0 792)" d="M309.1653 727.1418L309.1653 735.3068" stroke="#BBBDC0" stroke-width="8" fill="none" /><path id="1354" transform="matrix(1 0 0 -1 0 792)" d="M309.1653 677.1339L309.1653 685.2989" stroke="#BBBDC0" stroke-width="8" fill="none" /><path id="1355" transform="matrix(1 0 0 -1 0 792)" d="M309.1653 605.126L309.1653 613.291" stroke="#BBBDC0" stroke-width="8" fill="none" /><path id="1356" transform="matrix(1 0 0 -1 0 792)" d="M309.1653 416.1103L309.1653 424.2753" stroke="#BBBDC0" stroke-width="8" fill="none" /><path id="1357" transform="matrix(1 0 0 -1 0 792)" d="M309.1653 214.5984L309.1653 222.7634" stroke="#BBBDC0" stroke-width="8" fill="none" /><path id="1793" transform="matrix(1 0 0 -1 0 792)" d="M462.394 474.864L541.134 474.864L541.134 449.114L462.394 449.114zM383.654 474.864L462.394 474.864L462.394 449.114L383.654 449.114zM304.913 474.864L383.653 474.864L383.653 449.114L304.913 449.114zM462.394 504.364L541.134 504.364L541.134 489.614L462.394 489.614zM383.654 504.364L462.394 504.364L462.394 489.614L383.654 489.614zM304.913 504.364L383.653 504.364L383.653 489.614L304.913 489.614zM462.394 533.864L541.134 533.864L541.134 519.114L462.394 519.114zM383.654 533.864L462.394 533.864L462.394 519.114L383.654 519.114zM304.913 533.864L383.653 533.864L383.653 519.114L304.913 519.114z" stroke="none" fill="#E5E6E7" fill-rule="nonzero" /><path id="1794" transform="matrix(1 0 0 -1 0 792)" d="M304.9134 533.8642L383.6534 533.8642" stroke="#000000" stroke-width="1" fill="none" /><path id="1795" transform="matrix(1 0 0 -1 0 792)" d="M383.6536 533.8642L462.3936 533.8642" stroke="#000000" stroke-width="1" fill="none" /><path id="1796" transform="matrix(1 0 0 -1 0 792)" d="M462.3937 533.8642L541.1337 533.8642" stroke="#000000" stroke-width="1" fill="none" /><g clip-path="url(#2)"><path id="2719" transform="matrix(1 0 0 -1 0 792)" d="M56.9448 32.702L56.9448 -12.691" stroke="#000000" stroke-width="0.75" stroke-linecap="round" stroke-dasharray="0.75,1.464" fill="none" /><path id="2720" transform="matrix(1 0 0 -1 0 792)" d="M56.9448 -13.7986L56.9448 -13.7986M56.9448 34.9164L56.9448 34.9164" stroke="#000000" stroke-width="0.75" stroke-linecap="round" fill="none" /></g></g></g></svg>