<svg xmlns="http://www.w3.org/2000/svg" xmlns:xlink="http://www.w3.org/1999/xlink" id="body_87" preserveAspectRatio="xMinYMin meet" viewBox="0 0 816 1056"><defs><clipPath id="1"><path id="" clip-rule="evenodd" transform="matrix(1 0 0 1 0 0)" d="M0 792L0 0L0 0L612 0L612 0L612 792L612 792L0 792z" /></clipPath><clipPath id="2"><path id="" clip-rule="evenodd" transform="matrix(1 0 0 1 0 0)" d="M70.866 382.677L307.417 382.677L307.417 382.677L307.417 56.69299L307.417 56.69299L70.866 56.69299z" /></clipPath><clipPath id="3"><path id="" clip-rule="evenodd" transform="matrix(1 0 0 1 0 0)" d="M61.8662 48.69299L316.417 48.69299L316.417 48.69299L316.417 373.637L316.417 373.637L61.8662 373.637z" /></clipPath><clipPath id="4"><path id="" clip-rule="evenodd" transform="matrix(1 0 0 1 0 0)" d="M70.866 669.928L307.417 669.928L307.417 669.928L307.417 381.279L307.417 381.279L70.866 381.279z" /></clipPath><clipPath id="5"><path id="" clip-rule="evenodd" transform="matrix(1 0 0 1 0 0)" d="M61.8662 373.278L316.417 373.278L316.417 373.278L316.417 672.636L316.417 672.636L61.8662 672.636z" /></clipPath><clipPath id="6"><path id="" clip-rule="evenodd" transform="matrix(1 0 0 1 0 0)" d="M319.087 303.512L555.638 303.512L555.638 303.512L555.638 56.69299L555.638 56.69299L319.087 56.69299z" /></clipPath><clipPath id="7"><path id="" clip-rule="evenodd" transform="matrix(1 0 0 1 0 0)" d="M310.087 48.69299L564.638 48.69299L564.638 48.69299L564.638 306.219L564.638 306.219L310.087 306.219z" /></clipPath><clipPath id="8"><path id="" clip-rule="evenodd" transform="matrix(1 0 0 1 0 0)" d="M319.087 529.291L555.638 529.291L555.638 529.291L555.638 313.807L555.638 313.807L319.087 313.807z" /></clipPath><clipPath id="9"><path id="" clip-rule="evenodd" transform="matrix(1 0 0 1 0 0)" d="M310.087 305.807L564.638 305.807L564.638 305.807L564.638 522.499L564.638 522.499L310.087 522.499z" /></clipPath><clipPath id="10"><path id="" clip-rule="evenodd" transform="matrix(1 0 0 1 0 0)" d="M319.087 733.3L555.638 733.3L555.638 733.3L555.638 528.316L555.638 528.316L319.087 528.316z" /></clipPath><clipPath id="11"><path id="" clip-rule="evenodd" transform="matrix(1 0 0 1 0 0)" d="M310.087 520.317L564.638 520.317L564.638 520.317L564.638 736.0083L564.638 736.0083L310.087 736.0083z" /></clipPath><clipPath id="12"><path id="" clip-rule="evenodd" transform="matrix(1 0 0 1 0 0)" d="M0 0L612 0L612 0L612 792L612 792L0 792z" /></clipPath></defs><g transform="matrix(1.333333 0 0 1.333333 0 0)"><g clip-path="url(#1)"><path id="1" transform="matrix(1 0 0 -1 0 792)" d="M73.701 735.3072L70.866 732.4722L70.866 423.9062L73.701 421.0712L304.582 421.0712L307.417 423.9062L307.417 732.4722L304.582 735.3072z" stroke="none" fill="#EAEBEC" fill-rule="nonzero" /><path id="2" transform="matrix(1 0 0 -1 0 792)" d="M77.035 647.414L301.248 647.414L301.248 672.918L77.035 672.918z" stroke="none" fill="#FFFEFE" fill-rule="nonzero" /><path id="3" transform="matrix(1 0 0 -1 0 792)" d="M77.0355 672.9179L301.2485 672.9179" stroke="#939597" stroke-width="0.5" fill="none" /><path id="4" transform="matrix(1 0 0 -1 0 792)" d="M77.035 632.745L301.248 632.745L301.248 652.084L77.035 652.084z" stroke="none" fill="#FFFEFE" fill-rule="nonzero" /><path id="5" transform="matrix(1 0 0 -1 0 792)" d="M78.0546 647.8313L300.7386 647.8313" stroke="#BBBDC0" stroke-width="0.51" stroke-linecap="round" stroke-dasharray="0.51,0.51" fill="none" /><path id="6" transform="matrix(1 0 0 -1 0 792)" d="M301.2485 647.8313L301.2485 647.8313M77.0355 647.8313L77.0355 647.8313" stroke="#BBBDC0" stroke-width="0.51" stroke-linecap="round" fill="none" /><path id="7" transform="matrix(1 0 0 -1 0 792)" d="M77.0355 632.5144L300.6965 632.5144" stroke="#939597" stroke-width="0.5" fill="none" /><g clip-path="url(#2)"><g><g clip-path="url(#3)"><path id="1157" transform="matrix(1 0 0 -1 0 792)" d="M73.8044 735.0572C 72.90839 734.1612 72.0124 733.2652 71.11639 732.3692L71.11639 732.3692L71.11639 424.0102L71.11639 424.0102L73.8044 421.3212L73.8044 421.3212L304.4794 421.3212C 305.3754 422.2172 306.2714 423.1132 307.1674 424.0092L307.1674 424.0092L307.1674 732.3692C 306.2714 733.2652 305.3754 734.1612 304.4794 735.0572L304.4794 735.0572L73.8044 735.0572z" stroke="#000000" stroke-width="0.5" fill="none" stroke-opacity="0.4980392" /></g></g></g><path id="1158" transform="matrix(1 0 0 -1 0 792)" d="M73.701 410.7213L70.866 407.8873L70.866 124.9073L73.701 122.0723L304.582 122.0723L307.417 124.9073L307.417 407.8873L304.582 410.7213z" stroke="none" fill="#EAEBEC" fill-rule="nonzero" /><path id="1159" transform="matrix(1 0 0 -1 0 792)" d="M77.035 322.828L301.248 322.828L301.248 348.332L77.035 348.332z" stroke="none" fill="#FFFEFE" fill-rule="nonzero" /><path id="1160" transform="matrix(1 0 0 -1 0 792)" d="M77.0355 348.3322L301.2485 348.3322" stroke="#939597" stroke-width="0.5" fill="none" /><path id="1161" transform="matrix(1 0 0 -1 0 792)" d="M77.0355 322.598L300.6965 322.598" stroke="#939597" stroke-width="0.5" fill="none" /><g clip-path="url(#4)"><g><g clip-path="url(#5)"><path id="2261" transform="matrix(1 0 0 -1 0 792)" d="M73.8045 410.4715C 72.90849 409.5755 72.0125 408.6795 71.11649 407.7835L71.11649 407.7835L71.11649 125.0105C 72.0125 124.1145 72.90849 123.2185 73.8045 122.3225L73.8045 122.3225L304.4795 122.3225C 305.3755 123.2185 306.2715 124.1145 307.1675 125.0105L307.1675 125.0105L307.1675 407.7835C 306.2715 408.6795 305.3755 409.5755 304.4795 410.4715L304.4795 410.4715L73.8045 410.4715z" stroke="#000000" stroke-width="0.5" fill="none" stroke-opacity="0.4980392" /></g></g></g><path id="2262" transform="matrix(1 0 0 -1 0 792)" d="M321.921 735.3072L319.087 732.4722L319.087 491.3232L321.921 488.4882L552.803 488.4882L555.638 491.3232L555.638 732.4722L552.803 735.3072z" stroke="none" fill="#EAEBEC" fill-rule="nonzero" /><path id="2263" transform="matrix(1 0 0 -1 0 792)" d="M325.256 656.414L549.469 656.414L549.469 681.918L325.256 681.918z" stroke="none" fill="#FFFEFE" fill-rule="nonzero" /><path id="2264" transform="matrix(1 0 0 -1 0 792)" d="M325.256 681.9178L549.469 681.9178" stroke="#939597" stroke-width="0.5" fill="none" /><path id="2265" transform="matrix(1 0 0 -1 0 792)" d="M325.256 641.745L549.469 641.745L549.469 661.084L325.256 661.084z" stroke="none" fill="#FFFEFE" fill-rule="nonzero" /><path id="2266" transform="matrix(1 0 0 -1 0 792)" d="M326.2751 656.8312L548.9591 656.8312" stroke="#BBBDC0" stroke-width="0.51" stroke-linecap="round" stroke-dasharray="0.51,0.51" fill="none" /><path id="2267" transform="matrix(1 0 0 -1 0 792)" d="M549.469 656.8312L549.469 656.8312M325.256 656.8312L325.256 656.8312" stroke="#BBBDC0" stroke-width="0.51" stroke-linecap="round" fill="none" /><path id="2268" transform="matrix(1 0 0 -1 0 792)" d="M325.256 641.5143L548.917 641.5143" stroke="#939597" stroke-width="0.5" fill="none" /><g clip-path="url(#6)"><g><g clip-path="url(#7)"><path id="3037" transform="matrix(1 0 0 -1 0 792)" d="M322.0249 735.0571C 321.1289 734.1611 320.2329 733.2651 319.3369 732.3691L319.3369 732.3691L319.3369 491.4271L319.3369 491.4271L322.0249 488.7391L322.0249 488.7391L552.6999 488.7391L552.6999 488.7391L555.3879 491.4271L555.3879 491.4271L555.3879 732.3691C 554.4919 733.2651 553.5959 734.1611 552.6999 735.0571L552.6999 735.0571L322.0249 735.0571z" stroke="#000000" stroke-width="0.5" fill="none" stroke-opacity="0.4980392" /></g></g></g><path id="3038" transform="matrix(1 0 0 -1 0 792)" d="M321.921 478.1934L319.087 475.3584L319.087 275.0444L321.921 272.2094L552.803 272.2094L555.638 275.0444L555.638 475.3584L552.803 478.1934z" stroke="none" fill="#EAEBEC" fill-rule="nonzero" /><path id="3039" transform="matrix(1 0 0 -1 0 792)" d="M325.256 399.3L549.469 399.3L549.469 424.804L325.256 424.804z" stroke="none" fill="#FFFEFE" fill-rule="nonzero" /><path id="3040" transform="matrix(1 0 0 -1 0 792)" d="M325.256 424.8039L549.469 424.8039" stroke="#939597" stroke-width="0.5" fill="none" /><path id="3041" transform="matrix(1 0 0 -1 0 792)" d="M325.256 384.631L549.469 384.631L549.469 403.97L325.256 403.97z" stroke="none" fill="#FFFEFE" fill-rule="nonzero" /><path id="3042" transform="matrix(1 0 0 -1 0 792)" d="M326.2751 399.7173L548.9591 399.7173" stroke="#BBBDC0" stroke-width="0.51" stroke-linecap="round" stroke-dasharray="0.51,0.51" fill="none" /><path id="3043" transform="matrix(1 0 0 -1 0 792)" d="M549.469 399.7173L549.469 399.7173M325.256 399.7173L325.256 399.7173" stroke="#BBBDC0" stroke-width="0.51" stroke-linecap="round" fill="none" /><path id="3044" transform="matrix(1 0 0 -1 0 792)" d="M325.256 384.4004L548.917 384.4004" stroke="#939597" stroke-width="0.5" fill="none" /><g clip-path="url(#8)"><g><g clip-path="url(#9)"><path id="3737" transform="matrix(1 0 0 -1 0 792)" d="M322.0249 477.9432C 321.1289 477.0472 320.2329 476.1512 319.3369 475.2552L319.3369 475.2552L319.3369 275.1472C 320.2329 274.2512 321.1289 273.3552 322.0249 272.4592L322.0249 272.4592L552.6999 272.4592C 553.5959 273.3552 554.4919 274.2512 555.3879 275.1472L555.3879 275.1472L555.3879 475.2552C 554.4919 476.1512 553.5959 477.0472 552.6999 477.9432L552.6999 477.9432L322.0249 477.9432z" stroke="#000000" stroke-width="0.5" fill="none" stroke-opacity="0.4980392" /></g></g></g><path id="3738" transform="matrix(1 0 0 -1 0 792)" d="M321.921 263.6838L319.087 260.8488L319.087 61.53381L321.921 58.69981L552.803 58.69981L555.638 61.53381L555.638 260.8488L552.803 263.6838z" stroke="none" fill="#EAEBEC" fill-rule="nonzero" /><path id="3739" transform="matrix(1 0 0 -1 0 792)" d="M325.256 166.79L549.469 166.79L549.469 192.294L325.256 192.294z" stroke="none" fill="#FFFEFE" fill-rule="nonzero" /><path id="3740" transform="matrix(1 0 0 -1 0 792)" d="M325.256 192.2941L549.469 192.2941" stroke="#939597" stroke-width="0.5" fill="none" /><path id="3741" transform="matrix(1 0 0 -1 0 792)" d="M325.256 152.121L549.469 152.121L549.469 171.46L325.256 171.46z" stroke="none" fill="#FFFEFE" fill-rule="nonzero" /><path id="3742" transform="matrix(1 0 0 -1 0 792)" d="M326.2751 167.2075L548.9591 167.2075" stroke="#BBBDC0" stroke-width="0.51" stroke-linecap="round" stroke-dasharray="0.51,0.51" fill="none" /><path id="3743" transform="matrix(1 0 0 -1 0 792)" d="M549.469 167.2075L549.469 167.2075M325.256 167.2075L325.256 167.2075" stroke="#BBBDC0" stroke-width="0.51" stroke-linecap="round" fill="none" /><path id="3744" transform="matrix(1 0 0 -1 0 792)" d="M325.256 151.8906L548.917 151.8906" stroke="#939597" stroke-width="0.5" fill="none" /><g clip-path="url(#10)"><g><g clip-path="url(#11)"><path id="4309" transform="matrix(1 0 0 -1 0 792)" d="M322.0249 263.4334C 321.1289 262.5374 320.2329 261.6414 319.3369 260.7454L319.3369 260.7454L319.3369 61.63741C 320.2329 60.74141 321.1289 59.84541 322.0249 58.94942L322.0249 58.94942L552.6999 58.94942C 553.5959 59.84541 554.4919 60.74141 555.3879 61.63741L555.3879 61.63741L555.3879 260.7454C 554.4919 261.6414 553.5959 262.5374 552.6999 263.4334L552.6999 263.4334L322.0249 263.4334z" stroke="#000000" stroke-width="0.5" fill="none" stroke-opacity="0.4980392" /></g></g></g><g clip-path="url(#12)"><path id="4326" transform="matrix(1 0 0 -1 0 792)" d="M555.6614 32.702L555.6614 -12.691" stroke="#000000" stroke-width="0.75" stroke-linecap="round" stroke-dasharray="0.75,1.464" fill="none" /><path id="4327" transform="matrix(1 0 0 -1 0 792)" d="M555.6614 -13.7986L555.6614 -13.7986M555.6614 34.9164L555.6614 34.9164" stroke="#000000" stroke-width="0.75" stroke-linecap="round" fill="none" /></g></g></g></svg>