<svg xmlns="http://www.w3.org/2000/svg" xmlns:xlink="http://www.w3.org/1999/xlink" id="body_14" preserveAspectRatio="xMinYMin meet" viewBox="0 0 816 1056"><defs><clipPath id="1"><path id="" clip-rule="evenodd" transform="matrix(1 0 0 1 0 0)" d="M0 792L0 0L0 0L612 0L612 0L612 792L612 792L0 792z" /></clipPath><clipPath id="2"><path id="" clip-rule="evenodd" transform="matrix(1 0 0 1 0 0)" d="M0 0L612 0L612 0L612 792L612 792L0 792z" /></clipPath></defs><g transform="matrix(1.333333 0 0 1.333333 0 0)"><g clip-path="url(#1)"><path id="1" transform="matrix(1 0 0 -1 0 792)" d="M284.4095 719.4486L56.69249 719.4486" stroke="#000000" stroke-width="1" fill="none" /><path id="2" transform="matrix(1 0 0 -1 0 792)" d="M60.9449 694.9793L60.9449 703.1443" stroke="#BBBDC0" stroke-width="8" fill="none" /><path id="3" transform="matrix(1 0 0 -1 0 792)" d="M60.9449 545.2943L60.9449 553.4593" stroke="#BBBDC0" stroke-width="8" fill="none" /><path id="4" transform="matrix(1 0 0 -1 0 792)" d="M60.9449 384.6093L60.9449 392.7743" stroke="#BBBDC0" stroke-width="8" fill="none" /><path id="1359" transform="matrix(1 0 0 -1 0 792)" d="M309.1653 727.1418L309.1653 735.3068" stroke="#BBBDC0" stroke-width="8" fill="none" /><path id="1360" transform="matrix(1 0 0 -1 0 792)" d="M309.1653 583.126L309.1653 591.291" stroke="#BBBDC0" stroke-width="8" fill="none" /><path id="1361" transform="matrix(1 0 0 -1 0 792)" d="M532.6299 451.9024L304.9129 451.9024" stroke="#000000" stroke-width="1" fill="none" /><path id="1362" transform="matrix(1 0 0 -1 0 792)" d="M309.1653 427.4331L309.1653 435.5981" stroke="#BBBDC0" stroke-width="8" fill="none" /><path id="1363" transform="matrix(1 0 0 -1 0 792)" d="M309.1653 239.0788L309.1653 247.2438" stroke="#BBBDC0" stroke-width="8" fill="none" /><g clip-path="url(#2)"><path id="2725" transform="matrix(1 0 0 -1 0 792)" d="M56.9448 32.702L56.9448 -12.691" stroke="#000000" stroke-width="0.75" stroke-linecap="round" stroke-dasharray="0.75,1.464" fill="none" /><path id="2726" transform="matrix(1 0 0 -1 0 792)" d="M56.9448 -13.7986L56.9448 -13.7986M56.9448 34.9164L56.9448 34.9164" stroke="#000000" stroke-width="0.75" stroke-linecap="round" fill="none" /></g></g></g></svg>