<svg xmlns="http://www.w3.org/2000/svg" xmlns:xlink="http://www.w3.org/1999/xlink" id="body_90" preserveAspectRatio="xMinYMin meet" viewBox="0 0 816 1056"><defs><clipPath id="1"><path id="" clip-rule="evenodd" transform="matrix(1 0 0 1 0 0)" d="M0 792L0 0L0 0L612 0L612 0L612 792L612 792L0 792z" /></clipPath><clipPath id="2"><path id="" clip-rule="evenodd" transform="matrix(1 0 0 1 0 0)" d="M56.693 322.01L293.244 322.01L293.244 322.01L293.244 56.69299L293.244 56.69299L56.693 56.69299z" /></clipPath><clipPath id="3"><path id="" clip-rule="evenodd" transform="matrix(1 0 0 1 0 0)" d="M47.693 48.69299L302.244 48.69299L302.244 48.69299L302.244 315.219L302.244 315.219L47.693 315.219z" /></clipPath><clipPath id="4"><path id="" clip-rule="evenodd" transform="matrix(1 0 0 1 0 0)" d="M56.693 626.742L293.244 626.742L293.244 626.742L293.244 322.006L293.244 322.006L56.693 322.006z" /></clipPath><clipPath id="5"><path id="" clip-rule="evenodd" transform="matrix(1 0 0 1 0 0)" d="M47.693 314.006L302.244 314.006L302.244 314.006L302.244 629.45L302.244 629.45L47.693 629.45z" /></clipPath><clipPath id="6"><path id="" clip-rule="evenodd" transform="matrix(1 0 0 1 0 0)" d="M304.914 449.83L541.465 449.83L541.465 449.83L541.465 91.84595L541.465 91.84595L304.914 91.84595z" /></clipPath><clipPath id="7"><path id="" clip-rule="evenodd" transform="matrix(1 0 0 1 0 0)" d="M295.913 83.84601L550.465 83.84601L550.465 83.84601L550.465 452.273L550.465 452.273L295.913 452.273z" /></clipPath><clipPath id="8"><path id="" clip-rule="evenodd" transform="matrix(1 0 0 1 0 0)" d="M304.914 704.484L541.465 704.484L541.465 704.484L541.465 460.083L541.465 460.083L304.914 460.083z" /></clipPath><clipPath id="9"><path id="" clip-rule="evenodd" transform="matrix(1 0 0 1 0 0)" d="M295.913 452.083L550.465 452.083L550.465 452.083L550.465 698.1918L550.465 698.1918L295.913 698.1918z" /></clipPath><clipPath id="10"><path id="" clip-rule="evenodd" transform="matrix(1 0 0 1 0 0)" d="M0 0L612 0L612 0L612 792L612 792L0 792z" /></clipPath></defs><g transform="matrix(1.333333 0 0 1.333333 0 0)"><g clip-path="url(#1)"><path id="1" transform="matrix(1 0 0 -1 0 792)" d="M59.5278 735.3072L56.6928 732.4722L56.6928 482.3232L59.5278 479.4882L290.4098 479.4882L293.2438 482.3232L293.2438 732.4722L290.4098 735.3072z" stroke="none" fill="#EAEBEC" fill-rule="nonzero" /><path id="2" transform="matrix(1 0 0 -1 0 792)" d="M62.862 647.414L287.075 647.414L287.075 672.918L62.862 672.918z" stroke="none" fill="#FFFEFE" fill-rule="nonzero" /><path id="3" transform="matrix(1 0 0 -1 0 792)" d="M62.8623 672.9178L287.0753 672.9178" stroke="#939597" stroke-width="0.5" fill="none" /><path id="4" transform="matrix(1 0 0 -1 0 792)" d="M62.862 632.745L287.075 632.745L287.075 652.084L62.862 652.084z" stroke="none" fill="#FFFEFE" fill-rule="nonzero" /><path id="5" transform="matrix(1 0 0 -1 0 792)" d="M63.8814 647.8312L286.5654 647.8312" stroke="#BBBDC0" stroke-width="0.51" stroke-linecap="round" stroke-dasharray="0.51,0.51" fill="none" /><path id="6" transform="matrix(1 0 0 -1 0 792)" d="M287.0753 647.8312L287.0753 647.8312M62.8623 647.8312L62.8623 647.8312" stroke="#BBBDC0" stroke-width="0.51" stroke-linecap="round" fill="none" /><path id="7" transform="matrix(1 0 0 -1 0 792)" d="M62.8623 632.5143L286.5233 632.5143" stroke="#939597" stroke-width="0.5" fill="none" /><g clip-path="url(#2)"><g><g clip-path="url(#3)"><path id="879" transform="matrix(1 0 0 -1 0 792)" d="M59.6312 735.0571C 58.7352 734.1611 57.8392 733.2651 56.9432 732.3691L56.9432 732.3691L56.9432 482.4271L56.9432 482.4271L59.6312 479.7391L59.6312 479.7391L290.3062 479.7391L290.3062 479.7391L292.9942 482.4271L292.9942 482.4271L292.9942 732.3691C 292.0982 733.2651 291.2022 734.1611 290.3062 735.0571L290.3062 735.0571L59.6312 735.0571z" stroke="#000000" stroke-width="0.5" fill="none" stroke-opacity="0.4980392" /></g></g></g><path id="880" transform="matrix(1 0 0 -1 0 792)" d="M59.5278 469.9935L56.6928 467.1595L56.6928 168.0925L59.5278 165.2575L290.4098 165.2575L293.2438 168.0925L293.2438 467.1595L290.4098 469.9935z" stroke="none" fill="#EAEBEC" fill-rule="nonzero" /><path id="881" transform="matrix(1 0 0 -1 0 792)" d="M62.862 382.1L287.075 382.1L287.075 407.604L62.862 407.604z" stroke="none" fill="#FFFEFE" fill-rule="nonzero" /><path id="882" transform="matrix(1 0 0 -1 0 792)" d="M62.8623 407.6043L287.0753 407.6043" stroke="#939597" stroke-width="0.5" fill="none" /><path id="883" transform="matrix(1 0 0 -1 0 792)" d="M62.862 367.431L287.075 367.431L287.075 386.77L62.862 386.77z" stroke="none" fill="#FFFEFE" fill-rule="nonzero" /><path id="884" transform="matrix(1 0 0 -1 0 792)" d="M63.8814 382.5177L286.5654 382.5177" stroke="#BBBDC0" stroke-width="0.51" stroke-linecap="round" stroke-dasharray="0.51,0.51" fill="none" /><path id="885" transform="matrix(1 0 0 -1 0 792)" d="M287.0753 382.5177L287.0753 382.5177M62.8623 382.5177L62.8623 382.5177" stroke="#BBBDC0" stroke-width="0.51" stroke-linecap="round" fill="none" /><path id="886" transform="matrix(1 0 0 -1 0 792)" d="M62.8623 367.2008L286.5233 367.2008" stroke="#939597" stroke-width="0.5" fill="none" /><g clip-path="url(#4)"><g><g clip-path="url(#5)"><path id="1988" transform="matrix(1 0 0 -1 0 792)" d="M59.6312 469.7436C 58.7352 468.8476 57.8392 467.9516 56.9432 467.0556L56.9432 467.0556L56.9432 168.1966L56.9432 168.1966L59.6312 165.5076L59.6312 165.5076L290.3062 165.5076C 291.2022 166.4036 292.0982 167.2996 292.9942 168.1956L292.9942 168.1956L292.9942 467.0556C 292.0982 467.9516 291.2022 468.8476 290.3062 469.7436L290.3062 469.7436L59.6312 469.7436z" stroke="#000000" stroke-width="0.5" fill="none" stroke-opacity="0.4980392" /></g></g></g><path id="2022" transform="matrix(1 0 0 -1 0 792)" d="M307.7478 700.1541L304.9138 697.3201L304.9138 345.0051L307.7478 342.1711L538.6298 342.1711L541.4638 345.0051L541.4638 697.3201L538.6298 700.1541z" stroke="none" fill="#EAEBEC" fill-rule="nonzero" /><path id="2023" transform="matrix(1 0 0 -1 0 792)" d="M311.083 612.261L535.296 612.261L535.296 637.765L311.083 637.765z" stroke="none" fill="#FFFEFE" fill-rule="nonzero" /><path id="2024" transform="matrix(1 0 0 -1 0 792)" d="M311.0828 637.7651L535.2958 637.7651" stroke="#939597" stroke-width="0.5" fill="none" /><path id="2025" transform="matrix(1 0 0 -1 0 792)" d="M311.0828 612.0308L534.7438 612.0308" stroke="#939597" stroke-width="0.5" fill="none" /><g clip-path="url(#6)"><g><g clip-path="url(#7)"><path id="3455" transform="matrix(1 0 0 -1 0 792)" d="M307.8517 699.9044C 306.9557 699.0084 306.0597 698.1124 305.1637 697.2164L305.1637 697.2164L305.1637 345.1084L305.1637 345.1084L307.8517 342.4204L307.8517 342.4204L538.5267 342.4204C 539.4227 343.3164 540.3187 344.2124 541.2147 345.1084L541.2147 345.1084L541.2147 697.2164L541.2147 697.2164L538.5267 699.9044L538.5267 699.9044L307.8517 699.9044z" stroke="#000000" stroke-width="0.5" fill="none" stroke-opacity="0.4980392" /></g></g></g><path id="3456" transform="matrix(1 0 0 -1 0 792)" d="M307.7478 331.9173L304.9138 329.0823L304.9138 99.3513L307.7478 96.5163L538.6298 96.5163L541.4638 99.3513L541.4638 329.0823L538.6298 331.9173z" stroke="none" fill="#EAEBEC" fill-rule="nonzero" /><path id="3457" transform="matrix(1 0 0 -1 0 792)" d="M311.083 244.024L535.296 244.024L535.296 269.528L311.083 269.528z" stroke="none" fill="#FFFEFE" fill-rule="nonzero" /><path id="3458" transform="matrix(1 0 0 -1 0 792)" d="M311.0827 269.528L535.2957 269.528" stroke="#939597" stroke-width="0.5" fill="none" /><path id="3459" transform="matrix(1 0 0 -1 0 792)" d="M311.083 229.355L535.296 229.355L535.296 248.694L311.083 248.694z" stroke="none" fill="#FFFEFE" fill-rule="nonzero" /><path id="3460" transform="matrix(1 0 0 -1 0 792)" d="M312.1019 244.4414L534.7859 244.4414" stroke="#BBBDC0" stroke-width="0.51" stroke-linecap="round" stroke-dasharray="0.51,0.51" fill="none" /><path id="3461" transform="matrix(1 0 0 -1 0 792)" d="M535.2957 244.4414L535.2957 244.4414M311.0827 244.4414L311.0827 244.4414" stroke="#BBBDC0" stroke-width="0.51" stroke-linecap="round" fill="none" /><path id="3462" transform="matrix(1 0 0 -1 0 792)" d="M311.0827 229.1244L534.7437 229.1244" stroke="#939597" stroke-width="0.5" fill="none" /><g clip-path="url(#8)"><g><g clip-path="url(#9)"><path id="4208" transform="matrix(1 0 0 -1 0 792)" d="M307.8517 331.6672C 306.9557 330.7712 306.0597 329.8752 305.1637 328.9792L305.1637 328.9792L305.1637 99.45421C 306.0597 98.55821 306.9557 97.6622 307.8517 96.7662L307.8517 96.7662L538.5267 96.7662C 539.4227 97.6622 540.3187 98.55821 541.2147 99.45421L541.2147 99.45421L541.2147 328.9792C 540.3187 329.8752 539.4227 330.7712 538.5267 331.6672L538.5267 331.6672L307.8517 331.6672z" stroke="#000000" stroke-width="0.5" fill="none" stroke-opacity="0.4980392" /></g></g></g><g clip-path="url(#10)"><path id="4225" transform="matrix(1 0 0 -1 0 792)" d="M56.9448 32.702L56.9448 -12.691" stroke="#000000" stroke-width="0.75" stroke-linecap="round" stroke-dasharray="0.75,1.464" fill="none" /><path id="4226" transform="matrix(1 0 0 -1 0 792)" d="M56.9448 -13.7986L56.9448 -13.7986M56.9448 34.9164L56.9448 34.9164" stroke="#000000" stroke-width="0.75" stroke-linecap="round" fill="none" /></g></g></g></svg>