<svg xmlns="http://www.w3.org/2000/svg" xmlns:xlink="http://www.w3.org/1999/xlink" id="body_42" preserveAspectRatio="xMinYMin meet" viewBox="0 0 816 1056"><defs><clipPath id="1"><path id="" clip-rule="evenodd" transform="matrix(1 0 0 1 0 0)" d="M0 792L0 0L0 0L612 0L612 0L612 792L612 792L0 792z" /></clipPath><clipPath id="2"><path id="" clip-rule="evenodd" transform="matrix(1 0 0 1 0 0)" d="M0 0L612 0L612 0L612 792L612 792L0 792z" /></clipPath></defs><g transform="matrix(1.333333 0 0 1.333333 0 0)"><g clip-path="url(#1)"><path id="1" transform="matrix(1 0 0 -1 0 792)" d="M60.9449 306.2475L60.9449 314.4125" stroke="#BBBDC0" stroke-width="8" fill="none" /><path id="2" transform="matrix(1 0 0 -1 0 792)" d="M60.9449 245.2396L60.9449 253.4046" stroke="#BBBDC0" stroke-width="8" fill="none" /><path id="3" transform="matrix(1 0 0 -1 0 792)" d="M60.9449 195.2318L60.9449 203.3968" stroke="#BBBDC0" stroke-width="8" fill="none" /><path id="4" transform="matrix(1 0 0 -1 0 792)" d="M60.9449 145.2239L60.9449 153.3889" stroke="#BBBDC0" stroke-width="8" fill="none" /><path id="1918" transform="matrix(1 0 0 -1 0 792)" d="M309.1653 727.1418L309.1653 735.3068" stroke="#BBBDC0" stroke-width="8" fill="none" /><path id="1919" transform="matrix(1 0 0 -1 0 792)" d="M309.1653 677.1339L309.1653 685.2989" stroke="#BBBDC0" stroke-width="8" fill="none" /><path id="1920" transform="matrix(1 0 0 -1 0 792)" d="M309.1653 616.126L309.1653 624.291" stroke="#BBBDC0" stroke-width="8" fill="none" /><path id="1921" transform="matrix(1 0 0 -1 0 792)" d="M309.1653 555.1182L309.1653 563.2832" stroke="#BBBDC0" stroke-width="8" fill="none" /><path id="1922" transform="matrix(1 0 0 -1 0 792)" d="M304.913 335.752L541.133 335.752L541.133 408.933L304.913 408.933z" stroke="none" fill="#F6F6F6" fill-rule="nonzero" /><path id="1923" transform="matrix(1 0 0 -1 0 792)" d="M541.1339 335.752L304.9139 335.752" stroke="#000000" stroke-width="0.5" fill="none" /><path id="1924" transform="matrix(1 0 0 -1 0 792)" d="M304.9134 408.9331L541.1334 408.9331" stroke="#000000" stroke-width="0.5" fill="none" /><g clip-path="url(#2)"><path id="3215" transform="matrix(1 0 0 -1 0 792)" d="M56.9448 32.702L56.9448 -12.691" stroke="#000000" stroke-width="0.75" stroke-linecap="round" stroke-dasharray="0.75,1.464" fill="none" /><path id="3216" transform="matrix(1 0 0 -1 0 792)" d="M56.9448 -13.7986L56.9448 -13.7986M56.9448 34.9164L56.9448 34.9164" stroke="#000000" stroke-width="0.75" stroke-linecap="round" fill="none" /></g></g></g></svg>