<svg xmlns="http://www.w3.org/2000/svg" xmlns:xlink="http://www.w3.org/1999/xlink" id="body_100" preserveAspectRatio="xMinYMin meet" viewBox="0 0 816 1056"><defs><clipPath id="1"><path id="" clip-rule="evenodd" transform="matrix(1 0 0 1 0 0)" d="M0 792L0 0L0 0L612 0L612 0L612 792L612 792L0 792z" /></clipPath><clipPath id="2"><path id="" clip-rule="evenodd" transform="matrix(1 0 0 1 0 0)" d="M0 0L612 0L612 0L612 792L612 792L0 792z" /></clipPath></defs><g transform="matrix(1.333333 0 0 1.333333 0 0)"><g clip-path="url(#1)"><path id="140" transform="matrix(1 0 0 -1 0 792)" d="M60.9449 621.5188L60.9449 629.6838" stroke="#BBBDC0" stroke-width="8" fill="none" /><path id="141" transform="matrix(1 0 0 -1 0 792)" d="M60.9449 599.1802L60.9449 607.3452" stroke="#BBBDC0" stroke-width="8" fill="none" /><path id="142" transform="matrix(1 0 0 -1 0 792)" d="M60.9449 560.1723L60.9449 568.3373" stroke="#BBBDC0" stroke-width="8" fill="none" /><path id="600" transform="matrix(1 0 0 -1 0 792)" d="M309.1653 672.1093L309.1653 680.2743" stroke="#BBBDC0" stroke-width="8" fill="none" /><path id="601" transform="matrix(1 0 0 -1 0 792)" d="M309.1653 633.1014L309.1653 641.2664" stroke="#BBBDC0" stroke-width="8" fill="none" /><path id="602" transform="matrix(1 0 0 -1 0 792)" d="M309.1653 583.0936L309.1653 591.2586" stroke="#BBBDC0" stroke-width="8" fill="none" /><path id="603" transform="matrix(1 0 0 -1 0 792)" d="M309.1653 533.0857L309.1653 541.2507" stroke="#BBBDC0" stroke-width="8" fill="none" /><path id="604" transform="matrix(1 0 0 -1 0 792)" d="M309.1653 510.7471L309.1653 518.9121" stroke="#BBBDC0" stroke-width="8" fill="none" /><path id="605" transform="matrix(1 0 0 -1 0 792)" d="M309.1653 488.4085L309.1653 496.5735" stroke="#BBBDC0" stroke-width="8" fill="none" /><path id="956" transform="matrix(1 0 0 -1 0 792)" d="M59.1906 425.0758L539.6346 425.0758" stroke="#000000" stroke-width="1" stroke-linecap="round" stroke-dasharray="1,1" fill="none" /><path id="957" transform="matrix(1 0 0 -1 0 792)" d="M540.6339 425.0758L540.6339 425.0758M57.1929 425.0758L57.1929 425.0758" stroke="#000000" stroke-width="1" stroke-linecap="round" fill="none" /><g clip-path="url(#2)"><path id="1612" transform="matrix(1 0 0 -1 0 792)" d="M56.9448 32.702L56.9448 -12.691" stroke="#000000" stroke-width="0.75" stroke-linecap="round" stroke-dasharray="0.75,1.464" fill="none" /><path id="1613" transform="matrix(1 0 0 -1 0 792)" d="M56.9448 -13.7986L56.9448 -13.7986M56.9448 34.9164L56.9448 34.9164" stroke="#000000" stroke-width="0.75" stroke-linecap="round" fill="none" /></g></g></g></svg>