<svg xmlns="http://www.w3.org/2000/svg" xmlns:xlink="http://www.w3.org/1999/xlink" id="body_80" preserveAspectRatio="xMinYMin meet" viewBox="0 0 816 1056"><defs><clipPath id="1"><path id="" clip-rule="evenodd" transform="matrix(1 0 0 1 0 0)" d="M0 792L0 0L0 0L612 0L612 0L612 792L612 792L0 792z" /></clipPath><clipPath id="2"><path id="" clip-rule="evenodd" transform="matrix(1 0 0 1 0 0)" d="M56.693 252.508L293.244 252.508L293.244 252.508L293.244 56.69299L293.244 56.69299L56.693 56.69299z" /></clipPath><clipPath id="3"><path id="" clip-rule="evenodd" transform="matrix(1 0 0 1 0 0)" d="M47.693 48.69299L302.244 48.69299L302.244 48.69299L302.244 241.215L302.244 241.215L47.693 241.215z" /></clipPath><clipPath id="4"><path id="" clip-rule="evenodd" transform="matrix(1 0 0 1 0 0)" d="M56.693 545.261L293.244 545.261L293.244 545.261L293.244 251.442L293.244 251.442L56.693 251.442z" /></clipPath><clipPath id="5"><path id="" clip-rule="evenodd" transform="matrix(1 0 0 1 0 0)" d="M47.693 243.443L302.244 243.443L302.244 243.443L302.244 547.97L302.244 547.97L47.693 547.97z" /></clipPath><clipPath id="6"><path id="" clip-rule="evenodd" transform="matrix(1 0 0 1 0 0)" d="M56.693 708.32L293.244 708.32L293.244 708.32L293.244 556.923L293.244 556.923L56.693 556.923z" /></clipPath><clipPath id="7"><path id="" clip-rule="evenodd" transform="matrix(1 0 0 1 0 0)" d="M47.693 548.923L302.244 548.923L302.244 548.923L302.244 702.0282L302.244 702.0282L47.693 702.0282z" /></clipPath><clipPath id="8"><path id="" clip-rule="evenodd" transform="matrix(1 0 0 1 0 0)" d="M304.914 292.094L541.465 292.094L541.465 292.094L541.465 56.69299L541.465 56.69299L304.914 56.69299z" /></clipPath><clipPath id="9"><path id="" clip-rule="evenodd" transform="matrix(1 0 0 1 0 0)" d="M295.913 48.69299L550.465 48.69299L550.465 48.69299L550.465 294.802L550.465 294.802L295.913 294.802z" /></clipPath><clipPath id="10"><path id="" clip-rule="evenodd" transform="matrix(1 0 0 1 0 0)" d="M304.914 426.343L541.465 426.343L541.465 426.343L541.465 302.946L541.465 302.946L304.914 302.946z" /></clipPath><clipPath id="11"><path id="" clip-rule="evenodd" transform="matrix(1 0 0 1 0 0)" d="M295.913 294.946L550.465 294.946L550.465 294.946L550.465 429.051L550.465 429.051L295.913 429.051z" /></clipPath><clipPath id="12"><path id="" clip-rule="evenodd" transform="matrix(1 0 0 1 0 0)" d="M304.914 652.71L541.465 652.71L541.465 652.71L541.465 436.309L541.465 436.309L304.914 436.309z" /></clipPath><clipPath id="13"><path id="" clip-rule="evenodd" transform="matrix(1 0 0 1 0 0)" d="M295.913 428.309L550.465 428.309L550.465 428.309L550.465 655.418L550.465 655.418L295.913 655.418z" /></clipPath><clipPath id="14"><path id="" clip-rule="evenodd" transform="matrix(1 0 0 1 0 0)" d="M0 0L612 0L612 0L612 792L612 792L0 792z" /></clipPath></defs><g transform="matrix(1.333333 0 0 1.333333 0 0)"><g clip-path="url(#1)"><path id="1" transform="matrix(1 0 0 -1 0 792)" d="M59.5278 735.3072L56.6928 732.4722L56.6928 556.3272L59.5278 553.4932L290.4098 553.4932L293.2438 556.3272L293.2438 732.4722L290.4098 735.3072z" stroke="none" fill="#EAEBEC" fill-rule="nonzero" /><path id="2" transform="matrix(1 0 0 -1 0 792)" d="M62.862 656.414L287.075 656.414L287.075 681.918L62.862 681.918z" stroke="none" fill="#FFFEFE" fill-rule="nonzero" /><path id="3" transform="matrix(1 0 0 -1 0 792)" d="M62.8623 681.9178L287.0753 681.9178" stroke="#939597" stroke-width="0.5" fill="none" /><path id="4" transform="matrix(1 0 0 -1 0 792)" d="M62.8623 656.1836L286.5233 656.1836" stroke="#939597" stroke-width="0.5" fill="none" /><g clip-path="url(#2)"><g><g clip-path="url(#3)"><path id="570" transform="matrix(1 0 0 -1 0 792)" d="M59.6311 735.0571C 58.7351 734.1611 57.8391 733.2651 56.9431 732.3691L56.9431 732.3691L56.9431 556.4312C 57.8391 555.5352 58.7351 554.6392 59.6311 553.7432L59.6311 553.7432L290.3061 553.7432C 291.2021 554.6392 292.0981 555.5352 292.9941 556.4312L292.9941 556.4312L292.9941 732.3691C 292.0981 733.2651 291.2021 734.1611 290.3061 735.0571L290.3061 735.0571L59.6311 735.0571z" stroke="#000000" stroke-width="0.5" fill="none" stroke-opacity="0.4980392" /></g></g></g><path id="571" transform="matrix(1 0 0 -1 0 792)" d="M59.5278 540.5571L56.6928 537.7221L56.6928 249.5731L59.5278 246.7381L290.4098 246.7381L293.2438 249.5731L293.2438 537.7221L290.4098 540.5571z" stroke="none" fill="#EAEBEC" fill-rule="nonzero" /><path id="572" transform="matrix(1 0 0 -1 0 792)" d="M62.862 452.664L287.075 452.664L287.075 478.168L62.862 478.168z" stroke="none" fill="#FFFEFE" fill-rule="nonzero" /><path id="573" transform="matrix(1 0 0 -1 0 792)" d="M62.8623 478.1675L287.0753 478.1675" stroke="#939597" stroke-width="0.5" fill="none" /><path id="574" transform="matrix(1 0 0 -1 0 792)" d="M62.862 437.994L287.075 437.994L287.075 457.333L62.862 457.333z" stroke="none" fill="#FFFEFE" fill-rule="nonzero" /><path id="575" transform="matrix(1 0 0 -1 0 792)" d="M63.8814 453.0809L286.5654 453.0809" stroke="#BBBDC0" stroke-width="0.51" stroke-linecap="round" stroke-dasharray="0.51,0.51" fill="none" /><path id="576" transform="matrix(1 0 0 -1 0 792)" d="M287.0753 453.0809L287.0753 453.0809M62.8623 453.0809L62.8623 453.0809" stroke="#BBBDC0" stroke-width="0.51" stroke-linecap="round" fill="none" /><path id="577" transform="matrix(1 0 0 -1 0 792)" d="M62.8623 437.7639L286.5233 437.7639" stroke="#939597" stroke-width="0.5" fill="none" /><g clip-path="url(#4)"><g><g clip-path="url(#5)"><path id="1614" transform="matrix(1 0 0 -1 0 792)" d="M59.6312 540.3068C 58.7352 539.4108 57.8392 538.5148 56.9432 537.6188L56.9432 537.6188L56.9432 249.6768C 57.8392 248.7808 58.7352 247.8848 59.6312 246.9888L59.6312 246.9888L290.3062 246.9888C 291.2022 247.8848 292.0982 248.7808 292.9942 249.6768L292.9942 249.6768L292.9942 537.6188C 292.0982 538.5148 291.2022 539.4108 290.3062 540.3068L290.3062 540.3068L59.6312 540.3068z" stroke="#000000" stroke-width="0.5" fill="none" stroke-opacity="0.4980392" /></g></g></g><path id="1615" transform="matrix(1 0 0 -1 0 792)" d="M59.5278 235.0773L56.6928 232.2423L56.6928 95.5143L59.5278 92.6803L290.4098 92.6803L293.2438 95.5143L293.2438 232.2423L290.4098 235.0773z" stroke="none" fill="#EAEBEC" fill-rule="nonzero" /><path id="1616" transform="matrix(1 0 0 -1 0 792)" d="M62.862 156.184L287.075 156.184L287.075 181.688L62.862 181.688z" stroke="none" fill="#FFFEFE" fill-rule="nonzero" /><path id="1617" transform="matrix(1 0 0 -1 0 792)" d="M62.8623 181.6877L287.0753 181.6877" stroke="#939597" stroke-width="0.5" fill="none" /><path id="1618" transform="matrix(1 0 0 -1 0 792)" d="M62.8623 155.9534L286.5233 155.9534" stroke="#939597" stroke-width="0.5" fill="none" /><g clip-path="url(#6)"><g><g clip-path="url(#7)"><path id="2005" transform="matrix(1 0 0 -1 0 792)" d="M59.6311 234.8269C 58.7351 233.9309 57.8391 233.0349 56.9431 232.1389L56.9431 232.1389L56.9431 95.6179L56.9431 95.6179L59.6311 92.9299L59.6311 92.9299L290.3061 92.9299C 291.2021 93.8259 292.0981 94.72191 292.9941 95.6179L292.9941 95.6179L292.9941 232.1389C 292.0981 233.0349 291.2021 233.9309 290.3061 234.8269L290.3061 234.8269L59.6311 234.8269z" stroke="#000000" stroke-width="0.5" fill="none" stroke-opacity="0.4980392" /></g></g></g><path id="2006" transform="matrix(1 0 0 -1 0 792)" d="M307.7478 735.3072L304.9138 732.4722L304.9138 502.7412L307.7478 499.9062L538.6298 499.9062L541.4638 502.7412L541.4638 732.4722L538.6298 735.3072z" stroke="none" fill="#EAEBEC" fill-rule="nonzero" /><path id="2007" transform="matrix(1 0 0 -1 0 792)" d="M311.083 647.414L535.296 647.414L535.296 672.918L311.083 672.918z" stroke="none" fill="#FFFEFE" fill-rule="nonzero" /><path id="2008" transform="matrix(1 0 0 -1 0 792)" d="M311.0827 672.9179L535.2957 672.9179" stroke="#939597" stroke-width="0.5" fill="none" /><path id="2009" transform="matrix(1 0 0 -1 0 792)" d="M311.083 632.745L535.296 632.745L535.296 652.084L311.083 652.084z" stroke="none" fill="#FFFEFE" fill-rule="nonzero" /><path id="2010" transform="matrix(1 0 0 -1 0 792)" d="M312.1019 647.8313L534.7859 647.8313" stroke="#BBBDC0" stroke-width="0.51" stroke-linecap="round" stroke-dasharray="0.51,0.51" fill="none" /><path id="2011" transform="matrix(1 0 0 -1 0 792)" d="M535.2957 647.8313L535.2957 647.8313M311.0827 647.8313L311.0827 647.8313" stroke="#BBBDC0" stroke-width="0.51" stroke-linecap="round" fill="none" /><path id="2012" transform="matrix(1 0 0 -1 0 792)" d="M311.0827 632.5144L534.7437 632.5144" stroke="#939597" stroke-width="0.5" fill="none" /><g clip-path="url(#8)"><g><g clip-path="url(#9)"><path id="2740" transform="matrix(1 0 0 -1 0 792)" d="M307.8517 735.0572C 306.9557 734.1612 306.0597 733.2652 305.1637 732.3692L305.1637 732.3692L305.1637 502.8442C 306.0597 501.9482 306.9557 501.0522 307.8517 500.1562L307.8517 500.1562L538.5267 500.1562C 539.4227 501.0522 540.3187 501.9482 541.2147 502.8442L541.2147 502.8442L541.2147 732.3692L541.2147 732.3692L538.5267 735.0572L538.5267 735.0572L307.8517 735.0572z" stroke="#000000" stroke-width="0.5" fill="none" stroke-opacity="0.4980392" /></g></g></g><path id="2741" transform="matrix(1 0 0 -1 0 792)" d="M307.7478 489.0546L304.9138 486.2196L304.9138 368.4916L307.7478 365.6576L538.6298 365.6576L541.4638 368.4916L541.4638 486.2196L538.6298 489.0546z" stroke="none" fill="#EAEBEC" fill-rule="nonzero" /><path id="2742" transform="matrix(1 0 0 -1 0 792)" d="M311.083 410.161L535.296 410.161L535.296 435.665L311.083 435.665z" stroke="none" fill="#FFFEFE" fill-rule="nonzero" /><path id="2743" transform="matrix(1 0 0 -1 0 792)" d="M311.0827 435.6649L535.2957 435.6649" stroke="#939597" stroke-width="0.5" fill="none" /><path id="2744" transform="matrix(1 0 0 -1 0 792)" d="M311.0827 409.9307L534.7437 409.9307" stroke="#939597" stroke-width="0.5" fill="none" /><g clip-path="url(#10)"><g><g clip-path="url(#11)"><path id="3025" transform="matrix(1 0 0 -1 0 792)" d="M307.8517 488.8042C 306.9557 487.9082 306.0597 487.0122 305.1637 486.1162L305.1637 486.1162L305.1637 368.5952C 306.0597 367.6992 306.9557 366.8032 307.8517 365.9072L307.8517 365.9072L538.5267 365.9072C 539.4227 366.8032 540.3187 367.6992 541.2147 368.5952L541.2147 368.5952L541.2147 486.1162C 540.3187 487.0122 539.4227 487.9082 538.5267 488.8042L538.5267 488.8042L307.8517 488.8042z" stroke="#000000" stroke-width="0.5" fill="none" stroke-opacity="0.4980392" /></g></g></g><path id="3026" transform="matrix(1 0 0 -1 0 792)" d="M307.7478 355.6917L304.9138 352.8567L304.9138 142.1257L307.7478 139.2907L538.6298 139.2907L541.4638 142.1257L541.4638 352.8567L538.6298 355.6917z" stroke="none" fill="#EAEBEC" fill-rule="nonzero" /><path id="3027" transform="matrix(1 0 0 -1 0 792)" d="M311.083 267.798L535.296 267.798L535.296 293.302L311.083 293.302z" stroke="none" fill="#FFFEFE" fill-rule="nonzero" /><path id="3028" transform="matrix(1 0 0 -1 0 792)" d="M311.0827 293.3021L535.2957 293.3021" stroke="#939597" stroke-width="0.5" fill="none" /><path id="3029" transform="matrix(1 0 0 -1 0 792)" d="M311.083 253.129L535.296 253.129L535.296 272.468L311.083 272.468z" stroke="none" fill="#FFFEFE" fill-rule="nonzero" /><path id="3030" transform="matrix(1 0 0 -1 0 792)" d="M312.1019 268.2155L534.7859 268.2155" stroke="#BBBDC0" stroke-width="0.51" stroke-linecap="round" stroke-dasharray="0.51,0.51" fill="none" /><path id="3031" transform="matrix(1 0 0 -1 0 792)" d="M535.2957 268.2155L535.2957 268.2155M311.0827 268.2155L311.0827 268.2155" stroke="#BBBDC0" stroke-width="0.51" stroke-linecap="round" fill="none" /><path id="3032" transform="matrix(1 0 0 -1 0 792)" d="M311.0827 252.8985L534.7437 252.8985" stroke="#939597" stroke-width="0.5" fill="none" /><g clip-path="url(#12)"><g><g clip-path="url(#13)"><path id="3677" transform="matrix(1 0 0 -1 0 792)" d="M307.8517 355.4413C 306.9557 354.5453 306.0597 353.6493 305.1637 352.7533L305.1637 352.7533L305.1637 142.2283C 306.0597 141.3323 306.9557 140.4363 307.8517 139.5403L307.8517 139.5403L538.5267 139.5403C 539.4227 140.4363 540.3187 141.3323 541.2147 142.2283L541.2147 142.2283L541.2147 352.7533C 540.3187 353.6493 539.4227 354.5453 538.5267 355.4413L538.5267 355.4413L307.8517 355.4413z" stroke="#000000" stroke-width="0.5" fill="none" stroke-opacity="0.4980392" /></g></g></g><g clip-path="url(#14)"><path id="3694" transform="matrix(1 0 0 -1 0 792)" d="M56.9448 32.702L56.9448 -12.691" stroke="#000000" stroke-width="0.75" stroke-linecap="round" stroke-dasharray="0.75,1.464" fill="none" /><path id="3695" transform="matrix(1 0 0 -1 0 792)" d="M56.9448 -13.7986L56.9448 -13.7986M56.9448 34.9164L56.9448 34.9164" stroke="#000000" stroke-width="0.75" stroke-linecap="round" fill="none" /></g></g></g></svg>