<svg xmlns="http://www.w3.org/2000/svg" xmlns:xlink="http://www.w3.org/1999/xlink" id="body_2" preserveAspectRatio="xMinYMin meet" viewBox="0 0 816 1056"><defs><clipPath id="1"><path id="" clip-rule="evenodd" transform="matrix(1 0 0 1 0 0)" d="M0 792L0 0L0 0L612 0L612 0L612 792L612 792L0 792z" /></clipPath><clipPath id="2"><path id="" clip-rule="evenodd" transform="matrix(1 0 0 1 0 0)" d="M0 0L612 0L612 0L612 792L612 792L0 792z" /></clipPath></defs><g transform="matrix(1.333333 0 0 1.333333 0 0)"><g clip-path="url(#1)"><path id="9" transform="matrix(1 0 0 -1 0 792)" d="M60.5719 680.2306L60.5719 688.3956" stroke="#BCBEC0" stroke-width="8" fill="none" /><path id="10" transform="matrix(1 0 0 -1 0 792)" d="M60.5719 634.2227L60.5719 642.3877" stroke="#BCBEC0" stroke-width="8" fill="none" /><path id="11" transform="matrix(1 0 0 -1 0 792)" d="M60.5719 588.2148L60.5719 596.3798" stroke="#BCBEC0" stroke-width="8" fill="none" /><path id="12" transform="matrix(1 0 0 -1 0 792)" d="M60.5719 565.8763L60.5719 574.0413" stroke="#BCBEC0" stroke-width="8" fill="none" /><path id="13" transform="matrix(1 0 0 -1 0 792)" d="M60.5719 496.1991L60.5719 504.3641" stroke="#BCBEC0" stroke-width="8" fill="none" /><path id="14" transform="matrix(1 0 0 -1 0 792)" d="M60.5719 225.3329L60.5719 233.4979" stroke="#BCBEC0" stroke-width="8" fill="none" /><path id="15" transform="matrix(1 0 0 -1 0 792)" d="M60.5719 143.8211L60.5719 151.9861" stroke="#BCBEC0" stroke-width="8" fill="none" /><g clip-path="url(#2)"><path id="3781" transform="matrix(1 0 0 -1 0 792)" d="M56.9448 32.702L56.9448 -12.691" stroke="#000000" stroke-width="0.75" stroke-linecap="round" stroke-dasharray="0.75,1.464" fill="none" /><path id="3782" transform="matrix(1 0 0 -1 0 792)" d="M56.9448 -13.7986L56.9448 -13.7986M56.9448 34.9164L56.9448 34.9164" stroke="#000000" stroke-width="0.75" stroke-linecap="round" fill="none" /></g></g></g></svg>