<svg xmlns="http://www.w3.org/2000/svg" xmlns:xlink="http://www.w3.org/1999/xlink" id="body_19" preserveAspectRatio="xMinYMin meet" viewBox="0 0 816 1056"><defs><clipPath id="1"><path id="" clip-rule="evenodd" transform="matrix(1 0 0 1 0 0)" d="M0 792L0 0L0 0L612 0L612 0L612 792L612 792L0 792z" /></clipPath><clipPath id="2"><path id="" clip-rule="evenodd" transform="matrix(1 0 0 1 0 0)" d="M0 0L612 0L612 0L612 792L612 792L0 792z" /></clipPath></defs><g transform="matrix(1.333333 0 0 1.333333 0 0)"><g clip-path="url(#1)"><path id="1" transform="matrix(1 0 0 -1 0 792)" d="M70.866 719.682L307.086 719.682L307.086 738.142L70.866 738.142z" stroke="none" fill="#000000" fill-rule="nonzero" /><path id="2" transform="matrix(1 0 0 -1 0 792)" d="M73.3595 582.7372L305.5895 582.7372" stroke="#000000" stroke-width="1" stroke-linecap="round" stroke-dasharray="1,1" fill="none" /><path id="3" transform="matrix(1 0 0 -1 0 792)" d="M306.5861 582.7372L306.5861 582.7372M71.3661 582.7372L71.3661 582.7372" stroke="#000000" stroke-width="1" stroke-linecap="round" fill="none" /><path id="4" transform="matrix(1 0 0 -1 0 792)" d="M73.3595 488.0522L305.5895 488.0522" stroke="#000000" stroke-width="1" stroke-linecap="round" stroke-dasharray="1,1" fill="none" /><path id="5" transform="matrix(1 0 0 -1 0 792)" d="M306.5861 488.0522L306.5861 488.0522M71.3661 488.0522L71.3661 488.0522" stroke="#000000" stroke-width="1" stroke-linecap="round" fill="none" /><path id="6" transform="matrix(1 0 0 -1 0 792)" d="M75.1181 465.2983L75.1181 473.4633" stroke="#BBBDC0" stroke-width="8" fill="none" /><path id="7" transform="matrix(1 0 0 -1 0 792)" d="M75.1181 404.2904L75.1181 412.4554" stroke="#BBBDC0" stroke-width="8" fill="none" /><path id="1299" transform="matrix(1 0 0 -1 0 792)" d="M319.087 667.678L555.307 667.678L555.307 686.138L319.087 686.138z" stroke="none" fill="#EAEBEC" fill-rule="nonzero" /><path id="1300" transform="matrix(1 0 0 -1 0 792)" d="M323.3386 623.6488L323.3386 631.8138" stroke="#BBBDC0" stroke-width="8" fill="none" /><path id="1301" transform="matrix(1 0 0 -1 0 792)" d="M323.3386 584.6409L323.3386 592.8059" stroke="#BBBDC0" stroke-width="8" fill="none" /><path id="1302" transform="matrix(1 0 0 -1 0 792)" d="M323.3386 490.6331L323.3386 498.7981" stroke="#BBBDC0" stroke-width="8" fill="none" /><path id="1303" transform="matrix(1 0 0 -1 0 792)" d="M323.3386 368.9559L323.3386 377.1209" stroke="#BBBDC0" stroke-width="8" fill="none" /><g clip-path="url(#2)"><path id="2389" transform="matrix(1 0 0 -1 0 792)" d="M555.6614 32.702L555.6614 -12.691" stroke="#000000" stroke-width="0.75" stroke-linecap="round" stroke-dasharray="0.75,1.464" fill="none" /><path id="2390" transform="matrix(1 0 0 -1 0 792)" d="M555.6614 -13.7986L555.6614 -13.7986M555.6614 34.9164L555.6614 34.9164" stroke="#000000" stroke-width="0.75" stroke-linecap="round" fill="none" /></g></g></g></svg>