<svg xmlns="http://www.w3.org/2000/svg" xmlns:xlink="http://www.w3.org/1999/xlink" id="body_103" preserveAspectRatio="xMinYMin meet" viewBox="0 0 816 1056"><defs><clipPath id="1"><path id="" clip-rule="evenodd" transform="matrix(1 0 0 1 0 0)" d="M0 792L0 0L0 0L612 0L612 0L612 792L612 792L0 792z" /></clipPath><clipPath id="2"><path id="" clip-rule="evenodd" transform="matrix(1 0 0 1 0 0)" d="M69.449 742.969L306 742.969L306 742.969L306 274.394L306 274.394L69.449 274.394z" /></clipPath><clipPath id="3"><path id="" clip-rule="evenodd" transform="matrix(1 0 0 1 0 0)" d="M69.449 742.969L306 742.969L306 742.969L306 274.394L306 274.394L69.449 274.394z" /></clipPath><clipPath id="4"><path id="" clip-rule="evenodd" transform="matrix(1 0 0 1 0 0)" d="M60.4488 266.394L315 266.394L315 266.394L315 733.5913L315 733.5913L60.4488 733.5913z" /></clipPath><clipPath id="5"><path id="" clip-rule="evenodd" transform="matrix(1 0 0 1 0 0)" d="M319.486 459.042L556.037 459.042L556.037 459.042L556.037 274.394L556.037 274.394L319.486 274.394z" /></clipPath><clipPath id="6"><path id="" clip-rule="evenodd" transform="matrix(1 0 0 1 0 0)" d="M319.486 459.042L556.037 459.042L556.037 459.042L556.037 274.394L556.037 274.394L319.486 274.394z" /></clipPath><clipPath id="7"><path id="" clip-rule="evenodd" transform="matrix(1 0 0 1 0 0)" d="M310.485 266.393L565.036 266.393L565.036 266.393L565.036 461.63L565.036 461.63L310.485 461.63z" /></clipPath><clipPath id="8"><path id="" clip-rule="evenodd" transform="matrix(1 0 0 1 0 0)" d="M318.921 669.302L555.473 669.302L555.473 669.302L555.473 472.819L555.473 472.819L318.921 472.819z" /></clipPath><clipPath id="9"><path id="" clip-rule="evenodd" transform="matrix(1 0 0 1 0 0)" d="M318.921 669.302L555.473 669.302L555.473 669.302L555.473 472.819L555.473 472.819L318.921 472.819z" /></clipPath><clipPath id="10"><path id="" clip-rule="evenodd" transform="matrix(1 0 0 1 0 0)" d="M309.921 464.903L564.472 464.903L564.472 464.903L564.472 671.975L564.472 671.975L309.921 671.975z" /></clipPath><clipPath id="11"><path id="" clip-rule="evenodd" transform="matrix(1 0 0 1 0 0)" d="M0 0L612 0L612 0L612 792L612 792L0 792z" /></clipPath></defs><g transform="matrix(1.333333 0 0 1.333333 0 0)"><g clip-path="url(#1)"><path id="70" transform="matrix(1 0 0 -1 0 792)" d="M75.1181 687.3613L75.1181 695.5263" stroke="#BBBDC0" stroke-width="8" fill="none" /><path id="262" transform="matrix(1 0 0 -1 0 792)" d="M199.2283 687.3613L199.2283 695.5263" stroke="#BBBDC0" stroke-width="8" fill="none" /><path id="369" transform="matrix(1 0 0 -1 0 792)" d="M323.3386 687.3613L323.3386 695.5263" stroke="#BBBDC0" stroke-width="8" fill="none" /><path id="462" transform="matrix(1 0 0 -1 0 792)" d="M447.4489 676.3613L447.4489 695.5263" stroke="#BBBDC0" stroke-width="8" fill="none" /><g clip-path="url(#2)"><path id="612" transform="matrix(1 0 0 -1 0 792)" d="M75.868 429.463L299.581 429.463L299.581 463.967L75.868 463.967z" stroke="none" fill="#F5F5F6" fill-rule="nonzero" /><path id="613" transform="matrix(1 0 0 -1 0 792)" d="M75.8681 463.967L299.5811 463.967" stroke="#000000" stroke-width="0.5" fill="none" /><path id="614" transform="matrix(1 0 0 -1 0 792)" d="M75.8681 429.2328L299.5291 429.2328" stroke="#000000" stroke-width="0.5" fill="none" /></g><g clip-path="url(#3)"><g><g clip-path="url(#4)"><path id="2476" transform="matrix(1 0 0 -1 0 792)" d="M72.2834 517.2313C 70.9274 517.2313 69.8234 516.1283 69.8234 514.7713L69.8234 514.7713L69.8234 63.70132C 69.8234 62.34534 70.9274 61.24133 72.2834 61.24133L72.2834 61.24133L303.1654 61.24133C 304.5214 61.24133 305.6254 62.34534 305.6254 63.70132L305.6254 63.70132L305.6254 514.7713C 305.6254 516.1283 304.5214 517.2313 303.1654 517.2313L303.1654 517.2313L72.2834 517.2313z" stroke="#000000" stroke-width="0.75" fill="none" stroke-opacity="0.4980392" /></g></g></g><g clip-path="url(#5)"><path id="2477" transform="matrix(1 0 0 -1 0 792)" d="M325.905 438.463L549.618 438.463L549.618 463.967L325.905 463.967z" stroke="none" fill="#F5F5F6" fill-rule="nonzero" /><path id="2478" transform="matrix(1 0 0 -1 0 792)" d="M325.9045 463.9673L549.6175 463.9673" stroke="#000000" stroke-width="0.5" fill="none" /><path id="2479" transform="matrix(1 0 0 -1 0 792)" d="M325.9045 438.2331L549.5655 438.2331" stroke="#000000" stroke-width="0.5" fill="none" /></g><g clip-path="url(#6)"><g><g clip-path="url(#7)"><path id="3035" transform="matrix(1 0 0 -1 0 792)" d="M322.3199 517.2316C 320.9639 517.2316 319.8599 516.1286 319.8599 514.7716L319.8599 514.7716L319.8599 335.2926C 319.8599 333.9356 320.9639 332.8326 322.3199 332.8326L322.3199 332.8326L553.2019 332.8326C 554.5579 332.8326 555.6619 333.9356 555.6619 335.2926L555.6619 335.2926L555.6619 514.7716C 555.6619 516.1286 554.5579 517.2316 553.2019 517.2316L553.2019 517.2316L322.3199 517.2316z" stroke="#000000" stroke-width="0.75" fill="none" stroke-opacity="0.4980392" /></g></g></g><g clip-path="url(#8)"><path id="3036" transform="matrix(1 0 0 -1 0 792)" d="M325.34 230.953L549.053 230.953L549.053 256.457L325.34 256.457z" stroke="none" fill="#F5F5F6" fill-rule="nonzero" /><path id="3037" transform="matrix(1 0 0 -1 0 792)" d="M325.3405 256.4573L549.0535 256.4573" stroke="#000000" stroke-width="0.5" fill="none" /><path id="3038" transform="matrix(1 0 0 -1 0 792)" d="M325.3405 230.723L549.0015 230.723" stroke="#000000" stroke-width="0.5" fill="none" /></g><g clip-path="url(#9)"><g><g clip-path="url(#10)"><path id="3656" transform="matrix(1 0 0 -1 0 792)" d="M321.7559 318.7216C 320.3999 318.7216 319.2959 317.6186 319.2959 316.2616L319.2959 316.2616L319.2959 124.9476C 319.2959 123.5916 320.3999 122.4876 321.7559 122.4876L321.7559 122.4876L552.6379 122.4876C 553.9939 122.4876 555.0979 123.5916 555.0979 124.9476L555.0979 124.9476L555.0979 316.2616C 555.0979 317.6186 553.9939 318.7216 552.6379 318.7216L552.6379 318.7216L321.7559 318.7216z" stroke="#000000" stroke-width="0.75" fill="none" stroke-opacity="0.4980392" /></g></g></g><g clip-path="url(#11)"><path id="3674" transform="matrix(1 0 0 -1 0 792)" d="M555.6614 32.702L555.6614 -12.691" stroke="#000000" stroke-width="0.75" stroke-linecap="round" stroke-dasharray="0.75,1.464" fill="none" /><path id="3675" transform="matrix(1 0 0 -1 0 792)" d="M555.6614 -13.7986L555.6614 -13.7986M555.6614 34.9164L555.6614 34.9164" stroke="#000000" stroke-width="0.75" stroke-linecap="round" fill="none" /></g></g></g></svg>