<svg xmlns="http://www.w3.org/2000/svg" xmlns:xlink="http://www.w3.org/1999/xlink" id="body_46" preserveAspectRatio="xMinYMin meet" viewBox="0 0 816 1056"><defs><clipPath id="1"><path id="" clip-rule="evenodd" transform="matrix(1 0 0 1 0 0)" d="M0 792L0 0L0 0L612 0L612 0L612 792L612 792L0 792z" /></clipPath><clipPath id="2"><path id="" clip-rule="evenodd" transform="matrix(1 0 0 1 0 0)" d="M0 0L612 0L612 0L612 792L612 792L0 792z" /></clipPath></defs><g transform="matrix(1.333333 0 0 1.333333 0 0)"><g clip-path="url(#1)"><path id="32" transform="matrix(1 0 0 -1 0 792)" d="M357.165 133.498L541.134 133.498L541.134 119.098L357.165 119.098zM291.685 133.498L357.165 133.498L357.165 119.098L291.685 119.098zM226.772 133.498L291.685 133.498L291.685 119.098L226.772 119.098zM173.575 133.498L226.772 133.498L226.772 119.098L173.575 119.098zM119.339 133.498L173.575 133.498L173.575 119.098L119.339 119.098zM56.693 133.498L119.339 133.498L119.339 119.098L56.693 119.098zM357.165 191.498L541.134 191.498L541.134 157.498L357.165 157.498zM291.685 191.498L357.165 191.498L357.165 157.498L291.685 157.498zM226.772 191.498L291.685 191.498L291.685 157.498L226.772 157.498zM173.575 191.498L226.772 191.498L226.772 157.498L173.575 157.498zM119.339 191.498L173.575 191.498L173.575 157.498L119.339 157.498zM56.693 191.498L119.339 191.498L119.339 157.498L56.693 157.498zM357.165 229.898L541.134 229.898L541.134 205.898L357.165 205.898zM291.685 229.898L357.165 229.898L357.165 205.898L291.685 205.898zM226.772 229.898L291.685 229.898L291.685 205.898L226.772 205.898zM173.575 229.898L226.772 229.898L226.772 205.898L173.575 205.898zM119.339 229.898L173.575 229.898L173.575 205.898L119.339 205.898zM56.693 229.898L119.339 229.898L119.339 205.898L56.693 205.898zM357.165 277.898L541.134 277.898L541.134 253.898L357.165 253.898zM291.685 277.898L357.165 277.898L357.165 253.898L291.685 253.898zM226.772 277.898L291.685 277.898L291.685 253.898L226.772 253.898zM173.575 277.898L226.772 277.898L226.772 253.898L173.575 253.898zM119.339 277.898L173.575 277.898L173.575 253.898L119.339 253.898zM56.693 277.898L119.339 277.898L119.339 253.898L56.693 253.898zM357.165 325.898L541.134 325.898L541.134 301.898L357.165 301.898zM291.685 325.898L357.165 325.898L357.165 301.898L291.685 301.898zM226.772 325.898L291.685 325.898L291.685 301.898L226.772 301.898zM173.575 325.898L226.772 325.898L226.772 301.898L173.575 301.898zM119.339 325.898L173.575 325.898L173.575 301.898L119.339 301.898zM56.693 325.898L119.339 325.898L119.339 301.898L56.693 301.898zM357.165 373.898L541.134 373.898L541.134 349.898L357.165 349.898zM291.685 373.898L357.165 373.898L357.165 349.898L291.685 349.898zM226.772 373.898L291.685 373.898L291.685 349.898L226.772 349.898zM173.575 373.898L226.772 373.898L226.772 349.898L173.575 349.898zM119.339 373.898L173.575 373.898L173.575 349.898L119.339 349.898zM56.693 373.898L119.339 373.898L119.339 349.898L56.693 349.898zM357.165 412.298L541.134 412.298L541.134 397.898L357.165 397.898zM291.685 412.298L357.165 412.298L357.165 397.898L291.685 397.898zM226.772 412.298L291.685 412.298L291.685 397.898L226.772 397.898zM173.575 412.298L226.772 412.298L226.772 397.898L173.575 397.898zM119.339 412.298L173.575 412.298L173.575 397.898L119.339 397.898zM56.693 412.298L119.339 412.298L119.339 397.898L56.693 397.898zM357.165 460.298L541.134 460.298L541.134 436.298L357.165 436.298zM291.685 460.298L357.165 460.298L357.165 436.298L291.685 436.298zM226.772 460.298L291.685 460.298L291.685 436.298L226.772 436.298zM173.575 460.298L226.772 460.298L226.772 436.298L173.575 436.298zM119.339 460.298L173.575 460.298L173.575 436.298L119.339 436.298zM56.693 460.298L119.339 460.298L119.339 436.298L56.693 436.298zM357.165 508.298L541.134 508.298L541.134 484.298L357.165 484.298zM291.685 508.298L357.165 508.298L357.165 484.298L291.685 484.298zM226.772 508.298L291.685 508.298L291.685 484.298L226.772 484.298zM173.575 508.298L226.772 508.298L226.772 484.298L173.575 484.298zM119.339 508.298L173.575 508.298L173.575 484.298L119.339 484.298zM56.693 508.298L119.339 508.298L119.339 484.298L56.693 484.298zM357.165 556.298L541.134 556.298L541.134 532.298L357.165 532.298zM291.685 556.298L357.165 556.298L357.165 532.298L291.685 532.298zM226.772 556.298L291.685 556.298L291.685 532.298L226.772 532.298zM173.575 556.298L226.772 556.298L226.772 532.298L173.575 532.298zM119.339 556.298L173.575 556.298L173.575 532.298L119.339 532.298zM56.693 556.298L119.339 556.298L119.339 532.298L56.693 532.298zM357.165 604.698L541.134 604.698L541.134 570.698L357.165 570.698zM291.685 604.698L357.165 604.698L357.165 570.698L291.685 570.698zM226.772 604.698L291.685 604.698L291.685 570.698L226.772 570.698zM173.575 604.698L226.772 604.698L226.772 570.698L173.575 570.698zM119.339 604.698L173.575 604.698L173.575 570.698L119.339 570.698zM56.693 604.698L119.339 604.698L119.339 570.698L56.693 570.698zM357.165 652.698L541.134 652.698L541.134 628.698L357.165 628.698zM291.685 652.698L357.165 652.698L357.165 628.698L291.685 628.698zM226.772 652.698L291.685 652.698L291.685 628.698L226.772 628.698zM173.575 652.698L226.772 652.698L226.772 628.698L173.575 628.698zM119.339 652.698L173.575 652.698L173.575 628.698L119.339 628.698zM56.693 652.698L119.339 652.698L119.339 628.698L56.693 628.698z" stroke="none" fill="#ECEDEE" fill-rule="nonzero" /><path id="33" transform="matrix(1 0 0 -1 0 792)" d="M56.6929 676.698L119.3389 676.698" stroke="#000000" stroke-width="1" fill="none" /><path id="34" transform="matrix(1 0 0 -1 0 792)" d="M119.3386 676.698L173.5746 676.698" stroke="#000000" stroke-width="1" fill="none" /><path id="35" transform="matrix(1 0 0 -1 0 792)" d="M173.5748 676.698L226.7718 676.698" stroke="#000000" stroke-width="1" fill="none" /><path id="36" transform="matrix(1 0 0 -1 0 792)" d="M226.7717 676.698L291.6847 676.698" stroke="#000000" stroke-width="1" fill="none" /><path id="37" transform="matrix(1 0 0 -1 0 792)" d="M291.6851 676.698L357.1651 676.698" stroke="#000000" stroke-width="1" fill="none" /><path id="38" transform="matrix(1 0 0 -1 0 792)" d="M357.1653 676.698L541.1343 676.698" stroke="#000000" stroke-width="1" fill="none" /><g clip-path="url(#2)"><path id="2012" transform="matrix(1 0 0 -1 0 792)" d="M56.9448 32.702L56.9448 -12.691" stroke="#000000" stroke-width="0.75" stroke-linecap="round" stroke-dasharray="0.75,1.464" fill="none" /><path id="2013" transform="matrix(1 0 0 -1 0 792)" d="M56.9448 -13.7986L56.9448 -13.7986M56.9448 34.9164L56.9448 34.9164" stroke="#000000" stroke-width="0.75" stroke-linecap="round" fill="none" /></g></g></g></svg>