<svg xmlns="http://www.w3.org/2000/svg" xmlns:xlink="http://www.w3.org/1999/xlink" id="body_79" preserveAspectRatio="xMinYMin meet" viewBox="0 0 816 1056"><defs><clipPath id="1"><path id="" clip-rule="evenodd" transform="matrix(1 0 0 1 0 0)" d="M0 792L0 0L0 0L612 0L612 0L612 792L612 792L0 792z" /></clipPath><clipPath id="2"><path id="" clip-rule="evenodd" transform="matrix(1 0 0 1 0 0)" d="M70.866 252.508L307.417 252.508L307.417 252.508L307.417 56.69299L307.417 56.69299L70.866 56.69299z" /></clipPath><clipPath id="3"><path id="" clip-rule="evenodd" transform="matrix(1 0 0 1 0 0)" d="M61.8661 48.69299L316.417 48.69299L316.417 48.69299L316.417 241.215L316.417 241.215L61.8661 241.215z" /></clipPath><clipPath id="4"><path id="" clip-rule="evenodd" transform="matrix(1 0 0 1 0 0)" d="M70.866 545.429L307.417 545.429L307.417 545.429L307.417 251.61L307.417 251.61L70.866 251.61z" /></clipPath><clipPath id="5"><path id="" clip-rule="evenodd" transform="matrix(1 0 0 1 0 0)" d="M61.8662 243.61L316.417 243.61L316.417 243.61L316.417 548.137L316.417 548.137L61.8662 548.137z" /></clipPath><clipPath id="6"><path id="" clip-rule="evenodd" transform="matrix(1 0 0 1 0 0)" d="M70.866 708.32L307.417 708.32L307.417 708.32L307.417 556.923L307.417 556.923L70.866 556.923z" /></clipPath><clipPath id="7"><path id="" clip-rule="evenodd" transform="matrix(1 0 0 1 0 0)" d="M61.8662 548.923L316.417 548.923L316.417 548.923L316.417 702.0282L316.417 702.0282L61.8662 702.0282z" /></clipPath><clipPath id="8"><path id="" clip-rule="evenodd" transform="matrix(1 0 0 1 0 0)" d="M319.087 292.094L555.638 292.094L555.638 292.094L555.638 56.69299L555.638 56.69299L319.087 56.69299z" /></clipPath><clipPath id="9"><path id="" clip-rule="evenodd" transform="matrix(1 0 0 1 0 0)" d="M310.087 48.69299L564.638 48.69299L564.638 48.69299L564.638 294.802L564.638 294.802L310.087 294.802z" /></clipPath><clipPath id="10"><path id="" clip-rule="evenodd" transform="matrix(1 0 0 1 0 0)" d="M319.087 426.343L555.638 426.343L555.638 426.343L555.638 302.946L555.638 302.946L319.087 302.946z" /></clipPath><clipPath id="11"><path id="" clip-rule="evenodd" transform="matrix(1 0 0 1 0 0)" d="M310.087 294.946L564.638 294.946L564.638 294.946L564.638 429.051L564.638 429.051L310.087 429.051z" /></clipPath><clipPath id="12"><path id="" clip-rule="evenodd" transform="matrix(1 0 0 1 0 0)" d="M319.087 652.71L555.638 652.71L555.638 652.71L555.638 436.309L555.638 436.309L319.087 436.309z" /></clipPath><clipPath id="13"><path id="" clip-rule="evenodd" transform="matrix(1 0 0 1 0 0)" d="M310.087 428.309L564.638 428.309L564.638 428.309L564.638 655.418L564.638 655.418L310.087 655.418z" /></clipPath><clipPath id="14"><path id="" clip-rule="evenodd" transform="matrix(1 0 0 1 0 0)" d="M0 0L612 0L612 0L612 792L612 792L0 792z" /></clipPath></defs><g transform="matrix(1.333333 0 0 1.333333 0 0)"><g clip-path="url(#1)"><path id="1" transform="matrix(1 0 0 -1 0 792)" d="M73.701 735.3072L70.866 732.4722L70.866 556.3272L73.701 553.4932L304.582 553.4932L307.417 556.3272L307.417 732.4722L304.582 735.3072z" stroke="none" fill="#EAEBEC" fill-rule="nonzero" /><path id="2" transform="matrix(1 0 0 -1 0 792)" d="M77.035 656.414L301.248 656.414L301.248 681.918L77.035 681.918z" stroke="none" fill="#FFFEFE" fill-rule="nonzero" /><path id="3" transform="matrix(1 0 0 -1 0 792)" d="M77.0354 681.9178L301.2484 681.9178" stroke="#939597" stroke-width="0.5" fill="none" /><path id="4" transform="matrix(1 0 0 -1 0 792)" d="M77.0354 656.1836L300.6964 656.1836" stroke="#939597" stroke-width="0.5" fill="none" /><g clip-path="url(#2)"><g><g clip-path="url(#3)"><path id="570" transform="matrix(1 0 0 -1 0 792)" d="M73.8043 735.0571C 72.90829 734.1611 72.0123 733.2651 71.11629 732.3691L71.11629 732.3691L71.11629 556.4312C 72.0123 555.5352 72.90829 554.6392 73.8043 553.7432L73.8043 553.7432L304.4793 553.7432C 305.3753 554.6392 306.2713 555.5352 307.1673 556.4312L307.1673 556.4312L307.1673 732.3691C 306.2713 733.2651 305.3753 734.1611 304.4793 735.0571L304.4793 735.0571L73.8043 735.0571z" stroke="#000000" stroke-width="0.5" fill="none" stroke-opacity="0.4980392" /></g></g></g><path id="571" transform="matrix(1 0 0 -1 0 792)" d="M73.701 540.3897L70.866 537.5547L70.866 249.4057L73.701 246.5707L304.582 246.5707L307.417 249.4057L307.417 537.5547L304.582 540.3897z" stroke="none" fill="#EAEBEC" fill-rule="nonzero" /><path id="572" transform="matrix(1 0 0 -1 0 792)" d="M77.035 452.496L301.248 452.496L301.248 478L77.035 478z" stroke="none" fill="#FFFEFE" fill-rule="nonzero" /><path id="573" transform="matrix(1 0 0 -1 0 792)" d="M77.0355 478.0003L301.2485 478.0003" stroke="#939597" stroke-width="0.5" fill="none" /><path id="574" transform="matrix(1 0 0 -1 0 792)" d="M77.035 437.827L301.248 437.827L301.248 457.166L77.035 457.166z" stroke="none" fill="#FFFEFE" fill-rule="nonzero" /><path id="575" transform="matrix(1 0 0 -1 0 792)" d="M78.0546 452.9137L300.7386 452.9137" stroke="#BBBDC0" stroke-width="0.51" stroke-linecap="round" stroke-dasharray="0.51,0.51" fill="none" /><path id="576" transform="matrix(1 0 0 -1 0 792)" d="M301.2485 452.9137L301.2485 452.9137M77.0355 452.9137L77.0355 452.9137" stroke="#BBBDC0" stroke-width="0.51" stroke-linecap="round" fill="none" /><path id="577" transform="matrix(1 0 0 -1 0 792)" d="M77.0355 437.5968L300.6965 437.5968" stroke="#939597" stroke-width="0.5" fill="none" /><g clip-path="url(#4)"><g><g clip-path="url(#5)"><path id="1614" transform="matrix(1 0 0 -1 0 792)" d="M73.8044 540.1396C 72.90839 539.2436 72.0124 538.3476 71.11639 537.4516L71.11639 537.4516L71.11639 249.5096C 72.0124 248.6136 72.90839 247.7176 73.8044 246.8216L73.8044 246.8216L304.4794 246.8216C 305.3754 247.7176 306.2714 248.6136 307.1674 249.5096L307.1674 249.5096L307.1674 537.4516C 306.2714 538.3476 305.3754 539.2436 304.4794 540.1396L304.4794 540.1396L73.8044 540.1396z" stroke="#000000" stroke-width="0.5" fill="none" stroke-opacity="0.4980392" /></g></g></g><path id="1615" transform="matrix(1 0 0 -1 0 792)" d="M73.701 235.0773L70.866 232.2423L70.866 95.5143L73.701 92.6803L304.582 92.6803L307.417 95.5143L307.417 232.2423L304.582 235.0773z" stroke="none" fill="#EAEBEC" fill-rule="nonzero" /><path id="1616" transform="matrix(1 0 0 -1 0 792)" d="M77.035 156.184L301.248 156.184L301.248 181.688L77.035 181.688z" stroke="none" fill="#FFFEFE" fill-rule="nonzero" /><path id="1617" transform="matrix(1 0 0 -1 0 792)" d="M77.0355 181.6877L301.2485 181.6877" stroke="#939597" stroke-width="0.5" fill="none" /><path id="1618" transform="matrix(1 0 0 -1 0 792)" d="M77.0355 155.9534L300.6965 155.9534" stroke="#939597" stroke-width="0.5" fill="none" /><g clip-path="url(#6)"><g><g clip-path="url(#7)"><path id="2005" transform="matrix(1 0 0 -1 0 792)" d="M73.8044 234.8269C 72.90839 233.9309 72.0124 233.0349 71.11639 232.1389L71.11639 232.1389L71.11639 95.6179L71.11639 95.6179L73.8044 92.9299L73.8044 92.9299L304.4794 92.9299C 305.3754 93.8259 306.2714 94.72191 307.1674 95.6179L307.1674 95.6179L307.1674 232.1389C 306.2714 233.0349 305.3754 233.9309 304.4794 234.8269L304.4794 234.8269L73.8044 234.8269z" stroke="#000000" stroke-width="0.5" fill="none" stroke-opacity="0.4980392" /></g></g></g><path id="2006" transform="matrix(1 0 0 -1 0 792)" d="M321.921 735.3072L319.087 732.4722L319.087 502.7412L321.921 499.9062L552.803 499.9062L555.638 502.7412L555.638 732.4722L552.803 735.3072z" stroke="none" fill="#EAEBEC" fill-rule="nonzero" /><path id="2007" transform="matrix(1 0 0 -1 0 792)" d="M325.256 647.414L549.469 647.414L549.469 672.918L325.256 672.918z" stroke="none" fill="#FFFEFE" fill-rule="nonzero" /><path id="2008" transform="matrix(1 0 0 -1 0 792)" d="M325.256 672.9179L549.469 672.9179" stroke="#939597" stroke-width="0.5" fill="none" /><path id="2009" transform="matrix(1 0 0 -1 0 792)" d="M325.256 632.745L549.469 632.745L549.469 652.084L325.256 652.084z" stroke="none" fill="#FFFEFE" fill-rule="nonzero" /><path id="2010" transform="matrix(1 0 0 -1 0 792)" d="M326.2751 647.8313L548.9591 647.8313" stroke="#BBBDC0" stroke-width="0.51" stroke-linecap="round" stroke-dasharray="0.51,0.51" fill="none" /><path id="2011" transform="matrix(1 0 0 -1 0 792)" d="M549.469 647.8313L549.469 647.8313M325.256 647.8313L325.256 647.8313" stroke="#BBBDC0" stroke-width="0.51" stroke-linecap="round" fill="none" /><path id="2012" transform="matrix(1 0 0 -1 0 792)" d="M325.256 632.5144L548.917 632.5144" stroke="#939597" stroke-width="0.5" fill="none" /><g clip-path="url(#8)"><g><g clip-path="url(#9)"><path id="2740" transform="matrix(1 0 0 -1 0 792)" d="M322.0249 735.0572C 321.1289 734.1612 320.2329 733.2652 319.3369 732.3692L319.3369 732.3692L319.3369 502.8442C 320.2329 501.9482 321.1289 501.0522 322.0249 500.1562L322.0249 500.1562L552.6999 500.1562C 553.5959 501.0522 554.4919 501.9482 555.3879 502.8442L555.3879 502.8442L555.3879 732.3692L555.3879 732.3692L552.6999 735.0572L552.6999 735.0572L322.0249 735.0572z" stroke="#000000" stroke-width="0.5" fill="none" stroke-opacity="0.4980392" /></g></g></g><path id="2741" transform="matrix(1 0 0 -1 0 792)" d="M321.921 489.0546L319.087 486.2196L319.087 368.4916L321.921 365.6576L552.803 365.6576L555.638 368.4916L555.638 486.2196L552.803 489.0546z" stroke="none" fill="#EAEBEC" fill-rule="nonzero" /><path id="2742" transform="matrix(1 0 0 -1 0 792)" d="M325.256 410.161L549.469 410.161L549.469 435.665L325.256 435.665z" stroke="none" fill="#FFFEFE" fill-rule="nonzero" /><path id="2743" transform="matrix(1 0 0 -1 0 792)" d="M325.256 435.6649L549.469 435.6649" stroke="#939597" stroke-width="0.5" fill="none" /><path id="2744" transform="matrix(1 0 0 -1 0 792)" d="M325.256 409.9307L548.917 409.9307" stroke="#939597" stroke-width="0.5" fill="none" /><g clip-path="url(#10)"><g><g clip-path="url(#11)"><path id="3024" transform="matrix(1 0 0 -1 0 792)" d="M322.0249 488.8042C 321.1289 487.9082 320.2329 487.0122 319.3369 486.1162L319.3369 486.1162L319.3369 368.5952C 320.2329 367.6992 321.1289 366.8032 322.0249 365.9072L322.0249 365.9072L552.6999 365.9072C 553.5959 366.8032 554.4919 367.6992 555.3879 368.5952L555.3879 368.5952L555.3879 486.1162C 554.4919 487.0122 553.5959 487.9082 552.6999 488.8042L552.6999 488.8042L322.0249 488.8042z" stroke="#000000" stroke-width="0.5" fill="none" stroke-opacity="0.4980392" /></g></g></g><path id="3025" transform="matrix(1 0 0 -1 0 792)" d="M321.921 355.6917L319.087 352.8567L319.087 142.1257L321.921 139.2907L552.803 139.2907L555.638 142.1257L555.638 352.8567L552.803 355.6917z" stroke="none" fill="#EAEBEC" fill-rule="nonzero" /><path id="3026" transform="matrix(1 0 0 -1 0 792)" d="M325.256 267.798L549.469 267.798L549.469 293.302L325.256 293.302z" stroke="none" fill="#FFFEFE" fill-rule="nonzero" /><path id="3027" transform="matrix(1 0 0 -1 0 792)" d="M325.256 293.3021L549.469 293.3021" stroke="#939597" stroke-width="0.5" fill="none" /><path id="3028" transform="matrix(1 0 0 -1 0 792)" d="M325.256 253.129L549.469 253.129L549.469 272.468L325.256 272.468z" stroke="none" fill="#FFFEFE" fill-rule="nonzero" /><path id="3029" transform="matrix(1 0 0 -1 0 792)" d="M326.2751 268.2155L548.9591 268.2155" stroke="#BBBDC0" stroke-width="0.51" stroke-linecap="round" stroke-dasharray="0.51,0.51" fill="none" /><path id="3030" transform="matrix(1 0 0 -1 0 792)" d="M549.469 268.2155L549.469 268.2155M325.256 268.2155L325.256 268.2155" stroke="#BBBDC0" stroke-width="0.51" stroke-linecap="round" fill="none" /><path id="3031" transform="matrix(1 0 0 -1 0 792)" d="M325.256 252.8985L548.917 252.8985" stroke="#939597" stroke-width="0.5" fill="none" /><g clip-path="url(#12)"><g><g clip-path="url(#13)"><path id="3676" transform="matrix(1 0 0 -1 0 792)" d="M322.0249 355.4413C 321.1289 354.5453 320.2329 353.6493 319.3369 352.7533L319.3369 352.7533L319.3369 142.2283C 320.2329 141.3323 321.1289 140.4363 322.0249 139.5403L322.0249 139.5403L552.6999 139.5403C 553.5959 140.4363 554.4919 141.3323 555.3879 142.2283L555.3879 142.2283L555.3879 352.7533C 554.4919 353.6493 553.5959 354.5453 552.6999 355.4413L552.6999 355.4413L322.0249 355.4413z" stroke="#000000" stroke-width="0.5" fill="none" stroke-opacity="0.4980392" /></g></g></g><g clip-path="url(#14)"><path id="3693" transform="matrix(1 0 0 -1 0 792)" d="M555.6614 32.702L555.6614 -12.691" stroke="#000000" stroke-width="0.75" stroke-linecap="round" stroke-dasharray="0.75,1.464" fill="none" /><path id="3694" transform="matrix(1 0 0 -1 0 792)" d="M555.6614 -13.7986L555.6614 -13.7986M555.6614 34.9164L555.6614 34.9164" stroke="#000000" stroke-width="0.75" stroke-linecap="round" fill="none" /></g></g></g></svg>