<svg xmlns="http://www.w3.org/2000/svg" xmlns:xlink="http://www.w3.org/1999/xlink" id="body_45" preserveAspectRatio="xMinYMin meet" viewBox="0 0 816 1056"><defs><clipPath id="1"><path id="" clip-rule="evenodd" transform="matrix(1 0 0 1 0 0)" d="M0 792L0 0L0 0L612 0L612 0L612 792L612 792L0 792z" /></clipPath><clipPath id="2"><path id="" clip-rule="evenodd" transform="matrix(1 0 0 1 0 0)" d="M0 0L612 0L612 0L612 792L612 792L0 792z" /></clipPath></defs><g transform="matrix(1.333333 0 0 1.333333 0 0)"><g clip-path="url(#1)"><path id="1" transform="matrix(1 0 0 -1 0 792)" d="M71.5748 312.5684L71.5748 321.5684" stroke="#808284" stroke-width="2" fill="none" /><path id="182" transform="matrix(1 0 0 -1 0 792)" d="M368.504 407.217L555.307 407.217L555.307 392.817L368.504 392.817zM303.307 407.217L368.504 407.217L368.504 392.817L303.307 392.817zM237.118 407.217L303.307 407.217L303.307 392.817L237.118 392.817zM185.386 407.217L237.118 407.217L237.118 392.817L185.386 392.817zM131.528 407.217L185.386 407.217L185.386 392.817L131.528 392.817zM70.866 407.217L131.527 407.217L131.527 392.817L70.866 392.817zM368.504 436.017L555.307 436.017L555.307 421.617L368.504 421.617zM303.307 436.017L368.504 436.017L368.504 421.617L303.307 421.617zM237.118 436.017L303.307 436.017L303.307 421.617L237.118 421.617zM185.386 436.017L237.118 436.017L237.118 421.617L185.386 421.617zM131.528 436.017L185.386 436.017L185.386 421.617L131.528 421.617zM70.866 436.017L131.527 436.017L131.527 421.617L70.866 421.617zM368.504 474.417L555.307 474.417L555.307 450.417L368.504 450.417zM303.307 474.417L368.504 474.417L368.504 450.417L303.307 450.417zM237.118 474.417L303.307 474.417L303.307 450.417L237.118 450.417zM185.386 474.417L237.118 474.417L237.118 450.417L185.386 450.417zM131.528 474.417L185.386 474.417L185.386 450.417L131.528 450.417zM70.866 474.417L131.527 474.417L131.527 450.417L70.866 450.417zM368.504 503.217L555.307 503.217L555.307 488.817L368.504 488.817zM303.307 503.217L368.504 503.217L368.504 488.817L303.307 488.817zM237.118 503.217L303.307 503.217L303.307 488.817L237.118 488.817zM185.386 503.217L237.118 503.217L237.118 488.817L185.386 488.817zM131.528 503.217L185.386 503.217L185.386 488.817L131.528 488.817zM70.866 503.217L131.527 503.217L131.527 488.817L70.866 488.817zM368.504 532.017L555.307 532.017L555.307 517.617L368.504 517.617zM303.307 532.017L368.504 532.017L368.504 517.617L303.307 517.617zM237.118 532.017L303.307 532.017L303.307 517.617L237.118 517.617zM185.386 532.017L237.118 532.017L237.118 517.617L185.386 517.617zM131.528 532.017L185.386 532.017L185.386 517.617L131.528 517.617zM70.866 532.017L131.527 532.017L131.527 517.617L70.866 517.617zM368.504 570.417L555.307 570.417L555.307 546.417L368.504 546.417zM303.307 570.417L368.504 570.417L368.504 546.417L303.307 546.417zM237.118 570.417L303.307 570.417L303.307 546.417L237.118 546.417zM185.386 570.417L237.118 570.417L237.118 546.417L185.386 546.417zM131.528 570.417L185.386 570.417L185.386 546.417L131.528 546.417zM70.866 570.417L131.527 570.417L131.527 546.417L70.866 546.417zM368.504 599.217L555.307 599.217L555.307 584.817L368.504 584.817zM303.307 599.217L368.504 599.217L368.504 584.817L303.307 584.817zM237.118 599.217L303.307 599.217L303.307 584.817L237.118 584.817zM185.386 599.217L237.118 599.217L237.118 584.817L185.386 584.817zM131.528 599.217L185.386 599.217L185.386 584.817L131.528 584.817zM70.866 599.217L131.527 599.217L131.527 584.817L70.866 584.817z" stroke="none" fill="#E6E7E8" fill-rule="nonzero" /><path id="183" transform="matrix(1 0 0 -1 0 792)" d="M70.8661 613.2169L131.5271 613.2169" stroke="#000000" stroke-width="1" fill="none" /><path id="184" transform="matrix(1 0 0 -1 0 792)" d="M131.5276 613.2169L185.3856 613.2169" stroke="#000000" stroke-width="1" fill="none" /><path id="185" transform="matrix(1 0 0 -1 0 792)" d="M185.3858 613.2169L237.1178 613.2169" stroke="#000000" stroke-width="1" fill="none" /><path id="186" transform="matrix(1 0 0 -1 0 792)" d="M237.1181 613.2169L303.3071 613.2169" stroke="#000000" stroke-width="1" fill="none" /><path id="187" transform="matrix(1 0 0 -1 0 792)" d="M303.3071 613.2169L368.5041 613.2169" stroke="#000000" stroke-width="1" fill="none" /><path id="188" transform="matrix(1 0 0 -1 0 792)" d="M368.5039 613.2169L555.3069 613.2169" stroke="#000000" stroke-width="1" fill="none" /><path id="1114" transform="matrix(1 0 0 -1 0 792)" d="M368.929 119.147L555.307 119.147L555.307 95.147L368.929 95.147zM305.15 119.147L368.93 119.147L368.93 95.147L305.15 95.147zM238.11 119.147L305.149 119.147L305.149 95.147L238.11 95.147zM186.095 119.147L238.111 119.147L238.111 95.147L186.095 95.147zM133.228 119.147L186.094 119.147L186.094 95.147L133.228 95.147zM70.866 119.147L133.228 119.147L133.228 95.147L70.866 95.147zM368.929 157.547L555.307 157.547L555.307 133.547L368.929 133.547zM305.15 157.547L368.93 157.547L368.93 133.547L305.15 133.547zM238.11 157.547L305.149 157.547L305.149 133.547L238.11 133.547zM186.095 157.547L238.111 157.547L238.111 133.547L186.095 133.547zM133.228 157.547L186.094 157.547L186.094 133.547L133.228 133.547zM70.866 157.547L133.228 157.547L133.228 133.547L70.866 133.547zM368.929 186.347L555.307 186.347L555.307 171.947L368.929 171.947zM305.15 186.347L368.93 186.347L368.93 171.947L305.15 171.947zM238.11 186.347L305.149 186.347L305.149 171.947L238.11 171.947zM186.095 186.347L238.111 186.347L238.111 171.947L186.095 171.947zM133.228 186.347L186.094 186.347L186.094 171.947L133.228 171.947zM70.866 186.347L133.228 186.347L133.228 171.947L70.866 171.947zM368.929 234.747L555.307 234.747L555.307 220.347L368.929 220.347zM305.15 234.747L368.93 234.747L368.93 220.347L305.15 220.347zM238.11 234.747L305.149 234.747L305.149 220.347L238.11 220.347zM186.095 234.747L238.111 234.747L238.111 220.347L186.095 220.347zM133.228 234.747L186.094 234.747L186.094 220.347L133.228 220.347zM70.866 234.747L133.228 234.747L133.228 220.347L70.866 220.347zM368.929 263.571L555.307 263.571L555.307 249.147L368.929 249.147zM305.15 263.571L368.93 263.571L368.93 249.147L305.15 249.147zM238.11 263.571L305.149 263.571L305.149 249.147L238.11 249.147zM186.095 263.571L238.111 263.571L238.111 249.147L186.095 249.147zM133.228 263.571L186.094 263.571L186.094 249.147L133.228 249.147zM70.866 263.571L133.228 263.571L133.228 249.147L70.866 249.147z" stroke="none" fill="#EDEDEE" fill-rule="nonzero" /><path id="1115" transform="matrix(1 0 0 -1 0 792)" d="M70.8662 287.5706L133.2282 287.5706" stroke="#000000" stroke-width="1" fill="none" /><path id="1116" transform="matrix(1 0 0 -1 0 792)" d="M133.2284 287.5706L186.0944 287.5706" stroke="#000000" stroke-width="1" fill="none" /><path id="1117" transform="matrix(1 0 0 -1 0 792)" d="M186.0945 287.5706L238.1105 287.5706" stroke="#000000" stroke-width="1" fill="none" /><path id="1118" transform="matrix(1 0 0 -1 0 792)" d="M238.1103 287.5706L305.1493 287.5706" stroke="#000000" stroke-width="1" fill="none" /><path id="1119" transform="matrix(1 0 0 -1 0 792)" d="M305.1497 287.5706L368.9297 287.5706" stroke="#000000" stroke-width="1" fill="none" /><path id="1120" transform="matrix(1 0 0 -1 0 792)" d="M368.9292 287.5706L555.3072 287.5706" stroke="#000000" stroke-width="1" fill="none" /><g clip-path="url(#2)"><path id="1817" transform="matrix(1 0 0 -1 0 792)" d="M555.6614 32.702L555.6614 -12.691" stroke="#000000" stroke-width="0.75" stroke-linecap="round" stroke-dasharray="0.75,1.464" fill="none" /><path id="1818" transform="matrix(1 0 0 -1 0 792)" d="M555.6614 -13.7986L555.6614 -13.7986M555.6614 34.9164L555.6614 34.9164" stroke="#000000" stroke-width="0.75" stroke-linecap="round" fill="none" /></g></g></g></svg>