<svg xmlns="http://www.w3.org/2000/svg" xmlns:xlink="http://www.w3.org/1999/xlink" id="body_127" preserveAspectRatio="xMinYMin meet" viewBox="0 0 816 1056"><defs><clipPath id="1"><path id="" clip-rule="evenodd" transform="matrix(1 0 0 1 0 0)" d="M0 792L0 0L0 0L612 0L612 0L612 792L612 792L0 792z" /></clipPath><clipPath id="2"><path id="" clip-rule="evenodd" transform="matrix(1 0 0 1 0 0)" d="M0 0L612 0L612 0L612 792L612 792L0 792z" /></clipPath></defs><g transform="matrix(1.333333 0 0 1.333333 0 0)"><g clip-path="url(#1)"><path id="1" transform="matrix(1 0 0 -1 0 792)" d="M75.0974 727.1418L75.0974 735.3068" stroke="#000000" stroke-width="8" fill="none" /><path id="2" transform="matrix(1 0 0 -1 0 792)" d="M75.0974 645.6379L75.0974 653.8029" stroke="#000000" stroke-width="8" fill="none" /><path id="3" transform="matrix(1 0 0 -1 0 792)" d="M75.0974 541.2993L75.0974 549.4643" stroke="#000000" stroke-width="8" fill="none" /><path id="4" transform="matrix(1 0 0 -1 0 792)" d="M75.0974 426.9607L75.0974 435.1257" stroke="#000000" stroke-width="8" fill="none" /><path id="5" transform="matrix(1 0 0 -1 0 792)" d="M75.0974 335.4568L75.0974 343.6218" stroke="#000000" stroke-width="8" fill="none" /><path id="6" transform="matrix(1 0 0 -1 0 792)" d="M75.0974 243.9528L75.0974 252.1178" stroke="#000000" stroke-width="8" fill="none" /><path id="7" transform="matrix(1 0 0 -1 0 792)" d="M75.0974 172.4488L75.0974 180.6138" stroke="#000000" stroke-width="8" fill="none" /><path id="1854" transform="matrix(1 0 0 -1 0 792)" d="M323.3179 727.1418L323.3179 735.3068" stroke="#000000" stroke-width="8" fill="none" /><path id="1855" transform="matrix(1 0 0 -1 0 792)" d="M323.3179 612.8032L323.3179 620.9682" stroke="#000000" stroke-width="8" fill="none" /><path id="1856" transform="matrix(1 0 0 -1 0 792)" d="M323.3179 511.2993L323.3179 519.4643" stroke="#000000" stroke-width="8" fill="none" /><path id="1857" transform="matrix(1 0 0 -1 0 792)" d="M323.3179 419.7953L323.3179 427.9603" stroke="#000000" stroke-width="8" fill="none" /><path id="1858" transform="matrix(1 0 0 -1 0 792)" d="M323.3179 348.2914L323.3179 356.4564" stroke="#000000" stroke-width="8" fill="none" /><path id="1859" transform="matrix(1 0 0 -1 0 792)" d="M323.3179 256.7874L323.3179 264.9524" stroke="#000000" stroke-width="8" fill="none" /><g clip-path="url(#2)"><path id="3649" transform="matrix(1 0 0 -1 0 792)" d="M555.6614 32.702L555.6614 -12.691" stroke="#000000" stroke-width="0.75" stroke-linecap="round" stroke-dasharray="0.75,1.464" fill="none" /><path id="3650" transform="matrix(1 0 0 -1 0 792)" d="M555.6614 -13.7986L555.6614 -13.7986M555.6614 34.9164L555.6614 34.9164" stroke="#000000" stroke-width="0.75" stroke-linecap="round" fill="none" /></g></g></g></svg>