<svg xmlns="http://www.w3.org/2000/svg" xmlns:xlink="http://www.w3.org/1999/xlink" id="body_101" preserveAspectRatio="xMinYMin meet" viewBox="0 0 816 1056"><defs><clipPath id="1"><path id="" clip-rule="evenodd" transform="matrix(1 0 0 1 0 0)" d="M0 792L0 0L0 0L612 0L612 0L612 792L612 792L0 792z" /></clipPath><clipPath id="2"><path id="" clip-rule="evenodd" transform="matrix(1 0 0 1 0 0)" d="M70.866 471.262L307.418 471.262L307.418 471.262L307.418 56.69202L307.418 56.69202L70.866 56.69202z" /></clipPath><clipPath id="3"><path id="" clip-rule="evenodd" transform="matrix(1 0 0 1 0 0)" d="M61.8662 48.69299L316.417 48.69299L316.417 48.69299L316.417 473.971L316.417 473.971L61.8662 473.971z" /></clipPath><clipPath id="4"><path id="" clip-rule="evenodd" transform="matrix(1 0 0 1 0 0)" d="M319.087 278.842L555.638 278.842L555.638 278.842L555.638 56.69299L555.638 56.69299L319.087 56.69299z" /></clipPath><clipPath id="5"><path id="" clip-rule="evenodd" transform="matrix(1 0 0 1 0 0)" d="M310.087 48.69299L564.638 48.69299L564.638 48.69299L564.638 281.55L564.638 281.55L310.087 281.55z" /></clipPath><clipPath id="6"><path id="" clip-rule="evenodd" transform="matrix(1 0 0 1 0 0)" d="M319.087 485.119L555.638 485.119L555.638 485.119L555.638 289.528L555.638 289.528L319.087 289.528z" /></clipPath><clipPath id="7"><path id="" clip-rule="evenodd" transform="matrix(1 0 0 1 0 0)" d="M310.087 281.528L564.638 281.528L564.638 281.528L564.638 486.385L564.638 486.385L310.087 486.385z" /></clipPath><clipPath id="8"><path id="" clip-rule="evenodd" transform="matrix(1 0 0 1 0 0)" d="M0 0L612 0L612 0L612 792L612 792L0 792z" /></clipPath></defs><g transform="matrix(1.333333 0 0 1.333333 0 0)"><g clip-path="url(#1)"><path id="1" transform="matrix(1 0 0 -1 0 792)" d="M73.701 735.3072L70.866 732.4722L70.866 323.5712L73.7 320.7372L304.583 320.7372L307.418 323.5712L307.418 732.4722L304.583 735.3072z" stroke="none" fill="#EAEBEC" fill-rule="nonzero" /><path id="2" transform="matrix(1 0 0 -1 0 792)" d="M77.035 635.414L301.248 635.414L301.248 660.918L77.035 660.918z" stroke="none" fill="#FFFEFE" fill-rule="nonzero" /><path id="3" transform="matrix(1 0 0 -1 0 792)" d="M77.0354 660.9178L301.2484 660.9178" stroke="#939597" stroke-width="0.5" fill="none" /><path id="4" transform="matrix(1 0 0 -1 0 792)" d="M77.035 620.745L301.248 620.745L301.248 640.084L77.035 640.084z" stroke="none" fill="#FFFEFE" fill-rule="nonzero" /><path id="5" transform="matrix(1 0 0 -1 0 792)" d="M78.0546 635.8312L300.7386 635.8312" stroke="#BBBDC0" stroke-width="0.51" stroke-linecap="round" stroke-dasharray="0.51,0.51" fill="none" /><path id="6" transform="matrix(1 0 0 -1 0 792)" d="M301.2484 635.8312L301.2484 635.8312M77.0354 635.8312L77.0354 635.8312" stroke="#BBBDC0" stroke-width="0.51" stroke-linecap="round" fill="none" /><path id="7" transform="matrix(1 0 0 -1 0 792)" d="M77.0354 620.5143L300.6964 620.5143" stroke="#939597" stroke-width="0.5" fill="none" /><g clip-path="url(#2)"><g><g clip-path="url(#3)"><path id="1643" transform="matrix(1 0 0 -1 0 792)" d="M73.8044 735.0571C 72.90839 734.1611 72.0124 733.2651 71.11639 732.3691L71.11639 732.3691L71.11639 323.6751L71.11639 323.6751L73.8044 320.9871L73.8044 320.9871L304.4794 320.9871C 305.3754 321.8831 306.2714 322.7781 307.1674 323.6751L307.1674 323.6751L307.1674 732.3691C 306.2714 733.2651 305.3754 734.1602 304.4794 735.0571L304.4794 735.0571L73.8044 735.0571z" stroke="#000000" stroke-width="0.5" fill="none" stroke-opacity="0.4980392" /></g></g></g><path id="1644" transform="matrix(1 0 0 -1 0 792)" d="M321.921 735.3072L319.087 732.4722L319.087 515.9922L321.92 513.1582L552.804 513.1582L555.637 515.9922L555.637 732.4722L552.803 735.3072z" stroke="none" fill="#EAEBEC" fill-rule="nonzero" /><path id="1645" transform="matrix(1 0 0 -1 0 792)" d="M325.256 647.414L549.469 647.414L549.469 672.918L325.256 672.918z" stroke="none" fill="#FFFEFE" fill-rule="nonzero" /><path id="1646" transform="matrix(1 0 0 -1 0 792)" d="M325.2559 672.9178L549.4689 672.9178" stroke="#939597" stroke-width="0.5" fill="none" /><path id="1647" transform="matrix(1 0 0 -1 0 792)" d="M325.2559 647.1835L548.9169 647.1835" stroke="#939597" stroke-width="0.5" fill="none" /><g clip-path="url(#4)"><g><g clip-path="url(#5)"><path id="2359" transform="matrix(1 0 0 -1 0 792)" d="M322.0248 735.0571C 321.1288 734.1611 320.2328 733.2651 319.3368 732.3691L319.3368 732.3691L319.3368 516.0961C 320.2328 515.2001 321.1288 514.3041 322.0248 513.4081L322.0248 513.4081L552.6998 513.4081C 553.5958 514.3041 554.4918 515.2001 555.3878 516.0961L555.3878 516.0961L555.3878 732.3691L555.3878 732.3691L552.6998 735.0571L552.6998 735.0571L322.0248 735.0571z" stroke="#000000" stroke-width="0.5" fill="none" stroke-opacity="0.4980392" /></g></g></g><path id="2360" transform="matrix(1 0 0 -1 0 792)" d="M321.921 502.4718L319.087 499.6378L319.087 311.1578L321.921 308.3228L552.803 308.3228L555.637 311.1578L555.637 499.6378L552.803 502.4718z" stroke="none" fill="#EAEBEC" fill-rule="nonzero" /><path id="2361" transform="matrix(1 0 0 -1 0 792)" d="M325.256 423.579L549.469 423.579L549.469 449.083L325.256 449.083z" stroke="none" fill="#FFFEFE" fill-rule="nonzero" /><path id="2362" transform="matrix(1 0 0 -1 0 792)" d="M325.256 449.0827L549.469 449.0827" stroke="#939597" stroke-width="0.5" fill="none" /><path id="2363" transform="matrix(1 0 0 -1 0 792)" d="M325.256 423.3484L548.917 423.3484" stroke="#939597" stroke-width="0.5" fill="none" /><g clip-path="url(#6)"><g><g clip-path="url(#7)"><path id="2999" transform="matrix(1 0 0 -1 0 792)" d="M322.0249 502.222C 321.1289 501.326 320.2329 500.43 319.3369 499.534L319.3369 499.534L319.3369 311.261C 320.2329 310.365 321.1289 309.469 322.0249 308.573L322.0249 308.573L552.6999 308.573C 553.5959 309.469 554.4919 310.365 555.3879 311.261L555.3879 311.261L555.3879 499.534C 554.4919 500.43 553.5959 501.326 552.6999 502.222L552.6999 502.222L322.0249 502.222z" stroke="#000000" stroke-width="0.5" fill="none" stroke-opacity="0.4980392" /></g></g></g><g clip-path="url(#8)"><path id="3017" transform="matrix(1 0 0 -1 0 792)" d="M555.6614 32.702L555.6614 -12.691" stroke="#000000" stroke-width="0.75" stroke-linecap="round" stroke-dasharray="0.75,1.464" fill="none" /><path id="3018" transform="matrix(1 0 0 -1 0 792)" d="M555.6614 -13.7986L555.6614 -13.7986M555.6614 34.9164L555.6614 34.9164" stroke="#000000" stroke-width="0.75" stroke-linecap="round" fill="none" /></g></g></g></svg>