<svg xmlns="http://www.w3.org/2000/svg" xmlns:xlink="http://www.w3.org/1999/xlink" id="body_116" preserveAspectRatio="xMinYMin meet" viewBox="0 0 816 1056"><defs><clipPath id="1"><path id="" clip-rule="evenodd" transform="matrix(1 0 0 1 0 0)" d="M0 792L0 0L0 0L612 0L612 0L612 792L612 792L0 792z" /></clipPath><clipPath id="2"><path id="" clip-rule="evenodd" transform="matrix(1 0 0 1 0 0)" d="M0 0L612 0L612 0L612 792L612 792L0 792z" /></clipPath></defs><g transform="matrix(1.333333 0 0 1.333333 0 0)"><g clip-path="url(#1)"><path id="1" transform="matrix(1 0 0 -1 0 792)" d="M60.9449 593.776L60.9449 601.941" stroke="#BBBDC0" stroke-width="8" fill="none" /><path id="2" transform="matrix(1 0 0 -1 0 792)" d="M60.9449 510.7681L60.9449 518.9331" stroke="#BBBDC0" stroke-width="8" fill="none" /><path id="3" transform="matrix(1 0 0 -1 0 792)" d="M60.9449 438.7603L60.9449 446.9253" stroke="#BBBDC0" stroke-width="8" fill="none" /><path id="4" transform="matrix(1 0 0 -1 0 792)" d="M60.9449 302.3272L60.9449 310.4922" stroke="#BBBDC0" stroke-width="8" fill="none" /><path id="5" transform="matrix(1 0 0 -1 0 792)" d="M60.9449 186.3193L60.9449 194.4843" stroke="#BBBDC0" stroke-width="8" fill="none" /><path id="6" transform="matrix(1 0 0 -1 0 792)" d="M60.9449 114.3115L60.9449 122.4765" stroke="#BBBDC0" stroke-width="8" fill="none" /><path id="1977" transform="matrix(1 0 0 -1 0 792)" d="M309.1653 673.9492L309.1653 682.1142" stroke="#BBBDC0" stroke-width="8" fill="none" /><path id="1978" transform="matrix(1 0 0 -1 0 792)" d="M309.1653 513.9413L309.1653 522.1063" stroke="#BBBDC0" stroke-width="8" fill="none" /><path id="1979" transform="matrix(1 0 0 -1 0 792)" d="M309.1653 386.9335L309.1653 395.0985" stroke="#BBBDC0" stroke-width="8" fill="none" /><path id="1980" transform="matrix(1 0 0 -1 0 792)" d="M309.1653 248.9256L309.1653 268.0906" stroke="#BBBDC0" stroke-width="8" fill="none" /><g clip-path="url(#2)"><path id="4099" transform="matrix(1 0 0 -1 0 792)" d="M56.9448 32.702L56.9448 -12.691" stroke="#000000" stroke-width="0.75" stroke-linecap="round" stroke-dasharray="0.75,1.464" fill="none" /><path id="4100" transform="matrix(1 0 0 -1 0 792)" d="M56.9448 -13.7986L56.9448 -13.7986M56.9448 34.9164L56.9448 34.9164" stroke="#000000" stroke-width="0.75" stroke-linecap="round" fill="none" /></g></g></g></svg>