<svg xmlns="http://www.w3.org/2000/svg" xmlns:xlink="http://www.w3.org/1999/xlink" id="body_51" preserveAspectRatio="xMinYMin meet" viewBox="0 0 816 1056"><defs><clipPath id="1"><path id="" clip-rule="evenodd" transform="matrix(1 0 0 1 0 0)" d="M0 792L0 0L0 0L612 0L612 0L612 792L612 792L0 792z" /></clipPath><clipPath id="2"><path id="" clip-rule="evenodd" transform="matrix(1 0 0 1 0 0)" d="M0 0L612 0L612 0L612 792L612 792L0 792z" /></clipPath></defs><g transform="matrix(1.333333 0 0 1.333333 0 0)"><g clip-path="url(#1)"><path id="170" transform="matrix(1 0 0 -1 0 792)" d="M350.551 529.72L555.307 529.72L555.307 505.72L350.551 505.72zM292.913 529.72L350.551 529.72L350.551 505.72L292.913 505.72zM232.724 529.72L292.913 529.72L292.913 505.72L232.724 505.72zM179.528 529.72L232.725 529.72L232.725 505.72L179.528 505.72zM127.843 529.72L179.528 529.72L179.528 505.72L127.843 505.72zM70.866 529.72L127.842 529.72L127.842 505.72L70.866 505.72zM350.551 577.72L555.307 577.72L555.307 553.72L350.551 553.72zM292.913 577.72L350.551 577.72L350.551 553.72L292.913 553.72zM232.724 577.72L292.913 577.72L292.913 553.72L232.724 553.72zM179.528 577.72L232.725 577.72L232.725 553.72L179.528 553.72zM127.843 577.72L179.528 577.72L179.528 553.72L127.843 553.72zM70.866 577.72L127.842 577.72L127.842 553.72L70.866 553.72zM350.551 612.182L555.307 612.182L555.307 595.174L350.551 595.174zM292.913 612.182L350.551 612.182L350.551 595.174L292.913 595.174zM232.724 612.182L292.913 612.182L292.913 595.174L232.724 595.174zM179.528 612.182L232.725 612.182L232.725 595.174L179.528 595.174zM127.843 612.182L179.528 612.182L179.528 595.174L127.843 595.174zM70.866 612.182L127.842 612.182L127.842 595.174L70.866 595.174z" stroke="none" fill="#E6E7E8" fill-rule="nonzero" /><path id="171" transform="matrix(1 0 0 -1 0 792)" d="M70.8661 636.1821L127.8421 636.1821" stroke="#000000" stroke-width="1" fill="none" /><path id="172" transform="matrix(1 0 0 -1 0 792)" d="M127.8425 636.1821L179.5275 636.1821" stroke="#000000" stroke-width="1" fill="none" /><path id="173" transform="matrix(1 0 0 -1 0 792)" d="M179.5276 636.1821L232.7246 636.1821" stroke="#000000" stroke-width="1" fill="none" /><path id="174" transform="matrix(1 0 0 -1 0 792)" d="M232.7244 636.1821L292.9134 636.1821" stroke="#000000" stroke-width="1" fill="none" /><path id="175" transform="matrix(1 0 0 -1 0 792)" d="M292.9134 636.1821L350.5514 636.1821" stroke="#000000" stroke-width="1" fill="none" /><path id="176" transform="matrix(1 0 0 -1 0 792)" d="M350.5511 636.1821L555.3071 636.1821" stroke="#000000" stroke-width="1" fill="none" /><path id="810" transform="matrix(1 0 0 -1 0 792)" d="M352.441 174.452L555.307 174.452L555.307 150.452L352.441 150.452zM292.913 174.452L352.441 174.452L352.441 150.452L292.913 150.452zM233.386 174.452L292.914 174.452L292.914 150.452L233.386 150.452zM180.472 174.452L233.385 174.452L233.385 150.452L180.472 150.452zM127.843 174.452L180.473 174.452L180.473 150.452L127.843 150.452zM70.866 174.452L127.842 174.452L127.842 150.452L70.866 150.452zM352.441 252.452L555.307 252.452L555.307 228.452L352.441 228.452zM292.913 252.452L352.441 252.452L352.441 228.452L292.913 228.452zM233.386 252.452L292.914 252.452L292.914 228.452L233.386 228.452zM180.472 252.452L233.385 252.452L233.385 228.452L180.472 228.452zM127.843 252.452L180.473 252.452L180.473 228.452L127.843 228.452zM70.866 252.452L127.842 252.452L127.842 228.452L70.866 228.452zM352.441 310.452L555.307 310.452L555.307 286.452L352.441 286.452zM292.913 310.452L352.441 310.452L352.441 286.452L292.913 286.452zM233.386 310.452L292.914 310.452L292.914 286.452L233.386 286.452zM180.472 310.452L233.385 310.452L233.385 286.452L180.472 286.452zM127.843 310.452L180.473 310.452L180.473 286.452L127.843 286.452zM70.866 310.452L127.842 310.452L127.842 286.452L70.866 286.452zM352.441 358.452L555.307 358.452L555.307 334.452L352.441 334.452zM292.913 358.452L352.441 358.452L352.441 334.452L292.913 334.452zM233.386 358.452L292.914 358.452L292.914 334.452L233.386 334.452zM180.472 358.452L233.385 358.452L233.385 334.452L180.472 334.452zM127.843 358.452L180.473 358.452L180.473 334.452L127.843 334.452zM70.866 358.452L127.842 358.452L127.842 334.452L70.866 334.452zM352.441 406.452L555.307 406.452L555.307 382.452L352.441 382.452zM292.913 406.452L352.441 406.452L352.441 382.452L292.913 382.452zM233.386 406.452L292.914 406.452L292.914 382.452L233.386 382.452zM180.472 406.452L233.385 406.452L233.385 382.452L180.472 382.452zM127.843 406.452L180.473 406.452L180.473 382.452L127.843 382.452zM70.866 406.452L127.842 406.452L127.842 382.452L70.866 382.452z" stroke="none" fill="#E6E7E8" fill-rule="nonzero" /><path id="811" transform="matrix(1 0 0 -1 0 792)" d="M70.8661 430.4524L127.8421 430.4524" stroke="#000000" stroke-width="1" fill="none" /><path id="812" transform="matrix(1 0 0 -1 0 792)" d="M127.8425 430.4524L180.4725 430.4524" stroke="#000000" stroke-width="1" fill="none" /><path id="813" transform="matrix(1 0 0 -1 0 792)" d="M180.4724 430.4524L233.3854 430.4524" stroke="#000000" stroke-width="1" fill="none" /><path id="814" transform="matrix(1 0 0 -1 0 792)" d="M233.3858 430.4524L292.9138 430.4524" stroke="#000000" stroke-width="1" fill="none" /><path id="815" transform="matrix(1 0 0 -1 0 792)" d="M292.9134 430.4524L352.4414 430.4524" stroke="#000000" stroke-width="1" fill="none" /><path id="816" transform="matrix(1 0 0 -1 0 792)" d="M352.4409 430.4524L555.3069 430.4524" stroke="#000000" stroke-width="1" fill="none" /><g clip-path="url(#2)"><path id="2001" transform="matrix(1 0 0 -1 0 792)" d="M555.6614 32.702L555.6614 -12.691" stroke="#000000" stroke-width="0.75" stroke-linecap="round" stroke-dasharray="0.75,1.464" fill="none" /><path id="2002" transform="matrix(1 0 0 -1 0 792)" d="M555.6614 -13.7986L555.6614 -13.7986M555.6614 34.9164L555.6614 34.9164" stroke="#000000" stroke-width="0.75" stroke-linecap="round" fill="none" /></g></g></g></svg>