<svg xmlns="http://www.w3.org/2000/svg" xmlns:xlink="http://www.w3.org/1999/xlink" id="body_104" preserveAspectRatio="xMinYMin meet" viewBox="0 0 816 1056"><defs><clipPath id="1"><path id="" clip-rule="evenodd" transform="matrix(1 0 0 1 0 0)" d="M0 792L0 0L0 0L612 0L612 0L612 792L612 792L0 792z" /></clipPath><clipPath id="2"><path id="" clip-rule="evenodd" transform="matrix(1 0 0 1 0 0)" d="M56.693 422.181L293.244 422.181L293.244 422.181L293.244 56.69299L293.244 56.69299L56.693 56.69299z" /></clipPath><clipPath id="3"><path id="" clip-rule="evenodd" transform="matrix(1 0 0 1 0 0)" d="M56.693 422.181L293.244 422.181L293.244 422.181L293.244 56.69299L293.244 56.69299L56.693 56.69299z" /></clipPath><clipPath id="4"><path id="" clip-rule="evenodd" transform="matrix(1 0 0 1 0 0)" d="M47.6929 48.69299L302.244 48.69299L302.244 48.69299L302.244 425.139L302.244 425.139L47.6929 425.139z" /></clipPath><clipPath id="5"><path id="" clip-rule="evenodd" transform="matrix(1 0 0 1 0 0)" d="M304.914 444.932L541.465 444.932L541.465 444.932L541.465 56.69299L541.465 56.69299L304.914 56.69299z" /></clipPath><clipPath id="6"><path id="" clip-rule="evenodd" transform="matrix(1 0 0 1 0 0)" d="M304.914 444.932L541.465 444.932L541.465 444.932L541.465 56.69299L541.465 56.69299L304.914 56.69299z" /></clipPath><clipPath id="7"><path id="" clip-rule="evenodd" transform="matrix(1 0 0 1 0 0)" d="M295.913 48.69299L550.465 48.69299L550.465 48.69299L550.465 447.891L550.465 447.891L295.913 447.891z" /></clipPath><clipPath id="8"><path id="" clip-rule="evenodd" transform="matrix(1 0 0 1 0 0)" d="M0 0L612 0L612 0L612 792L612 792L0 792z" /></clipPath></defs><g transform="matrix(1.333333 0 0 1.333333 0 0)"><g clip-path="url(#1)"><g clip-path="url(#2)"><path id="1" transform="matrix(1 0 0 -1 0 792)" d="M63.112 629.164L286.825 629.164L286.825 663.668L63.112 663.668z" stroke="none" fill="#F5F5F6" fill-rule="nonzero" /><path id="2" transform="matrix(1 0 0 -1 0 792)" d="M63.1122 663.6678L286.8252 663.6678" stroke="#000000" stroke-width="0.5" fill="none" /><path id="3" transform="matrix(1 0 0 -1 0 792)" d="M63.1122 628.9336L286.7732 628.9336" stroke="#000000" stroke-width="0.5" fill="none" /></g><g clip-path="url(#3)"><g><g clip-path="url(#4)"><path id="1344" transform="matrix(1 0 0 -1 0 792)" d="M59.5276 734.9321C 58.1716 734.9321 57.0676 733.8291 57.0676 732.4721L57.0676 732.4721L57.0676 372.1541C 57.0676 370.7981 58.1716 369.6941 59.5276 369.6941L59.5276 369.6941L290.4096 369.6941C 291.7656 369.6941 292.8696 370.7981 292.8696 372.1541L292.8696 372.1541L292.8696 732.4721C 292.8696 733.8291 291.7656 734.9321 290.4096 734.9321L290.4096 734.9321L59.5276 734.9321z" stroke="#000000" stroke-width="0.75" fill="none" stroke-opacity="0.4980392" /></g></g></g><g clip-path="url(#5)"><path id="1345" transform="matrix(1 0 0 -1 0 792)" d="M311.333 638.164L535.046 638.164L535.046 672.668L311.333 672.668z" stroke="none" fill="#F5F5F6" fill-rule="nonzero" /><path id="1346" transform="matrix(1 0 0 -1 0 792)" d="M311.3327 672.6678L535.0457 672.6678" stroke="#000000" stroke-width="0.5" fill="none" /><path id="1347" transform="matrix(1 0 0 -1 0 792)" d="M311.3327 637.9336L534.9937 637.9336" stroke="#000000" stroke-width="0.5" fill="none" /></g><g clip-path="url(#6)"><g><g clip-path="url(#7)"><path id="2750" transform="matrix(1 0 0 -1 0 792)" d="M307.748 734.9321C 306.392 734.9321 305.288 733.8291 305.288 732.4721L305.288 732.4721L305.288 349.4021C 305.288 348.0461 306.392 346.9421 307.748 346.9421L307.748 346.9421L538.63 346.9421C 539.986 346.9421 541.09 348.0461 541.09 349.4021L541.09 349.4021L541.09 732.4721C 541.09 733.8291 539.986 734.9321 538.63 734.9321L538.63 734.9321L307.748 734.9321z" stroke="#000000" stroke-width="0.75" fill="none" stroke-opacity="0.4980392" /></g></g></g><g clip-path="url(#8)"><path id="2768" transform="matrix(1 0 0 -1 0 792)" d="M56.9448 32.702L56.9448 -12.691" stroke="#000000" stroke-width="0.75" stroke-linecap="round" stroke-dasharray="0.75,1.464" fill="none" /><path id="2769" transform="matrix(1 0 0 -1 0 792)" d="M56.9448 -13.7986L56.9448 -13.7986M56.9448 34.9164L56.9448 34.9164" stroke="#000000" stroke-width="0.75" stroke-linecap="round" fill="none" /></g></g></g></svg>