<svg xmlns="http://www.w3.org/2000/svg" xmlns:xlink="http://www.w3.org/1999/xlink" id="body_107" preserveAspectRatio="xMinYMin meet" viewBox="0 0 816 1056"><defs><clipPath id="1"><path id="" clip-rule="evenodd" transform="matrix(1 0 0 1 0 0)" d="M0 792L0 0L0 0L612 0L612 0L612 792L612 792L0 792z" /></clipPath><clipPath id="2"><path id="" clip-rule="evenodd" transform="matrix(1 0 0 1 0 0)" d="M70.866 503.35L307.417 503.35L307.417 503.35L307.417 56.69299L307.417 56.69299L70.866 56.69299z" /></clipPath><clipPath id="3"><path id="" clip-rule="evenodd" transform="matrix(1 0 0 1 0 0)" d="M70.866 503.35L307.417 503.35L307.417 503.35L307.417 56.69299L307.417 56.69299L70.866 56.69299z" /></clipPath><clipPath id="4"><path id="" clip-rule="evenodd" transform="matrix(1 0 0 1 0 0)" d="M61.8661 48.69299L316.417 48.69299L316.417 48.69299L316.417 493.973L316.417 493.973L61.8661 493.973z" /></clipPath><clipPath id="5"><path id="" clip-rule="evenodd" transform="matrix(1 0 0 1 0 0)" d="M319.087 600.893L555.638 600.893L555.638 600.893L555.638 56.69299L555.638 56.69299L319.087 56.69299z" /></clipPath><clipPath id="6"><path id="" clip-rule="evenodd" transform="matrix(1 0 0 1 0 0)" d="M319.087 600.893L555.638 600.893L555.638 600.893L555.638 56.69299L555.638 56.69299L319.087 56.69299z" /></clipPath><clipPath id="7"><path id="" clip-rule="evenodd" transform="matrix(1 0 0 1 0 0)" d="M310.087 48.69299L564.638 48.69299L564.638 48.69299L564.638 532.103L564.638 532.103L310.087 532.103z" /></clipPath><clipPath id="8"><path id="" clip-rule="evenodd" transform="matrix(1 0 0 1 0 0)" d="M0 0L612 0L612 0L612 792L612 792L0 792z" /></clipPath></defs><g transform="matrix(1.333333 0 0 1.333333 0 0)"><g clip-path="url(#1)"><g clip-path="url(#2)"><path id="1" transform="matrix(1 0 0 -1 0 792)" d="M77.285 620.164L300.998 620.164L300.998 654.668L77.285 654.668z" stroke="none" fill="#F5F5F6" fill-rule="nonzero" /><path id="2" transform="matrix(1 0 0 -1 0 792)" d="M77.2854 654.6678L300.9984 654.6678" stroke="#000000" stroke-width="0.5" fill="none" /><path id="3" transform="matrix(1 0 0 -1 0 792)" d="M77.2854 619.9336L300.9464 619.9336" stroke="#000000" stroke-width="0.5" fill="none" /></g><g clip-path="url(#3)"><g><g clip-path="url(#4)"><path id="1642" transform="matrix(1 0 0 -1 0 792)" d="M73.7008 734.9321C 72.3448 734.9321 71.2408 733.8291 71.2408 732.4721L71.2408 732.4721L71.2408 303.3191C 71.2408 301.9631 72.3448 300.8601 73.7008 300.8601L73.7008 300.8601L304.5828 300.8601C 305.9388 300.8601 307.0428 301.9631 307.0428 303.3191L307.0428 303.3191L307.0428 732.4721C 307.0428 733.8291 305.9388 734.9321 304.5828 734.9321L304.5828 734.9321L73.7008 734.9321z" stroke="#000000" stroke-width="0.75" fill="none" stroke-opacity="0.4980392" /></g></g></g><g clip-path="url(#5)"><path id="1643" transform="matrix(1 0 0 -1 0 792)" d="M325.506 629.164L549.219 629.164L549.219 672.668L325.506 672.668z" stroke="none" fill="#F5F5F6" fill-rule="nonzero" /><path id="1644" transform="matrix(1 0 0 -1 0 792)" d="M325.5059 672.6678L549.2189 672.6678" stroke="#000000" stroke-width="0.5" fill="none" /><path id="1645" transform="matrix(1 0 0 -1 0 792)" d="M325.5059 628.9336L549.1669 628.9336" stroke="#000000" stroke-width="0.5" fill="none" /></g><g clip-path="url(#6)"><g><g clip-path="url(#7)"><path id="3593" transform="matrix(1 0 0 -1 0 792)" d="M321.9213 734.9321C 320.5653 734.9321 319.4613 733.8291 319.4613 732.4721L319.4613 732.4721L319.4613 264.8191C 319.4613 263.4631 320.5653 262.3601 321.9213 262.3601L321.9213 262.3601L552.8033 262.3601C 554.1593 262.3601 555.2633 263.4631 555.2633 264.8191L555.2633 264.8191L555.2633 732.4721C 555.2633 733.8291 554.1593 734.9321 552.8033 734.9321L552.8033 734.9321L321.9213 734.9321z" stroke="#000000" stroke-width="0.75" fill="none" stroke-opacity="0.4980392" /></g></g></g><g clip-path="url(#8)"><path id="3611" transform="matrix(1 0 0 -1 0 792)" d="M555.6614 32.702L555.6614 -12.691" stroke="#000000" stroke-width="0.75" stroke-linecap="round" stroke-dasharray="0.75,1.464" fill="none" /><path id="3612" transform="matrix(1 0 0 -1 0 792)" d="M555.6614 -13.7986L555.6614 -13.7986M555.6614 34.9164L555.6614 34.9164" stroke="#000000" stroke-width="0.75" stroke-linecap="round" fill="none" /></g></g></g></svg>