<svg xmlns="http://www.w3.org/2000/svg" xmlns:xlink="http://www.w3.org/1999/xlink" id="body_15" preserveAspectRatio="xMinYMin meet" viewBox="0 0 816 1056"><defs><clipPath id="1"><path id="" clip-rule="evenodd" transform="matrix(1 0 0 1 0 0)" d="M0 792L0 0L0 0L612 0L612 0L612 792L612 792L0 792z" /></clipPath><clipPath id="2"><path id="" clip-rule="evenodd" transform="matrix(1 0 0 1 0 0)" d="M0 0L612 0L612 0L612 792L612 792L0 792z" /></clipPath></defs><g transform="matrix(1.333333 0 0 1.333333 0 0)"><g clip-path="url(#1)"><path id="1" transform="matrix(1 0 0 -1 0 792)" d="M75.1181 727.1418L75.1181 735.3068" stroke="#BBBDC0" stroke-width="8" fill="none" /><path id="2" transform="matrix(1 0 0 -1 0 792)" d="M75.1181 555.4567L75.1181 563.6217" stroke="#BBBDC0" stroke-width="8" fill="none" /><path id="3" transform="matrix(1 0 0 -1 0 792)" d="M75.1181 394.7717L75.1181 402.9367" stroke="#BBBDC0" stroke-width="8" fill="none" /><path id="4" transform="matrix(1 0 0 -1 0 792)" d="M75.1181 239.7559L75.1181 247.9209" stroke="#BBBDC0" stroke-width="8" fill="none" /><path id="1458" transform="matrix(1 0 0 -1 0 792)" d="M319.087 719.682L555.307 719.682L555.307 738.142L319.087 738.142z" stroke="none" fill="#000000" fill-rule="nonzero" /><path id="1459" transform="matrix(1 0 0 -1 0 792)" d="M321.58 584.5247L553.81 584.5247" stroke="#000000" stroke-width="1" stroke-linecap="round" stroke-dasharray="1,1" fill="none" /><path id="1460" transform="matrix(1 0 0 -1 0 792)" d="M554.8066 584.5247L554.8066 584.5247M319.5866 584.5247L319.5866 584.5247" stroke="#000000" stroke-width="1" stroke-linecap="round" fill="none" /><path id="1461" transform="matrix(1 0 0 -1 0 792)" d="M321.58 489.8396L553.81 489.8396" stroke="#000000" stroke-width="1" stroke-linecap="round" stroke-dasharray="1,1" fill="none" /><path id="1462" transform="matrix(1 0 0 -1 0 792)" d="M554.8066 489.8396L554.8066 489.8396M319.5866 489.8396L319.5866 489.8396" stroke="#000000" stroke-width="1" stroke-linecap="round" fill="none" /><path id="1463" transform="matrix(1 0 0 -1 0 792)" d="M323.3386 467.0857L323.3386 475.2507" stroke="#BBBDC0" stroke-width="8" fill="none" /><path id="1464" transform="matrix(1 0 0 -1 0 792)" d="M323.3386 428.0778L323.3386 436.2428" stroke="#BBBDC0" stroke-width="8" fill="none" /><path id="1465" transform="matrix(1 0 0 -1 0 792)" d="M333.2598 130.5621L333.2598 205.5621" stroke="#6D6E70" stroke-width="1" fill="none" /><g clip-path="url(#2)"><path id="3060" transform="matrix(1 0 0 -1 0 792)" d="M555.6614 32.702L555.6614 -12.691" stroke="#000000" stroke-width="0.75" stroke-linecap="round" stroke-dasharray="0.75,1.464" fill="none" /><path id="3061" transform="matrix(1 0 0 -1 0 792)" d="M555.6614 -13.7986L555.6614 -13.7986M555.6614 34.9164L555.6614 34.9164" stroke="#000000" stroke-width="0.75" stroke-linecap="round" fill="none" /></g></g></g></svg>