<svg xmlns="http://www.w3.org/2000/svg" xmlns:xlink="http://www.w3.org/1999/xlink" id="body_115" preserveAspectRatio="xMinYMin meet" viewBox="0 0 816 1056"><defs><clipPath id="1"><path id="" clip-rule="evenodd" transform="matrix(1 0 0 1 0 0)" d="M0 792L0 0L0 0L612 0L612 0L612 792L612 792L0 792z" /></clipPath><clipPath id="2"><path id="" clip-rule="evenodd" transform="matrix(1 0 0 1 0 0)" d="M0 0L612 0L612 0L612 792L612 792L0 792z" /></clipPath></defs><g transform="matrix(1.333333 0 0 1.333333 0 0)"><g clip-path="url(#1)"><path id="1" transform="matrix(1 0 0 -1 0 792)" d="M70.866 651.465L307.086 651.465L307.086 743.811L70.866 743.811z" stroke="none" fill="#F0F1F1" fill-rule="nonzero" /><path id="2" transform="matrix(1 0 0 -1 0 792)" d="M307.0866 651.4646L70.86661 651.4646" stroke="#939597" stroke-width="1" fill="none" /><path id="3" transform="matrix(1 0 0 -1 0 792)" d="M70.8661 743.811L307.0861 743.811" stroke="#939597" stroke-width="1" fill="none" /><path id="4" transform="matrix(1 0 0 -1 0 792)" d="M75.1181 628.626L75.1181 636.791" stroke="#BBBDC0" stroke-width="8" fill="none" /><path id="5" transform="matrix(1 0 0 -1 0 792)" d="M70.866 443.606L307.086 443.606L307.086 557.952L70.866 557.952z" stroke="none" fill="#F0F1F1" fill-rule="nonzero" /><path id="6" transform="matrix(1 0 0 -1 0 792)" d="M307.0866 443.6063L70.86661 443.6063" stroke="#939597" stroke-width="1" fill="none" /><path id="7" transform="matrix(1 0 0 -1 0 792)" d="M70.8661 557.9528L307.0861 557.9528" stroke="#939597" stroke-width="1" fill="none" /><path id="8" transform="matrix(1 0 0 -1 0 792)" d="M75.1181 420.7678L75.1181 428.9328" stroke="#BBBDC0" stroke-width="8" fill="none" /><path id="9" transform="matrix(1 0 0 -1 0 792)" d="M70.866 235.748L307.086 235.748L307.086 339.094L70.866 339.094z" stroke="none" fill="#F0F1F1" fill-rule="nonzero" /><path id="10" transform="matrix(1 0 0 -1 0 792)" d="M307.0866 235.7481L70.86661 235.7481" stroke="#939597" stroke-width="1" fill="none" /><path id="11" transform="matrix(1 0 0 -1 0 792)" d="M70.8661 339.0945L307.0861 339.0945" stroke="#939597" stroke-width="1" fill="none" /><path id="12" transform="matrix(1 0 0 -1 0 792)" d="M75.1181 212.9095L75.1181 221.0745" stroke="#BBBDC0" stroke-width="8" fill="none" /><path id="1487" transform="matrix(1 0 0 -1 0 792)" d="M319.087 640.465L555.307 640.465L555.307 743.811L319.087 743.811z" stroke="none" fill="#F0F1F1" fill-rule="nonzero" /><path id="1488" transform="matrix(1 0 0 -1 0 792)" d="M555.3071 640.4646L319.0871 640.4646" stroke="#939597" stroke-width="1" fill="none" /><path id="1489" transform="matrix(1 0 0 -1 0 792)" d="M319.0866 743.811L555.3066 743.811" stroke="#939597" stroke-width="1" fill="none" /><path id="1490" transform="matrix(1 0 0 -1 0 792)" d="M323.3386 617.626L323.3386 625.791" stroke="#BBBDC0" stroke-width="8" fill="none" /><path id="1491" transform="matrix(1 0 0 -1 0 792)" d="M319.087 421.606L555.307 421.606L555.307 524.952L319.087 524.952z" stroke="none" fill="#F0F1F1" fill-rule="nonzero" /><path id="1492" transform="matrix(1 0 0 -1 0 792)" d="M555.3071 421.6063L319.0871 421.6063" stroke="#939597" stroke-width="1" fill="none" /><path id="1493" transform="matrix(1 0 0 -1 0 792)" d="M319.0866 524.9528L555.3066 524.9528" stroke="#939597" stroke-width="1" fill="none" /><path id="1494" transform="matrix(1 0 0 -1 0 792)" d="M323.3386 334.3426L323.3386 342.5076" stroke="#BBBDC0" stroke-width="8" fill="none" /><path id="1495" transform="matrix(1 0 0 -1 0 792)" d="M323.3386 273.3347L323.3386 281.4997" stroke="#BBBDC0" stroke-width="8" fill="none" /><path id="1496" transform="matrix(1 0 0 -1 0 792)" d="M323.3386 212.3268L323.3386 220.4918" stroke="#BBBDC0" stroke-width="8" fill="none" /><path id="1497" transform="matrix(1 0 0 -1 0 792)" d="M323.3386 151.319L323.3386 159.484" stroke="#BBBDC0" stroke-width="8" fill="none" /><g clip-path="url(#2)"><path id="3219" transform="matrix(1 0 0 -1 0 792)" d="M555.6614 32.702L555.6614 -12.691" stroke="#000000" stroke-width="0.75" stroke-linecap="round" stroke-dasharray="0.75,1.464" fill="none" /><path id="3220" transform="matrix(1 0 0 -1 0 792)" d="M555.6614 -13.7986L555.6614 -13.7986M555.6614 34.9164L555.6614 34.9164" stroke="#000000" stroke-width="0.75" stroke-linecap="round" fill="none" /></g></g></g></svg>