<svg xmlns="http://www.w3.org/2000/svg" xmlns:xlink="http://www.w3.org/1999/xlink" id="body_73" preserveAspectRatio="xMinYMin meet" viewBox="0 0 816 1056"><defs><clipPath id="1"><path id="" clip-rule="evenodd" transform="matrix(1 0 0 1 0 0)" d="M0 792L0 0L0 0L612 0L612 0L612 792L612 792L0 792z" /></clipPath><clipPath id="2"><path id="" clip-rule="evenodd" transform="matrix(1 0 0 1 0 0)" d="M0 0L612 0L612 0L612 792L612 792L0 792z" /></clipPath></defs><g transform="matrix(1.333333 0 0 1.333333 0 0)"><g clip-path="url(#1)"><path id="29" transform="matrix(1 0 0 -1 0 792)" d="M462.898 711.719L555.307 711.719L555.307 694.759L462.898 694.759zM370.488 711.719L462.897 711.719L462.897 694.759L370.488 694.759zM276.945 711.719L370.488 711.719L370.488 694.759L276.945 694.759zM188.976 711.719L276.945 711.719L276.945 694.759L188.976 694.759zM70.866 711.719L188.976 711.719L188.976 694.759L70.866 694.759z" stroke="none" fill="#57585B" fill-rule="nonzero" /><path id="30" transform="matrix(1 0 0 -1 0 792)" d="M462.898 639.469L555.307 639.469L555.307 623.469L462.898 623.469zM370.488 639.469L462.897 639.469L462.897 623.469L370.488 623.469zM276.945 639.469L370.488 639.469L370.488 623.469L276.945 623.469zM188.976 639.469L276.945 639.469L276.945 623.469L188.976 623.469zM70.866 639.469L188.976 639.469L188.976 623.469L70.866 623.469zM462.898 678.259L555.307 678.259L555.307 655.469L462.898 655.469zM370.488 678.259L462.897 678.259L462.897 655.469L370.488 655.469zM276.945 678.259L370.488 678.259L370.488 655.469L276.945 655.469zM188.976 678.259L276.945 678.259L276.945 655.469L188.976 655.469zM70.866 678.259L188.976 678.259L188.976 655.469L70.866 655.469z" stroke="none" fill="#E6E7E8" fill-rule="nonzero" /><path id="31" transform="matrix(1 0 0 -1 0 792)" d="M70.8661 694.7586L188.9761 694.7586" stroke="#000000" stroke-width="1" fill="none" /><path id="32" transform="matrix(1 0 0 -1 0 792)" d="M188.9764 694.7586L276.9454 694.7586" stroke="#000000" stroke-width="1" fill="none" /><path id="33" transform="matrix(1 0 0 -1 0 792)" d="M276.9449 694.7586L370.4879 694.7586" stroke="#000000" stroke-width="1" fill="none" /><path id="34" transform="matrix(1 0 0 -1 0 792)" d="M370.4882 694.7586L462.8972 694.7586" stroke="#000000" stroke-width="1" fill="none" /><path id="35" transform="matrix(1 0 0 -1 0 792)" d="M462.8976 694.7586L555.3066 694.7586" stroke="#000000" stroke-width="1" fill="none" /><path id="313" transform="matrix(1 0 0 -1 0 792)" d="M75.1181 557.1202L75.1181 565.2852" stroke="#BBBDC0" stroke-width="8" fill="none" /><path id="791" transform="matrix(1 0 0 -1 0 792)" d="M323.3386 316.262L323.3386 324.427" stroke="#BBBDC0" stroke-width="8" fill="none" /><g clip-path="url(#2)"><path id="1304" transform="matrix(1 0 0 -1 0 792)" d="M555.6614 32.702L555.6614 -12.691" stroke="#000000" stroke-width="0.75" stroke-linecap="round" stroke-dasharray="0.75,1.464" fill="none" /><path id="1305" transform="matrix(1 0 0 -1 0 792)" d="M555.6614 -13.7986L555.6614 -13.7986M555.6614 34.9164L555.6614 34.9164" stroke="#000000" stroke-width="0.75" stroke-linecap="round" fill="none" /></g></g></g></svg>