<svg xmlns="http://www.w3.org/2000/svg" xmlns:xlink="http://www.w3.org/1999/xlink" id="body_69" preserveAspectRatio="xMinYMin meet" viewBox="0 0 816 1056"><defs><clipPath id="1"><path id="" clip-rule="evenodd" transform="matrix(1 0 0 1 0 0)" d="M0 792L0 0L0 0L612 0L612 0L612 792L612 792L0 792z" /></clipPath><clipPath id="2"><path id="" clip-rule="evenodd" transform="matrix(1 0 0 1 0 0)" d="M0 0L612 0L612 0L612 792L612 792L0 792z" /></clipPath></defs><g transform="matrix(1.333333 0 0 1.333333 0 0)"><g clip-path="url(#1)"><path id="1" transform="matrix(1 0 0 -1 0 792)" d="M71.5748 634.2786L71.5748 654.2786" stroke="#6D6E70" stroke-width="1" fill="none" /><path id="692" transform="matrix(1 0 0 -1 0 792)" d="M228.346 409.265L307.086 409.265L307.086 383.515L228.346 383.515zM149.606 409.265L228.346 409.265L228.346 383.515L149.606 383.515zM70.866 409.265L149.606 409.265L149.606 383.515L70.866 383.515zM228.346 438.765L307.086 438.765L307.086 424.015L228.346 424.015zM149.606 438.765L228.346 438.765L228.346 424.015L149.606 424.015zM70.866 438.765L149.606 438.765L149.606 424.015L70.866 424.015zM228.346 479.265L307.086 479.265L307.086 453.515L228.346 453.515zM149.606 479.265L228.346 479.265L228.346 453.515L149.606 453.515zM70.866 479.265L149.606 479.265L149.606 453.515L70.866 453.515z" stroke="none" fill="#E5E6E7" fill-rule="nonzero" /><path id="693" transform="matrix(1 0 0 -1 0 792)" d="M70.8661 479.2648L149.6061 479.2648" stroke="#000000" stroke-width="1" fill="none" /><path id="694" transform="matrix(1 0 0 -1 0 792)" d="M149.6063 479.2648L228.3463 479.2648" stroke="#000000" stroke-width="1" fill="none" /><path id="695" transform="matrix(1 0 0 -1 0 792)" d="M228.3465 479.2648L307.0865 479.2648" stroke="#000000" stroke-width="1" fill="none" /><path id="1886" transform="matrix(1 0 0 -1 0 792)" d="M478.346 510.219L552.047 510.219L552.047 495.469L478.346 495.469zM319.087 510.219L478.347 510.219L478.347 495.469L319.087 495.469zM478.346 539.719L552.047 539.719L552.047 524.969L478.346 524.969zM319.087 539.719L478.347 539.719L478.347 524.969L319.087 524.969zM478.346 569.219L552.047 569.219L552.047 554.469L478.346 554.469zM319.087 569.219L478.347 569.219L478.347 554.469L319.087 554.469zM478.346 598.719L552.047 598.719L552.047 583.969L478.346 583.969zM319.087 598.719L478.347 598.719L478.347 583.969L319.087 583.969zM478.346 628.219L552.047 628.219L552.047 613.469L478.346 613.469zM319.087 628.219L478.347 628.219L478.347 613.469L319.087 613.469zM478.346 668.719L552.047 668.719L552.047 642.969L478.346 642.969zM319.087 668.719L478.347 668.719L478.347 642.969L319.087 642.969z" stroke="none" fill="#E5E6E7" fill-rule="nonzero" /><path id="1887" transform="matrix(1 0 0 -1 0 792)" d="M319.0866 668.7186L478.3466 668.7186" stroke="#000000" stroke-width="1" fill="none" /><path id="1888" transform="matrix(1 0 0 -1 0 792)" d="M478.3464 668.7186L552.0474 668.7186" stroke="#000000" stroke-width="1" fill="none" /><g clip-path="url(#2)"><path id="3418" transform="matrix(1 0 0 -1 0 792)" d="M555.6614 32.702L555.6614 -12.691" stroke="#000000" stroke-width="0.75" stroke-linecap="round" stroke-dasharray="0.75,1.464" fill="none" /><path id="3419" transform="matrix(1 0 0 -1 0 792)" d="M555.6614 -13.7986L555.6614 -13.7986M555.6614 34.9164L555.6614 34.9164" stroke="#000000" stroke-width="0.75" stroke-linecap="round" fill="none" /></g></g></g></svg>