<svg xmlns="http://www.w3.org/2000/svg" xmlns:xlink="http://www.w3.org/1999/xlink" id="body_10" preserveAspectRatio="xMinYMin meet" viewBox="0 0 816 1056"><defs><clipPath id="1"><path id="" clip-rule="evenodd" transform="matrix(1 0 0 1 0 0)" d="M0 792L0 0L0 0L612 0L612 0L612 792L612 792L0 792z" /></clipPath><clipPath id="2"><path id="" clip-rule="evenodd" transform="matrix(1 0 0 1 0 0)" d="M0 0L612 0L612 0L612 792L612 792L0 792z" /></clipPath></defs><g transform="matrix(1.333333 0 0 1.333333 0 0)"><g clip-path="url(#1)"><path id="1" transform="matrix(1 0 0 -1 0 792)" d="M60.9449 727.1418L60.9449 735.3068" stroke="#BBBDC0" stroke-width="8" fill="none" /><path id="2" transform="matrix(1 0 0 -1 0 792)" d="M60.9449 613.6299L60.9449 621.7949" stroke="#BBBDC0" stroke-width="8" fill="none" /><path id="3" transform="matrix(1 0 0 -1 0 792)" d="M56.693 294.917L292.913 294.917L292.913 549.787L56.693 549.787z" stroke="none" fill="#F0F1F1" fill-rule="nonzero" /><path id="4" transform="matrix(1 0 0 -1 0 792)" d="M292.9134 294.9174L56.69339 294.9174" stroke="#939598" stroke-width="1" fill="none" /><path id="5" transform="matrix(1 0 0 -1 0 792)" d="M56.6929 549.7875L292.9129 549.7875" stroke="#939598" stroke-width="1" fill="none" /><path id="935" transform="matrix(1 0 0 -1 0 792)" d="M304.913 719.682L541.133 719.682L541.133 738.142L304.913 738.142z" stroke="none" fill="#000000" fill-rule="nonzero" /><path id="936" transform="matrix(1 0 0 -1 0 792)" d="M307.4068 595.5247L539.6368 595.5247" stroke="#000000" stroke-width="1" stroke-linecap="round" stroke-dasharray="1,1" fill="none" /><path id="937" transform="matrix(1 0 0 -1 0 792)" d="M540.6334 595.5247L540.6334 595.5247M305.4134 595.5247L305.4134 595.5247" stroke="#000000" stroke-width="1" stroke-linecap="round" fill="none" /><path id="938" transform="matrix(1 0 0 -1 0 792)" d="M307.4068 489.8396L539.6368 489.8396" stroke="#000000" stroke-width="1" stroke-linecap="round" stroke-dasharray="1,1" fill="none" /><path id="939" transform="matrix(1 0 0 -1 0 792)" d="M540.6334 489.8396L540.6334 489.8396M305.4134 489.8396L305.4134 489.8396" stroke="#000000" stroke-width="1" stroke-linecap="round" fill="none" /><path id="940" transform="matrix(1 0 0 -1 0 792)" d="M309.1653 467.0857L309.1653 475.2507" stroke="#BBBDC0" stroke-width="8" fill="none" /><path id="941" transform="matrix(1 0 0 -1 0 792)" d="M309.1653 406.0778L309.1653 414.2428" stroke="#BBBDC0" stroke-width="8" fill="none" /><g clip-path="url(#2)"><path id="2534" transform="matrix(1 0 0 -1 0 792)" d="M56.9448 32.702L56.9448 -12.691" stroke="#000000" stroke-width="0.75" stroke-linecap="round" stroke-dasharray="0.75,1.464" fill="none" /><path id="2535" transform="matrix(1 0 0 -1 0 792)" d="M56.9448 -13.7986L56.9448 -13.7986M56.9448 34.9164L56.9448 34.9164" stroke="#000000" stroke-width="0.75" stroke-linecap="round" fill="none" /></g></g></g></svg>