<svg xmlns="http://www.w3.org/2000/svg" xmlns:xlink="http://www.w3.org/1999/xlink" id="body_49" preserveAspectRatio="xMinYMin meet" viewBox="0 0 816 1056"><defs><clipPath id="1"><path id="" clip-rule="evenodd" transform="matrix(1 0 0 1 0 0)" d="M0 792L0 0L0 0L612 0L612 0L612 792L612 792L0 792z" /></clipPath><clipPath id="2"><path id="" clip-rule="evenodd" transform="matrix(1 0 0 1 0 0)" d="M0 0L612 0L612 0L612 792L612 792L0 792z" /></clipPath></defs><g transform="matrix(1.333333 0 0 1.333333 0 0)"><g clip-path="url(#1)"><path id="1" transform="matrix(1 0 0 -1 0 792)" d="M71.5748 685.0266L71.5748 694.0266" stroke="#808284" stroke-width="2" fill="none" /><path id="67" transform="matrix(1 0 0 -1 0 792)" d="M372.945 426.647L555.307 426.647L555.307 402.647L372.945 402.647zM306.803 426.647L372.945 426.647L372.945 402.647L306.803 402.647zM243.496 426.647L306.803 426.647L306.803 402.647L243.496 402.647zM192.756 426.647L243.496 426.647L243.496 402.647L192.756 402.647zM131.055 426.647L192.756 426.647L192.756 402.647L131.055 402.647zM70.866 426.647L131.055 426.647L131.055 402.647L70.866 402.647zM372.945 474.647L555.307 474.647L555.307 450.647L372.945 450.647zM306.803 474.647L372.945 474.647L372.945 450.647L306.803 450.647zM243.496 474.647L306.803 474.647L306.803 450.647L243.496 450.647zM192.756 474.647L243.496 474.647L243.496 450.647L192.756 450.647zM131.055 474.647L192.756 474.647L192.756 450.647L131.055 450.647zM70.866 474.647L131.055 474.647L131.055 450.647L70.866 450.647zM372.945 522.647L555.307 522.647L555.307 498.647L372.945 498.647zM306.803 522.647L372.945 522.647L372.945 498.647L306.803 498.647zM243.496 522.647L306.803 522.647L306.803 498.647L243.496 498.647zM192.756 522.647L243.496 522.647L243.496 498.647L192.756 498.647zM131.055 522.647L192.756 522.647L192.756 498.647L131.055 498.647zM70.866 522.647L131.055 522.647L131.055 498.647L70.866 498.647zM372.945 580.647L555.307 580.647L555.307 556.647L372.945 556.647zM306.803 580.647L372.945 580.647L372.945 556.647L306.803 556.647zM243.496 580.647L306.803 580.647L306.803 556.647L243.496 556.647zM192.756 580.647L243.496 580.647L243.496 556.647L192.756 556.647zM131.055 580.647L192.756 580.647L192.756 556.647L131.055 556.647zM70.866 580.647L131.055 580.647L131.055 556.647L70.866 556.647zM372.945 628.647L555.307 628.647L555.307 604.647L372.945 604.647zM306.803 628.647L372.945 628.647L372.945 604.647L306.803 604.647zM243.496 628.647L306.803 628.647L306.803 604.647L243.496 604.647zM192.756 628.647L243.496 628.647L243.496 604.647L192.756 604.647zM131.055 628.647L192.756 628.647L192.756 604.647L131.055 604.647zM70.866 628.647L131.055 628.647L131.055 604.647L70.866 604.647z" stroke="none" fill="#ECEDEE" fill-rule="nonzero" /><path id="68" transform="matrix(1 0 0 -1 0 792)" d="M70.8661 662.6474L131.0551 662.6474" stroke="#000000" stroke-width="1" fill="none" /><path id="69" transform="matrix(1 0 0 -1 0 792)" d="M131.0551 662.6474L192.7561 662.6474" stroke="#000000" stroke-width="1" fill="none" /><path id="70" transform="matrix(1 0 0 -1 0 792)" d="M192.7559 662.6474L243.4959 662.6474" stroke="#000000" stroke-width="1" fill="none" /><path id="71" transform="matrix(1 0 0 -1 0 792)" d="M243.4961 662.6474L306.8031 662.6474" stroke="#000000" stroke-width="1" fill="none" /><path id="72" transform="matrix(1 0 0 -1 0 792)" d="M306.8032 662.6474L372.9452 662.6474" stroke="#000000" stroke-width="1" fill="none" /><path id="73" transform="matrix(1 0 0 -1 0 792)" d="M372.9449 662.6474L555.3069 662.6474" stroke="#000000" stroke-width="1" fill="none" /><path id="844" transform="matrix(1 0 0 -1 0 792)" d="M380.063 230.647L559.307 230.647L559.307 206.647L380.063 206.647zM310.425 230.647L380.063 230.647L380.063 206.647L310.425 206.647zM249.669 230.647L310.425 230.647L310.425 206.647L249.669 206.647zM198.646 230.647L249.67 230.647L249.67 206.647L198.646 206.647zM136.283 230.647L198.645 230.647L198.645 206.647L136.283 206.647zM74.866 230.647L136.283 230.647L136.283 206.647L74.866 206.647zM380.063 278.647L559.307 278.647L559.307 254.647L380.063 254.647zM310.425 278.647L380.063 278.647L380.063 254.647L310.425 254.647zM249.669 278.647L310.425 278.647L310.425 254.647L249.669 254.647zM198.646 278.647L249.67 278.647L249.67 254.647L198.646 254.647zM136.283 278.647L198.645 278.647L198.645 254.647L136.283 254.647zM74.866 278.647L136.283 278.647L136.283 254.647L74.866 254.647zM380.063 326.647L559.307 326.647L559.307 302.647L380.063 302.647zM310.425 326.647L380.063 326.647L380.063 302.647L310.425 302.647zM249.669 326.647L310.425 326.647L310.425 302.647L249.669 302.647zM198.646 326.647L249.67 326.647L249.67 302.647L198.646 302.647zM136.283 326.647L198.645 326.647L198.645 302.647L136.283 302.647zM74.866 326.647L136.283 326.647L136.283 302.647L74.866 302.647zM380.063 374.647L559.307 374.647L559.307 350.647L380.063 350.647zM310.425 374.647L380.063 374.647L380.063 350.647L310.425 350.647zM249.669 374.647L310.425 374.647L310.425 350.647L249.669 350.647zM198.646 374.647L249.67 374.647L249.67 350.647L198.646 350.647zM136.283 374.647L198.645 374.647L198.645 350.647L136.283 350.647zM74.866 374.647L136.283 374.647L136.283 350.647L74.866 350.647z" stroke="none" fill="#ECEDEE" fill-rule="nonzero" /><g clip-path="url(#2)"><path id="1861" transform="matrix(1 0 0 -1 0 792)" d="M555.6614 32.702L555.6614 -12.691" stroke="#000000" stroke-width="0.75" stroke-linecap="round" stroke-dasharray="0.75,1.464" fill="none" /><path id="1862" transform="matrix(1 0 0 -1 0 792)" d="M555.6614 -13.7986L555.6614 -13.7986M555.6614 34.9164L555.6614 34.9164" stroke="#000000" stroke-width="0.75" stroke-linecap="round" fill="none" /></g></g></g></svg>