<svg xmlns="http://www.w3.org/2000/svg" xmlns:xlink="http://www.w3.org/1999/xlink" id="body_114" preserveAspectRatio="xMinYMin meet" viewBox="0 0 816 1056"><defs><clipPath id="1"><path id="" clip-rule="evenodd" transform="matrix(1 0 0 1 0 0)" d="M0 792L0 0L0 0L612 0L612 0L612 792L612 792L0 792z" /></clipPath><clipPath id="2"><path id="" clip-rule="evenodd" transform="matrix(1 0 0 1 0 0)" d="M0 0L612 0L612 0L612 792L612 792L0 792z" /></clipPath></defs><g transform="matrix(1.333333 0 0 1.333333 0 0)"><g clip-path="url(#1)"><path id="2717" transform="matrix(1 0 0 -1 0 792)" d="M309.1653 651.9492L309.1653 660.1142" stroke="#BBBDC0" stroke-width="8" fill="none" /><path id="2718" transform="matrix(1 0 0 -1 0 792)" d="M304.913 455.93L541.133 455.93L541.133 548.276L304.913 548.276z" stroke="none" fill="#F0F1F1" fill-rule="nonzero" /><path id="2719" transform="matrix(1 0 0 -1 0 792)" d="M541.1339 455.9296L304.9139 455.9296" stroke="#939597" stroke-width="1" fill="none" /><path id="2720" transform="matrix(1 0 0 -1 0 792)" d="M304.9134 548.276L541.1334 548.276" stroke="#939597" stroke-width="1" fill="none" /><path id="2721" transform="matrix(1 0 0 -1 0 792)" d="M304.913 292.41L541.133 292.41L541.133 395.756L304.913 395.756z" stroke="none" fill="#F0F1F1" fill-rule="nonzero" /><path id="2722" transform="matrix(1 0 0 -1 0 792)" d="M541.1339 292.4099L304.9139 292.4099" stroke="#939597" stroke-width="1" fill="none" /><path id="2723" transform="matrix(1 0 0 -1 0 792)" d="M304.9134 395.7563L541.1334 395.7563" stroke="#939597" stroke-width="1" fill="none" /><path id="2724" transform="matrix(1 0 0 -1 0 792)" d="M309.1653 269.2012L309.1653 277.7362" stroke="#BBBDC0" stroke-width="8" fill="none" /><g clip-path="url(#2)"><path id="4615" transform="matrix(1 0 0 -1 0 792)" d="M56.9448 32.702L56.9448 -12.691" stroke="#000000" stroke-width="0.75" stroke-linecap="round" stroke-dasharray="0.75,1.464" fill="none" /><path id="4616" transform="matrix(1 0 0 -1 0 792)" d="M56.9448 -13.7986L56.9448 -13.7986M56.9448 34.9164L56.9448 34.9164" stroke="#000000" stroke-width="0.75" stroke-linecap="round" fill="none" /></g></g></g></svg>