<svg xmlns="http://www.w3.org/2000/svg" xmlns:xlink="http://www.w3.org/1999/xlink" id="body_110" preserveAspectRatio="xMinYMin meet" viewBox="0 0 816 1056"><defs><clipPath id="1"><path id="" clip-rule="evenodd" transform="matrix(1 0 0 1 0 0)" d="M0 792L0 0L0 0L612 0L612 0L612 792L612 792L0 792z" /></clipPath><clipPath id="2"><path id="" clip-rule="evenodd" transform="matrix(1 0 0 1 0 0)" d="M56.693 623.918L293.244 623.918L293.244 623.918L293.244 92.677L293.244 92.677L56.693 92.677z" /></clipPath><clipPath id="3"><path id="" clip-rule="evenodd" transform="matrix(1 0 0 1 0 0)" d="M56.693 623.918L293.244 623.918L293.244 623.918L293.244 92.677L293.244 92.677L56.693 92.677z" /></clipPath><clipPath id="4"><path id="" clip-rule="evenodd" transform="matrix(1 0 0 1 0 0)" d="M47.6929 84.677L302.244 84.677L302.244 84.677L302.244 608.375L302.244 608.375L47.6929 608.375z" /></clipPath><clipPath id="5"><path id="" clip-rule="evenodd" transform="matrix(1 0 0 1 0 0)" d="M304.914 646.85L541.465 646.85L541.465 646.85L541.465 56.69299L541.465 56.69299L304.914 56.69299z" /></clipPath><clipPath id="6"><path id="" clip-rule="evenodd" transform="matrix(1 0 0 1 0 0)" d="M304.914 646.85L541.465 646.85L541.465 646.85L541.465 56.69299L541.465 56.69299L304.914 56.69299z" /></clipPath><clipPath id="7"><path id="" clip-rule="evenodd" transform="matrix(1 0 0 1 0 0)" d="M295.913 48.69299L550.465 48.69299L550.465 48.69299L550.465 649.808L550.465 649.808L295.913 649.808z" /></clipPath><clipPath id="8"><path id="" clip-rule="evenodd" transform="matrix(1 0 0 1 0 0)" d="M0 0L612 0L612 0L612 792L612 792L0 792z" /></clipPath></defs><g transform="matrix(1.333333 0 0 1.333333 0 0)"><g clip-path="url(#1)"><g clip-path="url(#2)"><path id="35" transform="matrix(1 0 0 -1 0 792)" d="M63.112 602.18L286.825 602.18L286.825 636.684L63.112 636.684z" stroke="none" fill="#F5F5F6" fill-rule="nonzero" /><path id="36" transform="matrix(1 0 0 -1 0 792)" d="M63.1122 636.6837L286.8252 636.6837" stroke="#000000" stroke-width="0.5" fill="none" /><path id="37" transform="matrix(1 0 0 -1 0 792)" d="M63.1122 601.9495L286.7732 601.9495" stroke="#000000" stroke-width="0.5" fill="none" /></g><g clip-path="url(#3)"><g><g clip-path="url(#4)"><path id="2308" transform="matrix(1 0 0 -1 0 792)" d="M59.5276 698.948C 58.1716 698.948 57.0676 697.845 57.0676 696.488L57.0676 696.488L57.0676 188.918C 57.0676 187.562 58.1716 186.458 59.5276 186.458L59.5276 186.458L290.4096 186.458C 291.7656 186.458 292.8696 187.562 292.8696 188.918L292.8696 188.918L292.8696 696.488C 292.8696 697.845 291.7656 698.948 290.4096 698.948L290.4096 698.948L59.5276 698.948z" stroke="#000000" stroke-width="0.75" fill="none" stroke-opacity="0.4980392" /></g></g></g><g clip-path="url(#5)"><path id="2309" transform="matrix(1 0 0 -1 0 792)" d="M311.333 638.164L535.046 638.164L535.046 672.668L311.333 672.668z" stroke="none" fill="#F5F5F6" fill-rule="nonzero" /><path id="2310" transform="matrix(1 0 0 -1 0 792)" d="M311.3327 672.6678L535.0457 672.6678" stroke="#000000" stroke-width="0.5" fill="none" /><path id="2311" transform="matrix(1 0 0 -1 0 792)" d="M311.3327 637.9336L534.9937 637.9336" stroke="#000000" stroke-width="0.5" fill="none" /></g><g clip-path="url(#6)"><g><g clip-path="url(#7)"><path id="4896" transform="matrix(1 0 0 -1 0 792)" d="M307.7481 734.9321C 306.3921 734.9321 305.2881 733.8291 305.2881 732.4721L305.2881 732.4721L305.2881 147.4851C 305.2881 146.1281 306.3921 145.0251 307.7481 145.0251L307.7481 145.0251L538.6301 145.0251C 539.9861 145.0251 541.0901 146.1281 541.0901 147.4851L541.0901 147.4851L541.0901 732.4721C 541.0901 733.8291 539.9861 734.9321 538.6301 734.9321L538.6301 734.9321L307.7481 734.9321z" stroke="#000000" stroke-width="0.75" fill="none" stroke-opacity="0.4980392" /></g></g></g><g clip-path="url(#8)"><path id="4914" transform="matrix(1 0 0 -1 0 792)" d="M56.9448 32.702L56.9448 -12.691" stroke="#000000" stroke-width="0.75" stroke-linecap="round" stroke-dasharray="0.75,1.464" fill="none" /><path id="4915" transform="matrix(1 0 0 -1 0 792)" d="M56.9448 -13.7986L56.9448 -13.7986M56.9448 34.9164L56.9448 34.9164" stroke="#000000" stroke-width="0.75" stroke-linecap="round" fill="none" /></g></g></g></svg>