<svg xmlns="http://www.w3.org/2000/svg" xmlns:xlink="http://www.w3.org/1999/xlink" id="body_32" preserveAspectRatio="xMinYMin meet" viewBox="0 0 816 1056"><defs><clipPath id="1"><path id="" clip-rule="evenodd" transform="matrix(1 0 0 1 0 0)" d="M0 792L0 0L0 0L612 0L612 0L612 792L612 792L0 792z" /></clipPath><clipPath id="2"><path id="" clip-rule="evenodd" transform="matrix(1 0 0 1 0 0)" d="M0 0L612 0L612 0L612 792L612 792L0 792z" /></clipPath></defs><g transform="matrix(1.333333 0 0 1.333333 0 0)"><g clip-path="url(#1)"><path id="1" transform="matrix(1 0 0 -1 0 792)" d="M56.693 575.986L292.913 575.986L292.913 594.446L56.693 594.446z" stroke="none" fill="#EAEBEC" fill-rule="nonzero" /><path id="2" transform="matrix(1 0 0 -1 0 792)" d="M60.9449 341.0743L60.9449 349.2393" stroke="#BBBDC0" stroke-width="8" fill="none" /><path id="1408" transform="matrix(1 0 0 -1 0 792)" d="M304.913 719.682L541.133 719.682L541.133 738.142L304.913 738.142z" stroke="none" fill="#EAEBEC" fill-rule="nonzero" /><path id="1409" transform="matrix(1 0 0 -1 0 792)" d="M309.1653 528.7708L309.1653 536.9358" stroke="#BBBDC0" stroke-width="8" fill="none" /><path id="1410" transform="matrix(1 0 0 -1 0 792)" d="M304.913 463.989L541.133 463.989L541.133 482.449L304.913 482.449z" stroke="none" fill="#EAEBEC" fill-rule="nonzero" /><path id="1411" transform="matrix(1 0 0 -1 0 792)" d="M309.1653 262.0778L309.1653 270.2428" stroke="#BBBDC0" stroke-width="8" fill="none" /><g clip-path="url(#2)"><path id="3163" transform="matrix(1 0 0 -1 0 792)" d="M56.9448 32.702L56.9448 -12.691" stroke="#000000" stroke-width="0.75" stroke-linecap="round" stroke-dasharray="0.75,1.464" fill="none" /><path id="3164" transform="matrix(1 0 0 -1 0 792)" d="M56.9448 -13.7986L56.9448 -13.7986M56.9448 34.9164L56.9448 34.9164" stroke="#000000" stroke-width="0.75" stroke-linecap="round" fill="none" /></g></g></g></svg>