<svg xmlns="http://www.w3.org/2000/svg" xmlns:xlink="http://www.w3.org/1999/xlink" id="body_52" preserveAspectRatio="xMinYMin meet" viewBox="0 0 816 1056"><defs><clipPath id="1"><path id="" clip-rule="evenodd" transform="matrix(1 0 0 1 0 0)" d="M0 792L0 0L0 0L612 0L612 0L612 792L612 792L0 792z" /></clipPath><clipPath id="2"><path id="" clip-rule="evenodd" transform="matrix(1 0 0 1 0 0)" d="M0 0L612 0L612 0L612 792L612 792L0 792z" /></clipPath></defs><g transform="matrix(1.333333 0 0 1.333333 0 0)"><g clip-path="url(#1)"><path id="170" transform="matrix(1 0 0 -1 0 792)" d="M336.378 529.72L541.134 529.72L541.134 505.72L336.378 505.72zM278.74 529.72L336.378 529.72L336.378 505.72L278.74 505.72zM218.551 529.72L278.74 529.72L278.74 505.72L218.551 505.72zM165.354 529.72L218.551 529.72L218.551 505.72L165.354 505.72zM113.669 529.72L165.354 529.72L165.354 505.72L113.669 505.72zM56.693 529.72L113.669 529.72L113.669 505.72L56.693 505.72zM336.378 577.72L541.134 577.72L541.134 553.72L336.378 553.72zM278.74 577.72L336.378 577.72L336.378 553.72L278.74 553.72zM218.551 577.72L278.74 577.72L278.74 553.72L218.551 553.72zM165.354 577.72L218.551 577.72L218.551 553.72L165.354 553.72zM113.669 577.72L165.354 577.72L165.354 553.72L113.669 553.72zM56.693 577.72L113.669 577.72L113.669 553.72L56.693 553.72zM336.378 612.182L541.134 612.182L541.134 595.174L336.378 595.174zM278.74 612.182L336.378 612.182L336.378 595.174L278.74 595.174zM218.551 612.182L278.74 612.182L278.74 595.174L218.551 595.174zM165.354 612.182L218.551 612.182L218.551 595.174L165.354 595.174zM113.669 612.182L165.354 612.182L165.354 595.174L113.669 595.174zM56.693 612.182L113.669 612.182L113.669 595.174L56.693 595.174z" stroke="none" fill="#E6E7E8" fill-rule="nonzero" /><path id="171" transform="matrix(1 0 0 -1 0 792)" d="M56.6929 636.1821L113.6689 636.1821" stroke="#000000" stroke-width="1" fill="none" /><path id="172" transform="matrix(1 0 0 -1 0 792)" d="M113.6693 636.1821L165.3543 636.1821" stroke="#000000" stroke-width="1" fill="none" /><path id="173" transform="matrix(1 0 0 -1 0 792)" d="M165.3543 636.1821L218.5513 636.1821" stroke="#000000" stroke-width="1" fill="none" /><path id="174" transform="matrix(1 0 0 -1 0 792)" d="M218.5512 636.1821L278.7402 636.1821" stroke="#000000" stroke-width="1" fill="none" /><path id="175" transform="matrix(1 0 0 -1 0 792)" d="M278.7402 636.1821L336.3782 636.1821" stroke="#000000" stroke-width="1" fill="none" /><path id="176" transform="matrix(1 0 0 -1 0 792)" d="M336.3779 636.1821L541.1339 636.1821" stroke="#000000" stroke-width="1" fill="none" /><path id="810" transform="matrix(1 0 0 -1 0 792)" d="M338.268 174.452L541.134 174.452L541.134 150.452L338.268 150.452zM278.74 174.452L338.268 174.452L338.268 150.452L278.74 150.452zM219.213 174.452L278.741 174.452L278.741 150.452L219.213 150.452zM166.299 174.452L219.212 174.452L219.212 150.452L166.299 150.452zM113.669 174.452L166.299 174.452L166.299 150.452L113.669 150.452zM56.693 174.452L113.669 174.452L113.669 150.452L56.693 150.452zM338.268 252.452L541.134 252.452L541.134 228.452L338.268 228.452zM278.74 252.452L338.268 252.452L338.268 228.452L278.74 228.452zM219.213 252.452L278.741 252.452L278.741 228.452L219.213 228.452zM166.299 252.452L219.212 252.452L219.212 228.452L166.299 228.452zM113.669 252.452L166.299 252.452L166.299 228.452L113.669 228.452zM56.693 252.452L113.669 252.452L113.669 228.452L56.693 228.452zM338.268 310.452L541.134 310.452L541.134 286.452L338.268 286.452zM278.74 310.452L338.268 310.452L338.268 286.452L278.74 286.452zM219.213 310.452L278.741 310.452L278.741 286.452L219.213 286.452zM166.299 310.452L219.212 310.452L219.212 286.452L166.299 286.452zM113.669 310.452L166.299 310.452L166.299 286.452L113.669 286.452zM56.693 310.452L113.669 310.452L113.669 286.452L56.693 286.452zM338.268 358.452L541.134 358.452L541.134 334.452L338.268 334.452zM278.74 358.452L338.268 358.452L338.268 334.452L278.74 334.452zM219.213 358.452L278.741 358.452L278.741 334.452L219.213 334.452zM166.299 358.452L219.212 358.452L219.212 334.452L166.299 334.452zM113.669 358.452L166.299 358.452L166.299 334.452L113.669 334.452zM56.693 358.452L113.669 358.452L113.669 334.452L56.693 334.452zM338.268 406.452L541.134 406.452L541.134 382.452L338.268 382.452zM278.74 406.452L338.268 406.452L338.268 382.452L278.74 382.452zM219.213 406.452L278.741 406.452L278.741 382.452L219.213 382.452zM166.299 406.452L219.212 406.452L219.212 382.452L166.299 382.452zM113.669 406.452L166.299 406.452L166.299 382.452L113.669 382.452zM56.693 406.452L113.669 406.452L113.669 382.452L56.693 382.452z" stroke="none" fill="#E6E7E8" fill-rule="nonzero" /><path id="811" transform="matrix(1 0 0 -1 0 792)" d="M56.6929 430.4524L113.6689 430.4524" stroke="#000000" stroke-width="1" fill="none" /><path id="812" transform="matrix(1 0 0 -1 0 792)" d="M113.6693 430.4524L166.2993 430.4524" stroke="#000000" stroke-width="1" fill="none" /><path id="813" transform="matrix(1 0 0 -1 0 792)" d="M166.2992 430.4524L219.2122 430.4524" stroke="#000000" stroke-width="1" fill="none" /><path id="814" transform="matrix(1 0 0 -1 0 792)" d="M219.2126 430.4524L278.7406 430.4524" stroke="#000000" stroke-width="1" fill="none" /><path id="815" transform="matrix(1 0 0 -1 0 792)" d="M278.7402 430.4524L338.2682 430.4524" stroke="#000000" stroke-width="1" fill="none" /><path id="816" transform="matrix(1 0 0 -1 0 792)" d="M338.2677 430.4524L541.1337 430.4524" stroke="#000000" stroke-width="1" fill="none" /><g clip-path="url(#2)"><path id="2001" transform="matrix(1 0 0 -1 0 792)" d="M56.9448 32.702L56.9448 -12.691" stroke="#000000" stroke-width="0.75" stroke-linecap="round" stroke-dasharray="0.75,1.464" fill="none" /><path id="2002" transform="matrix(1 0 0 -1 0 792)" d="M56.9448 -13.7986L56.9448 -13.7986M56.9448 34.9164L56.9448 34.9164" stroke="#000000" stroke-width="0.75" stroke-linecap="round" fill="none" /></g></g></g></svg>