<svg xmlns="http://www.w3.org/2000/svg" xmlns:xlink="http://www.w3.org/1999/xlink" id="body_76" preserveAspectRatio="xMinYMin meet" viewBox="0 0 816 1056"><defs><clipPath id="1"><path id="" clip-rule="evenodd" transform="matrix(1 0 0 1 0 0)" d="M0 792L0 0L0 0L612 0L612 0L612 792L612 792L0 792z" /></clipPath><clipPath id="2"><path id="" clip-rule="evenodd" transform="matrix(1 0 0 1 0 0)" d="M56.693 253.176L293.244 253.176L293.244 253.176L293.244 56.69299L293.244 56.69299L56.693 56.69299z" /></clipPath><clipPath id="3"><path id="" clip-rule="evenodd" transform="matrix(1 0 0 1 0 0)" d="M47.693 48.69299L302.244 48.69299L302.244 48.69299L302.244 246.385L302.244 246.385L47.693 246.385z" /></clipPath><clipPath id="4"><path id="" clip-rule="evenodd" transform="matrix(1 0 0 1 0 0)" d="M56.693 439.9L293.244 439.9L293.244 439.9L293.244 252.917L293.244 252.917L56.693 252.917z" /></clipPath><clipPath id="5"><path id="" clip-rule="evenodd" transform="matrix(1 0 0 1 0 0)" d="M47.693 244.917L302.244 244.917L302.244 244.917L302.244 442.608L302.244 442.608L47.693 442.608z" /></clipPath><clipPath id="6"><path id="" clip-rule="evenodd" transform="matrix(1 0 0 1 0 0)" d="M56.693 655.238L293.244 655.238L293.244 655.238L293.244 449.755L293.244 449.755L56.693 449.755z" /></clipPath><clipPath id="7"><path id="" clip-rule="evenodd" transform="matrix(1 0 0 1 0 0)" d="M47.693 441.754L302.244 441.754L302.244 441.754L302.244 657.946L302.244 657.946L47.693 657.946z" /></clipPath><clipPath id="8"><path id="" clip-rule="evenodd" transform="matrix(1 0 0 1 0 0)" d="M304.914 255.118L541.465 255.118L541.465 255.118L541.465 56.69202L541.465 56.69202L304.914 56.69202z" /></clipPath><clipPath id="9"><path id="" clip-rule="evenodd" transform="matrix(1 0 0 1 0 0)" d="M295.913 48.69299L550.465 48.69299L550.465 48.69299L550.465 257.302L550.465 257.302L295.913 257.302z" /></clipPath><clipPath id="10"><path id="" clip-rule="evenodd" transform="matrix(1 0 0 1 0 0)" d="M304.914 462.641L541.465 462.641L541.465 462.641L541.465 263.159L541.465 263.159L304.914 263.159z" /></clipPath><clipPath id="11"><path id="" clip-rule="evenodd" transform="matrix(1 0 0 1 0 0)" d="M295.913 255.157L550.465 255.157L550.465 255.157L550.465 462.348L550.465 462.348L295.913 462.348z" /></clipPath><clipPath id="12"><path id="" clip-rule="evenodd" transform="matrix(1 0 0 1 0 0)" d="M304.914 687.066L541.465 687.066L541.465 687.066L541.465 468.798L541.465 468.798L304.914 468.798z" /></clipPath><clipPath id="13"><path id="" clip-rule="evenodd" transform="matrix(1 0 0 1 0 0)" d="M295.913 460.799L550.465 460.799L550.465 460.799L550.465 688.408L550.465 688.408L295.913 688.408z" /></clipPath><clipPath id="14"><path id="" clip-rule="evenodd" transform="matrix(1 0 0 1 0 0)" d="M0 0L612 0L612 0L612 792L612 792L0 792z" /></clipPath></defs><g transform="matrix(1.333333 0 0 1.333333 0 0)"><g clip-path="url(#1)"><path id="1" transform="matrix(1 0 0 -1 0 792)" d="M59.5278 735.3072L56.6928 732.4722L56.6928 551.1582L59.5278 548.3232L290.4098 548.3232L293.2438 551.1582L293.2438 732.4722L290.4098 735.3072z" stroke="none" fill="#EAEBEC" fill-rule="nonzero" /><path id="2" transform="matrix(1 0 0 -1 0 792)" d="M62.862 656.414L287.075 656.414L287.075 681.918L62.862 681.918z" stroke="none" fill="#FFFEFE" fill-rule="nonzero" /><path id="3" transform="matrix(1 0 0 -1 0 792)" d="M62.8623 681.9178L287.0753 681.9178" stroke="#939597" stroke-width="0.5" fill="none" /><path id="4" transform="matrix(1 0 0 -1 0 792)" d="M62.862 641.745L287.075 641.745L287.075 661.084L62.862 661.084z" stroke="none" fill="#FFFEFE" fill-rule="nonzero" /><path id="5" transform="matrix(1 0 0 -1 0 792)" d="M63.8814 656.8312L286.5654 656.8312" stroke="#BBBDC0" stroke-width="0.51" stroke-linecap="round" stroke-dasharray="0.51,0.51" fill="none" /><path id="6" transform="matrix(1 0 0 -1 0 792)" d="M287.0753 656.8312L287.0753 656.8312M62.8623 656.8312L62.8623 656.8312" stroke="#BBBDC0" stroke-width="0.51" stroke-linecap="round" fill="none" /><path id="7" transform="matrix(1 0 0 -1 0 792)" d="M62.8623 641.5143L286.5233 641.5143" stroke="#939597" stroke-width="0.5" fill="none" /><g clip-path="url(#2)"><g><g clip-path="url(#3)"><path id="566" transform="matrix(1 0 0 -1 0 792)" d="M59.6311 735.0571C 58.7351 734.1611 57.8391 733.2651 56.9431 732.3691L56.9431 732.3691L56.9431 551.2611C 57.8391 550.3651 58.7351 549.4691 59.6311 548.5731L59.6311 548.5731L290.3061 548.5731C 291.2021 549.4691 292.0981 550.3651 292.9941 551.2611L292.9941 551.2611L292.9941 732.3691C 292.0981 733.2651 291.2021 734.1611 290.3061 735.0571L290.3061 735.0571L59.6311 735.0571z" stroke="#000000" stroke-width="0.5" fill="none" stroke-opacity="0.4980392" /></g></g></g><path id="567" transform="matrix(1 0 0 -1 0 792)" d="M59.5278 539.0829L56.6928 536.2489L56.6928 354.9339L59.5278 352.0999L290.4098 352.0999L293.2438 354.9339L293.2438 536.2489L290.4098 539.0829z" stroke="none" fill="#EAEBEC" fill-rule="nonzero" /><path id="568" transform="matrix(1 0 0 -1 0 792)" d="M62.862 460.19L287.075 460.19L287.075 485.694L62.862 485.694z" stroke="none" fill="#FFFEFE" fill-rule="nonzero" /><path id="569" transform="matrix(1 0 0 -1 0 792)" d="M62.8623 485.694L287.0753 485.694" stroke="#939597" stroke-width="0.5" fill="none" /><path id="570" transform="matrix(1 0 0 -1 0 792)" d="M62.862 445.521L287.075 445.521L287.075 464.86L62.862 464.86z" stroke="none" fill="#FFFEFE" fill-rule="nonzero" /><path id="571" transform="matrix(1 0 0 -1 0 792)" d="M63.8814 460.6074L286.5654 460.6074" stroke="#BBBDC0" stroke-width="0.51" stroke-linecap="round" stroke-dasharray="0.51,0.51" fill="none" /><path id="572" transform="matrix(1 0 0 -1 0 792)" d="M287.0753 460.6074L287.0753 460.6074M62.8623 460.6074L62.8623 460.6074" stroke="#BBBDC0" stroke-width="0.51" stroke-linecap="round" fill="none" /><path id="573" transform="matrix(1 0 0 -1 0 792)" d="M62.8623 445.2905L286.5233 445.2905" stroke="#939597" stroke-width="0.5" fill="none" /><g clip-path="url(#4)"><g><g clip-path="url(#5)"><path id="1088" transform="matrix(1 0 0 -1 0 792)" d="M59.6311 538.8333C 58.7351 537.9373 57.8391 537.0413 56.9431 536.1453L56.9431 536.1453L56.9431 355.0373C 57.8391 354.1413 58.7351 353.2453 59.6311 352.3493L59.6311 352.3493L290.3061 352.3493L290.3061 352.3493L292.9941 355.0373L292.9941 355.0373L292.9941 536.1453C 292.0981 537.0413 291.2021 537.9373 290.3061 538.8333L290.3061 538.8333L59.6311 538.8333z" stroke="#000000" stroke-width="0.5" fill="none" stroke-opacity="0.4980392" /></g></g></g><path id="1089" transform="matrix(1 0 0 -1 0 792)" d="M59.5278 342.2457L56.6928 339.4117L56.6928 139.5977L59.5278 136.7627L290.4098 136.7627L293.2438 139.5977L293.2438 339.4117L290.4098 342.2457z" stroke="none" fill="#EAEBEC" fill-rule="nonzero" /><path id="1090" transform="matrix(1 0 0 -1 0 792)" d="M62.862 254.353L287.075 254.353L287.075 279.857L62.862 279.857z" stroke="none" fill="#FFFEFE" fill-rule="nonzero" /><path id="1091" transform="matrix(1 0 0 -1 0 792)" d="M62.8623 279.8568L287.0753 279.8568" stroke="#939597" stroke-width="0.5" fill="none" /><path id="1092" transform="matrix(1 0 0 -1 0 792)" d="M62.862 239.684L287.075 239.684L287.075 259.023L62.862 259.023z" stroke="none" fill="#FFFEFE" fill-rule="nonzero" /><path id="1093" transform="matrix(1 0 0 -1 0 792)" d="M63.8814 254.7702L286.5654 254.7702" stroke="#BBBDC0" stroke-width="0.51" stroke-linecap="round" stroke-dasharray="0.51,0.51" fill="none" /><path id="1094" transform="matrix(1 0 0 -1 0 792)" d="M287.0753 254.7702L287.0753 254.7702M62.8623 254.7702L62.8623 254.7702" stroke="#BBBDC0" stroke-width="0.51" stroke-linecap="round" fill="none" /><path id="1095" transform="matrix(1 0 0 -1 0 792)" d="M62.8623 239.4532L286.5233 239.4532" stroke="#939597" stroke-width="0.5" fill="none" /><g clip-path="url(#6)"><g><g clip-path="url(#7)"><path id="1667" transform="matrix(1 0 0 -1 0 792)" d="M59.6311 341.996C 58.7351 341.1 57.8391 340.204 56.9431 339.308L56.9431 339.308L56.9431 139.7C 57.8391 138.804 58.7351 137.908 59.6311 137.012L59.6311 137.012L290.3061 137.012L290.3061 137.012L292.9941 139.7L292.9941 139.7L292.9941 339.308C 292.0981 340.204 291.2021 341.1 290.3061 341.996L290.3061 341.996L59.6311 341.996z" stroke="#000000" stroke-width="0.5" fill="none" stroke-opacity="0.4980392" /></g></g></g><path id="1668" transform="matrix(1 0 0 -1 0 792)" d="M307.7478 735.3072L304.9138 732.4722L304.9138 540.2402L307.7478 537.4062L538.6298 537.4062L541.4638 540.2402L541.4638 732.4722L538.6298 735.3072z" stroke="none" fill="#EAEBEC" fill-rule="nonzero" /><path id="1669" transform="matrix(1 0 0 -1 0 792)" d="M311.083 656.414L535.296 656.414L535.296 681.918L311.083 681.918z" stroke="none" fill="#FFFEFE" fill-rule="nonzero" /><path id="1670" transform="matrix(1 0 0 -1 0 792)" d="M311.0827 681.9178L535.2957 681.9178" stroke="#939597" stroke-width="0.5" fill="none" /><path id="1671" transform="matrix(1 0 0 -1 0 792)" d="M311.083 641.745L535.296 641.745L535.296 661.084L311.083 661.084z" stroke="none" fill="#FFFEFE" fill-rule="nonzero" /><path id="1672" transform="matrix(1 0 0 -1 0 792)" d="M312.1019 656.8312L534.7859 656.8312" stroke="#BBBDC0" stroke-width="0.51" stroke-linecap="round" stroke-dasharray="0.51,0.51" fill="none" /><path id="1673" transform="matrix(1 0 0 -1 0 792)" d="M535.2957 656.8312L535.2957 656.8312M311.0827 656.8312L311.0827 656.8312" stroke="#BBBDC0" stroke-width="0.51" stroke-linecap="round" fill="none" /><path id="1674" transform="matrix(1 0 0 -1 0 792)" d="M311.0827 641.5143L534.7437 641.5143" stroke="#939597" stroke-width="0.5" fill="none" /><g clip-path="url(#8)"><g><g clip-path="url(#9)"><path id="2211" transform="matrix(1 0 0 -1 0 792)" d="M307.8517 735.0571C 306.9557 734.1611 306.0597 733.2651 305.1637 732.3691L305.1637 732.3691L305.1637 540.3441C 306.0597 539.4481 306.9557 538.5521 307.8517 537.6561L307.8517 537.6561L538.5267 537.6561C 539.4227 538.5521 540.3187 539.4481 541.2147 540.3441L541.2147 540.3441L541.2147 732.3691L541.2147 732.3691L538.5267 735.0571L538.5267 735.0571L307.8517 735.0571z" stroke="#000000" stroke-width="0.5" fill="none" stroke-opacity="0.4980392" /></g></g></g><path id="2212" transform="matrix(1 0 0 -1 0 792)" d="M307.746 528.8418L304.914 526.0088L304.914 335.1938L307.748 332.3588L538.63 332.3588L541.464 335.1938L541.464 526.0088L538.632 528.8418z" stroke="none" fill="#EAEBEC" fill-rule="nonzero" /><path id="2213" transform="matrix(1 0 0 -1 0 792)" d="M311.083 449.95L535.296 449.95L535.296 475.454L311.083 475.454z" stroke="none" fill="#FFFEFE" fill-rule="nonzero" /><path id="2214" transform="matrix(1 0 0 -1 0 792)" d="M311.0827 475.454L535.2957 475.454" stroke="#939597" stroke-width="0.5" fill="none" /><path id="2215" transform="matrix(1 0 0 -1 0 792)" d="M311.083 435.281L535.296 435.281L535.296 454.62L311.083 454.62z" stroke="none" fill="#FFFEFE" fill-rule="nonzero" /><path id="2216" transform="matrix(1 0 0 -1 0 792)" d="M312.1019 450.3674L534.7859 450.3674" stroke="#BBBDC0" stroke-width="0.51" stroke-linecap="round" stroke-dasharray="0.51,0.51" fill="none" /><path id="2217" transform="matrix(1 0 0 -1 0 792)" d="M535.2957 450.3674L535.2957 450.3674M311.0827 450.3674L311.0827 450.3674" stroke="#BBBDC0" stroke-width="0.51" stroke-linecap="round" fill="none" /><path id="2218" transform="matrix(1 0 0 -1 0 792)" d="M311.0827 435.0505L534.7437 435.0505" stroke="#939597" stroke-width="0.5" fill="none" /><g clip-path="url(#10)"><g><g clip-path="url(#11)"><path id="2796" transform="matrix(1 0 0 -1 0 792)" d="M307.8517 528.5933C 306.9557 527.6973 306.0597 526.8013 305.1637 525.9053L305.1637 525.9053L305.1637 335.2973C 306.0597 334.4013 306.9557 333.5053 307.8517 332.6093L307.8517 332.6093L538.5267 332.6093C 539.4227 333.5053 540.3187 334.4013 541.2147 335.2973L541.2147 335.2973L541.2147 525.9053L541.2147 525.9053L538.5267 528.5933L538.5267 528.5933L307.8517 528.5933z" stroke="#000000" stroke-width="0.5" fill="none" stroke-opacity="0.4980392" /></g></g></g><path id="2797" transform="matrix(1 0 0 -1 0 792)" d="M307.7478 323.2017L304.9138 320.3667L304.9138 109.1347L307.7478 106.3007L538.6298 106.3007L541.4638 109.1347L541.4638 320.3667L538.6298 323.2017z" stroke="none" fill="#EAEBEC" fill-rule="nonzero" /><path id="2798" transform="matrix(1 0 0 -1 0 792)" d="M311.083 244.308L535.296 244.308L535.296 269.812L311.083 269.812z" stroke="none" fill="#FFFEFE" fill-rule="nonzero" /><path id="2799" transform="matrix(1 0 0 -1 0 792)" d="M311.0827 269.8121L535.2957 269.8121" stroke="#939597" stroke-width="0.5" fill="none" /><path id="2800" transform="matrix(1 0 0 -1 0 792)" d="M311.083 229.639L535.296 229.639L535.296 248.978L311.083 248.978z" stroke="none" fill="#FFFEFE" fill-rule="nonzero" /><path id="2801" transform="matrix(1 0 0 -1 0 792)" d="M312.1019 244.7255L534.7859 244.7255" stroke="#BBBDC0" stroke-width="0.51" stroke-linecap="round" stroke-dasharray="0.51,0.51" fill="none" /><path id="2802" transform="matrix(1 0 0 -1 0 792)" d="M535.2957 244.7255L535.2957 244.7255M311.0827 244.7255L311.0827 244.7255" stroke="#BBBDC0" stroke-width="0.51" stroke-linecap="round" fill="none" /><path id="2803" transform="matrix(1 0 0 -1 0 792)" d="M311.0827 229.4086L534.7437 229.4086" stroke="#939597" stroke-width="0.5" fill="none" /><g clip-path="url(#12)"><g><g clip-path="url(#13)"><path id="3473" transform="matrix(1 0 0 -1 0 792)" d="M307.8517 322.9514C 306.9557 322.0554 306.0597 321.1594 305.1637 320.2634L305.1637 320.2634L305.1637 109.2384C 306.0597 108.3424 306.9557 107.4464 307.8517 106.5504L307.8517 106.5504L538.5267 106.5504C 539.4227 107.4464 540.3187 108.3424 541.2147 109.2384L541.2147 109.2384L541.2147 320.2634C 540.3187 321.1594 539.4227 322.0554 538.5267 322.9514L538.5267 322.9514L307.8517 322.9514z" stroke="#000000" stroke-width="0.5" fill="none" stroke-opacity="0.4980392" /></g></g></g><g clip-path="url(#14)"><path id="3490" transform="matrix(1 0 0 -1 0 792)" d="M56.9448 32.702L56.9448 -12.691" stroke="#000000" stroke-width="0.75" stroke-linecap="round" stroke-dasharray="0.75,1.464" fill="none" /><path id="3491" transform="matrix(1 0 0 -1 0 792)" d="M56.9448 -13.7986L56.9448 -13.7986M56.9448 34.9164L56.9448 34.9164" stroke="#000000" stroke-width="0.75" stroke-linecap="round" fill="none" /></g></g></g></svg>