<svg xmlns="http://www.w3.org/2000/svg" xmlns:xlink="http://www.w3.org/1999/xlink" id="body_133" preserveAspectRatio="xMinYMin meet" viewBox="0 0 816 1056"><defs><clipPath id="1"><path id="" clip-rule="evenodd" transform="matrix(1 0 0 1 0 0)" d="M0 792L0 0L0 0L612 0L612 0L612 792L612 792L0 792z" /></clipPath><clipPath id="2"><path id="" clip-rule="evenodd" transform="matrix(1 0 0 1 0 0)" d="M0 0L612 0L612 0L612 792L612 792L0 792z" /></clipPath></defs><g transform="matrix(1.333333 0 0 1.333333 0 0)"><g clip-path="url(#1)"><path id="1" transform="matrix(1 0 0 -1 0 792)" d="M75.0974 727.1418L75.0974 735.3068" stroke="#000000" stroke-width="8" fill="none" /><path id="2" transform="matrix(1 0 0 -1 0 792)" d="M75.0974 622.8032L75.0974 630.9682" stroke="#000000" stroke-width="8" fill="none" /><path id="3" transform="matrix(1 0 0 -1 0 792)" d="M75.0974 541.2993L75.0974 549.4643" stroke="#000000" stroke-width="8" fill="none" /><path id="4" transform="matrix(1 0 0 -1 0 792)" d="M75.0974 404.126L75.0974 412.291" stroke="#000000" stroke-width="8" fill="none" /><path id="5" transform="matrix(1 0 0 -1 0 792)" d="M75.0974 292.6221L75.0974 300.7871" stroke="#000000" stroke-width="8" fill="none" /><path id="6" transform="matrix(1 0 0 -1 0 792)" d="M75.0974 231.1181L75.0974 239.2831" stroke="#000000" stroke-width="8" fill="none" /><path id="1779" transform="matrix(1 0 0 -1 0 792)" d="M323.3179 727.1418L323.3179 735.3068" stroke="#000000" stroke-width="8" fill="none" /><path id="1780" transform="matrix(1 0 0 -1 0 792)" d="M323.3179 622.8032L323.3179 630.9682" stroke="#000000" stroke-width="8" fill="none" /><path id="1781" transform="matrix(1 0 0 -1 0 792)" d="M323.3179 498.4646L323.3179 506.6296" stroke="#000000" stroke-width="8" fill="none" /><path id="1782" transform="matrix(1 0 0 -1 0 792)" d="M323.3179 404.126L323.3179 412.291" stroke="#000000" stroke-width="8" fill="none" /><path id="1783" transform="matrix(1 0 0 -1 0 792)" d="M323.3179 322.6221L323.3179 330.7871" stroke="#000000" stroke-width="8" fill="none" /><path id="1784" transform="matrix(1 0 0 -1 0 792)" d="M323.3179 241.1181L323.3179 249.2831" stroke="#000000" stroke-width="8" fill="none" /><g clip-path="url(#2)"><path id="3540" transform="matrix(1 0 0 -1 0 792)" d="M555.6614 32.702L555.6614 -12.691" stroke="#000000" stroke-width="0.75" stroke-linecap="round" stroke-dasharray="0.75,1.464" fill="none" /><path id="3541" transform="matrix(1 0 0 -1 0 792)" d="M555.6614 -13.7986L555.6614 -13.7986M555.6614 34.9164L555.6614 34.9164" stroke="#000000" stroke-width="0.75" stroke-linecap="round" fill="none" /></g></g></g></svg>