<svg xmlns="http://www.w3.org/2000/svg" xmlns:xlink="http://www.w3.org/1999/xlink" id="body_67" preserveAspectRatio="xMinYMin meet" viewBox="0 0 816 1056"><defs><clipPath id="1"><path id="" clip-rule="evenodd" transform="matrix(1 0 0 1 0 0)" d="M0 792L0 0L0 0L612 0L612 0L612 792L612 792L0 792z" /></clipPath><clipPath id="2"><path id="" clip-rule="evenodd" transform="matrix(1 0 0 1 0 0)" d="M0 0L612 0L612 0L612 792L612 792L0 792z" /></clipPath></defs><g transform="matrix(1.333333 0 0 1.333333 0 0)"><g clip-path="url(#1)"><path id="1" transform="matrix(1 0 0 -1 0 792)" d="M70.866 538.426L99.212 538.426L99.212 350.049L70.866 350.049zM70.866 735.307L99.212 735.307L99.212 546.93L70.866 546.93z" stroke="none" fill="#404042" fill-rule="nonzero" /><path id="2" transform="matrix(1 0 0 -1 0 792)" d="M422.362 538.426L555.307 538.426L555.307 520.127L422.362 520.127zM275.811 538.426L422.362 538.426L422.362 520.127L275.811 520.127zM136.063 538.426L275.811 538.426L275.811 520.127L136.063 520.127zM99.213 538.426L136.063 538.426L136.063 520.127L99.213 520.127zM422.362 735.307L555.307 735.307L555.307 717.008L422.362 717.008zM275.811 735.307L422.362 735.307L422.362 717.008L275.811 717.008zM136.063 735.307L275.811 735.307L275.811 717.008L136.063 717.008zM99.213 735.307L136.063 735.307L136.063 717.008L99.213 717.008z" stroke="none" fill="#EAEBEC" fill-rule="nonzero" /><path id="3" transform="matrix(1 0 0 -1 0 792)" d="M422.362 378.395L555.307 378.395L555.307 350.049L422.362 350.049zM275.811 378.395L422.362 378.395L422.362 350.049L275.811 350.049zM136.063 378.395L275.811 378.395L275.811 350.049L136.063 350.049zM99.213 378.395L136.063 378.395L136.063 350.049L99.213 350.049zM422.362 435.088L555.307 435.088L555.307 406.742L422.362 406.742zM275.811 435.088L422.362 435.088L422.362 406.742L275.811 406.742zM136.063 435.088L275.811 435.088L275.811 406.742L136.063 406.742zM99.213 435.088L136.063 435.088L136.063 406.742L99.213 406.742zM422.362 491.781L555.307 491.781L555.307 463.435L422.362 463.435zM275.811 491.781L422.362 491.781L422.362 463.435L275.811 463.435zM136.063 491.781L275.811 491.781L275.811 463.435L136.063 463.435zM99.213 491.781L136.063 491.781L136.063 463.435L99.213 463.435zM422.362 575.276L555.307 575.276L555.307 546.93L422.362 546.93zM275.811 575.276L422.362 575.276L422.362 546.93L275.811 546.93zM136.063 575.276L275.811 575.276L275.811 546.93L136.063 546.93zM99.213 575.276L136.063 575.276L136.063 546.93L99.213 546.93zM422.362 631.969L555.307 631.969L555.307 603.623L422.362 603.623zM275.811 631.969L422.362 631.969L422.362 603.623L275.811 603.623zM136.063 631.969L275.811 631.969L275.811 603.623L136.063 603.623zM99.213 631.969L136.063 631.969L136.063 603.623L99.213 603.623zM422.362 688.662L555.307 688.662L555.307 660.316L422.362 660.316zM275.811 688.662L422.362 688.662L422.362 660.316L275.811 660.316zM136.063 688.662L275.811 688.662L275.811 660.316L136.063 660.316zM99.213 688.662L136.063 688.662L136.063 660.316L99.213 660.316z" stroke="none" fill="#F0F1F1" fill-rule="nonzero" /><path id="4" transform="matrix(1 0 0 -1 0 792)" d="M99.2126 717.0086L136.0626 717.0086" stroke="#000000" stroke-width="1" fill="none" /><path id="5" transform="matrix(1 0 0 -1 0 792)" d="M136.063 717.0086L275.811 717.0086" stroke="#000000" stroke-width="1" fill="none" /><path id="6" transform="matrix(1 0 0 -1 0 792)" d="M275.811 717.0086L422.362 717.0086" stroke="#000000" stroke-width="1" fill="none" /><path id="7" transform="matrix(1 0 0 -1 0 792)" d="M422.3622 717.0086L555.3073 717.0086" stroke="#000000" stroke-width="1" fill="none" /><path id="8" transform="matrix(1 0 0 -1 0 792)" d="M99.2126 520.1274L136.0626 520.1274" stroke="#000000" stroke-width="1" fill="none" /><path id="9" transform="matrix(1 0 0 -1 0 792)" d="M136.063 520.1274L275.811 520.1274" stroke="#000000" stroke-width="1" fill="none" /><path id="10" transform="matrix(1 0 0 -1 0 792)" d="M275.811 520.1274L422.362 520.1274" stroke="#000000" stroke-width="1" fill="none" /><path id="11" transform="matrix(1 0 0 -1 0 792)" d="M422.3622 520.1274L555.3073 520.1274" stroke="#000000" stroke-width="1" fill="none" /><path id="12" transform="matrix(1 0 0 -1 0 792)" d="M96.378 726.803L79.335 726.803L79.335 555.434L96.378 555.434z" stroke="none" fill="#404042" fill-rule="nonzero" /><path id="13" transform="matrix(1 0 0 -1 0 792)" d="M83.1033 722.1326C 83.1033 722.0206 83.1913 721.9166 83.31931 721.9166L83.31931 721.9166L85.8513 721.9166C 85.9473 721.9166 86.0193 721.8446 86.0193 721.7487L86.0193 721.7487L86.0193 719.0126C 86.0193 716.8366 87.5233 715.5806 89.23531 715.5806C 90.9633 715.5806 92.4633 716.8366 92.4633 719.0126L92.4633 719.0126L92.4633 722.4086C 92.4633 722.5366 92.3593 722.6246 92.2473 722.6246L92.2473 722.6246L83.31931 722.6246C 83.1913 722.6246 83.1033 722.5366 83.1033 722.4086zM89.23531 716.3006C 87.9073 716.3006 86.6913 717.3087 86.6913 719.0366L86.6913 719.0366L86.6913 721.7487C 86.6913 721.8446 86.76331 721.9166 86.8593 721.9166L86.8593 721.9166L91.6233 721.9166C 91.7193 721.9166 91.79131 721.8446 91.79131 721.7487L91.79131 721.7487L91.79131 719.0366C 91.79131 717.3087 90.61131 716.3006 89.23531 716.3006z" stroke="none" fill="#FFFEFE" fill-rule="evenodd" /><path id="14" transform="matrix(1 0 0 -1 0 792)" d="M83.31931 713.1206C 83.1913 713.1206 83.1033 713.0327 83.1033 712.9046L83.1033 712.9046L83.1033 712.6286C 83.1033 712.5166 83.1913 712.4126 83.31931 712.4126L83.31931 712.4126L86.2473 712.4126C 86.3433 712.4126 86.4153 712.3406 86.4153 712.2446L86.4153 712.2446L86.4153 708.9926C 86.4153 708.9446 86.4153 708.8846 86.4153 708.8366C 86.4153 708.7406 86.3673 708.6846 86.31931 708.6206L86.31931 708.6206L83.2833 706.4606C 83.1713 706.3966 83.1033 706.2686 83.1033 706.1246L83.1033 706.1246L83.1033 705.6926C 83.1033 705.5966 83.1873 705.5486 83.2833 705.5966L83.2833 705.5966L86.4153 707.8406C 86.4793 707.8886 86.5753 707.8607 86.6073 707.7806C 87.05531 706.5166 88.1713 705.8007 89.4513 705.8007C 91.0673 705.8007 92.4633 706.9766 92.4633 708.9926L92.4633 708.9926L92.4633 712.9046C 92.4633 713.0327 92.3593 713.1206 92.2473 713.1206zM89.4393 706.4966C 88.1913 706.4966 87.0873 707.3846 87.0873 709.0166L87.0873 709.0166L87.0873 712.2446C 87.0873 712.3406 87.1593 712.4126 87.2553 712.4126L87.2553 712.4126L91.6233 712.4126C 91.7193 712.4126 91.79131 712.3406 91.79131 712.2446L91.79131 712.2446L91.79131 709.0166C 91.79131 707.3846 90.6713 706.4966 89.4393 706.4966z" stroke="none" fill="#FFFEFE" fill-rule="evenodd" /><path id="15" transform="matrix(1 0 0 -1 0 792)" d="M83.1033 696.7766C 83.1033 696.6646 83.1913 696.5606 83.31931 696.5606L83.31931 696.5606L83.58331 696.5606C 83.6953 696.5606 83.7993 696.6646 83.7993 696.7766L83.7993 696.7766L83.7993 702.1166C 83.7993 702.2126 83.8713 702.2846 83.9673 702.2846L83.9673 702.2846L87.1953 702.2846C 87.29131 702.2846 87.3633 702.2126 87.3633 702.1166L87.3633 702.1166L87.3633 697.6286C 87.3633 697.5166 87.4513 697.4126 87.5793 697.4126L87.5793 697.4126L87.81931 697.4126C 87.9313 697.4126 88.0353 697.5166 88.0353 697.6286L88.0353 697.6286L88.0353 702.1166C 88.0353 702.2126 88.1073 702.2846 88.2033 702.2846L88.2033 702.2846L91.5993 702.2846C 91.6953 702.2846 91.7673 702.2126 91.7673 702.1166L91.7673 702.1166L91.7673 696.7766C 91.7673 696.6646 91.8553 696.5606 91.9833 696.5606L91.9833 696.5606L92.2473 696.5606C 92.3593 696.5606 92.4633 696.6646 92.4633 696.7766L92.4633 696.7766L92.4633 702.7766C 92.4633 702.9046 92.3593 702.9926 92.2473 702.9926L92.2473 702.9926L83.31931 702.9926C 83.1913 702.9926 83.1033 702.9046 83.1033 702.7766z" stroke="none" fill="#FFFEFE" fill-rule="evenodd" /><path id="16" transform="matrix(1 0 0 -1 0 792)" d="M82.9233 691.1126C 82.9233 689.0486 83.8713 687.6806 85.3593 687.6806C 87.1033 687.6806 87.6793 689.6486 88.1433 691.1366C 88.6233 692.6726 89.0433 693.9326 90.2433 693.9326C 91.2513 693.9326 91.9833 693.0326 91.9833 691.3526C 91.9833 689.7366 91.3113 688.7006 90.3513 688.5566C 90.20731 688.5566 90.11131 688.4606 90.11131 688.3166L90.11131 688.3166L90.11131 688.0526C 90.11131 687.9566 90.26331 687.8606 90.37531 687.8606C 91.7193 687.9566 92.6433 689.4006 92.6433 691.3526C 92.6433 693.3846 91.65131 694.6766 90.1953 694.6766C 88.4993 694.6766 87.9233 692.8766 87.4593 691.3406C 86.9793 689.7566 86.5393 688.4366 85.3233 688.4366C 84.3153 688.4366 83.58331 689.3846 83.58331 691.1126C 83.58331 692.8086 84.2433 693.8966 85.2033 694.0406C 85.3313 694.0566 85.4273 694.1486 85.4433 694.2926L85.4433 694.2926L85.4433 694.4966C 85.4433 694.6406 85.3073 694.7526 85.1793 694.7366C 83.8353 694.6406 82.9233 693.1446 82.9233 691.1126z" stroke="none" fill="#FFFEFE" fill-rule="evenodd" /><path id="17" transform="matrix(1 0 0 -1 0 792)" d="M83.1033 678.8486C 83.1033 678.7366 83.1913 678.6326 83.31931 678.6326L83.31931 678.6326L83.58331 678.6326C 83.6953 678.6326 83.7993 678.7366 83.7993 678.8486L83.7993 678.8486L83.7993 684.1886C 83.7993 684.2846 83.8713 684.3566 83.9673 684.3566L83.9673 684.3566L87.1953 684.3566C 87.29131 684.3566 87.3633 684.2846 87.3633 684.1886L87.3633 684.1886L87.3633 679.7006C 87.3633 679.5886 87.4513 679.4846 87.5793 679.4846L87.5793 679.4846L87.81931 679.4846C 87.9313 679.4846 88.0353 679.5886 88.0353 679.7006L88.0353 679.7006L88.0353 684.1886C 88.0353 684.2846 88.1073 684.3566 88.2033 684.3566L88.2033 684.3566L91.5993 684.3566C 91.6953 684.3566 91.7673 684.2846 91.7673 684.1886L91.7673 684.1886L91.7673 678.8486C 91.7673 678.7366 91.8553 678.6326 91.9833 678.6326L91.9833 678.6326L92.2473 678.6326C 92.3593 678.6326 92.4633 678.7366 92.4633 678.8486L92.4633 678.8486L92.4633 684.8486C 92.4633 684.9766 92.3593 685.0646 92.2473 685.0646L92.2473 685.0646L83.31931 685.0646C 83.1913 685.0646 83.1033 684.9766 83.1033 684.8486z" stroke="none" fill="#FFFEFE" fill-rule="evenodd" /><path id="18" transform="matrix(1 0 0 -1 0 792)" d="M91.0713 675.2366C 91.1193 675.2366 91.1553 675.1766 91.1073 675.1286L91.1073 675.1286L83.2713 668.8886C 83.1593 668.8086 83.1033 668.6846 83.1033 668.5406L83.1033 668.5406L83.1033 668.3366C 83.1033 668.2246 83.1913 668.1206 83.31931 668.1206L83.31931 668.1206L92.2473 668.1206C 92.3593 668.1206 92.4633 668.2246 92.4633 668.3366L92.4633 668.3366L92.4633 668.6126C 92.4633 668.7406 92.3593 668.8286 92.2473 668.8286L92.2473 668.8286L84.4833 668.8286C 84.4193 668.8286 84.3993 668.9046 84.4473 668.9366L84.4473 668.9366L92.2953 675.1766C 92.3913 675.2726 92.4633 675.3966 92.4633 675.5246L92.4633 675.5246L92.4633 675.7286C 92.4633 675.8566 92.3593 675.9446 92.2473 675.9446L92.2473 675.9446L83.31931 675.9446C 83.1913 675.9446 83.1033 675.8566 83.1033 675.7286L83.1033 675.7286L83.1033 675.4526C 83.1033 675.3406 83.1913 675.2366 83.31931 675.2366z" stroke="none" fill="#FFFEFE" fill-rule="evenodd" /><path id="19" transform="matrix(1 0 0 -1 0 792)" d="M83.6313 660.6326C 83.6313 662.9366 85.4793 664.7966 87.7833 664.7966C 90.0553 664.7966 91.9353 662.9366 91.9353 660.6326C 91.9353 659.2086 91.2153 657.9686 90.11131 657.2006C 89.9993 657.1366 89.9753 657.0006 90.0393 656.8886L90.0393 656.8886L90.1713 656.6486C 90.2193 656.5526 90.3513 656.5286 90.4473 656.5766C 91.7593 657.4406 92.6433 658.9526 92.6433 660.6326C 92.6433 663.3366 90.4553 665.5166 87.7833 665.5166C 85.0953 665.5166 82.9233 663.3366 82.9233 660.6326C 82.9233 658.9366 83.79131 657.4286 85.1193 656.5646C 85.1993 656.5166 85.34731 656.5406 85.3953 656.6366L85.3953 656.6366L85.5393 656.8886C 85.5873 657.0006 85.5633 657.1366 85.4673 657.2006C 84.34731 657.9526 83.6313 659.2086 83.6313 660.6326z" stroke="none" fill="#FFFEFE" fill-rule="evenodd" /><path id="20" transform="matrix(1 0 0 -1 0 792)" d="M83.1033 647.7206C 83.1033 647.6086 83.1913 647.5046 83.31931 647.5046L83.31931 647.5046L83.58331 647.5046C 83.6953 647.5046 83.7993 647.6086 83.7993 647.7206L83.7993 647.7206L83.7993 653.0606C 83.7993 653.1566 83.8713 653.2286 83.9673 653.2286L83.9673 653.2286L87.1953 653.2286C 87.29131 653.2286 87.3633 653.1566 87.3633 653.0606L87.3633 653.0606L87.3633 648.5726C 87.3633 648.4606 87.4513 648.3566 87.5793 648.3566L87.5793 648.3566L87.81931 648.3566C 87.9313 648.3566 88.0353 648.4606 88.0353 648.5726L88.0353 648.5726L88.0353 653.0606C 88.0353 653.1566 88.1073 653.2286 88.2033 653.2286L88.2033 653.2286L91.5993 653.2286C 91.6953 653.2286 91.7673 653.1566 91.7673 653.0606L91.7673 653.0606L91.7673 647.7206C 91.7673 647.6086 91.8553 647.5046 91.9833 647.5046L91.9833 647.5046L92.2473 647.5046C 92.3593 647.5046 92.4633 647.6086 92.4633 647.7206L92.4633 647.7206L92.4633 653.7206C 92.4633 653.8486 92.3593 653.9366 92.2473 653.9366L92.2473 653.9366L83.31931 653.9366C 83.1913 653.9366 83.1033 653.8486 83.1033 653.7206z" stroke="none" fill="#FFFEFE" fill-rule="evenodd" /><path id="726" transform="matrix(1 0 0 -1 0 792)" d="M96.378 529.922L79.335 529.922L79.335 358.553L96.378 358.553z" stroke="none" fill="#404042" fill-rule="nonzero" /><path id="727" transform="matrix(1 0 0 -1 0 792)" d="M83.1033 525.2513C 83.1033 525.1393 83.1913 525.0353 83.31931 525.0353L83.31931 525.0353L85.6473 525.0353C 85.7433 525.0353 85.8553 524.9953 85.9353 524.9153L85.9353 524.9153L87.9753 522.7553C 88.0233 522.7073 88.0273 522.5913 87.9633 522.5273L87.9633 522.5273L83.2713 518.9033C 83.1753 518.8233 83.1033 518.6993 83.1033 518.5553L83.1033 518.5553L83.1033 518.0873C 83.1033 518.0073 83.1913 517.9553 83.2713 518.0033L83.2713 518.0033L88.4673 521.9993C 88.5313 522.0633 88.63931 522.0513 88.7193 521.9873L88.7193 521.9873L92.31931 518.1953C 92.3673 518.1473 92.4633 518.1753 92.4633 518.2553L92.4633 518.2553L92.4633 518.7833C 92.4633 518.9273 92.3993 519.0593 92.31931 519.1553L92.31931 519.1553L86.8713 524.9153C 86.8233 524.9633 86.8553 525.0353 86.9193 525.0353L86.9193 525.0353L92.2473 525.0353C 92.3593 525.0353 92.4633 525.1393 92.4633 525.2513L92.4633 525.2513L92.4633 525.5273C 92.4633 525.6553 92.3593 525.7433 92.2473 525.7433L92.2473 525.7433L83.31931 525.7433C 83.1913 525.7433 83.1033 525.6553 83.1033 525.5273z" stroke="none" fill="#FFFEFE" fill-rule="evenodd" /><path id="728" transform="matrix(1 0 0 -1 0 792)" d="M91.0713 515.0993C 91.1193 515.0993 91.1553 515.0393 91.1073 514.9913L91.1073 514.9913L83.2713 508.7513C 83.1593 508.6713 83.1033 508.5473 83.1033 508.4033L83.1033 508.4033L83.1033 508.1993C 83.1033 508.0873 83.1913 507.9833 83.31931 507.9833L83.31931 507.9833L92.2473 507.9833C 92.3593 507.9833 92.4633 508.0873 92.4633 508.1993L92.4633 508.1993L92.4633 508.4753C 92.4633 508.6033 92.3593 508.6913 92.2473 508.6913L92.2473 508.6913L84.4833 508.6913C 84.4193 508.6913 84.3993 508.7673 84.4473 508.7993L84.4473 508.7993L92.2953 515.0393C 92.3913 515.1353 92.4633 515.2593 92.4633 515.3873L92.4633 515.3873L92.4633 515.5913C 92.4633 515.7193 92.3593 515.8073 92.2473 515.8073L92.2473 515.8073L83.31931 515.8073C 83.1913 515.8073 83.1033 515.7193 83.1033 515.5913L83.1033 515.5913L83.1033 515.3153C 83.1033 515.2033 83.1913 515.0993 83.31931 515.0993z" stroke="none" fill="#FFFEFE" fill-rule="evenodd" /><path id="729" transform="matrix(1 0 0 -1 0 792)" d="M82.9233 500.4953C 82.9233 497.8073 85.0953 495.6233 87.7833 495.6233C 90.4553 495.6233 92.6433 497.8073 92.6433 500.4953C 92.6433 503.1993 90.4553 505.3793 87.7833 505.3793C 85.0953 505.3793 82.9233 503.1993 82.9233 500.4953zM91.9353 500.4953C 91.9353 498.2233 90.0553 496.3433 87.7833 496.3433C 85.4793 496.3433 83.6313 498.2233 83.6313 500.4953C 83.6313 502.7993 85.4793 504.6593 87.7833 504.6593C 90.0553 504.6593 91.9353 502.7993 91.9353 500.4953z" stroke="none" fill="#FFFEFE" fill-rule="evenodd" /><path id="730" transform="matrix(1 0 0 -1 0 792)" d="M91.1673 487.8353C 91.2153 487.8353 91.2153 487.7553 91.1673 487.7393L91.1673 487.7393L83.3073 485.1353C 83.1793 485.0873 83.1033 484.9913 83.1033 484.8473L83.1033 484.8473L83.1033 484.4993C 83.1033 484.3713 83.1793 484.2593 83.3073 484.2113L83.3073 484.2113L92.2593 481.3433C 92.3553 481.3113 92.4633 481.3913 92.4633 481.4873L92.4633 481.4873L92.4633 481.8233C 92.4633 481.9673 92.3713 482.0673 92.2593 482.0993L92.2593 482.0993L84.3153 484.6433C 84.2673 484.6593 84.2673 484.7393 84.3153 484.7393L84.3153 484.7393L92.2593 487.3673C 92.3713 487.4153 92.4633 487.5273 92.4633 487.6553L92.4633 487.6553L92.4633 487.9193C 92.4633 488.0633 92.3713 488.1593 92.2593 488.2073L92.2593 488.2073L84.3153 490.8353C 84.2673 490.8513 84.2673 490.9313 84.3153 490.9313L84.3153 490.9313L92.2593 493.4633C 92.3713 493.5113 92.4633 493.6113 92.4633 493.7393L92.4633 493.7393L92.4633 494.0753C 92.4633 494.1873 92.3553 494.2673 92.2593 494.2193L92.2593 494.2193L83.3073 491.3513C 83.1793 491.3033 83.1033 491.2073 83.1033 491.0633L83.1033 491.0633L83.1033 490.7153C 83.1033 490.5873 83.1793 490.4753 83.3073 490.4273z" stroke="none" fill="#FFFEFE" fill-rule="evenodd" /><path id="731" transform="matrix(1 0 0 -1 0 792)" d="M83.1033 473.1353C 83.1033 473.0233 83.1913 472.9193 83.31931 472.9193L83.31931 472.9193L83.58331 472.9193C 83.6953 472.9193 83.7993 473.0233 83.7993 473.1353L83.7993 473.1353L83.7993 478.1633C 83.7993 478.2593 83.8713 478.3313 83.9673 478.3313L83.9673 478.3313L92.2473 478.3313C 92.3593 478.3313 92.4633 478.4353 92.4633 478.5473L92.4633 478.5473L92.4633 478.8233C 92.4633 478.9513 92.3593 479.0393 92.2473 479.0393L92.2473 479.0393L83.31931 479.0393C 83.1913 479.0393 83.1033 478.9513 83.1033 478.8233z" stroke="none" fill="#FFFEFE" fill-rule="evenodd" /><path id="732" transform="matrix(1 0 0 -1 0 792)" d="M83.1033 464.3633C 83.1033 464.2513 83.1913 464.1473 83.31931 464.1473L83.31931 464.1473L83.58331 464.1473C 83.6953 464.1473 83.7993 464.2513 83.7993 464.3633L83.7993 464.3633L83.7993 469.7033C 83.7993 469.7993 83.8713 469.8713 83.9673 469.8713L83.9673 469.8713L87.1953 469.8713C 87.29131 469.8713 87.3633 469.7993 87.3633 469.7033L87.3633 469.7033L87.3633 465.2153C 87.3633 465.1033 87.4513 464.9993 87.5793 464.9993L87.5793 464.9993L87.81931 464.9993C 87.9313 464.9993 88.0353 465.1033 88.0353 465.2153L88.0353 465.2153L88.0353 469.7033C 88.0353 469.7993 88.1073 469.8713 88.2033 469.8713L88.2033 469.8713L91.5993 469.8713C 91.6953 469.8713 91.7673 469.7993 91.7673 469.7033L91.7673 469.7033L91.7673 464.3633C 91.7673 464.2513 91.8553 464.1473 91.9833 464.1473L91.9833 464.1473L92.2473 464.1473C 92.3593 464.1473 92.4633 464.2513 92.4633 464.3633L92.4633 464.3633L92.4633 470.3633C 92.4633 470.4913 92.3593 470.5793 92.2473 470.5793L92.2473 470.5793L83.31931 470.5793C 83.1913 470.5793 83.1033 470.4913 83.1033 470.3633z" stroke="none" fill="#FFFEFE" fill-rule="evenodd" /><path id="733" transform="matrix(1 0 0 -1 0 792)" d="M83.1033 457.7993C 83.1033 454.9673 85.1433 453.4433 87.7833 453.4433C 90.3913 453.4433 92.4633 454.9673 92.4633 457.7993L92.4633 457.7993L92.4633 461.2433C 92.4633 461.3713 92.3593 461.4593 92.2473 461.4593L92.2473 461.4593L83.31931 461.4593C 83.1913 461.4593 83.1033 461.3713 83.1033 461.2433zM87.7833 454.1513C 85.5113 454.1513 83.7993 455.4833 83.7993 457.8353L83.7993 457.8353L83.7993 460.5833C 83.7993 460.6793 83.8713 460.7513 83.9673 460.7513L83.9673 460.7513L91.5993 460.7513C 91.6953 460.7513 91.7673 460.6793 91.7673 460.5833L91.7673 460.5833L91.7673 457.8353C 91.7673 455.4833 90.0393 454.1513 87.7833 454.1513z" stroke="none" fill="#FFFEFE" fill-rule="evenodd" /><path id="734" transform="matrix(1 0 0 -1 0 792)" d="M87.29131 443.1953C 87.29131 443.0993 87.2193 443.0273 87.1233 443.0273L87.1233 443.0273L85.79131 443.0273C 85.6953 443.0273 85.5713 443.0633 85.4913 443.1113C 84.3553 443.8793 83.6313 445.1313 83.6313 446.5553C 83.6313 448.8593 85.4793 450.7193 87.7833 450.7193C 90.0553 450.7193 91.9353 448.8593 91.9353 446.5553C 91.9353 445.2913 91.3353 444.1313 90.4233 443.3633C 90.3273 443.2833 90.3073 443.1473 90.3873 443.0513L90.3873 443.0513L90.5433 442.8233C 90.5913 442.7273 90.73531 442.7113 90.8313 442.7753C 91.9353 443.6873 92.6433 445.0353 92.6433 446.5553C 92.6433 449.2593 90.4553 451.4393 87.7833 451.4393C 85.0953 451.4393 82.9233 449.2593 82.9233 446.5553C 82.9233 445.1473 83.5513 443.8593 84.5913 443.0753C 84.63931 443.0433 84.6153 442.9793 84.5673 442.9793L84.5673 442.9793L84.5433 442.9673C 84.4633 442.9673 84.31931 442.9553 84.2553 442.9553L84.2553 442.9553L83.31931 442.9553C 83.1913 442.9553 83.1033 442.8673 83.1033 442.7393L83.1033 442.7393L83.1033 442.5713C 83.1033 442.4593 83.1913 442.3553 83.31931 442.3553L83.31931 442.3553L87.6993 442.3553C 87.8113 442.3553 87.9153 442.4593 87.9153 442.5713L87.9153 442.5713L87.9153 446.2313C 87.9153 446.3593 87.8113 446.4473 87.6993 446.4473L87.6993 446.4473L87.5073 446.4473C 87.3793 446.4473 87.29131 446.3593 87.29131 446.2313z" stroke="none" fill="#FFFEFE" fill-rule="evenodd" /><path id="735" transform="matrix(1 0 0 -1 0 792)" d="M83.1033 433.3433C 83.1033 433.2313 83.1913 433.1273 83.31931 433.1273L83.31931 433.1273L83.58331 433.1273C 83.6953 433.1273 83.7993 433.2313 83.7993 433.3433L83.7993 433.3433L83.7993 438.6833C 83.7993 438.7793 83.8713 438.8513 83.9673 438.8513L83.9673 438.8513L87.1953 438.8513C 87.29131 438.8513 87.3633 438.7793 87.3633 438.6833L87.3633 438.6833L87.3633 434.1953C 87.3633 434.0833 87.4513 433.9793 87.5793 433.9793L87.5793 433.9793L87.81931 433.9793C 87.9313 433.9793 88.0353 434.0833 88.0353 434.1953L88.0353 434.1953L88.0353 438.6833C 88.0353 438.7793 88.1073 438.8513 88.2033 438.8513L88.2033 438.8513L91.5993 438.8513C 91.6953 438.8513 91.7673 438.7793 91.7673 438.6833L91.7673 438.6833L91.7673 433.3433C 91.7673 433.2313 91.8553 433.1273 91.9833 433.1273L91.9833 433.1273L92.2473 433.1273C 92.3593 433.1273 92.4633 433.2313 92.4633 433.3433L92.4633 433.3433L92.4633 439.3433C 92.4633 439.4713 92.3593 439.5593 92.2473 439.5593L92.2473 439.5593L83.31931 439.5593C 83.1913 439.5593 83.1033 439.4713 83.1033 439.3433z" stroke="none" fill="#FFFEFE" fill-rule="evenodd" /><path id="1569" transform="matrix(1 0 0 -1 0 792)" d="M75.1181 234.8656L75.1181 243.0306" stroke="#BBBDC0" stroke-width="8" fill="none" /><path id="2432" transform="matrix(1 0 0 -1 0 792)" d="M323.3386 320.4561L323.3386 328.6211" stroke="#BBBDC0" stroke-width="8" fill="none" /><path id="2433" transform="matrix(1 0 0 -1 0 792)" d="M323.3386 248.4482L323.3386 256.6132" stroke="#BBBDC0" stroke-width="8" fill="none" /><g clip-path="url(#2)"><path id="3194" transform="matrix(1 0 0 -1 0 792)" d="M555.6614 32.702L555.6614 -12.691" stroke="#000000" stroke-width="0.75" stroke-linecap="round" stroke-dasharray="0.75,1.464" fill="none" /><path id="3195" transform="matrix(1 0 0 -1 0 792)" d="M555.6614 -13.7986L555.6614 -13.7986M555.6614 34.9164L555.6614 34.9164" stroke="#000000" stroke-width="0.75" stroke-linecap="round" fill="none" /></g></g></g></svg>