<svg xmlns="http://www.w3.org/2000/svg" xmlns:xlink="http://www.w3.org/1999/xlink" id="body_112" preserveAspectRatio="xMinYMin meet" viewBox="0 0 816 1056"><defs><clipPath id="1"><path id="" clip-rule="evenodd" transform="matrix(1 0 0 1 0 0)" d="M0 792L0 0L0 0L612 0L612 0L612 792L612 792L0 792z" /></clipPath><clipPath id="2"><path id="" clip-rule="evenodd" transform="matrix(1 0 0 1 0 0)" d="M0 0L612 0L612 0L612 792L612 792L0 792z" /></clipPath></defs><g transform="matrix(1.333333 0 0 1.333333 0 0)"><g clip-path="url(#1)"><path id="1888" transform="matrix(1 0 0 -1 0 792)" d="M338.929 323.853L541.134 323.853L541.134 298.103L338.929 298.103zM304.913 323.853L338.929 323.853L338.929 298.103L304.913 298.103zM338.929 375.353L541.134 375.353L541.134 349.603L338.929 349.603zM304.913 375.353L338.929 375.353L338.929 349.603L304.913 349.603zM338.929 415.853L541.134 415.853L541.134 401.103L338.929 401.103zM304.913 415.853L338.929 415.853L338.929 401.103L304.913 401.103zM338.929 467.353L541.134 467.353L541.134 441.603L338.929 441.603zM304.913 467.353L338.929 467.353L338.929 441.603L304.913 441.603zM338.929 496.853L541.134 496.853L541.134 482.103L338.929 482.103zM304.913 496.853L338.929 496.853L338.929 482.103L304.913 482.103zM338.929 526.353L541.134 526.353L541.134 511.603L338.929 511.603zM304.913 526.353L338.929 526.353L338.929 511.603L304.913 511.603zM338.929 566.853L541.134 566.853L541.134 552.103L338.929 552.103zM304.913 566.853L338.929 566.853L338.929 552.103L304.913 552.103z" stroke="none" fill="#E5E6E7" fill-rule="nonzero" /><path id="1889" transform="matrix(1 0 0 -1 0 792)" d="M304.9134 566.8528L338.9294 566.8528" stroke="#000000" stroke-width="1" fill="none" /><path id="1890" transform="matrix(1 0 0 -1 0 792)" d="M338.9291 566.8528L541.1341 566.8528" stroke="#000000" stroke-width="1" fill="none" /><g clip-path="url(#2)"><path id="2934" transform="matrix(1 0 0 -1 0 792)" d="M56.9448 32.702L56.9448 -12.691" stroke="#000000" stroke-width="0.75" stroke-linecap="round" stroke-dasharray="0.75,1.464" fill="none" /><path id="2935" transform="matrix(1 0 0 -1 0 792)" d="M56.9448 -13.7986L56.9448 -13.7986M56.9448 34.9164L56.9448 34.9164" stroke="#000000" stroke-width="0.75" stroke-linecap="round" fill="none" /></g></g></g></svg>