<svg xmlns="http://www.w3.org/2000/svg" xmlns:xlink="http://www.w3.org/1999/xlink" id="body_99" preserveAspectRatio="xMinYMin meet" viewBox="0 0 816 1056"><defs><clipPath id="1"><path id="" clip-rule="evenodd" transform="matrix(1 0 0 1 0 0)" d="M0 792L0 0L0 0L612 0L612 0L612 792L612 792L0 792z" /></clipPath><clipPath id="2"><path id="" clip-rule="evenodd" transform="matrix(1 0 0 1 0 0)" d="M70.866 507.847L307.417 507.847L307.417 507.847L307.417 56.69299L307.417 56.69299L70.866 56.69299z" /></clipPath><clipPath id="3"><path id="" clip-rule="evenodd" transform="matrix(1 0 0 1 0 0)" d="M61.8661 48.69299L316.417 48.69299L316.417 48.69299L316.417 500.79L316.417 500.79L61.8661 500.79z" /></clipPath><clipPath id="4"><path id="" clip-rule="evenodd" transform="matrix(1 0 0 1 0 0)" d="M70.866 729.525L307.417 729.525L307.417 729.525L307.417 507.377L307.417 507.377L70.866 507.377z" /></clipPath><clipPath id="5"><path id="" clip-rule="evenodd" transform="matrix(1 0 0 1 0 0)" d="M61.8662 499.376L316.417 499.376L316.417 499.376L316.417 732.2336L316.417 732.2336L61.8662 732.2336z" /></clipPath><clipPath id="6"><path id="" clip-rule="evenodd" transform="matrix(1 0 0 1 0 0)" d="M319.087 384.346L555.638 384.346L555.638 384.346L555.638 56.69299L555.638 56.69299L319.087 56.69299z" /></clipPath><clipPath id="7"><path id="" clip-rule="evenodd" transform="matrix(1 0 0 1 0 0)" d="M310.087 48.69299L564.638 48.69299L564.638 48.69299L564.638 387.054L564.638 387.054L310.087 387.054z" /></clipPath><clipPath id="8"><path id="" clip-rule="evenodd" transform="matrix(1 0 0 1 0 0)" d="M319.087 590.623L555.638 590.623L555.638 590.623L555.638 395.032L555.638 395.032L319.087 395.032z" /></clipPath><clipPath id="9"><path id="" clip-rule="evenodd" transform="matrix(1 0 0 1 0 0)" d="M310.087 387.033L564.638 387.033L564.638 387.033L564.638 591.89L564.638 591.89L310.087 591.89z" /></clipPath><clipPath id="10"><path id="" clip-rule="evenodd" transform="matrix(1 0 0 1 0 0)" d="M0 0L612 0L612 0L612 792L612 792L0 792z" /></clipPath></defs><g transform="matrix(1.333333 0 0 1.333333 0 0)"><g clip-path="url(#1)"><path id="1" transform="matrix(1 0 0 -1 0 792)" d="M73.701 735.3072L70.866 732.4722L70.866 296.4892L73.701 293.6542L304.582 293.6542L307.417 296.4892L307.417 732.4722L304.582 735.3072z" stroke="none" fill="#EAEBEC" fill-rule="nonzero" /><path id="2" transform="matrix(1 0 0 -1 0 792)" d="M77.035 635.414L301.248 635.414L301.248 660.918L77.035 660.918z" stroke="none" fill="#FFFEFE" fill-rule="nonzero" /><path id="3" transform="matrix(1 0 0 -1 0 792)" d="M77.0354 660.9178L301.2484 660.9178" stroke="#939597" stroke-width="0.5" fill="none" /><path id="4" transform="matrix(1 0 0 -1 0 792)" d="M77.035 620.745L301.248 620.745L301.248 640.084L77.035 640.084z" stroke="none" fill="#FFFEFE" fill-rule="nonzero" /><path id="5" transform="matrix(1 0 0 -1 0 792)" d="M78.0546 635.8312L300.7386 635.8312" stroke="#BBBDC0" stroke-width="0.51" stroke-linecap="round" stroke-dasharray="0.51,0.51" fill="none" /><path id="6" transform="matrix(1 0 0 -1 0 792)" d="M301.2484 635.8312L301.2484 635.8312M77.0354 635.8312L77.0354 635.8312" stroke="#BBBDC0" stroke-width="0.51" stroke-linecap="round" fill="none" /><path id="7" transform="matrix(1 0 0 -1 0 792)" d="M77.0354 620.5143L300.6964 620.5143" stroke="#939597" stroke-width="0.5" fill="none" /><g clip-path="url(#2)"><g><g clip-path="url(#3)"><path id="1692" transform="matrix(1 0 0 -1 0 792)" d="M73.8044 735.0571C 72.90839 734.1611 72.0124 733.2641 71.11639 732.3691L71.11639 732.3691L71.11639 296.5921C 72.0124 295.6961 72.90839 294.8001 73.8044 293.9041L73.8044 293.9041L304.4794 293.9041L304.4794 293.9041L307.1674 296.5921L307.1674 296.5921L307.1674 732.3691L307.1674 732.3691L304.4794 735.0571L304.4794 735.0571L73.8044 735.0571z" stroke="#000000" stroke-width="0.5" fill="none" stroke-opacity="0.4980392" /></g></g></g><path id="1693" transform="matrix(1 0 0 -1 0 792)" d="M73.701 284.6232L70.866 281.7892L70.866 65.3092L73.7 62.4752L304.583 62.4752L307.417 65.3092L307.417 281.7892L304.582 284.6232z" stroke="none" fill="#EAEBEC" fill-rule="nonzero" /><path id="1694" transform="matrix(1 0 0 -1 0 792)" d="M77.035 196.73L301.248 196.73L301.248 222.234L77.035 222.234z" stroke="none" fill="#FFFEFE" fill-rule="nonzero" /><path id="1695" transform="matrix(1 0 0 -1 0 792)" d="M77.0355 222.2343L301.2485 222.2343" stroke="#939597" stroke-width="0.5" fill="none" /><path id="1696" transform="matrix(1 0 0 -1 0 792)" d="M77.0355 196.5L300.6965 196.5" stroke="#939597" stroke-width="0.5" fill="none" /><g clip-path="url(#4)"><g><g clip-path="url(#5)"><path id="2408" transform="matrix(1 0 0 -1 0 792)" d="M73.8044 284.3735C 72.90839 283.4775 72.0124 282.5815 71.11639 281.6855L71.11639 281.6855L71.11639 65.41251L71.11639 65.41251L73.8044 62.7245L73.8044 62.7245L304.4794 62.7245C 305.3754 63.6205 306.2714 64.51651 307.1674 65.41251L307.1674 65.41251L307.1674 281.6855C 306.2714 282.5815 305.3754 283.4775 304.4794 284.3735L304.4794 284.3735L73.8044 284.3735z" stroke="#000000" stroke-width="0.5" fill="none" stroke-opacity="0.4980392" /></g></g></g><path id="2409" transform="matrix(1 0 0 -1 0 792)" d="M321.921 735.3072L319.087 732.4722L319.087 410.4892L321.921 407.6542L552.803 407.6542L555.638 410.4892L555.638 732.4722L552.803 735.3072z" stroke="none" fill="#EAEBEC" fill-rule="nonzero" /><path id="2410" transform="matrix(1 0 0 -1 0 792)" d="M325.256 635.414L549.469 635.414L549.469 660.918L325.256 660.918z" stroke="none" fill="#FFFEFE" fill-rule="nonzero" /><path id="2411" transform="matrix(1 0 0 -1 0 792)" d="M325.2559 660.9178L549.4689 660.9178" stroke="#939597" stroke-width="0.5" fill="none" /><path id="2412" transform="matrix(1 0 0 -1 0 792)" d="M325.256 620.745L549.469 620.745L549.469 640.084L325.256 640.084z" stroke="none" fill="#FFFEFE" fill-rule="nonzero" /><path id="2413" transform="matrix(1 0 0 -1 0 792)" d="M326.2751 635.8312L548.9591 635.8312" stroke="#BBBDC0" stroke-width="0.51" stroke-linecap="round" stroke-dasharray="0.51,0.51" fill="none" /><path id="2414" transform="matrix(1 0 0 -1 0 792)" d="M549.4689 635.8312L549.4689 635.8312M325.2559 635.8312L325.2559 635.8312" stroke="#BBBDC0" stroke-width="0.51" stroke-linecap="round" fill="none" /><path id="2415" transform="matrix(1 0 0 -1 0 792)" d="M325.2559 620.5143L548.9169 620.5143" stroke="#939597" stroke-width="0.5" fill="none" /><g clip-path="url(#6)"><g><g clip-path="url(#7)"><path id="3540" transform="matrix(1 0 0 -1 0 792)" d="M322.0249 735.0571C 321.1289 734.1611 320.2329 733.2641 319.3369 732.3691L319.3369 732.3691L319.3369 410.5921C 320.2329 409.6961 321.1289 408.8001 322.0249 407.9041L322.0249 407.9041L552.6999 407.9041C 553.5959 408.8001 554.4919 409.6961 555.3879 410.5921L555.3879 410.5921L555.3879 732.3691C 554.4919 733.2651 553.5959 734.1611 552.6999 735.0571L552.6999 735.0571L322.0249 735.0571z" stroke="#000000" stroke-width="0.5" fill="none" stroke-opacity="0.4980392" /></g></g></g><path id="3541" transform="matrix(1 0 0 -1 0 792)" d="M321.921 396.9675L319.087 394.1325L319.087 205.6525L321.921 202.8185L552.803 202.8185L555.638 205.6525L555.638 394.1325L552.803 396.9675z" stroke="none" fill="#EAEBEC" fill-rule="nonzero" /><path id="3542" transform="matrix(1 0 0 -1 0 792)" d="M325.256 318.074L549.469 318.074L549.469 343.578L325.256 343.578z" stroke="none" fill="#FFFEFE" fill-rule="nonzero" /><path id="3543" transform="matrix(1 0 0 -1 0 792)" d="M325.2559 343.578L549.4689 343.578" stroke="#939597" stroke-width="0.5" fill="none" /><path id="3544" transform="matrix(1 0 0 -1 0 792)" d="M325.2559 317.8437L548.9169 317.8437" stroke="#939597" stroke-width="0.5" fill="none" /><g clip-path="url(#8)"><g><g clip-path="url(#9)"><path id="4180" transform="matrix(1 0 0 -1 0 792)" d="M322.0248 396.7173C 321.1288 395.8213 320.2328 394.9253 319.3368 394.0293L319.3368 394.0293L319.3368 205.7563C 320.2328 204.8603 321.1288 203.9643 322.0248 203.0683L322.0248 203.0683L552.6998 203.0683C 553.5958 203.9643 554.4918 204.8603 555.3878 205.7563L555.3878 205.7563L555.3878 394.0293C 554.4918 394.9253 553.5958 395.8213 552.6998 396.7173L552.6998 396.7173L322.0248 396.7173z" stroke="#000000" stroke-width="0.5" fill="none" stroke-opacity="0.4980392" /></g></g></g><g clip-path="url(#10)"><path id="4197" transform="matrix(1 0 0 -1 0 792)" d="M555.6614 32.702L555.6614 -12.691" stroke="#000000" stroke-width="0.75" stroke-linecap="round" stroke-dasharray="0.75,1.464" fill="none" /><path id="4198" transform="matrix(1 0 0 -1 0 792)" d="M555.6614 -13.7986L555.6614 -13.7986M555.6614 34.9164L555.6614 34.9164" stroke="#000000" stroke-width="0.75" stroke-linecap="round" fill="none" /></g></g></g></svg>