<svg xmlns="http://www.w3.org/2000/svg" xmlns:xlink="http://www.w3.org/1999/xlink" id="body_58" preserveAspectRatio="xMinYMin meet" viewBox="0 0 816 1056"><defs><clipPath id="1"><path id="" clip-rule="evenodd" transform="matrix(1 0 0 1 0 0)" d="M0 792L0 0L0 0L612 0L612 0L612 792L612 792L0 792z" /></clipPath><clipPath id="2"><path id="" clip-rule="evenodd" transform="matrix(1 0 0 1 0 0)" d="M0 0L612 0L612 0L612 792L612 792L0 792z" /></clipPath></defs><g transform="matrix(1.333333 0 0 1.333333 0 0)"><g clip-path="url(#1)"><path id="1" transform="matrix(1 0 0 -1 0 792)" d="M159.685 131.721L541.134 131.721L541.134 107.721L159.685 107.721zM91.843 131.721L159.686 131.721L159.686 107.721L91.843 107.721zM56.693 131.721L91.843 131.721L91.843 107.721L56.693 107.721zM159.685 165.736L541.134 165.736L541.134 148.728L159.685 148.728zM91.843 165.736L159.686 165.736L159.686 148.728L91.843 148.728zM56.693 165.736L91.843 165.736L91.843 148.728L56.693 148.728zM159.685 199.752L541.134 199.752L541.134 182.744L159.685 182.744zM91.843 199.752L159.686 199.752L159.686 182.744L91.843 182.744zM56.693 199.752L91.843 199.752L91.843 182.744L56.693 182.744zM159.685 233.768L541.134 233.768L541.134 216.76L159.685 216.76zM91.843 233.768L159.686 233.768L159.686 216.76L91.843 216.76zM56.693 233.768L91.843 233.768L91.843 216.76L56.693 216.76zM159.685 274.776L541.134 274.776L541.134 250.776L159.685 250.776zM91.843 274.776L159.686 274.776L159.686 250.776L91.843 250.776zM56.693 274.776L91.843 274.776L91.843 250.776L56.693 250.776zM159.685 332.776L541.134 332.776L541.134 308.776L159.685 308.776zM91.843 332.776L159.686 332.776L159.686 308.776L91.843 308.776zM56.693 332.776L91.843 332.776L91.843 308.776L56.693 308.776zM159.685 400.776L541.134 400.776L541.134 366.776L159.685 366.776zM91.843 400.776L159.686 400.776L159.686 366.776L91.843 366.776zM56.693 400.776L91.843 400.776L91.843 366.776L56.693 366.776zM159.685 458.776L541.134 458.776L541.134 424.776L159.685 424.776zM91.843 458.776L159.686 458.776L159.686 424.776L91.843 424.776zM56.693 458.776L91.843 458.776L91.843 424.776L56.693 424.776zM159.685 506.776L541.134 506.776L541.134 482.776L159.685 482.776zM91.843 506.776L159.686 506.776L159.686 482.776L91.843 482.776zM56.693 506.776L91.843 506.776L91.843 482.776L56.693 482.776zM159.685 564.776L541.134 564.776L541.134 540.776L159.685 540.776zM91.843 564.776L159.686 564.776L159.686 540.776L91.843 540.776zM56.693 564.776L91.843 564.776L91.843 540.776L56.693 540.776zM159.685 598.791L541.134 598.791L541.134 581.783L159.685 581.783zM91.843 598.791L159.686 598.791L159.686 581.783L91.843 581.783zM56.693 598.791L91.843 598.791L91.843 581.783L56.693 581.783zM159.685 649.799L541.134 649.799L541.134 615.799L159.685 615.799zM91.843 649.799L159.686 649.799L159.686 615.799L91.843 615.799zM56.693 649.799L91.843 649.799L91.843 615.799L56.693 615.799zM159.685 718.299L541.134 718.299L541.134 683.799L159.685 683.799zM91.843 718.299L159.686 718.299L159.686 683.799L91.843 683.799zM56.693 718.299L91.843 718.299L91.843 683.799L56.693 683.799z" stroke="none" fill="#E6E7E8" fill-rule="nonzero" /><path id="2" transform="matrix(1 0 0 -1 0 792)" d="M56.6929 718.2993L91.8429 718.2993" stroke="#000000" stroke-width="1" fill="none" /><path id="3" transform="matrix(1 0 0 -1 0 792)" d="M159.685 718.2993L541.134 718.2993" stroke="#000000" stroke-width="1" fill="none" /><path id="4" transform="matrix(1 0 0 -1 0 792)" d="M91.8425 718.2993L159.6855 718.2993" stroke="#000000" stroke-width="1" fill="none" /><g clip-path="url(#2)"><path id="3287" transform="matrix(1 0 0 -1 0 792)" d="M56.9448 32.702L56.9448 -12.691" stroke="#000000" stroke-width="0.75" stroke-linecap="round" stroke-dasharray="0.75,1.464" fill="none" /><path id="3288" transform="matrix(1 0 0 -1 0 792)" d="M56.9448 -13.7986L56.9448 -13.7986M56.9448 34.9164L56.9448 34.9164" stroke="#000000" stroke-width="0.75" stroke-linecap="round" fill="none" /></g></g></g></svg>