<svg xmlns="http://www.w3.org/2000/svg" xmlns:xlink="http://www.w3.org/1999/xlink" id="body_89" preserveAspectRatio="xMinYMin meet" viewBox="0 0 816 1056"><defs><clipPath id="1"><path id="" clip-rule="evenodd" transform="matrix(1 0 0 1 0 0)" d="M0 792L0 0L0 0L612 0L612 0L612 792L612 792L0 792z" /></clipPath><clipPath id="2"><path id="" clip-rule="evenodd" transform="matrix(1 0 0 1 0 0)" d="M70.866 273.595L307.417 273.595L307.417 273.595L307.417 56.69299L307.417 56.69299L70.866 56.69299z" /></clipPath><clipPath id="3"><path id="" clip-rule="evenodd" transform="matrix(1 0 0 1 0 0)" d="M61.8662 48.69299L316.417 48.69299L316.417 48.69299L316.417 276.302L316.417 276.302L61.8662 276.302z" /></clipPath><clipPath id="4"><path id="" clip-rule="evenodd" transform="matrix(1 0 0 1 0 0)" d="M70.866 500.574L307.417 500.574L307.417 500.574L307.417 285.09L307.417 285.09L70.866 285.09z" /></clipPath><clipPath id="5"><path id="" clip-rule="evenodd" transform="matrix(1 0 0 1 0 0)" d="M61.8662 277.09L316.417 277.09L316.417 277.09L316.417 493.782L316.417 493.782L61.8662 493.782z" /></clipPath><clipPath id="6"><path id="" clip-rule="evenodd" transform="matrix(1 0 0 1 0 0)" d="M70.866 706.324L307.417 706.324L307.417 706.324L307.417 501.34L307.417 501.34L70.866 501.34z" /></clipPath><clipPath id="7"><path id="" clip-rule="evenodd" transform="matrix(1 0 0 1 0 0)" d="M61.8662 493.34L316.417 493.34L316.417 493.34L316.417 699.5322L316.417 699.5322L61.8662 699.5322z" /></clipPath><clipPath id="8"><path id="" clip-rule="evenodd" transform="matrix(1 0 0 1 0 0)" d="M319.087 293.512L555.638 293.512L555.638 293.512L555.638 56.69299L555.638 56.69299L319.087 56.69299z" /></clipPath><clipPath id="9"><path id="" clip-rule="evenodd" transform="matrix(1 0 0 1 0 0)" d="M310.087 48.69299L564.638 48.69299L564.638 48.69299L564.638 286.719L564.638 286.719L310.087 286.719z" /></clipPath><clipPath id="10"><path id="" clip-rule="evenodd" transform="matrix(1 0 0 1 0 0)" d="M319.087 480.622L555.638 480.622L555.638 480.622L555.638 294.138L555.638 294.138L319.087 294.138z" /></clipPath><clipPath id="11"><path id="" clip-rule="evenodd" transform="matrix(1 0 0 1 0 0)" d="M310.087 286.138L564.638 286.138L564.638 286.138L564.638 473.83L564.638 473.83L310.087 473.83z" /></clipPath><clipPath id="12"><path id="" clip-rule="evenodd" transform="matrix(1 0 0 1 0 0)" d="M319.087 675.391L555.638 675.391L555.638 675.391L555.638 479.908L555.638 479.908L319.087 479.908z" /></clipPath><clipPath id="13"><path id="" clip-rule="evenodd" transform="matrix(1 0 0 1 0 0)" d="M310.087 471.909L564.638 471.909L564.638 471.909L564.638 669.101L564.638 669.101L310.087 669.101z" /></clipPath><clipPath id="14"><path id="" clip-rule="evenodd" transform="matrix(1 0 0 1 0 0)" d="M0 0L612 0L612 0L612 792L612 792L0 792z" /></clipPath></defs><g transform="matrix(1.333333 0 0 1.333333 0 0)"><g clip-path="url(#1)"><path id="1" transform="matrix(1 0 0 -1 0 792)" d="M73.701 735.3072L70.866 732.4722L70.866 521.2402L73.701 518.4062L304.582 518.4062L307.417 521.2402L307.417 732.4722L304.582 735.3072z" stroke="none" fill="#EAEBEC" fill-rule="nonzero" /><path id="2" transform="matrix(1 0 0 -1 0 792)" d="M77.035 656.414L301.248 656.414L301.248 681.918L77.035 681.918z" stroke="none" fill="#FFFEFE" fill-rule="nonzero" /><path id="3" transform="matrix(1 0 0 -1 0 792)" d="M77.0355 681.9177L301.2485 681.9177" stroke="#939597" stroke-width="0.5" fill="none" /><path id="4" transform="matrix(1 0 0 -1 0 792)" d="M77.035 641.745L301.248 641.745L301.248 661.084L77.035 661.084z" stroke="none" fill="#FFFEFE" fill-rule="nonzero" /><path id="5" transform="matrix(1 0 0 -1 0 792)" d="M78.0546 656.8311L300.7386 656.8311" stroke="#BBBDC0" stroke-width="0.51" stroke-linecap="round" stroke-dasharray="0.51,0.51" fill="none" /><path id="6" transform="matrix(1 0 0 -1 0 792)" d="M301.2485 656.8311L301.2485 656.8311M77.0355 656.8311L77.0355 656.8311" stroke="#BBBDC0" stroke-width="0.51" stroke-linecap="round" fill="none" /><path id="7" transform="matrix(1 0 0 -1 0 792)" d="M77.0355 641.5142L300.6965 641.5142" stroke="#939597" stroke-width="0.5" fill="none" /><g clip-path="url(#2)"><g><g clip-path="url(#3)"><path id="737" transform="matrix(1 0 0 -1 0 792)" d="M73.8044 735.057C 72.90839 734.161 72.0124 733.265 71.11639 732.369L71.11639 732.369L71.11639 521.344C 72.0124 520.448 72.90839 519.552 73.8044 518.656L73.8044 518.656L304.4794 518.656C 305.3754 519.552 306.2714 520.448 307.1674 521.344L307.1674 521.344L307.1674 732.369C 306.2714 733.265 305.3754 734.161 304.4794 735.057L304.4794 735.057L73.8044 735.057z" stroke="#000000" stroke-width="0.5" fill="none" stroke-opacity="0.4980392" /></g></g></g><path id="738" transform="matrix(1 0 0 -1 0 792)" d="M73.701 506.9106L70.866 504.0756L70.866 303.7606L73.701 300.9266L304.582 300.9266L307.417 303.7606L307.417 504.0756L304.582 506.9106z" stroke="none" fill="#EAEBEC" fill-rule="nonzero" /><path id="739" transform="matrix(1 0 0 -1 0 792)" d="M77.035 428.017L301.248 428.017L301.248 453.521L77.035 453.521z" stroke="none" fill="#FFFEFE" fill-rule="nonzero" /><path id="740" transform="matrix(1 0 0 -1 0 792)" d="M77.0355 453.5209L301.2485 453.5209" stroke="#939597" stroke-width="0.5" fill="none" /><path id="741" transform="matrix(1 0 0 -1 0 792)" d="M77.035 413.348L301.248 413.348L301.248 432.687L77.035 432.687z" stroke="none" fill="#FFFEFE" fill-rule="nonzero" /><path id="742" transform="matrix(1 0 0 -1 0 792)" d="M78.0546 428.4343L300.7386 428.4343" stroke="#BBBDC0" stroke-width="0.51" stroke-linecap="round" stroke-dasharray="0.51,0.51" fill="none" /><path id="743" transform="matrix(1 0 0 -1 0 792)" d="M301.2485 428.4343L301.2485 428.4343M77.0355 428.4343L77.0355 428.4343" stroke="#BBBDC0" stroke-width="0.51" stroke-linecap="round" fill="none" /><path id="744" transform="matrix(1 0 0 -1 0 792)" d="M77.0355 413.1174L300.6965 413.1174" stroke="#939597" stroke-width="0.5" fill="none" /><g clip-path="url(#4)"><g><g clip-path="url(#5)"><path id="1429" transform="matrix(1 0 0 -1 0 792)" d="M73.8044 506.6602C 72.90839 505.7642 72.0124 504.8682 71.11639 503.9722L71.11639 503.9722L71.11639 303.8642C 72.0124 302.9682 72.90839 302.0722 73.8044 301.1762L73.8044 301.1762L304.4794 301.1762L304.4794 301.1762L307.1674 303.8642L307.1674 303.8642L307.1674 503.9722C 306.2714 504.8682 305.3754 505.7642 304.4794 506.6602L304.4794 506.6602L73.8044 506.6602z" stroke="#000000" stroke-width="0.5" fill="none" stroke-opacity="0.4980392" /></g></g></g><path id="1430" transform="matrix(1 0 0 -1 0 792)" d="M73.701 290.6595L70.866 287.8245L70.866 98.01048L73.701 95.17549L304.582 95.17549L307.417 98.01048L307.417 287.8245L304.582 290.6595z" stroke="none" fill="#EAEBEC" fill-rule="nonzero" /><path id="1431" transform="matrix(1 0 0 -1 0 792)" d="M77.035 193.766L301.248 193.766L301.248 219.27L77.035 219.27z" stroke="none" fill="#FFFEFE" fill-rule="nonzero" /><path id="1432" transform="matrix(1 0 0 -1 0 792)" d="M77.0355 219.2703L301.2485 219.2703" stroke="#939597" stroke-width="0.5" fill="none" /><path id="1433" transform="matrix(1 0 0 -1 0 792)" d="M77.035 179.097L301.248 179.097L301.248 198.436L77.035 198.436z" stroke="none" fill="#FFFEFE" fill-rule="nonzero" /><path id="1434" transform="matrix(1 0 0 -1 0 792)" d="M78.0546 194.1837L300.7386 194.1837" stroke="#BBBDC0" stroke-width="0.51" stroke-linecap="round" stroke-dasharray="0.51,0.51" fill="none" /><path id="1435" transform="matrix(1 0 0 -1 0 792)" d="M301.2485 194.1837L301.2485 194.1837M77.0355 194.1837L77.0355 194.1837" stroke="#BBBDC0" stroke-width="0.51" stroke-linecap="round" fill="none" /><path id="1436" transform="matrix(1 0 0 -1 0 792)" d="M77.0355 178.8667L300.6965 178.8667" stroke="#939597" stroke-width="0.5" fill="none" /><g clip-path="url(#6)"><g><g clip-path="url(#7)"><path id="1983" transform="matrix(1 0 0 -1 0 792)" d="M73.8044 290.4095C 72.90839 289.5135 72.0124 288.6175 71.11639 287.7215L71.11639 287.7215L71.11639 98.11348L71.11639 98.11348L73.8044 95.42549L73.8044 95.42549L304.4794 95.42549C 305.3754 96.32149 306.2714 97.21748 307.1674 98.11348L307.1674 98.11348L307.1674 287.7215L307.1674 287.7215L304.4794 290.4095L304.4794 290.4095L73.8044 290.4095z" stroke="#000000" stroke-width="0.5" fill="none" stroke-opacity="0.4980392" /></g></g></g><path id="1984" transform="matrix(1 0 0 -1 0 792)" d="M321.921 735.3072L319.087 732.4722L319.087 510.8242L321.921 507.9892L552.803 507.9892L555.638 510.8242L555.638 732.4722L552.803 735.3072z" stroke="none" fill="#EAEBEC" fill-rule="nonzero" /><path id="1985" transform="matrix(1 0 0 -1 0 792)" d="M325.256 647.414L549.469 647.414L549.469 672.918L325.256 672.918z" stroke="none" fill="#FFFEFE" fill-rule="nonzero" /><path id="1986" transform="matrix(1 0 0 -1 0 792)" d="M325.256 672.9178L549.469 672.9178" stroke="#939597" stroke-width="0.5" fill="none" /><path id="1987" transform="matrix(1 0 0 -1 0 792)" d="M325.256 632.745L549.469 632.745L549.469 652.084L325.256 652.084z" stroke="none" fill="#FFFEFE" fill-rule="nonzero" /><path id="1988" transform="matrix(1 0 0 -1 0 792)" d="M326.2751 647.8312L548.9591 647.8312" stroke="#BBBDC0" stroke-width="0.51" stroke-linecap="round" stroke-dasharray="0.51,0.51" fill="none" /><path id="1989" transform="matrix(1 0 0 -1 0 792)" d="M549.469 647.8312L549.469 647.8312M325.256 647.8312L325.256 647.8312" stroke="#BBBDC0" stroke-width="0.51" stroke-linecap="round" fill="none" /><path id="1990" transform="matrix(1 0 0 -1 0 792)" d="M325.256 632.5143L548.917 632.5143" stroke="#939597" stroke-width="0.5" fill="none" /><g clip-path="url(#8)"><g><g clip-path="url(#9)"><path id="2691" transform="matrix(1 0 0 -1 0 792)" d="M322.0249 735.0571C 321.1289 734.1611 320.2329 733.2651 319.3369 732.3691L319.3369 732.3691L319.3369 510.9271C 320.2329 510.0311 321.1289 509.1351 322.0249 508.2391L322.0249 508.2391L552.6999 508.2391C 553.5959 509.1351 554.4919 510.0311 555.3879 510.9271L555.3879 510.9271L555.3879 732.3691L555.3879 732.3691L552.6999 735.0571L552.6999 735.0571L322.0249 735.0571z" stroke="#000000" stroke-width="0.5" fill="none" stroke-opacity="0.4980392" /></g></g></g><path id="2692" transform="matrix(1 0 0 -1 0 792)" d="M321.921 497.862L319.087 495.027L319.087 323.713L321.921 320.878L552.803 320.878L555.638 323.713L555.638 495.027L552.803 497.862z" stroke="none" fill="#EAEBEC" fill-rule="nonzero" /><path id="2693" transform="matrix(1 0 0 -1 0 792)" d="M325.256 409.969L549.469 409.969L549.469 435.473L325.256 435.473z" stroke="none" fill="#FFFEFE" fill-rule="nonzero" /><path id="2694" transform="matrix(1 0 0 -1 0 792)" d="M325.256 435.4724L549.469 435.4724" stroke="#939597" stroke-width="0.5" fill="none" /><path id="2695" transform="matrix(1 0 0 -1 0 792)" d="M325.256 395.299L549.469 395.299L549.469 414.638L325.256 414.638z" stroke="none" fill="#FFFEFE" fill-rule="nonzero" /><path id="2696" transform="matrix(1 0 0 -1 0 792)" d="M326.2751 410.3858L548.9591 410.3858" stroke="#BBBDC0" stroke-width="0.51" stroke-linecap="round" stroke-dasharray="0.51,0.51" fill="none" /><path id="2697" transform="matrix(1 0 0 -1 0 792)" d="M549.469 410.3858L549.469 410.3858M325.256 410.3858L325.256 410.3858" stroke="#BBBDC0" stroke-width="0.51" stroke-linecap="round" fill="none" /><path id="2698" transform="matrix(1 0 0 -1 0 792)" d="M325.256 395.0689L548.917 395.0689" stroke="#939597" stroke-width="0.5" fill="none" /><g clip-path="url(#10)"><g><g clip-path="url(#11)"><path id="3205" transform="matrix(1 0 0 -1 0 792)" d="M322.0249 497.6117C 321.1289 496.7157 320.2329 495.8197 319.3369 494.9237L319.3369 494.9237L319.3369 323.8157C 320.2329 322.9197 321.1289 322.0237 322.0249 321.1277L322.0249 321.1277L552.6999 321.1277C 553.5959 322.0237 554.4919 322.9197 555.3879 323.8157L555.3879 323.8157L555.3879 494.9237C 554.4919 495.8197 553.5959 496.7157 552.6999 497.6117L552.6999 497.6117L322.0249 497.6117z" stroke="#000000" stroke-width="0.5" fill="none" stroke-opacity="0.4980392" /></g></g></g><path id="3206" transform="matrix(1 0 0 -1 0 792)" d="M321.921 312.0912L319.087 309.2562L319.087 128.4422L321.921 125.6072L552.803 125.6072L555.638 128.4422L555.638 309.2562L552.803 312.0912z" stroke="none" fill="#EAEBEC" fill-rule="nonzero" /><path id="3207" transform="matrix(1 0 0 -1 0 792)" d="M325.256 224.198L549.469 224.198L549.469 249.702L325.256 249.702z" stroke="none" fill="#FFFEFE" fill-rule="nonzero" /><path id="3208" transform="matrix(1 0 0 -1 0 792)" d="M325.256 249.7018L549.469 249.7018" stroke="#939597" stroke-width="0.5" fill="none" /><path id="3209" transform="matrix(1 0 0 -1 0 792)" d="M325.256 209.529L549.469 209.529L549.469 228.868L325.256 228.868z" stroke="none" fill="#FFFEFE" fill-rule="nonzero" /><path id="3210" transform="matrix(1 0 0 -1 0 792)" d="M326.2751 224.6152L548.9591 224.6152" stroke="#BBBDC0" stroke-width="0.51" stroke-linecap="round" stroke-dasharray="0.51,0.51" fill="none" /><path id="3211" transform="matrix(1 0 0 -1 0 792)" d="M549.469 224.6152L549.469 224.6152M325.256 224.6152L325.256 224.6152" stroke="#BBBDC0" stroke-width="0.51" stroke-linecap="round" fill="none" /><path id="3212" transform="matrix(1 0 0 -1 0 792)" d="M325.256 209.2983L548.917 209.2983" stroke="#939597" stroke-width="0.5" fill="none" /><g clip-path="url(#12)"><g><g clip-path="url(#13)"><path id="3732" transform="matrix(1 0 0 -1 0 792)" d="M322.0249 311.8411C 321.1289 310.9451 320.2329 310.0491 319.3369 309.1531L319.3369 309.1531L319.3369 128.5451C 320.2329 127.6491 321.1289 126.7531 322.0249 125.8571L322.0249 125.8571L552.6999 125.8571C 553.5959 126.7531 554.4919 127.6491 555.3879 128.5451L555.3879 128.5451L555.3879 309.1531C 554.4919 310.0491 553.5959 310.9451 552.6999 311.8411L552.6999 311.8411L322.0249 311.8411z" stroke="#000000" stroke-width="0.5" fill="none" stroke-opacity="0.4980392" /></g></g></g><g clip-path="url(#14)"><path id="3749" transform="matrix(1 0 0 -1 0 792)" d="M555.6614 32.702L555.6614 -12.691" stroke="#000000" stroke-width="0.75" stroke-linecap="round" stroke-dasharray="0.75,1.464" fill="none" /><path id="3750" transform="matrix(1 0 0 -1 0 792)" d="M555.6614 -13.7986L555.6614 -13.7986M555.6614 34.9164L555.6614 34.9164" stroke="#000000" stroke-width="0.75" stroke-linecap="round" fill="none" /></g></g></g></svg>