<svg xmlns="http://www.w3.org/2000/svg" xmlns:xlink="http://www.w3.org/1999/xlink" id="body_129" preserveAspectRatio="xMinYMin meet" viewBox="0 0 816 1056"><defs><clipPath id="1"><path id="" clip-rule="evenodd" transform="matrix(1 0 0 1 0 0)" d="M0 792L0 0L0 0L612 0L612 0L612 792L612 792L0 792z" /></clipPath><clipPath id="2"><path id="" clip-rule="evenodd" transform="matrix(1 0 0 1 0 0)" d="M0 0L612 0L612 0L612 792L612 792L0 792z" /></clipPath></defs><g transform="matrix(1.333333 0 0 1.333333 0 0)"><g clip-path="url(#1)"><path id="1" transform="matrix(1 0 0 -1 0 792)" d="M75.0974 727.1418L75.0974 735.3068" stroke="#000000" stroke-width="8" fill="none" /><path id="2" transform="matrix(1 0 0 -1 0 792)" d="M75.0974 573.2993L75.0974 581.4643" stroke="#000000" stroke-width="8" fill="none" /><path id="3" transform="matrix(1 0 0 -1 0 792)" d="M75.0974 448.9607L75.0974 457.1257" stroke="#000000" stroke-width="8" fill="none" /><path id="4" transform="matrix(1 0 0 -1 0 792)" d="M75.0974 328.7874L75.0974 336.9524" stroke="#000000" stroke-width="8" fill="none" /><path id="5" transform="matrix(1 0 0 -1 0 792)" d="M75.0974 237.2835L75.0974 245.4485" stroke="#000000" stroke-width="8" fill="none" /><path id="6" transform="matrix(1 0 0 -1 0 792)" d="M75.0974 165.7796L75.0974 173.9446" stroke="#000000" stroke-width="8" fill="none" /><path id="1866" transform="matrix(1 0 0 -1 0 792)" d="M323.3179 727.1418L323.3179 735.3068" stroke="#000000" stroke-width="8" fill="none" /><path id="1867" transform="matrix(1 0 0 -1 0 792)" d="M323.3179 605.6379L323.3179 613.8029" stroke="#000000" stroke-width="8" fill="none" /><path id="1868" transform="matrix(1 0 0 -1 0 792)" d="M323.3179 481.2993L323.3179 489.4643" stroke="#000000" stroke-width="8" fill="none" /><path id="1869" transform="matrix(1 0 0 -1 0 792)" d="M323.3179 344.126L323.3179 352.291" stroke="#000000" stroke-width="8" fill="none" /><g clip-path="url(#2)"><path id="3378" transform="matrix(1 0 0 -1 0 792)" d="M555.6614 32.702L555.6614 -12.691" stroke="#000000" stroke-width="0.75" stroke-linecap="round" stroke-dasharray="0.75,1.464" fill="none" /><path id="3379" transform="matrix(1 0 0 -1 0 792)" d="M555.6614 -13.7986L555.6614 -13.7986M555.6614 34.9164L555.6614 34.9164" stroke="#000000" stroke-width="0.75" stroke-linecap="round" fill="none" /></g></g></g></svg>