<svg xmlns="http://www.w3.org/2000/svg" xmlns:xlink="http://www.w3.org/1999/xlink" id="body_23" preserveAspectRatio="xMinYMin meet" viewBox="0 0 816 1056"><defs><clipPath id="1"><path id="" clip-rule="evenodd" transform="matrix(1 0 0 1 0 0)" d="M0 792L0 0L0 0L612 0L612 0L612 792L612 792L0 792z" /></clipPath><clipPath id="2"><path id="" clip-rule="evenodd" transform="matrix(1 0 0 1 0 0)" d="M0 0L612 0L612 0L612 792L612 792L0 792z" /></clipPath></defs><g transform="matrix(1.333333 0 0 1.333333 0 0)"><g clip-path="url(#1)"><path id="1" transform="matrix(1 0 0 -1 0 792)" d="M75.1181 727.1418L75.1181 735.3068" stroke="#BBBDC0" stroke-width="8" fill="none" /><path id="2" transform="matrix(1 0 0 -1 0 792)" d="M75.1181 644.1339L75.1181 652.2989" stroke="#BBBDC0" stroke-width="8" fill="none" /><path id="3" transform="matrix(1 0 0 -1 0 792)" d="M70.866 281.421L307.086 281.421L307.086 525.291L70.866 525.291z" stroke="none" fill="#F0F1F1" fill-rule="nonzero" /><path id="4" transform="matrix(1 0 0 -1 0 792)" d="M307.0866 281.4213L70.86661 281.4213" stroke="#939597" stroke-width="1" fill="none" /><path id="5" transform="matrix(1 0 0 -1 0 792)" d="M70.8661 525.2914L307.0861 525.2914" stroke="#939597" stroke-width="1" fill="none" /><path id="1153" transform="matrix(1 0 0 -1 0 792)" d="M319.087 719.682L555.307 719.682L555.307 738.142L319.087 738.142z" stroke="none" fill="#000000" fill-rule="nonzero" /><path id="1154" transform="matrix(1 0 0 -1 0 792)" d="M321.58 573.5247L553.81 573.5247" stroke="#000000" stroke-width="1" stroke-linecap="round" stroke-dasharray="1,1" fill="none" /><path id="1155" transform="matrix(1 0 0 -1 0 792)" d="M554.8066 573.5247L554.8066 573.5247M319.5866 573.5247L319.5866 573.5247" stroke="#000000" stroke-width="1" stroke-linecap="round" fill="none" /><path id="1156" transform="matrix(1 0 0 -1 0 792)" d="M321.58 467.8396L553.81 467.8396" stroke="#000000" stroke-width="1" stroke-linecap="round" stroke-dasharray="1,1" fill="none" /><path id="1157" transform="matrix(1 0 0 -1 0 792)" d="M554.8066 467.8396L554.8066 467.8396M319.5866 467.8396L319.5866 467.8396" stroke="#000000" stroke-width="1" stroke-linecap="round" fill="none" /><path id="1158" transform="matrix(1 0 0 -1 0 792)" d="M323.3386 445.0857L323.3386 453.2507" stroke="#BBBDC0" stroke-width="8" fill="none" /><path id="1159" transform="matrix(1 0 0 -1 0 792)" d="M323.3386 395.0778L323.3386 403.2428" stroke="#BBBDC0" stroke-width="8" fill="none" /><g clip-path="url(#2)"><path id="2316" transform="matrix(1 0 0 -1 0 792)" d="M555.6614 32.702L555.6614 -12.691" stroke="#000000" stroke-width="0.75" stroke-linecap="round" stroke-dasharray="0.75,1.464" fill="none" /><path id="2317" transform="matrix(1 0 0 -1 0 792)" d="M555.6614 -13.7986L555.6614 -13.7986M555.6614 34.9164L555.6614 34.9164" stroke="#000000" stroke-width="0.75" stroke-linecap="round" fill="none" /></g></g></g></svg>