<svg xmlns="http://www.w3.org/2000/svg" xmlns:xlink="http://www.w3.org/1999/xlink" id="body_69" preserveAspectRatio="xMinYMin meet" viewBox="0 0 816 1056"><defs><clipPath id="1"><path id="" clip-rule="evenodd" transform="matrix(1 0 0 1 0 0)" d="M0 792L0 0L0 0L612 0L612 0L612 792L612 792L0 792z" /></clipPath><clipPath id="2"><path id="" clip-rule="evenodd" transform="matrix(1 0 0 1 0 0)" d="M0 0L612 0L612 0L612 792L612 792L0 792z" /></clipPath></defs><g transform="matrix(1.333333 0 0 1.333333 0 0)"><g clip-path="url(#1)"><path id="1" transform="matrix(1 0 0 -1 0 792)" d="M75.1181 333.0699L75.1181 341.2349" stroke="#BBBDC0" stroke-width="8" fill="none" /><path id="2" transform="matrix(1 0 0 -1 0 792)" d="M70.866 103.712L307.086 103.712L307.086 273.397L70.866 273.397z" stroke="none" fill="#F0F1F1" fill-rule="nonzero" /><path id="3" transform="matrix(1 0 0 -1 0 792)" d="M307.0866 103.7117L70.86661 103.7117" stroke="#939597" stroke-width="1" fill="none" /><path id="4" transform="matrix(1 0 0 -1 0 792)" d="M70.8661 273.3967L307.0861 273.3967" stroke="#939597" stroke-width="1" fill="none" /><path id="1460" transform="matrix(1 0 0 -1 0 792)" d="M323.3386 727.1418L323.3386 735.3068" stroke="#BBBDC0" stroke-width="8" fill="none" /><path id="1461" transform="matrix(1 0 0 -1 0 792)" d="M323.3386 585.9607L323.3386 594.1257" stroke="#BBBDC0" stroke-width="8" fill="none" /><path id="1462" transform="matrix(1 0 0 -1 0 792)" d="M323.3386 436.6142L323.3386 444.7792" stroke="#BBBDC0" stroke-width="8" fill="none" /><g clip-path="url(#2)"><path id="2930" transform="matrix(1 0 0 -1 0 792)" d="M555.6614 32.702L555.6614 -12.691" stroke="#000000" stroke-width="0.75" stroke-linecap="round" stroke-dasharray="0.75,1.464" fill="none" /><path id="2931" transform="matrix(1 0 0 -1 0 792)" d="M555.6614 -13.7986L555.6614 -13.7986M555.6614 34.9164L555.6614 34.9164" stroke="#000000" stroke-width="0.75" stroke-linecap="round" fill="none" /></g></g></g></svg>