<svg xmlns="http://www.w3.org/2000/svg" xmlns:xlink="http://www.w3.org/1999/xlink" id="body_91" preserveAspectRatio="xMinYMin meet" viewBox="0 0 816 1056"><defs><clipPath id="1"><path id="" clip-rule="evenodd" transform="matrix(1 0 0 1 0 0)" d="M0 792L0 0L0 0L612 0L612 0L612 792L612 792L0 792z" /></clipPath><clipPath id="2"><path id="" clip-rule="evenodd" transform="matrix(1 0 0 1 0 0)" d="M70.866 322.01L307.418 322.01L307.418 322.01L307.418 56.69299L307.418 56.69299L70.866 56.69299z" /></clipPath><clipPath id="3"><path id="" clip-rule="evenodd" transform="matrix(1 0 0 1 0 0)" d="M61.8662 48.69299L316.417 48.69299L316.417 48.69299L316.417 315.219L316.417 315.219L61.8662 315.219z" /></clipPath><clipPath id="4"><path id="" clip-rule="evenodd" transform="matrix(1 0 0 1 0 0)" d="M70.866 626.742L307.418 626.742L307.418 626.742L307.418 322.007L307.418 322.007L70.866 322.007z" /></clipPath><clipPath id="5"><path id="" clip-rule="evenodd" transform="matrix(1 0 0 1 0 0)" d="M61.8662 314.006L316.417 314.006L316.417 314.006L316.417 629.45L316.417 629.45L61.8662 629.45z" /></clipPath><clipPath id="6"><path id="" clip-rule="evenodd" transform="matrix(1 0 0 1 0 0)" d="M319.087 449.83L555.638 449.83L555.638 449.83L555.638 91.84595L555.638 91.84595L319.087 91.84595z" /></clipPath><clipPath id="7"><path id="" clip-rule="evenodd" transform="matrix(1 0 0 1 0 0)" d="M310.087 83.84601L564.638 83.84601L564.638 83.84601L564.638 452.273L564.638 452.273L310.087 452.273z" /></clipPath><clipPath id="8"><path id="" clip-rule="evenodd" transform="matrix(1 0 0 1 0 0)" d="M319.087 704.484L555.638 704.484L555.638 704.484L555.638 460.083L555.638 460.083L319.087 460.083z" /></clipPath><clipPath id="9"><path id="" clip-rule="evenodd" transform="matrix(1 0 0 1 0 0)" d="M310.087 452.083L564.638 452.083L564.638 452.083L564.638 698.1918L564.638 698.1918L310.087 698.1918z" /></clipPath><clipPath id="10"><path id="" clip-rule="evenodd" transform="matrix(1 0 0 1 0 0)" d="M0 0L612 0L612 0L612 792L612 792L0 792z" /></clipPath></defs><g transform="matrix(1.333333 0 0 1.333333 0 0)"><g clip-path="url(#1)"><path id="1" transform="matrix(1 0 0 -1 0 792)" d="M73.701 735.3072L70.866 732.4722L70.866 482.3232L73.701 479.4882L304.583 479.4882L307.418 482.3232L307.418 732.4722L304.583 735.3072z" stroke="none" fill="#EAEBEC" fill-rule="nonzero" /><path id="2" transform="matrix(1 0 0 -1 0 792)" d="M77.035 647.414L301.248 647.414L301.248 672.918L77.035 672.918z" stroke="none" fill="#FFFEFE" fill-rule="nonzero" /><path id="3" transform="matrix(1 0 0 -1 0 792)" d="M77.0355 672.9178L301.2485 672.9178" stroke="#939597" stroke-width="0.5" fill="none" /><path id="4" transform="matrix(1 0 0 -1 0 792)" d="M77.035 632.745L301.248 632.745L301.248 652.084L77.035 652.084z" stroke="none" fill="#FFFEFE" fill-rule="nonzero" /><path id="5" transform="matrix(1 0 0 -1 0 792)" d="M78.0546 647.8312L300.7386 647.8312" stroke="#BBBDC0" stroke-width="0.51" stroke-linecap="round" stroke-dasharray="0.51,0.51" fill="none" /><path id="6" transform="matrix(1 0 0 -1 0 792)" d="M301.2485 647.8312L301.2485 647.8312M77.0355 647.8312L77.0355 647.8312" stroke="#BBBDC0" stroke-width="0.51" stroke-linecap="round" fill="none" /><path id="7" transform="matrix(1 0 0 -1 0 792)" d="M77.0355 632.5143L300.6965 632.5143" stroke="#939597" stroke-width="0.5" fill="none" /><g clip-path="url(#2)"><g><g clip-path="url(#3)"><path id="879" transform="matrix(1 0 0 -1 0 792)" d="M73.8044 735.0571C 72.90839 734.1611 72.0124 733.2651 71.11639 732.3691L71.11639 732.3691L71.11639 482.4271L71.11639 482.4271L73.8044 479.7391L73.8044 479.7391L304.4794 479.7391L304.4794 479.7391L307.1674 482.4271L307.1674 482.4271L307.1674 732.3691L307.1674 732.3691L304.4794 735.0571L304.4794 735.0571L73.8044 735.0571z" stroke="#000000" stroke-width="0.5" fill="none" stroke-opacity="0.4980392" /></g></g></g><path id="880" transform="matrix(1 0 0 -1 0 792)" d="M73.701 469.9935L70.866 467.1595L70.866 168.0925L73.701 165.2585L304.583 165.2585L307.418 168.0925L307.418 467.1595L304.583 469.9935z" stroke="none" fill="#EAEBEC" fill-rule="nonzero" /><path id="881" transform="matrix(1 0 0 -1 0 792)" d="M77.035 382.1L301.248 382.1L301.248 407.604L77.035 407.604z" stroke="none" fill="#FFFEFE" fill-rule="nonzero" /><path id="882" transform="matrix(1 0 0 -1 0 792)" d="M77.0355 407.6043L301.2485 407.6043" stroke="#939597" stroke-width="0.5" fill="none" /><path id="883" transform="matrix(1 0 0 -1 0 792)" d="M77.035 367.431L301.248 367.431L301.248 386.77L77.035 386.77z" stroke="none" fill="#FFFEFE" fill-rule="nonzero" /><path id="884" transform="matrix(1 0 0 -1 0 792)" d="M78.0546 382.5177L300.7386 382.5177" stroke="#BBBDC0" stroke-width="0.51" stroke-linecap="round" stroke-dasharray="0.51,0.51" fill="none" /><path id="885" transform="matrix(1 0 0 -1 0 792)" d="M301.2485 382.5177L301.2485 382.5177M77.0355 382.5177L77.0355 382.5177" stroke="#BBBDC0" stroke-width="0.51" stroke-linecap="round" fill="none" /><path id="886" transform="matrix(1 0 0 -1 0 792)" d="M77.0355 367.2008L300.6965 367.2008" stroke="#939597" stroke-width="0.5" fill="none" /><g clip-path="url(#4)"><g><g clip-path="url(#5)"><path id="1988" transform="matrix(1 0 0 -1 0 792)" d="M73.8044 469.7436C 72.90839 468.8476 72.0124 467.9516 71.11639 467.0556L71.11639 467.0556L71.11639 168.1966L71.11639 168.1966L73.8044 165.5076L73.8044 165.5076L304.4794 165.5076C 305.3754 166.4036 306.2714 167.2996 307.1674 168.1956L307.1674 168.1956L307.1674 467.0556C 306.2714 467.9516 305.3754 468.8476 304.4794 469.7436L304.4794 469.7436L73.8044 469.7436z" stroke="#000000" stroke-width="0.5" fill="none" stroke-opacity="0.4980392" /></g></g></g><path id="2022" transform="matrix(1 0 0 -1 0 792)" d="M321.921 700.1541L319.087 697.3201L319.087 345.0051L321.921 342.1711L552.803 342.1711L555.637 345.0051L555.637 697.3201L552.803 700.1541z" stroke="none" fill="#EAEBEC" fill-rule="nonzero" /><path id="2023" transform="matrix(1 0 0 -1 0 792)" d="M325.256 612.261L549.469 612.261L549.469 637.765L325.256 637.765z" stroke="none" fill="#FFFEFE" fill-rule="nonzero" /><path id="2024" transform="matrix(1 0 0 -1 0 792)" d="M325.256 637.7651L549.469 637.7651" stroke="#939597" stroke-width="0.5" fill="none" /><path id="2025" transform="matrix(1 0 0 -1 0 792)" d="M325.256 612.0308L548.917 612.0308" stroke="#939597" stroke-width="0.5" fill="none" /><g clip-path="url(#6)"><g><g clip-path="url(#7)"><path id="3455" transform="matrix(1 0 0 -1 0 792)" d="M322.0249 699.9044C 321.1289 699.0084 320.2329 698.1124 319.3369 697.2164L319.3369 697.2164L319.3369 345.1084L319.3369 345.1084L322.0249 342.4204L322.0249 342.4204L552.6999 342.4204C 553.5959 343.3164 554.4919 344.2124 555.3879 345.1084L555.3879 345.1084L555.3879 697.2164L555.3879 697.2164L552.6999 699.9044L552.6999 699.9044L322.0249 699.9044z" stroke="#000000" stroke-width="0.5" fill="none" stroke-opacity="0.4980392" /></g></g></g><path id="3456" transform="matrix(1 0 0 -1 0 792)" d="M321.921 331.9173L319.087 329.0823L319.087 99.3513L321.921 96.5163L552.803 96.5163L555.637 99.3513L555.637 329.0823L552.803 331.9173z" stroke="none" fill="#EAEBEC" fill-rule="nonzero" /><path id="3457" transform="matrix(1 0 0 -1 0 792)" d="M325.256 244.024L549.469 244.024L549.469 269.528L325.256 269.528z" stroke="none" fill="#FFFEFE" fill-rule="nonzero" /><path id="3458" transform="matrix(1 0 0 -1 0 792)" d="M325.256 269.528L549.469 269.528" stroke="#939597" stroke-width="0.5" fill="none" /><path id="3459" transform="matrix(1 0 0 -1 0 792)" d="M325.256 229.355L549.469 229.355L549.469 248.694L325.256 248.694z" stroke="none" fill="#FFFEFE" fill-rule="nonzero" /><path id="3460" transform="matrix(1 0 0 -1 0 792)" d="M326.2751 244.4414L548.9591 244.4414" stroke="#BBBDC0" stroke-width="0.51" stroke-linecap="round" stroke-dasharray="0.51,0.51" fill="none" /><path id="3461" transform="matrix(1 0 0 -1 0 792)" d="M549.469 244.4414L549.469 244.4414M325.256 244.4414L325.256 244.4414" stroke="#BBBDC0" stroke-width="0.51" stroke-linecap="round" fill="none" /><path id="3462" transform="matrix(1 0 0 -1 0 792)" d="M325.256 229.1244L548.917 229.1244" stroke="#939597" stroke-width="0.5" fill="none" /><g clip-path="url(#8)"><g><g clip-path="url(#9)"><path id="4208" transform="matrix(1 0 0 -1 0 792)" d="M322.0249 331.6672C 321.1289 330.7712 320.2329 329.8752 319.3369 328.9792L319.3369 328.9792L319.3369 99.45421C 320.2329 98.55821 321.1289 97.6622 322.0249 96.7662L322.0249 96.7662L552.6999 96.7662C 553.5959 97.6622 554.4919 98.55821 555.3879 99.45421L555.3879 99.45421L555.3879 328.9792C 554.4919 329.8752 553.5959 330.7712 552.6999 331.6672L552.6999 331.6672L322.0249 331.6672z" stroke="#000000" stroke-width="0.5" fill="none" stroke-opacity="0.4980392" /></g></g></g><g clip-path="url(#10)"><path id="4225" transform="matrix(1 0 0 -1 0 792)" d="M555.6614 32.702L555.6614 -12.691" stroke="#000000" stroke-width="0.75" stroke-linecap="round" stroke-dasharray="0.75,1.464" fill="none" /><path id="4226" transform="matrix(1 0 0 -1 0 792)" d="M555.6614 -13.7986L555.6614 -13.7986M555.6614 34.9164L555.6614 34.9164" stroke="#000000" stroke-width="0.75" stroke-linecap="round" fill="none" /></g></g></g></svg>