<svg xmlns="http://www.w3.org/2000/svg" xmlns:xlink="http://www.w3.org/1999/xlink" id="body_101" preserveAspectRatio="xMinYMin meet" viewBox="0 0 816 1056"><defs><clipPath id="1"><path id="" clip-rule="evenodd" transform="matrix(1 0 0 1 0 0)" d="M0 792L0 0L0 0L612 0L612 0L612 792L612 792L0 792z" /></clipPath><clipPath id="2"><path id="" clip-rule="evenodd" transform="matrix(1 0 0 1 0 0)" d="M0 0L612 0L612 0L612 792L612 792L0 792z" /></clipPath></defs><g transform="matrix(1.333333 0 0 1.333333 0 0)"><g clip-path="url(#1)"><path id="1" transform="matrix(1 0 0 -1 0 792)" d="M462.472 735.307L555.472 735.307L555.472 718.557L462.472 718.557zM369.472 735.307L462.472 735.307L462.472 718.557L369.472 718.557zM276.472 735.307L369.472 735.307L369.472 718.557L276.472 718.557zM183.472 735.307L276.472 735.307L276.472 718.557L183.472 718.557zM70.866 735.307L183.472 735.307L183.472 718.557L70.866 718.557z" stroke="none" fill="#57585B" fill-rule="nonzero" /><path id="2" transform="matrix(1 0 0 -1 0 792)" d="M462.472 718.557L555.472 718.557L555.472 701.807L462.472 701.807zM369.472 718.557L462.472 718.557L462.472 701.807L369.472 701.807zM276.472 718.557L369.472 718.557L369.472 701.807L276.472 701.807zM183.472 718.557L276.472 718.557L276.472 701.807L183.472 701.807zM70.866 718.557L183.472 718.557L183.472 701.807L70.866 701.807z" stroke="none" fill="#E6E7E8" fill-rule="nonzero" /><g clip-path="url(#2)"><path id="138" transform="matrix(1 0 0 -1 0 792)" d="M555.6614 32.702L555.6614 -12.691" stroke="#000000" stroke-width="0.75" stroke-linecap="round" stroke-dasharray="0.75,1.464" fill="none" /><path id="139" transform="matrix(1 0 0 -1 0 792)" d="M555.6614 -13.7986L555.6614 -13.7986M555.6614 34.9164L555.6614 34.9164" stroke="#000000" stroke-width="0.75" stroke-linecap="round" fill="none" /></g></g></g></svg>