<svg xmlns="http://www.w3.org/2000/svg" xmlns:xlink="http://www.w3.org/1999/xlink" id="body_131" preserveAspectRatio="xMinYMin meet" viewBox="0 0 816 1056"><defs><clipPath id="1"><path id="" clip-rule="evenodd" transform="matrix(1 0 0 1 0 0)" d="M0 792L0 0L0 0L612 0L612 0L612 792L612 792L0 792z" /></clipPath><clipPath id="2"><path id="" clip-rule="evenodd" transform="matrix(1 0 0 1 0 0)" d="M0 0L612 0L612 0L612 792L612 792L0 792z" /></clipPath></defs><g transform="matrix(1.333333 0 0 1.333333 0 0)"><g clip-path="url(#1)"><path id="1" transform="matrix(1 0 0 -1 0 792)" d="M75.0974 727.1418L75.0974 735.3068" stroke="#000000" stroke-width="8" fill="none" /><path id="2" transform="matrix(1 0 0 -1 0 792)" d="M75.0974 592.8032L75.0974 600.9682" stroke="#000000" stroke-width="8" fill="none" /><path id="3" transform="matrix(1 0 0 -1 0 792)" d="M75.0974 481.2993L75.0974 489.4643" stroke="#000000" stroke-width="8" fill="none" /><path id="4" transform="matrix(1 0 0 -1 0 792)" d="M75.0974 339.7953L75.0974 347.9603" stroke="#000000" stroke-width="8" fill="none" /><path id="5" transform="matrix(1 0 0 -1 0 792)" d="M75.0974 221.6221L75.0974 229.7871" stroke="#000000" stroke-width="8" fill="none" /><path id="1905" transform="matrix(1 0 0 -1 0 792)" d="M323.3179 727.1418L323.3179 735.3068" stroke="#000000" stroke-width="8" fill="none" /><path id="1906" transform="matrix(1 0 0 -1 0 792)" d="M323.3179 576.1339L323.3179 584.2989" stroke="#000000" stroke-width="8" fill="none" /><path id="1907" transform="matrix(1 0 0 -1 0 792)" d="M323.3179 451.7953L323.3179 459.9603" stroke="#000000" stroke-width="8" fill="none" /><path id="1908" transform="matrix(1 0 0 -1 0 792)" d="M323.3179 311.7874L323.3179 319.9524" stroke="#000000" stroke-width="8" fill="none" /><path id="1909" transform="matrix(1 0 0 -1 0 792)" d="M323.3179 220.2835L323.3179 228.4485" stroke="#000000" stroke-width="8" fill="none" /><g clip-path="url(#2)"><path id="3700" transform="matrix(1 0 0 -1 0 792)" d="M555.6614 32.702L555.6614 -12.691" stroke="#000000" stroke-width="0.75" stroke-linecap="round" stroke-dasharray="0.75,1.464" fill="none" /><path id="3701" transform="matrix(1 0 0 -1 0 792)" d="M555.6614 -13.7986L555.6614 -13.7986M555.6614 34.9164L555.6614 34.9164" stroke="#000000" stroke-width="0.75" stroke-linecap="round" fill="none" /></g></g></g></svg>