<svg xmlns="http://www.w3.org/2000/svg" xmlns:xlink="http://www.w3.org/1999/xlink" id="body_94" preserveAspectRatio="xMinYMin meet" viewBox="0 0 816 1056"><defs><clipPath id="1"><path id="" clip-rule="evenodd" transform="matrix(1 0 0 1 0 0)" d="M0 792L0 0L0 0L612 0L612 0L612 792L612 792L0 792z" /></clipPath><clipPath id="2"><path id="" clip-rule="evenodd" transform="matrix(1 0 0 1 0 0)" d="M56.693 314.428L293.244 314.428L293.244 314.428L293.244 56.69299L293.244 56.69299L56.693 56.69299z" /></clipPath><clipPath id="3"><path id="" clip-rule="evenodd" transform="matrix(1 0 0 1 0 0)" d="M47.693 48.69299L302.244 48.69299L302.244 48.69299L302.244 308.137L302.244 308.137L47.693 308.137z" /></clipPath><clipPath id="4"><path id="" clip-rule="evenodd" transform="matrix(1 0 0 1 0 0)" d="M56.693 491.572L293.244 491.572L293.244 491.572L293.244 314.088L293.244 314.088L56.693 314.088z" /></clipPath><clipPath id="5"><path id="" clip-rule="evenodd" transform="matrix(1 0 0 1 0 0)" d="M47.693 306.088L302.244 306.088L302.244 306.088L302.244 494.28L302.244 494.28L47.693 494.28z" /></clipPath><clipPath id="6"><path id="" clip-rule="evenodd" transform="matrix(1 0 0 1 0 0)" d="M56.693 702.113L293.244 702.113L293.244 702.113L293.244 501.798L293.244 501.798L56.693 501.798z" /></clipPath><clipPath id="7"><path id="" clip-rule="evenodd" transform="matrix(1 0 0 1 0 0)" d="M47.693 493.799L302.244 493.799L302.244 493.799L302.244 684.14L302.244 684.14L47.693 684.14z" /></clipPath><clipPath id="8"><path id="" clip-rule="evenodd" transform="matrix(1 0 0 1 0 0)" d="M304.914 299.055L541.465 299.055L541.465 299.055L541.465 56.69299L541.465 56.69299L304.914 56.69299z" /></clipPath><clipPath id="9"><path id="" clip-rule="evenodd" transform="matrix(1 0 0 1 0 0)" d="M295.913 49.29999L550.465 49.29999L550.465 49.29999L550.465 301.657L550.465 301.657L295.913 301.657z" /></clipPath><clipPath id="10"><path id="" clip-rule="evenodd" transform="matrix(1 0 0 1 0 0)" d="M304.914 589.523L541.465 589.523L541.465 589.523L541.465 310.373L541.465 310.373L304.914 310.373z" /></clipPath><clipPath id="11"><path id="" clip-rule="evenodd" transform="matrix(1 0 0 1 0 0)" d="M295.913 302.372L550.465 302.372L550.465 302.372L550.465 592.229L550.465 592.229L295.913 592.229z" /></clipPath><clipPath id="12"><path id="" clip-rule="evenodd" transform="matrix(1 0 0 1 0 0)" d="M0 0L612 0L612 0L612 792L612 792L0 792z" /></clipPath></defs><g transform="matrix(1.333333 0 0 1.333333 0 0)"><g clip-path="url(#1)"><path id="1" transform="matrix(1 0 0 -1 0 792)" d="M59.5278 735.3072L56.6928 732.4722L56.6928 489.4062L59.5278 486.5712L290.4098 486.5712L293.2438 489.4062L293.2438 732.4722L290.4098 735.3072z" stroke="none" fill="#EAEBEC" fill-rule="nonzero" /><path id="2" transform="matrix(1 0 0 -1 0 792)" d="M62.862 656.414L287.075 656.414L287.075 681.918L62.862 681.918z" stroke="none" fill="#FFFEFE" fill-rule="nonzero" /><path id="3" transform="matrix(1 0 0 -1 0 792)" d="M62.8623 681.9178L287.0753 681.9178" stroke="#939597" stroke-width="0.5" fill="none" /><path id="4" transform="matrix(1 0 0 -1 0 792)" d="M62.862 641.745L287.075 641.745L287.075 661.084L62.862 661.084z" stroke="none" fill="#FFFEFE" fill-rule="nonzero" /><path id="5" transform="matrix(1 0 0 -1 0 792)" d="M63.8814 656.8312L286.5654 656.8312" stroke="#BBBDC0" stroke-width="0.51" stroke-linecap="round" stroke-dasharray="0.51,0.51" fill="none" /><path id="6" transform="matrix(1 0 0 -1 0 792)" d="M287.0753 656.8312L287.0753 656.8312M62.8623 656.8312L62.8623 656.8312" stroke="#BBBDC0" stroke-width="0.51" stroke-linecap="round" fill="none" /><path id="7" transform="matrix(1 0 0 -1 0 792)" d="M62.8623 641.0143L286.5233 641.0143" stroke="#939597" stroke-width="0.5" fill="none" /><g clip-path="url(#2)"><g><g clip-path="url(#3)"><path id="792" transform="matrix(1 0 0 -1 0 792)" d="M59.6312 735.0571C 58.7352 734.1611 57.8392 733.2651 56.9432 732.3691L56.9432 732.3691L56.9432 489.5101L56.9432 489.5101L59.6312 486.8211L59.6312 486.8211L290.3062 486.8211L290.3062 486.8211L292.9942 489.5101L292.9942 489.5101L292.9942 732.3691C 292.0982 733.2651 291.2022 734.1611 290.3062 735.0571L290.3062 735.0571L59.6312 735.0571z" stroke="#000000" stroke-width="0.5" fill="none" stroke-opacity="0.4980392" /></g></g></g><path id="793" transform="matrix(1 0 0 -1 0 792)" d="M59.5278 477.9117L56.6928 475.0777L56.6928 303.2627L59.5278 300.4277L290.4098 300.4277L293.2438 303.2627L293.2438 475.0777L290.4098 477.9117z" stroke="none" fill="#EAEBEC" fill-rule="nonzero" /><path id="794" transform="matrix(1 0 0 -1 0 792)" d="M62.862 399.019L287.075 399.019L287.075 424.523L62.862 424.523z" stroke="none" fill="#FFFEFE" fill-rule="nonzero" /><path id="795" transform="matrix(1 0 0 -1 0 792)" d="M62.8623 424.5226L287.0753 424.5226" stroke="#939597" stroke-width="0.5" fill="none" /><path id="796" transform="matrix(1 0 0 -1 0 792)" d="M62.862 384.349L287.075 384.349L287.075 403.688L62.862 403.688z" stroke="none" fill="#FFFEFE" fill-rule="nonzero" /><path id="797" transform="matrix(1 0 0 -1 0 792)" d="M63.8814 399.436L286.5654 399.436" stroke="#BBBDC0" stroke-width="0.51" stroke-linecap="round" stroke-dasharray="0.51,0.51" fill="none" /><path id="798" transform="matrix(1 0 0 -1 0 792)" d="M287.0753 399.436L287.0753 399.436M62.8623 399.436L62.8623 399.436" stroke="#BBBDC0" stroke-width="0.51" stroke-linecap="round" fill="none" /><path id="799" transform="matrix(1 0 0 -1 0 792)" d="M62.8623 384.1191L286.5233 384.1191" stroke="#939597" stroke-width="0.5" fill="none" /><g clip-path="url(#4)"><g><g clip-path="url(#5)"><path id="1299" transform="matrix(1 0 0 -1 0 792)" d="M59.6311 477.6619C 58.7351 476.7659 57.8391 475.8699 56.9431 474.9739L56.9431 474.9739L56.9431 303.3659C 57.8391 302.4699 58.7351 301.5739 59.6311 300.6779L59.6311 300.6779L290.3061 300.6779L290.3061 300.6779L292.9941 303.3659L292.9941 303.3659L292.9941 474.9739C 292.0981 475.8699 291.2021 476.7659 290.3061 477.6619L290.3061 477.6619L59.6311 477.6619z" stroke="#000000" stroke-width="0.5" fill="none" stroke-opacity="0.4980392" /></g></g></g><path id="1300" transform="matrix(1 0 0 -1 0 792)" d="M59.5278 290.2014L56.6928 287.3664L56.6928 113.1394L59.5278 110.3044L290.4098 110.3044L293.2438 113.1394L293.2438 287.3664L290.4098 290.2014z" stroke="none" fill="#EAEBEC" fill-rule="nonzero" /><path id="1301" transform="matrix(1 0 0 -1 0 792)" d="M62.862 202.308L287.075 202.308L287.075 227.812L62.862 227.812z" stroke="none" fill="#FFFEFE" fill-rule="nonzero" /><path id="1302" transform="matrix(1 0 0 -1 0 792)" d="M62.8623 227.8122L287.0753 227.8122" stroke="#939597" stroke-width="0.5" fill="none" /><path id="1303" transform="matrix(1 0 0 -1 0 792)" d="M62.8623 202.078L286.5233 202.078" stroke="#939597" stroke-width="0.5" fill="none" /><g clip-path="url(#6)"><g><g clip-path="url(#7)"><path id="1903" transform="matrix(1 0 0 -1 0 792)" d="M59.6311 289.9515C 58.7351 289.0555 57.8391 288.1595 56.9431 287.2635L56.9431 287.2635L56.9431 113.2425L56.9431 113.2425L59.6311 110.5545L59.6311 110.5545L290.3061 110.5545C 291.2021 111.4505 292.0981 112.3465 292.9941 113.2425L292.9941 113.2425L292.9941 287.2635C 292.0981 288.1595 291.2021 289.0555 290.3061 289.9515L290.3061 289.9515L59.6311 289.9515z" stroke="#000000" stroke-width="0.5" fill="none" stroke-opacity="0.4980392" /></g></g></g><path id="1904" transform="matrix(1 0 0 -1 0 792)" d="M307.7478 734.7006L304.9138 731.8656L304.9138 495.8856L307.7478 493.0516L538.6298 493.0516L541.4638 495.8856L541.4638 731.8656L538.6298 734.7006z" stroke="none" fill="#EAEBEC" fill-rule="nonzero" /><path id="1905" transform="matrix(1 0 0 -1 0 792)" d="M311.083 646.807L535.296 646.807L535.296 672.311L311.083 672.311z" stroke="none" fill="#FFFEFE" fill-rule="nonzero" /><path id="1906" transform="matrix(1 0 0 -1 0 792)" d="M311.0827 672.3112L535.2957 672.3112" stroke="#939597" stroke-width="0.5" fill="none" /><path id="1907" transform="matrix(1 0 0 -1 0 792)" d="M311.0827 646.0769L534.7437 646.0769" stroke="#939597" stroke-width="0.5" fill="none" /><g clip-path="url(#8)"><g><g clip-path="url(#9)"><path id="2772" transform="matrix(1 0 0 -1 0 792)" d="M307.8516 734.4504C 306.9556 733.5544 306.0596 732.6584 305.1636 731.7624L305.1636 731.7624L305.1636 495.9894C 306.0596 495.0934 306.9556 494.1974 307.8516 493.3014L307.8516 493.3014L538.5266 493.3014C 539.4226 494.1974 540.3186 495.0934 541.2146 495.9894L541.2146 495.9894L541.2146 731.7624L541.2146 731.7624L538.5266 734.4504L538.5266 734.4504L307.8516 734.4504z" stroke="#000000" stroke-width="0.5" fill="none" stroke-opacity="0.4980392" /></g></g></g><path id="2773" transform="matrix(1 0 0 -1 0 792)" d="M307.7478 481.6278L304.9138 478.7928L304.9138 205.3138L307.7478 202.4788L538.6298 202.4788L541.4638 205.3138L541.4638 478.7928L538.6298 481.6278z" stroke="none" fill="#EAEBEC" fill-rule="nonzero" /><path id="2774" transform="matrix(1 0 0 -1 0 792)" d="M311.083 393.734L535.296 393.734L535.296 419.238L311.083 419.238z" stroke="none" fill="#FFFEFE" fill-rule="nonzero" /><path id="2775" transform="matrix(1 0 0 -1 0 792)" d="M311.0827 419.2384L535.2957 419.2384" stroke="#939597" stroke-width="0.5" fill="none" /><path id="2776" transform="matrix(1 0 0 -1 0 792)" d="M311.0827 393.5042L534.7437 393.5042" stroke="#939597" stroke-width="0.5" fill="none" /><g clip-path="url(#10)"><g><g clip-path="url(#11)"><path id="3783" transform="matrix(1 0 0 -1 0 792)" d="M307.8517 481.3777C 306.9557 480.4817 306.0597 479.5857 305.1637 478.6897L305.1637 478.6897L305.1637 205.4167C 306.0597 204.5207 306.9557 203.6247 307.8517 202.7287L307.8517 202.7287L538.5267 202.7287C 539.4227 203.6247 540.3187 204.5207 541.2147 205.4167L541.2147 205.4167L541.2147 478.6897C 540.3187 479.5857 539.4227 480.4817 538.5267 481.3777L538.5267 481.3777L307.8517 481.3777z" stroke="#000000" stroke-width="0.5" fill="none" stroke-opacity="0.4980392" /></g></g></g><g clip-path="url(#12)"><path id="3800" transform="matrix(1 0 0 -1 0 792)" d="M56.9448 32.702L56.9448 -12.691" stroke="#000000" stroke-width="0.75" stroke-linecap="round" stroke-dasharray="0.75,1.464" fill="none" /><path id="3801" transform="matrix(1 0 0 -1 0 792)" d="M56.9448 -13.7986L56.9448 -13.7986M56.9448 34.9164L56.9448 34.9164" stroke="#000000" stroke-width="0.75" stroke-linecap="round" fill="none" /></g></g></g></svg>