<svg xmlns="http://www.w3.org/2000/svg" xmlns:xlink="http://www.w3.org/1999/xlink" id="body_82" preserveAspectRatio="xMinYMin meet" viewBox="0 0 816 1056"><defs><clipPath id="1"><path id="" clip-rule="evenodd" transform="matrix(1 0 0 1 0 0)" d="M0 792L0 0L0 0L612 0L612 0L612 792L612 792L0 792z" /></clipPath><clipPath id="2"><path id="" clip-rule="evenodd" transform="matrix(1 0 0 1 0 0)" d="M56.693 296.923L293.244 296.923L293.244 296.923L293.244 56.69202L293.244 56.69202L56.693 56.69202z" /></clipPath><clipPath id="3"><path id="" clip-rule="evenodd" transform="matrix(1 0 0 1 0 0)" d="M47.693 48.69202L302.244 48.69202L302.244 48.69202L302.244 299.631L302.244 299.631L47.693 299.631z" /></clipPath><clipPath id="4"><path id="" clip-rule="evenodd" transform="matrix(1 0 0 1 0 0)" d="M56.693 514.786L293.244 514.786L293.244 514.786L293.244 307.385L293.244 307.385L56.693 307.385z" /></clipPath><clipPath id="5"><path id="" clip-rule="evenodd" transform="matrix(1 0 0 1 0 0)" d="M47.693 299.385L302.244 299.385L302.244 299.385L302.244 517.494L302.244 517.494L47.693 517.494z" /></clipPath><clipPath id="6"><path id="" clip-rule="evenodd" transform="matrix(1 0 0 1 0 0)" d="M304.914 283.094L541.465 283.094L541.465 283.094L541.465 56.69299L541.465 56.69299L304.914 56.69299z" /></clipPath><clipPath id="7"><path id="" clip-rule="evenodd" transform="matrix(1 0 0 1 0 0)" d="M295.913 48.69299L550.465 48.69299L550.465 48.69299L550.465 285.802L550.465 285.802L295.913 285.802z" /></clipPath><clipPath id="8"><path id="" clip-rule="evenodd" transform="matrix(1 0 0 1 0 0)" d="M304.914 531.277L541.465 531.277L541.465 531.277L541.465 293.168L541.465 293.168L304.914 293.168z" /></clipPath><clipPath id="9"><path id="" clip-rule="evenodd" transform="matrix(1 0 0 1 0 0)" d="M295.913 285.563L550.465 285.563L550.465 285.563L550.465 533.09L550.465 533.09L295.913 533.09z" /></clipPath><clipPath id="10"><path id="" clip-rule="evenodd" transform="matrix(1 0 0 1 0 0)" d="M304.914 733.834L541.465 733.834L541.465 733.834L541.465 542.521L541.465 542.521L304.914 542.521z" /></clipPath><clipPath id="11"><path id="" clip-rule="evenodd" transform="matrix(1 0 0 1 0 0)" d="M295.913 534.521L550.465 534.521L550.465 534.521L550.465 736.543L550.465 736.543L295.913 736.543z" /></clipPath><clipPath id="12"><path id="" clip-rule="evenodd" transform="matrix(1 0 0 1 0 0)" d="M0 0L612 0L612 0L612 792L612 792L0 792z" /></clipPath></defs><g transform="matrix(1.333333 0 0 1.333333 0 0)"><g clip-path="url(#1)"><path id="1" transform="matrix(1 0 0 -1 0 792)" d="M59.5269 735.3072L56.6929 732.4742L56.6929 497.9112L59.5279 495.0762L290.4089 495.0762L293.2439 497.9112L293.2439 732.4742L290.4099 735.3072z" stroke="none" fill="#EAEBEC" fill-rule="nonzero" /><path id="2" transform="matrix(1 0 0 -1 0 792)" d="M62.862 656.415L287.075 656.415L287.075 681.919L62.862 681.919z" stroke="none" fill="#FFFEFE" fill-rule="nonzero" /><path id="3" transform="matrix(1 0 0 -1 0 792)" d="M62.8623 681.9191L287.0753 681.9191" stroke="#939597" stroke-width="0.5" fill="none" /><path id="4" transform="matrix(1 0 0 -1 0 792)" d="M62.8623 656.1848L286.5233 656.1848" stroke="#939597" stroke-width="0.5" fill="none" /><g clip-path="url(#2)"><g><g clip-path="url(#3)"><path id="795" transform="matrix(1 0 0 -1 0 792)" d="M59.6311 735.0583C 58.7351 734.1623 57.8391 733.2663 56.9431 732.3703L56.9431 732.3703L56.9431 498.0143C 57.8391 497.1183 58.7351 496.2223 59.6311 495.3263L59.6311 495.3263L290.3061 495.3263L290.3061 495.3263L292.9941 498.0143L292.9941 498.0143L292.9941 732.3703C 292.0981 733.2663 291.2021 734.1623 290.3061 735.0583L290.3061 735.0583L59.6311 735.0583z" stroke="#000000" stroke-width="0.5" fill="none" stroke-opacity="0.4980392" /></g></g></g><path id="796" transform="matrix(1 0 0 -1 0 792)" d="M59.5278 484.6149L56.6928 481.7799L56.6928 280.0489L59.5278 277.2139L290.4098 277.2139L293.2438 280.0489L293.2438 481.7799L290.4098 484.6149z" stroke="none" fill="#EAEBEC" fill-rule="nonzero" /><path id="797" transform="matrix(1 0 0 -1 0 792)" d="M62.862 405.721L287.075 405.721L287.075 431.225L62.862 431.225z" stroke="none" fill="#FFFEFE" fill-rule="nonzero" /><path id="798" transform="matrix(1 0 0 -1 0 792)" d="M62.8623 431.2253L287.0753 431.2253" stroke="#939597" stroke-width="0.5" fill="none" /><path id="799" transform="matrix(1 0 0 -1 0 792)" d="M62.862 391.052L287.075 391.052L287.075 410.391L62.862 410.391z" stroke="none" fill="#FFFEFE" fill-rule="nonzero" /><path id="800" transform="matrix(1 0 0 -1 0 792)" d="M63.8814 406.1387L286.5654 406.1387" stroke="#BBBDC0" stroke-width="0.51" stroke-linecap="round" stroke-dasharray="0.51,0.51" fill="none" /><path id="801" transform="matrix(1 0 0 -1 0 792)" d="M287.0753 406.1387L287.0753 406.1387M62.8623 406.1387L62.8623 406.1387" stroke="#BBBDC0" stroke-width="0.51" stroke-linecap="round" fill="none" /><path id="802" transform="matrix(1 0 0 -1 0 792)" d="M62.8623 390.8218L286.5233 390.8218" stroke="#939597" stroke-width="0.5" fill="none" /><g clip-path="url(#4)"><g><g clip-path="url(#5)"><path id="1438" transform="matrix(1 0 0 -1 0 792)" d="M59.6311 484.3646C 58.7351 483.4686 57.8391 482.5726 56.9431 481.6766L56.9431 481.6766L56.9431 280.1516C 57.8391 279.2556 58.7351 278.3596 59.6311 277.4636L59.6311 277.4636L290.3061 277.4636C 291.2021 278.3596 292.0981 279.2556 292.9941 280.1516L292.9941 280.1516L292.9941 481.6766L292.9941 481.6766L290.3061 484.3646L290.3061 484.3646L59.6311 484.3646z" stroke="#000000" stroke-width="0.5" fill="none" stroke-opacity="0.4980392" /></g></g></g><path id="1439" transform="matrix(1 0 0 -1 0 792)" d="M307.7478 735.3072L304.9138 732.4722L304.9138 511.7412L307.7478 508.9062L538.6298 508.9062L541.4638 511.7412L541.4638 732.4722L538.6298 735.3072z" stroke="none" fill="#EAEBEC" fill-rule="nonzero" /><path id="1440" transform="matrix(1 0 0 -1 0 792)" d="M311.083 656.414L535.296 656.414L535.296 681.918L311.083 681.918z" stroke="none" fill="#FFFEFE" fill-rule="nonzero" /><path id="1441" transform="matrix(1 0 0 -1 0 792)" d="M311.0827 681.9179L535.2957 681.9179" stroke="#939597" stroke-width="0.5" fill="none" /><path id="1442" transform="matrix(1 0 0 -1 0 792)" d="M311.083 641.745L535.296 641.745L535.296 661.084L311.083 661.084z" stroke="none" fill="#FFFEFE" fill-rule="nonzero" /><path id="1443" transform="matrix(1 0 0 -1 0 792)" d="M312.1019 656.8313L534.7859 656.8313" stroke="#BBBDC0" stroke-width="0.51" stroke-linecap="round" stroke-dasharray="0.51,0.51" fill="none" /><path id="1444" transform="matrix(1 0 0 -1 0 792)" d="M535.2957 656.8313L535.2957 656.8313M311.0827 656.8313L311.0827 656.8313" stroke="#BBBDC0" stroke-width="0.51" stroke-linecap="round" fill="none" /><path id="1445" transform="matrix(1 0 0 -1 0 792)" d="M311.0827 641.5144L534.7437 641.5144" stroke="#939597" stroke-width="0.5" fill="none" /><g clip-path="url(#6)"><g><g clip-path="url(#7)"><path id="2174" transform="matrix(1 0 0 -1 0 792)" d="M307.8517 735.0572C 306.9557 734.1612 306.0597 733.2652 305.1637 732.3692L305.1637 732.3692L305.1637 511.8442C 306.0597 510.9482 306.9557 510.0522 307.8517 509.1562L307.8517 509.1562L538.5267 509.1562C 539.4227 510.0522 540.3187 510.9482 541.2147 511.8442L541.2147 511.8442L541.2147 732.3692L541.2147 732.3692L538.5267 735.0572L538.5267 735.0572L307.8517 735.0572z" stroke="#000000" stroke-width="0.5" fill="none" stroke-opacity="0.4980392" /></g></g></g><path id="2175" transform="matrix(1 0 0 -1 0 792)" d="M307.7478 498.4362L304.9138 495.6022L304.9138 264.4532L307.7478 261.6182L538.6298 261.6182L541.4638 264.4532L541.4638 495.6022L538.6298 498.4362z" stroke="none" fill="#EAEBEC" fill-rule="nonzero" /><path id="2176" transform="matrix(1 0 0 -1 0 792)" d="M311.083 410.543L535.296 410.543L535.296 436.047L311.083 436.047z" stroke="none" fill="#FFFEFE" fill-rule="nonzero" /><path id="2177" transform="matrix(1 0 0 -1 0 792)" d="M311.0827 436.0474L535.2957 436.0474" stroke="#939597" stroke-width="0.5" fill="none" /><path id="2178" transform="matrix(1 0 0 -1 0 792)" d="M311.083 395.874L535.296 395.874L535.296 415.213L311.083 415.213z" stroke="none" fill="#FFFEFE" fill-rule="nonzero" /><path id="2179" transform="matrix(1 0 0 -1 0 792)" d="M312.1019 410.9608L534.7859 410.9608" stroke="#BBBDC0" stroke-width="0.51" stroke-linecap="round" stroke-dasharray="0.51,0.51" fill="none" /><path id="2180" transform="matrix(1 0 0 -1 0 792)" d="M535.2957 410.9608L535.2957 410.9608M311.0827 410.9608L311.0827 410.9608" stroke="#BBBDC0" stroke-width="0.51" stroke-linecap="round" fill="none" /><path id="2181" transform="matrix(1 0 0 -1 0 792)" d="M311.0827 395.6438L534.7437 395.6438" stroke="#939597" stroke-width="0.5" fill="none" /><g clip-path="url(#8)"><g><g clip-path="url(#9)"><path id="2960" transform="matrix(1 0 0 -1 0 792)" d="M307.8517 498.1867C 306.9557 497.2907 306.0597 496.3947 305.1637 495.4987L305.1637 495.4987L305.1637 264.5567C 306.0597 263.6607 306.9557 262.7647 307.8517 261.8687L307.8517 261.8687L538.5267 261.8687C 539.4227 262.7647 540.3187 263.6607 541.2147 264.5567L541.2147 264.5567L541.2147 495.4987C 540.3187 496.3947 539.4227 497.2907 538.5267 498.1867L538.5267 498.1867L307.8517 498.1867z" stroke="#000000" stroke-width="0.5" fill="none" stroke-opacity="0.4980392" /></g></g></g><path id="2961" transform="matrix(1 0 0 -1 0 792)" d="M307.7478 249.4791L304.9138 246.6451L304.9138 60.9991L307.7468 58.16609L538.6308 58.16609L541.4638 60.9991L541.4638 246.6451L538.6298 249.4791z" stroke="none" fill="#EAEBEC" fill-rule="nonzero" /><path id="2962" transform="matrix(1 0 0 -1 0 792)" d="M311.083 170.586L535.296 170.586L535.296 196.09L311.083 196.09z" stroke="none" fill="#FFFEFE" fill-rule="nonzero" /><path id="2963" transform="matrix(1 0 0 -1 0 792)" d="M311.0827 196.0902L535.2957 196.0902" stroke="#939597" stroke-width="0.5" fill="none" /><path id="2964" transform="matrix(1 0 0 -1 0 792)" d="M311.0827 170.3559L534.7437 170.3559" stroke="#939597" stroke-width="0.5" fill="none" /><g clip-path="url(#10)"><g><g clip-path="url(#11)"><path id="3519" transform="matrix(1 0 0 -1 0 792)" d="M307.8517 249.2295C 306.9557 248.3335 306.0597 247.4375 305.1637 246.5415L305.1637 246.5415L305.1637 61.1035C 306.0597 60.2075 306.9557 59.31151 307.8517 58.41551L307.8517 58.41551L538.5267 58.41551C 539.4227 59.31151 540.3187 60.2075 541.2147 61.1035L541.2147 61.1035L541.2147 246.5415C 540.3187 247.4375 539.4227 248.3335 538.5267 249.2295L538.5267 249.2295L307.8517 249.2295z" stroke="#000000" stroke-width="0.5" fill="none" stroke-opacity="0.4980392" /></g></g></g><g clip-path="url(#12)"><path id="3536" transform="matrix(1 0 0 -1 0 792)" d="M56.9448 32.702L56.9448 -12.691" stroke="#000000" stroke-width="0.75" stroke-linecap="round" stroke-dasharray="0.75,1.464" fill="none" /><path id="3537" transform="matrix(1 0 0 -1 0 792)" d="M56.9448 -13.7986L56.9448 -13.7986M56.9448 34.9164L56.9448 34.9164" stroke="#000000" stroke-width="0.75" stroke-linecap="round" fill="none" /></g></g></g></svg>