<svg xmlns="http://www.w3.org/2000/svg" xmlns:xlink="http://www.w3.org/1999/xlink" id="body_82" preserveAspectRatio="xMinYMin meet" viewBox="0 0 816 1056"><defs><clipPath id="1"><path id="" clip-rule="evenodd" transform="matrix(1 0 0 1 0 0)" d="M0 792L0 0L0 0L612 0L612 0L612 792L612 792L0 792z" /></clipPath><clipPath id="2"><path id="" clip-rule="evenodd" transform="matrix(1 0 0 1 0 0)" d="M56.693 258.925L293.244 258.925L293.244 258.925L293.244 56.69299L293.244 56.69299L56.693 56.69299z" /></clipPath><clipPath id="3"><path id="" clip-rule="evenodd" transform="matrix(1 0 0 1 0 0)" d="M47.693 48.71698L302.244 48.71698L302.244 48.71698L302.244 261.657L302.244 261.657L47.693 261.657z" /></clipPath><clipPath id="4"><path id="" clip-rule="evenodd" transform="matrix(1 0 0 1 0 0)" d="M56.693 423.805L293.244 423.805L293.244 423.805L293.244 270.491L293.244 270.491L56.693 270.491z" /></clipPath><clipPath id="5"><path id="" clip-rule="evenodd" transform="matrix(1 0 0 1 0 0)" d="M47.693 262.49L302.244 262.49L302.244 262.49L302.244 426.513L302.244 426.513L47.693 426.513z" /></clipPath><clipPath id="6"><path id="" clip-rule="evenodd" transform="matrix(1 0 0 1 0 0)" d="M56.693 656.386L293.244 656.386L293.244 656.386L293.244 437.268L293.244 437.268L56.693 437.268z" /></clipPath><clipPath id="7"><path id="" clip-rule="evenodd" transform="matrix(1 0 0 1 0 0)" d="M47.693 429.493L302.244 429.493L302.244 429.493L302.244 658.519L302.244 658.519L47.693 658.519z" /></clipPath><clipPath id="8"><path id="" clip-rule="evenodd" transform="matrix(1 0 0 1 0 0)" d="M304.914 219.007L541.465 219.007L541.465 219.007L541.465 56.69299L541.465 56.69299L304.914 56.69299z" /></clipPath><clipPath id="9"><path id="" clip-rule="evenodd" transform="matrix(1 0 0 1 0 0)" d="M295.913 48.69299L550.465 48.69299L550.465 48.69299L550.465 221.715L550.465 221.715L295.913 221.715z" /></clipPath><clipPath id="10"><path id="" clip-rule="evenodd" transform="matrix(1 0 0 1 0 0)" d="M304.914 440.773L541.465 440.773L541.465 440.773L541.465 233.372L541.465 233.372L304.914 233.372z" /></clipPath><clipPath id="11"><path id="" clip-rule="evenodd" transform="matrix(1 0 0 1 0 0)" d="M295.913 225.372L550.465 225.372L550.465 225.372L550.465 443.481L550.465 443.481L295.913 443.481z" /></clipPath><clipPath id="12"><path id="" clip-rule="evenodd" transform="matrix(1 0 0 1 0 0)" d="M304.914 719.397L541.465 719.397L541.465 719.397L541.465 455.497L541.465 455.497L304.914 455.497z" /></clipPath><clipPath id="13"><path id="" clip-rule="evenodd" transform="matrix(1 0 0 1 0 0)" d="M295.913 447.498L550.465 447.498L550.465 447.498L550.465 722.1066L550.465 722.1066L295.913 722.1066z" /></clipPath><clipPath id="14"><path id="" clip-rule="evenodd" transform="matrix(1 0 0 1 0 0)" d="M0 0L612 0L612 0L612 792L612 792L0 792z" /></clipPath></defs><g transform="matrix(1.333333 0 0 1.333333 0 0)"><g clip-path="url(#1)"><path id="1" transform="matrix(1 0 0 -1 0 792)" d="M59.5278 735.2829L56.6928 732.4489L56.6928 535.8859L59.5038 533.0759L290.4338 533.0759L293.2438 535.8859L293.2438 732.4489L290.4098 735.2829z" stroke="none" fill="#EAEBEC" fill-rule="nonzero" /><path id="2" transform="matrix(1 0 0 -1 0 792)" d="M62.862 656.39L287.075 656.39L287.075 681.894L62.862 681.894z" stroke="none" fill="#FFFEFE" fill-rule="nonzero" /><path id="3" transform="matrix(1 0 0 -1 0 792)" d="M62.8623 681.8938L287.0753 681.8938" stroke="#939597" stroke-width="0.5" fill="none" /><path id="4" transform="matrix(1 0 0 -1 0 792)" d="M62.8623 656.1595L286.5233 656.1595" stroke="#939597" stroke-width="0.5" fill="none" /><g clip-path="url(#2)"><g><g clip-path="url(#3)"><path id="661" transform="matrix(1 0 0 -1 0 792)" d="M59.6311 735.0331C 58.7351 734.1371 57.8391 733.2411 56.9431 732.3451L56.9431 732.3451L56.9431 535.9891C 57.8391 535.0931 58.7351 534.1971 59.6311 533.3011L59.6311 533.3011L290.3061 533.3011C 291.2021 534.1971 292.0981 535.0931 292.9941 535.9891L292.9941 535.9891L292.9941 732.3451C 292.0981 733.2411 291.2021 734.1371 290.3061 735.0331L290.3061 735.0331L59.6311 735.0331z" stroke="#000000" stroke-width="0.5" fill="none" stroke-opacity="0.4980392" /></g></g></g><path id="662" transform="matrix(1 0 0 -1 0 792)" d="M59.5278 521.5095L56.6928 518.6745L56.6928 371.0295L59.5278 368.1955L290.4098 368.1955L293.2438 371.0295L293.2438 518.6745L290.4098 521.5095z" stroke="none" fill="#EAEBEC" fill-rule="nonzero" /><path id="663" transform="matrix(1 0 0 -1 0 792)" d="M62.862 442.616L287.075 442.616L287.075 468.12L62.862 468.12z" stroke="none" fill="#FFFEFE" fill-rule="nonzero" /><path id="664" transform="matrix(1 0 0 -1 0 792)" d="M62.8623 468.1202L287.0753 468.1202" stroke="#939597" stroke-width="0.5" fill="none" /><path id="665" transform="matrix(1 0 0 -1 0 792)" d="M62.8623 442.386L286.5233 442.386" stroke="#939597" stroke-width="0.5" fill="none" /><g clip-path="url(#4)"><g><g clip-path="url(#5)"><path id="1078" transform="matrix(1 0 0 -1 0 792)" d="M59.6311 521.2595C 58.7351 520.3635 57.8391 519.4675 56.9431 518.5715L56.9431 518.5715L56.9431 371.1335C 57.8391 370.2375 58.7351 369.3415 59.6311 368.4455L59.6311 368.4455L290.3061 368.4455L290.3061 368.4455L292.9941 371.1335L292.9941 371.1335L292.9941 518.5715C 292.0981 519.4675 291.2021 520.3635 290.3061 521.2595L290.3061 521.2595L59.6311 521.2595z" stroke="#000000" stroke-width="0.5" fill="none" stroke-opacity="0.4980392" /></g></g></g><path id="1079" transform="matrix(1 0 0 -1 0 792)" d="M59.5278 354.5073L56.6928 351.6723L56.6928 139.0233L59.5278 136.1893L290.4098 136.1893L293.2438 139.0233L293.2438 351.6723L290.4098 354.5073z" stroke="none" fill="#EAEBEC" fill-rule="nonzero" /><path id="1080" transform="matrix(1 0 0 -1 0 792)" d="M62.862 275.614L287.075 275.614L287.075 301.118L62.862 301.118z" stroke="none" fill="#FFFEFE" fill-rule="nonzero" /><path id="1081" transform="matrix(1 0 0 -1 0 792)" d="M62.8623 301.1177L287.0753 301.1177" stroke="#939597" stroke-width="0.5" fill="none" /><path id="1082" transform="matrix(1 0 0 -1 0 792)" d="M62.862 260.945L287.075 260.945L287.075 280.284L62.862 280.284z" stroke="none" fill="#FFFEFE" fill-rule="nonzero" /><path id="1083" transform="matrix(1 0 0 -1 0 792)" d="M63.8814 276.0311L286.5654 276.0311" stroke="#BBBDC0" stroke-width="0.51" stroke-linecap="round" stroke-dasharray="0.51,0.51" fill="none" /><path id="1084" transform="matrix(1 0 0 -1 0 792)" d="M287.0753 276.0311L287.0753 276.0311M62.8623 276.0311L62.8623 276.0311" stroke="#BBBDC0" stroke-width="0.51" stroke-linecap="round" fill="none" /><path id="1085" transform="matrix(1 0 0 -1 0 792)" d="M62.8623 260.7142L286.5233 260.7142" stroke="#939597" stroke-width="0.5" fill="none" /><g clip-path="url(#6)"><g><g clip-path="url(#7)"><path id="1742" transform="matrix(1 0 0 -1 0 792)" d="M59.6311 354.257C 58.7351 353.361 57.8391 352.465 56.9431 351.569L56.9431 351.569L56.9431 139.127C 57.8391 138.231 58.7351 137.335 59.6311 136.439L59.6311 136.439L290.3061 136.439L290.3061 136.439L292.9941 139.127L292.9941 139.127L292.9941 351.569C 292.0981 352.465 291.2021 353.361 290.3061 354.257L290.3061 354.257L59.6311 354.257z" stroke="#000000" stroke-width="0.5" fill="none" stroke-opacity="0.4980392" /></g></g></g><path id="1743" transform="matrix(1 0 0 -1 0 792)" d="M307.7478 735.3072L304.9138 732.4722L304.9138 575.8272L307.7478 572.9932L538.6298 572.9932L541.4638 575.8272L541.4638 732.4722L538.6298 735.3072z" stroke="none" fill="#EAEBEC" fill-rule="nonzero" /><path id="1744" transform="matrix(1 0 0 -1 0 792)" d="M311.083 647.414L535.296 647.414L535.296 672.918L311.083 672.918z" stroke="none" fill="#FFFEFE" fill-rule="nonzero" /><path id="1745" transform="matrix(1 0 0 -1 0 792)" d="M311.0827 672.9178L535.2957 672.9178" stroke="#939597" stroke-width="0.5" fill="none" /><path id="1746" transform="matrix(1 0 0 -1 0 792)" d="M311.0827 647.1836L534.7437 647.1836" stroke="#939597" stroke-width="0.5" fill="none" /><g clip-path="url(#8)"><g><g clip-path="url(#9)"><path id="2166" transform="matrix(1 0 0 -1 0 792)" d="M307.8516 735.0571C 306.9556 734.1611 306.0596 733.2651 305.1636 732.3691L305.1636 732.3691L305.1636 575.9312C 306.0596 575.0352 306.9556 574.1392 307.8516 573.2432L307.8516 573.2432L538.5266 573.2432C 539.4226 574.1392 540.3186 575.0352 541.2146 575.9312L541.2146 575.9312L541.2146 732.3691L541.2146 732.3691L538.5266 735.0571L538.5266 735.0571L307.8516 735.0571z" stroke="#000000" stroke-width="0.5" fill="none" stroke-opacity="0.4980392" /></g></g></g><path id="2167" transform="matrix(1 0 0 -1 0 792)" d="M307.7478 558.6273L304.9138 555.7933L304.9138 354.0613L307.7478 351.2263L538.6298 351.2263L541.4638 354.0613L541.4638 555.7933L538.6298 558.6273z" stroke="none" fill="#EAEBEC" fill-rule="nonzero" /><path id="2168" transform="matrix(1 0 0 -1 0 792)" d="M311.083 479.734L535.296 479.734L535.296 505.238L311.083 505.238z" stroke="none" fill="#FFFEFE" fill-rule="nonzero" /><path id="2169" transform="matrix(1 0 0 -1 0 792)" d="M311.0827 505.2384L535.2957 505.2384" stroke="#939597" stroke-width="0.5" fill="none" /><path id="2170" transform="matrix(1 0 0 -1 0 792)" d="M311.083 465.065L535.296 465.065L535.296 484.404L311.083 484.404z" stroke="none" fill="#FFFEFE" fill-rule="nonzero" /><path id="2171" transform="matrix(1 0 0 -1 0 792)" d="M312.1019 480.1518L534.7859 480.1518" stroke="#BBBDC0" stroke-width="0.51" stroke-linecap="round" stroke-dasharray="0.51,0.51" fill="none" /><path id="2172" transform="matrix(1 0 0 -1 0 792)" d="M535.2957 480.1518L535.2957 480.1518M311.0827 480.1518L311.0827 480.1518" stroke="#BBBDC0" stroke-width="0.51" stroke-linecap="round" fill="none" /><path id="2173" transform="matrix(1 0 0 -1 0 792)" d="M311.0827 464.8349L534.7437 464.8349" stroke="#939597" stroke-width="0.5" fill="none" /><g clip-path="url(#10)"><g><g clip-path="url(#11)"><path id="2856" transform="matrix(1 0 0 -1 0 792)" d="M307.8517 558.3777C 306.9557 557.4817 306.0597 556.5857 305.1637 555.6897L305.1637 555.6897L305.1637 354.1647C 306.0597 353.2687 306.9557 352.3727 307.8517 351.4767L307.8517 351.4767L538.5267 351.4767L538.5267 351.4767L541.2147 354.1647L541.2147 354.1647L541.2147 555.6897C 540.3187 556.5857 539.4227 557.4817 538.5267 558.3777L538.5267 558.3777L307.8517 558.3777z" stroke="#000000" stroke-width="0.5" fill="none" stroke-opacity="0.4980392" /></g></g></g><path id="2857" transform="matrix(1 0 0 -1 0 792)" d="M307.7478 336.5028L304.9138 333.6678L304.9138 75.43582L307.7458 72.60281L538.6318 72.60281L541.4638 75.43582L541.4638 333.6678L538.6298 336.5028z" stroke="none" fill="#EAEBEC" fill-rule="nonzero" /><path id="2858" transform="matrix(1 0 0 -1 0 792)" d="M311.083 248.609L535.296 248.609L535.296 274.113L311.083 274.113z" stroke="none" fill="#FFFEFE" fill-rule="nonzero" /><path id="2859" transform="matrix(1 0 0 -1 0 792)" d="M311.0827 274.1132L535.2957 274.1132" stroke="#939597" stroke-width="0.5" fill="none" /><path id="2860" transform="matrix(1 0 0 -1 0 792)" d="M311.083 233.94L535.296 233.94L535.296 253.279L311.083 253.279z" stroke="none" fill="#FFFEFE" fill-rule="nonzero" /><path id="2861" transform="matrix(1 0 0 -1 0 792)" d="M312.1019 249.0266L534.7859 249.0266" stroke="#BBBDC0" stroke-width="0.51" stroke-linecap="round" stroke-dasharray="0.51,0.51" fill="none" /><path id="2862" transform="matrix(1 0 0 -1 0 792)" d="M535.2957 249.0266L535.2957 249.0266M311.0827 249.0266L311.0827 249.0266" stroke="#BBBDC0" stroke-width="0.51" stroke-linecap="round" fill="none" /><path id="2863" transform="matrix(1 0 0 -1 0 792)" d="M311.0827 233.7096L534.7437 233.7096" stroke="#939597" stroke-width="0.5" fill="none" /><g clip-path="url(#12)"><g><g clip-path="url(#13)"><path id="3749" transform="matrix(1 0 0 -1 0 792)" d="M307.8517 336.2524C 306.9557 335.3564 306.0597 334.4604 305.1637 333.5644L305.1637 333.5644L305.1637 75.5394L305.1637 75.5394L307.8517 72.85141L307.8517 72.85141L538.5267 72.85141C 539.4227 73.74741 540.3187 74.6434 541.2147 75.5394L541.2147 75.5394L541.2147 333.5644C 540.3187 334.4604 539.4227 335.3564 538.5267 336.2524L538.5267 336.2524L307.8517 336.2524z" stroke="#000000" stroke-width="0.5" fill="none" stroke-opacity="0.4980392" /></g></g></g><g clip-path="url(#14)"><path id="3766" transform="matrix(1 0 0 -1 0 792)" d="M56.9448 32.702L56.9448 -12.691" stroke="#000000" stroke-width="0.75" stroke-linecap="round" stroke-dasharray="0.75,1.464" fill="none" /><path id="3767" transform="matrix(1 0 0 -1 0 792)" d="M56.9448 -13.7986L56.9448 -13.7986M56.9448 34.9164L56.9448 34.9164" stroke="#000000" stroke-width="0.75" stroke-linecap="round" fill="none" /></g></g></g></svg>