<svg xmlns="http://www.w3.org/2000/svg" xmlns:xlink="http://www.w3.org/1999/xlink" id="body_105" preserveAspectRatio="xMinYMin meet" viewBox="0 0 816 1056"><defs><clipPath id="1"><path id="" clip-rule="evenodd" transform="matrix(1 0 0 1 0 0)" d="M0 792L0 0L0 0L612 0L612 0L612 792L612 792L0 792z" /></clipPath><clipPath id="2"><path id="" clip-rule="evenodd" transform="matrix(1 0 0 1 0 0)" d="M70.866 533.768L307.417 533.768L307.417 533.768L307.417 56.69299L307.417 56.69299L70.866 56.69299z" /></clipPath><clipPath id="3"><path id="" clip-rule="evenodd" transform="matrix(1 0 0 1 0 0)" d="M70.866 533.768L307.417 533.768L307.417 533.768L307.417 56.69299L307.417 56.69299L70.866 56.69299z" /></clipPath><clipPath id="4"><path id="" clip-rule="evenodd" transform="matrix(1 0 0 1 0 0)" d="M61.8661 48.69299L316.417 48.69299L316.417 48.69299L316.417 536.355L316.417 536.355L61.8661 536.355z" /></clipPath><clipPath id="5"><path id="" clip-rule="evenodd" transform="matrix(1 0 0 1 0 0)" d="M319.087 571.949L555.638 571.949L555.638 571.949L555.638 56.69299L555.638 56.69299L319.087 56.69299z" /></clipPath><clipPath id="6"><path id="" clip-rule="evenodd" transform="matrix(1 0 0 1 0 0)" d="M319.087 571.949L555.638 571.949L555.638 571.949L555.638 56.69299L555.638 56.69299L319.087 56.69299z" /></clipPath><clipPath id="7"><path id="" clip-rule="evenodd" transform="matrix(1 0 0 1 0 0)" d="M310.087 48.69299L564.638 48.69299L564.638 48.69299L564.638 573.855L564.638 573.855L310.087 573.855z" /></clipPath><clipPath id="8"><path id="" clip-rule="evenodd" transform="matrix(1 0 0 1 0 0)" d="M0 0L612 0L612 0L612 792L612 792L0 792z" /></clipPath></defs><g transform="matrix(1.333333 0 0 1.333333 0 0)"><g clip-path="url(#1)"><g clip-path="url(#2)"><path id="1" transform="matrix(1 0 0 -1 0 792)" d="M77.285 629.164L300.998 629.164L300.998 672.668L77.285 672.668z" stroke="none" fill="#F5F5F6" fill-rule="nonzero" /><path id="2" transform="matrix(1 0 0 -1 0 792)" d="M77.2854 672.6678L300.9984 672.6678" stroke="#000000" stroke-width="0.5" fill="none" /><path id="3" transform="matrix(1 0 0 -1 0 792)" d="M77.2854 628.9336L300.9464 628.9336" stroke="#000000" stroke-width="0.5" fill="none" /></g><g clip-path="url(#3)"><g><g clip-path="url(#4)"><path id="1833" transform="matrix(1 0 0 -1 0 792)" d="M73.7007 734.9321C 72.3447 734.9321 71.2407 733.8291 71.2407 732.4721L71.2407 732.4721L71.2407 260.5671C 71.2407 259.2111 72.3447 258.1081 73.7007 258.1081L73.7007 258.1081L304.5827 258.1081C 305.9387 258.1081 307.0427 259.2111 307.0427 260.5671L307.0427 260.5671L307.0427 732.4721C 307.0427 733.8291 305.9387 734.9321 304.5827 734.9321L304.5827 734.9321L73.7007 734.9321z" stroke="#000000" stroke-width="0.75" fill="none" stroke-opacity="0.4980392" /></g></g></g><g clip-path="url(#5)"><path id="1834" transform="matrix(1 0 0 -1 0 792)" d="M325.506 620.164L549.219 620.164L549.219 663.668L325.506 663.668z" stroke="none" fill="#F5F5F6" fill-rule="nonzero" /><path id="1835" transform="matrix(1 0 0 -1 0 792)" d="M325.5059 663.6678L549.2189 663.6678" stroke="#000000" stroke-width="0.5" fill="none" /><path id="1836" transform="matrix(1 0 0 -1 0 792)" d="M325.5059 619.9336L549.1669 619.9336" stroke="#000000" stroke-width="0.5" fill="none" /></g><g clip-path="url(#6)"><g><g clip-path="url(#7)"><path id="3830" transform="matrix(1 0 0 -1 0 792)" d="M321.9213 734.9321C 320.5653 734.9321 319.4613 733.8291 319.4613 732.4721L319.4613 732.4721L319.4613 223.0001C 319.4613 221.6431 320.5653 220.5401 321.9213 220.5401L321.9213 220.5401L552.8033 220.5401C 554.1593 220.5401 555.2633 221.6431 555.2633 223.0001L555.2633 223.0001L555.2633 732.4721C 555.2633 733.8291 554.1593 734.9321 552.8033 734.9321L552.8033 734.9321L321.9213 734.9321z" stroke="#000000" stroke-width="0.75" fill="none" stroke-opacity="0.4980392" /></g></g></g><g clip-path="url(#8)"><path id="3848" transform="matrix(1 0 0 -1 0 792)" d="M555.6614 32.702L555.6614 -12.691" stroke="#000000" stroke-width="0.75" stroke-linecap="round" stroke-dasharray="0.75,1.464" fill="none" /><path id="3849" transform="matrix(1 0 0 -1 0 792)" d="M555.6614 -13.7986L555.6614 -13.7986M555.6614 34.9164L555.6614 34.9164" stroke="#000000" stroke-width="0.75" stroke-linecap="round" fill="none" /></g></g></g></svg>