<svg xmlns="http://www.w3.org/2000/svg" xmlns:xlink="http://www.w3.org/1999/xlink" id="body_132" preserveAspectRatio="xMinYMin meet" viewBox="0 0 816 1056"><defs><clipPath id="1"><path id="" clip-rule="evenodd" transform="matrix(1 0 0 1 0 0)" d="M0 792L0 0L0 0L612 0L612 0L612 792L612 792L0 792z" /></clipPath><clipPath id="2"><path id="" clip-rule="evenodd" transform="matrix(1 0 0 1 0 0)" d="M0 0L612 0L612 0L612 792L612 792L0 792z" /></clipPath></defs><g transform="matrix(1.333333 0 0 1.333333 0 0)"><g clip-path="url(#1)"><path id="1" transform="matrix(1 0 0 -1 0 792)" d="M60.9449 727.1418L60.9449 735.3068" stroke="#000000" stroke-width="8" fill="none" /><path id="459" transform="matrix(1 0 0 -1 0 792)" d="M56.693 612.777L541.134 612.777L541.134 629.8199L56.693 629.8199z" stroke="none" fill="#000000" fill-rule="nonzero" /><path id="476" transform="matrix(1 0 0 -1 0 792)" d="M60.9449 591.4567L60.9449 599.6217" stroke="#000000" stroke-width="8" fill="none" /><path id="477" transform="matrix(1 0 0 -1 0 792)" d="M60.9449 499.9528L60.9449 508.1178" stroke="#000000" stroke-width="8" fill="none" /><path id="478" transform="matrix(1 0 0 -1 0 792)" d="M60.9449 375.6142L60.9449 383.7792" stroke="#000000" stroke-width="8" fill="none" /><path id="479" transform="matrix(1 0 0 -1 0 792)" d="M60.9449 304.1103L60.9449 312.2753" stroke="#000000" stroke-width="8" fill="none" /><path id="480" transform="matrix(1 0 0 -1 0 792)" d="M60.9449 192.6063L60.9449 200.7713" stroke="#000000" stroke-width="8" fill="none" /><path id="1968" transform="matrix(1 0 0 -1 0 792)" d="M309.1653 591.4567L309.1653 599.6217" stroke="#000000" stroke-width="8" fill="none" /><path id="1969" transform="matrix(1 0 0 -1 0 792)" d="M309.1653 509.9528L309.1653 518.1178" stroke="#000000" stroke-width="8" fill="none" /><path id="1970" transform="matrix(1 0 0 -1 0 792)" d="M309.1653 405.6142L309.1653 413.7792" stroke="#000000" stroke-width="8" fill="none" /><path id="1971" transform="matrix(1 0 0 -1 0 792)" d="M309.1653 324.1103L309.1653 332.2753" stroke="#000000" stroke-width="8" fill="none" /><path id="1972" transform="matrix(1 0 0 -1 0 792)" d="M309.1653 229.7717L309.1653 237.9367" stroke="#000000" stroke-width="8" fill="none" /><g clip-path="url(#2)"><path id="3316" transform="matrix(1 0 0 -1 0 792)" d="M56.9448 32.702L56.9448 -12.691" stroke="#000000" stroke-width="0.75" stroke-linecap="round" stroke-dasharray="0.75,1.464" fill="none" /><path id="3317" transform="matrix(1 0 0 -1 0 792)" d="M56.9448 -13.7986L56.9448 -13.7986M56.9448 34.9164L56.9448 34.9164" stroke="#000000" stroke-width="0.75" stroke-linecap="round" fill="none" /></g></g></g></svg>