<svg xmlns="http://www.w3.org/2000/svg" xmlns:xlink="http://www.w3.org/1999/xlink" id="body_99" preserveAspectRatio="xMinYMin meet" viewBox="0 0 816 1056"><defs><clipPath id="1"><path id="" clip-rule="evenodd" transform="matrix(1 0 0 1 0 0)" d="M0 792L0 0L0 0L612 0L612 0L612 792L612 792L0 792z" /></clipPath><clipPath id="2"><path id="" clip-rule="evenodd" transform="matrix(1 0 0 1 0 0)" d="M70.866 380.429L307.418 380.429L307.418 380.429L307.418 56.69299L307.418 56.69299L70.866 56.69299z" /></clipPath><clipPath id="3"><path id="" clip-rule="evenodd" transform="matrix(1 0 0 1 0 0)" d="M61.8662 48.69299L316.417 48.69299L316.417 48.69299L316.417 373.637L316.417 373.637L61.8662 373.637z" /></clipPath><clipPath id="4"><path id="" clip-rule="evenodd" transform="matrix(1 0 0 1 0 0)" d="M70.866 713.234L307.418 713.234L307.418 713.234L307.418 379.08L307.418 379.08L70.866 379.08z" /></clipPath><clipPath id="5"><path id="" clip-rule="evenodd" transform="matrix(1 0 0 1 0 0)" d="M61.8662 371.08L316.417 371.08L316.417 371.08L316.417 706.4411L316.417 706.4411L61.8662 706.4411z" /></clipPath><clipPath id="6"><path id="" clip-rule="evenodd" transform="matrix(1 0 0 1 0 0)" d="M319.087 316.842L555.638 316.842L555.638 316.842L555.638 56.69299L555.638 56.69299L319.087 56.69299z" /></clipPath><clipPath id="7"><path id="" clip-rule="evenodd" transform="matrix(1 0 0 1 0 0)" d="M310.087 48.69299L564.638 48.69299L564.638 48.69299L564.638 310.55L564.638 310.55L310.087 310.55z" /></clipPath><clipPath id="8"><path id="" clip-rule="evenodd" transform="matrix(1 0 0 1 0 0)" d="M319.087 480.332L555.638 480.332L555.638 480.332L555.638 317.518L555.638 317.518L319.087 317.518z" /></clipPath><clipPath id="9"><path id="" clip-rule="evenodd" transform="matrix(1 0 0 1 0 0)" d="M310.087 309.518L564.638 309.518L564.638 309.518L564.638 483.04L564.638 483.04L310.087 483.04z" /></clipPath><clipPath id="10"><path id="" clip-rule="evenodd" transform="matrix(1 0 0 1 0 0)" d="M319.087 672.452L555.638 672.452L555.638 672.452L555.638 490.638L555.638 490.638L319.087 490.638z" /></clipPath><clipPath id="11"><path id="" clip-rule="evenodd" transform="matrix(1 0 0 1 0 0)" d="M310.087 482.637L564.638 482.637L564.638 482.637L564.638 675.16L564.638 675.16L310.087 675.16z" /></clipPath><clipPath id="12"><path id="" clip-rule="evenodd" transform="matrix(1 0 0 1 0 0)" d="M0 0L612 0L612 0L612 792L612 792L0 792z" /></clipPath></defs><g transform="matrix(1.333333 0 0 1.333333 0 0)"><g clip-path="url(#1)"><path id="1" transform="matrix(1 0 0 -1 0 792)" d="M73.701 735.3072L70.866 732.4722L70.866 423.9062L73.701 421.0712L304.583 421.0712L307.418 423.9062L307.418 732.4722L304.583 735.3072z" stroke="none" fill="#EAEBEC" fill-rule="nonzero" /><path id="2" transform="matrix(1 0 0 -1 0 792)" d="M77.035 647.414L301.248 647.414L301.248 672.918L77.035 672.918z" stroke="none" fill="#FFFEFE" fill-rule="nonzero" /><path id="3" transform="matrix(1 0 0 -1 0 792)" d="M77.0354 672.9178L301.2484 672.9178" stroke="#939597" stroke-width="0.5" fill="none" /><path id="4" transform="matrix(1 0 0 -1 0 792)" d="M77.035 632.745L301.248 632.745L301.248 652.084L77.035 652.084z" stroke="none" fill="#FFFEFE" fill-rule="nonzero" /><path id="5" transform="matrix(1 0 0 -1 0 792)" d="M78.0546 647.8312L300.7386 647.8312" stroke="#BBBDC0" stroke-width="0.51" stroke-linecap="round" stroke-dasharray="0.51,0.51" fill="none" /><path id="6" transform="matrix(1 0 0 -1 0 792)" d="M301.2484 647.8312L301.2484 647.8312M77.0354 647.8312L77.0354 647.8312" stroke="#BBBDC0" stroke-width="0.51" stroke-linecap="round" fill="none" /><path id="7" transform="matrix(1 0 0 -1 0 792)" d="M77.0354 632.5143L300.6964 632.5143" stroke="#939597" stroke-width="0.5" fill="none" /><g clip-path="url(#2)"><g><g clip-path="url(#3)"><path id="1137" transform="matrix(1 0 0 -1 0 792)" d="M73.8044 735.0571C 72.90839 734.1611 72.0124 733.2651 71.11639 732.3691L71.11639 732.3691L71.11639 424.0101L71.11639 424.0101L73.8044 421.3211L73.8044 421.3211L304.4794 421.3211C 305.3754 422.2171 306.2714 423.1131 307.1674 424.0091L307.1674 424.0091L307.1674 732.3691C 306.2714 733.2651 305.3754 734.1611 304.4794 735.0571L304.4794 735.0571L73.8044 735.0571z" stroke="#000000" stroke-width="0.5" fill="none" stroke-opacity="0.4980392" /></g></g></g><path id="1138" transform="matrix(1 0 0 -1 0 792)" d="M73.701 412.92L70.866 410.085L70.866 91.10202L73.701 88.267L304.583 88.267L307.418 91.10202L307.418 410.085L304.583 412.92z" stroke="none" fill="#EAEBEC" fill-rule="nonzero" /><path id="1139" transform="matrix(1 0 0 -1 0 792)" d="M77.035 316.027L301.248 316.027L301.248 341.531L77.035 341.531z" stroke="none" fill="#FFFEFE" fill-rule="nonzero" /><path id="1140" transform="matrix(1 0 0 -1 0 792)" d="M77.0355 341.5306L301.2485 341.5306" stroke="#939597" stroke-width="0.5" fill="none" /><path id="1141" transform="matrix(1 0 0 -1 0 792)" d="M77.035 301.357L301.248 301.357L301.248 320.696L77.035 320.696z" stroke="none" fill="#FFFEFE" fill-rule="nonzero" /><path id="1142" transform="matrix(1 0 0 -1 0 792)" d="M78.0546 316.444L300.7386 316.444" stroke="#BBBDC0" stroke-width="0.51" stroke-linecap="round" stroke-dasharray="0.51,0.51" fill="none" /><path id="1143" transform="matrix(1 0 0 -1 0 792)" d="M301.2485 316.444L301.2485 316.444M77.0355 316.444L77.0355 316.444" stroke="#BBBDC0" stroke-width="0.51" stroke-linecap="round" fill="none" /><path id="1144" transform="matrix(1 0 0 -1 0 792)" d="M77.0355 301.1271L300.6965 301.1271" stroke="#939597" stroke-width="0.5" fill="none" /><g clip-path="url(#4)"><g><g clip-path="url(#5)"><path id="2263" transform="matrix(1 0 0 -1 0 792)" d="M73.8044 412.67C 72.90839 411.774 72.0124 410.877 71.11639 409.982L71.11639 409.982L71.11639 91.20502C 72.0124 90.30902 72.90839 89.41302 73.8044 88.517L73.8044 88.517L304.4794 88.517C 305.3754 89.41302 306.2714 90.30902 307.1674 91.20502L307.1674 91.20502L307.1674 409.982C 306.2714 410.878 305.3754 411.774 304.4794 412.67L304.4794 412.67L73.8044 412.67z" stroke="#000000" stroke-width="0.5" fill="none" stroke-opacity="0.4980392" /></g></g></g><path id="2264" transform="matrix(1 0 0 -1 0 792)" d="M321.921 735.3072L319.087 732.4722L319.087 486.9932L321.921 484.1582L552.803 484.1582L555.637 486.9932L555.637 732.4722L552.803 735.3072z" stroke="none" fill="#EAEBEC" fill-rule="nonzero" /><path id="2265" transform="matrix(1 0 0 -1 0 792)" d="M325.256 656.414L549.469 656.414L549.469 681.918L325.256 681.918z" stroke="none" fill="#FFFEFE" fill-rule="nonzero" /><path id="2266" transform="matrix(1 0 0 -1 0 792)" d="M325.256 681.9178L549.469 681.9178" stroke="#939597" stroke-width="0.5" fill="none" /><path id="2267" transform="matrix(1 0 0 -1 0 792)" d="M325.256 656.1836L548.917 656.1836" stroke="#939597" stroke-width="0.5" fill="none" /><g clip-path="url(#6)"><g><g clip-path="url(#7)"><path id="3178" transform="matrix(1 0 0 -1 0 792)" d="M322.0249 735.0571C 321.1289 734.1611 320.2329 733.2651 319.3369 732.3691L319.3369 732.3691L319.3369 487.0961L319.3369 487.0961L322.0249 484.4081L322.0249 484.4081L552.6999 484.4081C 553.5959 485.3041 554.4919 486.2001 555.3879 487.0961L555.3879 487.0961L555.3879 732.3691C 554.4919 733.2651 553.5959 734.1611 552.6999 735.0571L552.6999 735.0571L322.0249 735.0571z" stroke="#000000" stroke-width="0.5" fill="none" stroke-opacity="0.4980392" /></g></g></g><path id="3179" transform="matrix(1 0 0 -1 0 792)" d="M321.921 474.4827L319.087 471.6477L319.087 314.5027L321.921 311.6687L552.803 311.6687L555.637 314.5027L555.637 471.6477L552.803 474.4827z" stroke="none" fill="#EAEBEC" fill-rule="nonzero" /><path id="3180" transform="matrix(1 0 0 -1 0 792)" d="M325.256 395.589L549.469 395.589L549.469 421.093L325.256 421.093z" stroke="none" fill="#FFFEFE" fill-rule="nonzero" /><path id="3181" transform="matrix(1 0 0 -1 0 792)" d="M325.256 421.0931L549.469 421.0931" stroke="#939597" stroke-width="0.5" fill="none" /><path id="3182" transform="matrix(1 0 0 -1 0 792)" d="M325.256 395.3589L548.917 395.3589" stroke="#939597" stroke-width="0.5" fill="none" /><g clip-path="url(#8)"><g><g clip-path="url(#9)"><path id="3659" transform="matrix(1 0 0 -1 0 792)" d="M322.0249 474.2325L319.3369 471.5445L319.3369 471.5445L319.3369 314.6065C 320.2329 313.7105 321.1289 312.8145 322.0249 311.9185L322.0249 311.9185L552.6999 311.9185C 553.5959 312.8145 554.4919 313.7105 555.3879 314.6065L555.3879 314.6065L555.3879 471.5445C 554.4919 472.4405 553.5959 473.3365 552.6999 474.2325L552.6999 474.2325L322.0249 474.2325z" stroke="#000000" stroke-width="0.5" fill="none" stroke-opacity="0.4980392" /></g></g></g><path id="3660" transform="matrix(1 0 0 -1 0 792)" d="M321.921 301.3623L319.087 298.5283L319.087 122.3833L321.921 119.5483L552.803 119.5483L555.637 122.3833L555.637 298.5283L552.803 301.3623z" stroke="none" fill="#EAEBEC" fill-rule="nonzero" /><path id="3661" transform="matrix(1 0 0 -1 0 792)" d="M325.256 222.469L549.469 222.469L549.469 247.973L325.256 247.973z" stroke="none" fill="#FFFEFE" fill-rule="nonzero" /><path id="3662" transform="matrix(1 0 0 -1 0 792)" d="M325.256 247.9734L549.469 247.9734" stroke="#939597" stroke-width="0.5" fill="none" /><path id="3663" transform="matrix(1 0 0 -1 0 792)" d="M325.256 222.2392L548.917 222.2392" stroke="#939597" stroke-width="0.5" fill="none" /><g clip-path="url(#10)"><g><g clip-path="url(#11)"><path id="4264" transform="matrix(1 0 0 -1 0 792)" d="M322.0249 301.1127C 321.1289 300.2167 320.2329 299.3207 319.3369 298.4247L319.3369 298.4247L319.3369 122.4867C 320.2329 121.5907 321.1289 120.6947 322.0249 119.7987L322.0249 119.7987L552.6999 119.7987C 553.5959 120.6947 554.4919 121.5907 555.3879 122.4867L555.3879 122.4867L555.3879 298.4247C 554.4919 299.3207 553.5959 300.2167 552.6999 301.1127L552.6999 301.1127L322.0249 301.1127z" stroke="#000000" stroke-width="0.5" fill="none" stroke-opacity="0.4980392" /></g></g></g><g clip-path="url(#12)"><path id="4281" transform="matrix(1 0 0 -1 0 792)" d="M555.6614 32.702L555.6614 -12.691" stroke="#000000" stroke-width="0.75" stroke-linecap="round" stroke-dasharray="0.75,1.464" fill="none" /><path id="4282" transform="matrix(1 0 0 -1 0 792)" d="M555.6614 -13.7986L555.6614 -13.7986M555.6614 34.9164L555.6614 34.9164" stroke="#000000" stroke-width="0.75" stroke-linecap="round" fill="none" /></g></g></g></svg>