<svg xmlns="http://www.w3.org/2000/svg" xmlns:xlink="http://www.w3.org/1999/xlink" id="body_47" preserveAspectRatio="xMinYMin meet" viewBox="0 0 816 1056"><defs><clipPath id="1"><path id="" clip-rule="evenodd" transform="matrix(1 0 0 1 0 0)" d="M0 792L0 0L0 0L612 0L612 0L612 792L612 792L0 792z" /></clipPath><clipPath id="2"><path id="" clip-rule="evenodd" transform="matrix(1 0 0 1 0 0)" d="M0 0L612 0L612 0L612 792L612 792L0 792z" /></clipPath></defs><g transform="matrix(1.333333 0 0 1.333333 0 0)"><g clip-path="url(#1)"><path id="1" transform="matrix(1 0 0 -1 0 792)" d="M71.5748 685.0266L71.5748 694.0266" stroke="#808284" stroke-width="2" fill="none" /><path id="67" transform="matrix(1 0 0 -1 0 792)" d="M381.071 241.197L563.15 241.197L563.15 218.197L381.071 218.197zM314.268 241.197L381.071 241.197L381.071 218.197L314.268 218.197zM250.677 241.197L314.268 241.197L314.268 218.197L250.677 218.197zM197.764 241.197L250.677 241.197L250.677 218.197L197.764 218.197zM138.898 241.197L197.764 241.197L197.764 218.197L138.898 218.197zM70.866 241.197L138.897 241.197L138.897 218.197L70.866 218.197zM381.071 287.197L563.15 287.197L563.15 264.197L381.071 264.197zM314.268 287.197L381.071 287.197L381.071 264.197L314.268 264.197zM250.677 287.197L314.268 287.197L314.268 264.197L250.677 264.197zM197.764 287.197L250.677 287.197L250.677 264.197L197.764 264.197zM138.898 287.197L197.764 287.197L197.764 264.197L138.898 264.197zM70.866 287.197L138.897 287.197L138.897 264.197L70.866 264.197zM381.071 351.197L563.15 351.197L563.15 310.197L381.071 310.197zM314.268 351.197L381.071 351.197L381.071 310.197L314.268 310.197zM250.677 351.197L314.268 351.197L314.268 310.197L250.677 310.197zM197.764 351.197L250.677 351.197L250.677 310.197L197.764 310.197zM138.898 351.197L197.764 351.197L197.764 310.197L138.898 310.197zM70.866 351.197L138.897 351.197L138.897 310.197L70.866 310.197zM381.071 397.197L563.15 397.197L563.15 374.197L381.071 374.197zM314.268 397.197L381.071 397.197L381.071 374.197L314.268 374.197zM250.677 397.197L314.268 397.197L314.268 374.197L250.677 374.197zM197.764 397.197L250.677 397.197L250.677 374.197L197.764 374.197zM138.898 397.197L197.764 397.197L197.764 374.197L138.898 374.197zM70.866 397.197L138.897 397.197L138.897 374.197L70.866 374.197zM381.071 443.197L563.15 443.197L563.15 420.197L381.071 420.197zM314.268 443.197L381.071 443.197L381.071 420.197L314.268 420.197zM250.677 443.197L314.268 443.197L314.268 420.197L250.677 420.197zM197.764 443.197L250.677 443.197L250.677 420.197L197.764 420.197zM138.898 443.197L197.764 443.197L197.764 420.197L138.898 420.197zM70.866 443.197L138.897 443.197L138.897 420.197L70.866 420.197zM381.071 490.029L563.15 490.029L563.15 467.029L381.071 467.029zM314.268 490.029L381.071 490.029L381.071 467.029L314.268 467.029zM250.677 490.029L314.268 490.029L314.268 467.029L250.677 467.029zM197.764 490.029L250.677 490.029L250.677 467.029L197.764 467.029zM138.898 490.029L197.764 490.029L197.764 467.029L138.898 467.029zM70.866 490.029L138.897 490.029L138.897 467.029L70.866 467.029zM381.071 536.029L563.15 536.029L563.15 513.029L381.071 513.029zM314.268 536.029L381.071 536.029L381.071 513.029L314.268 513.029zM250.677 536.029L314.268 536.029L314.268 513.029L250.677 513.029zM197.764 536.029L250.677 536.029L250.677 513.029L197.764 513.029zM138.898 536.029L197.764 536.029L197.764 513.029L138.898 513.029zM70.866 536.029L138.897 536.029L138.897 513.029L70.866 513.029zM381.071 591.029L563.15 591.029L563.15 568.029L381.071 568.029zM314.268 591.029L381.071 591.029L381.071 568.029L314.268 568.029zM250.677 591.029L314.268 591.029L314.268 568.029L250.677 568.029zM197.764 591.029L250.677 591.029L250.677 568.029L197.764 568.029zM138.898 591.029L197.764 591.029L197.764 568.029L138.898 568.029zM70.866 591.029L138.897 591.029L138.897 568.029L70.866 568.029zM381.071 637.029L563.15 637.029L563.15 614.029L381.071 614.029zM314.268 637.029L381.071 637.029L381.071 614.029L314.268 614.029zM250.677 637.029L314.268 637.029L314.268 614.029L250.677 614.029zM197.764 637.029L250.677 637.029L250.677 614.029L197.764 614.029zM138.898 637.029L197.764 637.029L197.764 614.029L138.898 614.029zM70.866 637.029L138.897 637.029L138.897 614.029L70.866 614.029z" stroke="none" fill="#E6E7E8" fill-rule="nonzero" /><path id="68" transform="matrix(1 0 0 -1 0 792)" d="M70.8661 660.0288L138.8971 660.0288" stroke="#000000" stroke-width="1" fill="none" /><path id="69" transform="matrix(1 0 0 -1 0 792)" d="M138.8976 660.0288L197.7636 660.0288" stroke="#000000" stroke-width="1" fill="none" /><path id="70" transform="matrix(1 0 0 -1 0 792)" d="M197.7638 660.0288L250.6768 660.0288" stroke="#000000" stroke-width="1" fill="none" /><path id="71" transform="matrix(1 0 0 -1 0 792)" d="M250.6772 660.0288L314.2682 660.0288" stroke="#000000" stroke-width="1" fill="none" /><path id="72" transform="matrix(1 0 0 -1 0 792)" d="M314.2677 660.0288L381.0707 660.0288" stroke="#000000" stroke-width="1" fill="none" /><path id="73" transform="matrix(1 0 0 -1 0 792)" d="M381.0709 660.0288L563.1499 660.0288" stroke="#000000" stroke-width="1" fill="none" /><g clip-path="url(#2)"><path id="1882" transform="matrix(1 0 0 -1 0 792)" d="M555.6614 32.702L555.6614 -12.691" stroke="#000000" stroke-width="0.75" stroke-linecap="round" stroke-dasharray="0.75,1.464" fill="none" /><path id="1883" transform="matrix(1 0 0 -1 0 792)" d="M555.6614 -13.7986L555.6614 -13.7986M555.6614 34.9164L555.6614 34.9164" stroke="#000000" stroke-width="0.75" stroke-linecap="round" fill="none" /></g></g></g></svg>