<svg xmlns="http://www.w3.org/2000/svg" xmlns:xlink="http://www.w3.org/1999/xlink" id="body_50" preserveAspectRatio="xMinYMin meet" viewBox="0 0 816 1056"><defs><clipPath id="1"><path id="" clip-rule="evenodd" transform="matrix(1 0 0 1 0 0)" d="M0 792L0 0L0 0L612 0L612 0L612 792L612 792L0 792z" /></clipPath><clipPath id="2"><path id="" clip-rule="evenodd" transform="matrix(1 0 0 1 0 0)" d="M0 0L612 0L612 0L612 792L612 792L0 792z" /></clipPath></defs><g transform="matrix(1.333333 0 0 1.333333 0 0)"><g clip-path="url(#1)"><path id="1" transform="matrix(1 0 0 -1 0 792)" d="M57.4016 682.6146L57.4016 691.6146" stroke="#808284" stroke-width="2" fill="none" /><path id="68" transform="matrix(1 0 0 -1 0 792)" d="M365.669 239.387L541.417 239.387L541.417 205.387L365.669 205.387zM302.315 239.387L365.669 239.387L365.669 205.387L302.315 205.387zM233.575 239.387L302.315 239.387L302.315 205.387L233.575 205.387zM181.417 239.387L233.574 239.387L233.574 205.387L181.417 205.387zM125.15 239.387L181.418 239.387L181.418 205.387L125.15 205.387zM56.693 239.387L125.15 239.387L125.15 205.387L56.693 205.387zM365.669 277.787L541.417 277.787L541.417 263.387L365.669 263.387zM302.315 277.787L365.669 277.787L365.669 263.387L302.315 263.387zM233.575 277.787L302.315 277.787L302.315 263.387L233.575 263.387zM181.417 277.787L233.574 277.787L233.574 263.387L181.417 263.387zM125.15 277.787L181.418 277.787L181.418 263.387L125.15 263.387zM56.693 277.787L125.15 277.787L125.15 263.387L56.693 263.387zM365.669 335.787L541.417 335.787L541.417 301.787L365.669 301.787zM302.315 335.787L365.669 335.787L365.669 301.787L302.315 301.787zM233.575 335.787L302.315 335.787L302.315 301.787L233.575 301.787zM181.417 335.787L233.574 335.787L233.574 301.787L181.417 301.787zM125.15 335.787L181.418 335.787L181.418 301.787L125.15 301.787zM56.693 335.787L125.15 335.787L125.15 301.787L56.693 301.787zM365.669 383.787L541.417 383.787L541.417 359.787L365.669 359.787zM302.315 383.787L365.669 383.787L365.669 359.787L302.315 359.787zM233.575 383.787L302.315 383.787L302.315 359.787L233.575 359.787zM181.417 383.787L233.574 383.787L233.574 359.787L181.417 359.787zM125.15 383.787L181.418 383.787L181.418 359.787L125.15 359.787zM56.693 383.787L125.15 383.787L125.15 359.787L56.693 359.787zM365.669 441.787L541.417 441.787L541.417 407.787L365.669 407.787zM302.315 441.787L365.669 441.787L365.669 407.787L302.315 407.787zM233.575 441.787L302.315 441.787L302.315 407.787L233.575 407.787zM181.417 441.787L233.574 441.787L233.574 407.787L181.417 407.787zM125.15 441.787L181.418 441.787L181.418 407.787L125.15 407.787zM56.693 441.787L125.15 441.787L125.15 407.787L56.693 407.787zM365.669 480.187L541.417 480.187L541.417 456.187L365.669 456.187zM302.315 480.187L365.669 480.187L365.669 456.187L302.315 456.187zM233.575 480.187L302.315 480.187L302.315 456.187L233.575 456.187zM181.417 480.187L233.574 480.187L233.574 456.187L181.417 456.187zM125.15 480.187L181.418 480.187L181.418 456.187L125.15 456.187zM56.693 480.187L125.15 480.187L125.15 456.187L56.693 456.187zM365.669 528.187L541.417 528.187L541.417 504.187L365.669 504.187zM302.315 528.187L365.669 528.187L365.669 504.187L302.315 504.187zM233.575 528.187L302.315 528.187L302.315 504.187L233.575 504.187zM181.417 528.187L233.574 528.187L233.574 504.187L181.417 504.187zM125.15 528.187L181.418 528.187L181.418 504.187L125.15 504.187zM56.693 528.187L125.15 528.187L125.15 504.187L56.693 504.187zM365.669 586.187L541.417 586.187L541.417 562.187L365.669 562.187zM302.315 586.187L365.669 586.187L365.669 562.187L302.315 562.187zM233.575 586.187L302.315 586.187L302.315 562.187L233.575 562.187zM181.417 586.187L233.574 586.187L233.574 562.187L181.417 562.187zM125.15 586.187L181.418 586.187L181.418 562.187L125.15 562.187zM56.693 586.187L125.15 586.187L125.15 562.187L56.693 562.187zM365.669 634.187L541.417 634.187L541.417 610.187L365.669 610.187zM302.315 634.187L365.669 634.187L365.669 610.187L302.315 610.187zM233.575 634.187L302.315 634.187L302.315 610.187L233.575 610.187zM181.417 634.187L233.574 634.187L233.574 610.187L181.417 610.187zM125.15 634.187L181.418 634.187L181.418 610.187L125.15 610.187zM56.693 634.187L125.15 634.187L125.15 610.187L56.693 610.187z" stroke="none" fill="#ECEDEE" fill-rule="nonzero" /><path id="69" transform="matrix(1 0 0 -1 0 792)" d="M56.6929 658.1874L125.1499 658.1874" stroke="#000000" stroke-width="1" fill="none" /><path id="70" transform="matrix(1 0 0 -1 0 792)" d="M125.1496 658.1874L181.4176 658.1874" stroke="#000000" stroke-width="1" fill="none" /><path id="71" transform="matrix(1 0 0 -1 0 792)" d="M181.4173 658.1874L233.5743 658.1874" stroke="#000000" stroke-width="1" fill="none" /><path id="72" transform="matrix(1 0 0 -1 0 792)" d="M233.5748 658.1874L302.3148 658.1874" stroke="#000000" stroke-width="1" fill="none" /><path id="73" transform="matrix(1 0 0 -1 0 792)" d="M302.3149 658.1874L365.6689 658.1874" stroke="#000000" stroke-width="1" fill="none" /><path id="74" transform="matrix(1 0 0 -1 0 792)" d="M365.6693 658.1874L541.4173 658.1874" stroke="#000000" stroke-width="1" fill="none" /><g clip-path="url(#2)"><path id="1865" transform="matrix(1 0 0 -1 0 792)" d="M56.9448 32.702L56.9448 -12.691" stroke="#000000" stroke-width="0.75" stroke-linecap="round" stroke-dasharray="0.75,1.464" fill="none" /><path id="1866" transform="matrix(1 0 0 -1 0 792)" d="M56.9448 -13.7986L56.9448 -13.7986M56.9448 34.9164L56.9448 34.9164" stroke="#000000" stroke-width="0.75" stroke-linecap="round" fill="none" /></g></g></g></svg>