<svg xmlns="http://www.w3.org/2000/svg" xmlns:xlink="http://www.w3.org/1999/xlink" id="body_62" preserveAspectRatio="xMinYMin meet" viewBox="0 0 816 1056"><defs><clipPath id="1"><path id="" clip-rule="evenodd" transform="matrix(1 0 0 1 0 0)" d="M0 792L0 0L0 0L612 0L612 0L612 792L612 792L0 792z" /></clipPath><clipPath id="2"><path id="" clip-rule="evenodd" transform="matrix(1 0 0 1 0 0)" d="M0 0L612 0L612 0L612 792L612 792L0 792z" /></clipPath></defs><g transform="matrix(1.333333 0 0 1.333333 0 0)"><g clip-path="url(#1)"><path id="1" transform="matrix(1 0 0 -1 0 792)" d="M157.039 306.798L293.102 306.798L293.102 262.798L157.039 262.798zM91.843 306.798L157.04 306.798L157.04 262.798L91.843 262.798zM56.693 306.798L91.843 306.798L91.843 262.798L56.693 262.798zM157.039 394.798L293.102 394.798L293.102 340.798L157.039 340.798zM91.843 394.798L157.04 394.798L157.04 340.798L91.843 340.798zM56.693 394.798L91.843 394.798L91.843 340.798L56.693 340.798zM157.039 462.798L293.102 462.798L293.102 438.798L157.039 438.798zM91.843 462.798L157.04 462.798L157.04 438.798L91.843 438.798zM56.693 462.798L91.843 462.798L91.843 438.798L56.693 438.798zM157.039 580.798L293.102 580.798L293.102 516.798L157.039 516.798zM91.843 580.798L157.04 580.798L157.04 516.798L91.843 516.798zM56.693 580.798L91.843 580.798L91.843 516.798L56.693 516.798zM157.039 658.798L293.102 658.798L293.102 634.798L157.039 634.798zM91.843 658.798L157.04 658.798L157.04 634.798L91.843 634.798zM56.693 658.798L91.843 658.798L91.843 634.798L56.693 634.798zM157.039 717.298L293.102 717.298L293.102 682.798L157.039 682.798zM91.843 717.298L157.04 717.298L157.04 682.798L91.843 682.798zM56.693 717.298L91.843 717.298L91.843 682.798L56.693 682.798z" stroke="none" fill="#E6E7E8" fill-rule="nonzero" /><path id="2" transform="matrix(1 0 0 -1 0 792)" d="M56.6929 717.2983L91.8429 717.2983" stroke="#000000" stroke-width="1" fill="none" /><path id="3" transform="matrix(1 0 0 -1 0 792)" d="M91.8425 717.2983L157.0395 717.2983" stroke="#000000" stroke-width="1" fill="none" /><path id="4" transform="matrix(1 0 0 -1 0 792)" d="M157.0394 717.2983L293.1024 717.2983" stroke="#000000" stroke-width="1" fill="none" /><path id="1296" transform="matrix(1 0 0 -1 0 792)" d="M304.913 496.913L541.133 496.913L541.133 561.59L304.913 561.59z" stroke="none" fill="#F0F1F1" fill-rule="nonzero" /><path id="1297" transform="matrix(1 0 0 -1 0 792)" d="M541.1339 496.9129L304.9139 496.9129" stroke="#6D6E70" stroke-width="1" fill="none" /><path id="1298" transform="matrix(1 0 0 -1 0 792)" d="M304.9134 561.5901L541.1334 561.5901" stroke="#6D6E70" stroke-width="1" fill="none" /><g clip-path="url(#2)"><path id="2036" transform="matrix(1 0 0 -1 0 792)" d="M56.9448 32.702L56.9448 -12.691" stroke="#000000" stroke-width="0.75" stroke-linecap="round" stroke-dasharray="0.75,1.464" fill="none" /><path id="2037" transform="matrix(1 0 0 -1 0 792)" d="M56.9448 -13.7986L56.9448 -13.7986M56.9448 34.9164L56.9448 34.9164" stroke="#000000" stroke-width="0.75" stroke-linecap="round" fill="none" /></g></g></g></svg>