<svg xmlns="http://www.w3.org/2000/svg" xmlns:xlink="http://www.w3.org/1999/xlink" id="body_86" preserveAspectRatio="xMinYMin meet" viewBox="0 0 816 1056"><defs><clipPath id="1"><path id="" clip-rule="evenodd" transform="matrix(1 0 0 1 0 0)" d="M0 792L0 0L0 0L612 0L612 0L612 792L612 792L0 792z" /></clipPath><clipPath id="2"><path id="" clip-rule="evenodd" transform="matrix(1 0 0 1 0 0)" d="M56.693 292.093L293.244 292.093L293.244 292.093L293.244 56.69299L293.244 56.69299L56.693 56.69299z" /></clipPath><clipPath id="3"><path id="" clip-rule="evenodd" transform="matrix(1 0 0 1 0 0)" d="M47.693 48.69299L302.244 48.69299L302.244 48.69299L302.244 294.802L302.244 294.802L47.693 294.802z" /></clipPath><clipPath id="4"><path id="" clip-rule="evenodd" transform="matrix(1 0 0 1 0 0)" d="M56.693 550.904L293.244 550.904L293.244 550.904L293.244 304.29L293.244 304.29L56.693 304.29z" /></clipPath><clipPath id="5"><path id="" clip-rule="evenodd" transform="matrix(1 0 0 1 0 0)" d="M47.693 297.355L302.244 297.355L302.244 297.355L302.244 552.965L302.244 552.965L47.693 552.965z" /></clipPath><clipPath id="6"><path id="" clip-rule="evenodd" transform="matrix(1 0 0 1 0 0)" d="M304.914 326.842L541.465 326.842L541.465 326.842L541.465 56.69299L541.465 56.69299L304.914 56.69299z" /></clipPath><clipPath id="7"><path id="" clip-rule="evenodd" transform="matrix(1 0 0 1 0 0)" d="M295.913 48.69299L550.465 48.69299L550.465 48.69299L550.465 320.05L550.465 320.05L295.913 320.05z" /></clipPath><clipPath id="8"><path id="" clip-rule="evenodd" transform="matrix(1 0 0 1 0 0)" d="M304.914 508.702L541.465 508.702L541.465 508.702L541.465 326.888L541.465 326.888L304.914 326.888z" /></clipPath><clipPath id="9"><path id="" clip-rule="evenodd" transform="matrix(1 0 0 1 0 0)" d="M295.913 318.887L550.465 318.887L550.465 318.887L550.465 511.41L550.465 511.41L295.913 511.41z" /></clipPath><clipPath id="10"><path id="" clip-rule="evenodd" transform="matrix(1 0 0 1 0 0)" d="M0 0L612 0L612 0L612 792L612 792L0 792z" /></clipPath></defs><g transform="matrix(1.333333 0 0 1.333333 0 0)"><g clip-path="url(#1)"><path id="1" transform="matrix(1 0 0 -1 0 792)" d="M59.5278 735.3072L56.6928 732.4722L56.6928 502.7412L59.5268 499.9072L290.4098 499.9072L293.2438 502.7412L293.2438 732.4722L290.4098 735.3072z" stroke="none" fill="#EAEBEC" fill-rule="nonzero" /><path id="2" transform="matrix(1 0 0 -1 0 792)" d="M62.862 647.414L287.075 647.414L287.075 672.918L62.862 672.918z" stroke="none" fill="#FFFEFE" fill-rule="nonzero" /><path id="3" transform="matrix(1 0 0 -1 0 792)" d="M62.8623 672.9178L287.0753 672.9178" stroke="#939597" stroke-width="0.5" fill="none" /><path id="4" transform="matrix(1 0 0 -1 0 792)" d="M62.862 632.745L287.075 632.745L287.075 652.084L62.862 652.084z" stroke="none" fill="#FFFEFE" fill-rule="nonzero" /><path id="5" transform="matrix(1 0 0 -1 0 792)" d="M63.8814 647.8312L286.5654 647.8312" stroke="#BBBDC0" stroke-width="0.51" stroke-linecap="round" stroke-dasharray="0.51,0.51" fill="none" /><path id="6" transform="matrix(1 0 0 -1 0 792)" d="M287.0753 647.8312L287.0753 647.8312M62.8623 647.8312L62.8623 647.8312" stroke="#BBBDC0" stroke-width="0.51" stroke-linecap="round" fill="none" /><path id="7" transform="matrix(1 0 0 -1 0 792)" d="M62.8623 632.5143L286.5233 632.5143" stroke="#939597" stroke-width="0.5" fill="none" /><g clip-path="url(#2)"><g><g clip-path="url(#3)"><path id="744" transform="matrix(1 0 0 -1 0 792)" d="M59.6311 735.0571C 58.7351 734.1611 57.8391 733.2651 56.9431 732.3691L56.9431 732.3691L56.9431 502.8441C 57.8391 501.9481 58.7351 501.0521 59.6311 500.1561L59.6311 500.1561L290.3061 500.1561C 291.2021 501.0521 292.0981 501.9481 292.9941 502.8441L292.9941 502.8441L292.9941 732.3691C 292.0981 733.2651 291.2021 734.1611 290.3061 735.0571L290.3061 735.0571L59.6311 735.0571z" stroke="#000000" stroke-width="0.5" fill="none" stroke-opacity="0.4980392" /></g></g></g><path id="745" transform="matrix(1 0 0 -1 0 792)" d="M59.5278 486.6444L56.6928 483.8104L56.6928 244.5774L59.5278 241.7434L290.4098 241.7434L293.2438 244.5774L293.2438 483.8104L290.4098 486.6444z" stroke="none" fill="#EAEBEC" fill-rule="nonzero" /><path id="746" transform="matrix(1 0 0 -1 0 792)" d="M62.862 398.751L287.075 398.751L287.075 424.255L62.862 424.255z" stroke="none" fill="#FFFEFE" fill-rule="nonzero" /><path id="747" transform="matrix(1 0 0 -1 0 792)" d="M62.8623 424.2552L287.0753 424.2552" stroke="#939597" stroke-width="0.5" fill="none" /><path id="748" transform="matrix(1 0 0 -1 0 792)" d="M62.862 384.082L287.075 384.082L287.075 403.421L62.862 403.421z" stroke="none" fill="#FFFEFE" fill-rule="nonzero" /><path id="749" transform="matrix(1 0 0 -1 0 792)" d="M63.8814 399.1686L286.5654 399.1686" stroke="#BBBDC0" stroke-width="0.51" stroke-linecap="round" stroke-dasharray="0.51,0.51" fill="none" /><path id="750" transform="matrix(1 0 0 -1 0 792)" d="M287.0753 399.1686L287.0753 399.1686M62.8623 399.1686L62.8623 399.1686" stroke="#BBBDC0" stroke-width="0.51" stroke-linecap="round" fill="none" /><path id="751" transform="matrix(1 0 0 -1 0 792)" d="M62.8623 383.8517L286.5233 383.8517" stroke="#939597" stroke-width="0.5" fill="none" /><g clip-path="url(#4)"><g><g clip-path="url(#5)"><path id="1547" transform="matrix(1 0 0 -1 0 792)" d="M59.6312 486.3945C 58.7352 485.4985 57.8392 484.6025 56.9432 483.7065L56.9432 483.7065L56.9432 244.6815L56.9432 244.6815L59.6312 241.9935L59.6312 241.9935L290.3062 241.9935C 291.2022 242.8895 292.0982 243.7855 292.9942 244.6815L292.9942 244.6815L292.9942 483.7065C 292.0982 484.6025 291.2022 485.4985 290.3062 486.3945L290.3062 486.3945L59.6312 486.3945z" stroke="#000000" stroke-width="0.5" fill="none" stroke-opacity="0.4980392" /></g></g></g><path id="1548" transform="matrix(1 0 0 -1 0 792)" d="M307.7478 735.3072L304.9138 732.4722L304.9138 477.4922L307.7478 474.6582L538.6298 474.6582L541.4638 477.4922L541.4638 732.4722L538.6298 735.3072z" stroke="none" fill="#EAEBEC" fill-rule="nonzero" /><path id="1549" transform="matrix(1 0 0 -1 0 792)" d="M311.083 656.414L535.296 656.414L535.296 681.918L311.083 681.918z" stroke="none" fill="#FFFEFE" fill-rule="nonzero" /><path id="1550" transform="matrix(1 0 0 -1 0 792)" d="M311.0827 681.9178L535.2957 681.9178" stroke="#939597" stroke-width="0.5" fill="none" /><path id="1551" transform="matrix(1 0 0 -1 0 792)" d="M311.0827 656.1836L534.7437 656.1836" stroke="#939597" stroke-width="0.5" fill="none" /><g clip-path="url(#6)"><g><g clip-path="url(#7)"><path id="2503" transform="matrix(1 0 0 -1 0 792)" d="M307.8517 735.0571C 306.9557 734.1611 306.0597 733.2651 305.1637 732.3691L305.1637 732.3691L305.1637 477.5961L305.1637 477.5961L307.8517 474.9081L307.8517 474.9081L538.5267 474.9081C 539.4227 475.8041 540.3187 476.7001 541.2147 477.5961L541.2147 477.5961L541.2147 732.3691L541.2147 732.3691L538.5267 735.0571L538.5267 735.0571L307.8517 735.0571z" stroke="#000000" stroke-width="0.5" fill="none" stroke-opacity="0.4980392" /></g></g></g><path id="2504" transform="matrix(1 0 0 -1 0 792)" d="M307.7478 465.1128L304.9138 462.2778L304.9138 286.1328L307.7478 283.2988L538.6298 283.2988L541.4638 286.1328L541.4638 462.2778L538.6298 465.1128z" stroke="none" fill="#EAEBEC" fill-rule="nonzero" /><path id="2505" transform="matrix(1 0 0 -1 0 792)" d="M311.083 386.219L535.296 386.219L535.296 411.723L311.083 411.723z" stroke="none" fill="#FFFEFE" fill-rule="nonzero" /><path id="2506" transform="matrix(1 0 0 -1 0 792)" d="M311.0827 411.7234L535.2957 411.7234" stroke="#939597" stroke-width="0.5" fill="none" /><path id="2507" transform="matrix(1 0 0 -1 0 792)" d="M311.0827 385.9891L534.7437 385.9891" stroke="#939597" stroke-width="0.5" fill="none" /><g clip-path="url(#8)"><g><g clip-path="url(#9)"><path id="3077" transform="matrix(1 0 0 -1 0 792)" d="M307.8517 464.8627L305.1637 462.1747L305.1637 462.1747L305.1637 286.2367C 306.0597 285.3407 306.9557 284.4447 307.8517 283.5487L307.8517 283.5487L538.5267 283.5487C 539.4227 284.4447 540.3187 285.3407 541.2147 286.2367L541.2147 286.2367L541.2147 462.1747C 540.3187 463.0707 539.4227 463.9667 538.5267 464.8627L538.5267 464.8627L307.8517 464.8627z" stroke="#000000" stroke-width="0.5" fill="none" stroke-opacity="0.4980392" /></g></g></g><g clip-path="url(#10)"><path id="3094" transform="matrix(1 0 0 -1 0 792)" d="M56.9448 32.702L56.9448 -12.691" stroke="#000000" stroke-width="0.75" stroke-linecap="round" stroke-dasharray="0.75,1.464" fill="none" /><path id="3095" transform="matrix(1 0 0 -1 0 792)" d="M56.9448 -13.7986L56.9448 -13.7986M56.9448 34.9164L56.9448 34.9164" stroke="#000000" stroke-width="0.75" stroke-linecap="round" fill="none" /></g></g></g></svg>