<svg xmlns="http://www.w3.org/2000/svg" xmlns:xlink="http://www.w3.org/1999/xlink" id="body_25" preserveAspectRatio="xMinYMin meet" viewBox="0 0 816 1056"><defs><clipPath id="1"><path id="" clip-rule="evenodd" transform="matrix(1 0 0 1 0 0)" d="M0 792L0 0L0 0L612 0L612 0L612 792L612 792L0 792z" /></clipPath><clipPath id="2"><path id="" clip-rule="evenodd" transform="matrix(1 0 0 1 0 0)" d="M0 0L612 0L612 0L612 792L612 792L0 792z" /></clipPath></defs><g transform="matrix(1.333333 0 0 1.333333 0 0)"><g clip-path="url(#1)"><path id="1" transform="matrix(1 0 0 -1 0 792)" d="M70.866 719.682L307.086 719.682L307.086 738.142L70.866 738.142z" stroke="none" fill="#000000" fill-rule="nonzero" /><path id="2" transform="matrix(1 0 0 -1 0 792)" d="M73.3595 551.5247L305.5895 551.5247" stroke="#000000" stroke-width="1" stroke-linecap="round" stroke-dasharray="1,1" fill="none" /><path id="3" transform="matrix(1 0 0 -1 0 792)" d="M306.5861 551.5247L306.5861 551.5247M71.3661 551.5247L71.3661 551.5247" stroke="#000000" stroke-width="1" stroke-linecap="round" fill="none" /><path id="4" transform="matrix(1 0 0 -1 0 792)" d="M73.3595 445.8396L305.5895 445.8396" stroke="#000000" stroke-width="1" stroke-linecap="round" stroke-dasharray="1,1" fill="none" /><path id="5" transform="matrix(1 0 0 -1 0 792)" d="M306.5861 445.8396L306.5861 445.8396M71.3661 445.8396L71.3661 445.8396" stroke="#000000" stroke-width="1" stroke-linecap="round" fill="none" /><path id="6" transform="matrix(1 0 0 -1 0 792)" d="M75.1181 423.0857L75.1181 431.2507" stroke="#BBBDC0" stroke-width="8" fill="none" /><path id="7" transform="matrix(1 0 0 -1 0 792)" d="M75.1181 373.0778L75.1181 381.2428" stroke="#BBBDC0" stroke-width="8" fill="none" /><path id="1234" transform="matrix(1 0 0 -1 0 792)" d="M319.087 660.17L555.307 660.17L555.307 678.63L319.087 678.63z" stroke="none" fill="#EAEBEC" fill-rule="nonzero" /><path id="1235" transform="matrix(1 0 0 -1 0 792)" d="M323.3386 616.1408L323.3386 624.3058" stroke="#BBBDC0" stroke-width="8" fill="none" /><path id="1236" transform="matrix(1 0 0 -1 0 792)" d="M323.3386 577.1329L323.3386 585.2979" stroke="#BBBDC0" stroke-width="8" fill="none" /><path id="1237" transform="matrix(1 0 0 -1 0 792)" d="M323.3386 488.4558L323.3386 496.6208" stroke="#BBBDC0" stroke-width="8" fill="none" /><path id="1238" transform="matrix(1 0 0 -1 0 792)" d="M323.3386 410.7786L323.3386 418.9436" stroke="#BBBDC0" stroke-width="8" fill="none" /><path id="1239" transform="matrix(1 0 0 -1 0 792)" d="M319.087 307.328L555.307 307.328L555.307 325.788L319.087 325.788z" stroke="none" fill="#EAEBEC" fill-rule="nonzero" /><path id="1240" transform="matrix(1 0 0 -1 0 792)" d="M323.3386 263.2983L323.3386 271.4633" stroke="#BBBDC0" stroke-width="8" fill="none" /><path id="1241" transform="matrix(1 0 0 -1 0 792)" d="M323.3386 224.2904L323.3386 232.4554" stroke="#BBBDC0" stroke-width="8" fill="none" /><path id="1242" transform="matrix(1 0 0 -1 0 792)" d="M323.3386 135.6133L323.3386 143.7783" stroke="#BBBDC0" stroke-width="8" fill="none" /><g clip-path="url(#2)"><path id="2568" transform="matrix(1 0 0 -1 0 792)" d="M555.6614 32.702L555.6614 -12.691" stroke="#000000" stroke-width="0.75" stroke-linecap="round" stroke-dasharray="0.75,1.464" fill="none" /><path id="2569" transform="matrix(1 0 0 -1 0 792)" d="M555.6614 -13.7986L555.6614 -13.7986M555.6614 34.9164L555.6614 34.9164" stroke="#000000" stroke-width="0.75" stroke-linecap="round" fill="none" /></g></g></g></svg>