<svg xmlns="http://www.w3.org/2000/svg" xmlns:xlink="http://www.w3.org/1999/xlink" id="body_51" preserveAspectRatio="xMinYMin meet" viewBox="0 0 816 1056"><defs><clipPath id="1"><path id="" clip-rule="evenodd" transform="matrix(1 0 0 1 0 0)" d="M0 792L0 0L0 0L612 0L612 0L612 792L612 792L0 792z" /></clipPath><clipPath id="2"><path id="" clip-rule="evenodd" transform="matrix(1 0 0 1 0 0)" d="M0 0L612 0L612 0L612 792L612 792L0 792z" /></clipPath></defs><g transform="matrix(1.333333 0 0 1.333333 0 0)"><g clip-path="url(#1)"><path id="1" transform="matrix(1 0 0 -1 0 792)" d="M71.5748 682.6146L71.5748 691.6146" stroke="#808284" stroke-width="2" fill="none" /><path id="68" transform="matrix(1 0 0 -1 0 792)" d="M379.843 239.387L555.591 239.387L555.591 205.387L379.843 205.387zM316.488 239.387L379.842 239.387L379.842 205.387L316.488 205.387zM247.748 239.387L316.488 239.387L316.488 205.387L247.748 205.387zM195.591 239.387L247.748 239.387L247.748 205.387L195.591 205.387zM139.323 239.387L195.591 239.387L195.591 205.387L139.323 205.387zM70.866 239.387L139.323 239.387L139.323 205.387L70.866 205.387zM379.843 277.787L555.591 277.787L555.591 263.387L379.843 263.387zM316.488 277.787L379.842 277.787L379.842 263.387L316.488 263.387zM247.748 277.787L316.488 277.787L316.488 263.387L247.748 263.387zM195.591 277.787L247.748 277.787L247.748 263.387L195.591 263.387zM139.323 277.787L195.591 277.787L195.591 263.387L139.323 263.387zM70.866 277.787L139.323 277.787L139.323 263.387L70.866 263.387zM379.843 335.787L555.591 335.787L555.591 301.787L379.843 301.787zM316.488 335.787L379.842 335.787L379.842 301.787L316.488 301.787zM247.748 335.787L316.488 335.787L316.488 301.787L247.748 301.787zM195.591 335.787L247.748 335.787L247.748 301.787L195.591 301.787zM139.323 335.787L195.591 335.787L195.591 301.787L139.323 301.787zM70.866 335.787L139.323 335.787L139.323 301.787L70.866 301.787zM379.843 383.787L555.591 383.787L555.591 359.787L379.843 359.787zM316.488 383.787L379.842 383.787L379.842 359.787L316.488 359.787zM247.748 383.787L316.488 383.787L316.488 359.787L247.748 359.787zM195.591 383.787L247.748 383.787L247.748 359.787L195.591 359.787zM139.323 383.787L195.591 383.787L195.591 359.787L139.323 359.787zM70.866 383.787L139.323 383.787L139.323 359.787L70.866 359.787zM379.843 441.787L555.591 441.787L555.591 407.787L379.843 407.787zM316.488 441.787L379.842 441.787L379.842 407.787L316.488 407.787zM247.748 441.787L316.488 441.787L316.488 407.787L247.748 407.787zM195.591 441.787L247.748 441.787L247.748 407.787L195.591 407.787zM139.323 441.787L195.591 441.787L195.591 407.787L139.323 407.787zM70.866 441.787L139.323 441.787L139.323 407.787L70.866 407.787zM379.843 480.187L555.591 480.187L555.591 456.187L379.843 456.187zM316.488 480.187L379.842 480.187L379.842 456.187L316.488 456.187zM247.748 480.187L316.488 480.187L316.488 456.187L247.748 456.187zM195.591 480.187L247.748 480.187L247.748 456.187L195.591 456.187zM139.323 480.187L195.591 480.187L195.591 456.187L139.323 456.187zM70.866 480.187L139.323 480.187L139.323 456.187L70.866 456.187zM379.843 528.187L555.591 528.187L555.591 504.187L379.843 504.187zM316.488 528.187L379.842 528.187L379.842 504.187L316.488 504.187zM247.748 528.187L316.488 528.187L316.488 504.187L247.748 504.187zM195.591 528.187L247.748 528.187L247.748 504.187L195.591 504.187zM139.323 528.187L195.591 528.187L195.591 504.187L139.323 504.187zM70.866 528.187L139.323 528.187L139.323 504.187L70.866 504.187zM379.843 586.187L555.591 586.187L555.591 562.187L379.843 562.187zM316.488 586.187L379.842 586.187L379.842 562.187L316.488 562.187zM247.748 586.187L316.488 586.187L316.488 562.187L247.748 562.187zM195.591 586.187L247.748 586.187L247.748 562.187L195.591 562.187zM139.323 586.187L195.591 586.187L195.591 562.187L139.323 562.187zM70.866 586.187L139.323 586.187L139.323 562.187L70.866 562.187zM379.843 634.187L555.591 634.187L555.591 610.187L379.843 610.187zM316.488 634.187L379.842 634.187L379.842 610.187L316.488 610.187zM247.748 634.187L316.488 634.187L316.488 610.187L247.748 610.187zM195.591 634.187L247.748 634.187L247.748 610.187L195.591 610.187zM139.323 634.187L195.591 634.187L195.591 610.187L139.323 610.187zM70.866 634.187L139.323 634.187L139.323 610.187L70.866 610.187z" stroke="none" fill="#ECEDEE" fill-rule="nonzero" /><path id="69" transform="matrix(1 0 0 -1 0 792)" d="M70.8661 658.1874L139.3231 658.1874" stroke="#000000" stroke-width="1" fill="none" /><path id="70" transform="matrix(1 0 0 -1 0 792)" d="M139.3228 658.1874L195.5908 658.1874" stroke="#000000" stroke-width="1" fill="none" /><path id="71" transform="matrix(1 0 0 -1 0 792)" d="M195.5905 658.1874L247.7475 658.1874" stroke="#000000" stroke-width="1" fill="none" /><path id="72" transform="matrix(1 0 0 -1 0 792)" d="M247.748 658.1874L316.488 658.1874" stroke="#000000" stroke-width="1" fill="none" /><path id="73" transform="matrix(1 0 0 -1 0 792)" d="M316.4882 658.1874L379.8422 658.1874" stroke="#000000" stroke-width="1" fill="none" /><path id="74" transform="matrix(1 0 0 -1 0 792)" d="M379.8425 658.1874L555.5905 658.1874" stroke="#000000" stroke-width="1" fill="none" /><g clip-path="url(#2)"><path id="1865" transform="matrix(1 0 0 -1 0 792)" d="M555.6614 32.702L555.6614 -12.691" stroke="#000000" stroke-width="0.75" stroke-linecap="round" stroke-dasharray="0.75,1.464" fill="none" /><path id="1866" transform="matrix(1 0 0 -1 0 792)" d="M555.6614 -13.7986L555.6614 -13.7986M555.6614 34.9164L555.6614 34.9164" stroke="#000000" stroke-width="0.75" stroke-linecap="round" fill="none" /></g></g></g></svg>