<svg xmlns="http://www.w3.org/2000/svg" xmlns:xlink="http://www.w3.org/1999/xlink" id="body_123" preserveAspectRatio="xMinYMin meet" viewBox="0 0 816 1056"><defs><clipPath id="1"><path id="" clip-rule="evenodd" transform="matrix(1 0 0 1 0 0)" d="M0 792L0 0L0 0L612 0L612 0L612 792L612 792L0 792z" /></clipPath><clipPath id="2"><path id="" clip-rule="evenodd" transform="matrix(1 0 0 1 0 0)" d="M0 0L612 0L612 0L612 792L612 792L0 792z" /></clipPath></defs><g transform="matrix(1.333333 0 0 1.333333 0 0)"><g clip-path="url(#1)"><path id="1" transform="matrix(1 0 0 -1 0 792)" d="M75.0974 727.1418L75.0974 735.3068" stroke="#000000" stroke-width="8" fill="none" /><path id="2" transform="matrix(1 0 0 -1 0 792)" d="M75.0974 635.6379L75.0974 643.8029" stroke="#000000" stroke-width="8" fill="none" /><path id="3" transform="matrix(1 0 0 -1 0 792)" d="M75.0974 554.1339L75.0974 562.2989" stroke="#000000" stroke-width="8" fill="none" /><path id="4" transform="matrix(1 0 0 -1 0 792)" d="M75.0974 394.4568L75.0974 402.6218" stroke="#000000" stroke-width="8" fill="none" /><path id="5" transform="matrix(1 0 0 -1 0 792)" d="M75.0974 312.9528L75.0974 321.1178" stroke="#000000" stroke-width="8" fill="none" /><path id="6" transform="matrix(1 0 0 -1 0 792)" d="M75.0974 231.4489L75.0974 239.6139" stroke="#000000" stroke-width="8" fill="none" /><path id="7" transform="matrix(1 0 0 -1 0 792)" d="M75.0974 169.9449L75.0974 178.1099" stroke="#000000" stroke-width="8" fill="none" /><path id="1636" transform="matrix(1 0 0 -1 0 792)" d="M323.3179 727.1418L323.3179 735.3068" stroke="#000000" stroke-width="8" fill="none" /><path id="1637" transform="matrix(1 0 0 -1 0 792)" d="M323.3179 655.6379L323.3179 663.8029" stroke="#000000" stroke-width="8" fill="none" /><path id="1638" transform="matrix(1 0 0 -1 0 792)" d="M323.3179 584.1339L323.3179 592.2989" stroke="#000000" stroke-width="8" fill="none" /><path id="1639" transform="matrix(1 0 0 -1 0 792)" d="M323.3179 502.63L323.3179 510.795" stroke="#000000" stroke-width="8" fill="none" /><path id="1640" transform="matrix(1 0 0 -1 0 792)" d="M323.3179 441.126L323.3179 449.291" stroke="#000000" stroke-width="8" fill="none" /><path id="1641" transform="matrix(1 0 0 -1 0 792)" d="M323.3179 329.6221L323.3179 337.7871" stroke="#000000" stroke-width="8" fill="none" /><path id="1642" transform="matrix(1 0 0 -1 0 792)" d="M323.3179 175.2835L323.3179 183.4485" stroke="#000000" stroke-width="8" fill="none" /><g clip-path="url(#2)"><path id="3246" transform="matrix(1 0 0 -1 0 792)" d="M555.6614 32.702L555.6614 -12.691" stroke="#000000" stroke-width="0.75" stroke-linecap="round" stroke-dasharray="0.75,1.464" fill="none" /><path id="3247" transform="matrix(1 0 0 -1 0 792)" d="M555.6614 -13.7986L555.6614 -13.7986M555.6614 34.9164L555.6614 34.9164" stroke="#000000" stroke-width="0.75" stroke-linecap="round" fill="none" /></g></g></g></svg>