<svg xmlns="http://www.w3.org/2000/svg" xmlns:xlink="http://www.w3.org/1999/xlink" id="body_86" preserveAspectRatio="xMinYMin meet" viewBox="0 0 816 1056"><defs><clipPath id="1"><path id="" clip-rule="evenodd" transform="matrix(1 0 0 1 0 0)" d="M0 792L0 0L0 0L612 0L612 0L612 792L612 792L0 792z" /></clipPath><clipPath id="2"><path id="" clip-rule="evenodd" transform="matrix(1 0 0 1 0 0)" d="M56.693 247.507L293.244 247.507L293.244 247.507L293.244 56.69299L293.244 56.69299L56.693 56.69299z" /></clipPath><clipPath id="3"><path id="" clip-rule="evenodd" transform="matrix(1 0 0 1 0 0)" d="M47.693 48.69299L302.244 48.69299L302.244 48.69299L302.244 250.215L302.244 250.215L47.693 250.215z" /></clipPath><clipPath id="4"><path id="" clip-rule="evenodd" transform="matrix(1 0 0 1 0 0)" d="M56.693 448.115L293.244 448.115L293.244 448.115L293.244 257.301L293.244 257.301L56.693 257.301z" /></clipPath><clipPath id="5"><path id="" clip-rule="evenodd" transform="matrix(1 0 0 1 0 0)" d="M47.693 249.301L302.244 249.301L302.244 249.301L302.244 450.823L302.244 450.823L47.693 450.823z" /></clipPath><clipPath id="6"><path id="" clip-rule="evenodd" transform="matrix(1 0 0 1 0 0)" d="M56.693 657.017L293.244 657.017L293.244 657.017L293.244 459.116L293.244 459.116L56.693 459.116z" /></clipPath><clipPath id="7"><path id="" clip-rule="evenodd" transform="matrix(1 0 0 1 0 0)" d="M47.693 451.335L302.244 451.335L302.244 451.335L302.244 659.944L302.244 659.944L47.693 659.944z" /></clipPath><clipPath id="8"><path id="" clip-rule="evenodd" transform="matrix(1 0 0 1 0 0)" d="M304.914 219.507L541.465 219.507L541.465 219.507L541.465 56.69299L541.465 56.69299L304.914 56.69299z" /></clipPath><clipPath id="9"><path id="" clip-rule="evenodd" transform="matrix(1 0 0 1 0 0)" d="M295.913 48.69299L550.465 48.69299L550.465 48.69299L550.465 222.215L550.465 222.215L295.913 222.215z" /></clipPath><clipPath id="10"><path id="" clip-rule="evenodd" transform="matrix(1 0 0 1 0 0)" d="M304.914 411.248L541.465 411.248L541.465 411.248L541.465 229.434L541.465 229.434L304.914 229.434z" /></clipPath><clipPath id="11"><path id="" clip-rule="evenodd" transform="matrix(1 0 0 1 0 0)" d="M295.913 221.434L550.465 221.434L550.465 221.434L550.465 413.956L550.465 413.956L295.913 413.956z" /></clipPath><clipPath id="12"><path id="" clip-rule="evenodd" transform="matrix(1 0 0 1 0 0)" d="M304.914 620.47L541.465 620.47L541.465 620.47L541.465 423.069L541.465 423.069L304.914 423.069z" /></clipPath><clipPath id="13"><path id="" clip-rule="evenodd" transform="matrix(1 0 0 1 0 0)" d="M295.913 415.069L550.465 415.069L550.465 415.069L550.465 623.178L550.465 623.178L295.913 623.178z" /></clipPath><clipPath id="14"><path id="" clip-rule="evenodd" transform="matrix(1 0 0 1 0 0)" d="M0 0L612 0L612 0L612 792L612 792L0 792z" /></clipPath></defs><g transform="matrix(1.333333 0 0 1.333333 0 0)"><g clip-path="url(#1)"><path id="1" transform="matrix(1 0 0 -1 0 792)" d="M59.5278 735.3072L56.6928 732.4722L56.6928 547.3272L59.5278 544.4932L290.4098 544.4932L293.2438 547.3272L293.2438 732.4722L290.4098 735.3072z" stroke="none" fill="#EAEBEC" fill-rule="nonzero" /><path id="2" transform="matrix(1 0 0 -1 0 792)" d="M62.862 647.414L287.075 647.414L287.075 672.918L62.862 672.918z" stroke="none" fill="#FFFEFE" fill-rule="nonzero" /><path id="3" transform="matrix(1 0 0 -1 0 792)" d="M62.8623 672.9178L287.0753 672.9178" stroke="#939597" stroke-width="0.5" fill="none" /><path id="4" transform="matrix(1 0 0 -1 0 792)" d="M62.8623 647.1836L286.5233 647.1836" stroke="#939597" stroke-width="0.5" fill="none" /><g clip-path="url(#2)"><g><g clip-path="url(#3)"><path id="566" transform="matrix(1 0 0 -1 0 792)" d="M59.6311 735.0571C 58.7351 734.1611 57.8391 733.2651 56.9431 732.3691L56.9431 732.3691L56.9431 547.4312C 57.8391 546.5352 58.7351 545.6392 59.6311 544.7432L59.6311 544.7432L290.3061 544.7432C 291.2021 545.6392 292.0981 546.5352 292.9941 547.4312L292.9941 547.4312L292.9941 732.3691C 292.0981 733.2651 291.2021 734.1611 290.3061 735.0571L290.3061 735.0571L59.6311 735.0571z" stroke="#000000" stroke-width="0.5" fill="none" stroke-opacity="0.4980392" /></g></g></g><path id="567" transform="matrix(1 0 0 -1 0 792)" d="M59.5278 534.699L56.6928 531.865L56.6928 346.72L59.5278 343.885L290.4098 343.885L293.2438 346.72L293.2438 531.865L290.4098 534.699z" stroke="none" fill="#EAEBEC" fill-rule="nonzero" /><path id="568" transform="matrix(1 0 0 -1 0 792)" d="M62.862 446.806L287.075 446.806L287.075 472.31L62.862 472.31z" stroke="none" fill="#FFFEFE" fill-rule="nonzero" /><path id="569" transform="matrix(1 0 0 -1 0 792)" d="M62.8623 472.3102L287.0753 472.3102" stroke="#939597" stroke-width="0.5" fill="none" /><path id="570" transform="matrix(1 0 0 -1 0 792)" d="M62.8623 446.5759L286.5233 446.5759" stroke="#939597" stroke-width="0.5" fill="none" /><g clip-path="url(#4)"><g><g clip-path="url(#5)"><path id="1167" transform="matrix(1 0 0 -1 0 792)" d="M59.6311 534.4495C 58.7351 533.5535 57.8391 532.6575 56.9431 531.7615L56.9431 531.7615L56.9431 346.8235C 57.8391 345.9275 58.7351 345.0315 59.6311 344.1355L59.6311 344.1355L290.3061 344.1355L290.3061 344.1355L292.9941 346.8235L292.9941 346.8235L292.9941 531.7615C 292.0981 532.6575 291.2021 533.5535 290.3061 534.4495L290.3061 534.4495L59.6311 534.4495z" stroke="#000000" stroke-width="0.5" fill="none" stroke-opacity="0.4980392" /></g></g></g><path id="1168" transform="matrix(1 0 0 -1 0 792)" d="M59.5278 332.6652L56.6928 329.8302L56.6928 137.5992L59.3088 134.9832L290.6278 134.9832L293.2438 137.5992L293.2438 329.8302L290.4098 332.6652z" stroke="none" fill="#EAEBEC" fill-rule="nonzero" /><path id="1169" transform="matrix(1 0 0 -1 0 792)" d="M62.862 253.772L287.075 253.772L287.075 279.276L62.862 279.276z" stroke="none" fill="#FFFEFE" fill-rule="nonzero" /><path id="1170" transform="matrix(1 0 0 -1 0 792)" d="M62.8623 279.2759L287.0753 279.2759" stroke="#939597" stroke-width="0.5" fill="none" /><path id="1171" transform="matrix(1 0 0 -1 0 792)" d="M62.862 239.103L287.075 239.103L287.075 258.442L62.862 258.442z" stroke="none" fill="#FFFEFE" fill-rule="nonzero" /><path id="1172" transform="matrix(1 0 0 -1 0 792)" d="M63.8814 254.1893L286.5654 254.1893" stroke="#BBBDC0" stroke-width="0.51" stroke-linecap="round" stroke-dasharray="0.51,0.51" fill="none" /><path id="1173" transform="matrix(1 0 0 -1 0 792)" d="M287.0753 254.1893L287.0753 254.1893M62.8623 254.1893L62.8623 254.1893" stroke="#BBBDC0" stroke-width="0.51" stroke-linecap="round" fill="none" /><path id="1174" transform="matrix(1 0 0 -1 0 792)" d="M62.8623 238.8724L286.5233 238.8724" stroke="#939597" stroke-width="0.5" fill="none" /><g clip-path="url(#6)"><g><g clip-path="url(#7)"><path id="1727" transform="matrix(1 0 0 -1 0 792)" d="M59.6311 332.4153C 58.7351 331.5193 57.8391 330.6233 56.9431 329.7273L56.9431 329.7273L56.9431 137.7023C 57.8391 136.8063 58.7351 135.9103 59.6311 135.0143L59.6311 135.0143L290.3061 135.0143L290.3061 135.0143L292.9941 137.7023L292.9941 137.7023L292.9941 329.7273L292.9941 329.7273L290.3061 332.4153L290.3061 332.4153L59.6311 332.4153z" stroke="#000000" stroke-width="0.5" fill="none" stroke-opacity="0.4980392" /></g></g></g><path id="1728" transform="matrix(1 0 0 -1 0 792)" d="M307.7478 735.3072L304.9138 732.4722L304.9138 575.3282L307.7478 572.4932L538.6298 572.4932L541.4638 575.3282L541.4638 732.4722L538.6298 735.3072z" stroke="none" fill="#EAEBEC" fill-rule="nonzero" /><path id="1729" transform="matrix(1 0 0 -1 0 792)" d="M311.083 656.414L535.296 656.414L535.296 681.918L311.083 681.918z" stroke="none" fill="#FFFEFE" fill-rule="nonzero" /><path id="1730" transform="matrix(1 0 0 -1 0 792)" d="M311.0827 681.9178L535.2957 681.9178" stroke="#939597" stroke-width="0.5" fill="none" /><path id="1731" transform="matrix(1 0 0 -1 0 792)" d="M311.0827 656.1836L534.7437 656.1836" stroke="#939597" stroke-width="0.5" fill="none" /><g clip-path="url(#8)"><g><g clip-path="url(#9)"><path id="2183" transform="matrix(1 0 0 -1 0 792)" d="M307.8516 735.0571C 306.9556 734.1611 306.0596 733.2651 305.1636 732.3691L305.1636 732.3691L305.1636 575.4312C 306.0596 574.5352 306.9556 573.6392 307.8516 572.7432L307.8516 572.7432L538.5266 572.7432C 539.4226 573.6392 540.3186 574.5352 541.2146 575.4312L541.2146 575.4312L541.2146 732.3691L541.2146 732.3691L538.5266 735.0571L538.5266 735.0571L307.8516 735.0571z" stroke="#000000" stroke-width="0.5" fill="none" stroke-opacity="0.4980392" /></g></g></g><path id="2184" transform="matrix(1 0 0 -1 0 792)" d="M307.7478 562.5666L304.9138 559.7316L304.9138 383.5866L307.7478 380.7526L538.6298 380.7526L541.4638 383.5866L541.4638 559.7316L538.6298 562.5666z" stroke="none" fill="#EAEBEC" fill-rule="nonzero" /><path id="2185" transform="matrix(1 0 0 -1 0 792)" d="M311.083 483.673L535.296 483.673L535.296 509.177L311.083 509.177z" stroke="none" fill="#FFFEFE" fill-rule="nonzero" /><path id="2186" transform="matrix(1 0 0 -1 0 792)" d="M311.0827 509.1771L535.2957 509.1771" stroke="#939597" stroke-width="0.5" fill="none" /><path id="2187" transform="matrix(1 0 0 -1 0 792)" d="M311.0827 483.4428L534.7437 483.4428" stroke="#939597" stroke-width="0.5" fill="none" /><g clip-path="url(#10)"><g><g clip-path="url(#11)"><path id="2738" transform="matrix(1 0 0 -1 0 792)" d="M307.8517 562.3163C 306.9557 561.4203 306.0597 560.5243 305.1637 559.6283L305.1637 559.6283L305.1637 383.6903C 306.0597 382.7943 306.9557 381.8983 307.8517 381.0023L307.8517 381.0023L538.5267 381.0023C 539.4227 381.8983 540.3187 382.7943 541.2147 383.6903L541.2147 383.6903L541.2147 559.6283L541.2147 559.6283L538.5267 562.3163L538.5267 562.3163L307.8517 562.3163z" stroke="#000000" stroke-width="0.5" fill="none" stroke-opacity="0.4980392" /></g></g></g><path id="2739" transform="matrix(1 0 0 -1 0 792)" d="M307.7478 368.9307L304.9138 366.0957L304.9138 174.3647L307.7478 171.5297L538.6298 171.5297L541.4638 174.3647L541.4638 366.0957L538.6298 368.9307z" stroke="none" fill="#EAEBEC" fill-rule="nonzero" /><path id="2740" transform="matrix(1 0 0 -1 0 792)" d="M311.083 281.038L535.296 281.038L535.296 306.542L311.083 306.542z" stroke="none" fill="#FFFEFE" fill-rule="nonzero" /><path id="2741" transform="matrix(1 0 0 -1 0 792)" d="M311.0827 306.5415L535.2957 306.5415" stroke="#939597" stroke-width="0.5" fill="none" /><path id="2742" transform="matrix(1 0 0 -1 0 792)" d="M311.083 266.368L535.296 266.368L535.296 285.707L311.083 285.707z" stroke="none" fill="#FFFEFE" fill-rule="nonzero" /><path id="2743" transform="matrix(1 0 0 -1 0 792)" d="M312.1019 281.4549L534.7859 281.4549" stroke="#BBBDC0" stroke-width="0.51" stroke-linecap="round" stroke-dasharray="0.51,0.51" fill="none" /><path id="2744" transform="matrix(1 0 0 -1 0 792)" d="M535.2957 281.4549L535.2957 281.4549M311.0827 281.4549L311.0827 281.4549" stroke="#BBBDC0" stroke-width="0.51" stroke-linecap="round" fill="none" /><path id="2745" transform="matrix(1 0 0 -1 0 792)" d="M311.0827 266.138L534.7437 266.138" stroke="#939597" stroke-width="0.5" fill="none" /><g clip-path="url(#12)"><g><g clip-path="url(#13)"><path id="3263" transform="matrix(1 0 0 -1 0 792)" d="M307.8517 368.6808C 306.9557 367.7848 306.0597 366.8888 305.1637 365.9928L305.1637 365.9928L305.1637 174.4678C 306.0597 173.5718 306.9557 172.6758 307.8517 171.7798L307.8517 171.7798L538.5267 171.7798C 539.4227 172.6758 540.3187 173.5718 541.2147 174.4678L541.2147 174.4678L541.2147 365.9928C 540.3187 366.8888 539.4227 367.7848 538.5267 368.6808L538.5267 368.6808L307.8517 368.6808z" stroke="#000000" stroke-width="0.5" fill="none" stroke-opacity="0.4980392" /></g></g></g><g clip-path="url(#14)"><path id="3280" transform="matrix(1 0 0 -1 0 792)" d="M56.9448 32.702L56.9448 -12.691" stroke="#000000" stroke-width="0.75" stroke-linecap="round" stroke-dasharray="0.75,1.464" fill="none" /><path id="3281" transform="matrix(1 0 0 -1 0 792)" d="M56.9448 -13.7986L56.9448 -13.7986M56.9448 34.9164L56.9448 34.9164" stroke="#000000" stroke-width="0.75" stroke-linecap="round" fill="none" /></g></g></g></svg>