<svg xmlns="http://www.w3.org/2000/svg" xmlns:xlink="http://www.w3.org/1999/xlink" id="body_29" preserveAspectRatio="xMinYMin meet" viewBox="0 0 816 1056"><defs><clipPath id="1"><path id="" clip-rule="evenodd" transform="matrix(1 0 0 1 0 0)" d="M0 792L0 0L0 0L612 0L612 0L612 792L612 792L0 792z" /></clipPath><clipPath id="2"><path id="" clip-rule="evenodd" transform="matrix(1 0 0 1 0 0)" d="M0 0L612 0L612 0L612 792L612 792L0 792z" /></clipPath></defs><g transform="matrix(1.333333 0 0 1.333333 0 0)"><g clip-path="url(#1)"><path id="1" transform="matrix(1 0 0 -1 0 792)" d="M70.866 719.682L307.086 719.682L307.086 738.142L70.866 738.142z" stroke="none" fill="#EAEBEC" fill-rule="nonzero" /><path id="2" transform="matrix(1 0 0 -1 0 792)" d="M75.1181 556.44L75.1181 564.605" stroke="#BBBDC0" stroke-width="8" fill="none" /><path id="3" transform="matrix(1 0 0 -1 0 792)" d="M70.866 441.989L307.086 441.989L307.086 460.449L70.866 460.449z" stroke="none" fill="#EAEBEC" fill-rule="nonzero" /><path id="4" transform="matrix(1 0 0 -1 0 792)" d="M75.1181 267.7471L75.1181 275.9121" stroke="#BBBDC0" stroke-width="8" fill="none" /><path id="5" transform="matrix(1 0 0 -1 0 792)" d="M70.866 164.296L307.086 164.296L307.086 182.756L70.866 182.756z" stroke="none" fill="#EAEBEC" fill-rule="nonzero" /><path id="2096" transform="matrix(1 0 0 -1 0 792)" d="M323.3386 695.3032L323.3386 703.4682" stroke="#BBBDC0" stroke-width="8" fill="none" /><path id="2097" transform="matrix(1 0 0 -1 0 792)" d="M319.087 602.852L555.307 602.852L555.307 621.312L319.087 621.312z" stroke="none" fill="#EAEBEC" fill-rule="nonzero" /><path id="2098" transform="matrix(1 0 0 -1 0 792)" d="M323.3386 439.6103L323.3386 447.7753" stroke="#BBBDC0" stroke-width="8" fill="none" /><path id="2099" transform="matrix(1 0 0 -1 0 792)" d="M319.087 347.159L555.307 347.159L555.307 365.619L319.087 365.619z" stroke="none" fill="#EAEBEC" fill-rule="nonzero" /><path id="2100" transform="matrix(1 0 0 -1 0 792)" d="M323.3386 194.9173L323.3386 203.0823" stroke="#BBBDC0" stroke-width="8" fill="none" /><g clip-path="url(#2)"><path id="3814" transform="matrix(1 0 0 -1 0 792)" d="M555.6614 32.702L555.6614 -12.691" stroke="#000000" stroke-width="0.75" stroke-linecap="round" stroke-dasharray="0.75,1.464" fill="none" /><path id="3815" transform="matrix(1 0 0 -1 0 792)" d="M555.6614 -13.7986L555.6614 -13.7986M555.6614 34.9164L555.6614 34.9164" stroke="#000000" stroke-width="0.75" stroke-linecap="round" fill="none" /></g></g></g></svg>