<svg xmlns="http://www.w3.org/2000/svg" xmlns:xlink="http://www.w3.org/1999/xlink" id="body_17" preserveAspectRatio="xMinYMin meet" viewBox="0 0 816 1056"><defs><clipPath id="1"><path id="" clip-rule="evenodd" transform="matrix(1 0 0 1 0 0)" d="M0 792L0 0L0 0L612 0L612 0L612 792L612 792L0 792z" /></clipPath><clipPath id="2"><path id="" clip-rule="evenodd" transform="matrix(1 0 0 1 0 0)" d="M0 0L612 0L612 0L612 792L612 792L0 792z" /></clipPath></defs><g transform="matrix(1.333333 0 0 1.333333 0 0)"><g clip-path="url(#1)"><path id="1" transform="matrix(1 0 0 -1 0 792)" d="M75.1181 727.1418L75.1181 735.3068" stroke="#BBBDC0" stroke-width="8" fill="none" /><path id="2" transform="matrix(1 0 0 -1 0 792)" d="M70.866 521.596L307.086 521.596L307.086 540.056L70.866 540.056z" stroke="none" fill="#EAEBEC" fill-rule="nonzero" /><path id="3" transform="matrix(1 0 0 -1 0 792)" d="M75.1181 477.567L75.1181 485.732" stroke="#BBBDC0" stroke-width="8" fill="none" /><path id="4" transform="matrix(1 0 0 -1 0 792)" d="M75.1181 438.5591L75.1181 446.7241" stroke="#BBBDC0" stroke-width="8" fill="none" /><path id="5" transform="matrix(1 0 0 -1 0 792)" d="M75.1181 338.8819L75.1181 347.0469" stroke="#BBBDC0" stroke-width="8" fill="none" /><path id="6" transform="matrix(1 0 0 -1 0 792)" d="M75.1181 250.2048L75.1181 258.3698" stroke="#BBBDC0" stroke-width="8" fill="none" /><path id="1328" transform="matrix(1 0 0 -1 0 792)" d="M319.087 719.682L555.307 719.682L555.307 738.142L319.087 738.142z" stroke="none" fill="#EAEBEC" fill-rule="nonzero" /><path id="1329" transform="matrix(1 0 0 -1 0 792)" d="M323.3386 675.6526L323.3386 683.8176" stroke="#BBBDC0" stroke-width="8" fill="none" /><path id="1330" transform="matrix(1 0 0 -1 0 792)" d="M323.3386 636.6448L323.3386 644.8098" stroke="#BBBDC0" stroke-width="8" fill="none" /><path id="1331" transform="matrix(1 0 0 -1 0 792)" d="M323.3386 514.9676L323.3386 523.1326" stroke="#BBBDC0" stroke-width="8" fill="none" /><path id="1332" transform="matrix(1 0 0 -1 0 792)" d="M323.3386 453.9597L323.3386 462.1247" stroke="#BBBDC0" stroke-width="8" fill="none" /><path id="1333" transform="matrix(1 0 0 -1 0 792)" d="M319.087 104.743L555.307 104.743L555.307 401.117L319.087 401.117z" stroke="none" fill="#F0F1F1" fill-rule="nonzero" /><path id="1334" transform="matrix(1 0 0 -1 0 792)" d="M555.3071 104.7432L319.0871 104.7432" stroke="#939597" stroke-width="1" fill="none" /><path id="1335" transform="matrix(1 0 0 -1 0 792)" d="M319.0866 401.1172L555.3066 401.1172" stroke="#939597" stroke-width="1" fill="none" /><g clip-path="url(#2)"><path id="2684" transform="matrix(1 0 0 -1 0 792)" d="M555.6614 32.702L555.6614 -12.691" stroke="#000000" stroke-width="0.75" stroke-linecap="round" stroke-dasharray="0.75,1.464" fill="none" /><path id="2685" transform="matrix(1 0 0 -1 0 792)" d="M555.6614 -13.7986L555.6614 -13.7986M555.6614 34.9164L555.6614 34.9164" stroke="#000000" stroke-width="0.75" stroke-linecap="round" fill="none" /></g></g></g></svg>