<svg xmlns="http://www.w3.org/2000/svg" xmlns:xlink="http://www.w3.org/1999/xlink" id="body_16" preserveAspectRatio="xMinYMin meet" viewBox="0 0 816 1056"><defs><clipPath id="1"><path id="" clip-rule="evenodd" transform="matrix(1 0 0 1 0 0)" d="M0 792L0 0L0 0L612 0L612 0L612 792L612 792L0 792z" /></clipPath><clipPath id="2"><path id="" clip-rule="evenodd" transform="matrix(1 0 0 1 0 0)" d="M0 0L612 0L612 0L612 792L612 792L0 792z" /></clipPath></defs><g transform="matrix(1.333333 0 0 1.333333 0 0)"><g clip-path="url(#1)"><path id="1" transform="matrix(1 0 0 -1 0 792)" d="M56.693 671.17L292.913 671.17L292.913 689.63L56.693 689.63z" stroke="none" fill="#EAEBEC" fill-rule="nonzero" /><path id="2" transform="matrix(1 0 0 -1 0 792)" d="M60.9449 627.1408L60.9449 635.3058" stroke="#BBBDC0" stroke-width="8" fill="none" /><path id="3" transform="matrix(1 0 0 -1 0 792)" d="M60.9449 549.4637L60.9449 557.6287" stroke="#BBBDC0" stroke-width="8" fill="none" /><path id="4" transform="matrix(1 0 0 -1 0 792)" d="M60.9449 460.7865L60.9449 468.9515" stroke="#BBBDC0" stroke-width="8" fill="none" /><path id="5" transform="matrix(1 0 0 -1 0 792)" d="M56.693 357.335L292.913 357.335L292.913 375.795L56.693 375.795z" stroke="none" fill="#EAEBEC" fill-rule="nonzero" /><path id="6" transform="matrix(1 0 0 -1 0 792)" d="M60.9449 313.3062L60.9449 321.4712" stroke="#BBBDC0" stroke-width="8" fill="none" /><path id="7" transform="matrix(1 0 0 -1 0 792)" d="M60.9449 235.629L60.9449 243.794" stroke="#BBBDC0" stroke-width="8" fill="none" /><path id="8" transform="matrix(1 0 0 -1 0 792)" d="M60.9449 163.6211L60.9449 171.7861" stroke="#BBBDC0" stroke-width="8" fill="none" /><path id="1312" transform="matrix(1 0 0 -1 0 792)" d="M304.913 464.423L541.133 464.423L541.133 743.811L304.913 743.811z" stroke="none" fill="#F0F1F1" fill-rule="nonzero" /><path id="1313" transform="matrix(1 0 0 -1 0 792)" d="M541.1339 464.423L304.9139 464.423" stroke="#939597" stroke-width="1" fill="none" /><path id="1314" transform="matrix(1 0 0 -1 0 792)" d="M304.9134 743.811L541.1334 743.811" stroke="#939597" stroke-width="1" fill="none" /><path id="1315" transform="matrix(1 0 0 -1 0 792)" d="M304.913 428.329L541.133 428.329L541.133 446.789L304.913 446.789z" stroke="none" fill="#000000" fill-rule="nonzero" /><path id="1316" transform="matrix(1 0 0 -1 0 792)" d="M307.4068 313.3839L539.6368 313.3839" stroke="#000000" stroke-width="1" stroke-linecap="round" stroke-dasharray="1,1" fill="none" /><path id="1317" transform="matrix(1 0 0 -1 0 792)" d="M540.6334 313.3839L540.6334 313.3839M305.4134 313.3839L305.4134 313.3839" stroke="#000000" stroke-width="1" stroke-linecap="round" fill="none" /><path id="1318" transform="matrix(1 0 0 -1 0 792)" d="M307.4068 207.6989L539.6368 207.6989" stroke="#000000" stroke-width="1" stroke-linecap="round" stroke-dasharray="1,1" fill="none" /><path id="1319" transform="matrix(1 0 0 -1 0 792)" d="M540.6334 207.6989L540.6334 207.6989M305.4134 207.6989L305.4134 207.6989" stroke="#000000" stroke-width="1" stroke-linecap="round" fill="none" /><path id="1320" transform="matrix(1 0 0 -1 0 792)" d="M309.1653 184.9449L309.1653 193.1099" stroke="#BBBDC0" stroke-width="8" fill="none" /><g clip-path="url(#2)"><path id="2650" transform="matrix(1 0 0 -1 0 792)" d="M56.9448 32.702L56.9448 -12.691" stroke="#000000" stroke-width="0.75" stroke-linecap="round" stroke-dasharray="0.75,1.464" fill="none" /><path id="2651" transform="matrix(1 0 0 -1 0 792)" d="M56.9448 -13.7986L56.9448 -13.7986M56.9448 34.9164L56.9448 34.9164" stroke="#000000" stroke-width="0.75" stroke-linecap="round" fill="none" /></g></g></g></svg>