<svg xmlns="http://www.w3.org/2000/svg" xmlns:xlink="http://www.w3.org/1999/xlink" id="body_84" preserveAspectRatio="xMinYMin meet" viewBox="0 0 816 1056"><defs><clipPath id="1"><path id="" clip-rule="evenodd" transform="matrix(1 0 0 1 0 0)" d="M0 792L0 0L0 0L612 0L612 0L612 792L612 792L0 792z" /></clipPath><clipPath id="2"><path id="" clip-rule="evenodd" transform="matrix(1 0 0 1 0 0)" d="M56.693 210.007L293.244 210.007L293.244 210.007L293.244 56.69299L293.244 56.69299L56.693 56.69299z" /></clipPath><clipPath id="3"><path id="" clip-rule="evenodd" transform="matrix(1 0 0 1 0 0)" d="M47.693 48.69299L302.244 48.69299L302.244 48.69299L302.244 212.715L302.244 212.715L47.693 212.715z" /></clipPath><clipPath id="4"><path id="" clip-rule="evenodd" transform="matrix(1 0 0 1 0 0)" d="M304.914 219.507L541.465 219.507L541.465 219.507L541.465 56.69299L541.465 56.69299L304.914 56.69299z" /></clipPath><clipPath id="5"><path id="" clip-rule="evenodd" transform="matrix(1 0 0 1 0 0)" d="M295.913 48.69299L550.465 48.69299L550.465 48.69299L550.465 222.215L550.465 222.215L295.913 222.215z" /></clipPath><clipPath id="6"><path id="" clip-rule="evenodd" transform="matrix(1 0 0 1 0 0)" d="M56.693 482.449L293.244 482.449L293.244 482.449L293.244 261.217L293.244 261.217L56.693 261.217z" /></clipPath><clipPath id="7"><path id="" clip-rule="evenodd" transform="matrix(1 0 0 1 0 0)" d="M47.693 253.217L302.244 253.217L302.244 253.217L302.244 485.157L302.244 485.157L47.693 485.157z" /></clipPath><clipPath id="8"><path id="" clip-rule="evenodd" transform="matrix(1 0 0 1 0 0)" d="M56.693 699.453L293.244 699.453L293.244 699.453L293.244 493.471L293.244 493.471L56.693 493.471z" /></clipPath><clipPath id="9"><path id="" clip-rule="evenodd" transform="matrix(1 0 0 1 0 0)" d="M47.693 485.47L302.244 485.47L302.244 485.47L302.244 702.1622L302.244 702.1622L47.693 702.1622z" /></clipPath><clipPath id="10"><path id="" clip-rule="evenodd" transform="matrix(1 0 0 1 0 0)" d="M304.914 461.131L541.465 461.131L541.465 461.131L541.465 263.23L541.465 263.23L304.914 263.23z" /></clipPath><clipPath id="11"><path id="" clip-rule="evenodd" transform="matrix(1 0 0 1 0 0)" d="M295.913 255.23L550.465 255.23L550.465 255.23L550.465 463.839L550.465 463.839L295.913 463.839z" /></clipPath><clipPath id="12"><path id="" clip-rule="evenodd" transform="matrix(1 0 0 1 0 0)" d="M304.914 697.464L541.465 697.464L541.465 697.464L541.465 470.145L541.465 470.145L304.914 470.145z" /></clipPath><clipPath id="13"><path id="" clip-rule="evenodd" transform="matrix(1 0 0 1 0 0)" d="M295.913 462.145L550.465 462.145L550.465 462.145L550.465 700.1714L550.465 700.1714L295.913 700.1714z" /></clipPath><clipPath id="14"><path id="" clip-rule="evenodd" transform="matrix(1 0 0 1 0 0)" d="M0 0L612 0L612 0L612 792L612 792L0 792z" /></clipPath></defs><g transform="matrix(1.333333 0 0 1.333333 0 0)"><g clip-path="url(#1)"><path id="1" transform="matrix(1 0 0 -1 0 792)" d="M59.5278 735.3072L56.6928 732.4722L56.6928 584.8272L59.5278 581.9932L290.4098 581.9932L293.2438 584.8272L293.2438 732.4722L290.4098 735.3072z" stroke="none" fill="#EAEBEC" fill-rule="nonzero" /><path id="2" transform="matrix(1 0 0 -1 0 792)" d="M62.862 656.414L287.075 656.414L287.075 681.918L62.862 681.918z" stroke="none" fill="#FFFEFE" fill-rule="nonzero" /><path id="3" transform="matrix(1 0 0 -1 0 792)" d="M62.8623 681.9178L287.0753 681.9178" stroke="#939597" stroke-width="0.5" fill="none" /><path id="4" transform="matrix(1 0 0 -1 0 792)" d="M62.8623 656.1836L286.5233 656.1836" stroke="#939597" stroke-width="0.5" fill="none" /><g clip-path="url(#2)"><g><g clip-path="url(#3)"><path id="437" transform="matrix(1 0 0 -1 0 792)" d="M59.6311 735.0571C 58.7351 734.1611 57.8391 733.2651 56.9431 732.3691L56.9431 732.3691L56.9431 584.9312C 57.8391 584.0352 58.7351 583.1392 59.6311 582.2432L59.6311 582.2432L290.3061 582.2432C 291.2021 583.1392 292.0981 584.0352 292.9941 584.9312L292.9941 584.9312L292.9941 732.3691C 292.0981 733.2651 291.2021 734.1611 290.3061 735.0571L290.3061 735.0571L59.6311 735.0571z" stroke="#000000" stroke-width="0.5" fill="none" stroke-opacity="0.4980392" /></g></g></g><path id="438" transform="matrix(1 0 0 -1 0 792)" d="M307.7478 735.3072L304.9138 732.4722L304.9138 575.3282L307.7478 572.4932L538.6298 572.4932L541.4638 575.3282L541.4638 732.4722L538.6298 735.3072z" stroke="none" fill="#EAEBEC" fill-rule="nonzero" /><path id="439" transform="matrix(1 0 0 -1 0 792)" d="M311.083 656.414L535.296 656.414L535.296 681.918L311.083 681.918z" stroke="none" fill="#FFFEFE" fill-rule="nonzero" /><path id="440" transform="matrix(1 0 0 -1 0 792)" d="M311.0827 681.9178L535.2957 681.9178" stroke="#939597" stroke-width="0.5" fill="none" /><path id="441" transform="matrix(1 0 0 -1 0 792)" d="M311.0827 656.1836L534.7437 656.1836" stroke="#939597" stroke-width="0.5" fill="none" /><g clip-path="url(#4)"><g><g clip-path="url(#5)"><path id="876" transform="matrix(1 0 0 -1 0 792)" d="M307.8517 735.0571C 306.9557 734.1611 306.0597 733.2651 305.1637 732.3691L305.1637 732.3691L305.1637 575.4312C 306.0597 574.5352 306.9557 573.6392 307.8517 572.7432L307.8517 572.7432L538.5267 572.7432C 539.4227 573.6392 540.3187 574.5352 541.2147 575.4312L541.2147 575.4312L541.2147 732.3691L541.2147 732.3691L538.5267 735.0571L538.5267 735.0571L307.8517 735.0571z" stroke="#000000" stroke-width="0.5" fill="none" stroke-opacity="0.4980392" /></g></g></g><path id="909" transform="matrix(1 0 0 -1 0 792)" d="M59.5278 530.7822L56.6928 527.9482L56.6928 312.3852L59.5278 309.5502L290.4098 309.5502L293.2438 312.3852L293.2438 527.9482L290.4098 530.7822z" stroke="none" fill="#EAEBEC" fill-rule="nonzero" /><path id="910" transform="matrix(1 0 0 -1 0 792)" d="M62.862 451.889L287.075 451.889L287.075 477.393L62.862 477.393z" stroke="none" fill="#FFFEFE" fill-rule="nonzero" /><path id="911" transform="matrix(1 0 0 -1 0 792)" d="M62.8623 477.3933L287.0753 477.3933" stroke="#939597" stroke-width="0.5" fill="none" /><path id="912" transform="matrix(1 0 0 -1 0 792)" d="M62.8623 451.6591L286.5233 451.6591" stroke="#939597" stroke-width="0.5" fill="none" /><g clip-path="url(#6)"><g><g clip-path="url(#7)"><path id="1643" transform="matrix(1 0 0 -1 0 792)" d="M59.6311 530.5326C 58.7351 529.6366 57.8391 528.7406 56.9431 527.8446L56.9431 527.8446L56.9431 312.4886C 57.8391 311.5926 58.7351 310.6966 59.6311 309.8006L59.6311 309.8006L290.3061 309.8006L290.3061 309.8006L292.9941 312.4886L292.9941 312.4886L292.9941 527.8446C 292.0981 528.7406 291.2021 529.6366 290.3061 530.5326L290.3061 530.5326L59.6311 530.5326z" stroke="#000000" stroke-width="0.5" fill="none" stroke-opacity="0.4980392" /></g></g></g><path id="1644" transform="matrix(1 0 0 -1 0 792)" d="M59.5278 298.5291L56.6928 295.6951L56.6928 95.38011L59.5268 92.54712L290.4098 92.54712L293.2438 95.38011L293.2438 295.6951L290.4098 298.5291z" stroke="none" fill="#EAEBEC" fill-rule="nonzero" /><path id="1645" transform="matrix(1 0 0 -1 0 792)" d="M62.862 219.636L287.075 219.636L287.075 245.14L62.862 245.14z" stroke="none" fill="#FFFEFE" fill-rule="nonzero" /><path id="1646" transform="matrix(1 0 0 -1 0 792)" d="M62.8623 245.1403L287.0753 245.1403" stroke="#939597" stroke-width="0.5" fill="none" /><path id="1647" transform="matrix(1 0 0 -1 0 792)" d="M62.862 204.967L287.075 204.967L287.075 224.306L62.862 224.306z" stroke="none" fill="#FFFEFE" fill-rule="nonzero" /><path id="1648" transform="matrix(1 0 0 -1 0 792)" d="M63.8814 220.0537L286.5654 220.0537" stroke="#BBBDC0" stroke-width="0.51" stroke-linecap="round" stroke-dasharray="0.51,0.51" fill="none" /><path id="1649" transform="matrix(1 0 0 -1 0 792)" d="M287.0753 220.0537L287.0753 220.0537M62.8623 220.0537L62.8623 220.0537" stroke="#BBBDC0" stroke-width="0.51" stroke-linecap="round" fill="none" /><path id="1650" transform="matrix(1 0 0 -1 0 792)" d="M62.8623 204.7367L286.5233 204.7367" stroke="#939597" stroke-width="0.5" fill="none" /><g clip-path="url(#8)"><g><g clip-path="url(#9)"><path id="2265" transform="matrix(1 0 0 -1 0 792)" d="M59.6311 298.2795C 58.7351 297.3835 57.8391 296.4875 56.9431 295.5915L56.9431 295.5915L56.9431 95.48351L56.9431 95.48351L59.6311 92.79552L59.6311 92.79552L290.3061 92.79552C 291.2021 93.69151 292.0981 94.58751 292.9941 95.48351L292.9941 95.48351L292.9941 295.5915L292.9941 295.5915L290.3061 298.2795L290.3061 298.2795L59.6311 298.2795z" stroke="#000000" stroke-width="0.5" fill="none" stroke-opacity="0.4980392" /></g></g></g><path id="2266" transform="matrix(1 0 0 -1 0 792)" d="M307.7478 528.7698L304.9138 525.9348L304.9138 333.7028L307.7478 330.8688L538.6298 330.8688L541.4638 333.7028L541.4638 525.9348L538.6298 528.7698z" stroke="none" fill="#EAEBEC" fill-rule="nonzero" /><path id="2267" transform="matrix(1 0 0 -1 0 792)" d="M311.083 449.876L535.296 449.876L535.296 475.38L311.083 475.38z" stroke="none" fill="#FFFEFE" fill-rule="nonzero" /><path id="2268" transform="matrix(1 0 0 -1 0 792)" d="M311.0827 475.3804L535.2957 475.3804" stroke="#939597" stroke-width="0.5" fill="none" /><path id="2269" transform="matrix(1 0 0 -1 0 792)" d="M311.083 435.207L535.296 435.207L535.296 454.546L311.083 454.546z" stroke="none" fill="#FFFEFE" fill-rule="nonzero" /><path id="2270" transform="matrix(1 0 0 -1 0 792)" d="M312.1019 450.2938L534.7859 450.2938" stroke="#BBBDC0" stroke-width="0.51" stroke-linecap="round" stroke-dasharray="0.51,0.51" fill="none" /><path id="2271" transform="matrix(1 0 0 -1 0 792)" d="M535.2957 450.2938L535.2957 450.2938M311.0827 450.2938L311.0827 450.2938" stroke="#BBBDC0" stroke-width="0.51" stroke-linecap="round" fill="none" /><path id="2272" transform="matrix(1 0 0 -1 0 792)" d="M311.0827 434.9768L534.7437 434.9768" stroke="#939597" stroke-width="0.5" fill="none" /><g clip-path="url(#10)"><g><g clip-path="url(#11)"><path id="2863" transform="matrix(1 0 0 -1 0 792)" d="M307.8517 528.5197C 306.9557 527.6237 306.0597 526.7277 305.1637 525.8317L305.1637 525.8317L305.1637 333.8067C 306.0597 332.9107 306.9557 332.0147 307.8517 331.1187L307.8517 331.1187L538.5267 331.1187L538.5267 331.1187L541.2147 333.8067L541.2147 333.8067L541.2147 525.8317C 540.3187 526.7277 539.4227 527.6237 538.5267 528.5197L538.5267 528.5197L307.8517 528.5197z" stroke="#000000" stroke-width="0.5" fill="none" stroke-opacity="0.4980392" /></g></g></g><path id="2864" transform="matrix(1 0 0 -1 0 792)" d="M307.7478 321.8553L304.9138 319.0203L304.9138 97.37129L307.7478 94.53729L538.6298 94.53729L541.4638 97.37129L541.4638 319.0203L538.6298 321.8553z" stroke="none" fill="#EAEBEC" fill-rule="nonzero" /><path id="2865" transform="matrix(1 0 0 -1 0 792)" d="M311.083 233.962L535.296 233.962L535.296 259.466L311.083 259.466z" stroke="none" fill="#FFFEFE" fill-rule="nonzero" /><path id="2866" transform="matrix(1 0 0 -1 0 792)" d="M311.0827 259.4657L535.2957 259.4657" stroke="#939597" stroke-width="0.5" fill="none" /><path id="2867" transform="matrix(1 0 0 -1 0 792)" d="M311.083 219.292L535.296 219.292L535.296 238.631L311.083 238.631z" stroke="none" fill="#FFFEFE" fill-rule="nonzero" /><path id="2868" transform="matrix(1 0 0 -1 0 792)" d="M312.1019 234.3791L534.7859 234.3791" stroke="#BBBDC0" stroke-width="0.51" stroke-linecap="round" stroke-dasharray="0.51,0.51" fill="none" /><path id="2869" transform="matrix(1 0 0 -1 0 792)" d="M535.2957 234.3791L535.2957 234.3791M311.0827 234.3791L311.0827 234.3791" stroke="#BBBDC0" stroke-width="0.51" stroke-linecap="round" fill="none" /><path id="2870" transform="matrix(1 0 0 -1 0 792)" d="M311.0827 219.0622L534.7437 219.0622" stroke="#939597" stroke-width="0.5" fill="none" /><g clip-path="url(#12)"><g><g clip-path="url(#13)"><path id="3539" transform="matrix(1 0 0 -1 0 792)" d="M307.8517 321.605C 306.9557 320.709 306.0597 319.813 305.1637 318.917L305.1637 318.917L305.1637 97.47501C 306.0597 96.57901 306.9557 95.68301 307.8517 94.78702L307.8517 94.78702L538.5267 94.78702C 539.4227 95.68301 540.3187 96.57901 541.2147 97.47501L541.2147 97.47501L541.2147 318.917C 540.3187 319.813 539.4227 320.709 538.5267 321.605L538.5267 321.605L307.8517 321.605z" stroke="#000000" stroke-width="0.5" fill="none" stroke-opacity="0.4980392" /></g></g></g><g clip-path="url(#14)"><path id="3556" transform="matrix(1 0 0 -1 0 792)" d="M56.9448 32.702L56.9448 -12.691" stroke="#000000" stroke-width="0.75" stroke-linecap="round" stroke-dasharray="0.75,1.464" fill="none" /><path id="3557" transform="matrix(1 0 0 -1 0 792)" d="M56.9448 -13.7986L56.9448 -13.7986M56.9448 34.9164L56.9448 34.9164" stroke="#000000" stroke-width="0.75" stroke-linecap="round" fill="none" /></g></g></g></svg>