<svg xmlns="http://www.w3.org/2000/svg" xmlns:xlink="http://www.w3.org/1999/xlink" id="body_85" preserveAspectRatio="xMinYMin meet" viewBox="0 0 816 1056"><defs><clipPath id="1"><path id="" clip-rule="evenodd" transform="matrix(1 0 0 1 0 0)" d="M0 792L0 0L0 0L612 0L612 0L612 792L612 792L0 792z" /></clipPath><clipPath id="2"><path id="" clip-rule="evenodd" transform="matrix(1 0 0 1 0 0)" d="M70.866 523.771L307.418 523.771L307.418 523.771L307.418 56.69299L307.418 56.69299L70.866 56.69299z" /></clipPath><clipPath id="3"><path id="" clip-rule="evenodd" transform="matrix(1 0 0 1 0 0)" d="M61.8662 48.69299L316.417 48.69299L316.417 48.69299L316.417 526.479L316.417 526.479L61.8662 526.479z" /></clipPath><clipPath id="4"><path id="" clip-rule="evenodd" transform="matrix(1 0 0 1 0 0)" d="M70.866 747.137L307.418 747.137L307.418 747.137L307.418 533.987L307.418 533.987L70.866 533.987z" /></clipPath><clipPath id="5"><path id="" clip-rule="evenodd" transform="matrix(1 0 0 1 0 0)" d="M61.8662 525.987L316.417 525.987L316.417 525.987L316.417 749.8444L316.417 749.8444L61.8662 749.8444z" /></clipPath><clipPath id="6"><path id="" clip-rule="evenodd" transform="matrix(1 0 0 1 0 0)" d="M319.087 248.006L555.638 248.006L555.638 248.006L555.638 56.69299L555.638 56.69299L319.087 56.69299z" /></clipPath><clipPath id="7"><path id="" clip-rule="evenodd" transform="matrix(1 0 0 1 0 0)" d="M310.087 48.69299L564.638 48.69299L564.638 48.69299L564.638 250.715L564.638 250.715L310.087 250.715z" /></clipPath><clipPath id="8"><path id="" clip-rule="evenodd" transform="matrix(1 0 0 1 0 0)" d="M319.087 435.253L555.638 435.253L555.638 435.253L555.638 259.188L555.638 259.188L319.087 259.188z" /></clipPath><clipPath id="9"><path id="" clip-rule="evenodd" transform="matrix(1 0 0 1 0 0)" d="M310.087 251.188L564.638 251.188L564.638 251.188L564.638 436.281L564.638 436.281L310.087 436.281z" /></clipPath><clipPath id="10"><path id="" clip-rule="evenodd" transform="matrix(1 0 0 1 0 0)" d="M319.087 700.906L555.638 700.906L555.638 700.906L555.638 444.588L555.638 444.588L319.087 444.588z" /></clipPath><clipPath id="11"><path id="" clip-rule="evenodd" transform="matrix(1 0 0 1 0 0)" d="M310.087 436.588L564.638 436.588L564.638 436.588L564.638 694.1143L564.638 694.1143L310.087 694.1143z" /></clipPath><clipPath id="12"><path id="" clip-rule="evenodd" transform="matrix(1 0 0 1 0 0)" d="M0 0L612 0L612 0L612 792L612 792L0 792z" /></clipPath></defs><g transform="matrix(1.333333 0 0 1.333333 0 0)"><g clip-path="url(#1)"><path id="1" transform="matrix(1 0 0 -1 0 792)" d="M73.701 735.3072L70.866 732.4722L70.866 271.0642L73.701 268.2292L304.583 268.2292L307.418 271.0642L307.418 732.4722L304.583 735.3072z" stroke="none" fill="#EAEBEC" fill-rule="nonzero" /><path id="2" transform="matrix(1 0 0 -1 0 792)" d="M77.035 647.414L301.248 647.414L301.248 672.918L77.035 672.918z" stroke="none" fill="#FFFEFE" fill-rule="nonzero" /><path id="3" transform="matrix(1 0 0 -1 0 792)" d="M77.0355 672.9178L301.2485 672.9178" stroke="#939597" stroke-width="0.5" fill="none" /><path id="4" transform="matrix(1 0 0 -1 0 792)" d="M77.035 632.245L301.248 632.245L301.248 653.584L77.035 653.584z" stroke="none" fill="#FFFEFE" fill-rule="nonzero" /><path id="5" transform="matrix(1 0 0 -1 0 792)" d="M78.0546 649.3312L300.7386 649.3312" stroke="#BBBDC0" stroke-width="0.51" stroke-linecap="round" stroke-dasharray="0.51,0.51" fill="none" /><path id="6" transform="matrix(1 0 0 -1 0 792)" d="M301.2485 649.3312L301.2485 649.3312M77.0355 649.3312L77.0355 649.3312" stroke="#BBBDC0" stroke-width="0.51" stroke-linecap="round" fill="none" /><path id="7" transform="matrix(1 0 0 -1 0 792)" d="M77.0355 632.5143L300.6965 632.5143" stroke="#C1AE88" stroke-width="0.5" fill="none" /><g clip-path="url(#2)"><g><g clip-path="url(#3)"><path id="1649" transform="matrix(1 0 0 -1 0 792)" d="M73.8044 735.0571C 72.90839 734.1611 72.0124 733.2651 71.11639 732.3691L71.11639 732.3691L71.11639 271.1671C 72.0124 270.2711 72.90839 269.3751 73.8044 268.4791L73.8044 268.4791L304.4794 268.4791C 305.3754 269.3751 306.2714 270.2711 307.1674 271.1671L307.1674 271.1671L307.1674 732.3691C 306.2714 733.2651 305.3754 734.1611 304.4794 735.0571L304.4794 735.0571L73.8044 735.0571z" stroke="#000000" stroke-width="0.5" fill="none" stroke-opacity="0.4980392" /></g></g></g><path id="1650" transform="matrix(1 0 0 -1 0 792)" d="M73.701 258.0129L70.866 255.1779L70.866 47.69791L73.701 44.86292L304.583 44.86292L307.418 47.69791L307.418 255.1779L304.583 258.0129z" stroke="none" fill="#EAEBEC" fill-rule="nonzero" /><path id="1651" transform="matrix(1 0 0 -1 0 792)" d="M77.035 179.119L301.248 179.119L301.248 204.623L77.035 204.623z" stroke="none" fill="#FFFEFE" fill-rule="nonzero" /><path id="1652" transform="matrix(1 0 0 -1 0 792)" d="M77.0355 204.6234L301.2485 204.6234" stroke="#939597" stroke-width="0.5" fill="none" /><path id="1653" transform="matrix(1 0 0 -1 0 792)" d="M77.0355 178.8892L300.6965 178.8892" stroke="#939597" stroke-width="0.5" fill="none" /><g clip-path="url(#4)"><g><g clip-path="url(#5)"><path id="2334" transform="matrix(1 0 0 -1 0 792)" d="M73.8044 257.7627C 72.90839 256.8667 72.0124 255.9707 71.11639 255.0747L71.11639 255.0747L71.11639 47.8017L71.11639 47.8017L73.8044 45.11369L73.8044 45.11369L304.4794 45.11369C 305.3754 46.00969 306.2714 46.9057 307.1674 47.8017L307.1674 47.8017L307.1674 255.0747L307.1674 255.0747L304.4794 257.7627L304.4794 257.7627L73.8044 257.7627z" stroke="#000000" stroke-width="0.5" fill="none" stroke-opacity="0.4980392" /></g></g></g><path id="2335" transform="matrix(1 0 0 -1 0 792)" d="M321.921 735.3072L319.087 732.4722L319.087 546.8272L321.919 543.9942L552.805 543.9942L555.637 546.8272L555.637 732.4722L552.803 735.3072z" stroke="none" fill="#EAEBEC" fill-rule="nonzero" /><path id="2336" transform="matrix(1 0 0 -1 0 792)" d="M325.256 656.414L549.469 656.414L549.469 681.918L325.256 681.918z" stroke="none" fill="#FFFEFE" fill-rule="nonzero" /><path id="2337" transform="matrix(1 0 0 -1 0 792)" d="M325.2559 681.9178L549.4689 681.9178" stroke="#939597" stroke-width="0.5" fill="none" /><path id="2338" transform="matrix(1 0 0 -1 0 792)" d="M325.2559 656.1836L548.9169 656.1836" stroke="#939597" stroke-width="0.5" fill="none" /><g clip-path="url(#6)"><g><g clip-path="url(#7)"><path id="2897" transform="matrix(1 0 0 -1 0 792)" d="M322.0248 735.0571C 321.1288 734.1611 320.2328 733.2651 319.3368 732.3691L319.3368 732.3691L319.3368 546.9312C 320.2328 546.0352 321.1288 545.1392 322.0248 544.2432L322.0248 544.2432L552.6998 544.2432C 553.5958 545.1392 554.4918 546.0352 555.3878 546.9312L555.3878 546.9312L555.3878 732.3691L555.3878 732.3691L552.6998 735.0571L552.6998 735.0571L322.0248 735.0571z" stroke="#000000" stroke-width="0.5" fill="none" stroke-opacity="0.4980392" /></g></g></g><path id="2898" transform="matrix(1 0 0 -1 0 792)" d="M321.921 532.8117L319.087 529.9777L319.087 360.9977L321.921 358.1627L552.803 358.1627L555.637 360.9977L555.637 529.9777L552.803 532.8117z" stroke="none" fill="#EAEBEC" fill-rule="nonzero" /><path id="2899" transform="matrix(1 0 0 -1 0 792)" d="M325.256 453.919L549.469 453.919L549.469 479.423L325.256 479.423z" stroke="none" fill="#FFFEFE" fill-rule="nonzero" /><path id="2900" transform="matrix(1 0 0 -1 0 792)" d="M325.256 479.4226L549.469 479.4226" stroke="#939597" stroke-width="0.5" fill="none" /><path id="2901" transform="matrix(1 0 0 -1 0 792)" d="M325.256 439.249L549.469 439.249L549.469 458.588L325.256 458.588z" stroke="none" fill="#FFFEFE" fill-rule="nonzero" /><path id="2902" transform="matrix(1 0 0 -1 0 792)" d="M326.2751 454.336L548.9591 454.336" stroke="#BBBDC0" stroke-width="0.51" stroke-linecap="round" stroke-dasharray="0.51,0.51" fill="none" /><path id="2903" transform="matrix(1 0 0 -1 0 792)" d="M549.469 454.336L549.469 454.336M325.256 454.336L325.256 454.336" stroke="#BBBDC0" stroke-width="0.51" stroke-linecap="round" fill="none" /><path id="2904" transform="matrix(1 0 0 -1 0 792)" d="M325.256 439.0191L548.917 439.0191" stroke="#939597" stroke-width="0.5" fill="none" /><g clip-path="url(#8)"><g><g clip-path="url(#9)"><path id="3408" transform="matrix(1 0 0 -1 0 792)" d="M322.0249 532.5619C 321.1289 531.6659 320.2329 530.7699 319.3369 529.8739L319.3369 529.8739L319.3369 361.1009C 320.2329 360.2049 321.1289 359.3089 322.0249 358.4129L322.0249 358.4129L552.6999 358.4129C 553.5959 359.3089 554.4919 360.2049 555.3879 361.1009L555.3879 361.1009L555.3879 529.8739L555.3879 529.8739L552.6999 532.5619L552.6999 532.5619L322.0249 532.5619z" stroke="#000000" stroke-width="0.5" fill="none" stroke-opacity="0.4980392" /></g></g></g><path id="3409" transform="matrix(1 0 0 -1 0 792)" d="M321.921 347.4117L319.087 344.5777L319.087 103.4277L321.921 100.5937L552.803 100.5937L555.637 103.4277L555.637 344.5777L552.803 347.4117z" stroke="none" fill="#EAEBEC" fill-rule="nonzero" /><path id="3410" transform="matrix(1 0 0 -1 0 792)" d="M325.256 268.519L549.469 268.519L549.469 294.023L325.256 294.023z" stroke="none" fill="#FFFEFE" fill-rule="nonzero" /><path id="3411" transform="matrix(1 0 0 -1 0 792)" d="M325.256 294.0228L549.469 294.0228" stroke="#939597" stroke-width="0.5" fill="none" /><path id="3412" transform="matrix(1 0 0 -1 0 792)" d="M325.256 253.85L549.469 253.85L549.469 273.189L325.256 273.189z" stroke="none" fill="#FFFEFE" fill-rule="nonzero" /><path id="3413" transform="matrix(1 0 0 -1 0 792)" d="M326.2751 268.9362L548.9591 268.9362" stroke="#BBBDC0" stroke-width="0.51" stroke-linecap="round" stroke-dasharray="0.51,0.51" fill="none" /><path id="3414" transform="matrix(1 0 0 -1 0 792)" d="M549.469 268.9362L549.469 268.9362M325.256 268.9362L325.256 268.9362" stroke="#BBBDC0" stroke-width="0.51" stroke-linecap="round" fill="none" /><path id="3415" transform="matrix(1 0 0 -1 0 792)" d="M325.256 253.6192L548.917 253.6192" stroke="#939597" stroke-width="0.5" fill="none" /><g clip-path="url(#10)"><g><g clip-path="url(#11)"><path id="4248" transform="matrix(1 0 0 -1 0 792)" d="M322.0249 347.162C 321.1289 346.266 320.2329 345.37 319.3369 344.474L319.3369 344.474L319.3369 103.532L319.3369 103.532L322.0249 100.844L322.0249 100.844L552.6999 100.844L552.6999 100.844L555.3879 103.532L555.3879 103.532L555.3879 344.474C 554.4919 345.37 553.5959 346.266 552.6999 347.162L552.6999 347.162L322.0249 347.162z" stroke="#000000" stroke-width="0.5" fill="none" stroke-opacity="0.4980392" /></g></g></g><g clip-path="url(#12)"><path id="4265" transform="matrix(1 0 0 -1 0 792)" d="M555.6614 32.702L555.6614 -12.691" stroke="#000000" stroke-width="0.75" stroke-linecap="round" stroke-dasharray="0.75,1.464" fill="none" /><path id="4266" transform="matrix(1 0 0 -1 0 792)" d="M555.6614 -13.7986L555.6614 -13.7986M555.6614 34.9164L555.6614 34.9164" stroke="#000000" stroke-width="0.75" stroke-linecap="round" fill="none" /></g></g></g></svg>