<svg xmlns="http://www.w3.org/2000/svg" xmlns:xlink="http://www.w3.org/1999/xlink" id="body_96" preserveAspectRatio="xMinYMin meet" viewBox="0 0 816 1056"><defs><clipPath id="1"><path id="" clip-rule="evenodd" transform="matrix(1 0 0 1 0 0)" d="M0 792L0 0L0 0L612 0L612 0L612 792L612 792L0 792z" /></clipPath><clipPath id="2"><path id="" clip-rule="evenodd" transform="matrix(1 0 0 1 0 0)" d="M56.693 351.012L293.244 351.012L293.244 351.012L293.244 56.69299L293.244 56.69299L56.693 56.69299z" /></clipPath><clipPath id="3"><path id="" clip-rule="evenodd" transform="matrix(1 0 0 1 0 0)" d="M47.693 48.69299L302.244 48.69299L302.244 48.69299L302.244 344.219L302.244 344.219L47.693 344.219z" /></clipPath><clipPath id="4"><path id="" clip-rule="evenodd" transform="matrix(1 0 0 1 0 0)" d="M56.693 743.972L293.244 743.972L293.244 743.972L293.244 349.819L293.244 349.819L56.693 349.819z" /></clipPath><clipPath id="5"><path id="" clip-rule="evenodd" transform="matrix(1 0 0 1 0 0)" d="M47.693 341.819L302.244 341.819L302.244 341.819L302.244 746.6801L302.244 746.6801L47.693 746.6801z" /></clipPath><clipPath id="6"><path id="" clip-rule="evenodd" transform="matrix(1 0 0 1 0 0)" d="M304.914 440.847L541.465 440.847L541.465 440.847L541.465 56.69299L541.465 56.69299L304.914 56.69299z" /></clipPath><clipPath id="7"><path id="" clip-rule="evenodd" transform="matrix(1 0 0 1 0 0)" d="M295.913 48.69299L550.465 48.69299L550.465 48.69299L550.465 434.29L550.465 434.29L295.913 434.29z" /></clipPath><clipPath id="8"><path id="" clip-rule="evenodd" transform="matrix(1 0 0 1 0 0)" d="M304.914 584.29L541.465 584.29L541.465 584.29L541.465 440.475L541.465 440.475L304.914 440.475z" /></clipPath><clipPath id="9"><path id="" clip-rule="evenodd" transform="matrix(1 0 0 1 0 0)" d="M295.913 432.475L550.465 432.475L550.465 432.475L550.465 586.998L550.465 586.998L295.913 586.998z" /></clipPath><clipPath id="10"><path id="" clip-rule="evenodd" transform="matrix(1 0 0 1 0 0)" d="M0 0L612 0L612 0L612 792L612 792L0 792z" /></clipPath></defs><g transform="matrix(1.333333 0 0 1.333333 0 0)"><g clip-path="url(#1)"><path id="1" transform="matrix(1 0 0 -1 0 792)" d="M59.5278 735.3072L56.6928 732.4722L56.6928 453.3242L59.5278 450.4892L290.4098 450.4892L293.2438 453.3242L293.2438 732.4722L290.4098 735.3072z" stroke="none" fill="#EAEBEC" fill-rule="nonzero" /><path id="2" transform="matrix(1 0 0 -1 0 792)" d="M62.862 656.414L287.075 656.414L287.075 681.918L62.862 681.918z" stroke="none" fill="#FFFEFE" fill-rule="nonzero" /><path id="3" transform="matrix(1 0 0 -1 0 792)" d="M62.8623 681.9178L287.0753 681.9178" stroke="#939597" stroke-width="0.5" fill="none" /><path id="4" transform="matrix(1 0 0 -1 0 792)" d="M62.862 641.745L287.075 641.745L287.075 661.084L62.862 661.084z" stroke="none" fill="#FFFEFE" fill-rule="nonzero" /><path id="5" transform="matrix(1 0 0 -1 0 792)" d="M63.8814 656.8312L286.5654 656.8312" stroke="#BBBDC0" stroke-width="0.51" stroke-linecap="round" stroke-dasharray="0.51,0.51" fill="none" /><path id="6" transform="matrix(1 0 0 -1 0 792)" d="M287.0753 656.8312L287.0753 656.8312M62.8623 656.8312L62.8623 656.8312" stroke="#BBBDC0" stroke-width="0.51" stroke-linecap="round" fill="none" /><path id="7" transform="matrix(1 0 0 -1 0 792)" d="M62.8623 641.5143L286.5233 641.5143" stroke="#939597" stroke-width="0.5" fill="none" /><g clip-path="url(#2)"><g><g clip-path="url(#3)"><path id="1043" transform="matrix(1 0 0 -1 0 792)" d="M59.6312 735.0571C 58.7352 734.1611 57.8392 733.2651 56.9432 732.3691L56.9432 732.3691L56.9432 453.4271C 57.8392 452.5311 58.7352 451.6351 59.6312 450.7391L59.6312 450.7391L290.3062 450.7391C 291.2022 451.6351 292.0982 452.5311 292.9942 453.4271L292.9942 453.4271L292.9942 732.3691C 292.0982 733.2651 291.2022 734.1611 290.3062 735.0571L290.3062 735.0571L59.6312 735.0571z" stroke="#000000" stroke-width="0.5" fill="none" stroke-opacity="0.4980392" /></g></g></g><path id="1044" transform="matrix(1 0 0 -1 0 792)" d="M59.5278 442.1808L56.6928 439.3458L56.6928 50.86279L59.5278 48.02777L290.4098 48.02777L293.2438 50.86279L293.2438 439.3458L290.4098 442.1808z" stroke="none" fill="#EAEBEC" fill-rule="nonzero" /><path id="1045" transform="matrix(1 0 0 -1 0 792)" d="M62.862 342.288L287.075 342.288L287.075 367.792L62.862 367.792z" stroke="none" fill="#FFFEFE" fill-rule="nonzero" /><path id="1046" transform="matrix(1 0 0 -1 0 792)" d="M62.8623 367.7916L287.0753 367.7916" stroke="#939597" stroke-width="0.5" fill="none" /><path id="1047" transform="matrix(1 0 0 -1 0 792)" d="M62.862 327.618L287.075 327.618L287.075 346.957L62.862 346.957z" stroke="none" fill="#FFFEFE" fill-rule="nonzero" /><path id="1048" transform="matrix(1 0 0 -1 0 792)" d="M63.8814 342.705L286.5654 342.705" stroke="#BBBDC0" stroke-width="0.51" stroke-linecap="round" stroke-dasharray="0.51,0.51" fill="none" /><path id="1049" transform="matrix(1 0 0 -1 0 792)" d="M287.0753 342.705L287.0753 342.705M62.8623 342.705L62.8623 342.705" stroke="#BBBDC0" stroke-width="0.51" stroke-linecap="round" fill="none" /><path id="1050" transform="matrix(1 0 0 -1 0 792)" d="M62.8623 327.3881L286.5233 327.3881" stroke="#939597" stroke-width="0.5" fill="none" /><g clip-path="url(#4)"><g><g clip-path="url(#5)"><path id="2535" transform="matrix(1 0 0 -1 0 792)" d="M59.6312 441.9309C 58.7352 441.0349 57.8392 440.1379 56.9432 439.2429L56.9432 439.2429L56.9432 50.96591C 57.8392 50.06992 58.7352 49.17392 59.6312 48.27789L59.6312 48.27789L290.3062 48.27789C 291.2022 49.17392 292.0982 50.06992 292.9942 50.96591L292.9942 50.96591L292.9942 439.2429L292.9942 439.2429L290.3062 441.9309L290.3062 441.9309L59.6312 441.9309z" stroke="#000000" stroke-width="0.5" fill="none" stroke-opacity="0.4980392" /></g></g></g><path id="2536" transform="matrix(1 0 0 -1 0 792)" d="M307.7478 735.3072L304.9138 732.4722L304.9138 362.9892L307.7478 360.1542L538.6298 360.1542L541.4638 362.9892L541.4638 732.4722L538.6298 735.3072z" stroke="none" fill="#EAEBEC" fill-rule="nonzero" /><path id="2537" transform="matrix(1 0 0 -1 0 792)" d="M311.083 635.414L535.296 635.414L535.296 660.918L311.083 660.918z" stroke="none" fill="#FFFEFE" fill-rule="nonzero" /><path id="2538" transform="matrix(1 0 0 -1 0 792)" d="M311.0827 660.9178L535.2957 660.9178" stroke="#939597" stroke-width="0.5" fill="none" /><path id="2539" transform="matrix(1 0 0 -1 0 792)" d="M311.083 620.745L535.296 620.745L535.296 640.084L311.083 640.084z" stroke="none" fill="#FFFEFE" fill-rule="nonzero" /><path id="2540" transform="matrix(1 0 0 -1 0 792)" d="M312.1018 635.8312L534.7858 635.8312" stroke="#BBBDC0" stroke-width="0.51" stroke-linecap="round" stroke-dasharray="0.51,0.51" fill="none" /><path id="2541" transform="matrix(1 0 0 -1 0 792)" d="M535.2957 635.8312L535.2957 635.8312M311.0827 635.8312L311.0827 635.8312" stroke="#BBBDC0" stroke-width="0.51" stroke-linecap="round" fill="none" /><path id="2542" transform="matrix(1 0 0 -1 0 792)" d="M311.0827 620.5143L534.7437 620.5143" stroke="#939597" stroke-width="0.5" fill="none" /><g clip-path="url(#6)"><g><g clip-path="url(#7)"><path id="3871" transform="matrix(1 0 0 -1 0 792)" d="M307.8517 735.0571C 306.9557 734.1611 306.0597 733.2641 305.1637 732.3691L305.1637 732.3691L305.1637 363.0921C 306.0597 362.1961 306.9557 361.3001 307.8517 360.4041L307.8517 360.4041L538.5267 360.4041C 539.4227 361.3001 540.3187 362.1961 541.2147 363.0921L541.2147 363.0921L541.2147 732.3691L541.2147 732.3691L538.5267 735.0571L538.5267 735.0571L307.8517 735.0571z" stroke="#000000" stroke-width="0.5" fill="none" stroke-opacity="0.4980392" /></g></g></g><path id="3872" transform="matrix(1 0 0 -1 0 792)" d="M307.7478 351.5247L304.9138 348.6897L304.9138 210.5447L307.7478 207.7097L538.6298 207.7097L541.4638 210.5447L541.4638 348.6897L538.6298 351.5247z" stroke="none" fill="#EAEBEC" fill-rule="nonzero" /><path id="3873" transform="matrix(1 0 0 -1 0 792)" d="M311.083 272.632L535.296 272.632L535.296 298.136L311.083 298.136z" stroke="none" fill="#FFFEFE" fill-rule="nonzero" /><path id="3874" transform="matrix(1 0 0 -1 0 792)" d="M311.0827 298.1354L535.2957 298.1354" stroke="#939597" stroke-width="0.5" fill="none" /><path id="3875" transform="matrix(1 0 0 -1 0 792)" d="M311.0827 272.4012L534.7437 272.4012" stroke="#939597" stroke-width="0.5" fill="none" /><g clip-path="url(#8)"><g><g clip-path="url(#9)"><path id="4228" transform="matrix(1 0 0 -1 0 792)" d="M307.8517 351.2747C 306.9557 350.3787 306.0597 349.4827 305.1637 348.5867L305.1637 348.5867L305.1637 210.6487C 306.0597 209.7527 306.9557 208.8567 307.8517 207.9607L307.8517 207.9607L538.5267 207.9607C 539.4227 208.8567 540.3187 209.7527 541.2147 210.6487L541.2147 210.6487L541.2147 348.5867C 540.3187 349.4827 539.4227 350.3787 538.5267 351.2747L538.5267 351.2747L307.8517 351.2747z" stroke="#000000" stroke-width="0.5" fill="none" stroke-opacity="0.4980392" /></g></g></g><g clip-path="url(#10)"><path id="4245" transform="matrix(1 0 0 -1 0 792)" d="M56.9448 32.702L56.9448 -12.691" stroke="#000000" stroke-width="0.75" stroke-linecap="round" stroke-dasharray="0.75,1.464" fill="none" /><path id="4246" transform="matrix(1 0 0 -1 0 792)" d="M56.9448 -13.7986L56.9448 -13.7986M56.9448 34.9164L56.9448 34.9164" stroke="#000000" stroke-width="0.75" stroke-linecap="round" fill="none" /></g></g></g></svg>