<svg xmlns="http://www.w3.org/2000/svg" xmlns:xlink="http://www.w3.org/1999/xlink" id="body_13" preserveAspectRatio="xMinYMin meet" viewBox="0 0 816 1056"><defs><clipPath id="1"><path id="" clip-rule="evenodd" transform="matrix(1 0 0 1 0 0)" d="M0 792L0 0L0 0L612 0L612 0L612 792L612 792L0 792z" /></clipPath><clipPath id="2"><path id="" clip-rule="evenodd" transform="matrix(1 0 0 1 0 0)" d="M0 0L612 0L612 0L612 792L612 792L0 792z" /></clipPath></defs><g transform="matrix(1.333333 0 0 1.333333 0 0)"><g clip-path="url(#1)"><path id="1" transform="matrix(1 0 0 -1 0 792)" d="M75.1181 727.1418L75.1181 735.3068" stroke="#BBBDC0" stroke-width="8" fill="none" /><path id="2" transform="matrix(1 0 0 -1 0 792)" d="M298.5827 518.5796L70.86571 518.5796" stroke="#000000" stroke-width="1" fill="none" /><path id="3" transform="matrix(1 0 0 -1 0 792)" d="M75.1181 494.1103L75.1181 502.2753" stroke="#BBBDC0" stroke-width="8" fill="none" /><path id="4" transform="matrix(1 0 0 -1 0 792)" d="M75.1181 245.4252L75.1181 253.5902" stroke="#BBBDC0" stroke-width="8" fill="none" /><path id="1593" transform="matrix(1 0 0 -1 0 792)" d="M323.3386 727.1418L323.3386 735.3068" stroke="#BBBDC0" stroke-width="8" fill="none" /><path id="1594" transform="matrix(1 0 0 -1 0 792)" d="M323.3386 555.4567L323.3386 563.6217" stroke="#BBBDC0" stroke-width="8" fill="none" /><path id="1595" transform="matrix(1 0 0 -1 0 792)" d="M323.3386 394.7717L323.3386 402.9367" stroke="#BBBDC0" stroke-width="8" fill="none" /><path id="1596" transform="matrix(1 0 0 -1 0 792)" d="M323.3386 245.0867L323.3386 253.2517" stroke="#BBBDC0" stroke-width="8" fill="none" /><g clip-path="url(#2)"><path id="3070" transform="matrix(1 0 0 -1 0 792)" d="M555.6614 32.702L555.6614 -12.691" stroke="#000000" stroke-width="0.75" stroke-linecap="round" stroke-dasharray="0.75,1.464" fill="none" /><path id="3071" transform="matrix(1 0 0 -1 0 792)" d="M555.6614 -13.7986L555.6614 -13.7986M555.6614 34.9164L555.6614 34.9164" stroke="#000000" stroke-width="0.75" stroke-linecap="round" fill="none" /></g></g></g></svg>