<svg xmlns="http://www.w3.org/2000/svg" xmlns:xlink="http://www.w3.org/1999/xlink" id="body_75" preserveAspectRatio="xMinYMin meet" viewBox="0 0 816 1056"><defs><clipPath id="1"><path id="" clip-rule="evenodd" transform="matrix(1 0 0 1 0 0)" d="M0 792L0 0L0 0L612 0L612 0L612 792L612 792L0 792z" /></clipPath><clipPath id="2"><path id="" clip-rule="evenodd" transform="matrix(1 0 0 1 0 0)" d="M70.866 253.176L307.417 253.176L307.417 253.176L307.417 56.69202L307.417 56.69202L70.866 56.69202z" /></clipPath><clipPath id="3"><path id="" clip-rule="evenodd" transform="matrix(1 0 0 1 0 0)" d="M61.8661 48.69299L316.417 48.69299L316.417 48.69299L316.417 246.385L316.417 246.385L61.8661 246.385z" /></clipPath><clipPath id="4"><path id="" clip-rule="evenodd" transform="matrix(1 0 0 1 0 0)" d="M70.866 439.9L307.417 439.9L307.417 439.9L307.417 252.917L307.417 252.917L70.866 252.917z" /></clipPath><clipPath id="5"><path id="" clip-rule="evenodd" transform="matrix(1 0 0 1 0 0)" d="M61.8662 244.917L316.417 244.917L316.417 244.917L316.417 442.608L316.417 442.608L61.8662 442.608z" /></clipPath><clipPath id="6"><path id="" clip-rule="evenodd" transform="matrix(1 0 0 1 0 0)" d="M70.866 655.238L307.417 655.238L307.417 655.238L307.417 449.754L307.417 449.754L70.866 449.754z" /></clipPath><clipPath id="7"><path id="" clip-rule="evenodd" transform="matrix(1 0 0 1 0 0)" d="M61.8662 441.754L316.417 441.754L316.417 441.754L316.417 657.946L316.417 657.946L61.8662 657.946z" /></clipPath><clipPath id="8"><path id="" clip-rule="evenodd" transform="matrix(1 0 0 1 0 0)" d="M319.087 255.119L555.638 255.119L555.638 255.119L555.638 56.69299L555.638 56.69299L319.087 56.69299z" /></clipPath><clipPath id="9"><path id="" clip-rule="evenodd" transform="matrix(1 0 0 1 0 0)" d="M310.087 48.69299L564.638 48.69299L564.638 48.69299L564.638 257.302L564.638 257.302L310.087 257.302z" /></clipPath><clipPath id="10"><path id="" clip-rule="evenodd" transform="matrix(1 0 0 1 0 0)" d="M319.087 462.641L555.638 462.641L555.638 462.641L555.638 263.159L555.638 263.159L319.087 263.159z" /></clipPath><clipPath id="11"><path id="" clip-rule="evenodd" transform="matrix(1 0 0 1 0 0)" d="M310.087 255.157L564.638 255.157L564.638 255.157L564.638 462.348L564.638 462.348L310.087 462.348z" /></clipPath><clipPath id="12"><path id="" clip-rule="evenodd" transform="matrix(1 0 0 1 0 0)" d="M319.087 687.066L555.638 687.066L555.638 687.066L555.638 468.798L555.638 468.798L319.087 468.798z" /></clipPath><clipPath id="13"><path id="" clip-rule="evenodd" transform="matrix(1 0 0 1 0 0)" d="M310.087 460.799L564.638 460.799L564.638 460.799L564.638 688.408L564.638 688.408L310.087 688.408z" /></clipPath><clipPath id="14"><path id="" clip-rule="evenodd" transform="matrix(1 0 0 1 0 0)" d="M0 0L612 0L612 0L612 792L612 792L0 792z" /></clipPath></defs><g transform="matrix(1.333333 0 0 1.333333 0 0)"><g clip-path="url(#1)"><path id="1" transform="matrix(1 0 0 -1 0 792)" d="M73.701 735.3072L70.866 732.4722L70.866 551.1582L73.701 548.3232L304.582 548.3232L307.417 551.1582L307.417 732.4722L304.582 735.3072z" stroke="none" fill="#EAEBEC" fill-rule="nonzero" /><path id="2" transform="matrix(1 0 0 -1 0 792)" d="M77.035 656.414L301.248 656.414L301.248 681.918L77.035 681.918z" stroke="none" fill="#FFFEFE" fill-rule="nonzero" /><path id="3" transform="matrix(1 0 0 -1 0 792)" d="M77.0354 681.9178L301.2484 681.9178" stroke="#939597" stroke-width="0.5" fill="none" /><path id="4" transform="matrix(1 0 0 -1 0 792)" d="M77.035 641.745L301.248 641.745L301.248 661.084L77.035 661.084z" stroke="none" fill="#FFFEFE" fill-rule="nonzero" /><path id="5" transform="matrix(1 0 0 -1 0 792)" d="M78.0546 656.8312L300.7386 656.8312" stroke="#BBBDC0" stroke-width="0.51" stroke-linecap="round" stroke-dasharray="0.51,0.51" fill="none" /><path id="6" transform="matrix(1 0 0 -1 0 792)" d="M301.2484 656.8312L301.2484 656.8312M77.0354 656.8312L77.0354 656.8312" stroke="#BBBDC0" stroke-width="0.51" stroke-linecap="round" fill="none" /><path id="7" transform="matrix(1 0 0 -1 0 792)" d="M77.0354 641.5143L300.6964 641.5143" stroke="#939597" stroke-width="0.5" fill="none" /><g clip-path="url(#2)"><g><g clip-path="url(#3)"><path id="566" transform="matrix(1 0 0 -1 0 792)" d="M73.8043 735.0571C 72.90829 734.1611 72.0123 733.2651 71.11629 732.3691L71.11629 732.3691L71.11629 551.2611C 72.0123 550.3651 72.90829 549.4691 73.8043 548.5731L73.8043 548.5731L304.4793 548.5731C 305.3753 549.4691 306.2713 550.3651 307.1673 551.2611L307.1673 551.2611L307.1673 732.3691C 306.2713 733.2651 305.3753 734.1611 304.4793 735.0571L304.4793 735.0571L73.8043 735.0571z" stroke="#000000" stroke-width="0.5" fill="none" stroke-opacity="0.4980392" /></g></g></g><path id="567" transform="matrix(1 0 0 -1 0 792)" d="M73.701 539.0829L70.866 536.2489L70.866 354.9339L73.701 352.0999L304.582 352.0999L307.417 354.9339L307.417 536.2489L304.582 539.0829z" stroke="none" fill="#EAEBEC" fill-rule="nonzero" /><path id="568" transform="matrix(1 0 0 -1 0 792)" d="M77.035 460.19L301.248 460.19L301.248 485.694L77.035 485.694z" stroke="none" fill="#FFFEFE" fill-rule="nonzero" /><path id="569" transform="matrix(1 0 0 -1 0 792)" d="M77.0355 485.694L301.2485 485.694" stroke="#939597" stroke-width="0.5" fill="none" /><path id="570" transform="matrix(1 0 0 -1 0 792)" d="M77.035 445.521L301.248 445.521L301.248 464.86L77.035 464.86z" stroke="none" fill="#FFFEFE" fill-rule="nonzero" /><path id="571" transform="matrix(1 0 0 -1 0 792)" d="M78.0546 460.6074L300.7386 460.6074" stroke="#BBBDC0" stroke-width="0.51" stroke-linecap="round" stroke-dasharray="0.51,0.51" fill="none" /><path id="572" transform="matrix(1 0 0 -1 0 792)" d="M301.2485 460.6074L301.2485 460.6074M77.0355 460.6074L77.0355 460.6074" stroke="#BBBDC0" stroke-width="0.51" stroke-linecap="round" fill="none" /><path id="573" transform="matrix(1 0 0 -1 0 792)" d="M77.0355 445.2905L300.6965 445.2905" stroke="#939597" stroke-width="0.5" fill="none" /><g clip-path="url(#4)"><g><g clip-path="url(#5)"><path id="1088" transform="matrix(1 0 0 -1 0 792)" d="M73.8044 538.8333C 72.90839 537.9373 72.0124 537.0413 71.11639 536.1453L71.11639 536.1453L71.11639 355.0373C 72.0124 354.1413 72.90839 353.2453 73.8044 352.3493L73.8044 352.3493L304.4794 352.3493L304.4794 352.3493L307.1674 355.0373L307.1674 355.0373L307.1674 536.1453C 306.2714 537.0413 305.3754 537.9373 304.4794 538.8333L304.4794 538.8333L73.8044 538.8333z" stroke="#000000" stroke-width="0.5" fill="none" stroke-opacity="0.4980392" /></g></g></g><path id="1089" transform="matrix(1 0 0 -1 0 792)" d="M73.701 342.2457L70.866 339.4117L70.866 139.5977L73.701 136.7617L304.582 136.7617L307.417 139.5977L307.417 339.4117L304.582 342.2457z" stroke="none" fill="#EAEBEC" fill-rule="nonzero" /><path id="1090" transform="matrix(1 0 0 -1 0 792)" d="M77.035 254.353L301.248 254.353L301.248 279.857L77.035 279.857z" stroke="none" fill="#FFFEFE" fill-rule="nonzero" /><path id="1091" transform="matrix(1 0 0 -1 0 792)" d="M77.0355 279.8568L301.2485 279.8568" stroke="#939597" stroke-width="0.5" fill="none" /><path id="1092" transform="matrix(1 0 0 -1 0 792)" d="M77.035 239.684L301.248 239.684L301.248 259.023L77.035 259.023z" stroke="none" fill="#FFFEFE" fill-rule="nonzero" /><path id="1093" transform="matrix(1 0 0 -1 0 792)" d="M78.0546 254.7702L300.7386 254.7702" stroke="#BBBDC0" stroke-width="0.51" stroke-linecap="round" stroke-dasharray="0.51,0.51" fill="none" /><path id="1094" transform="matrix(1 0 0 -1 0 792)" d="M301.2485 254.7702L301.2485 254.7702M77.0355 254.7702L77.0355 254.7702" stroke="#BBBDC0" stroke-width="0.51" stroke-linecap="round" fill="none" /><path id="1095" transform="matrix(1 0 0 -1 0 792)" d="M77.0355 239.4532L300.6965 239.4532" stroke="#939597" stroke-width="0.5" fill="none" /><g clip-path="url(#6)"><g><g clip-path="url(#7)"><path id="1667" transform="matrix(1 0 0 -1 0 792)" d="M73.8044 341.996C 72.90839 341.1 72.0124 340.204 71.11639 339.308L71.11639 339.308L71.11639 139.7C 72.0124 138.804 72.90839 137.908 73.8044 137.012L73.8044 137.012L304.4794 137.012L304.4794 137.012L307.1674 139.7L307.1674 139.7L307.1674 339.308C 306.2714 340.204 305.3754 341.1 304.4794 341.996L304.4794 341.996L73.8044 341.996z" stroke="#000000" stroke-width="0.5" fill="none" stroke-opacity="0.4980392" /></g></g></g><path id="1668" transform="matrix(1 0 0 -1 0 792)" d="M321.921 735.3072L319.087 732.4722L319.087 540.2402L321.921 537.4062L552.803 537.4062L555.638 540.2402L555.638 732.4722L552.803 735.3072z" stroke="none" fill="#EAEBEC" fill-rule="nonzero" /><path id="1669" transform="matrix(1 0 0 -1 0 792)" d="M325.256 656.414L549.469 656.414L549.469 681.918L325.256 681.918z" stroke="none" fill="#FFFEFE" fill-rule="nonzero" /><path id="1670" transform="matrix(1 0 0 -1 0 792)" d="M325.256 681.9178L549.469 681.9178" stroke="#939597" stroke-width="0.5" fill="none" /><path id="1671" transform="matrix(1 0 0 -1 0 792)" d="M325.256 641.745L549.469 641.745L549.469 661.084L325.256 661.084z" stroke="none" fill="#FFFEFE" fill-rule="nonzero" /><path id="1672" transform="matrix(1 0 0 -1 0 792)" d="M326.2751 656.8312L548.9591 656.8312" stroke="#BBBDC0" stroke-width="0.51" stroke-linecap="round" stroke-dasharray="0.51,0.51" fill="none" /><path id="1673" transform="matrix(1 0 0 -1 0 792)" d="M549.469 656.8312L549.469 656.8312M325.256 656.8312L325.256 656.8312" stroke="#BBBDC0" stroke-width="0.51" stroke-linecap="round" fill="none" /><path id="1674" transform="matrix(1 0 0 -1 0 792)" d="M325.256 641.5143L548.917 641.5143" stroke="#939597" stroke-width="0.5" fill="none" /><g clip-path="url(#8)"><g><g clip-path="url(#9)"><path id="2211" transform="matrix(1 0 0 -1 0 792)" d="M322.0249 735.0571C 321.1289 734.1611 320.2329 733.2651 319.3369 732.3691L319.3369 732.3691L319.3369 540.3441C 320.2329 539.4481 321.1289 538.5521 322.0249 537.6561L322.0249 537.6561L552.6999 537.6561C 553.5959 538.5521 554.4919 539.4481 555.3879 540.3441L555.3879 540.3441L555.3879 732.3691L555.3879 732.3691L552.6999 735.0571L552.6999 735.0571L322.0249 735.0571z" stroke="#000000" stroke-width="0.5" fill="none" stroke-opacity="0.4980392" /></g></g></g><path id="2212" transform="matrix(1 0 0 -1 0 792)" d="M321.9192 528.8418L319.0872 526.0088L319.0872 335.1938L321.9212 332.3588L552.8032 332.3588L555.6372 335.1938L555.6372 526.0088L552.8052 528.8418z" stroke="none" fill="#EAEBEC" fill-rule="nonzero" /><path id="2213" transform="matrix(1 0 0 -1 0 792)" d="M325.256 449.95L549.469 449.95L549.469 475.454L325.256 475.454z" stroke="none" fill="#FFFEFE" fill-rule="nonzero" /><path id="2214" transform="matrix(1 0 0 -1 0 792)" d="M325.256 475.454L549.469 475.454" stroke="#939597" stroke-width="0.5" fill="none" /><path id="2215" transform="matrix(1 0 0 -1 0 792)" d="M325.256 435.281L549.469 435.281L549.469 454.62L325.256 454.62z" stroke="none" fill="#FFFEFE" fill-rule="nonzero" /><path id="2216" transform="matrix(1 0 0 -1 0 792)" d="M326.2751 450.3674L548.9591 450.3674" stroke="#BBBDC0" stroke-width="0.51" stroke-linecap="round" stroke-dasharray="0.51,0.51" fill="none" /><path id="2217" transform="matrix(1 0 0 -1 0 792)" d="M549.469 450.3674L549.469 450.3674M325.256 450.3674L325.256 450.3674" stroke="#BBBDC0" stroke-width="0.51" stroke-linecap="round" fill="none" /><path id="2218" transform="matrix(1 0 0 -1 0 792)" d="M325.256 435.0505L548.917 435.0505" stroke="#939597" stroke-width="0.5" fill="none" /><g clip-path="url(#10)"><g><g clip-path="url(#11)"><path id="2796" transform="matrix(1 0 0 -1 0 792)" d="M322.0249 528.5933C 321.1289 527.6973 320.2329 526.8013 319.3369 525.9053L319.3369 525.9053L319.3369 335.2973C 320.2329 334.4013 321.1289 333.5053 322.0249 332.6093L322.0249 332.6093L552.6999 332.6093C 553.5959 333.5053 554.4919 334.4013 555.3879 335.2973L555.3879 335.2973L555.3879 525.9053L555.3879 525.9053L552.6999 528.5933L552.6999 528.5933L322.0249 528.5933z" stroke="#000000" stroke-width="0.5" fill="none" stroke-opacity="0.4980392" /></g></g></g><path id="2797" transform="matrix(1 0 0 -1 0 792)" d="M321.921 323.2017L319.087 320.3667L319.087 109.1347L321.921 106.3007L552.803 106.3007L555.638 109.1347L555.638 320.3667L552.803 323.2017z" stroke="none" fill="#EAEBEC" fill-rule="nonzero" /><path id="2798" transform="matrix(1 0 0 -1 0 792)" d="M325.256 244.308L549.469 244.308L549.469 269.812L325.256 269.812z" stroke="none" fill="#FFFEFE" fill-rule="nonzero" /><path id="2799" transform="matrix(1 0 0 -1 0 792)" d="M325.256 269.8121L549.469 269.8121" stroke="#939597" stroke-width="0.5" fill="none" /><path id="2800" transform="matrix(1 0 0 -1 0 792)" d="M325.256 229.639L549.469 229.639L549.469 248.978L325.256 248.978z" stroke="none" fill="#FFFEFE" fill-rule="nonzero" /><path id="2801" transform="matrix(1 0 0 -1 0 792)" d="M326.2751 244.7255L548.9591 244.7255" stroke="#BBBDC0" stroke-width="0.51" stroke-linecap="round" stroke-dasharray="0.51,0.51" fill="none" /><path id="2802" transform="matrix(1 0 0 -1 0 792)" d="M549.469 244.7255L549.469 244.7255M325.256 244.7255L325.256 244.7255" stroke="#BBBDC0" stroke-width="0.51" stroke-linecap="round" fill="none" /><path id="2803" transform="matrix(1 0 0 -1 0 792)" d="M325.256 229.4086L548.917 229.4086" stroke="#939597" stroke-width="0.5" fill="none" /><g clip-path="url(#12)"><g><g clip-path="url(#13)"><path id="3471" transform="matrix(1 0 0 -1 0 792)" d="M322.0249 322.9514C 321.1289 322.0554 320.2329 321.1594 319.3369 320.2634L319.3369 320.2634L319.3369 109.2384C 320.2329 108.3424 321.1289 107.4464 322.0249 106.5504L322.0249 106.5504L552.6999 106.5504C 553.5959 107.4464 554.4919 108.3424 555.3879 109.2384L555.3879 109.2384L555.3879 320.2634C 554.4919 321.1594 553.5959 322.0554 552.6999 322.9514L552.6999 322.9514L322.0249 322.9514z" stroke="#000000" stroke-width="0.5" fill="none" stroke-opacity="0.4980392" /></g></g></g><g clip-path="url(#14)"><path id="3488" transform="matrix(1 0 0 -1 0 792)" d="M555.6614 32.702L555.6614 -12.691" stroke="#000000" stroke-width="0.75" stroke-linecap="round" stroke-dasharray="0.75,1.464" fill="none" /><path id="3489" transform="matrix(1 0 0 -1 0 792)" d="M555.6614 -13.7986L555.6614 -13.7986M555.6614 34.9164L555.6614 34.9164" stroke="#000000" stroke-width="0.75" stroke-linecap="round" fill="none" /></g></g></g></svg>