<svg xmlns="http://www.w3.org/2000/svg" xmlns:xlink="http://www.w3.org/1999/xlink" id="body_61" preserveAspectRatio="xMinYMin meet" viewBox="0 0 816 1056"><defs><clipPath id="1"><path id="" clip-rule="evenodd" transform="matrix(1 0 0 1 0 0)" d="M0 792L0 0L0 0L612 0L612 0L612 792L612 792L0 792z" /></clipPath><clipPath id="2"><path id="" clip-rule="evenodd" transform="matrix(1 0 0 1 0 0)" d="M0 0L612 0L612 0L612 792L612 792L0 792z" /></clipPath></defs><g transform="matrix(1.333333 0 0 1.333333 0 0)"><g clip-path="url(#1)"><path id="1" transform="matrix(1 0 0 -1 0 792)" d="M171.213 131.775L307.276 131.775L307.276 97.77499L171.213 97.77499zM106.016 131.775L171.213 131.775L171.213 97.77499L106.016 97.77499zM70.866 131.775L106.016 131.775L106.016 97.77499L70.866 97.77499zM171.213 209.775L307.276 209.775L307.276 175.775L171.213 175.775zM106.016 209.775L171.213 209.775L171.213 175.775L106.016 175.775zM70.866 209.775L106.016 209.775L106.016 175.775L70.866 175.775zM171.213 277.775L307.276 277.775L307.276 253.775L171.213 253.775zM106.016 277.775L171.213 277.775L171.213 253.775L106.016 253.775zM70.866 277.775L106.016 277.775L106.016 253.775L70.866 253.775zM171.213 325.775L307.276 325.775L307.276 301.775L171.213 301.775zM106.016 325.775L171.213 325.775L171.213 301.775L106.016 301.775zM70.866 325.775L106.016 325.775L106.016 301.775L70.866 301.775zM171.213 373.775L307.276 373.775L307.276 349.775L171.213 349.775zM106.016 373.775L171.213 373.775L171.213 349.775L106.016 349.775zM70.866 373.775L106.016 373.775L106.016 349.775L70.866 349.775zM171.213 441.775L307.276 441.775L307.276 397.775L171.213 397.775zM106.016 441.775L171.213 441.775L171.213 397.775L106.016 397.775zM70.866 441.775L106.016 441.775L106.016 397.775L70.866 397.775zM171.213 529.775L307.276 529.775L307.276 495.775L171.213 495.775zM106.016 529.775L171.213 529.775L171.213 495.775L106.016 495.775zM70.866 529.775L106.016 529.775L106.016 495.775L70.866 495.775zM171.213 580.782L307.276 580.782L307.276 563.774L171.213 563.774zM106.016 580.782L171.213 580.782L171.213 563.774L106.016 563.774zM70.866 580.782L106.016 580.782L106.016 563.774L70.866 563.774zM171.213 614.798L307.276 614.798L307.276 597.79L171.213 597.79zM106.016 614.798L171.213 614.798L171.213 597.79L106.016 597.79zM70.866 614.798L106.016 614.798L106.016 597.79L70.866 597.79zM171.213 682.798L307.276 682.798L307.276 638.798L171.213 638.798zM106.016 682.798L171.213 682.798L171.213 638.798L106.016 638.798zM70.866 682.798L106.016 682.798L106.016 638.798L70.866 638.798z" stroke="none" fill="#E6E7E8" fill-rule="nonzero" /><path id="2" transform="matrix(1 0 0 -1 0 792)" d="M70.8661 717.2983L106.0161 717.2983" stroke="#000000" stroke-width="1" fill="none" /><path id="3" transform="matrix(1 0 0 -1 0 792)" d="M106.0157 717.2983L171.2127 717.2983" stroke="#000000" stroke-width="1" fill="none" /><path id="4" transform="matrix(1 0 0 -1 0 792)" d="M171.2126 717.2983L307.2756 717.2983" stroke="#000000" stroke-width="1" fill="none" /><path id="1734" transform="matrix(1 0 0 -1 0 792)" d="M419.433 194.798L555.496 194.798L555.496 130.798L419.433 130.798zM354.236 194.798L419.433 194.798L419.433 130.798L354.236 130.798zM319.087 194.798L354.237 194.798L354.237 130.798L319.087 130.798zM419.433 292.798L555.496 292.798L555.496 258.798L419.433 258.798zM354.236 292.798L419.433 292.798L419.433 258.798L354.236 258.798zM319.087 292.798L354.237 292.798L354.237 258.798L319.087 258.798zM419.433 350.798L555.496 350.798L555.496 326.798L419.433 326.798zM354.236 350.798L419.433 350.798L419.433 326.798L354.236 326.798zM319.087 350.798L354.237 350.798L354.237 326.798L319.087 326.798zM419.433 398.798L555.496 398.798L555.496 374.798L419.433 374.798zM354.236 398.798L419.433 398.798L419.433 374.798L354.236 374.798zM319.087 398.798L354.237 398.798L354.237 374.798L319.087 374.798zM419.433 506.798L555.496 506.798L555.496 452.798L419.433 452.798zM354.236 506.798L419.433 506.798L419.433 452.798L354.236 452.798zM319.087 506.798L354.237 506.798L354.237 452.798L319.087 452.798zM419.433 584.798L555.496 584.798L555.496 540.798L419.433 540.798zM354.236 584.798L419.433 584.798L419.433 540.798L354.236 540.798zM319.087 584.798L354.237 584.798L354.237 540.798L319.087 540.798zM419.433 672.798L555.496 672.798L555.496 648.798L419.433 648.798zM354.236 672.798L419.433 672.798L419.433 648.798L354.236 648.798zM319.087 672.798L354.237 672.798L354.237 648.798L319.087 648.798z" stroke="none" fill="#E6E7E8" fill-rule="nonzero" /><path id="1735" transform="matrix(1 0 0 -1 0 792)" d="M319.0866 717.2983L354.2366 717.2983" stroke="#000000" stroke-width="1" fill="none" /><path id="1736" transform="matrix(1 0 0 -1 0 792)" d="M354.2362 717.2983L419.4332 717.2983" stroke="#000000" stroke-width="1" fill="none" /><path id="1737" transform="matrix(1 0 0 -1 0 792)" d="M419.4331 717.2983L555.4961 717.2983" stroke="#000000" stroke-width="1" fill="none" /><g clip-path="url(#2)"><path id="3471" transform="matrix(1 0 0 -1 0 792)" d="M555.6614 32.702L555.6614 -12.691" stroke="#000000" stroke-width="0.75" stroke-linecap="round" stroke-dasharray="0.75,1.464" fill="none" /><path id="3472" transform="matrix(1 0 0 -1 0 792)" d="M555.6614 -13.7986L555.6614 -13.7986M555.6614 34.9164L555.6614 34.9164" stroke="#000000" stroke-width="0.75" stroke-linecap="round" fill="none" /></g></g></g></svg>