<svg xmlns="http://www.w3.org/2000/svg" xmlns:xlink="http://www.w3.org/1999/xlink" id="body_66" preserveAspectRatio="xMinYMin meet" viewBox="0 0 816 1056"><defs><clipPath id="1"><path id="" clip-rule="evenodd" transform="matrix(1 0 0 1 0 0)" d="M0 792L0 0L0 0L612 0L612 0L612 792L612 792L0 792z" /></clipPath><clipPath id="2"><path id="" clip-rule="evenodd" transform="matrix(1 0 0 1 0 0)" d="M0 0L612 0L612 0L612 792L612 792L0 792z" /></clipPath></defs><g transform="matrix(1.333333 0 0 1.333333 0 0)"><g clip-path="url(#1)"><path id="1" transform="matrix(1 0 0 -1 0 792)" d="M56.693 384.495L85.039 384.495L85.039 196.118L56.693 196.118zM56.693 581.376L85.039 581.376L85.039 392.999L56.693 392.999zM56.693 735.307L85.039 735.307L85.039 589.88L56.693 589.88z" stroke="none" fill="#404042" fill-rule="nonzero" /><path id="2" transform="matrix(1 0 0 -1 0 792)" d="M408.189 581.376L541.134 581.376L541.134 563.077L408.189 563.077zM261.638 581.376L408.189 581.376L408.189 563.077L261.638 563.077zM121.89 581.376L261.638 581.376L261.638 563.077L121.89 563.077zM85.039 581.376L121.889 581.376L121.889 563.077L85.039 563.077zM408.189 735.307L541.134 735.307L541.134 717.008L408.189 717.008zM261.638 735.307L408.189 735.307L408.189 717.008L261.638 717.008zM121.89 735.307L261.638 735.307L261.638 717.008L121.89 717.008zM85.039 735.307L121.889 735.307L121.889 717.008L85.039 717.008z" stroke="none" fill="#EAEBEC" fill-rule="nonzero" /><path id="3" transform="matrix(1 0 0 -1 0 792)" d="M408.189 224.464L541.134 224.464L541.134 196.118L408.189 196.118zM261.638 224.464L408.189 224.464L408.189 196.118L261.638 196.118zM121.89 224.464L261.638 224.464L261.638 196.118L121.89 196.118zM85.039 224.464L121.889 224.464L121.889 196.118L85.039 196.118zM408.189 281.157L541.134 281.157L541.134 252.811L408.189 252.811zM261.638 281.157L408.189 281.157L408.189 252.811L261.638 252.811zM121.89 281.157L261.638 281.157L261.638 252.811L121.89 252.811zM85.039 281.157L121.889 281.157L121.889 252.811L85.039 252.811zM408.189 337.85L541.134 337.85L541.134 309.504L408.189 309.504zM261.638 337.85L408.189 337.85L408.189 309.504L261.638 309.504zM121.89 337.85L261.638 337.85L261.638 309.504L121.89 309.504zM85.039 337.85L121.889 337.85L121.889 309.504L85.039 309.504zM408.189 421.346L541.134 421.346L541.134 393L408.189 393zM261.638 421.346L408.189 421.346L408.189 393L261.638 393zM121.89 421.346L261.638 421.346L261.638 393L121.89 393zM85.039 421.346L121.889 421.346L121.889 393L85.039 393zM408.189 478.038L541.134 478.038L541.134 449.692L408.189 449.692zM261.638 478.038L408.189 478.038L408.189 449.692L261.638 449.692zM121.89 478.038L261.638 478.038L261.638 449.692L121.89 449.692zM85.039 478.038L121.889 478.038L121.889 449.692L85.039 449.692zM408.189 534.731L541.134 534.731L541.134 506.385L408.189 506.385zM261.638 534.731L408.189 534.731L408.189 506.385L261.638 506.385zM121.89 534.731L261.638 534.731L261.638 506.385L121.89 506.385zM85.039 534.731L121.889 534.731L121.889 506.385L85.039 506.385zM408.189 609.723L541.134 609.723L541.134 589.88L408.189 589.88zM261.638 609.723L408.189 609.723L408.189 589.88L261.638 589.88zM121.89 609.723L261.638 609.723L261.638 589.88L121.89 589.88zM85.039 609.723L121.889 609.723L121.889 589.88L85.039 589.88zM408.189 658.762L541.134 658.762L541.134 630.416L408.189 630.416zM261.638 658.762L408.189 658.762L408.189 630.416L261.638 630.416zM121.89 658.762L261.638 658.762L261.638 630.416L121.89 630.416zM85.039 658.762L121.889 658.762L121.889 630.416L85.039 630.416zM408.189 697.03L541.134 697.03L541.134 677.187L408.189 677.187zM261.638 697.03L408.189 697.03L408.189 677.187L261.638 677.187zM121.89 697.03L261.638 697.03L261.638 677.187L121.89 677.187zM85.039 697.03L121.889 697.03L121.889 677.187L85.039 677.187z" stroke="none" fill="#F0F1F1" fill-rule="nonzero" /><path id="4" transform="matrix(1 0 0 -1 0 792)" d="M85.0394 563.0778L121.8894 563.0778" stroke="#000000" stroke-width="1" fill="none" /><path id="5" transform="matrix(1 0 0 -1 0 792)" d="M121.8898 563.0778L261.6378 563.0778" stroke="#000000" stroke-width="1" fill="none" /><path id="6" transform="matrix(1 0 0 -1 0 792)" d="M261.6378 563.0778L408.1888 563.0778" stroke="#000000" stroke-width="1" fill="none" /><path id="7" transform="matrix(1 0 0 -1 0 792)" d="M408.189 563.0778L541.134 563.0778" stroke="#000000" stroke-width="1" fill="none" /><path id="8" transform="matrix(1 0 0 -1 0 792)" d="M85.0394 717.0086L121.8894 717.0086" stroke="#000000" stroke-width="1" fill="none" /><path id="9" transform="matrix(1 0 0 -1 0 792)" d="M121.8898 717.0086L261.6378 717.0086" stroke="#000000" stroke-width="1" fill="none" /><path id="10" transform="matrix(1 0 0 -1 0 792)" d="M261.6378 717.0086L408.1888 717.0086" stroke="#000000" stroke-width="1" fill="none" /><path id="11" transform="matrix(1 0 0 -1 0 792)" d="M408.189 717.0086L541.134 717.0086" stroke="#000000" stroke-width="1" fill="none" /><path id="12" transform="matrix(1 0 0 -1 0 792)" d="M82.205 726.803L65.162 726.803L65.162 598.384L82.205 598.384z" stroke="none" fill="#404042" fill-rule="nonzero" /><path id="13" transform="matrix(1 0 0 -1 0 792)" d="M68.7501 719.6246C 68.7501 717.5606 69.6981 716.1926 71.1861 716.1926C 72.9301 716.1926 73.5061 718.1606 73.9701 719.6486C 74.4501 721.1846 74.8701 722.4446 76.0701 722.4446C 77.0781 722.4446 77.8101 721.5446 77.8101 719.8646C 77.8101 718.2487 77.1381 717.2126 76.1781 717.0686C 76.0341 717.0686 75.9381 716.9727 75.9381 716.8286L75.9381 716.8286L75.9381 716.5646C 75.9381 716.4686 76.0901 716.3726 76.2021 716.3726C 77.5461 716.4686 78.4701 717.9126 78.4701 719.8646C 78.4701 721.8966 77.4781 723.1886 76.0221 723.1886C 74.3261 723.1886 73.7501 721.3886 73.2861 719.8526C 72.8061 718.2686 72.3661 716.9486 71.1501 716.9486C 70.1421 716.9486 69.4101 717.8966 69.4101 719.6246C 69.4101 721.3206 70.0701 722.4086 71.0301 722.5526C 71.1581 722.5686 71.2541 722.6606 71.2701 722.8046L71.2701 722.8046L71.2701 723.0086C 71.2701 723.1526 71.1341 723.2646 71.0061 723.2487C 69.6621 723.1526 68.7501 721.6566 68.7501 719.6246z" stroke="none" fill="#FFFEFE" fill-rule="evenodd" /><path id="14" transform="matrix(1 0 0 -1 0 792)" d="M77.5941 711.5006C 77.5941 711.4046 77.5221 711.3326 77.4261 711.3326L77.4261 711.3326L69.1461 711.3326C 69.0181 711.3326 68.9301 711.2446 68.9301 711.1166L68.9301 711.1166L68.9301 710.8406C 68.9301 710.7286 69.0181 710.6246 69.1461 710.6246L69.1461 710.6246L77.4261 710.6246C 77.5221 710.6246 77.5941 710.5526 77.5941 710.4566L77.5941 710.4566L77.5941 707.4566C 77.5941 707.3446 77.6821 707.2406 77.8101 707.2406L77.8101 707.2406L78.0741 707.2406C 78.1861 707.2406 78.2901 707.3446 78.2901 707.4566L78.2901 707.4566L78.2901 714.4886C 78.2901 714.6166 78.1861 714.7047 78.0741 714.7047L78.0741 714.7047L77.8101 714.7047C 77.6821 714.7047 77.5941 714.6166 77.5941 714.4886z" stroke="none" fill="#FFFEFE" fill-rule="evenodd" /><path id="15" transform="matrix(1 0 0 -1 0 792)" d="M69.1461 704.9727C 69.0181 704.9727 68.9301 704.8846 68.9301 704.7567L68.9301 704.7567L68.9301 704.4807C 68.9301 704.3687 69.0181 704.2646 69.1461 704.2646L69.1461 704.2646L72.0741 704.2646C 72.1701 704.2646 72.2421 704.1926 72.2421 704.0966L72.2421 704.0966L72.2421 700.8446C 72.2421 700.7966 72.2421 700.7366 72.2421 700.6886C 72.2421 700.5927 72.1941 700.5366 72.1461 700.4726L72.1461 700.4726L69.1101 698.3126C 68.9981 698.2487 68.9301 698.1206 68.9301 697.9766L68.9301 697.9766L68.9301 697.5446C 68.9301 697.4486 69.0141 697.4006 69.1101 697.4486L69.1101 697.4486L72.2421 699.6926C 72.3061 699.7406 72.4021 699.7126 72.4341 699.6326C 72.8821 698.3687 73.9981 697.6526 75.2781 697.6526C 76.8941 697.6526 78.2901 698.8286 78.2901 700.8446L78.2901 700.8446L78.2901 704.7567C 78.2901 704.8846 78.1861 704.9727 78.0741 704.9727zM75.2661 698.3486C 74.0181 698.3486 72.9141 699.2366 72.9141 700.8687L72.9141 700.8687L72.9141 704.0966C 72.9141 704.1926 72.9861 704.2646 73.0821 704.2646L73.0821 704.2646L77.4501 704.2646C 77.5461 704.2646 77.6181 704.1926 77.6181 704.0966L77.6181 704.0966L77.6181 700.8687C 77.6181 699.2366 76.4981 698.3486 75.2661 698.3486z" stroke="none" fill="#FFFEFE" fill-rule="evenodd" /><path id="16" transform="matrix(1 0 0 -1 0 792)" d="M68.9301 688.6286C 68.9301 688.5166 69.0181 688.4126 69.1461 688.4126L69.1461 688.4126L69.4101 688.4126C 69.5221 688.4126 69.6261 688.5166 69.6261 688.6286L69.6261 688.6286L69.6261 693.9686C 69.6261 694.0646 69.6981 694.1366 69.7941 694.1366L69.7941 694.1366L73.0221 694.1366C 73.1181 694.1366 73.1901 694.0646 73.1901 693.9686L73.1901 693.9686L73.1901 689.4807C 73.1901 689.3687 73.2781 689.2646 73.4061 689.2646L73.4061 689.2646L73.6461 689.2646C 73.7581 689.2646 73.8621 689.3687 73.8621 689.4807L73.8621 689.4807L73.8621 693.9686C 73.8621 694.0646 73.9341 694.1366 74.0301 694.1366L74.0301 694.1366L77.4261 694.1366C 77.5221 694.1366 77.5941 694.0646 77.5941 693.9686L77.5941 693.9686L77.5941 688.6286C 77.5941 688.5166 77.6821 688.4126 77.8101 688.4126L77.8101 688.4126L78.0741 688.4126C 78.1861 688.4126 78.2901 688.5166 78.2901 688.6286L78.2901 688.6286L78.2901 694.6286C 78.2901 694.7567 78.1861 694.8446 78.0741 694.8446L78.0741 694.8446L69.1461 694.8446C 69.0181 694.8446 68.9301 694.7567 68.9301 694.6286z" stroke="none" fill="#FFFEFE" fill-rule="evenodd" /><path id="17" transform="matrix(1 0 0 -1 0 792)" d="M76.8981 685.0166C 76.9461 685.0166 76.9821 684.9566 76.9341 684.9086L76.9341 684.9086L69.0981 678.6686C 68.9861 678.5886 68.9301 678.4646 68.9301 678.3206L68.9301 678.3206L68.9301 678.1166C 68.9301 678.0046 69.0181 677.9006 69.1461 677.9006L69.1461 677.9006L78.0741 677.9006C 78.1861 677.9006 78.2901 678.0046 78.2901 678.1166L78.2901 678.1166L78.2901 678.3926C 78.2901 678.5206 78.1861 678.6086 78.0741 678.6086L78.0741 678.6086L70.3101 678.6086C 70.2461 678.6086 70.2261 678.6846 70.2741 678.7166L70.2741 678.7166L78.1221 684.9566C 78.2181 685.0526 78.2901 685.1766 78.2901 685.3046L78.2901 685.3046L78.2901 685.5086C 78.2901 685.6366 78.1861 685.7246 78.0741 685.7246L78.0741 685.7246L69.1461 685.7246C 69.0181 685.7246 68.9301 685.6366 68.9301 685.5086L68.9301 685.5086L68.9301 685.2326C 68.9301 685.1206 69.0181 685.0166 69.1461 685.0166z" stroke="none" fill="#FFFEFE" fill-rule="evenodd" /><path id="18" transform="matrix(1 0 0 -1 0 792)" d="M73.1181 667.0526C 73.1181 666.9566 73.0461 666.8846 72.9501 666.8846L72.9501 666.8846L71.6181 666.8846C 71.5221 666.8846 71.3981 666.9207 71.3181 666.9686C 70.1821 667.7366 69.4581 668.9886 69.4581 670.4126C 69.4581 672.7166 71.3061 674.5766 73.6101 674.5766C 75.8821 674.5766 77.7621 672.7166 77.7621 670.4126C 77.7621 669.1486 77.1621 667.9886 76.2501 667.2206C 76.1541 667.1406 76.1341 667.0046 76.2141 666.9086L76.2141 666.9086L76.3701 666.6806C 76.4181 666.5846 76.5621 666.5686 76.6581 666.6326C 77.7621 667.5446 78.4701 668.8926 78.4701 670.4126C 78.4701 673.1166 76.2821 675.2966 73.6101 675.2966C 70.9221 675.2966 68.7501 673.1166 68.7501 670.4126C 68.7501 669.0046 69.3781 667.7166 70.4181 666.9326C 70.4661 666.9006 70.4421 666.8366 70.3941 666.8366L70.3941 666.8366L70.3701 666.8246C 70.2901 666.8246 70.1461 666.8126 70.0821 666.8126L70.0821 666.8126L69.1461 666.8126C 69.0181 666.8126 68.9301 666.7246 68.9301 666.5966L68.9301 666.5966L68.9301 666.4286C 68.9301 666.3167 69.0181 666.2126 69.1461 666.2126L69.1461 666.2126L73.5261 666.2126C 73.6381 666.2126 73.7421 666.3167 73.7421 666.4286L73.7421 666.4286L73.7421 670.0886C 73.7421 670.2166 73.6381 670.3046 73.5261 670.3046L73.5261 670.3046L73.3341 670.3046C 73.2061 670.3046 73.1181 670.2166 73.1181 670.0886z" stroke="none" fill="#FFFEFE" fill-rule="evenodd" /><path id="19" transform="matrix(1 0 0 -1 0 792)" d="M77.5941 661.7006C 77.5941 661.6046 77.5221 661.5327 77.4261 661.5327L77.4261 661.5327L69.1461 661.5327C 69.0181 661.5327 68.9301 661.4446 68.9301 661.3167L68.9301 661.3167L68.9301 661.0406C 68.9301 660.9286 69.0181 660.8246 69.1461 660.8246L69.1461 660.8246L77.4261 660.8246C 77.5221 660.8246 77.5941 660.7526 77.5941 660.6566L77.5941 660.6566L77.5941 657.6566C 77.5941 657.5446 77.6821 657.4406 77.8101 657.4406L77.8101 657.4406L78.0741 657.4406C 78.1861 657.4406 78.2901 657.5446 78.2901 657.6566L78.2901 657.6566L78.2901 664.6887C 78.2901 664.8167 78.1861 664.9047 78.0741 664.9047L78.0741 664.9047L77.8101 664.9047C 77.6821 664.9047 77.5941 664.8167 77.5941 664.6887z" stroke="none" fill="#FFFEFE" fill-rule="evenodd" /><path id="20" transform="matrix(1 0 0 -1 0 792)" d="M74.0301 648.0327C 73.9341 648.0327 73.8621 648.1046 73.8621 648.2006L73.8621 648.2006L73.8621 654.2966C 73.8621 654.3926 73.9341 654.4647 74.0301 654.4647L74.0301 654.4647L78.0741 654.4647C 78.1861 654.4647 78.2901 654.5687 78.2901 654.6807L78.2901 654.6807L78.2901 654.9567C 78.2901 655.0847 78.1861 655.1726 78.0741 655.1726L78.0741 655.1726L69.1461 655.1726C 69.0181 655.1726 68.9301 655.0847 68.9301 654.9567L68.9301 654.9567L68.9301 654.6807C 68.9301 654.5687 69.0181 654.4647 69.1461 654.4647L69.1461 654.4647L73.0221 654.4647C 73.1181 654.4647 73.1901 654.3926 73.1901 654.2966L73.1901 654.2966L73.1901 648.2006C 73.1901 648.1046 73.1181 648.0327 73.0221 648.0327L73.0221 648.0327L69.1461 648.0327C 69.0181 648.0327 68.9301 647.9446 68.9301 647.8167L68.9301 647.8167L68.9301 647.5406C 68.9301 647.4286 69.0181 647.3246 69.1461 647.3246L69.1461 647.3246L78.0741 647.3246C 78.1861 647.3246 78.2901 647.4286 78.2901 647.5406L78.2901 647.5406L78.2901 647.8167C 78.2901 647.9446 78.1861 648.0327 78.0741 648.0327z" stroke="none" fill="#FFFEFE" fill-rule="evenodd" /><path id="470" transform="matrix(1 0 0 -1 0 792)" d="M82.205 572.872L65.162 572.872L65.162 401.503L82.205 401.503z" stroke="none" fill="#404042" fill-rule="nonzero" /><path id="471" transform="matrix(1 0 0 -1 0 792)" d="M68.9301 568.2018C 68.9301 568.0898 69.0181 567.9858 69.1461 567.9858L69.1461 567.9858L72.7101 567.9858C 72.8061 567.9858 72.8781 567.9138 72.8781 567.8178L72.8781 567.8178L72.8781 563.4498C 72.8781 563.3378 72.9661 563.2338 73.0941 563.2338L73.0941 563.2338L73.3341 563.2338C 73.4461 563.2338 73.5501 563.3378 73.5501 563.4498L73.5501 563.4498L73.5501 567.8178C 73.5501 567.9138 73.6221 567.9858 73.7181 567.9858L73.7181 567.9858L77.4261 567.9858C 77.5221 567.9858 77.5941 567.9138 77.5941 567.8178L77.5941 567.8178L77.5941 562.7178C 77.5941 562.6058 77.6821 562.5018 77.8101 562.5018L77.8101 562.5018L78.0741 562.5018C 78.1861 562.5018 78.2901 562.6058 78.2901 562.7178L78.2901 562.7178L78.2901 568.4778C 78.2901 568.6058 78.1861 568.6938 78.0741 568.6938L78.0741 568.6938L69.1461 568.6938C 69.0181 568.6938 68.9301 568.6058 68.9301 568.4778z" stroke="none" fill="#FFFEFE" fill-rule="evenodd" /><path id="472" transform="matrix(1 0 0 -1 0 792)" d="M69.1461 559.8738C 69.0181 559.8738 68.9301 559.7858 68.9301 559.6578L68.9301 559.6578L68.9301 559.3818C 68.9301 559.2698 69.0181 559.1658 69.1461 559.1658L69.1461 559.1658L78.0741 559.1658C 78.1861 559.1658 78.2901 559.2698 78.2901 559.3818L78.2901 559.3818L78.2901 559.6578C 78.2901 559.7858 78.1861 559.8738 78.0741 559.8738z" stroke="none" fill="#FFFEFE" fill-rule="evenodd" /><path id="473" transform="matrix(1 0 0 -1 0 792)" d="M76.8981 555.1818C 76.9461 555.1818 76.9821 555.1218 76.9341 555.0738L76.9341 555.0738L69.0981 548.8338C 68.9861 548.7538 68.9301 548.6298 68.9301 548.4858L68.9301 548.4858L68.9301 548.2818C 68.9301 548.1698 69.0181 548.0658 69.1461 548.0658L69.1461 548.0658L78.0741 548.0658C 78.1861 548.0658 78.2901 548.1698 78.2901 548.2818L78.2901 548.2818L78.2901 548.5578C 78.2901 548.6858 78.1861 548.7738 78.0741 548.7738L78.0741 548.7738L70.3101 548.7738C 70.2461 548.7738 70.2261 548.8498 70.2741 548.8818L70.2741 548.8818L78.1221 555.1218C 78.2181 555.2178 78.2901 555.3418 78.2901 555.4698L78.2901 555.4698L78.2901 555.6738C 78.2901 555.8018 78.1861 555.8898 78.0741 555.8898L78.0741 555.8898L69.1461 555.8898C 69.0181 555.8898 68.9301 555.8018 68.9301 555.6738L68.9301 555.6738L68.9301 555.3978C 68.9301 555.2858 69.0181 555.1818 69.1461 555.1818z" stroke="none" fill="#FFFEFE" fill-rule="evenodd" /><path id="474" transform="matrix(1 0 0 -1 0 792)" d="M68.9301 538.5738C 68.9301 538.4618 69.0181 538.3578 69.1461 538.3578L69.1461 538.3578L69.4101 538.3578C 69.5221 538.3578 69.6261 538.4618 69.6261 538.5738L69.6261 538.5738L69.6261 543.9138C 69.6261 544.0098 69.6981 544.0818 69.7941 544.0818L69.7941 544.0818L73.0221 544.0818C 73.1181 544.0818 73.1901 544.0098 73.1901 543.9138L73.1901 543.9138L73.1901 539.4258C 73.1901 539.3138 73.2781 539.2098 73.4061 539.2098L73.4061 539.2098L73.6461 539.2098C 73.7581 539.2098 73.8621 539.3138 73.8621 539.4258L73.8621 539.4258L73.8621 543.9138C 73.8621 544.0098 73.9341 544.0818 74.0301 544.0818L74.0301 544.0818L77.4261 544.0818C 77.5221 544.0818 77.5941 544.0098 77.5941 543.9138L77.5941 543.9138L77.5941 538.5738C 77.5941 538.4618 77.6821 538.3578 77.8101 538.3578L77.8101 538.3578L78.0741 538.3578C 78.1861 538.3578 78.2901 538.4618 78.2901 538.5738L78.2901 538.5738L78.2901 544.5738C 78.2901 544.7018 78.1861 544.7898 78.0741 544.7898L78.0741 544.7898L69.1461 544.7898C 69.0181 544.7898 68.9301 544.7018 68.9301 544.5738z" stroke="none" fill="#FFFEFE" fill-rule="evenodd" /><path id="475" transform="matrix(1 0 0 -1 0 792)" d="M68.7501 532.9098C 68.7501 530.8458 69.6981 529.4778 71.1861 529.4778C 72.9301 529.4778 73.5061 531.4458 73.9701 532.9338C 74.4501 534.4698 74.8701 535.7298 76.0701 535.7298C 77.0781 535.7298 77.8101 534.8298 77.8101 533.1498C 77.8101 531.5338 77.1381 530.4978 76.1781 530.3538C 76.0341 530.3538 75.9381 530.2578 75.9381 530.1138L75.9381 530.1138L75.9381 529.8498C 75.9381 529.7538 76.0901 529.6578 76.2021 529.6578C 77.5461 529.7538 78.4701 531.1978 78.4701 533.1498C 78.4701 535.1818 77.4781 536.4738 76.0221 536.4738C 74.3261 536.4738 73.7501 534.6738 73.2861 533.1378C 72.8061 531.5538 72.3661 530.2338 71.1501 530.2338C 70.1421 530.2338 69.4101 531.1818 69.4101 532.9098C 69.4101 534.6058 70.0701 535.6938 71.0301 535.8378C 71.1581 535.8538 71.2541 535.9458 71.2701 536.0898L71.2701 536.0898L71.2701 536.2938C 71.2701 536.4378 71.1341 536.5498 71.0061 536.5338C 69.6621 536.4378 68.7501 534.9418 68.7501 532.9098z" stroke="none" fill="#FFFEFE" fill-rule="evenodd" /><path id="476" transform="matrix(1 0 0 -1 0 792)" d="M68.7501 523.8618C 68.7501 521.7978 69.6981 520.4298 71.1861 520.4298C 72.9301 520.4298 73.5061 522.3978 73.9701 523.8858C 74.4501 525.4218 74.8701 526.6818 76.0701 526.6818C 77.0781 526.6818 77.8101 525.7818 77.8101 524.1018C 77.8101 522.4858 77.1381 521.4498 76.1781 521.3058C 76.0341 521.3058 75.9381 521.2098 75.9381 521.0658L75.9381 521.0658L75.9381 520.8018C 75.9381 520.7058 76.0901 520.6098 76.2021 520.6098C 77.5461 520.7058 78.4701 522.1498 78.4701 524.1018C 78.4701 526.1338 77.4781 527.4258 76.0221 527.4258C 74.3261 527.4258 73.7501 525.6258 73.2861 524.0898C 72.8061 522.5058 72.3661 521.1858 71.1501 521.1858C 70.1421 521.1858 69.4101 522.1338 69.4101 523.8618C 69.4101 525.5578 70.0701 526.6458 71.0301 526.7898C 71.1581 526.8058 71.2541 526.8978 71.2701 527.0418L71.2701 527.0418L71.2701 527.2458C 71.2701 527.3898 71.1341 527.5018 71.0061 527.4858C 69.6621 527.3898 68.7501 525.8938 68.7501 523.8618z" stroke="none" fill="#FFFEFE" fill-rule="evenodd" /><path id="477" transform="matrix(1 0 0 -1 0 792)" d="M68.9301 511.5978C 68.9301 511.4858 69.0181 511.3818 69.1461 511.3818L69.1461 511.3818L69.4101 511.3818C 69.5221 511.3818 69.6261 511.4858 69.6261 511.5978L69.6261 511.5978L69.6261 516.9378C 69.6261 517.0338 69.6981 517.1058 69.7941 517.1058L69.7941 517.1058L73.0221 517.1058C 73.1181 517.1058 73.1901 517.0338 73.1901 516.9378L73.1901 516.9378L73.1901 512.4498C 73.1901 512.3378 73.2781 512.2338 73.4061 512.2338L73.4061 512.2338L73.6461 512.2338C 73.7581 512.2338 73.8621 512.3378 73.8621 512.4498L73.8621 512.4498L73.8621 516.9378C 73.8621 517.0338 73.9341 517.1058 74.0301 517.1058L74.0301 517.1058L77.4261 517.1058C 77.5221 517.1058 77.5941 517.0338 77.5941 516.9378L77.5941 516.9378L77.5941 511.5978C 77.5941 511.4858 77.6821 511.3818 77.8101 511.3818L77.8101 511.3818L78.0741 511.3818C 78.1861 511.3818 78.2901 511.4858 78.2901 511.5978L78.2901 511.5978L78.2901 517.5978C 78.2901 517.7258 78.1861 517.8138 78.0741 517.8138L78.0741 517.8138L69.1461 517.8138C 69.0181 517.8138 68.9301 517.7258 68.9301 517.5978z" stroke="none" fill="#FFFEFE" fill-rule="evenodd" /><path id="1132" transform="matrix(1 0 0 -1 0 792)" d="M82.205 375.991L65.162 375.991L65.162 204.622L82.205 204.622z" stroke="none" fill="#404042" fill-rule="nonzero" /><path id="1133" transform="matrix(1 0 0 -1 0 792)" d="M69.1461 371.8125C 69.0181 371.8125 68.9301 371.7245 68.9301 371.5965L68.9301 371.5965L68.9301 371.3205C 68.9301 371.2085 69.0181 371.1045 69.1461 371.1045L69.1461 371.1045L78.0741 371.1045C 78.1861 371.1045 78.2901 371.2085 78.2901 371.3205L78.2901 371.3205L78.2901 371.5965C 78.2901 371.7245 78.1861 371.8125 78.0741 371.8125z" stroke="none" fill="#FFFEFE" fill-rule="evenodd" /><path id="1134" transform="matrix(1 0 0 -1 0 792)" d="M76.8981 367.1205C 76.9461 367.1205 76.9821 367.0605 76.9341 367.0125L76.9341 367.0125L69.0981 360.7725C 68.9861 360.6925 68.9301 360.5685 68.9301 360.4245L68.9301 360.4245L68.9301 360.2205C 68.9301 360.1085 69.0181 360.0045 69.1461 360.0045L69.1461 360.0045L78.0741 360.0045C 78.1861 360.0045 78.2901 360.1085 78.2901 360.2205L78.2901 360.2205L78.2901 360.4965C 78.2901 360.6245 78.1861 360.7125 78.0741 360.7125L78.0741 360.7125L70.3101 360.7125C 70.2461 360.7125 70.2261 360.7885 70.2741 360.8205L70.2741 360.8205L78.1221 367.0605C 78.2181 367.1565 78.2901 367.2805 78.2901 367.4085L78.2901 367.4085L78.2901 367.6125C 78.2901 367.7405 78.1861 367.8285 78.0741 367.8285L78.0741 367.8285L69.1461 367.8285C 69.0181 367.8285 68.9301 367.7405 68.9301 367.6125L68.9301 367.6125L68.9301 367.3365C 68.9301 367.2245 69.0181 367.1205 69.1461 367.1205z" stroke="none" fill="#FFFEFE" fill-rule="evenodd" /><path id="1135" transform="matrix(1 0 0 -1 0 792)" d="M68.7501 353.7285C 68.7501 351.6645 69.6981 350.2965 71.1861 350.2965C 72.9301 350.2965 73.5061 352.2645 73.9701 353.7525C 74.4501 355.2885 74.8701 356.5485 76.0701 356.5485C 77.0781 356.5485 77.8101 355.6485 77.8101 353.9685C 77.8101 352.3525 77.1381 351.3165 76.1781 351.1725C 76.0341 351.1725 75.9381 351.0765 75.9381 350.9325L75.9381 350.9325L75.9381 350.6685C 75.9381 350.5725 76.0901 350.4765 76.2021 350.4765C 77.5461 350.5725 78.4701 352.0165 78.4701 353.9685C 78.4701 356.0005 77.4781 357.2925 76.0221 357.2925C 74.3261 357.2925 73.7501 355.4925 73.2861 353.9565C 72.8061 352.3725 72.3661 351.0525 71.1501 351.0525C 70.1421 351.0525 69.4101 352.0005 69.4101 353.7285C 69.4101 355.4245 70.0701 356.5125 71.0301 356.6565C 71.1581 356.6725 71.2541 356.7645 71.2701 356.9085L71.2701 356.9085L71.2701 357.1125C 71.2701 357.2565 71.1341 357.3685 71.0061 357.3525C 69.6621 357.2565 68.7501 355.7605 68.7501 353.7285z" stroke="none" fill="#FFFEFE" fill-rule="evenodd" /><path id="1136" transform="matrix(1 0 0 -1 0 792)" d="M77.5941 345.6045C 77.5941 345.5085 77.5221 345.4365 77.4261 345.4365L77.4261 345.4365L69.1461 345.4365C 69.0181 345.4365 68.9301 345.3485 68.9301 345.2205L68.9301 345.2205L68.9301 344.9445C 68.9301 344.8325 69.0181 344.7285 69.1461 344.7285L69.1461 344.7285L77.4261 344.7285C 77.5221 344.7285 77.5941 344.6565 77.5941 344.5605L77.5941 344.5605L77.5941 341.5605C 77.5941 341.4485 77.6821 341.3445 77.8101 341.3445L77.8101 341.3445L78.0741 341.3445C 78.1861 341.3445 78.2901 341.4485 78.2901 341.5605L78.2901 341.5605L78.2901 348.5925C 78.2901 348.7205 78.1861 348.8085 78.0741 348.8085L78.0741 348.8085L77.8101 348.8085C 77.6821 348.8085 77.5941 348.7205 77.5941 348.5925z" stroke="none" fill="#FFFEFE" fill-rule="evenodd" /><path id="1137" transform="matrix(1 0 0 -1 0 792)" d="M69.1461 339.0765C 69.0181 339.0765 68.9301 338.9885 68.9301 338.8605L68.9301 338.8605L68.9301 338.5845C 68.9301 338.4725 69.0181 338.3685 69.1461 338.3685L69.1461 338.3685L78.0741 338.3685C 78.1861 338.3685 78.2901 338.4725 78.2901 338.5845L78.2901 338.5845L78.2901 338.8605C 78.2901 338.9885 78.1861 339.0765 78.0741 339.0765z" stroke="none" fill="#FFFEFE" fill-rule="evenodd" /><path id="1138" transform="matrix(1 0 0 -1 0 792)" d="M76.8981 334.3845C 76.9461 334.3845 76.9821 334.3245 76.9341 334.2765L76.9341 334.2765L69.0981 328.0365C 68.9861 327.9565 68.9301 327.8325 68.9301 327.6885L68.9301 327.6885L68.9301 327.4845C 68.9301 327.3725 69.0181 327.2685 69.1461 327.2685L69.1461 327.2685L78.0741 327.2685C 78.1861 327.2685 78.2901 327.3725 78.2901 327.4845L78.2901 327.4845L78.2901 327.7605C 78.2901 327.8885 78.1861 327.9765 78.0741 327.9765L78.0741 327.9765L70.3101 327.9765C 70.2461 327.9765 70.2261 328.0525 70.2741 328.0845L70.2741 328.0845L78.1221 334.3245C 78.2181 334.4205 78.2901 334.5445 78.2901 334.6725L78.2901 334.6725L78.2901 334.8765C 78.2901 335.0045 78.1861 335.0925 78.0741 335.0925L78.0741 335.0925L69.1461 335.0925C 69.0181 335.0925 68.9301 335.0045 68.9301 334.8765L68.9301 334.8765L68.9301 334.6005C 68.9301 334.4885 69.0181 334.3845 69.1461 334.3845z" stroke="none" fill="#FFFEFE" fill-rule="evenodd" /><path id="1139" transform="matrix(1 0 0 -1 0 792)" d="M69.4581 319.7805C 69.4581 322.0845 71.3061 323.9445 73.6101 323.9445C 75.8821 323.9445 77.7621 322.0845 77.7621 319.7805C 77.7621 318.3565 77.0421 317.1165 75.9381 316.3485C 75.8261 316.2845 75.8021 316.1485 75.8661 316.0365L75.8661 316.0365L75.9981 315.7965C 76.0461 315.7005 76.1781 315.6765 76.2741 315.7245C 77.5861 316.5885 78.4701 318.1005 78.4701 319.7805C 78.4701 322.4845 76.2821 324.6645 73.6101 324.6645C 70.9221 324.6645 68.7501 322.4845 68.7501 319.7805C 68.7501 318.0845 69.6181 316.5765 70.9461 315.7125C 71.0261 315.6645 71.1741 315.6885 71.2221 315.7845L71.2221 315.7845L71.3661 316.0365C 71.4141 316.1485 71.3901 316.2845 71.2941 316.3485C 70.1741 317.1005 69.4581 318.3565 69.4581 319.7805z" stroke="none" fill="#FFFEFE" fill-rule="evenodd" /><path id="1140" transform="matrix(1 0 0 -1 0 792)" d="M77.5941 311.1525C 77.5941 311.0565 77.5221 310.9845 77.4261 310.9845L77.4261 310.9845L69.1461 310.9845C 69.0181 310.9845 68.9301 310.8965 68.9301 310.7685L68.9301 310.7685L68.9301 310.4925C 68.9301 310.3805 69.0181 310.2765 69.1461 310.2765L69.1461 310.2765L77.4261 310.2765C 77.5221 310.2765 77.5941 310.2045 77.5941 310.1085L77.5941 310.1085L77.5941 307.1085C 77.5941 306.9965 77.6821 306.8925 77.8101 306.8925L77.8101 306.8925L78.0741 306.8925C 78.1861 306.8925 78.2901 306.9965 78.2901 307.1085L78.2901 307.1085L78.2901 314.1405C 78.2901 314.2685 78.1861 314.3565 78.0741 314.3565L78.0741 314.3565L77.8101 314.3565C 77.6821 314.3565 77.5941 314.2685 77.5941 314.1405z" stroke="none" fill="#FFFEFE" fill-rule="evenodd" /><g clip-path="url(#2)"><path id="1977" transform="matrix(1 0 0 -1 0 792)" d="M56.9448 32.702L56.9448 -12.691" stroke="#000000" stroke-width="0.75" stroke-linecap="round" stroke-dasharray="0.75,1.464" fill="none" /><path id="1978" transform="matrix(1 0 0 -1 0 792)" d="M56.9448 -13.7986L56.9448 -13.7986M56.9448 34.9164L56.9448 34.9164" stroke="#000000" stroke-width="0.75" stroke-linecap="round" fill="none" /></g></g></g></svg>