<svg xmlns="http://www.w3.org/2000/svg" xmlns:xlink="http://www.w3.org/1999/xlink" id="body_85" preserveAspectRatio="xMinYMin meet" viewBox="0 0 816 1056"><defs><clipPath id="1"><path id="" clip-rule="evenodd" transform="matrix(1 0 0 1 0 0)" d="M0 792L0 0L0 0L612 0L612 0L612 792L612 792L0 792z" /></clipPath><clipPath id="2"><path id="" clip-rule="evenodd" transform="matrix(1 0 0 1 0 0)" d="M70.866 247.507L307.417 247.507L307.417 247.507L307.417 56.69299L307.417 56.69299L70.866 56.69299z" /></clipPath><clipPath id="3"><path id="" clip-rule="evenodd" transform="matrix(1 0 0 1 0 0)" d="M61.8661 48.69299L316.417 48.69299L316.417 48.69299L316.417 250.215L316.417 250.215L61.8661 250.215z" /></clipPath><clipPath id="4"><path id="" clip-rule="evenodd" transform="matrix(1 0 0 1 0 0)" d="M70.866 448.115L307.417 448.115L307.417 448.115L307.417 257.301L307.417 257.301L70.866 257.301z" /></clipPath><clipPath id="5"><path id="" clip-rule="evenodd" transform="matrix(1 0 0 1 0 0)" d="M61.8662 249.301L316.417 249.301L316.417 249.301L316.417 450.823L316.417 450.823L61.8662 450.823z" /></clipPath><clipPath id="6"><path id="" clip-rule="evenodd" transform="matrix(1 0 0 1 0 0)" d="M70.866 657.017L307.417 657.017L307.417 657.017L307.417 459.116L307.417 459.116L70.866 459.116z" /></clipPath><clipPath id="7"><path id="" clip-rule="evenodd" transform="matrix(1 0 0 1 0 0)" d="M61.8662 451.335L316.417 451.335L316.417 451.335L316.417 659.944L316.417 659.944L61.8662 659.944z" /></clipPath><clipPath id="8"><path id="" clip-rule="evenodd" transform="matrix(1 0 0 1 0 0)" d="M319.087 219.507L555.638 219.507L555.638 219.507L555.638 56.69202L555.638 56.69202L319.087 56.69202z" /></clipPath><clipPath id="9"><path id="" clip-rule="evenodd" transform="matrix(1 0 0 1 0 0)" d="M310.087 48.69299L564.638 48.69299L564.638 48.69299L564.638 222.215L564.638 222.215L310.087 222.215z" /></clipPath><clipPath id="10"><path id="" clip-rule="evenodd" transform="matrix(1 0 0 1 0 0)" d="M319.087 411.248L555.638 411.248L555.638 411.248L555.638 229.434L555.638 229.434L319.087 229.434z" /></clipPath><clipPath id="11"><path id="" clip-rule="evenodd" transform="matrix(1 0 0 1 0 0)" d="M310.087 221.434L564.638 221.434L564.638 221.434L564.638 413.956L564.638 413.956L310.087 413.956z" /></clipPath><clipPath id="12"><path id="" clip-rule="evenodd" transform="matrix(1 0 0 1 0 0)" d="M319.087 620.47L555.638 620.47L555.638 620.47L555.638 423.069L555.638 423.069L319.087 423.069z" /></clipPath><clipPath id="13"><path id="" clip-rule="evenodd" transform="matrix(1 0 0 1 0 0)" d="M310.087 415.069L564.638 415.069L564.638 415.069L564.638 623.178L564.638 623.178L310.087 623.178z" /></clipPath><clipPath id="14"><path id="" clip-rule="evenodd" transform="matrix(1 0 0 1 0 0)" d="M0 0L612 0L612 0L612 792L612 792L0 792z" /></clipPath></defs><g transform="matrix(1.333333 0 0 1.333333 0 0)"><g clip-path="url(#1)"><path id="1" transform="matrix(1 0 0 -1 0 792)" d="M73.701 735.3072L70.866 732.4722L70.866 547.3272L73.701 544.4932L304.582 544.4932L307.417 547.3272L307.417 732.4722L304.582 735.3072z" stroke="none" fill="#EAEBEC" fill-rule="nonzero" /><path id="2" transform="matrix(1 0 0 -1 0 792)" d="M77.035 647.414L301.248 647.414L301.248 672.918L77.035 672.918z" stroke="none" fill="#FFFEFE" fill-rule="nonzero" /><path id="3" transform="matrix(1 0 0 -1 0 792)" d="M77.0354 672.9178L301.2484 672.9178" stroke="#939597" stroke-width="0.5" fill="none" /><path id="4" transform="matrix(1 0 0 -1 0 792)" d="M77.0354 647.1836L300.6964 647.1836" stroke="#939597" stroke-width="0.5" fill="none" /><g clip-path="url(#2)"><g><g clip-path="url(#3)"><path id="566" transform="matrix(1 0 0 -1 0 792)" d="M73.8043 735.0571C 72.90829 734.1611 72.0123 733.2651 71.11629 732.3691L71.11629 732.3691L71.11629 547.4312C 72.0123 546.5352 72.90829 545.6392 73.8043 544.7432L73.8043 544.7432L304.4793 544.7432C 305.3753 545.6392 306.2713 546.5352 307.1673 547.4312L307.1673 547.4312L307.1673 732.3691C 306.2713 733.2651 305.3753 734.1611 304.4793 735.0571L304.4793 735.0571L73.8043 735.0571z" stroke="#000000" stroke-width="0.5" fill="none" stroke-opacity="0.4980392" /></g></g></g><path id="567" transform="matrix(1 0 0 -1 0 792)" d="M73.701 534.699L70.866 531.865L70.866 346.72L73.701 343.885L304.582 343.885L307.417 346.72L307.417 531.865L304.582 534.699z" stroke="none" fill="#EAEBEC" fill-rule="nonzero" /><path id="568" transform="matrix(1 0 0 -1 0 792)" d="M77.035 446.806L301.248 446.806L301.248 472.31L77.035 472.31z" stroke="none" fill="#FFFEFE" fill-rule="nonzero" /><path id="569" transform="matrix(1 0 0 -1 0 792)" d="M77.0355 472.3102L301.2485 472.3102" stroke="#939597" stroke-width="0.5" fill="none" /><path id="570" transform="matrix(1 0 0 -1 0 792)" d="M77.0355 446.5759L300.6965 446.5759" stroke="#939597" stroke-width="0.5" fill="none" /><g clip-path="url(#4)"><g><g clip-path="url(#5)"><path id="1167" transform="matrix(1 0 0 -1 0 792)" d="M73.8044 534.4495C 72.90839 533.5535 72.0124 532.6575 71.11639 531.7615L71.11639 531.7615L71.11639 346.8235C 72.0124 345.9275 72.90839 345.0315 73.8044 344.1355L73.8044 344.1355L304.4794 344.1355L304.4794 344.1355L307.1674 346.8235L307.1674 346.8235L307.1674 531.7615C 306.2714 532.6575 305.3754 533.5535 304.4794 534.4495L304.4794 534.4495L73.8044 534.4495z" stroke="#000000" stroke-width="0.5" fill="none" stroke-opacity="0.4980392" /></g></g></g><path id="1168" transform="matrix(1 0 0 -1 0 792)" d="M73.701 332.6652L70.866 329.8302L70.866 137.5992L73.48199 134.9832L304.801 134.9832L307.417 137.5992L307.417 329.8302L304.582 332.6652z" stroke="none" fill="#EAEBEC" fill-rule="nonzero" /><path id="1169" transform="matrix(1 0 0 -1 0 792)" d="M77.035 253.772L301.248 253.772L301.248 279.276L77.035 279.276z" stroke="none" fill="#FFFEFE" fill-rule="nonzero" /><path id="1170" transform="matrix(1 0 0 -1 0 792)" d="M77.0355 279.2759L301.2485 279.2759" stroke="#939597" stroke-width="0.5" fill="none" /><path id="1171" transform="matrix(1 0 0 -1 0 792)" d="M77.035 239.103L301.248 239.103L301.248 258.442L77.035 258.442z" stroke="none" fill="#FFFEFE" fill-rule="nonzero" /><path id="1172" transform="matrix(1 0 0 -1 0 792)" d="M78.0546 254.1893L300.7386 254.1893" stroke="#BBBDC0" stroke-width="0.51" stroke-linecap="round" stroke-dasharray="0.51,0.51" fill="none" /><path id="1173" transform="matrix(1 0 0 -1 0 792)" d="M301.2485 254.1893L301.2485 254.1893M77.0355 254.1893L77.0355 254.1893" stroke="#BBBDC0" stroke-width="0.51" stroke-linecap="round" fill="none" /><path id="1174" transform="matrix(1 0 0 -1 0 792)" d="M77.0355 238.8724L300.6965 238.8724" stroke="#939597" stroke-width="0.5" fill="none" /><g clip-path="url(#6)"><g><g clip-path="url(#7)"><path id="1727" transform="matrix(1 0 0 -1 0 792)" d="M73.8044 332.4153C 72.90839 331.5193 72.0124 330.6233 71.11639 329.7273L71.11639 329.7273L71.11639 137.7023C 72.0124 136.8063 72.90839 135.9103 73.8044 135.0143L73.8044 135.0143L304.4794 135.0143L304.4794 135.0143L307.1674 137.7023L307.1674 137.7023L307.1674 329.7273L307.1674 329.7273L304.4794 332.4153L304.4794 332.4153L73.8044 332.4153z" stroke="#000000" stroke-width="0.5" fill="none" stroke-opacity="0.4980392" /></g></g></g><path id="1728" transform="matrix(1 0 0 -1 0 792)" d="M321.921 735.3072L319.087 732.4722L319.087 575.3282L321.921 572.4922L552.803 572.4922L555.638 575.3282L555.638 732.4722L552.803 735.3072z" stroke="none" fill="#EAEBEC" fill-rule="nonzero" /><path id="1729" transform="matrix(1 0 0 -1 0 792)" d="M325.256 656.414L549.469 656.414L549.469 681.918L325.256 681.918z" stroke="none" fill="#FFFEFE" fill-rule="nonzero" /><path id="1730" transform="matrix(1 0 0 -1 0 792)" d="M325.2559 681.9178L549.4689 681.9178" stroke="#939597" stroke-width="0.5" fill="none" /><path id="1731" transform="matrix(1 0 0 -1 0 792)" d="M325.2559 656.1836L548.9169 656.1836" stroke="#939597" stroke-width="0.5" fill="none" /><g clip-path="url(#8)"><g><g clip-path="url(#9)"><path id="2183" transform="matrix(1 0 0 -1 0 792)" d="M322.0248 735.0571C 321.1288 734.1611 320.2328 733.2651 319.3368 732.3691L319.3368 732.3691L319.3368 575.4312C 320.2328 574.5352 321.1288 573.6392 322.0248 572.7432L322.0248 572.7432L552.6998 572.7432C 553.5958 573.6392 554.4918 574.5352 555.3878 575.4312L555.3878 575.4312L555.3878 732.3691L555.3878 732.3691L552.6998 735.0571L552.6998 735.0571L322.0248 735.0571z" stroke="#000000" stroke-width="0.5" fill="none" stroke-opacity="0.4980392" /></g></g></g><path id="2184" transform="matrix(1 0 0 -1 0 792)" d="M321.921 562.5666L319.087 559.7316L319.087 383.5866L321.921 380.7526L552.803 380.7526L555.638 383.5866L555.638 559.7316L552.803 562.5666z" stroke="none" fill="#EAEBEC" fill-rule="nonzero" /><path id="2185" transform="matrix(1 0 0 -1 0 792)" d="M325.256 483.673L549.469 483.673L549.469 509.177L325.256 509.177z" stroke="none" fill="#FFFEFE" fill-rule="nonzero" /><path id="2186" transform="matrix(1 0 0 -1 0 792)" d="M325.256 509.1771L549.469 509.1771" stroke="#939597" stroke-width="0.5" fill="none" /><path id="2187" transform="matrix(1 0 0 -1 0 792)" d="M325.256 483.4428L548.917 483.4428" stroke="#939597" stroke-width="0.5" fill="none" /><g clip-path="url(#10)"><g><g clip-path="url(#11)"><path id="2738" transform="matrix(1 0 0 -1 0 792)" d="M322.0249 562.3163C 321.1289 561.4203 320.2329 560.5243 319.3369 559.6283L319.3369 559.6283L319.3369 383.6903C 320.2329 382.7943 321.1289 381.8983 322.0249 381.0023L322.0249 381.0023L552.6999 381.0023C 553.5959 381.8983 554.4919 382.7943 555.3879 383.6903L555.3879 383.6903L555.3879 559.6283L555.3879 559.6283L552.6999 562.3163L552.6999 562.3163L322.0249 562.3163z" stroke="#000000" stroke-width="0.5" fill="none" stroke-opacity="0.4980392" /></g></g></g><path id="2739" transform="matrix(1 0 0 -1 0 792)" d="M321.921 368.9307L319.087 366.0957L319.087 174.3647L321.921 171.5297L552.803 171.5297L555.638 174.3647L555.638 366.0957L552.803 368.9307z" stroke="none" fill="#EAEBEC" fill-rule="nonzero" /><path id="2740" transform="matrix(1 0 0 -1 0 792)" d="M325.256 281.038L549.469 281.038L549.469 306.542L325.256 306.542z" stroke="none" fill="#FFFEFE" fill-rule="nonzero" /><path id="2741" transform="matrix(1 0 0 -1 0 792)" d="M325.256 306.5415L549.469 306.5415" stroke="#939597" stroke-width="0.5" fill="none" /><path id="2742" transform="matrix(1 0 0 -1 0 792)" d="M325.256 266.368L549.469 266.368L549.469 285.707L325.256 285.707z" stroke="none" fill="#FFFEFE" fill-rule="nonzero" /><path id="2743" transform="matrix(1 0 0 -1 0 792)" d="M326.2751 281.4549L548.9591 281.4549" stroke="#BBBDC0" stroke-width="0.51" stroke-linecap="round" stroke-dasharray="0.51,0.51" fill="none" /><path id="2744" transform="matrix(1 0 0 -1 0 792)" d="M549.469 281.4549L549.469 281.4549M325.256 281.4549L325.256 281.4549" stroke="#BBBDC0" stroke-width="0.51" stroke-linecap="round" fill="none" /><path id="2745" transform="matrix(1 0 0 -1 0 792)" d="M325.256 266.138L548.917 266.138" stroke="#939597" stroke-width="0.5" fill="none" /><g clip-path="url(#12)"><g><g clip-path="url(#13)"><path id="3263" transform="matrix(1 0 0 -1 0 792)" d="M322.0249 368.6808C 321.1289 367.7848 320.2329 366.8888 319.3369 365.9928L319.3369 365.9928L319.3369 174.4678C 320.2329 173.5718 321.1289 172.6758 322.0249 171.7798L322.0249 171.7798L552.6999 171.7798C 553.5959 172.6758 554.4919 173.5718 555.3879 174.4678L555.3879 174.4678L555.3879 365.9928C 554.4919 366.8888 553.5959 367.7848 552.6999 368.6808L552.6999 368.6808L322.0249 368.6808z" stroke="#000000" stroke-width="0.5" fill="none" stroke-opacity="0.4980392" /></g></g></g><g clip-path="url(#14)"><path id="3280" transform="matrix(1 0 0 -1 0 792)" d="M555.6614 32.702L555.6614 -12.691" stroke="#000000" stroke-width="0.75" stroke-linecap="round" stroke-dasharray="0.75,1.464" fill="none" /><path id="3281" transform="matrix(1 0 0 -1 0 792)" d="M555.6614 -13.7986L555.6614 -13.7986M555.6614 34.9164L555.6614 34.9164" stroke="#000000" stroke-width="0.75" stroke-linecap="round" fill="none" /></g></g></g></svg>