<svg xmlns="http://www.w3.org/2000/svg" xmlns:xlink="http://www.w3.org/1999/xlink" id="body_53" preserveAspectRatio="xMinYMin meet" viewBox="0 0 816 1056"><defs><clipPath id="1"><path id="" clip-rule="evenodd" transform="matrix(1 0 0 1 0 0)" d="M0 792L0 0L0 0L612 0L612 0L612 792L612 792L0 792z" /></clipPath><clipPath id="2"><path id="" clip-rule="evenodd" transform="matrix(1 0 0 1 0 0)" d="M0 0L612 0L612 0L612 792L612 792L0 792z" /></clipPath></defs><g transform="matrix(1.333333 0 0 1.333333 0 0)"><g clip-path="url(#1)"><path id="1974" transform="matrix(1 0 0 -1 0 792)" d="M73.3638 340.3086L553.8078 340.3086" stroke="#000000" stroke-width="1" stroke-linecap="round" stroke-dasharray="1,1" fill="none" /><path id="1975" transform="matrix(1 0 0 -1 0 792)" d="M554.8071 340.3086L554.8071 340.3086M71.3661 340.3086L71.3661 340.3086" stroke="#000000" stroke-width="1" stroke-linecap="round" fill="none" /><path id="2160" transform="matrix(1 0 0 -1 0 792)" d="M382.441 171.124L555.307 171.124L555.307 137.124L382.441 137.124zM319.087 171.124L382.441 171.124L382.441 137.124L319.087 137.124zM261.732 171.124L319.086 171.124L319.086 137.124L261.732 137.124zM214.488 171.124L261.732 171.124L261.732 137.124L214.488 137.124zM172.913 171.124L214.488 171.124L214.488 137.124L172.913 137.124zM139.323 171.124L172.914 171.124L172.914 137.124L139.323 137.124zM70.866 171.124L139.323 171.124L139.323 137.124L70.866 137.124zM382.441 239.124L555.307 239.124L555.307 205.124L382.441 205.124zM319.087 239.124L382.441 239.124L382.441 205.124L319.087 205.124zM261.732 239.124L319.086 239.124L319.086 205.124L261.732 205.124zM214.488 239.124L261.732 239.124L261.732 205.124L214.488 205.124zM172.913 239.124L214.488 239.124L214.488 205.124L172.913 205.124zM139.323 239.124L172.914 239.124L172.914 205.124L139.323 205.124zM70.866 239.124L139.323 239.124L139.323 205.124L70.866 205.124z" stroke="none" fill="#ECEDEE" fill-rule="nonzero" /><path id="2161" transform="matrix(1 0 0 -1 0 792)" d="M70.8661 263.1235L139.3231 263.1235" stroke="#000000" stroke-width="1" fill="none" /><path id="2162" transform="matrix(1 0 0 -1 0 792)" d="M139.3228 263.1235L172.9138 263.1235" stroke="#000000" stroke-width="1" fill="none" /><path id="2163" transform="matrix(1 0 0 -1 0 792)" d="M172.9134 263.1235L214.4884 263.1235" stroke="#000000" stroke-width="1" fill="none" /><path id="2164" transform="matrix(1 0 0 -1 0 792)" d="M214.4882 263.1235L261.7322 263.1235" stroke="#000000" stroke-width="1" fill="none" /><path id="2165" transform="matrix(1 0 0 -1 0 792)" d="M261.7323 263.1235L319.0863 263.1235" stroke="#000000" stroke-width="1" fill="none" /><path id="2166" transform="matrix(1 0 0 -1 0 792)" d="M319.0866 263.1235L382.4406 263.1235" stroke="#000000" stroke-width="1" fill="none" /><path id="2167" transform="matrix(1 0 0 -1 0 792)" d="M382.4409 263.1235L555.3069 263.1235" stroke="#000000" stroke-width="1" fill="none" /><g clip-path="url(#2)"><path id="2760" transform="matrix(1 0 0 -1 0 792)" d="M555.6614 32.702L555.6614 -12.691" stroke="#000000" stroke-width="0.75" stroke-linecap="round" stroke-dasharray="0.75,1.464" fill="none" /><path id="2761" transform="matrix(1 0 0 -1 0 792)" d="M555.6614 -13.7986L555.6614 -13.7986M555.6614 34.9164L555.6614 34.9164" stroke="#000000" stroke-width="0.75" stroke-linecap="round" fill="none" /></g></g></g></svg>