<svg xmlns="http://www.w3.org/2000/svg" xmlns:xlink="http://www.w3.org/1999/xlink" id="body_83" preserveAspectRatio="xMinYMin meet" viewBox="0 0 816 1056"><defs><clipPath id="1"><path id="" clip-rule="evenodd" transform="matrix(1 0 0 1 0 0)" d="M0 792L0 0L0 0L612 0L612 0L612 792L612 792L0 792z" /></clipPath><clipPath id="2"><path id="" clip-rule="evenodd" transform="matrix(1 0 0 1 0 0)" d="M70.866 210.007L307.417 210.007L307.417 210.007L307.417 56.69299L307.417 56.69299L70.866 56.69299z" /></clipPath><clipPath id="3"><path id="" clip-rule="evenodd" transform="matrix(1 0 0 1 0 0)" d="M61.8662 48.69299L316.417 48.69299L316.417 48.69299L316.417 212.715L316.417 212.715L61.8662 212.715z" /></clipPath><clipPath id="4"><path id="" clip-rule="evenodd" transform="matrix(1 0 0 1 0 0)" d="M319.087 219.507L555.638 219.507L555.638 219.507L555.638 56.69202L555.638 56.69202L319.087 56.69202z" /></clipPath><clipPath id="5"><path id="" clip-rule="evenodd" transform="matrix(1 0 0 1 0 0)" d="M310.087 48.69299L564.638 48.69299L564.638 48.69299L564.638 222.215L564.638 222.215L310.087 222.215z" /></clipPath><clipPath id="6"><path id="" clip-rule="evenodd" transform="matrix(1 0 0 1 0 0)" d="M70.866 482.449L307.417 482.449L307.417 482.449L307.417 261.217L307.417 261.217L70.866 261.217z" /></clipPath><clipPath id="7"><path id="" clip-rule="evenodd" transform="matrix(1 0 0 1 0 0)" d="M61.8662 253.217L316.417 253.217L316.417 253.217L316.417 485.157L316.417 485.157L61.8662 485.157z" /></clipPath><clipPath id="8"><path id="" clip-rule="evenodd" transform="matrix(1 0 0 1 0 0)" d="M70.866 699.453L307.417 699.453L307.417 699.453L307.417 493.471L307.417 493.471L70.866 493.471z" /></clipPath><clipPath id="9"><path id="" clip-rule="evenodd" transform="matrix(1 0 0 1 0 0)" d="M61.8662 485.47L316.417 485.47L316.417 485.47L316.417 702.1622L316.417 702.1622L61.8662 702.1622z" /></clipPath><clipPath id="10"><path id="" clip-rule="evenodd" transform="matrix(1 0 0 1 0 0)" d="M319.087 461.131L555.638 461.131L555.638 461.131L555.638 263.23L555.638 263.23L319.087 263.23z" /></clipPath><clipPath id="11"><path id="" clip-rule="evenodd" transform="matrix(1 0 0 1 0 0)" d="M310.087 255.23L564.638 255.23L564.638 255.23L564.638 463.839L564.638 463.839L310.087 463.839z" /></clipPath><clipPath id="12"><path id="" clip-rule="evenodd" transform="matrix(1 0 0 1 0 0)" d="M319.087 697.464L555.638 697.464L555.638 697.464L555.638 470.145L555.638 470.145L319.087 470.145z" /></clipPath><clipPath id="13"><path id="" clip-rule="evenodd" transform="matrix(1 0 0 1 0 0)" d="M310.087 462.145L564.638 462.145L564.638 462.145L564.638 700.1714L564.638 700.1714L310.087 700.1714z" /></clipPath><clipPath id="14"><path id="" clip-rule="evenodd" transform="matrix(1 0 0 1 0 0)" d="M0 0L612 0L612 0L612 792L612 792L0 792z" /></clipPath></defs><g transform="matrix(1.333333 0 0 1.333333 0 0)"><g clip-path="url(#1)"><path id="1" transform="matrix(1 0 0 -1 0 792)" d="M73.701 735.3072L70.866 732.4722L70.866 584.8272L73.701 581.9932L304.582 581.9932L307.417 584.8272L307.417 732.4722L304.582 735.3072z" stroke="none" fill="#EAEBEC" fill-rule="nonzero" /><path id="2" transform="matrix(1 0 0 -1 0 792)" d="M77.035 656.414L301.248 656.414L301.248 681.918L77.035 681.918z" stroke="none" fill="#FFFEFE" fill-rule="nonzero" /><path id="3" transform="matrix(1 0 0 -1 0 792)" d="M77.0355 681.9178L301.2485 681.9178" stroke="#939597" stroke-width="0.5" fill="none" /><path id="4" transform="matrix(1 0 0 -1 0 792)" d="M77.0355 656.1836L300.6965 656.1836" stroke="#939597" stroke-width="0.5" fill="none" /><g clip-path="url(#2)"><g><g clip-path="url(#3)"><path id="437" transform="matrix(1 0 0 -1 0 792)" d="M73.8044 735.0571C 72.90839 734.1611 72.0124 733.2651 71.11639 732.3691L71.11639 732.3691L71.11639 584.9312C 72.0124 584.0352 72.90839 583.1392 73.8044 582.2432L73.8044 582.2432L304.4794 582.2432C 305.3754 583.1392 306.2714 584.0352 307.1674 584.9312L307.1674 584.9312L307.1674 732.3691C 306.2714 733.2651 305.3754 734.1611 304.4794 735.0571L304.4794 735.0571L73.8044 735.0571z" stroke="#000000" stroke-width="0.5" fill="none" stroke-opacity="0.4980392" /></g></g></g><path id="438" transform="matrix(1 0 0 -1 0 792)" d="M321.921 735.3072L319.087 732.4722L319.087 575.3282L321.921 572.4922L552.803 572.4922L555.638 575.3282L555.638 732.4722L552.803 735.3072z" stroke="none" fill="#EAEBEC" fill-rule="nonzero" /><path id="439" transform="matrix(1 0 0 -1 0 792)" d="M325.256 656.414L549.469 656.414L549.469 681.918L325.256 681.918z" stroke="none" fill="#FFFEFE" fill-rule="nonzero" /><path id="440" transform="matrix(1 0 0 -1 0 792)" d="M325.256 681.9178L549.469 681.9178" stroke="#939597" stroke-width="0.5" fill="none" /><path id="441" transform="matrix(1 0 0 -1 0 792)" d="M325.256 656.1836L548.917 656.1836" stroke="#939597" stroke-width="0.5" fill="none" /><g clip-path="url(#4)"><g><g clip-path="url(#5)"><path id="876" transform="matrix(1 0 0 -1 0 792)" d="M322.0249 735.0571C 321.1289 734.1611 320.2329 733.2651 319.3369 732.3691L319.3369 732.3691L319.3369 575.4312C 320.2329 574.5352 321.1289 573.6392 322.0249 572.7432L322.0249 572.7432L552.6999 572.7432C 553.5959 573.6392 554.4919 574.5352 555.3879 575.4312L555.3879 575.4312L555.3879 732.3691L555.3879 732.3691L552.6999 735.0571L552.6999 735.0571L322.0249 735.0571z" stroke="#000000" stroke-width="0.5" fill="none" stroke-opacity="0.4980392" /></g></g></g><path id="909" transform="matrix(1 0 0 -1 0 792)" d="M73.701 530.7822L70.866 527.9482L70.866 312.3852L73.701 309.5502L304.582 309.5502L307.417 312.3852L307.417 527.9482L304.582 530.7822z" stroke="none" fill="#EAEBEC" fill-rule="nonzero" /><path id="910" transform="matrix(1 0 0 -1 0 792)" d="M77.035 451.889L301.248 451.889L301.248 477.393L77.035 477.393z" stroke="none" fill="#FFFEFE" fill-rule="nonzero" /><path id="911" transform="matrix(1 0 0 -1 0 792)" d="M77.0355 477.3933L301.2485 477.3933" stroke="#939597" stroke-width="0.5" fill="none" /><path id="912" transform="matrix(1 0 0 -1 0 792)" d="M77.0355 451.6591L300.6965 451.6591" stroke="#939597" stroke-width="0.5" fill="none" /><g clip-path="url(#6)"><g><g clip-path="url(#7)"><path id="1643" transform="matrix(1 0 0 -1 0 792)" d="M73.8044 530.5326C 72.90839 529.6366 72.0124 528.7406 71.11639 527.8446L71.11639 527.8446L71.11639 312.4886C 72.0124 311.5926 72.90839 310.6966 73.8044 309.8006L73.8044 309.8006L304.4794 309.8006C 305.3754 310.6966 306.2714 311.5926 307.1674 312.4886L307.1674 312.4886L307.1674 527.8446C 306.2714 528.7406 305.3754 529.6366 304.4794 530.5326L304.4794 530.5326L73.8044 530.5326z" stroke="#000000" stroke-width="0.5" fill="none" stroke-opacity="0.4980392" /></g></g></g><path id="1644" transform="matrix(1 0 0 -1 0 792)" d="M73.701 298.5291L70.866 295.6951L70.866 95.38011L73.7 92.54712L304.583 92.54712L307.417 95.38011L307.417 295.6951L304.582 298.5291z" stroke="none" fill="#EAEBEC" fill-rule="nonzero" /><path id="1645" transform="matrix(1 0 0 -1 0 792)" d="M77.035 219.636L301.248 219.636L301.248 245.14L77.035 245.14z" stroke="none" fill="#FFFEFE" fill-rule="nonzero" /><path id="1646" transform="matrix(1 0 0 -1 0 792)" d="M77.0355 245.1403L301.2485 245.1403" stroke="#939597" stroke-width="0.5" fill="none" /><path id="1647" transform="matrix(1 0 0 -1 0 792)" d="M77.035 204.967L301.248 204.967L301.248 224.306L77.035 224.306z" stroke="none" fill="#FFFEFE" fill-rule="nonzero" /><path id="1648" transform="matrix(1 0 0 -1 0 792)" d="M78.0546 220.0537L300.7386 220.0537" stroke="#BBBDC0" stroke-width="0.51" stroke-linecap="round" stroke-dasharray="0.51,0.51" fill="none" /><path id="1649" transform="matrix(1 0 0 -1 0 792)" d="M301.2485 220.0537L301.2485 220.0537M77.0355 220.0537L77.0355 220.0537" stroke="#BBBDC0" stroke-width="0.51" stroke-linecap="round" fill="none" /><path id="1650" transform="matrix(1 0 0 -1 0 792)" d="M77.0355 204.7367L300.6965 204.7367" stroke="#939597" stroke-width="0.5" fill="none" /><g clip-path="url(#8)"><g><g clip-path="url(#9)"><path id="2265" transform="matrix(1 0 0 -1 0 792)" d="M73.8044 298.2795C 72.90839 297.3835 72.0124 296.4875 71.11639 295.5915L71.11639 295.5915L71.11639 95.48351L71.11639 95.48351L73.8044 92.79552L73.8044 92.79552L304.4794 92.79552C 305.3754 93.69151 306.2714 94.58751 307.1674 95.48351L307.1674 95.48351L307.1674 295.5915L307.1674 295.5915L304.4794 298.2795L304.4794 298.2795L73.8044 298.2795z" stroke="#000000" stroke-width="0.5" fill="none" stroke-opacity="0.4980392" /></g></g></g><path id="2266" transform="matrix(1 0 0 -1 0 792)" d="M321.921 528.7698L319.087 525.9348L319.087 333.7028L321.921 330.8688L552.803 330.8688L555.638 333.7028L555.638 525.9348L552.803 528.7698z" stroke="none" fill="#EAEBEC" fill-rule="nonzero" /><path id="2267" transform="matrix(1 0 0 -1 0 792)" d="M325.256 449.876L549.469 449.876L549.469 475.38L325.256 475.38z" stroke="none" fill="#FFFEFE" fill-rule="nonzero" /><path id="2268" transform="matrix(1 0 0 -1 0 792)" d="M325.256 475.3804L549.469 475.3804" stroke="#939597" stroke-width="0.5" fill="none" /><path id="2269" transform="matrix(1 0 0 -1 0 792)" d="M325.256 435.207L549.469 435.207L549.469 454.546L325.256 454.546z" stroke="none" fill="#FFFEFE" fill-rule="nonzero" /><path id="2270" transform="matrix(1 0 0 -1 0 792)" d="M326.2751 450.2938L548.9591 450.2938" stroke="#BBBDC0" stroke-width="0.51" stroke-linecap="round" stroke-dasharray="0.51,0.51" fill="none" /><path id="2271" transform="matrix(1 0 0 -1 0 792)" d="M549.469 450.2938L549.469 450.2938M325.256 450.2938L325.256 450.2938" stroke="#BBBDC0" stroke-width="0.51" stroke-linecap="round" fill="none" /><path id="2272" transform="matrix(1 0 0 -1 0 792)" d="M325.256 434.9768L548.917 434.9768" stroke="#939597" stroke-width="0.5" fill="none" /><g clip-path="url(#10)"><g><g clip-path="url(#11)"><path id="2863" transform="matrix(1 0 0 -1 0 792)" d="M322.0249 528.5197C 321.1289 527.6237 320.2329 526.7277 319.3369 525.8317L319.3369 525.8317L319.3369 333.8067C 320.2329 332.9107 321.1289 332.0147 322.0249 331.1187L322.0249 331.1187L552.6999 331.1187L552.6999 331.1187L555.3879 333.8067L555.3879 333.8067L555.3879 525.8317C 554.4919 526.7277 553.5959 527.6237 552.6999 528.5197L552.6999 528.5197L322.0249 528.5197z" stroke="#000000" stroke-width="0.5" fill="none" stroke-opacity="0.4980392" /></g></g></g><path id="2864" transform="matrix(1 0 0 -1 0 792)" d="M321.921 321.8553L319.087 319.0203L319.087 97.37129L321.921 94.53729L552.803 94.53729L555.638 97.37129L555.638 319.0203L552.803 321.8553z" stroke="none" fill="#EAEBEC" fill-rule="nonzero" /><path id="2865" transform="matrix(1 0 0 -1 0 792)" d="M325.256 233.962L549.469 233.962L549.469 259.466L325.256 259.466z" stroke="none" fill="#FFFEFE" fill-rule="nonzero" /><path id="2866" transform="matrix(1 0 0 -1 0 792)" d="M325.256 259.4657L549.469 259.4657" stroke="#939597" stroke-width="0.5" fill="none" /><path id="2867" transform="matrix(1 0 0 -1 0 792)" d="M325.256 219.292L549.469 219.292L549.469 238.631L325.256 238.631z" stroke="none" fill="#FFFEFE" fill-rule="nonzero" /><path id="2868" transform="matrix(1 0 0 -1 0 792)" d="M326.2751 234.3791L548.9591 234.3791" stroke="#BBBDC0" stroke-width="0.51" stroke-linecap="round" stroke-dasharray="0.51,0.51" fill="none" /><path id="2869" transform="matrix(1 0 0 -1 0 792)" d="M549.469 234.3791L549.469 234.3791M325.256 234.3791L325.256 234.3791" stroke="#BBBDC0" stroke-width="0.51" stroke-linecap="round" fill="none" /><path id="2870" transform="matrix(1 0 0 -1 0 792)" d="M325.256 219.0622L548.917 219.0622" stroke="#939597" stroke-width="0.5" fill="none" /><g clip-path="url(#12)"><g><g clip-path="url(#13)"><path id="3539" transform="matrix(1 0 0 -1 0 792)" d="M322.0249 321.605C 321.1289 320.709 320.2329 319.813 319.3369 318.917L319.3369 318.917L319.3369 97.47501C 320.2329 96.57901 321.1289 95.68301 322.0249 94.78702L322.0249 94.78702L552.6999 94.78702C 553.5959 95.68301 554.4919 96.57901 555.3879 97.47501L555.3879 97.47501L555.3879 318.917C 554.4919 319.813 553.5959 320.709 552.6999 321.605L552.6999 321.605L322.0249 321.605z" stroke="#000000" stroke-width="0.5" fill="none" stroke-opacity="0.4980392" /></g></g></g><g clip-path="url(#14)"><path id="3556" transform="matrix(1 0 0 -1 0 792)" d="M555.6614 32.702L555.6614 -12.691" stroke="#000000" stroke-width="0.75" stroke-linecap="round" stroke-dasharray="0.75,1.464" fill="none" /><path id="3557" transform="matrix(1 0 0 -1 0 792)" d="M555.6614 -13.7986L555.6614 -13.7986M555.6614 34.9164L555.6614 34.9164" stroke="#000000" stroke-width="0.75" stroke-linecap="round" fill="none" /></g></g></g></svg>