<svg xmlns="http://www.w3.org/2000/svg" xmlns:xlink="http://www.w3.org/1999/xlink" id="body_59" preserveAspectRatio="xMinYMin meet" viewBox="0 0 816 1056"><defs><clipPath id="1"><path id="" clip-rule="evenodd" transform="matrix(1 0 0 1 0 0)" d="M0 792L0 0L0 0L612 0L612 0L612 792L612 792L0 792z" /></clipPath><clipPath id="2"><path id="" clip-rule="evenodd" transform="matrix(1 0 0 1 0 0)" d="M0 0L612 0L612 0L612 792L612 792L0 792z" /></clipPath></defs><g transform="matrix(1.333333 0 0 1.333333 0 0)"><g clip-path="url(#1)"><path id="1" transform="matrix(1 0 0 -1 0 792)" d="M173.858 464.791L555.307 464.791L555.307 447.783L173.858 447.783zM106.016 464.791L173.859 464.791L173.859 447.783L106.016 447.783zM70.866 464.791L106.016 464.791L106.016 447.783L70.866 447.783zM173.858 522.791L555.307 522.791L555.307 498.791L173.858 498.791zM106.016 522.791L173.859 522.791L173.859 498.791L106.016 498.791zM70.866 522.791L106.016 522.791L106.016 498.791L70.866 498.791zM173.858 570.791L555.307 570.791L555.307 546.791L173.858 546.791zM106.016 570.791L173.859 570.791L173.859 546.791L106.016 546.791zM70.866 570.791L106.016 570.791L106.016 546.791L70.866 546.791zM173.858 618.791L555.307 618.791L555.307 594.791L173.858 594.791zM106.016 618.791L173.859 618.791L173.859 594.791L106.016 594.791zM70.866 618.791L106.016 618.791L106.016 594.791L70.866 594.791zM173.858 659.799L555.307 659.799L555.307 635.799L173.858 635.799zM106.016 659.799L173.859 659.799L173.859 635.799L106.016 635.799zM70.866 659.799L106.016 659.799L106.016 635.799L70.866 635.799zM173.858 718.299L555.307 718.299L555.307 683.799L173.858 683.799zM106.016 718.299L173.859 718.299L173.859 683.799L106.016 683.799zM70.866 718.299L106.016 718.299L106.016 683.799L70.866 683.799z" stroke="none" fill="#E6E7E8" fill-rule="nonzero" /><path id="2" transform="matrix(1 0 0 -1 0 792)" d="M70.8661 718.2993L106.0161 718.2993" stroke="#000000" stroke-width="1" fill="none" /><path id="3" transform="matrix(1 0 0 -1 0 792)" d="M173.8583 718.2993L555.3073 718.2993" stroke="#000000" stroke-width="1" fill="none" /><path id="4" transform="matrix(1 0 0 -1 0 792)" d="M106.0157 718.2993L173.8587 718.2993" stroke="#000000" stroke-width="1" fill="none" /><path id="1634" transform="matrix(1 0 0 -1 0 792)" d="M171.213 122.42L307.276 122.42L307.276 98.42L171.213 98.42zM106.016 122.42L171.213 122.42L171.213 98.42L106.016 98.42zM70.866 122.42L106.016 122.42L106.016 98.42L70.866 98.42zM171.213 170.42L307.276 170.42L307.276 146.42L171.213 146.42zM106.016 170.42L171.213 170.42L171.213 146.42L106.016 146.42zM70.866 170.42L106.016 170.42L106.016 146.42L70.866 146.42zM171.213 218.42L307.276 218.42L307.276 194.42L171.213 194.42zM106.016 218.42L171.213 218.42L171.213 194.42L106.016 194.42zM70.866 218.42L106.016 218.42L106.016 194.42L70.866 194.42zM171.213 266.42L307.276 266.42L307.276 242.42L171.213 242.42zM106.016 266.42L171.213 266.42L171.213 242.42L106.016 242.42zM70.866 266.42L106.016 266.42L106.016 242.42L70.866 242.42z" stroke="none" fill="#E6E7E8" fill-rule="nonzero" /><path id="1635" transform="matrix(1 0 0 -1 0 792)" d="M70.8661 290.4203L106.0161 290.4203" stroke="#000000" stroke-width="1" fill="none" /><path id="1636" transform="matrix(1 0 0 -1 0 792)" d="M106.0157 290.4203L171.2127 290.4203" stroke="#000000" stroke-width="1" fill="none" /><path id="1637" transform="matrix(1 0 0 -1 0 792)" d="M171.2126 290.4203L307.2756 290.4203" stroke="#000000" stroke-width="1" fill="none" /><path id="2037" transform="matrix(1 0 0 -1 0 792)" d="M419.433 123.92L555.496 123.92L555.496 79.92L419.433 79.92zM354.236 123.92L419.433 123.92L419.433 79.92L354.236 79.92zM319.087 123.92L354.237 123.92L354.237 79.92L319.087 79.92zM419.433 191.92L555.496 191.92L555.496 147.92L419.433 147.92zM354.236 191.92L419.433 191.92L419.433 147.92L354.236 147.92zM319.087 191.92L354.237 191.92L354.237 147.92L319.087 147.92zM419.433 249.92L555.496 249.92L555.496 225.92L419.433 225.92zM354.236 249.92L419.433 249.92L419.433 225.92L354.236 225.92zM319.087 249.92L354.237 249.92L354.237 225.92L319.087 225.92z" stroke="none" fill="#E6E7E8" fill-rule="nonzero" /><path id="2038" transform="matrix(1 0 0 -1 0 792)" d="M319.0866 294.4203L354.2366 294.4203" stroke="#000000" stroke-width="1" fill="none" /><path id="2039" transform="matrix(1 0 0 -1 0 792)" d="M354.2362 294.4203L419.4332 294.4203" stroke="#000000" stroke-width="1" fill="none" /><path id="2040" transform="matrix(1 0 0 -1 0 792)" d="M419.4331 294.4203L555.4961 294.4203" stroke="#000000" stroke-width="1" fill="none" /><g clip-path="url(#2)"><path id="2679" transform="matrix(1 0 0 -1 0 792)" d="M555.6614 32.702L555.6614 -12.691" stroke="#000000" stroke-width="0.75" stroke-linecap="round" stroke-dasharray="0.75,1.464" fill="none" /><path id="2680" transform="matrix(1 0 0 -1 0 792)" d="M555.6614 -13.7986L555.6614 -13.7986M555.6614 34.9164L555.6614 34.9164" stroke="#000000" stroke-width="0.75" stroke-linecap="round" fill="none" /></g></g></g></svg>