<svg xmlns="http://www.w3.org/2000/svg" xmlns:xlink="http://www.w3.org/1999/xlink" id="body_55" preserveAspectRatio="xMinYMin meet" viewBox="0 0 816 1056"><defs><clipPath id="1"><path id="" clip-rule="evenodd" transform="matrix(1 0 0 1 0 0)" d="M0 792L0 0L0 0L612 0L612 0L612 792L612 792L0 792z" /></clipPath><clipPath id="2"><path id="" clip-rule="evenodd" transform="matrix(1 0 0 1 0 0)" d="M0 0L612 0L612 0L612 792L612 792L0 792z" /></clipPath></defs><g transform="matrix(1.333333 0 0 1.333333 0 0)"><g clip-path="url(#1)"><path id="144" transform="matrix(1 0 0 -1 0 792)" d="M382.441 580.711L555.307 580.711L555.307 546.711L382.441 546.711zM319.087 580.711L382.441 580.711L382.441 546.711L319.087 546.711zM261.732 580.711L319.086 580.711L319.086 546.711L261.732 546.711zM214.488 580.711L261.732 580.711L261.732 546.711L214.488 546.711zM172.913 580.711L214.488 580.711L214.488 546.711L172.913 546.711zM139.323 580.711L172.914 580.711L172.914 546.711L139.323 546.711zM70.866 580.711L139.323 580.711L139.323 546.711L70.866 546.711zM382.441 648.711L555.307 648.711L555.307 614.711L382.441 614.711zM319.087 648.711L382.441 648.711L382.441 614.711L319.087 614.711zM261.732 648.711L319.086 648.711L319.086 614.711L261.732 614.711zM214.488 648.711L261.732 648.711L261.732 614.711L214.488 614.711zM172.913 648.711L214.488 648.711L214.488 614.711L172.913 614.711zM139.323 648.711L172.914 648.711L172.914 614.711L139.323 614.711zM70.866 648.711L139.323 648.711L139.323 614.711L70.866 614.711z" stroke="none" fill="#ECEDEE" fill-rule="nonzero" /><path id="145" transform="matrix(1 0 0 -1 0 792)" d="M70.8661 672.7107L139.3231 672.7107" stroke="#000000" stroke-width="1" fill="none" /><path id="146" transform="matrix(1 0 0 -1 0 792)" d="M139.3228 672.7107L172.9138 672.7107" stroke="#000000" stroke-width="1" fill="none" /><path id="147" transform="matrix(1 0 0 -1 0 792)" d="M172.9134 672.7107L214.4884 672.7107" stroke="#000000" stroke-width="1" fill="none" /><path id="148" transform="matrix(1 0 0 -1 0 792)" d="M214.4882 672.7107L261.7322 672.7107" stroke="#000000" stroke-width="1" fill="none" /><path id="149" transform="matrix(1 0 0 -1 0 792)" d="M261.7323 672.7107L319.0863 672.7107" stroke="#000000" stroke-width="1" fill="none" /><path id="150" transform="matrix(1 0 0 -1 0 792)" d="M319.0866 672.7107L382.4406 672.7107" stroke="#000000" stroke-width="1" fill="none" /><path id="151" transform="matrix(1 0 0 -1 0 792)" d="M382.4409 672.7107L555.3069 672.7107" stroke="#000000" stroke-width="1" fill="none" /><path id="785" transform="matrix(1 0 0 -1 0 792)" d="M392.74 367.026L555.307 367.026L555.307 333.026L392.74 333.026zM329.386 367.026L392.74 367.026L392.74 333.026L329.386 333.026zM272.031 367.026L329.385 367.026L329.385 333.026L272.031 333.026zM224.787 367.026L272.031 367.026L272.031 333.026L224.787 333.026zM172.913 367.026L224.787 367.026L224.787 333.026L172.913 333.026zM139.323 367.026L172.914 367.026L172.914 333.026L139.323 333.026zM70.866 367.026L139.323 367.026L139.323 333.026L70.866 333.026zM392.74 435.026L555.307 435.026L555.307 401.026L392.74 401.026zM329.386 435.026L392.74 435.026L392.74 401.026L329.386 401.026zM272.031 435.026L329.385 435.026L329.385 401.026L272.031 401.026zM224.787 435.026L272.031 435.026L272.031 401.026L224.787 401.026zM172.913 435.026L224.787 435.026L224.787 401.026L172.913 401.026zM139.323 435.026L172.914 435.026L172.914 401.026L139.323 401.026zM70.866 435.026L139.323 435.026L139.323 401.026L70.866 401.026z" stroke="none" fill="#ECEDEE" fill-rule="nonzero" /><path id="786" transform="matrix(1 0 0 -1 0 792)" d="M70.8661 459.0256L139.3231 459.0256" stroke="#000000" stroke-width="1" fill="none" /><path id="787" transform="matrix(1 0 0 -1 0 792)" d="M139.3228 459.0256L172.9138 459.0256" stroke="#000000" stroke-width="1" fill="none" /><path id="788" transform="matrix(1 0 0 -1 0 792)" d="M172.9134 459.0256L224.7874 459.0256" stroke="#000000" stroke-width="1" fill="none" /><path id="789" transform="matrix(1 0 0 -1 0 792)" d="M224.7874 459.0256L272.0314 459.0256" stroke="#000000" stroke-width="1" fill="none" /><path id="790" transform="matrix(1 0 0 -1 0 792)" d="M272.0315 459.0256L329.3855 459.0256" stroke="#000000" stroke-width="1" fill="none" /><path id="791" transform="matrix(1 0 0 -1 0 792)" d="M329.3858 459.0256L392.7398 459.0256" stroke="#000000" stroke-width="1" fill="none" /><path id="792" transform="matrix(1 0 0 -1 0 792)" d="M392.7402 459.0256L555.3072 459.0256" stroke="#000000" stroke-width="1" fill="none" /><g clip-path="url(#2)"><path id="1173" transform="matrix(1 0 0 -1 0 792)" d="M555.6614 32.702L555.6614 -12.691" stroke="#000000" stroke-width="0.75" stroke-linecap="round" stroke-dasharray="0.75,1.464" fill="none" /><path id="1174" transform="matrix(1 0 0 -1 0 792)" d="M555.6614 -13.7986L555.6614 -13.7986M555.6614 34.9164L555.6614 34.9164" stroke="#000000" stroke-width="0.75" stroke-linecap="round" fill="none" /></g></g></g></svg>