<svg xmlns="http://www.w3.org/2000/svg" xmlns:xlink="http://www.w3.org/1999/xlink" id="body_9" preserveAspectRatio="xMinYMin meet" viewBox="0 0 816 1056"><defs><clipPath id="1"><path id="" clip-rule="evenodd" transform="matrix(1 0 0 1 0 0)" d="M0 792L0 0L0 0L612 0L612 0L612 792L612 792L0 792z" /></clipPath><clipPath id="2"><path id="" clip-rule="evenodd" transform="matrix(1 0 0 1 0 0)" d="M0 0L612 0L612 0L612 792L612 792L0 792z" /></clipPath></defs><g transform="matrix(1.333333 0 0 1.333333 0 0)"><g clip-path="url(#1)"><path id="1" transform="matrix(1 0 0 -1 0 792)" d="M70.866 719.682L307.086 719.682L307.086 738.142L70.866 738.142z" stroke="none" fill="#000000" fill-rule="nonzero" /><path id="2" transform="matrix(1 0 0 -1 0 792)" d="M73.3595 584.5247L305.5895 584.5247" stroke="#000000" stroke-width="1" stroke-linecap="round" stroke-dasharray="1,1" fill="none" /><path id="3" transform="matrix(1 0 0 -1 0 792)" d="M306.5861 584.5247L306.5861 584.5247M71.3661 584.5247L71.3661 584.5247" stroke="#000000" stroke-width="1" stroke-linecap="round" fill="none" /><path id="4" transform="matrix(1 0 0 -1 0 792)" d="M73.3595 489.8396L305.5895 489.8396" stroke="#000000" stroke-width="1" stroke-linecap="round" stroke-dasharray="1,1" fill="none" /><path id="5" transform="matrix(1 0 0 -1 0 792)" d="M306.5861 489.8396L306.5861 489.8396M71.3661 489.8396L71.3661 489.8396" stroke="#000000" stroke-width="1" stroke-linecap="round" fill="none" /><path id="6" transform="matrix(1 0 0 -1 0 792)" d="M75.1181 467.0857L75.1181 475.2507" stroke="#BBBDC0" stroke-width="8" fill="none" /><path id="7" transform="matrix(1 0 0 -1 0 792)" d="M75.1181 406.0778L75.1181 414.2428" stroke="#BBBDC0" stroke-width="8" fill="none" /><path id="1074" transform="matrix(1 0 0 -1 0 792)" d="M319.087 676.839L555.307 676.839L555.307 695.299L319.087 695.299z" stroke="none" fill="#EBEBEC" fill-rule="nonzero" /><path id="1075" transform="matrix(1 0 0 -1 0 792)" d="M323.3386 632.8101L323.3386 640.9751" stroke="#BBBDC0" stroke-width="8" fill="none" /><path id="1076" transform="matrix(1 0 0 -1 0 792)" d="M323.3386 593.8022L323.3386 601.9672" stroke="#BBBDC0" stroke-width="8" fill="none" /><path id="1077" transform="matrix(1 0 0 -1 0 792)" d="M323.3386 458.2904L323.3386 466.4554" stroke="#BBBDC0" stroke-width="8" fill="none" /><path id="1078" transform="matrix(1 0 0 -1 0 792)" d="M323.3386 397.2826L323.3386 405.4476" stroke="#BBBDC0" stroke-width="8" fill="none" /><path id="1079" transform="matrix(1 0 0 -1 0 792)" d="M319.087 321.501L555.307 321.501L555.307 339.961L319.087 339.961z" stroke="none" fill="#EBEBEC" fill-rule="nonzero" /><path id="1080" transform="matrix(1 0 0 -1 0 792)" d="M323.3386 277.4715L323.3386 285.6365" stroke="#BBBDC0" stroke-width="8" fill="none" /><path id="1081" transform="matrix(1 0 0 -1 0 792)" d="M323.3386 238.4636L323.3386 246.6286" stroke="#BBBDC0" stroke-width="8" fill="none" /><g clip-path="url(#2)"><path id="2175" transform="matrix(1 0 0 -1 0 792)" d="M555.6614 32.702L555.6614 -12.691" stroke="#000000" stroke-width="0.75" stroke-linecap="round" stroke-dasharray="0.75,1.464" fill="none" /><path id="2176" transform="matrix(1 0 0 -1 0 792)" d="M555.6614 -13.7986L555.6614 -13.7986M555.6614 34.9164L555.6614 34.9164" stroke="#000000" stroke-width="0.75" stroke-linecap="round" fill="none" /></g></g></g></svg>