<svg xmlns="http://www.w3.org/2000/svg" xmlns:xlink="http://www.w3.org/1999/xlink" id="body_18" preserveAspectRatio="xMinYMin meet" viewBox="0 0 816 1056"><defs><clipPath id="1"><path id="" clip-rule="evenodd" transform="matrix(1 0 0 1 0 0)" d="M0 792L0 0L0 0L612 0L612 0L612 792L612 792L0 792z" /></clipPath><clipPath id="2"><path id="" clip-rule="evenodd" transform="matrix(1 0 0 1 0 0)" d="M0 0L612 0L612 0L612 792L612 792L0 792z" /></clipPath></defs><g transform="matrix(1.333333 0 0 1.333333 0 0)"><g clip-path="url(#1)"><path id="1" transform="matrix(1 0 0 -1 0 792)" d="M56.693 377.121L292.913 377.121L292.913 476.298L56.693 476.298z" stroke="none" fill="#F0F1F1" fill-rule="nonzero" /><path id="2" transform="matrix(1 0 0 -1 0 792)" d="M292.9134 377.1211L56.69339 377.1211" stroke="#939597" stroke-width="1" fill="none" /><path id="3" transform="matrix(1 0 0 -1 0 792)" d="M56.6929 476.2983L292.9129 476.2983" stroke="#939597" stroke-width="1" fill="none" /><g clip-path="url(#2)"><path id="2998" transform="matrix(1 0 0 -1 0 792)" d="M56.9448 32.702L56.9448 -12.691" stroke="#000000" stroke-width="0.75" stroke-linecap="round" stroke-dasharray="0.75,1.464" fill="none" /><path id="2999" transform="matrix(1 0 0 -1 0 792)" d="M56.9448 -13.7986L56.9448 -13.7986M56.9448 34.9164L56.9448 34.9164" stroke="#000000" stroke-width="0.75" stroke-linecap="round" fill="none" /></g></g></g></svg>