<svg xmlns="http://www.w3.org/2000/svg" xmlns:xlink="http://www.w3.org/1999/xlink" id="body_77" preserveAspectRatio="xMinYMin meet" viewBox="0 0 816 1056"><defs><clipPath id="1"><path id="" clip-rule="evenodd" transform="matrix(1 0 0 1 0 0)" d="M0 792L0 0L0 0L612 0L612 0L612 792L612 792L0 792z" /></clipPath><clipPath id="2"><path id="" clip-rule="evenodd" transform="matrix(1 0 0 1 0 0)" d="M70.866 252.678L307.417 252.678L307.417 252.678L307.417 56.69299L307.417 56.69299L70.866 56.69299z" /></clipPath><clipPath id="3"><path id="" clip-rule="evenodd" transform="matrix(1 0 0 1 0 0)" d="M61.8661 48.69299L316.417 48.69299L316.417 48.69299L316.417 255.385L316.417 255.385L61.8661 255.385z" /></clipPath><clipPath id="4"><path id="" clip-rule="evenodd" transform="matrix(1 0 0 1 0 0)" d="M70.866 452.837L307.417 452.837L307.417 452.837L307.417 260.764L307.417 260.764L70.866 260.764z" /></clipPath><clipPath id="5"><path id="" clip-rule="evenodd" transform="matrix(1 0 0 1 0 0)" d="M61.8662 252.763L316.417 252.763L316.417 252.763L316.417 450.455L316.417 450.455L61.8662 450.455z" /></clipPath><clipPath id="6"><path id="" clip-rule="evenodd" transform="matrix(1 0 0 1 0 0)" d="M70.866 680.53L307.417 680.53L307.417 680.53L307.417 460.868L307.417 460.868L70.866 460.868z" /></clipPath><clipPath id="7"><path id="" clip-rule="evenodd" transform="matrix(1 0 0 1 0 0)" d="M61.8662 452.957L316.417 452.957L316.417 452.957L316.417 669.149L316.417 669.149L61.8662 669.149z" /></clipPath><clipPath id="8"><path id="" clip-rule="evenodd" transform="matrix(1 0 0 1 0 0)" d="M319.087 274.961L555.638 274.961L555.638 274.961L555.638 56.69299L555.638 56.69299L319.087 56.69299z" /></clipPath><clipPath id="9"><path id="" clip-rule="evenodd" transform="matrix(1 0 0 1 0 0)" d="M310.087 48.91803L564.638 48.91803L564.638 48.91803L564.638 277.444L564.638 277.444L310.087 277.444z" /></clipPath><clipPath id="10"><path id="" clip-rule="evenodd" transform="matrix(1 0 0 1 0 0)" d="M319.087 471.667L555.638 471.667L555.638 471.667L555.638 285.184L555.638 285.184L319.087 285.184z" /></clipPath><clipPath id="11"><path id="" clip-rule="evenodd" transform="matrix(1 0 0 1 0 0)" d="M310.087 277.184L564.638 277.184L564.638 277.184L564.638 474.376L564.638 474.376L310.087 474.376z" /></clipPath><clipPath id="12"><path id="" clip-rule="evenodd" transform="matrix(1 0 0 1 0 0)" d="M319.087 629.807L555.638 629.807L555.638 629.807L555.638 482.24L555.638 482.24L319.087 482.24z" /></clipPath><clipPath id="13"><path id="" clip-rule="evenodd" transform="matrix(1 0 0 1 0 0)" d="M310.087 474.24L564.638 474.24L564.638 474.24L564.638 632.515L564.638 632.515L310.087 632.515z" /></clipPath><clipPath id="14"><path id="" clip-rule="evenodd" transform="matrix(1 0 0 1 0 0)" d="M0 0L612 0L612 0L612 792L612 792L0 792z" /></clipPath></defs><g transform="matrix(1.333333 0 0 1.333333 0 0)"><g clip-path="url(#1)"><path id="1" transform="matrix(1 0 0 -1 0 792)" d="M73.701 735.3072L70.866 732.4722L70.866 542.1582L73.701 539.3232L304.582 539.3232L307.417 542.1582L307.417 732.4722L304.582 735.3072z" stroke="none" fill="#EAEBEC" fill-rule="nonzero" /><path id="2" transform="matrix(1 0 0 -1 0 792)" d="M77.035 647.414L301.248 647.414L301.248 672.918L77.035 672.918z" stroke="none" fill="#FFFEFE" fill-rule="nonzero" /><path id="3" transform="matrix(1 0 0 -1 0 792)" d="M77.0354 672.9178L301.2484 672.9178" stroke="#939597" stroke-width="0.5" fill="none" /><path id="4" transform="matrix(1 0 0 -1 0 792)" d="M77.035 632.745L301.248 632.745L301.248 652.084L77.035 652.084z" stroke="none" fill="#FFFEFE" fill-rule="nonzero" /><path id="5" transform="matrix(1 0 0 -1 0 792)" d="M78.0546 647.8312L300.7386 647.8312" stroke="#BBBDC0" stroke-width="0.51" stroke-linecap="round" stroke-dasharray="0.51,0.51" fill="none" /><path id="6" transform="matrix(1 0 0 -1 0 792)" d="M301.2484 647.8312L301.2484 647.8312M77.0354 647.8312L77.0354 647.8312" stroke="#BBBDC0" stroke-width="0.51" stroke-linecap="round" fill="none" /><path id="7" transform="matrix(1 0 0 -1 0 792)" d="M77.0354 632.5143L300.6964 632.5143" stroke="#939597" stroke-width="0.5" fill="none" /><g clip-path="url(#2)"><g><g clip-path="url(#3)"><path id="562" transform="matrix(1 0 0 -1 0 792)" d="M73.8043 735.0571C 72.90829 734.1611 72.0123 733.2651 71.11629 732.3691L71.11629 732.3691L71.11629 542.2611C 72.0123 541.3651 72.90829 540.4691 73.8043 539.5731L73.8043 539.5731L304.4793 539.5731C 305.3753 540.4691 306.2713 541.3651 307.1673 542.2611L307.1673 542.2611L307.1673 732.3691C 306.2713 733.2651 305.3753 734.1611 304.4793 735.0571L304.4793 735.0571L73.8043 735.0571z" stroke="#000000" stroke-width="0.5" fill="none" stroke-opacity="0.4980392" /></g></g></g><path id="563" transform="matrix(1 0 0 -1 0 792)" d="M73.701 531.2367L70.866 528.4017L70.866 347.0877L73.701 344.2527L304.582 344.2527L307.417 347.0877L307.417 528.4017L304.582 531.2367z" stroke="none" fill="#EAEBEC" fill-rule="nonzero" /><path id="564" transform="matrix(1 0 0 -1 0 792)" d="M77.035 452.343L301.248 452.343L301.248 477.847L77.035 477.847z" stroke="none" fill="#FFFEFE" fill-rule="nonzero" /><path id="565" transform="matrix(1 0 0 -1 0 792)" d="M77.0355 477.8472L301.2485 477.8472" stroke="#939597" stroke-width="0.5" fill="none" /><path id="566" transform="matrix(1 0 0 -1 0 792)" d="M77.035 437.674L301.248 437.674L301.248 457.013L77.035 457.013z" stroke="none" fill="#FFFEFE" fill-rule="nonzero" /><path id="567" transform="matrix(1 0 0 -1 0 792)" d="M78.0546 452.7606L300.7386 452.7606" stroke="#BBBDC0" stroke-width="0.51" stroke-linecap="round" stroke-dasharray="0.51,0.51" fill="none" /><path id="568" transform="matrix(1 0 0 -1 0 792)" d="M301.2485 452.7606L301.2485 452.7606M77.0355 452.7606L77.0355 452.7606" stroke="#BBBDC0" stroke-width="0.51" stroke-linecap="round" fill="none" /><path id="569" transform="matrix(1 0 0 -1 0 792)" d="M77.0355 437.4437L300.6965 437.4437" stroke="#939597" stroke-width="0.5" fill="none" /><g clip-path="url(#4)"><g><g clip-path="url(#5)"><path id="1160" transform="matrix(1 0 0 -1 0 792)" d="M73.8044 530.9865C 72.90839 530.0905 72.0124 529.1945 71.11639 528.2985L71.11639 528.2985L71.11639 347.1905C 72.0124 346.2945 72.90839 345.3985 73.8044 344.5025L73.8044 344.5025L304.4794 344.5025L304.4794 344.5025L307.1674 347.1905L307.1674 347.1905L307.1674 528.2985C 306.2714 529.1945 305.3754 530.0905 304.4794 530.9865L304.4794 530.9865L73.8044 530.9865z" stroke="#000000" stroke-width="0.5" fill="none" stroke-opacity="0.4980392" /></g></g></g><path id="1161" transform="matrix(1 0 0 -1 0 792)" d="M73.701 331.0434L70.866 328.2084L70.866 128.3944L73.701 125.5604L304.582 125.5604L307.417 128.3944L307.417 328.2084L304.582 331.0434z" stroke="none" fill="#EAEBEC" fill-rule="nonzero" /><path id="1162" transform="matrix(1 0 0 -1 0 792)" d="M77.035 243.15L301.248 243.15L301.248 268.654L77.035 268.654z" stroke="none" fill="#FFFEFE" fill-rule="nonzero" /><path id="1163" transform="matrix(1 0 0 -1 0 792)" d="M77.0355 268.6539L301.2485 268.6539" stroke="#939597" stroke-width="0.5" fill="none" /><path id="1164" transform="matrix(1 0 0 -1 0 792)" d="M77.035 228.481L301.248 228.481L301.248 247.82L77.035 247.82z" stroke="none" fill="#FFFEFE" fill-rule="nonzero" /><path id="1165" transform="matrix(1 0 0 -1 0 792)" d="M78.0546 243.5673L300.7386 243.5673" stroke="#BBBDC0" stroke-width="0.51" stroke-linecap="round" stroke-dasharray="0.51,0.51" fill="none" /><path id="1166" transform="matrix(1 0 0 -1 0 792)" d="M301.2485 243.5673L301.2485 243.5673M77.0355 243.5673L77.0355 243.5673" stroke="#BBBDC0" stroke-width="0.51" stroke-linecap="round" fill="none" /><path id="1167" transform="matrix(1 0 0 -1 0 792)" d="M77.0355 228.2504L300.6965 228.2504" stroke="#939597" stroke-width="0.5" fill="none" /><g clip-path="url(#6)"><g><g clip-path="url(#7)"><path id="1773" transform="matrix(1 0 0 -1 0 792)" d="M73.8044 330.7932C 72.90839 329.8972 72.0124 329.0012 71.11639 328.1052L71.11639 328.1052L71.11639 128.4972L71.11639 128.4972L73.8044 125.8092L73.8044 125.8092L304.4794 125.8092C 305.3754 126.7052 306.2714 127.6012 307.1674 128.4972L307.1674 128.4972L307.1674 328.1052L307.1674 328.1052L304.4794 330.7932L304.4794 330.7932L73.8044 330.7932z" stroke="#000000" stroke-width="0.5" fill="none" stroke-opacity="0.4980392" /></g></g></g><path id="1774" transform="matrix(1 0 0 -1 0 792)" d="M321.921 735.0822L319.087 732.2482L319.087 520.0982L321.921 517.2642L552.803 517.2642L555.638 520.0982L555.638 732.2482L552.803 735.0822z" stroke="none" fill="#EAEBEC" fill-rule="nonzero" /><path id="1775" transform="matrix(1 0 0 -1 0 792)" d="M325.256 647.189L549.469 647.189L549.469 672.6931L325.256 672.6931z" stroke="none" fill="#FFFEFE" fill-rule="nonzero" /><path id="1776" transform="matrix(1 0 0 -1 0 792)" d="M325.2559 672.6932L549.4689 672.6932" stroke="#939597" stroke-width="0.5" fill="none" /><path id="1777" transform="matrix(1 0 0 -1 0 792)" d="M325.256 632.52L549.469 632.52L549.469 651.859L325.256 651.859z" stroke="none" fill="#FFFEFE" fill-rule="nonzero" /><path id="1778" transform="matrix(1 0 0 -1 0 792)" d="M326.2751 647.6066L548.9591 647.6066" stroke="#BBBDC0" stroke-width="0.51" stroke-linecap="round" stroke-dasharray="0.51,0.51" fill="none" /><path id="1779" transform="matrix(1 0 0 -1 0 792)" d="M549.4689 647.6066L549.4689 647.6066M325.2559 647.6066L325.2559 647.6066" stroke="#BBBDC0" stroke-width="0.51" stroke-linecap="round" fill="none" /><path id="1780" transform="matrix(1 0 0 -1 0 792)" d="M325.2559 632.2897L548.9169 632.2897" stroke="#939597" stroke-width="0.5" fill="none" /><g clip-path="url(#8)"><g><g clip-path="url(#9)"><path id="2434" transform="matrix(1 0 0 -1 0 792)" d="M322.0248 734.8325C 321.1288 733.9365 320.2328 733.0405 319.3368 732.1445L319.3368 732.1445L319.3368 520.2025C 320.2328 519.3065 321.1288 518.4105 322.0248 517.5145L322.0248 517.5145L552.6998 517.5145C 553.5958 518.4105 554.4918 519.3065 555.3878 520.2025L555.3878 520.2025L555.3878 732.1445L555.3878 732.1445L552.6998 734.8325L552.6998 734.8325L322.0248 734.8325z" stroke="#000000" stroke-width="0.5" fill="none" stroke-opacity="0.4980392" /></g></g></g><path id="2435" transform="matrix(1 0 0 -1 0 792)" d="M321.921 506.8161L319.087 503.9811L319.087 323.1661L321.92 320.3331L552.804 320.3331L555.638 323.1661L555.638 503.9811L552.803 506.8161z" stroke="none" fill="#EAEBEC" fill-rule="nonzero" /><path id="2436" transform="matrix(1 0 0 -1 0 792)" d="M325.256 418.923L549.469 418.923L549.469 444.427L325.256 444.427z" stroke="none" fill="#FFFEFE" fill-rule="nonzero" /><path id="2437" transform="matrix(1 0 0 -1 0 792)" d="M325.256 444.4266L549.469 444.4266" stroke="#939597" stroke-width="0.5" fill="none" /><path id="2438" transform="matrix(1 0 0 -1 0 792)" d="M325.256 404.253L549.469 404.253L549.469 423.592L325.256 423.592z" stroke="none" fill="#FFFEFE" fill-rule="nonzero" /><path id="2439" transform="matrix(1 0 0 -1 0 792)" d="M326.2751 419.34L548.9591 419.34" stroke="#BBBDC0" stroke-width="0.51" stroke-linecap="round" stroke-dasharray="0.51,0.51" fill="none" /><path id="2440" transform="matrix(1 0 0 -1 0 792)" d="M549.469 419.34L549.469 419.34M325.256 419.34L325.256 419.34" stroke="#BBBDC0" stroke-width="0.51" stroke-linecap="round" fill="none" /><path id="2441" transform="matrix(1 0 0 -1 0 792)" d="M325.256 404.023L548.917 404.023" stroke="#939597" stroke-width="0.5" fill="none" /><g clip-path="url(#10)"><g><g clip-path="url(#11)"><path id="2926" transform="matrix(1 0 0 -1 0 792)" d="M322.0249 506.5659C 321.1289 505.6699 320.2329 504.7739 319.3369 503.8779L319.3369 503.8779L319.3369 323.2699C 320.2329 322.3739 321.1289 321.4779 322.0249 320.5819L322.0249 320.5819L552.6999 320.5819C 553.5959 321.4779 554.4919 322.3739 555.3879 323.2699L555.3879 323.2699L555.3879 503.8779C 554.4919 504.7739 553.5959 505.6699 552.6999 506.5659L552.6999 506.5659L322.0249 506.5659z" stroke="#000000" stroke-width="0.5" fill="none" stroke-opacity="0.4980392" /></g></g></g><path id="2927" transform="matrix(1 0 0 -1 0 792)" d="M321.921 309.7602L319.087 306.9252L319.087 165.0282L321.921 162.1932L552.803 162.1932L555.638 165.0282L555.638 306.9252L552.803 309.7602z" stroke="none" fill="#EAEBEC" fill-rule="nonzero" /><path id="2928" transform="matrix(1 0 0 -1 0 792)" d="M325.256 230.867L549.469 230.867L549.469 256.371L325.256 256.371z" stroke="none" fill="#FFFEFE" fill-rule="nonzero" /><path id="2929" transform="matrix(1 0 0 -1 0 792)" d="M325.256 256.3706L549.469 256.3706" stroke="#939597" stroke-width="0.5" fill="none" /><path id="2930" transform="matrix(1 0 0 -1 0 792)" d="M325.256 216.197L549.469 216.197L549.469 235.536L325.256 235.536z" stroke="none" fill="#FFFEFE" fill-rule="nonzero" /><path id="2931" transform="matrix(1 0 0 -1 0 792)" d="M326.2751 231.284L548.9591 231.284" stroke="#BBBDC0" stroke-width="0.51" stroke-linecap="round" stroke-dasharray="0.51,0.51" fill="none" /><path id="2932" transform="matrix(1 0 0 -1 0 792)" d="M549.469 231.284L549.469 231.284M325.256 231.284L325.256 231.284" stroke="#BBBDC0" stroke-width="0.51" stroke-linecap="round" fill="none" /><path id="2933" transform="matrix(1 0 0 -1 0 792)" d="M325.256 215.9671L548.917 215.9671" stroke="#939597" stroke-width="0.5" fill="none" /><g clip-path="url(#12)"><g><g clip-path="url(#13)"><path id="3297" transform="matrix(1 0 0 -1 0 792)" d="M322.0249 309.5099C 321.1289 308.6139 320.2329 307.7179 319.3369 306.8219L319.3369 306.8219L319.3369 165.1319C 320.2329 164.2359 321.1289 163.3399 322.0249 162.4439L322.0249 162.4439L552.6999 162.4439C 553.5959 163.3399 554.4919 164.2359 555.3879 165.1319L555.3879 165.1319L555.3879 306.8219C 554.4919 307.7179 553.5959 308.6139 552.6999 309.5099L552.6999 309.5099L322.0249 309.5099z" stroke="#000000" stroke-width="0.5" fill="none" stroke-opacity="0.4980392" /></g></g></g><g clip-path="url(#14)"><path id="3314" transform="matrix(1 0 0 -1 0 792)" d="M555.6614 32.702L555.6614 -12.691" stroke="#000000" stroke-width="0.75" stroke-linecap="round" stroke-dasharray="0.75,1.464" fill="none" /><path id="3315" transform="matrix(1 0 0 -1 0 792)" d="M555.6614 -13.7986L555.6614 -13.7986M555.6614 34.9164L555.6614 34.9164" stroke="#000000" stroke-width="0.75" stroke-linecap="round" fill="none" /></g></g></g></svg>