<svg xmlns="http://www.w3.org/2000/svg" xmlns:xlink="http://www.w3.org/1999/xlink" id="body_118" preserveAspectRatio="xMinYMin meet" viewBox="0 0 816 1056"><defs><clipPath id="1"><path id="" clip-rule="evenodd" transform="matrix(1 0 0 1 0 0)" d="M0 792L0 0L0 0L612 0L612 0L612 792L612 792L0 792z" /></clipPath><clipPath id="2"><path id="" clip-rule="evenodd" transform="matrix(1 0 0 1 0 0)" d="M0 0L612 0L612 0L612 792L612 792L0 792z" /></clipPath></defs><g transform="matrix(1.333333 0 0 1.333333 0 0)"><g clip-path="url(#1)"><path id="1" transform="matrix(1 0 0 -1 0 792)" d="M56.693 284.614L292.913 284.614L292.913 387.96L56.693 387.96z" stroke="none" fill="#F0F1F1" fill-rule="nonzero" /><path id="2" transform="matrix(1 0 0 -1 0 792)" d="M292.9134 284.6142L56.69339 284.6142" stroke="#939597" stroke-width="1" fill="none" /><path id="3" transform="matrix(1 0 0 -1 0 792)" d="M56.6929 387.9607L292.9129 387.9607" stroke="#939597" stroke-width="1" fill="none" /><path id="2249" transform="matrix(1 0 0 -1 0 792)" d="M309.1653 437.8701L309.1653 446.0351" stroke="#BBBDC0" stroke-width="8" fill="none" /><path id="2250" transform="matrix(1 0 0 -1 0 792)" d="M304.913 50.417L541.133 50.417L541.133 181.433L304.913 181.433z" stroke="none" fill="#F0F1F1" fill-rule="nonzero" /><path id="2251" transform="matrix(1 0 0 -1 0 792)" d="M541.1339 50.4174L304.9139 50.4174" stroke="#939597" stroke-width="1" fill="none" /><path id="2252" transform="matrix(1 0 0 -1 0 792)" d="M304.9134 181.4331L541.1334 181.4331" stroke="#939597" stroke-width="1" fill="none" /><g clip-path="url(#2)"><path id="4439" transform="matrix(1 0 0 -1 0 792)" d="M56.9448 32.702L56.9448 -12.691" stroke="#000000" stroke-width="0.75" stroke-linecap="round" stroke-dasharray="0.75,1.464" fill="none" /><path id="4440" transform="matrix(1 0 0 -1 0 792)" d="M56.9448 -13.7986L56.9448 -13.7986M56.9448 34.9164L56.9448 34.9164" stroke="#000000" stroke-width="0.75" stroke-linecap="round" fill="none" /></g></g></g></svg>