<svg xmlns="http://www.w3.org/2000/svg" xmlns:xlink="http://www.w3.org/1999/xlink" id="body_89" preserveAspectRatio="xMinYMin meet" viewBox="0 0 816 1056"><defs><clipPath id="1"><path id="" clip-rule="evenodd" transform="matrix(1 0 0 1 0 0)" d="M0 792L0 0L0 0L612 0L612 0L612 792L612 792L0 792z" /></clipPath><clipPath id="2"><path id="" clip-rule="evenodd" transform="matrix(1 0 0 1 0 0)" d="M70.866 292.594L307.418 292.594L307.418 292.594L307.418 56.69299L307.418 56.69299L70.866 56.69299z" /></clipPath><clipPath id="3"><path id="" clip-rule="evenodd" transform="matrix(1 0 0 1 0 0)" d="M61.8662 48.69299L316.417 48.69299L316.417 48.69299L316.417 295.302L316.417 295.302L61.8662 295.302z" /></clipPath><clipPath id="4"><path id="" clip-rule="evenodd" transform="matrix(1 0 0 1 0 0)" d="M70.866 578.687L307.418 578.687L307.418 578.687L307.418 303.868L307.418 303.868L70.866 303.868z" /></clipPath><clipPath id="5"><path id="" clip-rule="evenodd" transform="matrix(1 0 0 1 0 0)" d="M61.8662 295.868L316.417 295.868L316.417 295.868L316.417 581.395L316.417 581.395L61.8662 581.395z" /></clipPath><clipPath id="6"><path id="" clip-rule="evenodd" transform="matrix(1 0 0 1 0 0)" d="M319.087 283.094L555.638 283.094L555.638 283.094L555.638 56.69299L555.638 56.69299L319.087 56.69299z" /></clipPath><clipPath id="7"><path id="" clip-rule="evenodd" transform="matrix(1 0 0 1 0 0)" d="M310.087 48.69299L564.638 48.69299L564.638 48.69299L564.638 285.802L564.638 285.802L310.087 285.802z" /></clipPath><clipPath id="8"><path id="" clip-rule="evenodd" transform="matrix(1 0 0 1 0 0)" d="M319.087 549.501L555.638 549.501L555.638 549.501L555.638 293.683L555.638 293.683L319.087 293.683z" /></clipPath><clipPath id="9"><path id="" clip-rule="evenodd" transform="matrix(1 0 0 1 0 0)" d="M310.087 285.683L564.638 285.683L564.638 285.683L564.638 543.21L564.638 543.21L310.087 543.21z" /></clipPath><clipPath id="10"><path id="" clip-rule="evenodd" transform="matrix(1 0 0 1 0 0)" d="M0 0L612 0L612 0L612 792L612 792L0 792z" /></clipPath></defs><g transform="matrix(1.333333 0 0 1.333333 0 0)"><g clip-path="url(#1)"><path id="1" transform="matrix(1 0 0 -1 0 792)" d="M73.701 735.3072L70.866 732.4722L70.866 502.2402L73.701 499.4062L304.583 499.4062L307.418 502.2402L307.418 732.4722L304.583 735.3072z" stroke="none" fill="#EAEBEC" fill-rule="nonzero" /><path id="2" transform="matrix(1 0 0 -1 0 792)" d="M77.035 656.414L301.248 656.414L301.248 681.918L77.035 681.918z" stroke="none" fill="#FFFEFE" fill-rule="nonzero" /><path id="3" transform="matrix(1 0 0 -1 0 792)" d="M77.0355 681.9179L301.2485 681.9179" stroke="#939597" stroke-width="0.5" fill="none" /><path id="4" transform="matrix(1 0 0 -1 0 792)" d="M77.035 641.745L301.248 641.745L301.248 661.084L77.035 661.084z" stroke="none" fill="#FFFEFE" fill-rule="nonzero" /><path id="5" transform="matrix(1 0 0 -1 0 792)" d="M78.0546 656.8313L300.7386 656.8313" stroke="#BBBDC0" stroke-width="0.51" stroke-linecap="round" stroke-dasharray="0.51,0.51" fill="none" /><path id="6" transform="matrix(1 0 0 -1 0 792)" d="M301.2485 656.8313L301.2485 656.8313M77.0355 656.8313L77.0355 656.8313" stroke="#BBBDC0" stroke-width="0.51" stroke-linecap="round" fill="none" /><path id="7" transform="matrix(1 0 0 -1 0 792)" d="M77.0355 641.5144L300.6965 641.5144" stroke="#939597" stroke-width="0.5" fill="none" /><g clip-path="url(#2)"><g><g clip-path="url(#3)"><path id="810" transform="matrix(1 0 0 -1 0 792)" d="M73.8044 735.0572C 72.90839 734.1612 72.0124 733.2652 71.11639 732.3692L71.11639 732.3692L71.11639 502.3442C 72.0124 501.4482 72.90839 500.5522 73.8044 499.6562L73.8044 499.6562L304.4794 499.6562C 305.3754 500.5522 306.2714 501.4482 307.1674 502.3442L307.1674 502.3442L307.1674 732.3692C 306.2714 733.2652 305.3754 734.1612 304.4794 735.0572L304.4794 735.0572L73.8044 735.0572z" stroke="#000000" stroke-width="0.5" fill="none" stroke-opacity="0.4980392" /></g></g></g><path id="811" transform="matrix(1 0 0 -1 0 792)" d="M73.701 488.1312L70.866 485.2972L70.866 216.1472L73.701 213.3132L304.583 213.3132L307.418 216.1472L307.418 485.2972L304.583 488.1312z" stroke="none" fill="#EAEBEC" fill-rule="nonzero" /><path id="812" transform="matrix(1 0 0 -1 0 792)" d="M77.035 400.238L301.248 400.238L301.248 425.742L77.035 425.742z" stroke="none" fill="#FFFEFE" fill-rule="nonzero" /><path id="813" transform="matrix(1 0 0 -1 0 792)" d="M77.0355 425.7422L301.2485 425.7422" stroke="#939597" stroke-width="0.5" fill="none" /><path id="814" transform="matrix(1 0 0 -1 0 792)" d="M77.035 385.569L301.248 385.569L301.248 404.908L77.035 404.908z" stroke="none" fill="#FFFEFE" fill-rule="nonzero" /><path id="815" transform="matrix(1 0 0 -1 0 792)" d="M78.0546 400.6556L300.7386 400.6556" stroke="#BBBDC0" stroke-width="0.51" stroke-linecap="round" stroke-dasharray="0.51,0.51" fill="none" /><path id="816" transform="matrix(1 0 0 -1 0 792)" d="M301.2485 400.6556L301.2485 400.6556M77.0355 400.6556L77.0355 400.6556" stroke="#BBBDC0" stroke-width="0.51" stroke-linecap="round" fill="none" /><path id="817" transform="matrix(1 0 0 -1 0 792)" d="M77.0355 385.3387L300.6965 385.3387" stroke="#939597" stroke-width="0.5" fill="none" /><g clip-path="url(#4)"><g><g clip-path="url(#5)"><path id="1755" transform="matrix(1 0 0 -1 0 792)" d="M73.8044 487.8815C 72.90839 486.9855 72.0124 486.0895 71.11639 485.1935L71.11639 485.1935L71.11639 216.2515C 72.0124 215.3555 72.90839 214.4595 73.8044 213.5635L73.8044 213.5635L304.4794 213.5635C 305.3754 214.4595 306.2714 215.3555 307.1674 216.2515L307.1674 216.2515L307.1674 485.1935C 306.2714 486.0895 305.3754 486.9855 304.4794 487.8815L304.4794 487.8815L73.8044 487.8815z" stroke="#000000" stroke-width="0.5" fill="none" stroke-opacity="0.4980392" /></g></g></g><path id="1756" transform="matrix(1 0 0 -1 0 792)" d="M321.921 735.3072L319.087 732.4722L319.087 511.7412L321.921 508.9062L552.803 508.9062L555.637 511.7412L555.637 732.4722L552.803 735.3072z" stroke="none" fill="#EAEBEC" fill-rule="nonzero" /><path id="1757" transform="matrix(1 0 0 -1 0 792)" d="M325.256 656.414L549.469 656.414L549.469 681.918L325.256 681.918z" stroke="none" fill="#FFFEFE" fill-rule="nonzero" /><path id="1758" transform="matrix(1 0 0 -1 0 792)" d="M325.2559 681.9179L549.4689 681.9179" stroke="#939597" stroke-width="0.5" fill="none" /><path id="1759" transform="matrix(1 0 0 -1 0 792)" d="M325.256 641.745L549.469 641.745L549.469 661.084L325.256 661.084z" stroke="none" fill="#FFFEFE" fill-rule="nonzero" /><path id="1760" transform="matrix(1 0 0 -1 0 792)" d="M326.2751 656.8313L548.9591 656.8313" stroke="#BBBDC0" stroke-width="0.51" stroke-linecap="round" stroke-dasharray="0.51,0.51" fill="none" /><path id="1761" transform="matrix(1 0 0 -1 0 792)" d="M549.4689 656.8313L549.4689 656.8313M325.2559 656.8313L325.2559 656.8313" stroke="#BBBDC0" stroke-width="0.51" stroke-linecap="round" fill="none" /><path id="1762" transform="matrix(1 0 0 -1 0 792)" d="M325.2559 641.5144L548.9169 641.5144" stroke="#939597" stroke-width="0.5" fill="none" /><g clip-path="url(#6)"><g><g clip-path="url(#7)"><path id="2511" transform="matrix(1 0 0 -1 0 792)" d="M322.0248 735.0572C 321.1288 734.1612 320.2328 733.2652 319.3368 732.3692L319.3368 732.3692L319.3368 511.8442C 320.2328 510.9482 321.1288 510.0522 322.0248 509.1562L322.0248 509.1562L552.6998 509.1562C 553.5958 510.0522 554.4918 510.9482 555.3878 511.8442L555.3878 511.8442L555.3878 732.3692L555.3878 732.3692L552.6998 735.0572L552.6998 735.0572L322.0248 735.0572z" stroke="#000000" stroke-width="0.5" fill="none" stroke-opacity="0.4980392" /></g></g></g><path id="2512" transform="matrix(1 0 0 -1 0 792)" d="M321.921 498.3165L319.087 495.4825L319.087 254.3325L321.921 251.4985L552.803 251.4985L555.637 254.3325L555.637 495.4825L552.803 498.3165z" stroke="none" fill="#EAEBEC" fill-rule="nonzero" /><path id="2513" transform="matrix(1 0 0 -1 0 792)" d="M325.256 419.424L549.469 419.424L549.469 444.928L325.256 444.928z" stroke="none" fill="#FFFEFE" fill-rule="nonzero" /><path id="2514" transform="matrix(1 0 0 -1 0 792)" d="M325.256 444.9274L549.469 444.9274" stroke="#939597" stroke-width="0.5" fill="none" /><path id="2515" transform="matrix(1 0 0 -1 0 792)" d="M325.256 404.754L549.469 404.754L549.469 424.093L325.256 424.093z" stroke="none" fill="#FFFEFE" fill-rule="nonzero" /><path id="2516" transform="matrix(1 0 0 -1 0 792)" d="M326.2751 419.8408L548.9591 419.8408" stroke="#BBBDC0" stroke-width="0.51" stroke-linecap="round" stroke-dasharray="0.51,0.51" fill="none" /><path id="2517" transform="matrix(1 0 0 -1 0 792)" d="M549.469 419.8408L549.469 419.8408M325.256 419.8408L325.256 419.8408" stroke="#BBBDC0" stroke-width="0.51" stroke-linecap="round" fill="none" /><path id="2518" transform="matrix(1 0 0 -1 0 792)" d="M325.256 404.5239L548.917 404.5239" stroke="#939597" stroke-width="0.5" fill="none" /><g clip-path="url(#8)"><g><g clip-path="url(#9)"><path id="3343" transform="matrix(1 0 0 -1 0 792)" d="M322.0249 498.0667C 321.1289 497.1707 320.2329 496.2747 319.3369 495.3787L319.3369 495.3787L319.3369 254.4367L319.3369 254.4367L322.0249 251.7487L322.0249 251.7487L552.6999 251.7487L552.6999 251.7487L555.3879 254.4367L555.3879 254.4367L555.3879 495.3787C 554.4919 496.2747 553.5959 497.1707 552.6999 498.0667L552.6999 498.0667L322.0249 498.0667z" stroke="#000000" stroke-width="0.5" fill="none" stroke-opacity="0.4980392" /></g></g></g><g clip-path="url(#10)"><path id="3360" transform="matrix(1 0 0 -1 0 792)" d="M555.6614 32.702L555.6614 -12.691" stroke="#000000" stroke-width="0.75" stroke-linecap="round" stroke-dasharray="0.75,1.464" fill="none" /><path id="3361" transform="matrix(1 0 0 -1 0 792)" d="M555.6614 -13.7986L555.6614 -13.7986M555.6614 34.9164L555.6614 34.9164" stroke="#000000" stroke-width="0.75" stroke-linecap="round" fill="none" /></g></g></g></svg>