<svg xmlns="http://www.w3.org/2000/svg" xmlns:xlink="http://www.w3.org/1999/xlink" id="body_2" preserveAspectRatio="xMinYMin meet" viewBox="0 0 816 1056"><defs><clipPath id="1"><path id="" clip-rule="evenodd" transform="matrix(1 0 0 1 0 0)" d="M0 792L0 0L0 0L612 0L612 0L612 792L612 792L0 792z" /></clipPath><clipPath id="2"><path id="" clip-rule="evenodd" transform="matrix(1 0 0 1 0 0)" d="M0 0L612 0L612 0L612 792L612 792L0 792z" /></clipPath></defs><g transform="matrix(1.333333 0 0 1.333333 0 0)"><g clip-path="url(#1)"><path id="9" transform="matrix(1 0 0 -1 0 792)" d="M60.5719 685.8587L60.5719 694.0237" stroke="#BCBEC0" stroke-width="8" fill="none" /><path id="10" transform="matrix(1 0 0 -1 0 792)" d="M60.5719 639.8508L60.5719 648.0158" stroke="#BCBEC0" stroke-width="8" fill="none" /><path id="11" transform="matrix(1 0 0 -1 0 792)" d="M60.5719 617.5123L60.5719 625.6773" stroke="#BCBEC0" stroke-width="8" fill="none" /><path id="12" transform="matrix(1 0 0 -1 0 792)" d="M60.5719 547.8351L60.5719 556.0001" stroke="#BCBEC0" stroke-width="8" fill="none" /><path id="13" transform="matrix(1 0 0 -1 0 792)" d="M60.5719 276.9689L60.5719 285.1339" stroke="#BCBEC0" stroke-width="8" fill="none" /><path id="14" transform="matrix(1 0 0 -1 0 792)" d="M60.5719 183.6225L60.5719 191.7875" stroke="#BCBEC0" stroke-width="8" fill="none" /><g clip-path="url(#2)"><path id="3605" transform="matrix(1 0 0 -1 0 792)" d="M56.9448 32.702L56.9448 -12.691" stroke="#000000" stroke-width="0.75" stroke-linecap="round" stroke-dasharray="0.75,1.464" fill="none" /><path id="3606" transform="matrix(1 0 0 -1 0 792)" d="M56.9448 -13.7986L56.9448 -13.7986M56.9448 34.9164L56.9448 34.9164" stroke="#000000" stroke-width="0.75" stroke-linecap="round" fill="none" /></g></g></g></svg>