<svg xmlns="http://www.w3.org/2000/svg" xmlns:xlink="http://www.w3.org/1999/xlink" id="body_66" preserveAspectRatio="xMinYMin meet" viewBox="0 0 816 1056"><defs><clipPath id="1"><path id="" clip-rule="evenodd" transform="matrix(1 0 0 1 0 0)" d="M0 792L0 0L0 0L612 0L612 0L612 792L612 792L0 792z" /></clipPath><clipPath id="2"><path id="" clip-rule="evenodd" transform="matrix(1 0 0 1 0 0)" d="M0 0L612 0L612 0L612 792L612 792L0 792z" /></clipPath></defs><g transform="matrix(1.333333 0 0 1.333333 0 0)"><g clip-path="url(#1)"><path id="145" transform="matrix(1 0 0 -1 0 792)" d="M236.61 450.388L293.303 450.388L293.303 391.638L236.61 391.638zM116.22 450.388L236.61 450.388L236.61 391.638L116.22 391.638zM56.693 450.388L116.221 450.388L116.221 391.638L56.693 391.638zM236.61 600.888L293.303 600.888L293.303 531.138L236.61 531.138zM116.22 600.888L236.61 600.888L236.61 531.138L116.22 531.138zM56.693 600.888L116.221 600.888L116.221 531.138L56.693 531.138zM236.61 696.388L293.303 696.388L293.303 637.638L236.61 637.638zM116.22 696.388L236.61 696.388L236.61 637.638L116.22 637.638zM56.693 696.388L116.221 696.388L116.221 637.638L56.693 637.638z" stroke="none" fill="#E5E6E7" fill-rule="nonzero" /><path id="146" transform="matrix(1 0 0 -1 0 792)" d="M56.6929 696.3878L116.2209 696.3878" stroke="#000000" stroke-width="1" fill="none" /><path id="147" transform="matrix(1 0 0 -1 0 792)" d="M116.2205 696.3878L236.6105 696.3878" stroke="#000000" stroke-width="1" fill="none" /><path id="148" transform="matrix(1 0 0 -1 0 792)" d="M236.6102 696.3878L293.3032 696.3878" stroke="#000000" stroke-width="1" fill="none" /><path id="1782" transform="matrix(1 0 0 -1 0 792)" d="M56.693 277.205L85.039 277.205L85.039 88.82799L56.693 88.82799z" stroke="none" fill="#404042" fill-rule="nonzero" /><path id="1783" transform="matrix(1 0 0 -1 0 792)" d="M408.189 277.205L541.134 277.205L541.134 258.906L408.189 258.906zM261.638 277.205L408.189 277.205L408.189 258.906L261.638 258.906zM121.89 277.205L261.638 277.205L261.638 258.906L121.89 258.906zM85.039 277.205L121.889 277.205L121.889 258.906L85.039 258.906z" stroke="none" fill="#EAEBEC" fill-rule="nonzero" /><path id="1784" transform="matrix(1 0 0 -1 0 792)" d="M408.189 117.174L541.134 117.174L541.134 88.828L408.189 88.828zM261.638 117.174L408.189 117.174L408.189 88.828L261.638 88.828zM121.89 117.174L261.638 117.174L261.638 88.828L121.89 88.828zM85.039 117.174L121.889 117.174L121.889 88.828L85.039 88.828zM408.189 173.867L541.134 173.867L541.134 145.521L408.189 145.521zM261.638 173.867L408.189 173.867L408.189 145.521L261.638 145.521zM121.89 173.867L261.638 173.867L261.638 145.521L121.89 145.521zM85.039 173.867L121.889 173.867L121.889 145.521L85.039 145.521zM408.189 230.56L541.134 230.56L541.134 202.214L408.189 202.214zM261.638 230.56L408.189 230.56L408.189 202.214L261.638 202.214zM121.89 230.56L261.638 230.56L261.638 202.214L121.89 202.214zM85.039 230.56L121.889 230.56L121.889 202.214L85.039 202.214z" stroke="none" fill="#F0F1F1" fill-rule="nonzero" /><path id="1785" transform="matrix(1 0 0 -1 0 792)" d="M85.0394 258.9062L121.8894 258.9062" stroke="#000000" stroke-width="1" fill="none" /><path id="1786" transform="matrix(1 0 0 -1 0 792)" d="M121.8898 258.9062L261.6378 258.9062" stroke="#000000" stroke-width="1" fill="none" /><path id="1787" transform="matrix(1 0 0 -1 0 792)" d="M261.6378 258.9062L408.1888 258.9062" stroke="#000000" stroke-width="1" fill="none" /><path id="1788" transform="matrix(1 0 0 -1 0 792)" d="M408.189 258.9062L541.134 258.9062" stroke="#000000" stroke-width="1" fill="none" /><path id="1789" transform="matrix(1 0 0 -1 0 792)" d="M82.205 268.701L65.162 268.701L65.162 97.33199L82.205 97.33199z" stroke="none" fill="#404042" fill-rule="nonzero" /><path id="1790" transform="matrix(1 0 0 -1 0 792)" d="M69.1221 265.6022C 69.0261 265.6502 68.9301 265.5942 68.9301 265.4822L68.9301 265.4822L68.9301 265.1222C 68.9301 264.9942 69.0101 264.8702 69.1221 264.8222L69.1221 264.8222L70.8861 264.0302C 70.9821 263.9822 71.0421 263.8862 71.0421 263.7902L71.0421 263.7902L71.0421 258.2462C 71.0421 258.1502 70.9821 258.0542 70.8861 258.0062L70.8861 258.0062L69.1221 257.2022C 69.0101 257.1542 68.9301 257.0462 68.9301 256.9022L68.9301 256.9022L68.9301 256.5542C 68.9301 256.4582 69.0261 256.3862 69.1221 256.4342L69.1221 256.4342L78.0981 260.5382C 78.1941 260.6022 78.2901 260.7222 78.2901 260.8502L78.2901 260.8502L78.2901 261.1862C 78.2901 261.3302 78.1941 261.4502 78.0981 261.4982zM71.8701 258.4622C 71.7901 258.4302 71.7141 258.4782 71.7141 258.5582L71.7141 258.5582L71.7141 263.4782C 71.7141 263.5742 71.7901 263.6222 71.8701 263.5742L71.8701 263.5742L77.3661 261.0902C 77.4141 261.0582 77.4141 260.9942 77.3661 260.9462z" stroke="none" fill="#FFFEFE" fill-rule="evenodd" /><path id="1791" transform="matrix(1 0 0 -1 0 792)" d="M73.1181 247.1702C 73.1181 247.0742 73.0461 247.0022 72.9501 247.0022L72.9501 247.0022L71.6181 247.0022C 71.5221 247.0022 71.3981 247.0382 71.3181 247.0862C 70.1821 247.8542 69.4581 249.1062 69.4581 250.5302C 69.4581 252.8342 71.3061 254.6942 73.6101 254.6942C 75.8821 254.6942 77.7621 252.8342 77.7621 250.5302C 77.7621 249.2662 77.1621 248.1062 76.2501 247.3382C 76.1541 247.2582 76.1341 247.1222 76.2141 247.0262L76.2141 247.0262L76.3701 246.7982C 76.4181 246.7022 76.5621 246.6862 76.6581 246.7502C 77.7621 247.6622 78.4701 249.0102 78.4701 250.5302C 78.4701 253.2342 76.2821 255.4142 73.6101 255.4142C 70.9221 255.4142 68.7501 253.2342 68.7501 250.5302C 68.7501 249.1222 69.3781 247.8342 70.4181 247.0502C 70.4661 247.0182 70.4421 246.9542 70.3941 246.9542L70.3941 246.9542L70.3701 246.9422C 70.2901 246.9422 70.1461 246.9302 70.0821 246.9302L70.0821 246.9302L69.1461 246.9302C 69.0181 246.9302 68.9301 246.8422 68.9301 246.7142L68.9301 246.7142L68.9301 246.5462C 68.9301 246.4342 69.0181 246.3302 69.1461 246.3302L69.1461 246.3302L73.5261 246.3302C 73.6381 246.3302 73.7421 246.4342 73.7421 246.5462L73.7421 246.5462L73.7421 250.2062C 73.7421 250.3342 73.6381 250.4222 73.5261 250.4222L73.5261 250.4222L73.3341 250.4222C 73.2061 250.4222 73.1181 250.3342 73.1181 250.2062z" stroke="none" fill="#FFFEFE" fill-rule="evenodd" /><path id="1792" transform="matrix(1 0 0 -1 0 792)" d="M69.1461 243.5342C 69.0181 243.5342 68.9301 243.4462 68.9301 243.3182L68.9301 243.3182L68.9301 243.0422C 68.9301 242.9302 69.0181 242.8262 69.1461 242.8262L69.1461 242.8262L78.0741 242.8262C 78.1861 242.8262 78.2901 242.9302 78.2901 243.0422L78.2901 243.0422L78.2901 243.3182C 78.2901 243.4462 78.1861 243.5342 78.0741 243.5342z" stroke="none" fill="#FFFEFE" fill-rule="evenodd" /><path id="1793" transform="matrix(1 0 0 -1 0 792)" d="M68.9301 233.6462C 68.9301 233.5342 69.0181 233.4302 69.1461 233.4302L69.1461 233.4302L69.4101 233.4302C 69.5221 233.4302 69.6261 233.5342 69.6261 233.6462L69.6261 233.6462L69.6261 238.6742C 69.6261 238.7702 69.6981 238.8422 69.7941 238.8422L69.7941 238.8422L78.0741 238.8422C 78.1861 238.8422 78.2901 238.9462 78.2901 239.0582L78.2901 239.0582L78.2901 239.3342C 78.2901 239.4622 78.1861 239.5502 78.0741 239.5502L78.0741 239.5502L69.1461 239.5502C 69.0181 239.5502 68.9301 239.4622 68.9301 239.3342z" stroke="none" fill="#FFFEFE" fill-rule="evenodd" /><path id="1794" transform="matrix(1 0 0 -1 0 792)" d="M69.1461 231.0902C 69.0181 231.0902 68.9301 231.0022 68.9301 230.8742L68.9301 230.8742L68.9301 230.5982C 68.9301 230.4862 69.0181 230.3822 69.1461 230.3822L69.1461 230.3822L78.0741 230.3822C 78.1861 230.3822 78.2901 230.4862 78.2901 230.5982L78.2901 230.5982L78.2901 230.8742C 78.2901 231.0022 78.1861 231.0902 78.0741 231.0902z" stroke="none" fill="#FFFEFE" fill-rule="evenodd" /><path id="1795" transform="matrix(1 0 0 -1 0 792)" d="M77.5941 224.9222C 77.5941 224.8262 77.5221 224.7542 77.4261 224.7542L77.4261 224.7542L69.1461 224.7542C 69.0181 224.7542 68.9301 224.6662 68.9301 224.5382L68.9301 224.5382L68.9301 224.2622C 68.9301 224.1502 69.0181 224.0462 69.1461 224.0462L69.1461 224.0462L77.4261 224.0462C 77.5221 224.0462 77.5941 223.9742 77.5941 223.8782L77.5941 223.8782L77.5941 220.8782C 77.5941 220.7662 77.6821 220.6622 77.8101 220.6622L77.8101 220.6622L78.0741 220.6622C 78.1861 220.6622 78.2901 220.7662 78.2901 220.8782L78.2901 220.8782L78.2901 227.9102C 78.2901 228.0382 78.1861 228.1262 78.0741 228.1262L78.0741 228.1262L77.8101 228.1262C 77.6821 228.1262 77.5941 228.0382 77.5941 227.9102z" stroke="none" fill="#FFFEFE" fill-rule="evenodd" /><path id="1796" transform="matrix(1 0 0 -1 0 792)" d="M78.2901 219.3542C 78.2901 219.4502 78.1901 219.4982 78.1101 219.4502L78.1101 219.4502L72.4821 215.4302C 72.3861 215.3822 72.2781 215.3342 72.1821 215.3342L72.1821 215.3342L69.1461 215.3342C 69.0181 215.3342 68.9301 215.2462 68.9301 215.1182L68.9301 215.1182L68.9301 214.8422C 68.9301 214.7302 69.0181 214.6262 69.1461 214.6262L69.1461 214.6262L72.1941 214.6262C 72.2901 214.6262 72.3981 214.5942 72.4941 214.5302L72.4941 214.5302L78.1101 210.5102C 78.1901 210.4622 78.2901 210.5102 78.2901 210.6062L78.2901 210.6062L78.2901 211.0262C 78.2901 211.1702 78.2061 211.2982 78.1101 211.3622L78.1101 211.3622L73.2021 214.8902C 73.1381 214.9382 73.1381 215.0342 73.2021 215.0822L73.2021 215.0822L78.1101 218.5982C 78.2061 218.6782 78.2901 218.8062 78.2901 218.9342z" stroke="none" fill="#FFFEFE" fill-rule="evenodd" /><g clip-path="url(#2)"><path id="2734" transform="matrix(1 0 0 -1 0 792)" d="M56.9448 32.702L56.9448 -12.691" stroke="#000000" stroke-width="0.75" stroke-linecap="round" stroke-dasharray="0.75,1.464" fill="none" /><path id="2735" transform="matrix(1 0 0 -1 0 792)" d="M56.9448 -13.7986L56.9448 -13.7986M56.9448 34.9164L56.9448 34.9164" stroke="#000000" stroke-width="0.75" stroke-linecap="round" fill="none" /></g></g></g></svg>