<svg xmlns="http://www.w3.org/2000/svg" xmlns:xlink="http://www.w3.org/1999/xlink" id="body_5" preserveAspectRatio="xMinYMin meet" viewBox="0 0 816 1056"><defs><clipPath id="1"><path id="" clip-rule="evenodd" transform="matrix(1 0 0 1 0 0)" d="M0 792L0 0L0 0L612 0L612 0L612 792L612 792L0 792z" /></clipPath><clipPath id="2"><path id="" clip-rule="evenodd" transform="matrix(1 0 0 1 0 0)" d="M0 0L612 0L612 0L612 792L612 792L0 792z" /></clipPath></defs><g transform="matrix(1.333333 0 0 1.333333 0 0)"><g clip-path="url(#1)"><path id="1779" transform="matrix(1 0 0 -1 0 792)" d="M319.7953 591.129L319.7953 666.129" stroke="#6D6E70" stroke-width="1" fill="none" /><path id="1780" transform="matrix(1 0 0 -1 0 792)" d="M319.087 65.507L555.307 65.507L555.307 372.861L319.087 372.861z" stroke="none" fill="#F1F1F2" fill-rule="nonzero" /><path id="1781" transform="matrix(1 0 0 -1 0 792)" d="M555.3071 65.5069L319.0871 65.5069" stroke="#6D6E70" stroke-width="1" fill="none" /><path id="1782" transform="matrix(1 0 0 -1 0 792)" d="M319.0866 372.8613L555.3066 372.8613" stroke="#6D6E70" stroke-width="1" fill="none" /><g clip-path="url(#2)"><path id="4016" transform="matrix(1 0 0 -1 0 792)" d="M555.6614 32.702L555.6614 -12.691" stroke="#000000" stroke-width="0.75" stroke-linecap="round" stroke-dasharray="0.75,1.464" fill="none" /><path id="4017" transform="matrix(1 0 0 -1 0 792)" d="M555.6614 -13.7986L555.6614 -13.7986M555.6614 34.9164L555.6614 34.9164" stroke="#000000" stroke-width="0.75" stroke-linecap="round" fill="none" /></g></g></g></svg>