<svg xmlns="http://www.w3.org/2000/svg" xmlns:xlink="http://www.w3.org/1999/xlink" id="body_40" preserveAspectRatio="xMinYMin meet" viewBox="0 0 816 1056"><defs><clipPath id="1"><path id="" clip-rule="evenodd" transform="matrix(1 0 0 1 0 0)" d="M0 792L0 0L0 0L612 0L612 0L612 792L612 792L0 792z" /></clipPath><clipPath id="2"><path id="" clip-rule="evenodd" transform="matrix(1 0 0 1 0 0)" d="M0 0L612 0L612 0L612 792L612 792L0 792z" /></clipPath></defs><g transform="matrix(1.333333 0 0 1.333333 0 0)"><g clip-path="url(#1)"><path id="1" transform="matrix(1 0 0 -1 0 792)" d="M60.9449 727.1418L60.9449 735.3068" stroke="#BBBDC0" stroke-width="8" fill="none" /><path id="2" transform="matrix(1 0 0 -1 0 792)" d="M60.9449 644.1339L60.9449 663.2989" stroke="#BBBDC0" stroke-width="8" fill="none" /><path id="3" transform="matrix(1 0 0 -1 0 792)" d="M60.9449 456.1182L60.9449 464.2832" stroke="#BBBDC0" stroke-width="8" fill="none" /><path id="4" transform="matrix(1 0 0 -1 0 792)" d="M60.9449 395.1103L60.9449 403.2753" stroke="#BBBDC0" stroke-width="8" fill="none" /><path id="5" transform="matrix(1 0 0 -1 0 792)" d="M56.693 276.429L292.913 276.429L292.913 357.437L56.693 357.437z" stroke="none" fill="#F0F1F1" fill-rule="nonzero" /><path id="6" transform="matrix(1 0 0 -1 0 792)" d="M292.9134 276.4292L56.69339 276.4292" stroke="#6D6E70" stroke-width="1" fill="none" /><path id="7" transform="matrix(1 0 0 -1 0 792)" d="M56.6929 357.437L292.9129 357.437" stroke="#6D6E70" stroke-width="1" fill="none" /><path id="1894" transform="matrix(1 0 0 -1 0 792)" d="M304.913 325.441L541.133 325.441L541.133 466.122L304.913 466.122z" stroke="none" fill="#F0F1F1" fill-rule="nonzero" /><path id="1895" transform="matrix(1 0 0 -1 0 792)" d="M541.1339 325.441L304.9139 325.441" stroke="#939597" stroke-width="1" fill="none" /><path id="1896" transform="matrix(1 0 0 -1 0 792)" d="M304.9134 466.1221L541.1334 466.1221" stroke="#939597" stroke-width="1" fill="none" /><path id="1897" transform="matrix(1 0 0 -1 0 792)" d="M309.1653 305.4371L309.1653 313.6021" stroke="#BBBDC0" stroke-width="8" fill="none" /><path id="1898" transform="matrix(1 0 0 -1 0 792)" d="M309.1653 194.7599L309.1653 202.9249" stroke="#BBBDC0" stroke-width="8" fill="none" /><path id="1899" transform="matrix(1 0 0 -1 0 792)" d="M309.1653 133.752L309.1653 141.917" stroke="#BBBDC0" stroke-width="8" fill="none" /><g clip-path="url(#2)"><path id="3883" transform="matrix(1 0 0 -1 0 792)" d="M56.9448 32.702L56.9448 -12.691" stroke="#000000" stroke-width="0.75" stroke-linecap="round" stroke-dasharray="0.75,1.464" fill="none" /><path id="3884" transform="matrix(1 0 0 -1 0 792)" d="M56.9448 -13.7986L56.9448 -13.7986M56.9448 34.9164L56.9448 34.9164" stroke="#000000" stroke-width="0.75" stroke-linecap="round" fill="none" /></g></g></g></svg>