<svg xmlns="http://www.w3.org/2000/svg" xmlns:xlink="http://www.w3.org/1999/xlink" id="body_93" preserveAspectRatio="xMinYMin meet" viewBox="0 0 816 1056"><defs><clipPath id="1"><path id="" clip-rule="evenodd" transform="matrix(1 0 0 1 0 0)" d="M0 792L0 0L0 0L612 0L612 0L612 792L612 792L0 792z" /></clipPath><clipPath id="2"><path id="" clip-rule="evenodd" transform="matrix(1 0 0 1 0 0)" d="M70.866 264.092L307.418 264.092L307.418 264.092L307.418 56.69202L307.418 56.69202L70.866 56.69202z" /></clipPath><clipPath id="3"><path id="" clip-rule="evenodd" transform="matrix(1 0 0 1 0 0)" d="M61.8661 48.69299L316.417 48.69299L316.417 48.69299L316.417 266.802L316.417 266.802L61.8661 266.802z" /></clipPath><clipPath id="4"><path id="" clip-rule="evenodd" transform="matrix(1 0 0 1 0 0)" d="M70.866 519.817L307.418 519.817L307.418 519.817L307.418 274.916L307.418 274.916L70.866 274.916z" /></clipPath><clipPath id="5"><path id="" clip-rule="evenodd" transform="matrix(1 0 0 1 0 0)" d="M61.8662 266.916L316.417 266.916L316.417 266.916L316.417 522.525L316.417 522.525L61.8662 522.525z" /></clipPath><clipPath id="6"><path id="" clip-rule="evenodd" transform="matrix(1 0 0 1 0 0)" d="M70.866 722.746L307.418 722.746L307.418 722.746L307.418 531.433L307.418 531.433L70.866 531.433z" /></clipPath><clipPath id="7"><path id="" clip-rule="evenodd" transform="matrix(1 0 0 1 0 0)" d="M61.8662 523.433L316.417 523.433L316.417 523.433L316.417 725.4555L316.417 725.4555L61.8662 725.4555z" /></clipPath><clipPath id="8"><path id="" clip-rule="evenodd" transform="matrix(1 0 0 1 0 0)" d="M319.087 366.259L555.638 366.259L555.638 366.259L555.638 56.69299L555.638 56.69299L319.087 56.69299z" /></clipPath><clipPath id="9"><path id="" clip-rule="evenodd" transform="matrix(1 0 0 1 0 0)" d="M310.087 48.69299L564.638 48.69299L564.638 48.69299L564.638 368.967L564.638 368.967L310.087 368.967z" /></clipPath><clipPath id="10"><path id="" clip-rule="evenodd" transform="matrix(1 0 0 1 0 0)" d="M319.087 601.23L555.638 601.23L555.638 601.23L555.638 379.499L555.638 379.499L319.087 379.499z" /></clipPath><clipPath id="11"><path id="" clip-rule="evenodd" transform="matrix(1 0 0 1 0 0)" d="M310.087 371.498L564.638 371.498L564.638 371.498L564.638 603.938L564.638 603.938L310.087 603.938z" /></clipPath><clipPath id="12"><path id="" clip-rule="evenodd" transform="matrix(1 0 0 1 0 0)" d="M0 0L612 0L612 0L612 792L612 792L0 792z" /></clipPath></defs><g transform="matrix(1.333333 0 0 1.333333 0 0)"><g clip-path="url(#1)"><path id="1" transform="matrix(1 0 0 -1 0 792)" d="M73.701 735.3072L70.866 732.4722L70.866 530.7412L73.699 527.9072L304.584 527.9072L307.418 530.7412L307.418 732.4722L304.583 735.3072z" stroke="none" fill="#EAEBEC" fill-rule="nonzero" /><path id="2" transform="matrix(1 0 0 -1 0 792)" d="M77.035 656.414L301.248 656.414L301.248 681.918L77.035 681.918z" stroke="none" fill="#FFFEFE" fill-rule="nonzero" /><path id="3" transform="matrix(1 0 0 -1 0 792)" d="M77.0354 681.9178L301.2484 681.9178" stroke="#939597" stroke-width="0.5" fill="none" /><path id="4" transform="matrix(1 0 0 -1 0 792)" d="M77.035 641.745L301.248 641.745L301.248 661.084L77.035 661.084z" stroke="none" fill="#FFFEFE" fill-rule="nonzero" /><path id="5" transform="matrix(1 0 0 -1 0 792)" d="M78.0546 656.8312L300.7386 656.8312" stroke="#BBBDC0" stroke-width="0.51" stroke-linecap="round" stroke-dasharray="0.51,0.51" fill="none" /><path id="6" transform="matrix(1 0 0 -1 0 792)" d="M301.2484 656.8312L301.2484 656.8312M77.0354 656.8312L77.0354 656.8312" stroke="#BBBDC0" stroke-width="0.51" stroke-linecap="round" fill="none" /><path id="7" transform="matrix(1 0 0 -1 0 792)" d="M77.0354 641.5143L300.6964 641.5143" stroke="#939597" stroke-width="0.5" fill="none" /><g clip-path="url(#2)"><g><g clip-path="url(#3)"><path id="587" transform="matrix(1 0 0 -1 0 792)" d="M73.8043 735.0571C 72.90829 734.1611 72.0123 733.2651 71.11629 732.3691L71.11629 732.3691L71.11629 530.8441C 72.0123 529.9481 72.90829 529.0521 73.8043 528.1561L73.8043 528.1561L304.4793 528.1561C 305.3753 529.0521 306.2713 529.9481 307.1673 530.8441L307.1673 530.8441L307.1673 732.3691C 306.2713 733.2651 305.3753 734.1611 304.4793 735.0571L304.4793 735.0571L73.8043 735.0571z" stroke="#000000" stroke-width="0.5" fill="none" stroke-opacity="0.4980392" /></g></g></g><path id="588" transform="matrix(1 0 0 -1 0 792)" d="M73.701 517.0842L70.866 514.2492L70.866 275.0172L73.701 272.1832L304.583 272.1832L307.418 275.0172L307.418 514.2492L304.583 517.0842z" stroke="none" fill="#EAEBEC" fill-rule="nonzero" /><path id="589" transform="matrix(1 0 0 -1 0 792)" d="M77.035 429.191L301.248 429.191L301.248 454.695L77.035 454.695z" stroke="none" fill="#FFFEFE" fill-rule="nonzero" /><path id="590" transform="matrix(1 0 0 -1 0 792)" d="M77.0355 454.6949L301.2485 454.6949" stroke="#939597" stroke-width="0.5" fill="none" /><path id="591" transform="matrix(1 0 0 -1 0 792)" d="M77.035 414.522L301.248 414.522L301.248 433.861L77.035 433.861z" stroke="none" fill="#FFFEFE" fill-rule="nonzero" /><path id="592" transform="matrix(1 0 0 -1 0 792)" d="M78.0546 429.6083L300.7386 429.6083" stroke="#BBBDC0" stroke-width="0.51" stroke-linecap="round" stroke-dasharray="0.51,0.51" fill="none" /><path id="593" transform="matrix(1 0 0 -1 0 792)" d="M301.2485 429.6083L301.2485 429.6083M77.0355 429.6083L77.0355 429.6083" stroke="#BBBDC0" stroke-width="0.51" stroke-linecap="round" fill="none" /><path id="594" transform="matrix(1 0 0 -1 0 792)" d="M77.0355 414.2914L300.6965 414.2914" stroke="#939597" stroke-width="0.5" fill="none" /><g clip-path="url(#4)"><g><g clip-path="url(#5)"><path id="1348" transform="matrix(1 0 0 -1 0 792)" d="M73.8044 516.8342C 72.90839 515.9382 72.0124 515.0422 71.11639 514.1462L71.11639 514.1462L71.11639 275.1212L71.11639 275.1212L73.8044 272.4332L73.8044 272.4332L304.4794 272.4332C 305.3754 273.3292 306.2714 274.2252 307.1674 275.1212L307.1674 275.1212L307.1674 514.1462C 306.2714 515.0422 305.3754 515.9382 304.4794 516.8342L304.4794 516.8342L73.8044 516.8342z" stroke="#000000" stroke-width="0.5" fill="none" stroke-opacity="0.4980392" /></g></g></g><path id="1349" transform="matrix(1 0 0 -1 0 792)" d="M73.701 260.5671L70.866 257.7321L70.866 72.08711L73.699 69.2541L304.584 69.2541L307.418 72.08711L307.418 257.7321L304.583 260.5671z" stroke="none" fill="#EAEBEC" fill-rule="nonzero" /><path id="1350" transform="matrix(1 0 0 -1 0 792)" d="M77.035 181.674L301.248 181.674L301.248 207.178L77.035 207.178z" stroke="none" fill="#FFFEFE" fill-rule="nonzero" /><path id="1351" transform="matrix(1 0 0 -1 0 792)" d="M77.0355 207.1777L301.2485 207.1777" stroke="#939597" stroke-width="0.5" fill="none" /><path id="1352" transform="matrix(1 0 0 -1 0 792)" d="M77.0355 181.4435L300.6965 181.4435" stroke="#939597" stroke-width="0.5" fill="none" /><g clip-path="url(#6)"><g><g clip-path="url(#7)"><path id="1909" transform="matrix(1 0 0 -1 0 792)" d="M73.8044 260.317C 72.90839 259.421 72.0124 258.525 71.11639 257.629L71.11639 257.629L71.11639 72.19098L71.11639 72.19098L73.8044 69.50299L73.8044 69.50299L304.4794 69.50299C 305.3754 70.39899 306.2714 71.29498 307.1674 72.19098L307.1674 72.19098L307.1674 257.629L307.1674 257.629L304.4794 260.317L304.4794 260.317L73.8044 260.317z" stroke="#000000" stroke-width="0.5" fill="none" stroke-opacity="0.4980392" /></g></g></g><path id="1910" transform="matrix(1 0 0 -1 0 792)" d="M321.921 735.3072L319.087 732.4722L319.087 428.5752L321.92 425.7412L552.804 425.7412L555.637 428.5752L555.637 732.4722L552.803 735.3072z" stroke="none" fill="#EAEBEC" fill-rule="nonzero" /><path id="1911" transform="matrix(1 0 0 -1 0 792)" d="M325.256 656.414L549.469 656.414L549.469 681.918L325.256 681.918z" stroke="none" fill="#FFFEFE" fill-rule="nonzero" /><path id="1912" transform="matrix(1 0 0 -1 0 792)" d="M325.256 681.9178L549.469 681.9178" stroke="#939597" stroke-width="0.5" fill="none" /><path id="1913" transform="matrix(1 0 0 -1 0 792)" d="M325.256 656.1836L548.917 656.1836" stroke="#939597" stroke-width="0.5" fill="none" /><g clip-path="url(#8)"><g><g clip-path="url(#9)"><path id="3108" transform="matrix(1 0 0 -1 0 792)" d="M322.0249 735.0571C 321.1289 734.1611 320.2329 733.2651 319.3369 732.3691L319.3369 732.3691L319.3369 428.6791L319.3369 428.6791L322.0249 425.9911L322.0249 425.9911L552.6999 425.9911C 553.5959 426.8871 554.4919 427.7821 555.3879 428.6791L555.3879 428.6791L555.3879 732.3691C 554.4919 733.2651 553.5959 734.1611 552.6999 735.0571L552.6999 735.0571L322.0249 735.0571z" stroke="#000000" stroke-width="0.5" fill="none" stroke-opacity="0.4980392" /></g></g></g><path id="3109" transform="matrix(1 0 0 -1 0 792)" d="M321.921 412.5015L319.087 409.6675L319.087 193.6045L321.921 190.7705L552.803 190.7705L555.637 193.6045L555.637 409.6675L552.803 412.5015z" stroke="none" fill="#EAEBEC" fill-rule="nonzero" /><path id="3110" transform="matrix(1 0 0 -1 0 792)" d="M325.256 333.609L549.469 333.609L549.469 359.113L325.256 359.113z" stroke="none" fill="#FFFEFE" fill-rule="nonzero" /><path id="3111" transform="matrix(1 0 0 -1 0 792)" d="M325.256 359.1125L549.469 359.1125" stroke="#939597" stroke-width="0.5" fill="none" /><path id="3112" transform="matrix(1 0 0 -1 0 792)" d="M325.256 332.8782L548.917 332.8782" stroke="#939597" stroke-width="0.5" fill="none" /><g clip-path="url(#10)"><g><g clip-path="url(#11)"><path id="3850" transform="matrix(1 0 0 -1 0 792)" d="M322.0249 412.2517C 321.1289 411.3557 320.2329 410.4597 319.3369 409.5637L319.3369 409.5637L319.3369 193.7077C 320.2329 192.8117 321.1289 191.9157 322.0249 191.0197L322.0249 191.0197L552.6999 191.0197C 553.5959 191.9157 554.4919 192.8117 555.3879 193.7077L555.3879 193.7077L555.3879 409.5637C 554.4919 410.4597 553.5959 411.3557 552.6999 412.2517L552.6999 412.2517L322.0249 412.2517z" stroke="#000000" stroke-width="0.5" fill="none" stroke-opacity="0.4980392" /></g></g></g><g clip-path="url(#12)"><path id="3867" transform="matrix(1 0 0 -1 0 792)" d="M555.6614 32.702L555.6614 -12.691" stroke="#000000" stroke-width="0.75" stroke-linecap="round" stroke-dasharray="0.75,1.464" fill="none" /><path id="3868" transform="matrix(1 0 0 -1 0 792)" d="M555.6614 -13.7986L555.6614 -13.7986M555.6614 34.9164L555.6614 34.9164" stroke="#000000" stroke-width="0.75" stroke-linecap="round" fill="none" /></g></g></g></svg>