<svg xmlns="http://www.w3.org/2000/svg" xmlns:xlink="http://www.w3.org/1999/xlink" id="body_97" preserveAspectRatio="xMinYMin meet" viewBox="0 0 816 1056"><defs><clipPath id="1"><path id="" clip-rule="evenodd" transform="matrix(1 0 0 1 0 0)" d="M0 792L0 0L0 0L612 0L612 0L612 792L612 792L0 792z" /></clipPath><clipPath id="2"><path id="" clip-rule="evenodd" transform="matrix(1 0 0 1 0 0)" d="M70.866 277.925L307.417 277.925L307.417 277.925L307.417 56.69202L307.417 56.69202L70.866 56.69202z" /></clipPath><clipPath id="3"><path id="" clip-rule="evenodd" transform="matrix(1 0 0 1 0 0)" d="M61.8662 48.69299L316.417 48.69299L316.417 48.69299L316.417 280.633L316.417 280.633L61.8662 280.633z" /></clipPath><clipPath id="4"><path id="" clip-rule="evenodd" transform="matrix(1 0 0 1 0 0)" d="M70.866 611.304L307.417 611.304L307.417 611.304L307.417 288.068L307.417 288.068L70.866 288.068z" /></clipPath><clipPath id="5"><path id="" clip-rule="evenodd" transform="matrix(1 0 0 1 0 0)" d="M61.8662 280.069L316.417 280.069L316.417 280.069L316.417 605.012L316.417 605.012L61.8662 605.012z" /></clipPath><clipPath id="6"><path id="" clip-rule="evenodd" transform="matrix(1 0 0 1 0 0)" d="M319.087 380.429L555.638 380.429L555.638 380.429L555.638 56.69299L555.638 56.69299L319.087 56.69299z" /></clipPath><clipPath id="7"><path id="" clip-rule="evenodd" transform="matrix(1 0 0 1 0 0)" d="M310.087 48.69299L564.638 48.69299L564.638 48.69299L564.638 373.637L564.638 373.637L310.087 373.637z" /></clipPath><clipPath id="8"><path id="" clip-rule="evenodd" transform="matrix(1 0 0 1 0 0)" d="M319.087 713.234L555.638 713.234L555.638 713.234L555.638 379.08L555.638 379.08L319.087 379.08z" /></clipPath><clipPath id="9"><path id="" clip-rule="evenodd" transform="matrix(1 0 0 1 0 0)" d="M310.087 371.08L564.638 371.08L564.638 371.08L564.638 706.4411L564.638 706.4411L310.087 706.4411z" /></clipPath><clipPath id="10"><path id="" clip-rule="evenodd" transform="matrix(1 0 0 1 0 0)" d="M0 0L612 0L612 0L612 792L612 792L0 792z" /></clipPath></defs><g transform="matrix(1.333333 0 0 1.333333 0 0)"><g clip-path="url(#1)"><path id="1" transform="matrix(1 0 0 -1 0 792)" d="M73.701 735.3072L70.866 732.4722L70.866 516.9102L73.701 514.0752L304.582 514.0752L307.417 516.9102L307.417 732.4722L304.582 735.3072z" stroke="none" fill="#EAEBEC" fill-rule="nonzero" /><path id="2" transform="matrix(1 0 0 -1 0 792)" d="M77.035 656.414L301.248 656.414L301.248 681.918L77.035 681.918z" stroke="none" fill="#FFFEFE" fill-rule="nonzero" /><path id="3" transform="matrix(1 0 0 -1 0 792)" d="M77.0355 681.9179L301.2485 681.9179" stroke="#939597" stroke-width="0.5" fill="none" /><path id="4" transform="matrix(1 0 0 -1 0 792)" d="M77.0355 656.1837L300.6965 656.1837" stroke="#939597" stroke-width="0.5" fill="none" /><g clip-path="url(#2)"><g><g clip-path="url(#3)"><path id="703" transform="matrix(1 0 0 -1 0 792)" d="M73.8044 735.0572C 72.90839 734.1612 72.0124 733.2652 71.11639 732.3692L71.11639 732.3692L71.11639 517.0132C 72.0124 516.1172 72.90839 515.2212 73.8044 514.3252L73.8044 514.3252L304.4794 514.3252C 305.3754 515.2212 306.2714 516.1172 307.1674 517.0132L307.1674 517.0132L307.1674 732.3692C 306.2714 733.2652 305.3754 734.1612 304.4794 735.0572L304.4794 735.0572L73.8044 735.0572z" stroke="#000000" stroke-width="0.5" fill="none" stroke-opacity="0.4980392" /></g></g></g><path id="704" transform="matrix(1 0 0 -1 0 792)" d="M73.701 503.9316L70.866 501.0966L70.866 192.5306L73.701 189.6956L304.582 189.6956L307.417 192.5306L307.417 501.0966L304.582 503.9316z" stroke="none" fill="#EAEBEC" fill-rule="nonzero" /><path id="705" transform="matrix(1 0 0 -1 0 792)" d="M77.035 416.038L301.248 416.038L301.248 441.542L77.035 441.542z" stroke="none" fill="#FFFEFE" fill-rule="nonzero" /><path id="706" transform="matrix(1 0 0 -1 0 792)" d="M77.0355 441.5422L301.2485 441.5422" stroke="#939597" stroke-width="0.5" fill="none" /><path id="707" transform="matrix(1 0 0 -1 0 792)" d="M77.035 401.369L301.248 401.369L301.248 420.708L77.035 420.708z" stroke="none" fill="#FFFEFE" fill-rule="nonzero" /><path id="708" transform="matrix(1 0 0 -1 0 792)" d="M78.0546 416.4556L300.7386 416.4556" stroke="#BBBDC0" stroke-width="0.51" stroke-linecap="round" stroke-dasharray="0.51,0.51" fill="none" /><path id="709" transform="matrix(1 0 0 -1 0 792)" d="M301.2485 416.4556L301.2485 416.4556M77.0355 416.4556L77.0355 416.4556" stroke="#BBBDC0" stroke-width="0.51" stroke-linecap="round" fill="none" /><path id="710" transform="matrix(1 0 0 -1 0 792)" d="M77.0355 401.1386L300.6965 401.1386" stroke="#939597" stroke-width="0.5" fill="none" /><g clip-path="url(#4)"><g><g clip-path="url(#5)"><path id="1880" transform="matrix(1 0 0 -1 0 792)" d="M73.8044 503.6815C 72.90839 502.7855 72.0124 501.8895 71.11639 500.9935L71.11639 500.9935L71.11639 192.6345L71.11639 192.6345L73.8044 189.9455L73.8044 189.9455L304.4794 189.9455C 305.3754 190.8415 306.2714 191.7375 307.1674 192.6335L307.1674 192.6335L307.1674 500.9935C 306.2714 501.8895 305.3754 502.7855 304.4794 503.6815L304.4794 503.6815L73.8044 503.6815z" stroke="#000000" stroke-width="0.5" fill="none" stroke-opacity="0.4980392" /></g></g></g><path id="1881" transform="matrix(1 0 0 -1 0 792)" d="M321.921 735.3072L319.087 732.4722L319.087 423.9062L321.921 421.0712L552.803 421.0712L555.638 423.9062L555.638 732.4722L552.803 735.3072z" stroke="none" fill="#EAEBEC" fill-rule="nonzero" /><path id="1882" transform="matrix(1 0 0 -1 0 792)" d="M325.256 647.414L549.469 647.414L549.469 672.918L325.256 672.918z" stroke="none" fill="#FFFEFE" fill-rule="nonzero" /><path id="1883" transform="matrix(1 0 0 -1 0 792)" d="M325.2559 672.9178L549.4689 672.9178" stroke="#939597" stroke-width="0.5" fill="none" /><path id="1884" transform="matrix(1 0 0 -1 0 792)" d="M325.256 632.745L549.469 632.745L549.469 652.084L325.256 652.084z" stroke="none" fill="#FFFEFE" fill-rule="nonzero" /><path id="1885" transform="matrix(1 0 0 -1 0 792)" d="M326.2751 647.8312L548.9591 647.8312" stroke="#BBBDC0" stroke-width="0.51" stroke-linecap="round" stroke-dasharray="0.51,0.51" fill="none" /><path id="1886" transform="matrix(1 0 0 -1 0 792)" d="M549.4689 647.8312L549.4689 647.8312M325.2559 647.8312L325.2559 647.8312" stroke="#BBBDC0" stroke-width="0.51" stroke-linecap="round" fill="none" /><path id="1887" transform="matrix(1 0 0 -1 0 792)" d="M325.2559 632.5143L548.9169 632.5143" stroke="#939597" stroke-width="0.5" fill="none" /><g clip-path="url(#6)"><g><g clip-path="url(#7)"><path id="3017" transform="matrix(1 0 0 -1 0 792)" d="M322.0248 735.0571C 321.1288 734.1611 320.2328 733.2651 319.3368 732.3691L319.3368 732.3691L319.3368 424.0101L319.3368 424.0101L322.0248 421.3211L322.0248 421.3211L552.6998 421.3211C 553.5958 422.2171 554.4918 423.1131 555.3878 424.0091L555.3878 424.0091L555.3878 732.3691C 554.4918 733.2651 553.5958 734.1611 552.6998 735.0571L552.6998 735.0571L322.0248 735.0571z" stroke="#000000" stroke-width="0.5" fill="none" stroke-opacity="0.4980392" /></g></g></g><path id="3018" transform="matrix(1 0 0 -1 0 792)" d="M321.921 412.92L319.087 410.085L319.087 91.10202L321.921 88.267L552.803 88.267L555.638 91.10202L555.638 410.085L552.803 412.92z" stroke="none" fill="#EAEBEC" fill-rule="nonzero" /><path id="3019" transform="matrix(1 0 0 -1 0 792)" d="M325.256 316.027L549.469 316.027L549.469 341.531L325.256 341.531z" stroke="none" fill="#FFFEFE" fill-rule="nonzero" /><path id="3020" transform="matrix(1 0 0 -1 0 792)" d="M325.256 341.5306L549.469 341.5306" stroke="#939597" stroke-width="0.5" fill="none" /><path id="3021" transform="matrix(1 0 0 -1 0 792)" d="M325.256 301.357L549.469 301.357L549.469 320.696L325.256 320.696z" stroke="none" fill="#FFFEFE" fill-rule="nonzero" /><path id="3022" transform="matrix(1 0 0 -1 0 792)" d="M326.2751 316.444L548.9591 316.444" stroke="#BBBDC0" stroke-width="0.51" stroke-linecap="round" stroke-dasharray="0.51,0.51" fill="none" /><path id="3023" transform="matrix(1 0 0 -1 0 792)" d="M549.469 316.444L549.469 316.444M325.256 316.444L325.256 316.444" stroke="#BBBDC0" stroke-width="0.51" stroke-linecap="round" fill="none" /><path id="3024" transform="matrix(1 0 0 -1 0 792)" d="M325.256 301.1271L548.917 301.1271" stroke="#939597" stroke-width="0.5" fill="none" /><g clip-path="url(#8)"><g><g clip-path="url(#9)"><path id="4143" transform="matrix(1 0 0 -1 0 792)" d="M322.0249 412.67C 321.1289 411.774 320.2329 410.877 319.3369 409.982L319.3369 409.982L319.3369 91.20502C 320.2329 90.30902 321.1289 89.41302 322.0249 88.517L322.0249 88.517L552.6999 88.517C 553.5959 89.41302 554.4919 90.30902 555.3879 91.20502L555.3879 91.20502L555.3879 409.982C 554.4919 410.878 553.5959 411.774 552.6999 412.67L552.6999 412.67L322.0249 412.67z" stroke="#000000" stroke-width="0.5" fill="none" stroke-opacity="0.4980392" /></g></g></g><g clip-path="url(#10)"><path id="4160" transform="matrix(1 0 0 -1 0 792)" d="M555.6614 32.702L555.6614 -12.691" stroke="#000000" stroke-width="0.75" stroke-linecap="round" stroke-dasharray="0.75,1.464" fill="none" /><path id="4161" transform="matrix(1 0 0 -1 0 792)" d="M555.6614 -13.7986L555.6614 -13.7986M555.6614 34.9164L555.6614 34.9164" stroke="#000000" stroke-width="0.75" stroke-linecap="round" fill="none" /></g></g></g></svg>